G75*
G70*
%OFA0B0*%
%FSLAX24Y24*%
%IPPOS*%
%LPD*%
%AMOC8*
5,1,8,0,0,1.08239X$1,22.5*
%
%ADD10C,0.0060*%
%ADD11C,0.0080*%
%ADD12C,0.0050*%
%ADD13C,0.0100*%
%ADD14C,0.0200*%
%ADD15C,0.0400*%
%ADD16C,0.0004*%
%ADD17C,0.0120*%
%ADD18C,0.0160*%
%ADD19C,0.0020*%
%ADD20C,0.0040*%
D10*
X013434Y005413D02*
X013674Y005413D01*
X013434Y005653D01*
X013434Y005713D01*
X013494Y005773D01*
X013614Y005773D01*
X013674Y005713D01*
X015876Y003852D02*
X016037Y003692D01*
X015823Y003692D01*
X015876Y003532D02*
X015876Y003852D01*
X016158Y003585D02*
X016158Y003532D01*
X016211Y003532D01*
X016211Y003585D01*
X016158Y003585D01*
X016348Y003532D02*
X016561Y003532D01*
X016455Y003532D02*
X016455Y003852D01*
X016561Y003745D01*
X016698Y003638D02*
X016698Y003852D01*
X016911Y003852D02*
X016911Y003638D01*
X016805Y003532D01*
X016698Y003638D01*
X017398Y003638D02*
X017398Y003585D01*
X017451Y003532D01*
X017558Y003532D01*
X017611Y003585D01*
X017747Y003585D02*
X017801Y003532D01*
X017908Y003532D01*
X017961Y003585D01*
X017747Y003799D01*
X017747Y003585D01*
X017747Y003799D02*
X017801Y003852D01*
X017908Y003852D01*
X017961Y003799D01*
X017961Y003585D01*
X018097Y003852D02*
X018311Y003532D01*
X018447Y003585D02*
X018501Y003532D01*
X018607Y003532D01*
X018661Y003585D01*
X018797Y003532D02*
X019011Y003532D01*
X018797Y003745D01*
X018797Y003799D01*
X018851Y003852D01*
X018957Y003852D01*
X019011Y003799D01*
X019147Y003799D02*
X019361Y003585D01*
X019307Y003532D01*
X019200Y003532D01*
X019147Y003585D01*
X019147Y003799D01*
X019200Y003852D01*
X019307Y003852D01*
X019361Y003799D01*
X019361Y003585D01*
X019497Y003532D02*
X019710Y003532D01*
X019497Y003745D01*
X019497Y003799D01*
X019550Y003852D01*
X019657Y003852D01*
X019710Y003799D01*
X018661Y003799D02*
X018607Y003852D01*
X018501Y003852D01*
X018447Y003799D01*
X018447Y003745D01*
X018501Y003692D01*
X018447Y003638D01*
X018447Y003585D01*
X018501Y003692D02*
X018554Y003692D01*
X017611Y003799D02*
X017558Y003852D01*
X017451Y003852D01*
X017398Y003799D01*
X017398Y003745D01*
X017451Y003692D01*
X017398Y003638D01*
X017451Y003692D02*
X017504Y003692D01*
X015198Y001826D02*
X015078Y001946D01*
X015078Y001586D01*
X014958Y001586D01*
X015078Y001586D02*
X015098Y001586D01*
X015198Y001586D01*
X022909Y004775D02*
X023029Y004775D01*
X023029Y005135D01*
X023149Y005015D01*
X023149Y004775D02*
X023049Y004775D01*
X023029Y004775D01*
X010364Y011401D02*
X010124Y011641D01*
X010124Y011701D01*
X010184Y011761D01*
X010304Y011761D01*
X010364Y011701D01*
X010364Y011401D02*
X010124Y011401D01*
X006559Y015125D02*
X006389Y015125D01*
X006332Y015182D01*
X006332Y015239D01*
X006389Y015295D01*
X006559Y015295D01*
X006559Y015125D02*
X006559Y015465D01*
X006389Y015465D01*
X006332Y015409D01*
X006332Y015352D01*
X006389Y015295D01*
X006191Y015295D02*
X005964Y015295D01*
X005964Y015352D02*
X005964Y015125D01*
X006191Y015125D02*
X006191Y015352D01*
X006077Y015465D01*
X005964Y015352D01*
X005823Y015465D02*
X005596Y015465D01*
X005709Y015465D02*
X005709Y015125D01*
X005454Y015125D02*
X005341Y015125D01*
X005397Y015125D02*
X005397Y015465D01*
X005341Y015465D02*
X005454Y015465D01*
X005209Y015465D02*
X004982Y015125D01*
X004982Y015465D01*
X005209Y015465D02*
X005209Y015125D01*
X002914Y012110D02*
X003034Y011990D01*
X002914Y012110D02*
X002914Y011750D01*
X002794Y011750D01*
X002914Y011750D02*
X002934Y011750D01*
X003034Y011750D01*
X014999Y015531D02*
X015119Y015531D01*
X015119Y015891D01*
X015239Y015771D01*
X015239Y015531D02*
X015139Y015531D01*
X015119Y015531D01*
D11*
X014809Y015691D02*
X014811Y015726D01*
X014817Y015760D01*
X014826Y015793D01*
X014840Y015826D01*
X014857Y015856D01*
X014877Y015884D01*
X014900Y015910D01*
X014926Y015933D01*
X014954Y015953D01*
X014984Y015970D01*
X015017Y015984D01*
X015050Y015993D01*
X015084Y015999D01*
X015119Y016001D01*
X015154Y015999D01*
X015188Y015993D01*
X015221Y015984D01*
X015254Y015970D01*
X015284Y015953D01*
X015312Y015933D01*
X015338Y015910D01*
X015361Y015884D01*
X015381Y015856D01*
X015398Y015826D01*
X015412Y015793D01*
X015421Y015760D01*
X015427Y015726D01*
X015429Y015691D01*
X015427Y015656D01*
X015421Y015622D01*
X015412Y015589D01*
X015398Y015556D01*
X015381Y015526D01*
X015361Y015498D01*
X015338Y015472D01*
X015312Y015449D01*
X015284Y015429D01*
X015254Y015412D01*
X015221Y015398D01*
X015188Y015389D01*
X015154Y015383D01*
X015119Y015381D01*
X015084Y015383D01*
X015050Y015389D01*
X015017Y015398D01*
X014984Y015412D01*
X014954Y015429D01*
X014926Y015449D01*
X014900Y015472D01*
X014877Y015498D01*
X014857Y015526D01*
X014840Y015556D01*
X014826Y015589D01*
X014817Y015622D01*
X014811Y015656D01*
X014809Y015691D01*
X014572Y015096D02*
X014574Y015122D01*
X014580Y015148D01*
X014589Y015172D01*
X014602Y015195D01*
X014618Y015216D01*
X014637Y015234D01*
X014658Y015250D01*
X014682Y015262D01*
X014706Y015270D01*
X014732Y015275D01*
X014759Y015276D01*
X014785Y015273D01*
X014810Y015266D01*
X014834Y015256D01*
X014857Y015242D01*
X014877Y015226D01*
X014894Y015206D01*
X014909Y015184D01*
X014920Y015160D01*
X014928Y015135D01*
X014932Y015109D01*
X014932Y015083D01*
X014928Y015057D01*
X014920Y015032D01*
X014909Y015008D01*
X014894Y014986D01*
X014877Y014966D01*
X014857Y014950D01*
X014834Y014936D01*
X014810Y014926D01*
X014785Y014919D01*
X014759Y014916D01*
X014732Y014917D01*
X014706Y014922D01*
X014682Y014930D01*
X014658Y014942D01*
X014637Y014958D01*
X014618Y014976D01*
X014602Y014997D01*
X014589Y015020D01*
X014580Y015044D01*
X014574Y015070D01*
X014572Y015096D01*
X014473Y014904D02*
X014188Y015112D01*
X014119Y015145D01*
X014070Y015143D02*
X014452Y014867D01*
X014397Y014758D02*
X014080Y014532D01*
X014121Y014530D02*
X014434Y014739D01*
X014573Y014580D02*
X014575Y014606D01*
X014581Y014632D01*
X014590Y014656D01*
X014603Y014679D01*
X014619Y014700D01*
X014638Y014718D01*
X014659Y014734D01*
X014683Y014746D01*
X014707Y014754D01*
X014733Y014759D01*
X014760Y014760D01*
X014786Y014757D01*
X014811Y014750D01*
X014835Y014740D01*
X014858Y014726D01*
X014878Y014710D01*
X014895Y014690D01*
X014910Y014668D01*
X014921Y014644D01*
X014929Y014619D01*
X014933Y014593D01*
X014933Y014567D01*
X014929Y014541D01*
X014921Y014516D01*
X014910Y014492D01*
X014895Y014470D01*
X014878Y014450D01*
X014858Y014434D01*
X014835Y014420D01*
X014811Y014410D01*
X014786Y014403D01*
X014760Y014400D01*
X014733Y014401D01*
X014707Y014406D01*
X014683Y014414D01*
X014659Y014426D01*
X014638Y014442D01*
X014619Y014460D01*
X014603Y014481D01*
X014590Y014504D01*
X014581Y014528D01*
X014575Y014554D01*
X014573Y014580D01*
X009934Y011561D02*
X009936Y011596D01*
X009942Y011630D01*
X009951Y011663D01*
X009965Y011696D01*
X009982Y011726D01*
X010002Y011754D01*
X010025Y011780D01*
X010051Y011803D01*
X010079Y011823D01*
X010109Y011840D01*
X010142Y011854D01*
X010175Y011863D01*
X010209Y011869D01*
X010244Y011871D01*
X010279Y011869D01*
X010313Y011863D01*
X010346Y011854D01*
X010379Y011840D01*
X010409Y011823D01*
X010437Y011803D01*
X010463Y011780D01*
X010486Y011754D01*
X010506Y011726D01*
X010523Y011696D01*
X010537Y011663D01*
X010546Y011630D01*
X010552Y011596D01*
X010554Y011561D01*
X010552Y011526D01*
X010546Y011492D01*
X010537Y011459D01*
X010523Y011426D01*
X010506Y011396D01*
X010486Y011368D01*
X010463Y011342D01*
X010437Y011319D01*
X010409Y011299D01*
X010379Y011282D01*
X010346Y011268D01*
X010313Y011259D01*
X010279Y011253D01*
X010244Y011251D01*
X010209Y011253D01*
X010175Y011259D01*
X010142Y011268D01*
X010109Y011282D01*
X010079Y011299D01*
X010051Y011319D01*
X010025Y011342D01*
X010002Y011368D01*
X009982Y011396D01*
X009965Y011426D01*
X009951Y011459D01*
X009942Y011492D01*
X009936Y011526D01*
X009934Y011561D01*
X004663Y011608D02*
X004281Y011884D01*
X004260Y011847D02*
X004545Y011639D01*
X004614Y011606D01*
X004336Y011993D02*
X004653Y012219D01*
X004612Y012221D02*
X004299Y012012D01*
X003800Y012171D02*
X003802Y012197D01*
X003808Y012223D01*
X003817Y012247D01*
X003830Y012270D01*
X003846Y012291D01*
X003865Y012309D01*
X003886Y012325D01*
X003910Y012337D01*
X003934Y012345D01*
X003960Y012350D01*
X003987Y012351D01*
X004013Y012348D01*
X004038Y012341D01*
X004062Y012331D01*
X004085Y012317D01*
X004105Y012301D01*
X004122Y012281D01*
X004137Y012259D01*
X004148Y012235D01*
X004156Y012210D01*
X004160Y012184D01*
X004160Y012158D01*
X004156Y012132D01*
X004148Y012107D01*
X004137Y012083D01*
X004122Y012061D01*
X004105Y012041D01*
X004085Y012025D01*
X004062Y012011D01*
X004038Y012001D01*
X004013Y011994D01*
X003987Y011991D01*
X003960Y011992D01*
X003934Y011997D01*
X003910Y012005D01*
X003886Y012017D01*
X003865Y012033D01*
X003846Y012051D01*
X003830Y012072D01*
X003817Y012095D01*
X003808Y012119D01*
X003802Y012145D01*
X003800Y012171D01*
X003801Y011655D02*
X003803Y011681D01*
X003809Y011707D01*
X003818Y011731D01*
X003831Y011754D01*
X003847Y011775D01*
X003866Y011793D01*
X003887Y011809D01*
X003911Y011821D01*
X003935Y011829D01*
X003961Y011834D01*
X003988Y011835D01*
X004014Y011832D01*
X004039Y011825D01*
X004063Y011815D01*
X004086Y011801D01*
X004106Y011785D01*
X004123Y011765D01*
X004138Y011743D01*
X004149Y011719D01*
X004157Y011694D01*
X004161Y011668D01*
X004161Y011642D01*
X004157Y011616D01*
X004149Y011591D01*
X004138Y011567D01*
X004123Y011545D01*
X004106Y011525D01*
X004086Y011509D01*
X004063Y011495D01*
X004039Y011485D01*
X004014Y011478D01*
X003988Y011475D01*
X003961Y011476D01*
X003935Y011481D01*
X003911Y011489D01*
X003887Y011501D01*
X003866Y011517D01*
X003847Y011535D01*
X003831Y011556D01*
X003818Y011579D01*
X003809Y011603D01*
X003803Y011629D01*
X003801Y011655D01*
X002604Y011910D02*
X002606Y011945D01*
X002612Y011979D01*
X002621Y012012D01*
X002635Y012045D01*
X002652Y012075D01*
X002672Y012103D01*
X002695Y012129D01*
X002721Y012152D01*
X002749Y012172D01*
X002779Y012189D01*
X002812Y012203D01*
X002845Y012212D01*
X002879Y012218D01*
X002914Y012220D01*
X002949Y012218D01*
X002983Y012212D01*
X003016Y012203D01*
X003049Y012189D01*
X003079Y012172D01*
X003107Y012152D01*
X003133Y012129D01*
X003156Y012103D01*
X003176Y012075D01*
X003193Y012045D01*
X003207Y012012D01*
X003216Y011979D01*
X003222Y011945D01*
X003224Y011910D01*
X003222Y011875D01*
X003216Y011841D01*
X003207Y011808D01*
X003193Y011775D01*
X003176Y011745D01*
X003156Y011717D01*
X003133Y011691D01*
X003107Y011668D01*
X003079Y011648D01*
X003049Y011631D01*
X003016Y011617D01*
X002983Y011608D01*
X002949Y011602D01*
X002914Y011600D01*
X002879Y011602D01*
X002845Y011608D01*
X002812Y011617D01*
X002779Y011631D01*
X002749Y011648D01*
X002721Y011668D01*
X002695Y011691D01*
X002672Y011717D01*
X002652Y011745D01*
X002635Y011775D01*
X002621Y011808D01*
X002612Y011841D01*
X002606Y011875D01*
X002604Y011910D01*
X009172Y017901D02*
X009172Y018321D01*
X009383Y018111D01*
X009102Y018111D01*
X009563Y018041D02*
X009563Y017971D01*
X009633Y017901D01*
X009773Y017901D01*
X009843Y017971D01*
X009843Y018041D01*
X009773Y018111D01*
X009633Y018111D01*
X009563Y018041D01*
X009633Y018111D02*
X009563Y018181D01*
X009563Y018251D01*
X009633Y018321D01*
X009773Y018321D01*
X009843Y018251D01*
X009843Y018181D01*
X009773Y018111D01*
X010023Y018041D02*
X010303Y018041D01*
X010303Y018181D02*
X010023Y018181D01*
X010484Y018251D02*
X010484Y018111D01*
X010554Y018041D01*
X010764Y018041D01*
X010764Y017901D02*
X010764Y018321D01*
X010554Y018321D01*
X010484Y018251D01*
X010944Y018251D02*
X010944Y018181D01*
X011084Y018041D01*
X011084Y017971D02*
X011084Y017901D01*
X010944Y018251D02*
X011014Y018321D01*
X011154Y018321D01*
X011224Y018251D01*
X011404Y018321D02*
X011685Y017901D01*
X011865Y017901D02*
X011865Y018321D01*
X012005Y018181D01*
X012145Y018321D01*
X012145Y017901D01*
X012325Y017971D02*
X012325Y018251D01*
X012395Y018321D01*
X012535Y018321D01*
X012605Y018251D01*
X012605Y017971D01*
X012535Y017901D01*
X012395Y017901D01*
X012325Y017971D01*
X012786Y017971D02*
X012856Y017901D01*
X012996Y017901D01*
X013066Y017971D01*
X013066Y018251D01*
X012996Y018321D01*
X012856Y018321D01*
X012786Y018251D01*
X013226Y017971D02*
X013226Y017901D01*
X013296Y017901D01*
X013296Y017971D01*
X013226Y017971D01*
X013476Y017901D02*
X013476Y018181D01*
X013616Y018321D01*
X013756Y018181D01*
X013756Y017901D01*
X013937Y017971D02*
X013937Y018041D01*
X014007Y018111D01*
X014147Y018111D01*
X014217Y018181D01*
X014217Y018251D01*
X014147Y018321D01*
X014007Y018321D01*
X013937Y018251D01*
X013756Y018111D02*
X013476Y018111D01*
X013937Y017971D02*
X014007Y017901D01*
X014147Y017901D01*
X014217Y017971D01*
X014397Y017901D02*
X014677Y017901D01*
X014677Y018321D01*
X014397Y018321D01*
X014537Y018111D02*
X014677Y018111D01*
X014857Y018321D02*
X015138Y018321D01*
X014997Y018321D02*
X014997Y017901D01*
X015318Y017901D02*
X015598Y017901D01*
X015598Y018321D01*
X015765Y018321D02*
X015905Y018321D01*
X015835Y018321D02*
X015835Y017901D01*
X015905Y017901D02*
X015765Y017901D01*
X016085Y017971D02*
X016085Y018111D01*
X016225Y018111D01*
X016085Y017971D02*
X016155Y017901D01*
X016295Y017901D01*
X016365Y017971D01*
X016365Y018251D01*
X016295Y018321D01*
X016155Y018321D01*
X016085Y018251D01*
X016525Y017971D02*
X016525Y017901D01*
X016595Y017901D01*
X016595Y017971D01*
X016525Y017971D01*
X016776Y018111D02*
X016846Y018041D01*
X017056Y018041D01*
X017056Y017901D02*
X017056Y018321D01*
X016846Y018321D01*
X016776Y018251D01*
X016776Y018111D01*
X017236Y017971D02*
X017236Y018251D01*
X017306Y018321D01*
X017446Y018321D01*
X017516Y018251D01*
X017516Y017971D01*
X017446Y017901D01*
X017306Y017901D01*
X017236Y017971D01*
X017696Y017901D02*
X017696Y018321D01*
X017696Y018111D02*
X017977Y018111D01*
X018157Y018041D02*
X018157Y017971D01*
X018227Y017901D01*
X018367Y017901D01*
X018437Y017971D01*
X018367Y018111D02*
X018227Y018111D01*
X018157Y018041D01*
X018157Y018251D02*
X018227Y018321D01*
X018367Y018321D01*
X018437Y018251D01*
X018437Y018181D01*
X018367Y018111D01*
X018617Y018321D02*
X018897Y017901D01*
X019078Y018321D02*
X019358Y017901D01*
X019518Y017901D02*
X019588Y017901D01*
X019588Y017971D01*
X019518Y017971D01*
X019518Y017901D01*
X019518Y018111D02*
X019588Y018111D01*
X019588Y018181D01*
X019518Y018181D01*
X019518Y018111D01*
X019768Y018041D02*
X019768Y017971D01*
X019838Y017901D01*
X019978Y017901D01*
X020048Y017971D01*
X019978Y018111D02*
X019838Y018111D01*
X019768Y018041D01*
X019768Y018251D02*
X019838Y018321D01*
X019978Y018321D01*
X020048Y018251D01*
X020048Y018181D01*
X019978Y018111D01*
X020229Y018111D02*
X020229Y018251D01*
X020299Y018321D01*
X020509Y018321D01*
X020509Y017901D01*
X020509Y018041D02*
X020299Y018041D01*
X020229Y018111D01*
X020689Y018321D02*
X020969Y018321D01*
X020829Y018321D02*
X020829Y017901D01*
X021289Y017901D02*
X021289Y018321D01*
X021149Y018321D02*
X021430Y018321D01*
X021610Y018321D02*
X021610Y017901D01*
X021610Y018111D02*
X021890Y018111D01*
X021890Y017901D02*
X021890Y018321D01*
X022510Y018181D02*
X022510Y018111D01*
X022581Y018111D01*
X022581Y018181D01*
X022510Y018181D01*
X022510Y017971D02*
X022510Y017901D01*
X022581Y017901D01*
X022581Y017971D01*
X022510Y017971D01*
X022761Y017901D02*
X023041Y017901D01*
X023041Y018321D01*
X022761Y018321D01*
X022901Y018111D02*
X023041Y018111D01*
X023221Y017971D02*
X023221Y018251D01*
X023291Y018321D01*
X023501Y018321D01*
X023501Y017901D01*
X023291Y017901D01*
X023221Y017971D01*
X023668Y017901D02*
X023808Y017901D01*
X023738Y017901D02*
X023738Y018321D01*
X023808Y018321D02*
X023668Y018321D01*
X023988Y018321D02*
X023988Y017971D01*
X024058Y017901D01*
X024199Y017901D01*
X024269Y017971D01*
X024269Y018321D01*
X024449Y018251D02*
X024519Y018321D01*
X024659Y018321D01*
X024729Y018251D01*
X024729Y017971D01*
X024659Y017901D01*
X024519Y017901D01*
X024449Y017971D01*
X024449Y018111D01*
X024589Y018111D01*
X017977Y017901D02*
X017977Y018321D01*
X013244Y005573D02*
X013246Y005608D01*
X013252Y005642D01*
X013261Y005675D01*
X013275Y005708D01*
X013292Y005738D01*
X013312Y005766D01*
X013335Y005792D01*
X013361Y005815D01*
X013389Y005835D01*
X013419Y005852D01*
X013452Y005866D01*
X013485Y005875D01*
X013519Y005881D01*
X013554Y005883D01*
X013589Y005881D01*
X013623Y005875D01*
X013656Y005866D01*
X013689Y005852D01*
X013719Y005835D01*
X013747Y005815D01*
X013773Y005792D01*
X013796Y005766D01*
X013816Y005738D01*
X013833Y005708D01*
X013847Y005675D01*
X013856Y005642D01*
X013862Y005608D01*
X013864Y005573D01*
X013862Y005538D01*
X013856Y005504D01*
X013847Y005471D01*
X013833Y005438D01*
X013816Y005408D01*
X013796Y005380D01*
X013773Y005354D01*
X013747Y005331D01*
X013719Y005311D01*
X013689Y005294D01*
X013656Y005280D01*
X013623Y005271D01*
X013589Y005265D01*
X013554Y005263D01*
X013519Y005265D01*
X013485Y005271D01*
X013452Y005280D01*
X013419Y005294D01*
X013389Y005311D01*
X013361Y005331D01*
X013335Y005354D01*
X013312Y005380D01*
X013292Y005408D01*
X013275Y005438D01*
X013261Y005471D01*
X013252Y005504D01*
X013246Y005538D01*
X013244Y005573D01*
X014769Y003035D02*
X014995Y002718D01*
X014976Y002681D02*
X014767Y002994D01*
X015104Y002663D02*
X015380Y003045D01*
X015382Y002996D02*
X015349Y002927D01*
X015141Y002642D01*
X015153Y002363D02*
X015155Y002389D01*
X015161Y002415D01*
X015170Y002439D01*
X015183Y002462D01*
X015199Y002483D01*
X015218Y002501D01*
X015239Y002517D01*
X015263Y002529D01*
X015287Y002537D01*
X015313Y002542D01*
X015340Y002543D01*
X015366Y002540D01*
X015391Y002533D01*
X015415Y002523D01*
X015438Y002509D01*
X015458Y002493D01*
X015475Y002473D01*
X015490Y002451D01*
X015501Y002427D01*
X015509Y002402D01*
X015513Y002376D01*
X015513Y002350D01*
X015509Y002324D01*
X015501Y002299D01*
X015490Y002275D01*
X015475Y002253D01*
X015458Y002233D01*
X015438Y002217D01*
X015415Y002203D01*
X015391Y002193D01*
X015366Y002186D01*
X015340Y002183D01*
X015313Y002184D01*
X015287Y002189D01*
X015263Y002197D01*
X015239Y002209D01*
X015218Y002225D01*
X015199Y002243D01*
X015183Y002264D01*
X015170Y002287D01*
X015161Y002311D01*
X015155Y002337D01*
X015153Y002363D01*
X014637Y002362D02*
X014639Y002388D01*
X014645Y002414D01*
X014654Y002438D01*
X014667Y002461D01*
X014683Y002482D01*
X014702Y002500D01*
X014723Y002516D01*
X014747Y002528D01*
X014771Y002536D01*
X014797Y002541D01*
X014824Y002542D01*
X014850Y002539D01*
X014875Y002532D01*
X014899Y002522D01*
X014922Y002508D01*
X014942Y002492D01*
X014959Y002472D01*
X014974Y002450D01*
X014985Y002426D01*
X014993Y002401D01*
X014997Y002375D01*
X014997Y002349D01*
X014993Y002323D01*
X014985Y002298D01*
X014974Y002274D01*
X014959Y002252D01*
X014942Y002232D01*
X014922Y002216D01*
X014899Y002202D01*
X014875Y002192D01*
X014850Y002185D01*
X014824Y002182D01*
X014797Y002183D01*
X014771Y002188D01*
X014747Y002196D01*
X014723Y002208D01*
X014702Y002224D01*
X014683Y002242D01*
X014667Y002263D01*
X014654Y002286D01*
X014645Y002310D01*
X014639Y002336D01*
X014637Y002362D01*
X014768Y001746D02*
X014770Y001781D01*
X014776Y001815D01*
X014785Y001848D01*
X014799Y001881D01*
X014816Y001911D01*
X014836Y001939D01*
X014859Y001965D01*
X014885Y001988D01*
X014913Y002008D01*
X014943Y002025D01*
X014976Y002039D01*
X015009Y002048D01*
X015043Y002054D01*
X015078Y002056D01*
X015113Y002054D01*
X015147Y002048D01*
X015180Y002039D01*
X015213Y002025D01*
X015243Y002008D01*
X015271Y001988D01*
X015297Y001965D01*
X015320Y001939D01*
X015340Y001911D01*
X015357Y001881D01*
X015371Y001848D01*
X015380Y001815D01*
X015386Y001781D01*
X015388Y001746D01*
X015386Y001711D01*
X015380Y001677D01*
X015371Y001644D01*
X015357Y001611D01*
X015340Y001581D01*
X015320Y001553D01*
X015297Y001527D01*
X015271Y001504D01*
X015243Y001484D01*
X015213Y001467D01*
X015180Y001453D01*
X015147Y001444D01*
X015113Y001438D01*
X015078Y001436D01*
X015043Y001438D01*
X015009Y001444D01*
X014976Y001453D01*
X014943Y001467D01*
X014913Y001484D01*
X014885Y001504D01*
X014859Y001527D01*
X014836Y001553D01*
X014816Y001581D01*
X014799Y001611D01*
X014785Y001644D01*
X014776Y001677D01*
X014770Y001711D01*
X014768Y001746D01*
X021740Y004626D02*
X022057Y004852D01*
X022094Y004833D02*
X021781Y004624D01*
X022112Y004961D02*
X021730Y005237D01*
X021779Y005239D02*
X021848Y005206D01*
X022133Y004998D01*
X022232Y005190D02*
X022234Y005216D01*
X022240Y005242D01*
X022249Y005266D01*
X022262Y005289D01*
X022278Y005310D01*
X022297Y005328D01*
X022318Y005344D01*
X022342Y005356D01*
X022366Y005364D01*
X022392Y005369D01*
X022419Y005370D01*
X022445Y005367D01*
X022470Y005360D01*
X022494Y005350D01*
X022517Y005336D01*
X022537Y005320D01*
X022554Y005300D01*
X022569Y005278D01*
X022580Y005254D01*
X022588Y005229D01*
X022592Y005203D01*
X022592Y005177D01*
X022588Y005151D01*
X022580Y005126D01*
X022569Y005102D01*
X022554Y005080D01*
X022537Y005060D01*
X022517Y005044D01*
X022494Y005030D01*
X022470Y005020D01*
X022445Y005013D01*
X022419Y005010D01*
X022392Y005011D01*
X022366Y005016D01*
X022342Y005024D01*
X022318Y005036D01*
X022297Y005052D01*
X022278Y005070D01*
X022262Y005091D01*
X022249Y005114D01*
X022240Y005138D01*
X022234Y005164D01*
X022232Y005190D01*
X022233Y004674D02*
X022235Y004700D01*
X022241Y004726D01*
X022250Y004750D01*
X022263Y004773D01*
X022279Y004794D01*
X022298Y004812D01*
X022319Y004828D01*
X022343Y004840D01*
X022367Y004848D01*
X022393Y004853D01*
X022420Y004854D01*
X022446Y004851D01*
X022471Y004844D01*
X022495Y004834D01*
X022518Y004820D01*
X022538Y004804D01*
X022555Y004784D01*
X022570Y004762D01*
X022581Y004738D01*
X022589Y004713D01*
X022593Y004687D01*
X022593Y004661D01*
X022589Y004635D01*
X022581Y004610D01*
X022570Y004586D01*
X022555Y004564D01*
X022538Y004544D01*
X022518Y004528D01*
X022495Y004514D01*
X022471Y004504D01*
X022446Y004497D01*
X022420Y004494D01*
X022393Y004495D01*
X022367Y004500D01*
X022343Y004508D01*
X022319Y004520D01*
X022298Y004536D01*
X022279Y004554D01*
X022263Y004575D01*
X022250Y004598D01*
X022241Y004622D01*
X022235Y004648D01*
X022233Y004674D01*
X022719Y004935D02*
X022721Y004970D01*
X022727Y005004D01*
X022736Y005037D01*
X022750Y005070D01*
X022767Y005100D01*
X022787Y005128D01*
X022810Y005154D01*
X022836Y005177D01*
X022864Y005197D01*
X022894Y005214D01*
X022927Y005228D01*
X022960Y005237D01*
X022994Y005243D01*
X023029Y005245D01*
X023064Y005243D01*
X023098Y005237D01*
X023131Y005228D01*
X023164Y005214D01*
X023194Y005197D01*
X023222Y005177D01*
X023248Y005154D01*
X023271Y005128D01*
X023291Y005100D01*
X023308Y005070D01*
X023322Y005037D01*
X023331Y005004D01*
X023337Y004970D01*
X023339Y004935D01*
X023337Y004900D01*
X023331Y004866D01*
X023322Y004833D01*
X023308Y004800D01*
X023291Y004770D01*
X023271Y004742D01*
X023248Y004716D01*
X023222Y004693D01*
X023194Y004673D01*
X023164Y004656D01*
X023131Y004642D01*
X023098Y004633D01*
X023064Y004627D01*
X023029Y004625D01*
X022994Y004627D01*
X022960Y004633D01*
X022927Y004642D01*
X022894Y004656D01*
X022864Y004673D01*
X022836Y004693D01*
X022810Y004716D01*
X022787Y004742D01*
X022767Y004770D01*
X022750Y004800D01*
X022736Y004833D01*
X022727Y004866D01*
X022721Y004900D01*
X022719Y004935D01*
X005337Y004849D02*
X005127Y004849D01*
X005057Y004779D01*
X005057Y004709D01*
X005127Y004639D01*
X005337Y004639D01*
X005337Y005060D01*
X005127Y005060D01*
X005057Y004990D01*
X005057Y004920D01*
X005127Y004849D01*
X004877Y004990D02*
X004737Y004849D01*
X004737Y004639D01*
X004737Y004849D02*
X004597Y004990D01*
X004597Y005060D01*
X004877Y005060D02*
X004877Y004990D01*
X004037Y005060D02*
X004037Y004639D01*
X003757Y004639D02*
X003757Y005060D01*
X003577Y004990D02*
X003577Y004709D01*
X003507Y004639D01*
X003367Y004639D01*
X003297Y004709D01*
X003297Y004990D02*
X003367Y005060D01*
X003507Y005060D01*
X003577Y004990D01*
X003757Y004639D02*
X004037Y005060D01*
X002737Y004990D02*
X002737Y004920D01*
X002667Y004849D01*
X002527Y004849D01*
X002457Y004779D01*
X002457Y004709D01*
X002527Y004639D01*
X002667Y004639D01*
X002737Y004709D01*
X002737Y004990D02*
X002667Y005060D01*
X002527Y005060D01*
X002457Y004990D01*
X002277Y004920D02*
X002137Y005060D01*
X001997Y004920D01*
X001997Y004639D01*
X001997Y004849D02*
X002277Y004849D01*
X002277Y004920D02*
X002277Y004639D01*
D12*
X001427Y000927D02*
X024826Y000927D01*
X024825Y000927D02*
X024870Y000928D01*
X024913Y000934D01*
X024957Y000943D01*
X024999Y000956D01*
X025040Y000972D01*
X025079Y000992D01*
X025117Y001015D01*
X025152Y001042D01*
X025185Y001071D01*
X025215Y001104D01*
X025242Y001138D01*
X025266Y001175D01*
X025287Y001214D01*
X025305Y001255D01*
X025318Y001297D01*
X025328Y001340D01*
X025335Y001383D01*
X025337Y001427D01*
X025337Y018146D01*
X025334Y018189D01*
X025328Y018233D01*
X025318Y018276D01*
X025304Y018318D01*
X025287Y018358D01*
X025266Y018397D01*
X025242Y018434D01*
X025215Y018469D01*
X025184Y018501D01*
X025152Y018530D01*
X025116Y018556D01*
X025079Y018580D01*
X025040Y018599D01*
X024999Y018616D01*
X024956Y018628D01*
X024913Y018637D01*
X024870Y018643D01*
X024825Y018644D01*
X024826Y018644D02*
X001427Y018644D01*
X001383Y018642D01*
X001340Y018637D01*
X001298Y018627D01*
X001256Y018614D01*
X001216Y018598D01*
X001177Y018578D01*
X001141Y018554D01*
X001106Y018528D01*
X001074Y018499D01*
X001044Y018467D01*
X001018Y018432D01*
X000994Y018395D01*
X000974Y018357D01*
X000957Y018317D01*
X000944Y018275D01*
X000935Y018233D01*
X000929Y018189D01*
X000927Y018146D01*
X000927Y001427D01*
X000929Y001383D01*
X000935Y001340D01*
X000944Y001298D01*
X000957Y001256D01*
X000974Y001216D01*
X000994Y001177D01*
X001017Y001140D01*
X001044Y001106D01*
X001073Y001073D01*
X001106Y001044D01*
X001140Y001017D01*
X001177Y000994D01*
X001216Y000974D01*
X001256Y000957D01*
X001298Y000944D01*
X001340Y000935D01*
X001383Y000929D01*
X001427Y000927D01*
X008294Y002377D02*
X008294Y007776D01*
X005844Y010226D01*
X003544Y010226D01*
X003514Y010228D01*
X003484Y010233D01*
X003455Y010242D01*
X003428Y010255D01*
X003402Y010270D01*
X003378Y010289D01*
X003357Y010310D01*
X003338Y010334D01*
X003323Y010360D01*
X003310Y010387D01*
X003301Y010416D01*
X003296Y010446D01*
X003294Y010476D01*
X003294Y011476D01*
X005044Y011476D01*
X004914Y011517D02*
X004914Y012285D01*
X005044Y012326D02*
X005044Y013526D01*
X004744Y013976D02*
X004444Y014076D01*
X004418Y014085D01*
X004393Y014097D01*
X004370Y014113D01*
X004349Y014131D01*
X004331Y014152D01*
X004315Y014175D01*
X004303Y014200D01*
X004294Y014226D01*
X004294Y014826D01*
X004444Y014976D02*
X004744Y015076D01*
X004894Y015226D02*
X004894Y015476D01*
X004896Y015499D01*
X004901Y015522D01*
X004910Y015544D01*
X004923Y015564D01*
X004938Y015582D01*
X004956Y015597D01*
X004976Y015610D01*
X004998Y015619D01*
X005021Y015624D01*
X005044Y015626D01*
X006494Y015626D01*
X006517Y015624D01*
X006540Y015619D01*
X006562Y015610D01*
X006582Y015597D01*
X006600Y015582D01*
X006615Y015564D01*
X006628Y015544D01*
X006637Y015522D01*
X006642Y015499D01*
X006644Y015476D01*
X006644Y014176D01*
X006688Y014174D01*
X006731Y014168D01*
X006773Y014159D01*
X006815Y014146D01*
X006855Y014129D01*
X006894Y014109D01*
X006931Y014086D01*
X006965Y014059D01*
X006998Y014030D01*
X007027Y013997D01*
X007054Y013963D01*
X007077Y013926D01*
X007097Y013887D01*
X007114Y013847D01*
X007127Y013805D01*
X007136Y013763D01*
X007142Y013720D01*
X007144Y013676D01*
X007142Y013632D01*
X007136Y013589D01*
X007127Y013547D01*
X007114Y013505D01*
X007097Y013465D01*
X007077Y013426D01*
X007054Y013389D01*
X007027Y013355D01*
X006998Y013322D01*
X006965Y013293D01*
X006931Y013266D01*
X006894Y013243D01*
X006855Y013223D01*
X006815Y013206D01*
X006773Y013193D01*
X006731Y013184D01*
X006688Y013178D01*
X006644Y013176D01*
X006644Y012636D01*
X008784Y010486D01*
X009844Y010486D01*
X009844Y012636D01*
X009794Y012636D01*
X009862Y012556D02*
X010614Y012556D01*
X010644Y012636D02*
X010644Y010486D01*
X017327Y010486D01*
X017677Y010134D01*
X018677Y010134D01*
X018708Y010133D01*
X018739Y010128D01*
X018768Y010119D01*
X018797Y010107D01*
X018824Y010092D01*
X018848Y010073D01*
X018871Y010052D01*
X018890Y010028D01*
X018907Y010002D01*
X018920Y009974D01*
X018930Y009945D01*
X018936Y009915D01*
X018939Y009884D01*
X018939Y006179D01*
X018941Y006149D01*
X018946Y006119D01*
X018955Y006090D01*
X018968Y006063D01*
X018983Y006037D01*
X019002Y006013D01*
X019023Y005992D01*
X019047Y005973D01*
X019073Y005958D01*
X019100Y005945D01*
X019129Y005936D01*
X019159Y005931D01*
X019189Y005929D01*
X020989Y005929D01*
X021023Y005927D01*
X021056Y005921D01*
X021088Y005912D01*
X021119Y005899D01*
X021149Y005883D01*
X021176Y005864D01*
X021201Y005841D01*
X021224Y005816D01*
X021243Y005789D01*
X021259Y005759D01*
X021272Y005728D01*
X021281Y005696D01*
X021287Y005663D01*
X021289Y005629D01*
X021289Y005369D01*
X022349Y005369D01*
X022349Y011926D01*
X022347Y011956D01*
X022342Y011986D01*
X022333Y012015D01*
X022320Y012042D01*
X022305Y012068D01*
X022286Y012092D01*
X022265Y012113D01*
X022241Y012132D01*
X022215Y012147D01*
X022188Y012160D01*
X022159Y012169D01*
X022129Y012174D01*
X022099Y012176D01*
X014854Y012176D01*
X014824Y012178D01*
X014794Y012183D01*
X014765Y012192D01*
X014738Y012205D01*
X014712Y012220D01*
X014688Y012239D01*
X014667Y012260D01*
X014648Y012284D01*
X014633Y012310D01*
X014620Y012337D01*
X014611Y012366D01*
X014606Y012396D01*
X014604Y012426D01*
X014604Y014426D01*
X013444Y014426D01*
X013444Y013486D01*
X012844Y013371D02*
X012860Y013281D01*
X012860Y013190D01*
X012844Y013100D01*
X012813Y013015D01*
X012767Y012936D01*
X012709Y012866D01*
X012639Y012807D01*
X012560Y012761D01*
X012474Y012730D01*
X012384Y012714D01*
X012293Y012714D01*
X012203Y012730D01*
X012118Y012761D01*
X012039Y012807D01*
X011969Y012866D01*
X011910Y012936D01*
X011864Y013015D01*
X011833Y013100D01*
X011817Y013190D01*
X011817Y013281D01*
X011833Y013371D01*
X011864Y013457D01*
X011910Y013536D01*
X011969Y013606D01*
X012039Y013664D01*
X012118Y013710D01*
X012203Y013741D01*
X012293Y013757D01*
X012384Y013757D01*
X012474Y013741D01*
X012560Y013710D01*
X012639Y013664D01*
X012709Y013606D01*
X012767Y013536D01*
X012813Y013457D01*
X012844Y013371D01*
X012837Y013392D02*
X011841Y013392D01*
X011828Y013343D02*
X012849Y013343D01*
X012858Y013295D02*
X011820Y013295D01*
X011817Y013246D02*
X012860Y013246D01*
X012860Y013198D02*
X011817Y013198D01*
X011825Y013149D02*
X012853Y013149D01*
X012844Y013101D02*
X011833Y013101D01*
X011851Y013052D02*
X012827Y013052D01*
X012807Y013004D02*
X011871Y013004D01*
X011899Y012955D02*
X012779Y012955D01*
X012743Y012907D02*
X011934Y012907D01*
X011977Y012858D02*
X012700Y012858D01*
X012642Y012810D02*
X012035Y012810D01*
X012118Y012761D02*
X012560Y012761D01*
X012544Y012636D02*
X010644Y012636D01*
X010634Y012736D02*
X010636Y012781D01*
X010642Y012826D01*
X010652Y012870D01*
X010666Y012913D01*
X010683Y012954D01*
X010704Y012994D01*
X010729Y013032D01*
X010757Y013068D01*
X010787Y013101D01*
X010821Y013131D01*
X010857Y013158D01*
X010896Y013181D01*
X010936Y013202D01*
X010978Y013218D01*
X011021Y013231D01*
X011065Y013240D01*
X011110Y013245D01*
X011155Y013246D01*
X011200Y013243D01*
X011245Y013236D01*
X011289Y013225D01*
X011331Y013210D01*
X011373Y013192D01*
X011412Y013170D01*
X011449Y013145D01*
X011484Y013116D01*
X011516Y013084D01*
X011546Y013050D01*
X011572Y013013D01*
X011595Y012975D01*
X011614Y012934D01*
X011630Y012891D01*
X011642Y012848D01*
X011650Y012804D01*
X011654Y012759D01*
X011654Y012713D01*
X011650Y012668D01*
X011642Y012624D01*
X011630Y012581D01*
X011614Y012538D01*
X011595Y012497D01*
X011572Y012459D01*
X011546Y012422D01*
X011516Y012388D01*
X011484Y012356D01*
X011449Y012327D01*
X011412Y012302D01*
X011373Y012280D01*
X011331Y012262D01*
X011289Y012247D01*
X011245Y012236D01*
X011200Y012229D01*
X011155Y012226D01*
X011110Y012227D01*
X011065Y012232D01*
X011021Y012241D01*
X010978Y012254D01*
X010936Y012270D01*
X010896Y012291D01*
X010857Y012314D01*
X010821Y012341D01*
X010787Y012371D01*
X010757Y012404D01*
X010729Y012440D01*
X010704Y012478D01*
X010683Y012518D01*
X010666Y012559D01*
X010652Y012602D01*
X010642Y012646D01*
X010636Y012691D01*
X010634Y012736D01*
X010299Y013207D02*
X010220Y013161D01*
X010134Y013130D01*
X010044Y013114D01*
X009953Y013114D01*
X009863Y013130D01*
X009778Y013161D01*
X009699Y013207D01*
X009629Y013266D01*
X009570Y013336D01*
X009524Y013415D01*
X009493Y013500D01*
X009477Y013590D01*
X009477Y013681D01*
X009493Y013771D01*
X009524Y013857D01*
X009570Y013936D01*
X009629Y014006D01*
X009699Y014064D01*
X009778Y014110D01*
X009863Y014141D01*
X009953Y014157D01*
X010044Y014157D01*
X010134Y014141D01*
X010220Y014110D01*
X010299Y014064D01*
X010369Y014006D01*
X010427Y013936D01*
X010473Y013857D01*
X010504Y013771D01*
X010520Y013681D01*
X010520Y013590D01*
X010504Y013500D01*
X010473Y013415D01*
X010427Y013336D01*
X010369Y013266D01*
X010299Y013207D01*
X010283Y013198D02*
X009714Y013198D01*
X009652Y013246D02*
X010346Y013246D01*
X010393Y013295D02*
X009604Y013295D01*
X009565Y013343D02*
X010432Y013343D01*
X010460Y013392D02*
X009537Y013392D01*
X009515Y013440D02*
X010482Y013440D01*
X010500Y013489D02*
X009497Y013489D01*
X009487Y013537D02*
X010511Y013537D01*
X010519Y013586D02*
X009478Y013586D01*
X009477Y013634D02*
X010520Y013634D01*
X010520Y013683D02*
X009478Y013683D01*
X009486Y013731D02*
X010511Y013731D01*
X010501Y013780D02*
X009496Y013780D01*
X009514Y013828D02*
X010483Y013828D01*
X010461Y013877D02*
X009536Y013877D01*
X009564Y013925D02*
X010433Y013925D01*
X010395Y013974D02*
X009602Y013974D01*
X009649Y014022D02*
X010349Y014022D01*
X010287Y014071D02*
X009710Y014071D01*
X009804Y014119D02*
X010194Y014119D01*
X008843Y013486D02*
X008853Y013427D01*
X008867Y013368D01*
X008885Y013310D01*
X008906Y013254D01*
X008930Y013199D01*
X008958Y013145D01*
X008989Y013094D01*
X009023Y013044D01*
X009059Y012996D01*
X009099Y012951D01*
X009141Y012908D01*
X009186Y012868D01*
X009234Y012831D01*
X009283Y012796D01*
X009334Y012765D01*
X009388Y012737D01*
X009442Y012712D01*
X009499Y012690D01*
X009556Y012672D01*
X009614Y012658D01*
X009674Y012647D01*
X009733Y012639D01*
X009793Y012636D01*
X009810Y013149D02*
X010187Y013149D01*
X008844Y013486D02*
X008844Y016399D01*
X008864Y016443D01*
X008888Y016485D01*
X008915Y016525D01*
X008945Y016563D01*
X008978Y016598D01*
X009014Y016631D01*
X009052Y016661D01*
X009092Y016688D01*
X009135Y016711D01*
X009179Y016731D01*
X009224Y016748D01*
X009271Y016761D01*
X009318Y016770D01*
X009366Y016775D01*
X009415Y016777D01*
X009463Y016775D01*
X009511Y016769D01*
X009558Y016759D01*
X009605Y016746D01*
X009650Y016729D01*
X009747Y016636D02*
X012537Y016636D01*
X012538Y016635D02*
X012549Y016655D01*
X012563Y016674D01*
X012579Y016691D01*
X012597Y016706D01*
X012617Y016719D01*
X012637Y016729D01*
X012638Y016729D02*
X012683Y016746D01*
X012730Y016759D01*
X012777Y016769D01*
X012825Y016775D01*
X012873Y016777D01*
X012922Y016775D01*
X012970Y016770D01*
X013017Y016761D01*
X013064Y016748D01*
X013109Y016731D01*
X013153Y016711D01*
X013196Y016688D01*
X013236Y016661D01*
X013274Y016631D01*
X013310Y016598D01*
X013343Y016563D01*
X013373Y016525D01*
X013400Y016485D01*
X013424Y016443D01*
X013444Y016399D01*
X013444Y015276D01*
X014604Y015276D01*
X014604Y017176D01*
X014603Y017206D01*
X014598Y017235D01*
X014590Y017263D01*
X014578Y017290D01*
X014563Y017316D01*
X014546Y017340D01*
X014525Y017361D01*
X014502Y017380D01*
X014477Y017396D01*
X014451Y017408D01*
X014422Y017418D01*
X014393Y017424D01*
X014364Y017426D01*
X003544Y017426D01*
X003514Y017424D01*
X003484Y017419D01*
X003455Y017410D01*
X003428Y017397D01*
X003402Y017382D01*
X003378Y017363D01*
X003357Y017342D01*
X003338Y017318D01*
X003323Y017292D01*
X003310Y017265D01*
X003301Y017236D01*
X003296Y017206D01*
X003294Y017176D01*
X003294Y012326D01*
X005044Y012326D01*
X004683Y012221D02*
X004640Y012207D01*
X005044Y011476D02*
X005049Y011447D01*
X005056Y011418D01*
X005067Y011390D01*
X005081Y011364D01*
X005098Y011339D01*
X005118Y011316D01*
X005139Y011296D01*
X005163Y011278D01*
X005189Y011263D01*
X005217Y011252D01*
X005245Y011243D01*
X005274Y011237D01*
X005304Y011235D01*
X005334Y011236D01*
X006434Y011236D01*
X008334Y009336D01*
X014484Y009336D01*
X014510Y009334D01*
X014536Y009329D01*
X014561Y009321D01*
X014584Y009309D01*
X014606Y009295D01*
X014625Y009277D01*
X014643Y009258D01*
X014657Y009236D01*
X014669Y009213D01*
X014677Y009188D01*
X014682Y009162D01*
X014684Y009136D01*
X014684Y006896D01*
X014680Y006869D01*
X014673Y006843D01*
X014662Y006818D01*
X014648Y006795D01*
X014631Y006774D01*
X014611Y006756D01*
X014588Y006741D01*
X014564Y006729D01*
X014538Y006721D01*
X014511Y006717D01*
X014484Y006716D01*
X014284Y006716D01*
X014258Y006714D01*
X014232Y006709D01*
X014207Y006701D01*
X014184Y006689D01*
X014162Y006675D01*
X014143Y006657D01*
X014125Y006638D01*
X014111Y006616D01*
X014099Y006593D01*
X014091Y006568D01*
X014086Y006542D01*
X014084Y006516D01*
X014084Y006023D01*
X013034Y006023D01*
X013034Y006263D01*
X013034Y006264D02*
X013034Y006287D01*
X013030Y006310D01*
X013024Y006332D01*
X013014Y006353D01*
X013002Y006372D01*
X012987Y006389D01*
X012969Y006404D01*
X012950Y006417D01*
X012929Y006426D01*
X012907Y006432D01*
X012884Y006436D01*
X012644Y006436D01*
X012644Y006437D02*
X012621Y006440D01*
X012599Y006447D01*
X012578Y006457D01*
X012558Y006470D01*
X012541Y006486D01*
X012525Y006503D01*
X012513Y006523D01*
X012504Y006545D01*
X012497Y006567D01*
X012494Y006590D01*
X012495Y006614D01*
X012494Y006613D02*
X012494Y007563D01*
X011594Y007563D01*
X011594Y006613D01*
X011593Y006614D02*
X011594Y006590D01*
X011591Y006567D01*
X011584Y006545D01*
X011575Y006523D01*
X011563Y006503D01*
X011547Y006486D01*
X011530Y006470D01*
X011510Y006457D01*
X011489Y006447D01*
X011467Y006440D01*
X011444Y006437D01*
X011444Y006436D02*
X011006Y006436D01*
X010956Y006398D01*
X010908Y006357D01*
X010863Y006313D01*
X010821Y006267D01*
X010781Y006218D01*
X010745Y006166D01*
X010712Y006113D01*
X010682Y006058D01*
X010655Y006001D01*
X010632Y005942D01*
X010613Y005882D01*
X010597Y005821D01*
X010585Y005760D01*
X010576Y005697D01*
X010572Y005634D01*
X010571Y005572D01*
X010574Y005509D01*
X010581Y005446D01*
X010592Y005384D01*
X010606Y005323D01*
X010624Y005263D01*
X010646Y005204D01*
X010671Y005146D01*
X010700Y005090D01*
X010732Y005036D01*
X010767Y004984D01*
X010805Y004934D01*
X010846Y004886D01*
X010891Y004841D01*
X010937Y004799D01*
X010986Y004760D01*
X011038Y004724D01*
X011091Y004691D01*
X011147Y004661D01*
X011204Y004635D01*
X011262Y004612D01*
X011322Y004593D01*
X011383Y004577D01*
X011445Y004565D01*
X011507Y004557D01*
X011570Y004553D01*
X011633Y004552D01*
X011696Y004556D01*
X011758Y004563D01*
X011820Y004574D01*
X011882Y004588D01*
X011942Y004606D01*
X012001Y004628D01*
X012058Y004654D01*
X012059Y004653D02*
X012279Y004653D01*
X012479Y004453D01*
X012479Y004103D01*
X012478Y004103D02*
X012480Y004071D01*
X012485Y004039D01*
X012495Y004008D01*
X012508Y003978D01*
X012524Y003950D01*
X012543Y003924D01*
X012565Y003901D01*
X012590Y003880D01*
X012617Y003862D01*
X012646Y003848D01*
X012676Y003837D01*
X012708Y003829D01*
X012740Y003825D01*
X012772Y003825D01*
X012804Y003829D01*
X012836Y003837D01*
X012866Y003848D01*
X012895Y003862D01*
X012922Y003880D01*
X012947Y003901D01*
X012969Y003924D01*
X012988Y003950D01*
X013004Y003978D01*
X013017Y004008D01*
X013027Y004039D01*
X013032Y004071D01*
X013034Y004103D01*
X013034Y005123D01*
X014084Y005123D01*
X014084Y003586D01*
X014086Y003552D01*
X014092Y003519D01*
X014101Y003487D01*
X014114Y003456D01*
X014130Y003426D01*
X014149Y003399D01*
X014172Y003374D01*
X014197Y003351D01*
X014224Y003332D01*
X014254Y003316D01*
X014285Y003303D01*
X014317Y003294D01*
X014350Y003288D01*
X014384Y003286D01*
X014663Y003286D01*
X014663Y002126D01*
X008546Y002126D01*
X008516Y002128D01*
X008486Y002133D01*
X008457Y002142D01*
X008429Y002155D01*
X008403Y002170D01*
X008379Y002189D01*
X008358Y002211D01*
X008339Y002234D01*
X008323Y002261D01*
X008311Y002288D01*
X008301Y002317D01*
X008296Y002347D01*
X008294Y002378D01*
X013134Y005123D02*
X013134Y006023D01*
X014084Y006023D02*
X014084Y005123D01*
X015241Y005943D02*
X015220Y005976D01*
X015207Y006013D01*
X015202Y006052D01*
X015202Y006502D01*
X015207Y006541D01*
X015220Y006578D01*
X015241Y006612D01*
X015268Y006639D01*
X015301Y006660D01*
X015338Y006673D01*
X015377Y006677D01*
X015416Y006673D01*
X015453Y006660D01*
X015487Y006639D01*
X015514Y006612D01*
X015535Y006578D01*
X015548Y006541D01*
X015552Y006502D01*
X015552Y006052D01*
X015548Y006013D01*
X015535Y005976D01*
X015514Y005943D01*
X015487Y005916D01*
X015453Y005895D01*
X015416Y005882D01*
X015377Y005877D01*
X015338Y005882D01*
X015301Y005895D01*
X015268Y005916D01*
X015241Y005943D01*
X015261Y005923D02*
X015494Y005923D01*
X015532Y005971D02*
X015223Y005971D01*
X015206Y006020D02*
X015549Y006020D01*
X015552Y006068D02*
X015202Y006068D01*
X015202Y006117D02*
X015552Y006117D01*
X015552Y006165D02*
X015202Y006165D01*
X015202Y006214D02*
X015552Y006214D01*
X015552Y006262D02*
X015202Y006262D01*
X015202Y006311D02*
X015552Y006311D01*
X015552Y006359D02*
X015202Y006359D01*
X015202Y006408D02*
X015552Y006408D01*
X015552Y006456D02*
X015202Y006456D01*
X015203Y006505D02*
X015552Y006505D01*
X015544Y006553D02*
X015211Y006553D01*
X015235Y006602D02*
X015520Y006602D01*
X015469Y006650D02*
X015286Y006650D01*
X016491Y005512D02*
X016518Y005539D01*
X016551Y005560D01*
X016588Y005573D01*
X016627Y005577D01*
X017077Y005577D01*
X017116Y005573D01*
X017153Y005560D01*
X017187Y005539D01*
X017214Y005512D01*
X017235Y005478D01*
X017248Y005441D01*
X017252Y005402D01*
X017248Y005363D01*
X017235Y005326D01*
X017214Y005293D01*
X017187Y005266D01*
X017153Y005245D01*
X017116Y005232D01*
X017077Y005227D01*
X016627Y005227D01*
X016588Y005232D01*
X016551Y005245D01*
X016518Y005266D01*
X016491Y005293D01*
X016470Y005326D01*
X016457Y005363D01*
X016452Y005402D01*
X016457Y005441D01*
X016470Y005478D01*
X016491Y005512D01*
X016475Y005486D02*
X017230Y005486D01*
X017248Y005438D02*
X016456Y005438D01*
X016454Y005389D02*
X017251Y005389D01*
X017240Y005341D02*
X016465Y005341D01*
X016491Y005292D02*
X017213Y005292D01*
X017151Y005244D02*
X016554Y005244D01*
X016514Y005535D02*
X017191Y005535D01*
X018030Y006790D02*
X018030Y006945D01*
X018081Y006997D01*
X018133Y006997D01*
X018185Y006945D01*
X018185Y006790D01*
X018340Y006790D02*
X018340Y006945D01*
X018288Y006997D01*
X018236Y006997D01*
X018185Y006945D01*
X018185Y007122D02*
X018185Y007328D01*
X018236Y007328D02*
X018030Y007328D01*
X018236Y007328D02*
X018340Y007225D01*
X018236Y007122D01*
X018030Y007122D01*
X018030Y006790D02*
X018340Y006790D01*
X018340Y007453D02*
X018340Y007660D01*
X018340Y007556D02*
X018030Y007556D01*
X018081Y007785D02*
X018030Y007836D01*
X018030Y007940D01*
X018081Y007991D01*
X018288Y007991D01*
X018340Y007940D01*
X018340Y007836D01*
X018288Y007785D01*
X018081Y007785D01*
X018081Y008116D02*
X018030Y008168D01*
X018030Y008271D01*
X018081Y008323D01*
X018340Y008323D01*
X018340Y008447D02*
X018340Y008654D01*
X018340Y008551D02*
X018030Y008551D01*
X018081Y008116D02*
X018340Y008116D01*
X016114Y009668D02*
X016087Y009641D01*
X016053Y009620D01*
X016016Y009607D01*
X015977Y009602D01*
X015938Y009607D01*
X015901Y009620D01*
X015868Y009641D01*
X015841Y009668D01*
X015820Y009701D01*
X015807Y009738D01*
X015802Y009777D01*
X015807Y009816D01*
X015820Y009853D01*
X015841Y009887D01*
X015868Y009914D01*
X015901Y009935D01*
X015938Y009948D01*
X015977Y009952D01*
X016016Y009948D01*
X016053Y009935D01*
X016087Y009914D01*
X016114Y009887D01*
X016135Y009853D01*
X016148Y009816D01*
X016152Y009777D01*
X016148Y009738D01*
X016135Y009701D01*
X016114Y009668D01*
X016103Y009657D02*
X015851Y009657D01*
X015818Y009706D02*
X016137Y009706D01*
X016150Y009754D02*
X015805Y009754D01*
X015805Y009803D02*
X016150Y009803D01*
X016136Y009851D02*
X015819Y009851D01*
X015854Y009900D02*
X016101Y009900D01*
X016012Y009948D02*
X015942Y009948D01*
X015932Y009609D02*
X016023Y009609D01*
X015866Y008298D02*
X015903Y008285D01*
X015937Y008264D01*
X015964Y008237D01*
X015985Y008203D01*
X015998Y008166D01*
X016002Y008127D01*
X015998Y008088D01*
X015985Y008051D01*
X015964Y008018D01*
X015937Y007991D01*
X015903Y007970D01*
X015866Y007957D01*
X015827Y007952D01*
X015788Y007957D01*
X015751Y007970D01*
X015718Y007991D01*
X015691Y008018D01*
X015670Y008051D01*
X015657Y008088D01*
X015652Y008127D01*
X015657Y008166D01*
X015670Y008203D01*
X015691Y008237D01*
X015718Y008264D01*
X015751Y008285D01*
X015788Y008298D01*
X015827Y008302D01*
X015866Y008298D01*
X015854Y008299D02*
X015801Y008299D01*
X015705Y008251D02*
X015950Y008251D01*
X015985Y008202D02*
X015669Y008202D01*
X015655Y008154D02*
X015999Y008154D01*
X016000Y008105D02*
X015655Y008105D01*
X015668Y008057D02*
X015987Y008057D01*
X015954Y008008D02*
X015700Y008008D01*
X015779Y007960D02*
X015875Y007960D01*
X019564Y005164D02*
X019615Y005216D01*
X019770Y005216D01*
X019770Y004905D01*
X019615Y004905D01*
X019564Y004957D01*
X019564Y005164D01*
X019895Y005216D02*
X019895Y004905D01*
X020102Y005216D01*
X020102Y004905D01*
X020227Y004957D02*
X020227Y005060D01*
X020330Y005060D01*
X020433Y004957D02*
X020382Y004905D01*
X020278Y004905D01*
X020227Y004957D01*
X020433Y004957D02*
X020433Y005164D01*
X020382Y005216D01*
X020278Y005216D01*
X020227Y005164D01*
X021339Y005328D02*
X021339Y004560D01*
X021289Y004519D02*
X022349Y004519D01*
X022349Y002376D01*
X022347Y002346D01*
X022342Y002316D01*
X022333Y002287D01*
X022320Y002260D01*
X022305Y002234D01*
X022286Y002210D01*
X022265Y002189D01*
X022241Y002170D01*
X022215Y002155D01*
X022188Y002142D01*
X022159Y002133D01*
X022129Y002128D01*
X022099Y002126D01*
X015513Y002126D01*
X015513Y003286D01*
X020989Y003286D01*
X021023Y003290D01*
X021056Y003298D01*
X021088Y003310D01*
X021119Y003324D01*
X021148Y003342D01*
X021175Y003363D01*
X021200Y003386D01*
X021222Y003412D01*
X021242Y003440D01*
X021258Y003470D01*
X021271Y003502D01*
X021281Y003534D01*
X021287Y003568D01*
X021290Y003602D01*
X021289Y003636D01*
X021289Y004519D01*
X021710Y004624D02*
X021753Y004638D01*
X015471Y003236D02*
X014703Y003236D01*
X014767Y003065D02*
X014781Y003022D01*
X010512Y009857D02*
X010480Y009842D01*
X010445Y009835D02*
X010380Y009862D01*
X010347Y009925D01*
X010352Y009997D01*
X010395Y010047D01*
X010417Y010062D01*
X010480Y010062D01*
X010532Y010027D01*
X010555Y009982D01*
X010555Y009922D01*
X010535Y009885D01*
X010512Y009857D01*
X010614Y010566D02*
X009862Y010566D01*
X006405Y012880D02*
X006431Y012926D01*
X006447Y012975D01*
X006452Y013027D01*
X006452Y013102D01*
X006447Y013154D01*
X006431Y013204D01*
X006405Y013249D01*
X006370Y013288D01*
X006327Y013319D01*
X006280Y013340D01*
X006229Y013351D01*
X006176Y013351D01*
X006125Y013340D01*
X006077Y013319D01*
X006035Y013288D01*
X006000Y013249D01*
X005974Y013204D01*
X005958Y013154D01*
X005952Y013102D01*
X005952Y013027D01*
X005958Y012975D01*
X005974Y012926D01*
X006000Y012880D01*
X006035Y012842D01*
X006077Y012811D01*
X006125Y012790D01*
X006176Y012779D01*
X006229Y012779D01*
X006280Y012790D01*
X006327Y012811D01*
X006370Y012842D01*
X006405Y012880D01*
X006385Y012858D02*
X006020Y012858D01*
X005985Y012907D02*
X006420Y012907D01*
X006440Y012955D02*
X005964Y012955D01*
X005955Y013004D02*
X006450Y013004D01*
X006452Y013052D02*
X005952Y013052D01*
X005952Y013101D02*
X006452Y013101D01*
X006447Y013149D02*
X005957Y013149D01*
X005972Y013198D02*
X006433Y013198D01*
X006406Y013246D02*
X005998Y013246D01*
X006044Y013295D02*
X006360Y013295D01*
X006264Y013343D02*
X006141Y013343D01*
X006079Y012810D02*
X006325Y012810D01*
X005044Y013526D02*
X005035Y013571D01*
X005023Y013616D01*
X005008Y013660D01*
X004989Y013703D01*
X004968Y013744D01*
X004944Y013784D01*
X004916Y013822D01*
X004886Y013857D01*
X004854Y013891D01*
X004819Y013922D01*
X004782Y013950D01*
X004744Y013976D01*
X004294Y014826D02*
X004303Y014852D01*
X004315Y014877D01*
X004331Y014900D01*
X004349Y014921D01*
X004370Y014939D01*
X004393Y014955D01*
X004418Y014967D01*
X004444Y014976D01*
X004744Y015076D02*
X004773Y015089D01*
X004799Y015105D01*
X004824Y015124D01*
X004846Y015146D01*
X004865Y015171D01*
X004881Y015197D01*
X004894Y015226D01*
X009650Y016729D02*
X009670Y016719D01*
X009689Y016706D01*
X009707Y016691D01*
X009722Y016674D01*
X009736Y016655D01*
X009747Y016635D01*
X009654Y015386D02*
X009656Y015430D01*
X009662Y015473D01*
X009672Y015516D01*
X009685Y015558D01*
X009703Y015599D01*
X009723Y015637D01*
X009748Y015674D01*
X009775Y015708D01*
X009805Y015740D01*
X009838Y015769D01*
X009874Y015795D01*
X009912Y015817D01*
X009951Y015837D01*
X009993Y015852D01*
X010035Y015864D01*
X010078Y015872D01*
X010122Y015876D01*
X010166Y015876D01*
X010210Y015872D01*
X010253Y015864D01*
X010295Y015852D01*
X010337Y015837D01*
X010376Y015817D01*
X010414Y015795D01*
X010450Y015769D01*
X010483Y015740D01*
X010513Y015708D01*
X010540Y015674D01*
X010565Y015637D01*
X010585Y015599D01*
X010603Y015558D01*
X010616Y015516D01*
X010626Y015473D01*
X010632Y015430D01*
X010634Y015386D01*
X010632Y015342D01*
X010626Y015299D01*
X010616Y015256D01*
X010603Y015214D01*
X010585Y015173D01*
X010565Y015135D01*
X010540Y015098D01*
X010513Y015064D01*
X010483Y015032D01*
X010450Y015003D01*
X010414Y014977D01*
X010376Y014955D01*
X010337Y014935D01*
X010295Y014920D01*
X010253Y014908D01*
X010210Y014900D01*
X010166Y014896D01*
X010122Y014896D01*
X010078Y014900D01*
X010035Y014908D01*
X009993Y014920D01*
X009951Y014935D01*
X009912Y014955D01*
X009874Y014977D01*
X009838Y015003D01*
X009805Y015032D01*
X009775Y015064D01*
X009748Y015098D01*
X009723Y015135D01*
X009703Y015173D01*
X009685Y015214D01*
X009672Y015256D01*
X009662Y015299D01*
X009656Y015342D01*
X009654Y015386D01*
X011911Y013537D02*
X012766Y013537D01*
X012794Y013489D02*
X011883Y013489D01*
X011859Y013440D02*
X012819Y013440D01*
X012725Y013586D02*
X011952Y013586D01*
X012003Y013634D02*
X012674Y013634D01*
X012606Y013683D02*
X012071Y013683D01*
X012177Y013731D02*
X012501Y013731D01*
X013444Y013486D02*
X013435Y013425D01*
X013422Y013366D01*
X013405Y013307D01*
X013385Y013249D01*
X013361Y013193D01*
X013334Y013138D01*
X013303Y013085D01*
X013269Y013035D01*
X013232Y012986D01*
X013191Y012940D01*
X013148Y012897D01*
X013102Y012856D01*
X013054Y012819D01*
X013004Y012784D01*
X012951Y012753D01*
X012897Y012726D01*
X012841Y012701D01*
X012783Y012681D01*
X012724Y012664D01*
X012665Y012651D01*
X012604Y012641D01*
X012543Y012636D01*
X014050Y014530D02*
X014093Y014544D01*
X015543Y014005D02*
X015543Y013705D01*
X015743Y014005D01*
X015743Y013705D01*
X015865Y013705D02*
X015865Y013905D01*
X015965Y014005D01*
X016065Y013905D01*
X016065Y013705D01*
X016187Y013755D02*
X016237Y013705D01*
X016337Y013705D01*
X016387Y013755D01*
X016387Y013955D01*
X016337Y014005D01*
X016237Y014005D01*
X016187Y013955D01*
X016065Y013855D02*
X015865Y013855D01*
X015865Y013455D02*
X015865Y013155D01*
X016065Y013455D01*
X016065Y013155D01*
X016180Y013155D02*
X016280Y013155D01*
X016230Y013155D02*
X016230Y013455D01*
X016280Y013455D02*
X016180Y013455D01*
X016402Y013455D02*
X016402Y013155D01*
X016402Y013305D02*
X016602Y013305D01*
X016602Y013155D02*
X016602Y013455D01*
X016724Y013455D02*
X016924Y013455D01*
X016824Y013455D02*
X016824Y013155D01*
X017147Y013155D02*
X017147Y013305D01*
X017047Y013405D01*
X017047Y013455D01*
X017147Y013305D02*
X017247Y013405D01*
X017247Y013455D01*
X017369Y013405D02*
X017369Y013305D01*
X017419Y013255D01*
X017569Y013255D01*
X017469Y013255D02*
X017369Y013155D01*
X017569Y013155D02*
X017569Y013455D01*
X017419Y013455D01*
X017369Y013405D01*
X017691Y013455D02*
X017891Y013455D01*
X017891Y013155D01*
X017691Y013155D01*
X017791Y013305D02*
X017891Y013305D01*
X018013Y013255D02*
X018013Y013455D01*
X018013Y013255D02*
X018113Y013155D01*
X018214Y013255D01*
X018214Y013455D01*
X018336Y013455D02*
X018536Y013455D01*
X018536Y013155D01*
X018336Y013155D01*
X018436Y013305D02*
X018536Y013305D01*
X018980Y013155D02*
X019180Y013155D01*
X019180Y013455D01*
X019503Y013455D02*
X019503Y013155D01*
X019302Y013155D01*
X019625Y013155D02*
X019625Y013355D01*
X019725Y013455D01*
X019825Y013355D01*
X019825Y013155D01*
X019825Y013305D02*
X019625Y013305D01*
X019947Y013455D02*
X020147Y013455D01*
X020047Y013455D02*
X020047Y013155D01*
X020269Y013205D02*
X020319Y013155D01*
X020419Y013155D01*
X020469Y013205D01*
X020419Y013305D02*
X020319Y013305D01*
X020269Y013255D01*
X020269Y013205D01*
X020419Y013305D02*
X020469Y013355D01*
X020469Y013405D01*
X020419Y013455D01*
X020319Y013455D01*
X020269Y013405D01*
X020592Y013455D02*
X020592Y013155D01*
X020792Y013455D01*
X020792Y013155D01*
X020907Y013155D02*
X021007Y013155D01*
X020957Y013155D02*
X020957Y013455D01*
X021007Y013455D02*
X020907Y013455D01*
X020914Y013705D02*
X020914Y013905D01*
X021014Y014005D01*
X021114Y013905D01*
X021114Y013705D01*
X021236Y013705D02*
X021236Y014005D01*
X021236Y013855D02*
X021436Y013855D01*
X021436Y013705D02*
X021436Y014005D01*
X021558Y013955D02*
X021608Y014005D01*
X021709Y014005D01*
X021759Y013955D01*
X021759Y013755D01*
X021709Y013705D01*
X021608Y013705D01*
X021558Y013755D01*
X021501Y013455D02*
X021651Y013455D01*
X021651Y013155D01*
X021501Y013155D01*
X021451Y013205D01*
X021451Y013405D01*
X021501Y013455D01*
X021773Y013455D02*
X021773Y013155D01*
X021973Y013455D01*
X021973Y013155D01*
X022096Y013155D02*
X022096Y013355D01*
X022196Y013455D01*
X022296Y013355D01*
X022296Y013155D01*
X022296Y013305D02*
X022096Y013305D01*
X022733Y013255D02*
X022733Y013355D01*
X022833Y013455D01*
X022955Y013405D02*
X023005Y013455D01*
X023105Y013455D01*
X023155Y013405D01*
X023270Y013455D02*
X023370Y013355D01*
X023370Y013255D01*
X023270Y013155D01*
X023155Y013155D02*
X022955Y013355D01*
X022955Y013405D01*
X022955Y013155D02*
X023155Y013155D01*
X022833Y013155D02*
X022733Y013255D01*
X022625Y013705D02*
X022625Y014005D01*
X022725Y014005D02*
X022525Y014005D01*
X022403Y013955D02*
X022403Y013755D01*
X022353Y013705D01*
X022253Y013705D01*
X022203Y013755D01*
X022203Y013955D01*
X022253Y014005D01*
X022353Y014005D01*
X022403Y013955D01*
X022403Y014255D02*
X022403Y014555D01*
X022203Y014255D01*
X022203Y014555D01*
X022081Y014555D02*
X021931Y014555D01*
X021881Y014505D01*
X021881Y014305D01*
X021931Y014255D01*
X022081Y014255D01*
X022081Y014555D01*
X022094Y014805D02*
X021893Y014805D01*
X021771Y014855D02*
X021721Y014805D01*
X021621Y014805D01*
X021571Y014855D01*
X021571Y014905D01*
X021621Y014955D01*
X021721Y014955D01*
X021771Y015005D01*
X021771Y015055D01*
X021721Y015105D01*
X021621Y015105D01*
X021571Y015055D01*
X021449Y015105D02*
X021249Y015105D01*
X021349Y015105D02*
X021349Y014805D01*
X021286Y014555D02*
X021236Y014505D01*
X021236Y014455D01*
X021286Y014405D01*
X021436Y014405D01*
X021286Y014405D02*
X021236Y014355D01*
X021236Y014305D01*
X021286Y014255D01*
X021436Y014255D01*
X021436Y014555D01*
X021286Y014555D01*
X021114Y014455D02*
X021014Y014555D01*
X020914Y014455D01*
X020914Y014255D01*
X020914Y014405D02*
X021114Y014405D01*
X021114Y014455D02*
X021114Y014255D01*
X020792Y014005D02*
X020642Y014005D01*
X020592Y013955D01*
X020592Y013855D01*
X020642Y013805D01*
X020792Y013805D01*
X020692Y013805D02*
X020592Y013705D01*
X020469Y013755D02*
X020469Y013955D01*
X020419Y014005D01*
X020319Y014005D01*
X020269Y013955D01*
X020269Y013855D02*
X020369Y013855D01*
X020269Y013855D02*
X020269Y013755D01*
X020319Y013705D01*
X020419Y013705D01*
X020469Y013755D01*
X020147Y013705D02*
X020147Y014005D01*
X019947Y014005D01*
X020047Y013855D02*
X020147Y013855D01*
X020147Y013705D02*
X019947Y013705D01*
X019825Y013604D02*
X019725Y013705D01*
X019775Y013705D01*
X019775Y013755D01*
X019725Y013755D01*
X019725Y013705D01*
X019288Y014005D02*
X019088Y014005D01*
X019188Y014005D02*
X019188Y013705D01*
X018966Y013705D02*
X018966Y014005D01*
X018966Y013855D02*
X018765Y013855D01*
X018643Y013855D02*
X018543Y013855D01*
X018443Y014005D02*
X018643Y014005D01*
X018643Y013705D01*
X018443Y013705D01*
X018321Y013705D02*
X018321Y014005D01*
X018121Y013705D01*
X018121Y014005D01*
X018121Y014255D02*
X018121Y014555D01*
X017999Y014555D02*
X017899Y014555D01*
X017949Y014555D02*
X017949Y014255D01*
X017999Y014255D02*
X017899Y014255D01*
X017784Y014305D02*
X017734Y014255D01*
X017634Y014255D01*
X017584Y014305D01*
X017462Y014255D02*
X017462Y014555D01*
X017584Y014505D02*
X017634Y014555D01*
X017734Y014555D01*
X017784Y014505D01*
X017784Y014305D01*
X017462Y014405D02*
X017261Y014405D01*
X017261Y014555D02*
X017261Y014255D01*
X017304Y014005D02*
X017354Y013955D01*
X017354Y013755D01*
X017304Y013705D01*
X017204Y013705D01*
X017154Y013755D01*
X017154Y013955D01*
X017204Y014005D01*
X017304Y014005D01*
X017476Y014005D02*
X017476Y013955D01*
X017576Y013855D01*
X017576Y013705D01*
X017576Y013855D02*
X017676Y013955D01*
X017676Y014005D01*
X018121Y014405D02*
X018321Y014405D01*
X018321Y014255D02*
X018321Y014555D01*
X018443Y014555D02*
X018443Y014255D01*
X018543Y014355D01*
X018643Y014255D01*
X018643Y014555D01*
X018671Y014805D02*
X018671Y015005D01*
X018771Y015105D01*
X018871Y015005D01*
X018871Y014805D01*
X018993Y014855D02*
X018993Y015055D01*
X019043Y015105D01*
X019143Y015105D01*
X019193Y015055D01*
X019193Y014855D01*
X019143Y014805D01*
X019043Y014805D01*
X018993Y014855D01*
X018871Y014955D02*
X018671Y014955D01*
X018549Y014905D02*
X018398Y014905D01*
X018348Y014955D01*
X018348Y015055D01*
X018398Y015105D01*
X018549Y015105D01*
X018549Y014805D01*
X018448Y014905D02*
X018348Y014805D01*
X018226Y014805D02*
X018076Y014805D01*
X018026Y014855D01*
X018026Y015055D01*
X018076Y015105D01*
X018226Y015105D01*
X018226Y014805D01*
X017582Y014805D02*
X017482Y014905D01*
X017382Y014805D01*
X017382Y015105D01*
X017259Y015105D02*
X017159Y015105D01*
X017209Y015105D02*
X017209Y014805D01*
X017259Y014805D02*
X017159Y014805D01*
X016945Y014805D02*
X016945Y015105D01*
X017045Y015105D02*
X016844Y015105D01*
X016722Y015105D02*
X016722Y014805D01*
X016722Y014955D02*
X016522Y014955D01*
X016522Y015105D02*
X016522Y014805D01*
X016495Y014555D02*
X016395Y014555D01*
X016445Y014555D02*
X016445Y014255D01*
X016495Y014255D02*
X016395Y014255D01*
X016280Y014255D02*
X016080Y014255D01*
X015958Y014255D02*
X015757Y014255D01*
X015958Y014255D02*
X015958Y014555D01*
X016280Y014555D02*
X016280Y014255D01*
X016617Y014255D02*
X016717Y014355D01*
X016817Y014255D01*
X016817Y014555D01*
X016617Y014555D02*
X016617Y014255D01*
X016832Y014005D02*
X016832Y013755D01*
X016882Y013705D01*
X016982Y013705D01*
X017032Y013755D01*
X017032Y014005D01*
X017582Y014805D02*
X017582Y015105D01*
X017741Y016355D02*
X017691Y016405D01*
X017691Y016605D01*
X017741Y016655D01*
X017891Y016655D01*
X017891Y016355D01*
X017741Y016355D01*
X018013Y016355D02*
X018113Y016455D01*
X018063Y016455D02*
X018214Y016455D01*
X018214Y016355D02*
X018214Y016655D01*
X018063Y016655D01*
X018013Y016605D01*
X018013Y016505D01*
X018063Y016455D01*
X018336Y016505D02*
X018536Y016505D01*
X018536Y016555D02*
X018436Y016655D01*
X018336Y016555D01*
X018336Y016355D01*
X018536Y016355D02*
X018536Y016555D01*
X018658Y016605D02*
X018658Y016405D01*
X018708Y016355D01*
X018808Y016355D01*
X018858Y016405D01*
X018858Y016605D01*
X018808Y016655D01*
X018708Y016655D01*
X018658Y016605D01*
X018980Y016605D02*
X019030Y016655D01*
X019180Y016655D01*
X019180Y016355D01*
X019030Y016355D01*
X018980Y016405D01*
X018980Y016455D01*
X019030Y016505D01*
X019180Y016505D01*
X019030Y016505D02*
X018980Y016555D01*
X018980Y016605D01*
X018936Y016905D02*
X018886Y016955D01*
X018886Y017055D01*
X018986Y017055D01*
X019086Y017155D02*
X019086Y016955D01*
X019036Y016905D01*
X018936Y016905D01*
X018763Y016905D02*
X018763Y017205D01*
X018563Y017205D01*
X018441Y017155D02*
X018441Y017105D01*
X018391Y017055D01*
X018291Y017055D01*
X018241Y017005D01*
X018241Y016955D01*
X018291Y016905D01*
X018391Y016905D01*
X018441Y016955D01*
X018563Y016905D02*
X018763Y016905D01*
X018763Y017055D02*
X018663Y017055D01*
X018441Y017155D02*
X018391Y017205D01*
X018291Y017205D01*
X018241Y017155D01*
X017797Y017105D02*
X017797Y017005D01*
X017696Y016905D01*
X017582Y016905D02*
X017382Y016905D01*
X017482Y016905D02*
X017482Y017205D01*
X017582Y017105D01*
X017696Y017205D02*
X017797Y017105D01*
X017259Y017205D02*
X017159Y017105D01*
X017159Y017005D01*
X017259Y016905D01*
X018886Y017155D02*
X018936Y017205D01*
X019036Y017205D01*
X019086Y017155D01*
X019208Y017155D02*
X019208Y016955D01*
X019258Y016905D01*
X019408Y016905D01*
X019408Y017205D01*
X019258Y017205D01*
X019208Y017155D01*
X019523Y017205D02*
X019623Y017205D01*
X019573Y017205D02*
X019573Y016905D01*
X019623Y016905D02*
X019523Y016905D01*
X019745Y016905D02*
X019845Y017005D01*
X019795Y017005D02*
X019945Y017005D01*
X019945Y016905D02*
X019945Y017205D01*
X019795Y017205D01*
X019745Y017155D01*
X019745Y017055D01*
X019795Y017005D01*
X020067Y017005D02*
X020117Y017055D01*
X020267Y017055D01*
X020117Y017055D02*
X020067Y017105D01*
X020067Y017155D01*
X020117Y017205D01*
X020267Y017205D01*
X020267Y016905D01*
X020117Y016905D01*
X020067Y016955D01*
X020067Y017005D01*
X020147Y016655D02*
X020147Y016355D01*
X020147Y016505D02*
X019947Y016505D01*
X019825Y016505D02*
X019725Y016505D01*
X019625Y016655D02*
X019825Y016655D01*
X019825Y016355D01*
X019625Y016355D01*
X019947Y016355D02*
X019947Y016655D01*
X020269Y016655D02*
X020469Y016655D01*
X020369Y016655D02*
X020369Y016355D01*
X020269Y016105D02*
X020469Y016105D01*
X020469Y015805D01*
X020269Y015805D01*
X020369Y015955D02*
X020469Y015955D01*
X020592Y016105D02*
X020592Y015805D01*
X020792Y015805D02*
X020792Y016105D01*
X020692Y016005D01*
X020592Y016105D01*
X020914Y016005D02*
X020914Y015805D01*
X020914Y015955D02*
X021114Y015955D01*
X021114Y016005D02*
X021014Y016105D01*
X020914Y016005D01*
X021114Y016005D02*
X021114Y015805D01*
X021236Y015805D02*
X021336Y015905D01*
X021286Y015905D02*
X021436Y015905D01*
X021436Y015805D02*
X021436Y016105D01*
X021286Y016105D01*
X021236Y016055D01*
X021236Y015955D01*
X021286Y015905D01*
X021558Y016105D02*
X021759Y016105D01*
X021759Y015805D01*
X021759Y015955D02*
X021658Y015955D01*
X021558Y016355D02*
X021558Y016555D01*
X021658Y016655D01*
X021759Y016555D01*
X021759Y016355D01*
X021881Y016355D02*
X021981Y016455D01*
X021931Y016455D02*
X022081Y016455D01*
X022081Y016355D02*
X022081Y016655D01*
X021931Y016655D01*
X021881Y016605D01*
X021881Y016505D01*
X021931Y016455D01*
X021759Y016505D02*
X021558Y016505D01*
X021436Y016655D02*
X021236Y016655D01*
X021336Y016655D02*
X021336Y016355D01*
X021114Y016355D02*
X020914Y016355D01*
X021014Y016505D02*
X021114Y016505D01*
X021114Y016655D02*
X020914Y016655D01*
X021114Y016655D02*
X021114Y016355D01*
X021034Y016905D02*
X021034Y017205D01*
X020912Y017205D02*
X020912Y016905D01*
X020712Y016905D01*
X020812Y017055D02*
X020912Y017055D01*
X021034Y017055D02*
X021234Y017055D01*
X021234Y016905D02*
X021234Y017205D01*
X021356Y017205D02*
X021556Y017205D01*
X021456Y017205D02*
X021456Y016905D01*
X020912Y017205D02*
X020712Y017205D01*
X022001Y017205D02*
X022201Y017205D01*
X022101Y017205D02*
X022101Y016905D01*
X022323Y016955D02*
X022323Y017205D01*
X022523Y017205D02*
X022523Y016955D01*
X022473Y016905D01*
X022373Y016905D01*
X022323Y016955D01*
X022303Y016655D02*
X022203Y016555D01*
X022203Y016355D01*
X022203Y016505D02*
X022403Y016505D01*
X022403Y016555D02*
X022303Y016655D01*
X022403Y016555D02*
X022403Y016355D01*
X022525Y016505D02*
X022575Y016455D01*
X022725Y016455D01*
X022725Y016355D02*
X022725Y016655D01*
X022575Y016655D01*
X022525Y016605D01*
X022525Y016505D01*
X022848Y016655D02*
X023048Y016655D01*
X023048Y016355D01*
X022848Y016355D01*
X022948Y016505D02*
X023048Y016505D01*
X023170Y016455D02*
X023170Y016405D01*
X023220Y016355D01*
X023320Y016355D01*
X023370Y016405D01*
X023320Y016505D02*
X023220Y016505D01*
X023170Y016455D01*
X023170Y016605D02*
X023220Y016655D01*
X023320Y016655D01*
X023370Y016605D01*
X023370Y016555D01*
X023320Y016505D01*
X023390Y016905D02*
X023390Y017205D01*
X023490Y017205D02*
X023290Y017205D01*
X023612Y017155D02*
X023662Y017205D01*
X023762Y017205D01*
X023812Y017155D01*
X023812Y017105D01*
X023762Y017055D01*
X023662Y017055D01*
X023612Y017005D01*
X023612Y016955D01*
X023662Y016905D01*
X023762Y016905D01*
X023812Y016955D01*
X023934Y016905D02*
X024035Y017005D01*
X023985Y017005D02*
X024135Y017005D01*
X024135Y016905D02*
X024135Y017205D01*
X023985Y017205D01*
X023934Y017155D01*
X023934Y017055D01*
X023985Y017005D01*
X024249Y016905D02*
X024350Y016905D01*
X024299Y016905D02*
X024299Y017205D01*
X024249Y017205D02*
X024350Y017205D01*
X024472Y017205D02*
X024672Y017205D01*
X024672Y016905D01*
X024672Y017055D02*
X024572Y017055D01*
X024794Y017055D02*
X024894Y016955D01*
X024894Y017055D02*
X024994Y016955D01*
X024894Y017055D02*
X024994Y017155D01*
X024894Y017155D02*
X024794Y017055D01*
X024559Y016655D02*
X024459Y016555D01*
X024459Y016355D01*
X024337Y016355D02*
X024337Y016655D01*
X024137Y016355D01*
X024137Y016655D01*
X024015Y016655D02*
X023864Y016655D01*
X023814Y016605D01*
X023814Y016405D01*
X023864Y016355D01*
X024015Y016355D01*
X024015Y016655D01*
X024459Y016505D02*
X024659Y016505D01*
X024659Y016555D02*
X024559Y016655D01*
X024659Y016555D02*
X024659Y016355D01*
X024659Y016105D02*
X024459Y016105D01*
X024337Y016105D02*
X024187Y016105D01*
X024137Y016055D01*
X024137Y015955D01*
X024187Y015905D01*
X024337Y015905D01*
X024237Y015905D02*
X024137Y015805D01*
X024015Y015855D02*
X023964Y015805D01*
X023864Y015805D01*
X023814Y015855D01*
X023814Y016055D01*
X023864Y016105D01*
X023964Y016105D01*
X024015Y016055D01*
X024015Y015855D01*
X024337Y015805D02*
X024337Y016105D01*
X024559Y015955D02*
X024659Y015955D01*
X024659Y015805D02*
X024659Y016105D01*
X023692Y016105D02*
X023692Y015805D01*
X023492Y015805D02*
X023492Y016105D01*
X023592Y016005D01*
X023692Y016105D01*
X023048Y016105D02*
X022848Y016105D01*
X022948Y016105D02*
X022948Y015805D01*
X022725Y015805D02*
X022725Y016105D01*
X022725Y015955D02*
X022525Y015955D01*
X022403Y015955D02*
X022303Y015955D01*
X022203Y016105D02*
X022403Y016105D01*
X022403Y015805D01*
X022203Y015805D01*
X022525Y015805D02*
X022525Y016105D01*
X022695Y016905D02*
X022645Y016955D01*
X022695Y016905D02*
X022796Y016905D01*
X022846Y016955D01*
X022846Y017155D01*
X022796Y017205D01*
X022695Y017205D01*
X022645Y017155D01*
X022416Y015105D02*
X022216Y015105D01*
X022316Y015105D02*
X022316Y014805D01*
X022094Y014805D02*
X022094Y015105D01*
X021893Y015105D01*
X021993Y014955D02*
X022094Y014955D01*
X022525Y014455D02*
X022625Y014555D01*
X022725Y014455D01*
X022725Y014255D01*
X022725Y014405D02*
X022525Y014405D01*
X022525Y014455D02*
X022525Y014255D01*
X023170Y014305D02*
X023220Y014255D01*
X023320Y014255D01*
X023370Y014305D01*
X023370Y014505D01*
X023320Y014555D01*
X023220Y014555D01*
X023170Y014505D01*
X023183Y014805D02*
X023183Y015105D01*
X023060Y015105D02*
X022910Y015105D01*
X022860Y015055D01*
X022860Y014855D01*
X022910Y014805D01*
X023060Y014805D01*
X023060Y015105D01*
X023383Y015105D02*
X023183Y014805D01*
X023383Y014805D02*
X023383Y015105D01*
X023505Y015055D02*
X023555Y015105D01*
X023655Y015105D01*
X023705Y015055D01*
X023705Y014855D01*
X023655Y014805D01*
X023555Y014805D01*
X023505Y014855D01*
X023505Y015055D01*
X023827Y015055D02*
X023877Y015105D01*
X023977Y015105D01*
X024027Y015055D01*
X024027Y014855D01*
X023977Y014805D01*
X023877Y014805D01*
X023827Y014855D01*
X023864Y014555D02*
X023814Y014505D01*
X023814Y014455D01*
X023864Y014405D01*
X024015Y014405D01*
X024137Y014355D02*
X024137Y014305D01*
X024187Y014255D01*
X024287Y014255D01*
X024337Y014305D01*
X024287Y014405D02*
X024187Y014405D01*
X024137Y014355D01*
X024137Y014505D02*
X024187Y014555D01*
X024287Y014555D01*
X024337Y014505D01*
X024337Y014455D01*
X024287Y014405D01*
X024459Y014305D02*
X024509Y014255D01*
X024609Y014255D01*
X024659Y014305D01*
X024659Y014555D01*
X024459Y014555D02*
X024459Y014305D01*
X024509Y014005D02*
X024609Y014005D01*
X024659Y013955D01*
X024659Y013905D01*
X024609Y013855D01*
X024509Y013855D01*
X024459Y013805D01*
X024459Y013755D01*
X024509Y013705D01*
X024609Y013705D01*
X024659Y013755D01*
X024459Y013955D02*
X024509Y014005D01*
X024337Y014005D02*
X024137Y014005D01*
X024237Y014005D02*
X024237Y013705D01*
X024015Y013705D02*
X024015Y013905D01*
X023914Y014005D01*
X023814Y013905D01*
X023814Y013705D01*
X023692Y013705D02*
X023692Y014005D01*
X023542Y014005D01*
X023492Y013955D01*
X023492Y013855D01*
X023542Y013805D01*
X023692Y013805D01*
X023592Y013805D02*
X023492Y013705D01*
X023270Y013705D02*
X023270Y014005D01*
X023370Y014005D02*
X023170Y014005D01*
X023492Y014405D02*
X023692Y014405D01*
X023814Y014355D02*
X023814Y014305D01*
X023864Y014255D01*
X024015Y014255D01*
X024015Y014555D01*
X023864Y014555D01*
X023864Y014405D02*
X023814Y014355D01*
X024149Y014805D02*
X024350Y014805D01*
X024350Y015105D01*
X024149Y015105D01*
X024249Y014955D02*
X024350Y014955D01*
X024472Y014905D02*
X024472Y014855D01*
X024522Y014805D01*
X024622Y014805D01*
X024672Y014855D01*
X024622Y014955D02*
X024522Y014955D01*
X024472Y014905D01*
X024472Y015055D02*
X024522Y015105D01*
X024622Y015105D01*
X024672Y015055D01*
X024672Y015005D01*
X024622Y014955D01*
X024794Y014955D02*
X024894Y014855D01*
X024894Y014955D02*
X024994Y014855D01*
X024894Y014955D02*
X024994Y015055D01*
X024894Y015055D02*
X024794Y014955D01*
X024015Y013855D02*
X023814Y013855D01*
X023814Y013455D02*
X024015Y013455D01*
X023914Y013455D02*
X023914Y013155D01*
X024137Y013205D02*
X024137Y013455D01*
X024337Y013455D02*
X024337Y013205D01*
X024287Y013155D01*
X024187Y013155D01*
X024137Y013205D01*
X024459Y013205D02*
X024509Y013155D01*
X024609Y013155D01*
X024659Y013205D01*
X024659Y013405D01*
X024609Y013455D01*
X024509Y013455D01*
X024459Y013405D01*
X021114Y013855D02*
X020914Y013855D01*
X020792Y013705D02*
X020792Y014005D01*
X020692Y014255D02*
X020692Y014555D01*
X020792Y014555D02*
X020592Y014555D01*
X020469Y014555D02*
X020269Y014555D01*
X020369Y014555D02*
X020369Y014255D01*
X020147Y014255D02*
X019947Y014255D01*
X019825Y014255D02*
X019825Y014555D01*
X019675Y014555D01*
X019625Y014505D01*
X019625Y014405D01*
X019675Y014355D01*
X019825Y014355D01*
X019725Y014355D02*
X019625Y014255D01*
X019403Y014255D02*
X019403Y014405D01*
X019302Y014505D01*
X019302Y014555D01*
X019403Y014405D02*
X019503Y014505D01*
X019503Y014555D01*
X019515Y014805D02*
X019365Y014805D01*
X019315Y014855D01*
X019315Y014905D01*
X019365Y014955D01*
X019515Y014955D01*
X019365Y014955D02*
X019315Y015005D01*
X019315Y015055D01*
X019365Y015105D01*
X019515Y015105D01*
X019515Y014805D01*
X019947Y014555D02*
X020147Y014555D01*
X020147Y014255D01*
X020147Y014405D02*
X020047Y014405D01*
X019960Y014805D02*
X020160Y014805D01*
X020160Y015105D01*
X019960Y015105D01*
X020060Y014955D02*
X020160Y014955D01*
X020282Y014955D02*
X020482Y014955D01*
X020482Y014805D02*
X020482Y015105D01*
X020604Y015105D02*
X020804Y015105D01*
X020704Y015105D02*
X020704Y014805D01*
X020282Y014805D02*
X020282Y015105D01*
X019130Y014305D02*
X019130Y014255D01*
X019080Y014255D01*
X019080Y014305D01*
X019130Y014305D01*
X019080Y014255D02*
X019180Y014154D01*
X018765Y014005D02*
X018765Y013705D01*
X015743Y013405D02*
X015743Y013205D01*
X015693Y013155D01*
X015593Y013155D01*
X015543Y013205D01*
X015543Y013305D01*
X015643Y013305D01*
X015743Y013405D02*
X015693Y013455D01*
X015593Y013455D01*
X015543Y013405D01*
X011654Y015386D02*
X011656Y015430D01*
X011662Y015473D01*
X011672Y015516D01*
X011685Y015558D01*
X011703Y015599D01*
X011723Y015637D01*
X011748Y015674D01*
X011775Y015708D01*
X011805Y015740D01*
X011838Y015769D01*
X011874Y015795D01*
X011912Y015817D01*
X011951Y015837D01*
X011993Y015852D01*
X012035Y015864D01*
X012078Y015872D01*
X012122Y015876D01*
X012166Y015876D01*
X012210Y015872D01*
X012253Y015864D01*
X012295Y015852D01*
X012337Y015837D01*
X012376Y015817D01*
X012414Y015795D01*
X012450Y015769D01*
X012483Y015740D01*
X012513Y015708D01*
X012540Y015674D01*
X012565Y015637D01*
X012585Y015599D01*
X012603Y015558D01*
X012616Y015516D01*
X012626Y015473D01*
X012632Y015430D01*
X012634Y015386D01*
X012632Y015342D01*
X012626Y015299D01*
X012616Y015256D01*
X012603Y015214D01*
X012585Y015173D01*
X012565Y015135D01*
X012540Y015098D01*
X012513Y015064D01*
X012483Y015032D01*
X012450Y015003D01*
X012414Y014977D01*
X012376Y014955D01*
X012337Y014935D01*
X012295Y014920D01*
X012253Y014908D01*
X012210Y014900D01*
X012166Y014896D01*
X012122Y014896D01*
X012078Y014900D01*
X012035Y014908D01*
X011993Y014920D01*
X011951Y014935D01*
X011912Y014955D01*
X011874Y014977D01*
X011838Y015003D01*
X011805Y015032D01*
X011775Y015064D01*
X011748Y015098D01*
X011723Y015135D01*
X011703Y015173D01*
X011685Y015214D01*
X011672Y015256D01*
X011662Y015299D01*
X011656Y015342D01*
X011654Y015386D01*
D13*
X009057Y017669D02*
X024790Y017669D01*
X007467Y006599D02*
X007467Y004599D01*
X007465Y004576D01*
X007460Y004553D01*
X007451Y004531D01*
X007438Y004511D01*
X007423Y004493D01*
X007405Y004478D01*
X007385Y004465D01*
X007363Y004456D01*
X007340Y004451D01*
X007317Y004449D01*
X001767Y004449D01*
X001744Y004451D01*
X001721Y004456D01*
X001699Y004465D01*
X001679Y004478D01*
X001661Y004493D01*
X001646Y004511D01*
X001633Y004531D01*
X001624Y004553D01*
X001619Y004576D01*
X001617Y004599D01*
X001617Y006599D01*
X001619Y006622D01*
X001624Y006645D01*
X001633Y006667D01*
X001646Y006687D01*
X001661Y006705D01*
X001679Y006720D01*
X001699Y006733D01*
X001721Y006742D01*
X001744Y006747D01*
X001767Y006749D01*
X007317Y006749D01*
X007340Y006747D01*
X007363Y006742D01*
X007385Y006733D01*
X007405Y006720D01*
X007423Y006705D01*
X007438Y006687D01*
X007451Y006667D01*
X007460Y006645D01*
X007465Y006622D01*
X007467Y006599D01*
X005760Y005799D02*
X005762Y005852D01*
X005768Y005904D01*
X005778Y005956D01*
X005791Y006007D01*
X005809Y006057D01*
X005830Y006106D01*
X005855Y006153D01*
X005883Y006197D01*
X005914Y006240D01*
X005949Y006280D01*
X005986Y006317D01*
X006026Y006352D01*
X006069Y006383D01*
X006114Y006411D01*
X006160Y006436D01*
X006209Y006457D01*
X006259Y006475D01*
X006310Y006488D01*
X006362Y006498D01*
X006414Y006504D01*
X006467Y006506D01*
X006520Y006504D01*
X006572Y006498D01*
X006624Y006488D01*
X006675Y006475D01*
X006725Y006457D01*
X006774Y006436D01*
X006821Y006411D01*
X006865Y006383D01*
X006908Y006352D01*
X006948Y006317D01*
X006985Y006280D01*
X007020Y006240D01*
X007051Y006197D01*
X007079Y006152D01*
X007104Y006106D01*
X007125Y006057D01*
X007143Y006007D01*
X007156Y005956D01*
X007166Y005904D01*
X007172Y005852D01*
X007174Y005799D01*
X007172Y005746D01*
X007166Y005694D01*
X007156Y005642D01*
X007143Y005591D01*
X007125Y005541D01*
X007104Y005492D01*
X007079Y005445D01*
X007051Y005401D01*
X007020Y005358D01*
X006985Y005318D01*
X006948Y005281D01*
X006908Y005246D01*
X006865Y005215D01*
X006820Y005187D01*
X006774Y005162D01*
X006725Y005141D01*
X006675Y005123D01*
X006624Y005110D01*
X006572Y005100D01*
X006520Y005094D01*
X006467Y005092D01*
X006414Y005094D01*
X006362Y005100D01*
X006310Y005110D01*
X006259Y005123D01*
X006209Y005141D01*
X006160Y005162D01*
X006113Y005187D01*
X006069Y005215D01*
X006026Y005246D01*
X005986Y005281D01*
X005949Y005318D01*
X005914Y005358D01*
X005883Y005401D01*
X005855Y005446D01*
X005830Y005492D01*
X005809Y005541D01*
X005791Y005591D01*
X005778Y005642D01*
X005768Y005694D01*
X005762Y005746D01*
X005760Y005799D01*
X005047Y005919D02*
X005047Y006079D01*
X004837Y006079D01*
X004837Y005919D01*
X004907Y005919D01*
X004907Y005649D01*
X004977Y005649D01*
X004977Y005919D01*
X005047Y005919D01*
X004997Y005979D02*
X004927Y005979D01*
X004927Y006029D01*
X004426Y005999D02*
X004428Y006045D01*
X004434Y006090D01*
X004443Y006135D01*
X004457Y006179D01*
X004474Y006222D01*
X004495Y006263D01*
X004519Y006302D01*
X004546Y006339D01*
X004576Y006373D01*
X004610Y006405D01*
X004645Y006434D01*
X004683Y006460D01*
X004723Y006482D01*
X004765Y006501D01*
X004809Y006516D01*
X004853Y006528D01*
X004898Y006536D01*
X004944Y006540D01*
X004990Y006540D01*
X005036Y006536D01*
X005081Y006528D01*
X005125Y006516D01*
X005169Y006501D01*
X005211Y006482D01*
X005251Y006460D01*
X005289Y006434D01*
X005324Y006405D01*
X005358Y006373D01*
X005388Y006339D01*
X005415Y006302D01*
X005439Y006263D01*
X005460Y006222D01*
X005477Y006179D01*
X005491Y006135D01*
X005500Y006090D01*
X005506Y006045D01*
X005508Y005999D01*
X005506Y005953D01*
X005500Y005908D01*
X005491Y005863D01*
X005477Y005819D01*
X005460Y005776D01*
X005439Y005735D01*
X005415Y005696D01*
X005388Y005659D01*
X005358Y005625D01*
X005324Y005593D01*
X005289Y005564D01*
X005251Y005538D01*
X005211Y005516D01*
X005169Y005497D01*
X005125Y005482D01*
X005081Y005470D01*
X005036Y005462D01*
X004990Y005458D01*
X004944Y005458D01*
X004898Y005462D01*
X004853Y005470D01*
X004809Y005482D01*
X004765Y005497D01*
X004723Y005516D01*
X004683Y005538D01*
X004645Y005564D01*
X004610Y005593D01*
X004576Y005625D01*
X004546Y005659D01*
X004519Y005696D01*
X004495Y005735D01*
X004474Y005776D01*
X004457Y005819D01*
X004443Y005863D01*
X004434Y005908D01*
X004428Y005953D01*
X004426Y005999D01*
X004147Y006209D02*
X003187Y005769D01*
X003667Y005729D02*
X003667Y005649D01*
X003606Y005749D02*
X003590Y005761D01*
X003575Y005776D01*
X003564Y005793D01*
X003555Y005812D01*
X003550Y005832D01*
X003548Y005853D01*
X003550Y005874D01*
X003555Y005894D01*
X003564Y005913D01*
X003575Y005930D01*
X003590Y005945D01*
X003607Y005957D01*
X003625Y005966D01*
X003645Y005972D01*
X003666Y005975D01*
X003686Y005974D01*
X003707Y005969D01*
X003126Y005999D02*
X003128Y006045D01*
X003134Y006090D01*
X003143Y006135D01*
X003157Y006179D01*
X003174Y006222D01*
X003195Y006263D01*
X003219Y006302D01*
X003246Y006339D01*
X003276Y006373D01*
X003310Y006405D01*
X003345Y006434D01*
X003383Y006460D01*
X003423Y006482D01*
X003465Y006501D01*
X003509Y006516D01*
X003553Y006528D01*
X003598Y006536D01*
X003644Y006540D01*
X003690Y006540D01*
X003736Y006536D01*
X003781Y006528D01*
X003825Y006516D01*
X003869Y006501D01*
X003911Y006482D01*
X003951Y006460D01*
X003989Y006434D01*
X004024Y006405D01*
X004058Y006373D01*
X004088Y006339D01*
X004115Y006302D01*
X004139Y006263D01*
X004160Y006222D01*
X004177Y006179D01*
X004191Y006135D01*
X004200Y006090D01*
X004206Y006045D01*
X004208Y005999D01*
X004206Y005953D01*
X004200Y005908D01*
X004191Y005863D01*
X004177Y005819D01*
X004160Y005776D01*
X004139Y005735D01*
X004115Y005696D01*
X004088Y005659D01*
X004058Y005625D01*
X004024Y005593D01*
X003989Y005564D01*
X003951Y005538D01*
X003911Y005516D01*
X003869Y005497D01*
X003825Y005482D01*
X003781Y005470D01*
X003736Y005462D01*
X003690Y005458D01*
X003644Y005458D01*
X003598Y005462D01*
X003553Y005470D01*
X003509Y005482D01*
X003465Y005497D01*
X003423Y005516D01*
X003383Y005538D01*
X003345Y005564D01*
X003310Y005593D01*
X003276Y005625D01*
X003246Y005659D01*
X003219Y005696D01*
X003195Y005735D01*
X003174Y005776D01*
X003157Y005819D01*
X003143Y005863D01*
X003134Y005908D01*
X003128Y005953D01*
X003126Y005999D01*
X002727Y006009D02*
X002607Y005889D01*
X002527Y006029D01*
X002727Y006009D01*
X001826Y005999D02*
X001828Y006045D01*
X001834Y006090D01*
X001843Y006135D01*
X001857Y006179D01*
X001874Y006222D01*
X001895Y006263D01*
X001919Y006302D01*
X001946Y006339D01*
X001976Y006373D01*
X002010Y006405D01*
X002045Y006434D01*
X002083Y006460D01*
X002123Y006482D01*
X002165Y006501D01*
X002209Y006516D01*
X002253Y006528D01*
X002298Y006536D01*
X002344Y006540D01*
X002390Y006540D01*
X002436Y006536D01*
X002481Y006528D01*
X002525Y006516D01*
X002569Y006501D01*
X002611Y006482D01*
X002651Y006460D01*
X002689Y006434D01*
X002724Y006405D01*
X002758Y006373D01*
X002788Y006339D01*
X002815Y006302D01*
X002839Y006263D01*
X002860Y006222D01*
X002877Y006179D01*
X002891Y006135D01*
X002900Y006090D01*
X002906Y006045D01*
X002908Y005999D01*
X002906Y005953D01*
X002900Y005908D01*
X002891Y005863D01*
X002877Y005819D01*
X002860Y005776D01*
X002839Y005735D01*
X002815Y005696D01*
X002788Y005659D01*
X002758Y005625D01*
X002724Y005593D01*
X002689Y005564D01*
X002651Y005538D01*
X002611Y005516D01*
X002569Y005497D01*
X002525Y005482D01*
X002481Y005470D01*
X002436Y005462D01*
X002390Y005458D01*
X002344Y005458D01*
X002298Y005462D01*
X002253Y005470D01*
X002209Y005482D01*
X002165Y005497D01*
X002123Y005516D01*
X002083Y005538D01*
X002045Y005564D01*
X002010Y005593D01*
X001976Y005625D01*
X001946Y005659D01*
X001919Y005696D01*
X001895Y005735D01*
X001874Y005776D01*
X001857Y005819D01*
X001843Y005863D01*
X001834Y005908D01*
X001828Y005953D01*
X001826Y005999D01*
X002487Y005710D02*
X002456Y005695D01*
X002423Y005683D01*
X002389Y005676D01*
X002354Y005672D01*
X002320Y005671D01*
X002285Y005675D01*
X002251Y005683D01*
X002218Y005694D01*
X002187Y005709D01*
X002157Y005727D01*
X002130Y005749D01*
X002105Y005773D01*
X002083Y005800D01*
X002064Y005830D01*
X002049Y005861D01*
X002037Y005893D01*
X002029Y005927D01*
X002025Y005962D01*
X002024Y005997D01*
X002028Y006031D01*
X002035Y006065D01*
X002046Y006098D01*
X002061Y006130D01*
X002079Y006160D01*
X002100Y006187D01*
X002124Y006212D01*
X002151Y006234D01*
X002180Y006253D01*
X002211Y006269D01*
X002244Y006281D01*
X002278Y006289D01*
X002312Y006294D01*
X002347Y006295D01*
X002382Y006292D01*
X002416Y006285D01*
X002449Y006274D01*
X002480Y006260D01*
X002510Y006242D01*
X002538Y006221D01*
X002563Y006197D01*
X002586Y006170D01*
X002605Y006141D01*
X002621Y006110D01*
X002633Y006078D01*
X002642Y006044D01*
X002647Y006010D01*
X003567Y006149D02*
X003583Y006162D01*
X003601Y006173D01*
X003620Y006180D01*
X003641Y006184D01*
X003661Y006183D01*
X003682Y006180D01*
X003701Y006172D01*
X003719Y006161D01*
X003734Y006147D01*
X003747Y006131D01*
X003756Y006113D01*
X003762Y006093D01*
X003765Y006072D01*
X003764Y006052D01*
X003759Y006032D01*
X003750Y006013D01*
X003739Y005996D01*
X003724Y005981D01*
X003707Y005969D01*
X003787Y005789D02*
X003772Y005772D01*
X003755Y005757D01*
X003736Y005746D01*
X003715Y005737D01*
X003693Y005732D01*
X003671Y005731D01*
X003649Y005734D01*
X003627Y005740D01*
X003607Y005749D01*
X003667Y006209D02*
X003667Y006289D01*
X004897Y006279D02*
X004899Y006292D01*
X004904Y006305D01*
X004913Y006316D01*
X004924Y006323D01*
X004937Y006328D01*
X004950Y006329D01*
X004964Y006326D01*
X004976Y006320D01*
X004986Y006311D01*
X004993Y006299D01*
X004997Y006286D01*
X004997Y006272D01*
X004993Y006259D01*
X004986Y006247D01*
X004976Y006238D01*
X004964Y006232D01*
X004950Y006229D01*
X004937Y006230D01*
X004924Y006235D01*
X004913Y006242D01*
X004904Y006253D01*
X004899Y006266D01*
X004897Y006279D01*
X004997Y006049D02*
X004997Y005979D01*
X005007Y006049D02*
X004997Y006049D01*
X005667Y005249D02*
X001617Y005249D01*
X005667Y005249D02*
X005698Y005199D01*
X005732Y005151D01*
X005769Y005106D01*
X005808Y005063D01*
X005851Y005022D01*
X005896Y004985D01*
X005943Y004950D01*
X005992Y004918D01*
X006044Y004890D01*
X006097Y004865D01*
X006151Y004843D01*
X006207Y004824D01*
X006263Y004810D01*
X006321Y004799D01*
X006379Y004791D01*
X006438Y004787D01*
X006496Y004787D01*
X006555Y004791D01*
X006613Y004799D01*
X006671Y004810D01*
X006727Y004824D01*
X006783Y004843D01*
X006837Y004865D01*
X006890Y004890D01*
X006942Y004918D01*
X006991Y004950D01*
X007038Y004985D01*
X007083Y005022D01*
X007126Y005063D01*
X007165Y005106D01*
X007202Y005151D01*
X007236Y005199D01*
X007267Y005249D01*
X007467Y005249D01*
D14*
X009769Y016201D02*
X012519Y016201D01*
D15*
X018627Y008127D02*
X018627Y007427D01*
D16*
X012953Y014727D02*
X012953Y014971D01*
X012952Y014971D02*
X012950Y014991D01*
X012945Y015010D01*
X012936Y015028D01*
X012924Y015044D01*
X012909Y015057D01*
X012892Y015068D01*
X012874Y015075D01*
X012854Y015079D01*
X012834Y015079D01*
X012814Y015075D01*
X012796Y015068D01*
X012779Y015057D01*
X012764Y015044D01*
X012752Y015028D01*
X012743Y015010D01*
X012738Y014991D01*
X012736Y014971D01*
X012736Y014727D01*
X012738Y014707D01*
X012743Y014688D01*
X012752Y014670D01*
X012764Y014654D01*
X012779Y014641D01*
X012796Y014630D01*
X012814Y014623D01*
X012834Y014619D01*
X012854Y014619D01*
X012874Y014623D01*
X012892Y014630D01*
X012909Y014641D01*
X012924Y014654D01*
X012936Y014670D01*
X012945Y014688D01*
X012950Y014707D01*
X012952Y014727D01*
X012953Y016223D02*
X012953Y016467D01*
X012952Y016467D02*
X012950Y016487D01*
X012945Y016506D01*
X012936Y016524D01*
X012924Y016540D01*
X012909Y016553D01*
X012892Y016564D01*
X012874Y016571D01*
X012854Y016575D01*
X012834Y016575D01*
X012814Y016571D01*
X012796Y016564D01*
X012779Y016553D01*
X012764Y016540D01*
X012752Y016524D01*
X012743Y016506D01*
X012738Y016487D01*
X012736Y016467D01*
X012736Y016223D01*
X012738Y016203D01*
X012743Y016184D01*
X012752Y016166D01*
X012764Y016150D01*
X012779Y016137D01*
X012796Y016126D01*
X012814Y016119D01*
X012834Y016115D01*
X012854Y016115D01*
X012874Y016119D01*
X012892Y016126D01*
X012909Y016137D01*
X012924Y016150D01*
X012936Y016166D01*
X012945Y016184D01*
X012950Y016203D01*
X012952Y016223D01*
X009551Y016223D02*
X009551Y016467D01*
X009549Y016487D01*
X009544Y016506D01*
X009535Y016524D01*
X009523Y016540D01*
X009508Y016553D01*
X009491Y016564D01*
X009473Y016571D01*
X009453Y016575D01*
X009433Y016575D01*
X009413Y016571D01*
X009395Y016564D01*
X009378Y016553D01*
X009363Y016540D01*
X009351Y016524D01*
X009342Y016506D01*
X009337Y016487D01*
X009335Y016467D01*
X009335Y016223D01*
X009337Y016203D01*
X009342Y016184D01*
X009351Y016166D01*
X009363Y016150D01*
X009378Y016137D01*
X009395Y016126D01*
X009413Y016119D01*
X009433Y016115D01*
X009453Y016115D01*
X009473Y016119D01*
X009491Y016126D01*
X009508Y016137D01*
X009523Y016150D01*
X009535Y016166D01*
X009544Y016184D01*
X009549Y016203D01*
X009551Y016223D01*
X009551Y014971D02*
X009551Y014727D01*
X009549Y014707D01*
X009544Y014688D01*
X009535Y014670D01*
X009523Y014654D01*
X009508Y014641D01*
X009491Y014630D01*
X009473Y014623D01*
X009453Y014619D01*
X009433Y014619D01*
X009413Y014623D01*
X009395Y014630D01*
X009378Y014641D01*
X009363Y014654D01*
X009351Y014670D01*
X009342Y014688D01*
X009337Y014707D01*
X009335Y014727D01*
X009335Y014971D01*
X009337Y014991D01*
X009342Y015010D01*
X009351Y015028D01*
X009363Y015044D01*
X009378Y015057D01*
X009395Y015068D01*
X009413Y015075D01*
X009433Y015079D01*
X009453Y015079D01*
X009473Y015075D01*
X009491Y015068D01*
X009508Y015057D01*
X009523Y015044D01*
X009535Y015028D01*
X009544Y015010D01*
X009549Y014991D01*
X009551Y014971D01*
D17*
X011684Y005816D02*
X011684Y005566D01*
X011484Y005566D01*
X011684Y005566D02*
X011684Y005316D01*
X006567Y005649D02*
X006587Y005627D01*
X006610Y005608D01*
X006635Y005592D01*
X006662Y005579D01*
X006690Y005570D01*
X006720Y005564D01*
X006749Y005562D01*
X006779Y005564D01*
X006808Y005569D01*
X006837Y005578D01*
X006864Y005591D01*
X006889Y005607D01*
X006912Y005626D01*
X006932Y005648D01*
X006950Y005672D01*
X006964Y005698D01*
X006975Y005726D01*
X006983Y005755D01*
X006987Y005784D01*
X006987Y005814D01*
X006983Y005843D01*
X006975Y005872D01*
X006964Y005900D01*
X006950Y005926D01*
X006932Y005950D01*
X006912Y005972D01*
X006889Y005991D01*
X006864Y006007D01*
X006837Y006020D01*
X006808Y006029D01*
X006779Y006034D01*
X006749Y006036D01*
X006720Y006034D01*
X006690Y006028D01*
X006662Y006019D01*
X006635Y006006D01*
X006610Y005990D01*
X006587Y005971D01*
X006567Y005949D01*
X005967Y005949D02*
X005987Y005971D01*
X006010Y005990D01*
X006035Y006006D01*
X006062Y006019D01*
X006090Y006028D01*
X006120Y006034D01*
X006149Y006036D01*
X006179Y006034D01*
X006208Y006029D01*
X006237Y006020D01*
X006264Y006007D01*
X006289Y005991D01*
X006312Y005972D01*
X006332Y005950D01*
X006350Y005926D01*
X006364Y005900D01*
X006375Y005872D01*
X006383Y005843D01*
X006387Y005814D01*
X006387Y005784D01*
X006383Y005755D01*
X006375Y005726D01*
X006364Y005698D01*
X006350Y005672D01*
X006332Y005648D01*
X006312Y005626D01*
X006289Y005607D01*
X006264Y005591D01*
X006237Y005578D01*
X006208Y005569D01*
X006179Y005564D01*
X006149Y005562D01*
X006120Y005564D01*
X006090Y005570D01*
X006062Y005579D01*
X006035Y005592D01*
X006010Y005608D01*
X005987Y005627D01*
X005967Y005649D01*
D18*
X011144Y013646D02*
X011144Y015146D01*
X010644Y014646D01*
X011144Y015146D02*
X011644Y014646D01*
D19*
X014012Y014529D02*
X014030Y014514D01*
X014052Y014503D01*
X014075Y014496D01*
X014111Y014494D01*
X014139Y014501D01*
X014165Y014511D01*
X014189Y014523D01*
X014488Y014736D01*
X014394Y014806D01*
X014012Y014529D01*
X014476Y014820D02*
X014469Y014834D01*
X014481Y014842D02*
X014483Y014855D01*
X014489Y014867D01*
X014498Y014876D01*
X014509Y014883D01*
X014522Y014886D01*
X014535Y014885D01*
X014547Y014880D01*
X014557Y014872D01*
X014565Y014861D01*
X014569Y014849D01*
X014569Y014835D01*
X014565Y014823D01*
X014557Y014812D01*
X014547Y014804D01*
X014535Y014799D01*
X014522Y014798D01*
X014509Y014801D01*
X014498Y014808D01*
X014489Y014817D01*
X014483Y014829D01*
X014481Y014842D01*
X014504Y014893D02*
X014521Y014902D01*
X014523Y014911D02*
X014213Y015139D01*
X014171Y015164D01*
X014139Y015176D01*
X014108Y015182D01*
X014076Y015181D01*
X014039Y015168D01*
X014012Y015148D01*
X014588Y014730D01*
X014636Y014831D02*
X014635Y014841D01*
X014638Y014850D01*
X014642Y014850D01*
X014679Y014878D01*
X014636Y014831D02*
X014685Y014797D01*
X014584Y014944D02*
X014532Y014905D01*
X014612Y015096D02*
X014614Y015119D01*
X014620Y015141D01*
X014629Y015163D01*
X014642Y015182D01*
X014657Y015199D01*
X014675Y015213D01*
X014696Y015224D01*
X014718Y015232D01*
X014740Y015236D01*
X014764Y015236D01*
X014786Y015232D01*
X014808Y015224D01*
X014829Y015213D01*
X014847Y015199D01*
X014862Y015182D01*
X014875Y015163D01*
X014884Y015141D01*
X014890Y015119D01*
X014892Y015096D01*
X014890Y015073D01*
X014884Y015051D01*
X014875Y015029D01*
X014862Y015010D01*
X014847Y014993D01*
X014829Y014979D01*
X014808Y014968D01*
X014786Y014960D01*
X014764Y014956D01*
X014740Y014956D01*
X014718Y014960D01*
X014696Y014968D01*
X014675Y014979D01*
X014657Y014993D01*
X014642Y015010D01*
X014629Y015029D01*
X014620Y015051D01*
X014614Y015073D01*
X014612Y015096D01*
X014535Y015097D02*
X014537Y015126D01*
X014543Y015155D01*
X014552Y015182D01*
X014565Y015208D01*
X014582Y015232D01*
X014601Y015254D01*
X014624Y015273D01*
X014648Y015288D01*
X014675Y015300D01*
X014702Y015309D01*
X014731Y015314D01*
X014760Y015315D01*
X014789Y015312D01*
X014818Y015305D01*
X014845Y015295D01*
X014870Y015281D01*
X014894Y015263D01*
X014915Y015243D01*
X014933Y015220D01*
X014948Y015195D01*
X014959Y015169D01*
X014967Y015140D01*
X014971Y015112D01*
X014971Y015082D01*
X014967Y015054D01*
X014959Y015025D01*
X014948Y014999D01*
X014933Y014974D01*
X014915Y014951D01*
X014894Y014931D01*
X014870Y014913D01*
X014845Y014899D01*
X014818Y014889D01*
X014789Y014882D01*
X014760Y014879D01*
X014731Y014880D01*
X014702Y014885D01*
X014675Y014894D01*
X014648Y014906D01*
X014624Y014921D01*
X014601Y014940D01*
X014582Y014962D01*
X014565Y014986D01*
X014552Y015012D01*
X014543Y015039D01*
X014537Y015068D01*
X014535Y015097D01*
X014613Y014580D02*
X014615Y014603D01*
X014621Y014625D01*
X014630Y014647D01*
X014643Y014666D01*
X014658Y014683D01*
X014676Y014697D01*
X014697Y014708D01*
X014719Y014716D01*
X014741Y014720D01*
X014765Y014720D01*
X014787Y014716D01*
X014809Y014708D01*
X014830Y014697D01*
X014848Y014683D01*
X014863Y014666D01*
X014876Y014647D01*
X014885Y014625D01*
X014891Y014603D01*
X014893Y014580D01*
X014891Y014557D01*
X014885Y014535D01*
X014876Y014513D01*
X014863Y014494D01*
X014848Y014477D01*
X014830Y014463D01*
X014809Y014452D01*
X014787Y014444D01*
X014765Y014440D01*
X014741Y014440D01*
X014719Y014444D01*
X014697Y014452D01*
X014676Y014463D01*
X014658Y014477D01*
X014643Y014494D01*
X014630Y014513D01*
X014621Y014535D01*
X014615Y014557D01*
X014613Y014580D01*
X014534Y014579D02*
X014536Y014608D01*
X014542Y014637D01*
X014551Y014664D01*
X014564Y014690D01*
X014581Y014714D01*
X014600Y014736D01*
X014623Y014755D01*
X014647Y014770D01*
X014674Y014782D01*
X014701Y014791D01*
X014730Y014796D01*
X014759Y014797D01*
X014788Y014794D01*
X014817Y014787D01*
X014844Y014777D01*
X014869Y014763D01*
X014893Y014745D01*
X014914Y014725D01*
X014932Y014702D01*
X014947Y014677D01*
X014958Y014651D01*
X014966Y014622D01*
X014970Y014594D01*
X014970Y014564D01*
X014966Y014536D01*
X014958Y014507D01*
X014947Y014481D01*
X014932Y014456D01*
X014914Y014433D01*
X014893Y014413D01*
X014869Y014395D01*
X014844Y014381D01*
X014817Y014371D01*
X014788Y014364D01*
X014759Y014361D01*
X014730Y014362D01*
X014701Y014367D01*
X014674Y014376D01*
X014647Y014388D01*
X014623Y014403D01*
X014600Y014422D01*
X014581Y014444D01*
X014564Y014468D01*
X014551Y014494D01*
X014542Y014521D01*
X014536Y014550D01*
X014534Y014579D01*
X012252Y010182D02*
X012262Y010175D01*
X012270Y010162D01*
X012270Y010147D01*
X012265Y010137D01*
X012255Y010127D01*
X012245Y010127D01*
X012235Y010157D01*
X012245Y010167D01*
X012255Y010160D01*
X012252Y010142D01*
X012245Y010130D02*
X012237Y010127D01*
X012227Y010132D01*
X012222Y010140D01*
X012217Y010150D01*
X012217Y010157D01*
X012220Y010167D01*
X012230Y010177D01*
X012237Y010182D01*
X012252Y010182D01*
X012267Y010080D02*
X012267Y009825D01*
X012222Y009825D01*
X012222Y010080D01*
X012267Y010080D01*
X012255Y010067D02*
X012250Y009837D01*
X012235Y009837D01*
X012240Y010067D01*
X012355Y010012D02*
X012370Y010035D01*
X012390Y010057D01*
X012410Y010070D01*
X012437Y010082D01*
X012452Y010085D01*
X012495Y010085D01*
X012527Y010075D01*
X012550Y010062D01*
X012567Y010045D01*
X012582Y010025D01*
X012592Y010007D01*
X012600Y009975D01*
X012600Y009930D01*
X012595Y009910D01*
X012585Y009885D01*
X012570Y009862D01*
X012547Y009840D01*
X012497Y009820D01*
X012455Y009820D01*
X012407Y009835D01*
X012390Y009840D01*
X012390Y009795D01*
X012405Y009777D01*
X012425Y009760D01*
X012445Y009750D01*
X012465Y009745D01*
X012495Y009745D01*
X012545Y009757D01*
X012555Y009717D01*
X012492Y009700D01*
X012462Y009700D01*
X012427Y009705D01*
X012405Y009717D01*
X012380Y009735D01*
X012360Y009760D01*
X012350Y009785D01*
X012342Y009812D01*
X012342Y009970D01*
X012347Y009990D01*
X012355Y010012D01*
X012362Y009990D02*
X012397Y010045D01*
X012440Y010065D01*
X012485Y010070D01*
X012537Y010050D01*
X012580Y010000D01*
X012582Y009925D01*
X012570Y009892D01*
X012537Y009847D01*
X012470Y009827D01*
X012390Y009850D01*
X012390Y009872D01*
X012455Y009842D01*
X012512Y009850D01*
X012552Y009885D01*
X012567Y009937D01*
X012560Y010005D01*
X012530Y010040D01*
X012495Y010055D01*
X012442Y010050D01*
X012402Y010037D01*
X012377Y009990D01*
X012377Y009982D02*
X012375Y009787D01*
X012422Y009737D01*
X012480Y009730D01*
X012535Y009742D01*
X012547Y009732D02*
X012480Y009715D01*
X012420Y009722D01*
X012377Y009762D01*
X012360Y009800D01*
X012360Y009980D01*
X012377Y009982D01*
X012390Y009982D02*
X012390Y009890D01*
X012385Y009892D02*
X012412Y009875D01*
X012445Y009862D01*
X012452Y009860D01*
X012495Y009860D01*
X012517Y009870D01*
X012535Y009890D01*
X012552Y009922D01*
X012555Y009987D01*
X012552Y009985D02*
X012545Y010000D01*
X012532Y010015D01*
X012520Y010027D01*
X012502Y010040D01*
X012485Y010042D01*
X012447Y010042D01*
X012427Y010032D01*
X012407Y010017D01*
X012395Y009997D01*
X012390Y009982D01*
X012140Y009827D02*
X012140Y010197D01*
X012095Y010197D01*
X012095Y009825D01*
X012140Y009825D01*
X012125Y009835D02*
X012127Y010185D01*
X012107Y010185D01*
X012107Y009835D01*
X012007Y009867D02*
X011992Y009845D01*
X011970Y009832D01*
X011947Y009827D01*
X011927Y009822D01*
X011910Y009835D01*
X011947Y009842D01*
X011980Y009852D01*
X011995Y009880D01*
X012007Y009910D01*
X012007Y010135D01*
X011987Y010137D01*
X011990Y009907D01*
X011967Y009862D01*
X011907Y009845D01*
X011897Y009862D02*
X011932Y009862D01*
X011947Y009870D01*
X011957Y009877D01*
X011965Y009885D01*
X011972Y009900D01*
X011972Y010037D01*
X011965Y010040D01*
X011895Y010040D01*
X011895Y010082D01*
X011975Y010082D01*
X011972Y010090D01*
X011972Y010150D01*
X012020Y010150D01*
X012020Y009902D01*
X012007Y009867D01*
X011922Y009822D02*
X011897Y009822D01*
X011897Y009862D01*
X011837Y009900D02*
X011845Y009925D01*
X011847Y009950D01*
X011842Y009980D01*
X011835Y010007D01*
X011810Y010045D01*
X011785Y010065D01*
X011757Y010080D01*
X011740Y010085D01*
X011692Y010085D01*
X011665Y010077D01*
X011642Y010065D01*
X011625Y010050D01*
X011607Y010030D01*
X011592Y010007D01*
X011762Y009912D01*
X011760Y009912D02*
X011780Y009942D01*
X011665Y010010D01*
X011667Y010022D01*
X011675Y010035D01*
X011687Y010042D01*
X011740Y010042D01*
X011762Y010030D01*
X011782Y010010D01*
X011790Y009997D01*
X011797Y009987D01*
X011800Y009957D01*
X011800Y009935D01*
X011790Y009910D01*
X011777Y009885D01*
X011757Y009872D01*
X011742Y009865D01*
X011735Y009860D01*
X011695Y009860D01*
X011680Y009867D01*
X011662Y009880D01*
X011647Y009895D01*
X011637Y009912D01*
X011630Y009942D01*
X011585Y009935D01*
X011595Y009902D01*
X011610Y009870D01*
X011627Y009850D01*
X011645Y009837D01*
X011665Y009827D01*
X011687Y009820D01*
X011737Y009820D01*
X011757Y009825D01*
X011782Y009835D01*
X011802Y009850D01*
X011820Y009870D01*
X011837Y009900D01*
X011830Y009925D02*
X011800Y009862D01*
X011740Y009832D01*
X011685Y009832D01*
X011627Y009870D01*
X011602Y009927D01*
X011620Y009925D02*
X011635Y009882D01*
X011682Y009852D01*
X011697Y009845D01*
X011740Y009845D01*
X011787Y009870D01*
X011815Y009932D01*
X011810Y009992D01*
X011790Y010027D01*
X011747Y010052D01*
X011695Y010055D01*
X011667Y010042D01*
X011655Y010025D01*
X011650Y010007D01*
X011762Y009942D01*
X011760Y009927D01*
X011612Y010012D01*
X011647Y010052D01*
X011635Y010012D01*
X011647Y010035D02*
X011687Y010072D01*
X011705Y010072D01*
X011742Y010072D02*
X011805Y010035D01*
X011822Y009992D01*
X011830Y009925D01*
X011907Y010050D02*
X011907Y010067D01*
X011977Y010067D01*
X011980Y010052D02*
X011907Y010050D01*
X011742Y010070D02*
X011655Y010057D01*
X011530Y010037D02*
X011532Y010020D01*
X011532Y010005D01*
X011525Y009987D01*
X011512Y009970D01*
X011475Y009945D01*
X011397Y009912D01*
X011387Y009900D01*
X011382Y009887D01*
X011392Y009875D01*
X011405Y009865D01*
X011532Y009865D01*
X011532Y009825D01*
X011417Y009825D01*
X011377Y009832D01*
X011357Y009845D01*
X011342Y009867D01*
X011342Y009910D01*
X011350Y009930D01*
X011367Y009945D01*
X011475Y009992D01*
X011485Y010002D01*
X011487Y010007D01*
X011487Y010025D01*
X011482Y010035D01*
X011480Y010037D01*
X011472Y010040D01*
X011355Y010040D01*
X011355Y010080D01*
X011467Y010080D01*
X011490Y010075D01*
X011505Y010067D01*
X011520Y010052D01*
X011530Y010037D01*
X011510Y010047D02*
X011515Y010000D01*
X011490Y009970D01*
X011385Y009922D01*
X011375Y009892D01*
X011370Y009872D01*
X011395Y009855D01*
X011405Y009850D02*
X011520Y009850D01*
X011525Y009847D01*
X011497Y009845D01*
X011522Y009837D02*
X011395Y009840D01*
X011405Y009850D01*
X011387Y009840D02*
X011357Y009870D01*
X011365Y009920D01*
X011387Y009942D01*
X011492Y009987D01*
X011505Y010007D01*
X011495Y010037D01*
X011480Y010052D01*
X011370Y010055D01*
X011367Y010065D01*
X011480Y010062D01*
X011510Y010047D01*
X011530Y009827D02*
X011532Y009825D01*
X011285Y009927D02*
X011272Y009890D01*
X011252Y009860D01*
X011235Y009842D01*
X011212Y009832D01*
X011182Y009820D01*
X011140Y009820D01*
X011092Y009835D01*
X011087Y009837D01*
X011080Y009837D01*
X011070Y009825D01*
X011062Y009825D01*
X011057Y009825D02*
X011027Y009825D01*
X011027Y009965D01*
X011032Y009990D01*
X011040Y010010D01*
X011055Y010037D01*
X011075Y010057D01*
X011105Y010075D01*
X011125Y010082D01*
X011140Y010085D01*
X011180Y010085D01*
X011205Y010077D01*
X011227Y010067D01*
X011250Y010047D01*
X011267Y010025D01*
X011277Y010002D01*
X011285Y009977D01*
X011285Y009927D01*
X011267Y009917D02*
X011227Y009855D01*
X011180Y009832D01*
X011137Y009837D01*
X011095Y009855D01*
X011075Y009847D01*
X011060Y009837D01*
X011060Y009847D01*
X011090Y009865D01*
X011055Y009855D01*
X011065Y009877D01*
X011055Y009877D01*
X011062Y009977D01*
X011090Y010035D01*
X011147Y010055D01*
X011205Y010047D01*
X011245Y010010D01*
X011255Y009935D01*
X011240Y009892D01*
X011210Y009857D01*
X011137Y009842D01*
X011132Y009857D02*
X011112Y009865D01*
X011095Y009877D01*
X011092Y009880D01*
X011085Y009872D01*
X011077Y009877D02*
X011075Y009880D01*
X011072Y009885D01*
X011075Y009980D01*
X011080Y009992D01*
X011090Y010012D01*
X011107Y010030D01*
X011127Y010040D01*
X011135Y010042D01*
X011177Y010042D01*
X011200Y010035D01*
X011217Y010022D01*
X011230Y010005D01*
X011240Y009987D01*
X011240Y009917D01*
X011230Y009902D01*
X011212Y009877D01*
X011192Y009862D01*
X011175Y009857D01*
X011132Y009857D01*
X011040Y009832D02*
X011045Y009970D01*
X011067Y010030D01*
X011097Y010052D01*
X011142Y010067D01*
X011187Y010067D01*
X011227Y010050D01*
X011262Y010002D01*
X011270Y009970D01*
X011267Y009917D01*
X010940Y009860D02*
X010940Y009840D01*
X010937Y009832D01*
X010927Y009822D01*
X010917Y009820D01*
X010900Y009837D01*
X010897Y009855D01*
X010910Y009865D01*
X010922Y009855D01*
X010920Y009840D01*
X010912Y009847D01*
X010912Y009820D02*
X010902Y009820D01*
X010895Y009822D01*
X010885Y009830D01*
X010882Y009837D01*
X010882Y009855D01*
X010887Y009865D01*
X010900Y009877D01*
X010922Y009877D01*
X010932Y009870D01*
X010940Y009860D01*
X010800Y009910D02*
X010787Y009885D01*
X010775Y009870D01*
X010760Y009855D01*
X010740Y009840D01*
X010722Y009832D01*
X010702Y009827D01*
X010675Y009822D01*
X010632Y009822D01*
X010632Y009865D01*
X010682Y009865D01*
X010700Y009870D01*
X010722Y009880D01*
X010740Y009897D01*
X010752Y009915D01*
X010757Y009927D01*
X010760Y009932D01*
X010760Y009972D01*
X010750Y009987D01*
X010737Y010010D01*
X010715Y010025D01*
X010700Y010032D01*
X010675Y010037D01*
X010632Y010037D01*
X010632Y010080D01*
X010682Y010080D01*
X010705Y010077D01*
X010727Y010070D01*
X010752Y010055D01*
X010770Y010037D01*
X010782Y010022D01*
X010792Y010002D01*
X010800Y009982D01*
X010805Y009965D01*
X010805Y009935D01*
X010800Y009910D01*
X010787Y009920D02*
X010787Y009987D01*
X010750Y010037D01*
X010702Y010065D01*
X010647Y010067D01*
X010647Y010052D01*
X010702Y010050D01*
X010747Y010017D01*
X010772Y009982D01*
X010770Y009917D01*
X010740Y009875D01*
X010702Y009855D01*
X010647Y009850D01*
X010642Y009835D02*
X010710Y009840D01*
X010760Y009872D01*
X010787Y009920D01*
X010677Y009822D02*
X010675Y009822D01*
X010567Y009890D02*
X010557Y009872D01*
X010540Y009855D01*
X010520Y009837D01*
X010500Y009827D01*
X010475Y009820D01*
X010465Y009820D01*
X010462Y009820D02*
X010430Y009820D01*
X010407Y009825D01*
X010382Y009835D01*
X010360Y009855D01*
X010342Y009880D01*
X010330Y009897D01*
X010325Y009922D01*
X010325Y009980D01*
X010332Y010007D01*
X010342Y010027D01*
X010380Y010065D01*
X010407Y010080D01*
X010435Y010085D01*
X010477Y010085D01*
X010505Y010075D01*
X010532Y010057D01*
X010555Y010035D01*
X010570Y010012D01*
X010580Y009975D01*
X010580Y009927D01*
X010575Y009910D01*
X010567Y009890D01*
X010525Y009905D02*
X010512Y009885D01*
X010495Y009870D01*
X010477Y009860D01*
X010437Y009860D01*
X010445Y009857D02*
X010425Y009862D01*
X010405Y009872D01*
X010392Y009885D01*
X010380Y009902D01*
X010375Y009915D01*
X010372Y009925D01*
X010372Y009977D01*
X010380Y009997D01*
X010392Y010017D01*
X010407Y010032D01*
X010422Y010040D01*
X010430Y010042D01*
X010470Y010042D01*
X010487Y010037D01*
X010507Y010025D01*
X010517Y010012D01*
X010530Y009992D01*
X010535Y009977D01*
X010535Y009927D01*
X010525Y009905D01*
X010260Y009822D02*
X010260Y009995D01*
X010250Y010030D01*
X010235Y010055D01*
X010212Y010072D01*
X010180Y010085D01*
X010140Y010085D01*
X010120Y010077D01*
X010095Y010062D01*
X010085Y010052D01*
X010075Y010052D01*
X010062Y010060D01*
X010047Y010072D01*
X010030Y010082D01*
X010017Y010085D01*
X009982Y010085D01*
X009965Y010080D01*
X009945Y010070D01*
X009927Y010055D01*
X009915Y010040D01*
X009905Y010017D01*
X009900Y010002D01*
X009897Y009980D01*
X009897Y009825D01*
X009942Y009825D01*
X009942Y009997D01*
X009950Y010015D01*
X009960Y010030D01*
X009975Y010035D01*
X009985Y010040D01*
X010025Y010040D01*
X010042Y010025D01*
X010052Y010010D01*
X010055Y010005D01*
X010055Y009825D01*
X010100Y009825D01*
X010100Y010005D01*
X010112Y010022D01*
X010125Y010032D01*
X010145Y010042D01*
X010175Y010042D01*
X010192Y010035D01*
X010202Y010025D01*
X010210Y010012D01*
X010217Y009997D01*
X010217Y009822D01*
X010260Y009822D01*
X004721Y011603D02*
X004145Y012021D01*
X004245Y012015D02*
X004544Y012228D01*
X004568Y012240D01*
X004594Y012250D01*
X004622Y012257D01*
X004658Y012255D01*
X004681Y012248D01*
X004703Y012237D01*
X004721Y012222D01*
X004339Y011945D01*
X004245Y012015D01*
X004257Y011931D02*
X004264Y011917D01*
X004164Y011909D02*
X004166Y011922D01*
X004172Y011934D01*
X004181Y011943D01*
X004192Y011950D01*
X004205Y011953D01*
X004218Y011952D01*
X004230Y011947D01*
X004240Y011939D01*
X004248Y011928D01*
X004252Y011916D01*
X004252Y011902D01*
X004248Y011890D01*
X004240Y011879D01*
X004230Y011871D01*
X004218Y011866D01*
X004205Y011865D01*
X004192Y011868D01*
X004181Y011875D01*
X004172Y011884D01*
X004166Y011896D01*
X004164Y011909D01*
X004098Y011910D02*
X004095Y011901D01*
X004091Y011901D01*
X004054Y011873D01*
X004098Y011910D02*
X004097Y011920D01*
X004048Y011954D01*
X004149Y011807D02*
X004201Y011846D01*
X004210Y011840D02*
X004520Y011612D01*
X004562Y011587D01*
X004594Y011575D01*
X004625Y011569D01*
X004657Y011570D01*
X004694Y011583D01*
X004721Y011603D01*
X004229Y011858D02*
X004212Y011849D01*
X003841Y011655D02*
X003843Y011678D01*
X003849Y011700D01*
X003858Y011722D01*
X003871Y011741D01*
X003886Y011758D01*
X003904Y011772D01*
X003925Y011783D01*
X003947Y011791D01*
X003969Y011795D01*
X003993Y011795D01*
X004015Y011791D01*
X004037Y011783D01*
X004058Y011772D01*
X004076Y011758D01*
X004091Y011741D01*
X004104Y011722D01*
X004113Y011700D01*
X004119Y011678D01*
X004121Y011655D01*
X004119Y011632D01*
X004113Y011610D01*
X004104Y011588D01*
X004091Y011569D01*
X004076Y011552D01*
X004058Y011538D01*
X004037Y011527D01*
X004015Y011519D01*
X003993Y011515D01*
X003969Y011515D01*
X003947Y011519D01*
X003925Y011527D01*
X003904Y011538D01*
X003886Y011552D01*
X003871Y011569D01*
X003858Y011588D01*
X003849Y011610D01*
X003843Y011632D01*
X003841Y011655D01*
X003762Y011654D02*
X003764Y011683D01*
X003770Y011712D01*
X003779Y011739D01*
X003792Y011765D01*
X003809Y011789D01*
X003828Y011811D01*
X003851Y011830D01*
X003875Y011845D01*
X003902Y011857D01*
X003929Y011866D01*
X003958Y011871D01*
X003987Y011872D01*
X004016Y011869D01*
X004045Y011862D01*
X004072Y011852D01*
X004097Y011838D01*
X004121Y011820D01*
X004142Y011800D01*
X004160Y011777D01*
X004175Y011752D01*
X004186Y011726D01*
X004194Y011697D01*
X004198Y011669D01*
X004198Y011639D01*
X004194Y011611D01*
X004186Y011582D01*
X004175Y011556D01*
X004160Y011531D01*
X004142Y011508D01*
X004121Y011488D01*
X004097Y011470D01*
X004072Y011456D01*
X004045Y011446D01*
X004016Y011439D01*
X003987Y011436D01*
X003958Y011437D01*
X003929Y011442D01*
X003902Y011451D01*
X003875Y011463D01*
X003851Y011478D01*
X003828Y011497D01*
X003809Y011519D01*
X003792Y011543D01*
X003779Y011569D01*
X003770Y011596D01*
X003764Y011625D01*
X003762Y011654D01*
X003840Y012171D02*
X003842Y012194D01*
X003848Y012216D01*
X003857Y012238D01*
X003870Y012257D01*
X003885Y012274D01*
X003903Y012288D01*
X003924Y012299D01*
X003946Y012307D01*
X003968Y012311D01*
X003992Y012311D01*
X004014Y012307D01*
X004036Y012299D01*
X004057Y012288D01*
X004075Y012274D01*
X004090Y012257D01*
X004103Y012238D01*
X004112Y012216D01*
X004118Y012194D01*
X004120Y012171D01*
X004118Y012148D01*
X004112Y012126D01*
X004103Y012104D01*
X004090Y012085D01*
X004075Y012068D01*
X004057Y012054D01*
X004036Y012043D01*
X004014Y012035D01*
X003992Y012031D01*
X003968Y012031D01*
X003946Y012035D01*
X003924Y012043D01*
X003903Y012054D01*
X003885Y012068D01*
X003870Y012085D01*
X003857Y012104D01*
X003848Y012126D01*
X003842Y012148D01*
X003840Y012171D01*
X003763Y012172D02*
X003765Y012201D01*
X003771Y012230D01*
X003780Y012257D01*
X003793Y012283D01*
X003810Y012307D01*
X003829Y012329D01*
X003852Y012348D01*
X003876Y012363D01*
X003903Y012375D01*
X003930Y012384D01*
X003959Y012389D01*
X003988Y012390D01*
X004017Y012387D01*
X004046Y012380D01*
X004073Y012370D01*
X004098Y012356D01*
X004122Y012338D01*
X004143Y012318D01*
X004161Y012295D01*
X004176Y012270D01*
X004187Y012244D01*
X004195Y012215D01*
X004199Y012187D01*
X004199Y012157D01*
X004195Y012129D01*
X004187Y012100D01*
X004176Y012074D01*
X004161Y012049D01*
X004143Y012026D01*
X004122Y012006D01*
X004098Y011988D01*
X004073Y011974D01*
X004046Y011964D01*
X004017Y011957D01*
X003988Y011954D01*
X003959Y011955D01*
X003930Y011960D01*
X003903Y011969D01*
X003876Y011981D01*
X003852Y011996D01*
X003829Y012015D01*
X003810Y012037D01*
X003793Y012061D01*
X003780Y012087D01*
X003771Y012114D01*
X003765Y012143D01*
X003763Y012172D01*
X014751Y003085D02*
X014740Y003063D01*
X014733Y003040D01*
X014731Y003004D01*
X014738Y002976D01*
X014748Y002950D01*
X014760Y002926D01*
X014973Y002627D01*
X015043Y002721D01*
X014766Y003103D01*
X014751Y003085D01*
X015057Y002639D02*
X015071Y002646D01*
X015035Y002590D02*
X015037Y002603D01*
X015043Y002615D01*
X015052Y002624D01*
X015063Y002631D01*
X015076Y002634D01*
X015089Y002633D01*
X015101Y002628D01*
X015111Y002620D01*
X015119Y002609D01*
X015123Y002597D01*
X015123Y002583D01*
X015119Y002571D01*
X015111Y002560D01*
X015101Y002552D01*
X015089Y002547D01*
X015076Y002546D01*
X015063Y002549D01*
X015052Y002556D01*
X015043Y002565D01*
X015037Y002577D01*
X015035Y002590D01*
X014967Y002527D02*
X015385Y003103D01*
X015405Y003076D01*
X015418Y003039D01*
X015419Y003007D01*
X015413Y002976D01*
X015401Y002944D01*
X015376Y002902D01*
X015148Y002592D01*
X015139Y002594D02*
X015130Y002611D01*
X015142Y002583D02*
X015181Y002531D01*
X015087Y002477D02*
X015087Y002473D01*
X015115Y002436D01*
X015087Y002477D02*
X015078Y002480D01*
X015068Y002479D01*
X015034Y002430D01*
X014677Y002362D02*
X014679Y002385D01*
X014685Y002407D01*
X014694Y002429D01*
X014707Y002448D01*
X014722Y002465D01*
X014740Y002479D01*
X014761Y002490D01*
X014783Y002498D01*
X014805Y002502D01*
X014829Y002502D01*
X014851Y002498D01*
X014873Y002490D01*
X014894Y002479D01*
X014912Y002465D01*
X014927Y002448D01*
X014940Y002429D01*
X014949Y002407D01*
X014955Y002385D01*
X014957Y002362D01*
X014955Y002339D01*
X014949Y002317D01*
X014940Y002295D01*
X014927Y002276D01*
X014912Y002259D01*
X014894Y002245D01*
X014873Y002234D01*
X014851Y002226D01*
X014829Y002222D01*
X014805Y002222D01*
X014783Y002226D01*
X014761Y002234D01*
X014740Y002245D01*
X014722Y002259D01*
X014707Y002276D01*
X014694Y002295D01*
X014685Y002317D01*
X014679Y002339D01*
X014677Y002362D01*
X014598Y002363D02*
X014600Y002392D01*
X014606Y002421D01*
X014615Y002448D01*
X014628Y002474D01*
X014645Y002498D01*
X014664Y002520D01*
X014687Y002539D01*
X014711Y002554D01*
X014738Y002566D01*
X014765Y002575D01*
X014794Y002580D01*
X014823Y002581D01*
X014852Y002578D01*
X014881Y002571D01*
X014908Y002561D01*
X014933Y002547D01*
X014957Y002529D01*
X014978Y002509D01*
X014996Y002486D01*
X015011Y002461D01*
X015022Y002435D01*
X015030Y002406D01*
X015034Y002378D01*
X015034Y002348D01*
X015030Y002320D01*
X015022Y002291D01*
X015011Y002265D01*
X014996Y002240D01*
X014978Y002217D01*
X014957Y002197D01*
X014933Y002179D01*
X014908Y002165D01*
X014881Y002155D01*
X014852Y002148D01*
X014823Y002145D01*
X014794Y002146D01*
X014765Y002151D01*
X014738Y002160D01*
X014711Y002172D01*
X014687Y002187D01*
X014664Y002206D01*
X014645Y002228D01*
X014628Y002252D01*
X014615Y002278D01*
X014606Y002305D01*
X014600Y002334D01*
X014598Y002363D01*
X015193Y002363D02*
X015195Y002386D01*
X015201Y002408D01*
X015210Y002430D01*
X015223Y002449D01*
X015238Y002466D01*
X015256Y002480D01*
X015277Y002491D01*
X015299Y002499D01*
X015321Y002503D01*
X015345Y002503D01*
X015367Y002499D01*
X015389Y002491D01*
X015410Y002480D01*
X015428Y002466D01*
X015443Y002449D01*
X015456Y002430D01*
X015465Y002408D01*
X015471Y002386D01*
X015473Y002363D01*
X015471Y002340D01*
X015465Y002318D01*
X015456Y002296D01*
X015443Y002277D01*
X015428Y002260D01*
X015410Y002246D01*
X015389Y002235D01*
X015367Y002227D01*
X015345Y002223D01*
X015321Y002223D01*
X015299Y002227D01*
X015277Y002235D01*
X015256Y002246D01*
X015238Y002260D01*
X015223Y002277D01*
X015210Y002296D01*
X015201Y002318D01*
X015195Y002340D01*
X015193Y002363D01*
X015116Y002362D02*
X015118Y002391D01*
X015124Y002420D01*
X015133Y002447D01*
X015146Y002473D01*
X015163Y002497D01*
X015182Y002519D01*
X015205Y002538D01*
X015229Y002553D01*
X015256Y002565D01*
X015283Y002574D01*
X015312Y002579D01*
X015341Y002580D01*
X015370Y002577D01*
X015399Y002570D01*
X015426Y002560D01*
X015451Y002546D01*
X015475Y002528D01*
X015496Y002508D01*
X015514Y002485D01*
X015529Y002460D01*
X015540Y002434D01*
X015548Y002405D01*
X015552Y002377D01*
X015552Y002347D01*
X015548Y002319D01*
X015540Y002290D01*
X015529Y002264D01*
X015514Y002239D01*
X015496Y002216D01*
X015475Y002196D01*
X015451Y002178D01*
X015426Y002164D01*
X015399Y002154D01*
X015370Y002147D01*
X015341Y002144D01*
X015312Y002145D01*
X015283Y002150D01*
X015256Y002159D01*
X015229Y002171D01*
X015205Y002186D01*
X015182Y002205D01*
X015163Y002227D01*
X015146Y002251D01*
X015133Y002277D01*
X015124Y002304D01*
X015118Y002333D01*
X015116Y002362D01*
X021672Y004623D02*
X021690Y004608D01*
X021712Y004597D01*
X021735Y004590D01*
X021771Y004588D01*
X021799Y004595D01*
X021825Y004605D01*
X021849Y004617D01*
X022148Y004830D01*
X022054Y004900D01*
X021672Y004623D01*
X022136Y004914D02*
X022129Y004928D01*
X022141Y004936D02*
X022143Y004949D01*
X022149Y004961D01*
X022158Y004970D01*
X022169Y004977D01*
X022182Y004980D01*
X022195Y004979D01*
X022207Y004974D01*
X022217Y004966D01*
X022225Y004955D01*
X022229Y004943D01*
X022229Y004929D01*
X022225Y004917D01*
X022217Y004906D01*
X022207Y004898D01*
X022195Y004893D01*
X022182Y004892D01*
X022169Y004895D01*
X022158Y004902D01*
X022149Y004911D01*
X022143Y004923D01*
X022141Y004936D01*
X022164Y004987D02*
X022181Y004996D01*
X022183Y005005D02*
X021873Y005233D01*
X021831Y005258D01*
X021799Y005270D01*
X021768Y005276D01*
X021736Y005275D01*
X021699Y005262D01*
X021672Y005242D01*
X022248Y004824D01*
X022296Y004925D02*
X022295Y004935D01*
X022298Y004944D01*
X022302Y004944D01*
X022339Y004972D01*
X022296Y004925D02*
X022345Y004891D01*
X022244Y005038D02*
X022192Y004999D01*
X022272Y005190D02*
X022274Y005213D01*
X022280Y005235D01*
X022289Y005257D01*
X022302Y005276D01*
X022317Y005293D01*
X022335Y005307D01*
X022356Y005318D01*
X022378Y005326D01*
X022400Y005330D01*
X022424Y005330D01*
X022446Y005326D01*
X022468Y005318D01*
X022489Y005307D01*
X022507Y005293D01*
X022522Y005276D01*
X022535Y005257D01*
X022544Y005235D01*
X022550Y005213D01*
X022552Y005190D01*
X022550Y005167D01*
X022544Y005145D01*
X022535Y005123D01*
X022522Y005104D01*
X022507Y005087D01*
X022489Y005073D01*
X022468Y005062D01*
X022446Y005054D01*
X022424Y005050D01*
X022400Y005050D01*
X022378Y005054D01*
X022356Y005062D01*
X022335Y005073D01*
X022317Y005087D01*
X022302Y005104D01*
X022289Y005123D01*
X022280Y005145D01*
X022274Y005167D01*
X022272Y005190D01*
X022195Y005191D02*
X022197Y005220D01*
X022203Y005249D01*
X022212Y005276D01*
X022225Y005302D01*
X022242Y005326D01*
X022261Y005348D01*
X022284Y005367D01*
X022308Y005382D01*
X022335Y005394D01*
X022362Y005403D01*
X022391Y005408D01*
X022420Y005409D01*
X022449Y005406D01*
X022478Y005399D01*
X022505Y005389D01*
X022530Y005375D01*
X022554Y005357D01*
X022575Y005337D01*
X022593Y005314D01*
X022608Y005289D01*
X022619Y005263D01*
X022627Y005234D01*
X022631Y005206D01*
X022631Y005176D01*
X022627Y005148D01*
X022619Y005119D01*
X022608Y005093D01*
X022593Y005068D01*
X022575Y005045D01*
X022554Y005025D01*
X022530Y005007D01*
X022505Y004993D01*
X022478Y004983D01*
X022449Y004976D01*
X022420Y004973D01*
X022391Y004974D01*
X022362Y004979D01*
X022335Y004988D01*
X022308Y005000D01*
X022284Y005015D01*
X022261Y005034D01*
X022242Y005056D01*
X022225Y005080D01*
X022212Y005106D01*
X022203Y005133D01*
X022197Y005162D01*
X022195Y005191D01*
X022273Y004674D02*
X022275Y004697D01*
X022281Y004719D01*
X022290Y004741D01*
X022303Y004760D01*
X022318Y004777D01*
X022336Y004791D01*
X022357Y004802D01*
X022379Y004810D01*
X022401Y004814D01*
X022425Y004814D01*
X022447Y004810D01*
X022469Y004802D01*
X022490Y004791D01*
X022508Y004777D01*
X022523Y004760D01*
X022536Y004741D01*
X022545Y004719D01*
X022551Y004697D01*
X022553Y004674D01*
X022551Y004651D01*
X022545Y004629D01*
X022536Y004607D01*
X022523Y004588D01*
X022508Y004571D01*
X022490Y004557D01*
X022469Y004546D01*
X022447Y004538D01*
X022425Y004534D01*
X022401Y004534D01*
X022379Y004538D01*
X022357Y004546D01*
X022336Y004557D01*
X022318Y004571D01*
X022303Y004588D01*
X022290Y004607D01*
X022281Y004629D01*
X022275Y004651D01*
X022273Y004674D01*
X022194Y004673D02*
X022196Y004702D01*
X022202Y004731D01*
X022211Y004758D01*
X022224Y004784D01*
X022241Y004808D01*
X022260Y004830D01*
X022283Y004849D01*
X022307Y004864D01*
X022334Y004876D01*
X022361Y004885D01*
X022390Y004890D01*
X022419Y004891D01*
X022448Y004888D01*
X022477Y004881D01*
X022504Y004871D01*
X022529Y004857D01*
X022553Y004839D01*
X022574Y004819D01*
X022592Y004796D01*
X022607Y004771D01*
X022618Y004745D01*
X022626Y004716D01*
X022630Y004688D01*
X022630Y004658D01*
X022626Y004630D01*
X022618Y004601D01*
X022607Y004575D01*
X022592Y004550D01*
X022574Y004527D01*
X022553Y004507D01*
X022529Y004489D01*
X022504Y004475D01*
X022477Y004465D01*
X022448Y004458D01*
X022419Y004455D01*
X022390Y004456D01*
X022361Y004461D01*
X022334Y004470D01*
X022307Y004482D01*
X022283Y004497D01*
X022260Y004516D01*
X022241Y004538D01*
X022224Y004562D01*
X022211Y004588D01*
X022202Y004615D01*
X022196Y004644D01*
X022194Y004673D01*
D20*
X022244Y004849D02*
X022317Y004890D01*
X022255Y004931D01*
X022227Y004888D01*
X022247Y004884D01*
X022267Y004899D01*
X022278Y004940D02*
X022315Y004979D01*
X022253Y005017D01*
X022210Y004991D01*
X022249Y004954D01*
X022233Y004980D01*
X022251Y004992D01*
X022268Y004969D01*
X022194Y004878D02*
X022244Y004849D01*
X015160Y002522D02*
X015134Y002565D01*
X015097Y002526D01*
X015123Y002542D01*
X015135Y002524D01*
X015112Y002507D01*
X015083Y002497D02*
X015122Y002460D01*
X015160Y002522D01*
X015074Y002520D02*
X015031Y002548D01*
X015027Y002528D01*
X015042Y002508D01*
X015074Y002520D02*
X015033Y002458D01*
X014992Y002531D01*
X015021Y002581D01*
X010237Y009845D02*
X010240Y009995D01*
X010205Y010050D01*
X010167Y010065D01*
X010115Y010050D01*
X010082Y010025D01*
X010077Y009837D01*
X009917Y009845D02*
X009920Y010000D01*
X009947Y010045D01*
X009997Y010060D01*
X010035Y010057D01*
X010067Y010030D01*
X004183Y011854D02*
X004144Y011891D01*
X004160Y011865D01*
X004142Y011853D01*
X004125Y011876D01*
X004115Y011905D02*
X004078Y011866D01*
X004140Y011828D01*
X004183Y011854D01*
X004138Y011914D02*
X004166Y011957D01*
X004146Y011961D01*
X004126Y011946D01*
X004138Y011914D02*
X004076Y011955D01*
X004149Y011996D01*
X004199Y011967D01*
X014534Y014784D02*
X014584Y014755D01*
X014657Y014796D01*
X014595Y014837D01*
X014567Y014794D01*
X014587Y014790D01*
X014607Y014805D01*
X014618Y014846D02*
X014655Y014885D01*
X014593Y014923D01*
X014550Y014897D01*
X014589Y014860D01*
X014573Y014886D01*
X014591Y014898D01*
X014608Y014875D01*
M02*
