%
M48
M72
T01C0.0100
T02C0.0120
T03C0.0160
T04C0.0180
T05C0.0260
T06C0.0394
T07C0.0492
T08C0.0550
T09C0.0787
%
T01
X13334Y5823
X13784Y5823
T02
X11019Y5034
X10944Y6034
X11419Y6209
X12044Y7109
X12144Y5088
X12469Y5088
X14335Y4551
X14695Y4551
X15027Y3977
X15377Y3977
X16852Y4374
X17127Y4649
X17402Y4374
X17402Y4924
X16852Y4924
X17412Y6264
X17412Y6564
X17712Y6564
X17712Y6264
X18627Y7477
X18627Y8077
X17462Y8364
X17462Y8664
X17462Y8964
X17262Y9214
X17777Y9827
X18477Y9827
X15412Y7764
X15412Y7464
X15412Y7164
X15612Y6964
X14777Y6077
X15127Y5727
X19412Y4714
X19412Y4414
X19412Y4114
X19712Y4114
X20514Y4131
X20514Y3781
X20352Y5399
X19552Y5399
X15012Y12614
X11344Y13127
X10944Y13127
X10844Y16276
X11144Y16276
X11444Y16276
X11744Y16276
X12044Y16276
X12344Y16276
X10544Y16276
X10244Y16276
X9944Y16276
X6112Y13214
X6337Y13064
X6112Y12914
T03
X15377Y6427
X15377Y6127
X16727Y5399
X17027Y5399
X15827Y8127
X15977Y9777
T04
X11144Y15476
X11144Y15826
T05
X5782Y14773
X5326Y14229
T06
X12043Y7553
T07
X18109Y10161
X18981Y7760
T08
X11144Y12736
T09
X19961Y5962
M30
