G75*
G70*
%OFA0B0*%
%FSLAX24Y24*%
%IPPOS*%
%LPD*%
%AMOC8*
5,1,8,0,0,1.08239X$1,22.5*
%
%ADD10C,0.0050*%
%ADD11C,0.0000*%
%ADD12C,0.0004*%
%ADD13C,0.0433*%
%ADD14C,0.0500*%
%ADD15C,0.1102*%
%ADD16C,0.0866*%
%ADD17C,0.0800*%
D10*
X003005Y000806D02*
X003005Y016706D01*
X003007Y016750D01*
X003013Y016793D01*
X003022Y016835D01*
X003035Y016877D01*
X003052Y016917D01*
X003072Y016956D01*
X003095Y016993D01*
X003122Y017027D01*
X003151Y017060D01*
X003184Y017089D01*
X003218Y017116D01*
X003255Y017139D01*
X003294Y017159D01*
X003334Y017176D01*
X003376Y017189D01*
X003418Y017198D01*
X003461Y017204D01*
X003505Y017206D01*
X014305Y017206D01*
X014349Y017204D01*
X014392Y017198D01*
X014434Y017189D01*
X014476Y017176D01*
X014516Y017159D01*
X014555Y017139D01*
X014592Y017116D01*
X014626Y017089D01*
X014659Y017060D01*
X014688Y017027D01*
X014715Y016993D01*
X014738Y016956D01*
X014758Y016917D01*
X014775Y016877D01*
X014788Y016835D01*
X014797Y016793D01*
X014803Y016750D01*
X014805Y016706D01*
X014805Y000806D01*
X014803Y000762D01*
X014797Y000719D01*
X014788Y000677D01*
X014775Y000635D01*
X014758Y000595D01*
X014738Y000556D01*
X014715Y000519D01*
X014688Y000485D01*
X014659Y000452D01*
X014626Y000423D01*
X014592Y000396D01*
X014555Y000373D01*
X014516Y000353D01*
X014476Y000336D01*
X014434Y000323D01*
X014392Y000314D01*
X014349Y000308D01*
X014305Y000306D01*
X003505Y000306D01*
X003461Y000308D01*
X003418Y000314D01*
X003376Y000323D01*
X003334Y000336D01*
X003294Y000353D01*
X003255Y000373D01*
X003218Y000396D01*
X003184Y000423D01*
X003151Y000452D01*
X003122Y000485D01*
X003095Y000519D01*
X003072Y000556D01*
X003052Y000595D01*
X003035Y000635D01*
X003022Y000677D01*
X003013Y000719D01*
X003007Y000762D01*
X003005Y000806D01*
X005845Y002162D02*
X005845Y007852D01*
X006431Y007852D01*
X006431Y007346D01*
X006433Y007316D01*
X006438Y007286D01*
X006447Y007257D01*
X006460Y007230D01*
X006475Y007204D01*
X006494Y007180D01*
X006515Y007159D01*
X006539Y007140D01*
X006565Y007125D01*
X006592Y007112D01*
X006621Y007103D01*
X006651Y007098D01*
X006681Y007096D01*
X007581Y007096D01*
X007581Y006746D01*
X007514Y006744D01*
X007447Y006738D01*
X007380Y006729D01*
X007314Y006716D01*
X007249Y006699D01*
X007185Y006679D01*
X007122Y006655D01*
X007060Y006627D01*
X007001Y006596D01*
X006943Y006562D01*
X006887Y006525D01*
X006833Y006484D01*
X006781Y006441D01*
X006732Y006395D01*
X006686Y006346D01*
X006643Y006294D01*
X006602Y006240D01*
X006565Y006184D01*
X006531Y006126D01*
X006500Y006067D01*
X006472Y006005D01*
X006448Y005942D01*
X006428Y005878D01*
X006411Y005813D01*
X006398Y005747D01*
X006389Y005680D01*
X006383Y005613D01*
X006381Y005546D01*
X006381Y002342D01*
X005845Y002162D02*
X005847Y002123D01*
X005853Y002085D01*
X005862Y002048D01*
X005875Y002011D01*
X005892Y001976D01*
X005911Y001943D01*
X005934Y001912D01*
X005960Y001883D01*
X005989Y001857D01*
X006020Y001834D01*
X006053Y001815D01*
X006088Y001798D01*
X006125Y001785D01*
X006162Y001776D01*
X006200Y001770D01*
X006239Y001768D01*
X006239Y001769D02*
X010373Y001769D01*
X010431Y002342D02*
X010431Y005546D01*
X010835Y006226D02*
X011242Y006226D01*
X011242Y004604D01*
X011160Y003787D02*
X012735Y003787D01*
X012735Y003788D02*
X012789Y003790D01*
X012842Y003795D01*
X012895Y003804D01*
X012947Y003817D01*
X012999Y003833D01*
X013049Y003853D01*
X013097Y003876D01*
X013144Y003903D01*
X013189Y003932D01*
X013232Y003965D01*
X013272Y004000D01*
X013310Y004038D01*
X013345Y004078D01*
X013378Y004121D01*
X013407Y004166D01*
X013434Y004213D01*
X013457Y004261D01*
X013477Y004311D01*
X013493Y004363D01*
X013506Y004415D01*
X013515Y004468D01*
X013520Y004521D01*
X013522Y004575D01*
X013523Y004575D02*
X013523Y005832D01*
X013325Y006226D02*
X012975Y006226D01*
X012975Y005706D01*
X013523Y005833D02*
X013570Y005852D01*
X013616Y005875D01*
X013660Y005902D01*
X013702Y005931D01*
X013742Y005964D01*
X013779Y006000D01*
X013813Y006038D01*
X013844Y006079D01*
X013872Y006123D01*
X013896Y006168D01*
X013917Y006215D01*
X013935Y006263D01*
X013948Y006313D01*
X013958Y006363D01*
X013964Y006415D01*
X013966Y006466D01*
X013964Y006517D01*
X013958Y006569D01*
X013948Y006619D01*
X013935Y006669D01*
X013917Y006717D01*
X013896Y006764D01*
X013872Y006809D01*
X013844Y006853D01*
X013813Y006894D01*
X013779Y006932D01*
X013742Y006968D01*
X013702Y007001D01*
X013660Y007030D01*
X013616Y007057D01*
X013570Y007080D01*
X013523Y007099D01*
X013523Y007100D02*
X013521Y007852D01*
X012931Y007852D01*
X012931Y007346D01*
X012930Y007317D01*
X012925Y007287D01*
X012917Y007259D01*
X012905Y007232D01*
X012890Y007206D01*
X012872Y007182D01*
X012851Y007161D01*
X012828Y007142D01*
X012803Y007126D01*
X012776Y007114D01*
X012748Y007104D01*
X012719Y007098D01*
X012689Y007096D01*
X012690Y007096D02*
X012690Y006706D01*
X013325Y006706D01*
X013355Y006704D01*
X013385Y006698D01*
X013413Y006689D01*
X013441Y006676D01*
X013466Y006660D01*
X013489Y006641D01*
X013510Y006619D01*
X013528Y006595D01*
X013542Y006568D01*
X013553Y006540D01*
X013561Y006511D01*
X013565Y006481D01*
X013565Y006451D01*
X013561Y006421D01*
X013553Y006392D01*
X013542Y006364D01*
X013528Y006337D01*
X013510Y006313D01*
X013489Y006291D01*
X013466Y006272D01*
X013441Y006256D01*
X013413Y006243D01*
X013385Y006234D01*
X013355Y006228D01*
X013325Y006226D01*
X012975Y005706D02*
X013000Y005648D01*
X013022Y005588D01*
X013039Y005527D01*
X013053Y005465D01*
X013063Y005403D01*
X013070Y005340D01*
X013072Y005276D01*
X013070Y005213D01*
X013065Y005149D01*
X013056Y005087D01*
X013043Y005025D01*
X013026Y004963D01*
X013005Y004903D01*
X012981Y004845D01*
X012953Y004788D01*
X012922Y004732D01*
X012888Y004679D01*
X012850Y004628D01*
X012809Y004579D01*
X012765Y004533D01*
X012719Y004490D01*
X012670Y004450D01*
X012619Y004412D01*
X012565Y004378D01*
X012510Y004348D01*
X012452Y004320D01*
X012393Y004297D01*
X012333Y004277D01*
X012272Y004260D01*
X012210Y004248D01*
X012147Y004239D01*
X012084Y004234D01*
X012020Y004233D01*
X011957Y004236D01*
X011894Y004243D01*
X011831Y004253D01*
X011769Y004268D01*
X011708Y004286D01*
X011649Y004308D01*
X011591Y004334D01*
X011534Y004363D01*
X011480Y004395D01*
X011427Y004431D01*
X011377Y004470D01*
X011329Y004511D01*
X011284Y004556D01*
X011242Y004603D01*
X011160Y003787D02*
X011134Y003785D01*
X011109Y003780D01*
X011085Y003772D01*
X011061Y003761D01*
X011040Y003746D01*
X011021Y003729D01*
X011004Y003710D01*
X010989Y003689D01*
X010978Y003665D01*
X010970Y003641D01*
X010965Y003616D01*
X010963Y003590D01*
X010964Y003590D02*
X010964Y002359D01*
X010962Y002313D01*
X010957Y002267D01*
X010948Y002221D01*
X010935Y002176D01*
X010919Y002133D01*
X010900Y002091D01*
X010877Y002050D01*
X010851Y002012D01*
X010822Y001975D01*
X010791Y001941D01*
X010757Y001910D01*
X010720Y001881D01*
X010682Y001855D01*
X010641Y001832D01*
X010599Y001813D01*
X010556Y001797D01*
X010511Y001784D01*
X010465Y001775D01*
X010419Y001770D01*
X010373Y001768D01*
X010099Y002013D02*
X010133Y002015D01*
X010167Y002020D01*
X010201Y002029D01*
X010233Y002041D01*
X010264Y002057D01*
X010293Y002075D01*
X010320Y002097D01*
X010345Y002121D01*
X010367Y002148D01*
X010386Y002177D01*
X010402Y002208D01*
X010414Y002240D01*
X010423Y002274D01*
X010429Y002308D01*
X010431Y002343D01*
X010098Y002012D02*
X010060Y002014D01*
X010022Y002020D01*
X009985Y002029D01*
X009948Y002042D01*
X009914Y002059D01*
X009881Y002079D01*
X009851Y002102D01*
X006961Y002102D01*
X006711Y002012D02*
X006677Y002014D01*
X006642Y002019D01*
X006609Y002028D01*
X006577Y002041D01*
X006546Y002056D01*
X006517Y002075D01*
X006490Y002097D01*
X006466Y002121D01*
X006444Y002148D01*
X006425Y002177D01*
X006410Y002208D01*
X006397Y002240D01*
X006388Y002273D01*
X006383Y002308D01*
X006381Y002342D01*
X006711Y002013D02*
X006749Y002015D01*
X006788Y002020D01*
X006825Y002030D01*
X006861Y002043D01*
X006896Y002060D01*
X006929Y002080D01*
X006960Y002103D01*
X010431Y005546D02*
X010429Y005613D01*
X010423Y005680D01*
X010414Y005747D01*
X010401Y005813D01*
X010384Y005878D01*
X010364Y005942D01*
X010340Y006005D01*
X010312Y006067D01*
X010281Y006126D01*
X010247Y006184D01*
X010210Y006240D01*
X010169Y006294D01*
X010126Y006346D01*
X010080Y006395D01*
X010031Y006441D01*
X009979Y006484D01*
X009925Y006525D01*
X009869Y006562D01*
X009811Y006596D01*
X009752Y006627D01*
X009690Y006655D01*
X009627Y006679D01*
X009563Y006699D01*
X009498Y006716D01*
X009432Y006729D01*
X009365Y006738D01*
X009298Y006744D01*
X009231Y006746D01*
X009231Y007096D01*
X011409Y007096D01*
X011409Y006706D01*
X010835Y006706D01*
X010805Y006704D01*
X010775Y006698D01*
X010747Y006689D01*
X010719Y006676D01*
X010694Y006660D01*
X010671Y006641D01*
X010650Y006619D01*
X010632Y006595D01*
X010618Y006568D01*
X010607Y006540D01*
X010599Y006511D01*
X010595Y006481D01*
X010595Y006451D01*
X010599Y006421D01*
X010607Y006392D01*
X010618Y006364D01*
X010632Y006337D01*
X010650Y006313D01*
X010671Y006291D01*
X010694Y006272D01*
X010719Y006256D01*
X010747Y006243D01*
X010775Y006234D01*
X010805Y006228D01*
X010835Y006226D01*
X012931Y009038D02*
X013521Y009038D01*
X013521Y009740D01*
X013519Y009774D01*
X013513Y009807D01*
X013504Y009839D01*
X013491Y009870D01*
X013475Y009900D01*
X013456Y009927D01*
X013433Y009952D01*
X013408Y009975D01*
X013381Y009994D01*
X013351Y010010D01*
X013320Y010023D01*
X013288Y010032D01*
X013255Y010038D01*
X013221Y010040D01*
X011421Y010040D01*
X011391Y010042D01*
X011361Y010047D01*
X011332Y010056D01*
X011305Y010069D01*
X011279Y010084D01*
X011255Y010103D01*
X011234Y010124D01*
X011215Y010148D01*
X011200Y010174D01*
X011187Y010201D01*
X011178Y010230D01*
X011173Y010260D01*
X011171Y010290D01*
X011171Y014594D01*
X011169Y014624D01*
X011164Y014654D01*
X011155Y014683D01*
X011142Y014710D01*
X011127Y014736D01*
X011108Y014760D01*
X011087Y014781D01*
X011063Y014800D01*
X011037Y014815D01*
X011010Y014828D01*
X010981Y014837D01*
X010951Y014842D01*
X010921Y014844D01*
X008748Y014844D01*
X008727Y014842D01*
X008707Y014844D01*
X008687Y014849D01*
X008668Y014857D01*
X008650Y014868D01*
X008634Y014881D01*
X008621Y014897D01*
X008610Y014915D01*
X008602Y014934D01*
X008598Y014954D01*
X008598Y014955D02*
X008598Y015350D01*
X008595Y015377D01*
X008588Y015404D01*
X008577Y015429D01*
X008563Y015453D01*
X008546Y015474D01*
X008525Y015492D01*
X008503Y015508D01*
X008478Y015520D01*
X008452Y015528D01*
X008425Y015533D01*
X008398Y015534D01*
X008398Y015533D02*
X006381Y015533D01*
X006381Y015140D02*
X008005Y015140D01*
X008032Y015139D01*
X008059Y015134D01*
X008085Y015126D01*
X008110Y015114D01*
X008132Y015098D01*
X008153Y015080D01*
X008170Y015059D01*
X008184Y015035D01*
X008195Y015010D01*
X008202Y014983D01*
X008205Y014956D01*
X008205Y014561D01*
X008209Y014541D01*
X008217Y014522D01*
X008228Y014504D01*
X008241Y014488D01*
X008257Y014475D01*
X008275Y014464D01*
X008294Y014456D01*
X008314Y014451D01*
X008334Y014449D01*
X008355Y014451D01*
X010331Y014451D01*
X010361Y014449D01*
X010391Y014444D01*
X010420Y014435D01*
X010447Y014422D01*
X010473Y014407D01*
X010497Y014388D01*
X010518Y014367D01*
X010537Y014343D01*
X010552Y014317D01*
X010565Y014290D01*
X010574Y014261D01*
X010579Y014231D01*
X010581Y014201D01*
X010581Y009896D01*
X010583Y009866D01*
X010588Y009836D01*
X010597Y009807D01*
X010610Y009780D01*
X010625Y009754D01*
X010644Y009730D01*
X010665Y009709D01*
X010689Y009690D01*
X010715Y009675D01*
X010742Y009662D01*
X010771Y009653D01*
X010801Y009648D01*
X010831Y009646D01*
X012631Y009646D01*
X012665Y009644D01*
X012698Y009638D01*
X012730Y009629D01*
X012761Y009616D01*
X012791Y009600D01*
X012818Y009581D01*
X012843Y009558D01*
X012866Y009533D01*
X012885Y009506D01*
X012901Y009476D01*
X012914Y009445D01*
X012923Y009413D01*
X012929Y009380D01*
X012931Y009346D01*
X012931Y009038D01*
X006431Y009038D02*
X005840Y009038D01*
X005840Y012749D01*
X005838Y012766D01*
X005834Y012783D01*
X005827Y012799D01*
X005817Y012813D01*
X005804Y012826D01*
X005790Y012836D01*
X005774Y012843D01*
X005757Y012847D01*
X005740Y012849D01*
X005690Y012849D01*
X005667Y012851D01*
X005644Y012856D01*
X005622Y012865D01*
X005602Y012878D01*
X005584Y012893D01*
X005569Y012911D01*
X005556Y012931D01*
X005547Y012953D01*
X005542Y012976D01*
X005540Y012999D01*
X005540Y014693D01*
X005934Y014693D02*
X005934Y013393D01*
X005936Y013370D01*
X005941Y013347D01*
X005950Y013325D01*
X005963Y013305D01*
X005978Y013287D01*
X005996Y013272D01*
X006016Y013259D01*
X006038Y013250D01*
X006061Y013245D01*
X006084Y013243D01*
X006331Y013243D01*
X006348Y013241D01*
X006365Y013237D01*
X006381Y013230D01*
X006395Y013220D01*
X006408Y013207D01*
X006418Y013193D01*
X006425Y013177D01*
X006429Y013160D01*
X006431Y013143D01*
X006431Y009038D01*
X005540Y014693D02*
X005542Y014748D01*
X005547Y014803D01*
X005556Y014857D01*
X005569Y014911D01*
X005585Y014963D01*
X005604Y015015D01*
X005627Y015065D01*
X005653Y015114D01*
X005682Y015160D01*
X005714Y015205D01*
X005749Y015248D01*
X005786Y015288D01*
X005826Y015325D01*
X005869Y015360D01*
X005914Y015392D01*
X005961Y015421D01*
X006009Y015447D01*
X006059Y015470D01*
X006111Y015489D01*
X006163Y015505D01*
X006217Y015518D01*
X006271Y015527D01*
X006326Y015532D01*
X006381Y015534D01*
X006381Y015140D02*
X006340Y015138D01*
X006299Y015132D01*
X006259Y015123D01*
X006220Y015110D01*
X006182Y015093D01*
X006146Y015073D01*
X006112Y015050D01*
X006080Y015023D01*
X006051Y014994D01*
X006024Y014962D01*
X006001Y014928D01*
X005981Y014892D01*
X005964Y014854D01*
X005951Y014815D01*
X005942Y014775D01*
X005936Y014734D01*
X005934Y014693D01*
D11*
X006251Y008894D02*
X006253Y008911D01*
X006258Y008928D01*
X006267Y008942D01*
X006279Y008955D01*
X006294Y008965D01*
X006310Y008971D01*
X006327Y008974D01*
X006344Y008973D01*
X006361Y008968D01*
X006376Y008960D01*
X006389Y008949D01*
X006400Y008935D01*
X006407Y008920D01*
X006411Y008903D01*
X006411Y008885D01*
X006407Y008868D01*
X006400Y008853D01*
X006389Y008839D01*
X006376Y008828D01*
X006361Y008820D01*
X006344Y008815D01*
X006327Y008814D01*
X006310Y008817D01*
X006294Y008823D01*
X006279Y008833D01*
X006267Y008846D01*
X006258Y008860D01*
X006253Y008877D01*
X006251Y008894D01*
X006251Y008669D02*
X006253Y008686D01*
X006258Y008703D01*
X006267Y008717D01*
X006279Y008730D01*
X006294Y008740D01*
X006310Y008746D01*
X006327Y008749D01*
X006344Y008748D01*
X006361Y008743D01*
X006376Y008735D01*
X006389Y008724D01*
X006400Y008710D01*
X006407Y008695D01*
X006411Y008678D01*
X006411Y008660D01*
X006407Y008643D01*
X006400Y008628D01*
X006389Y008614D01*
X006376Y008603D01*
X006361Y008595D01*
X006344Y008590D01*
X006327Y008589D01*
X006310Y008592D01*
X006294Y008598D01*
X006279Y008608D01*
X006267Y008621D01*
X006258Y008635D01*
X006253Y008652D01*
X006251Y008669D01*
X006251Y008444D02*
X006253Y008461D01*
X006258Y008478D01*
X006267Y008492D01*
X006279Y008505D01*
X006294Y008515D01*
X006310Y008521D01*
X006327Y008524D01*
X006344Y008523D01*
X006361Y008518D01*
X006376Y008510D01*
X006389Y008499D01*
X006400Y008485D01*
X006407Y008470D01*
X006411Y008453D01*
X006411Y008435D01*
X006407Y008418D01*
X006400Y008403D01*
X006389Y008389D01*
X006376Y008378D01*
X006361Y008370D01*
X006344Y008365D01*
X006327Y008364D01*
X006310Y008367D01*
X006294Y008373D01*
X006279Y008383D01*
X006267Y008396D01*
X006258Y008410D01*
X006253Y008427D01*
X006251Y008444D01*
X006251Y008219D02*
X006253Y008236D01*
X006258Y008253D01*
X006267Y008267D01*
X006279Y008280D01*
X006294Y008290D01*
X006310Y008296D01*
X006327Y008299D01*
X006344Y008298D01*
X006361Y008293D01*
X006376Y008285D01*
X006389Y008274D01*
X006400Y008260D01*
X006407Y008245D01*
X006411Y008228D01*
X006411Y008210D01*
X006407Y008193D01*
X006400Y008178D01*
X006389Y008164D01*
X006376Y008153D01*
X006361Y008145D01*
X006344Y008140D01*
X006327Y008139D01*
X006310Y008142D01*
X006294Y008148D01*
X006279Y008158D01*
X006267Y008171D01*
X006258Y008185D01*
X006253Y008202D01*
X006251Y008219D01*
X006251Y007994D02*
X006253Y008011D01*
X006258Y008028D01*
X006267Y008042D01*
X006279Y008055D01*
X006294Y008065D01*
X006310Y008071D01*
X006327Y008074D01*
X006344Y008073D01*
X006361Y008068D01*
X006376Y008060D01*
X006389Y008049D01*
X006400Y008035D01*
X006407Y008020D01*
X006411Y008003D01*
X006411Y007985D01*
X006407Y007968D01*
X006400Y007953D01*
X006389Y007939D01*
X006376Y007928D01*
X006361Y007920D01*
X006344Y007915D01*
X006327Y007914D01*
X006310Y007917D01*
X006294Y007923D01*
X006279Y007933D01*
X006267Y007946D01*
X006258Y007960D01*
X006253Y007977D01*
X006251Y007994D01*
X008104Y006921D02*
X008106Y006943D01*
X008112Y006964D01*
X008121Y006983D01*
X008133Y007001D01*
X008149Y007017D01*
X008166Y007029D01*
X008186Y007038D01*
X008207Y007044D01*
X008229Y007046D01*
X008251Y007044D01*
X008272Y007038D01*
X008291Y007029D01*
X008309Y007017D01*
X008325Y007001D01*
X008337Y006983D01*
X008346Y006964D01*
X008352Y006943D01*
X008354Y006921D01*
X008352Y006899D01*
X008346Y006878D01*
X008337Y006859D01*
X008325Y006841D01*
X008309Y006825D01*
X008292Y006813D01*
X008272Y006804D01*
X008251Y006798D01*
X008229Y006796D01*
X008207Y006798D01*
X008186Y006804D01*
X008166Y006813D01*
X008149Y006825D01*
X008133Y006841D01*
X008121Y006858D01*
X008112Y006878D01*
X008106Y006899D01*
X008104Y006921D01*
X008459Y006921D02*
X008461Y006943D01*
X008467Y006964D01*
X008476Y006983D01*
X008488Y007001D01*
X008504Y007017D01*
X008521Y007029D01*
X008541Y007038D01*
X008562Y007044D01*
X008584Y007046D01*
X008606Y007044D01*
X008627Y007038D01*
X008646Y007029D01*
X008664Y007017D01*
X008680Y007001D01*
X008692Y006983D01*
X008701Y006964D01*
X008707Y006943D01*
X008709Y006921D01*
X008707Y006899D01*
X008701Y006878D01*
X008692Y006859D01*
X008680Y006841D01*
X008664Y006825D01*
X008647Y006813D01*
X008627Y006804D01*
X008606Y006798D01*
X008584Y006796D01*
X008562Y006798D01*
X008541Y006804D01*
X008521Y006813D01*
X008504Y006825D01*
X008488Y006841D01*
X008476Y006858D01*
X008467Y006878D01*
X008461Y006899D01*
X008459Y006921D01*
X011663Y006921D02*
X011665Y006944D01*
X011671Y006966D01*
X011680Y006988D01*
X011693Y007007D01*
X011708Y007024D01*
X011726Y007038D01*
X011747Y007049D01*
X011769Y007057D01*
X011791Y007061D01*
X011815Y007061D01*
X011837Y007057D01*
X011859Y007049D01*
X011880Y007038D01*
X011898Y007024D01*
X011913Y007007D01*
X011926Y006988D01*
X011935Y006966D01*
X011941Y006944D01*
X011943Y006921D01*
X011941Y006898D01*
X011935Y006876D01*
X011926Y006854D01*
X011913Y006835D01*
X011898Y006818D01*
X011880Y006804D01*
X011859Y006793D01*
X011837Y006785D01*
X011815Y006781D01*
X011791Y006781D01*
X011769Y006785D01*
X011747Y006793D01*
X011726Y006804D01*
X011708Y006818D01*
X011693Y006835D01*
X011680Y006854D01*
X011671Y006876D01*
X011665Y006898D01*
X011663Y006921D01*
X012158Y006921D02*
X012160Y006944D01*
X012166Y006966D01*
X012175Y006988D01*
X012188Y007007D01*
X012203Y007024D01*
X012221Y007038D01*
X012242Y007049D01*
X012264Y007057D01*
X012286Y007061D01*
X012310Y007061D01*
X012332Y007057D01*
X012354Y007049D01*
X012375Y007038D01*
X012393Y007024D01*
X012408Y007007D01*
X012421Y006988D01*
X012430Y006966D01*
X012436Y006944D01*
X012438Y006921D01*
X012436Y006898D01*
X012430Y006876D01*
X012421Y006854D01*
X012408Y006835D01*
X012393Y006818D01*
X012375Y006804D01*
X012354Y006793D01*
X012332Y006785D01*
X012310Y006781D01*
X012286Y006781D01*
X012264Y006785D01*
X012242Y006793D01*
X012221Y006804D01*
X012203Y006818D01*
X012188Y006835D01*
X012175Y006854D01*
X012166Y006876D01*
X012160Y006898D01*
X012158Y006921D01*
X012951Y007994D02*
X012953Y008011D01*
X012958Y008028D01*
X012967Y008042D01*
X012979Y008055D01*
X012994Y008065D01*
X013010Y008071D01*
X013027Y008074D01*
X013044Y008073D01*
X013061Y008068D01*
X013076Y008060D01*
X013089Y008049D01*
X013100Y008035D01*
X013107Y008020D01*
X013111Y008003D01*
X013111Y007985D01*
X013107Y007968D01*
X013100Y007953D01*
X013089Y007939D01*
X013076Y007928D01*
X013061Y007920D01*
X013044Y007915D01*
X013027Y007914D01*
X013010Y007917D01*
X012994Y007923D01*
X012979Y007933D01*
X012967Y007946D01*
X012958Y007960D01*
X012953Y007977D01*
X012951Y007994D01*
X012951Y008219D02*
X012953Y008236D01*
X012958Y008253D01*
X012967Y008267D01*
X012979Y008280D01*
X012994Y008290D01*
X013010Y008296D01*
X013027Y008299D01*
X013044Y008298D01*
X013061Y008293D01*
X013076Y008285D01*
X013089Y008274D01*
X013100Y008260D01*
X013107Y008245D01*
X013111Y008228D01*
X013111Y008210D01*
X013107Y008193D01*
X013100Y008178D01*
X013089Y008164D01*
X013076Y008153D01*
X013061Y008145D01*
X013044Y008140D01*
X013027Y008139D01*
X013010Y008142D01*
X012994Y008148D01*
X012979Y008158D01*
X012967Y008171D01*
X012958Y008185D01*
X012953Y008202D01*
X012951Y008219D01*
X012951Y008444D02*
X012953Y008461D01*
X012958Y008478D01*
X012967Y008492D01*
X012979Y008505D01*
X012994Y008515D01*
X013010Y008521D01*
X013027Y008524D01*
X013044Y008523D01*
X013061Y008518D01*
X013076Y008510D01*
X013089Y008499D01*
X013100Y008485D01*
X013107Y008470D01*
X013111Y008453D01*
X013111Y008435D01*
X013107Y008418D01*
X013100Y008403D01*
X013089Y008389D01*
X013076Y008378D01*
X013061Y008370D01*
X013044Y008365D01*
X013027Y008364D01*
X013010Y008367D01*
X012994Y008373D01*
X012979Y008383D01*
X012967Y008396D01*
X012958Y008410D01*
X012953Y008427D01*
X012951Y008444D01*
X012951Y008669D02*
X012953Y008686D01*
X012958Y008703D01*
X012967Y008717D01*
X012979Y008730D01*
X012994Y008740D01*
X013010Y008746D01*
X013027Y008749D01*
X013044Y008748D01*
X013061Y008743D01*
X013076Y008735D01*
X013089Y008724D01*
X013100Y008710D01*
X013107Y008695D01*
X013111Y008678D01*
X013111Y008660D01*
X013107Y008643D01*
X013100Y008628D01*
X013089Y008614D01*
X013076Y008603D01*
X013061Y008595D01*
X013044Y008590D01*
X013027Y008589D01*
X013010Y008592D01*
X012994Y008598D01*
X012979Y008608D01*
X012967Y008621D01*
X012958Y008635D01*
X012953Y008652D01*
X012951Y008669D01*
X012951Y008894D02*
X012953Y008911D01*
X012958Y008928D01*
X012967Y008942D01*
X012979Y008955D01*
X012994Y008965D01*
X013010Y008971D01*
X013027Y008974D01*
X013044Y008973D01*
X013061Y008968D01*
X013076Y008960D01*
X013089Y008949D01*
X013100Y008935D01*
X013107Y008920D01*
X013111Y008903D01*
X013111Y008885D01*
X013107Y008868D01*
X013100Y008853D01*
X013089Y008839D01*
X013076Y008828D01*
X013061Y008820D01*
X013044Y008815D01*
X013027Y008814D01*
X013010Y008817D01*
X012994Y008823D01*
X012979Y008833D01*
X012967Y008846D01*
X012958Y008860D01*
X012953Y008877D01*
X012951Y008894D01*
D12*
X010213Y004015D02*
X010213Y003771D01*
X010211Y003751D01*
X010206Y003732D01*
X010197Y003714D01*
X010185Y003698D01*
X010170Y003685D01*
X010153Y003674D01*
X010135Y003667D01*
X010115Y003663D01*
X010095Y003663D01*
X010075Y003667D01*
X010057Y003674D01*
X010040Y003685D01*
X010025Y003698D01*
X010013Y003714D01*
X010004Y003732D01*
X009999Y003751D01*
X009997Y003771D01*
X009997Y004015D01*
X009999Y004035D01*
X010004Y004054D01*
X010013Y004072D01*
X010025Y004088D01*
X010040Y004101D01*
X010057Y004112D01*
X010075Y004119D01*
X010095Y004123D01*
X010115Y004123D01*
X010135Y004119D01*
X010153Y004112D01*
X010170Y004101D01*
X010185Y004088D01*
X010197Y004072D01*
X010206Y004054D01*
X010211Y004035D01*
X010213Y004015D01*
X010213Y002519D02*
X010213Y002275D01*
X010211Y002255D01*
X010206Y002236D01*
X010197Y002218D01*
X010185Y002202D01*
X010170Y002189D01*
X010153Y002178D01*
X010135Y002171D01*
X010115Y002167D01*
X010095Y002167D01*
X010075Y002171D01*
X010057Y002178D01*
X010040Y002189D01*
X010025Y002202D01*
X010013Y002218D01*
X010004Y002236D01*
X009999Y002255D01*
X009997Y002275D01*
X009997Y002519D01*
X009999Y002539D01*
X010004Y002558D01*
X010013Y002576D01*
X010025Y002592D01*
X010040Y002605D01*
X010057Y002616D01*
X010075Y002623D01*
X010095Y002627D01*
X010115Y002627D01*
X010135Y002623D01*
X010153Y002616D01*
X010170Y002605D01*
X010185Y002592D01*
X010197Y002576D01*
X010206Y002558D01*
X010211Y002539D01*
X010213Y002519D01*
X006812Y002519D02*
X006812Y002275D01*
X006810Y002255D01*
X006805Y002236D01*
X006796Y002218D01*
X006784Y002202D01*
X006769Y002189D01*
X006752Y002178D01*
X006734Y002171D01*
X006714Y002167D01*
X006694Y002167D01*
X006674Y002171D01*
X006656Y002178D01*
X006639Y002189D01*
X006624Y002202D01*
X006612Y002218D01*
X006603Y002236D01*
X006598Y002255D01*
X006596Y002275D01*
X006596Y002519D01*
X006598Y002539D01*
X006603Y002558D01*
X006612Y002576D01*
X006624Y002592D01*
X006639Y002605D01*
X006656Y002616D01*
X006674Y002623D01*
X006694Y002627D01*
X006714Y002627D01*
X006734Y002623D01*
X006752Y002616D01*
X006769Y002605D01*
X006784Y002592D01*
X006796Y002576D01*
X006805Y002558D01*
X006810Y002539D01*
X006812Y002519D01*
X006812Y003771D02*
X006812Y004015D01*
X006810Y004035D01*
X006805Y004054D01*
X006796Y004072D01*
X006784Y004088D01*
X006769Y004101D01*
X006752Y004112D01*
X006734Y004119D01*
X006714Y004123D01*
X006694Y004123D01*
X006674Y004119D01*
X006656Y004112D01*
X006639Y004101D01*
X006624Y004088D01*
X006612Y004072D01*
X006603Y004054D01*
X006598Y004035D01*
X006596Y004015D01*
X006596Y003771D01*
X006598Y003751D01*
X006603Y003732D01*
X006612Y003714D01*
X006624Y003698D01*
X006639Y003685D01*
X006656Y003674D01*
X006674Y003667D01*
X006694Y003663D01*
X006714Y003663D01*
X006734Y003667D01*
X006752Y003674D01*
X006769Y003685D01*
X006784Y003698D01*
X006796Y003714D01*
X006805Y003732D01*
X006810Y003751D01*
X006812Y003771D01*
D13*
X006704Y003773D02*
X006704Y003773D01*
X006704Y004009D01*
X006704Y004009D01*
X006704Y003773D01*
X006704Y002277D02*
X006704Y002277D01*
X006704Y002513D01*
X006704Y002513D01*
X006704Y002277D01*
X010105Y002277D02*
X010105Y002277D01*
X010105Y002513D01*
X010105Y002513D01*
X010105Y002277D01*
X010105Y003773D02*
X010105Y003773D01*
X010105Y004009D01*
X010105Y004009D01*
X010105Y003773D01*
D14*
X012081Y004767D03*
X012081Y005767D03*
D15*
X008405Y006006D03*
D16*
X009555Y005106D03*
X007205Y005506D03*
D17*
X007405Y003356D03*
X009405Y003356D03*
M02*
