%
M48
M72
T01C0.0120
T02C0.0160
T03C0.0200
T04C0.0240
T05C0.0250
T06C0.0260
T07C0.0280
T08C0.0500
T09C0.0860
%
T01
X3405Y8106
X3405Y8606
X7087Y7900
X7437Y7900
X7535Y8301
X7855Y9906
X7855Y10256
X9005Y9256
X9355Y9256
X9705Y9256
X10910Y7541
X11559Y7541
X11755Y8156
X12205Y8656
X12395Y7660
X13285Y6466
X12620Y5103
X11787Y6220
X10885Y6466
X14405Y8106
X14405Y8606
X8105Y12356
X8105Y12656
X7805Y11806
X7505Y11806
T02
X8255Y11906
X8655Y10956
X8655Y9556
X8255Y9556
X6331Y8894
X6331Y8669
X6331Y8444
X6331Y8219
X6331Y7994
X13031Y7994
X13031Y8219
X13031Y8444
X13031Y8669
X13031Y8894
T03
X8954Y6921
X7859Y6921
T04
X7405Y9956
T05
X8229Y6921
X8584Y6921
T06
X6755Y7406
X8105Y9006
X10405Y8206
X9537Y3312
X8405Y3312
X7272Y3312
X7330Y13081
X7255Y13950
T07
X11803Y6921
X12298Y6921
T08
X10625Y11524
X9751Y13877
T09
X11601Y9727
M30
