G75*
G70*
%OFA0B0*%
%FSLAX24Y24*%
%IPPOS*%
%LPD*%
%AMOC8*
5,1,8,0,0,1.08239X$1,22.5*
%
%ADD10C,0.0050*%
%ADD11R,0.0220X0.0197*%
%ADD12R,0.0315X0.0472*%
%ADD13R,0.0250X0.0472*%
%ADD14C,0.0004*%
%ADD15C,0.0433*%
%ADD16C,0.0300*%
%ADD17R,0.0300X0.0300*%
%ADD18C,0.0709*%
%ADD19R,0.0600X0.0236*%
%ADD20R,0.1450X0.0350*%
%ADD21C,0.0250*%
%ADD22C,0.0512*%
%ADD23C,0.0000*%
%ADD24C,0.0984*%
%ADD25C,0.0850*%
%ADD26R,0.0810X0.0240*%
%ADD27R,0.0900X0.0900*%
%ADD28R,0.0197X0.0220*%
%ADD29R,0.0433X0.0394*%
%ADD30R,0.0354X0.0250*%
%ADD31R,0.0250X0.0197*%
%ADD32R,0.0217X0.0472*%
%ADD33R,0.0250X0.0354*%
%ADD34R,0.0472X0.0138*%
%ADD35C,0.1378*%
%ADD36C,0.0080*%
%ADD37C,0.0240*%
%ADD38C,0.0240*%
%ADD39C,0.0320*%
%ADD40C,0.0100*%
%ADD41C,0.0220*%
%ADD42C,0.0280*%
%ADD43C,0.0300*%
%ADD44C,0.0390*%
%ADD45C,0.0280*%
%ADD46C,0.0140*%
%ADD47C,0.0120*%
D10*
X001427Y000927D02*
X024826Y000927D01*
X024825Y000927D02*
X024870Y000928D01*
X024913Y000934D01*
X024957Y000943D01*
X024999Y000956D01*
X025040Y000972D01*
X025079Y000992D01*
X025117Y001015D01*
X025152Y001042D01*
X025185Y001071D01*
X025215Y001104D01*
X025242Y001138D01*
X025266Y001175D01*
X025287Y001214D01*
X025305Y001255D01*
X025318Y001297D01*
X025328Y001340D01*
X025335Y001383D01*
X025337Y001427D01*
X025337Y018146D01*
X025334Y018189D01*
X025328Y018233D01*
X025318Y018276D01*
X025304Y018318D01*
X025287Y018358D01*
X025266Y018397D01*
X025242Y018434D01*
X025215Y018469D01*
X025184Y018501D01*
X025152Y018530D01*
X025116Y018556D01*
X025079Y018580D01*
X025040Y018599D01*
X024999Y018616D01*
X024956Y018628D01*
X024913Y018637D01*
X024870Y018643D01*
X024825Y018644D01*
X024826Y018644D02*
X001427Y018644D01*
X001383Y018642D01*
X001340Y018637D01*
X001298Y018627D01*
X001256Y018614D01*
X001216Y018598D01*
X001177Y018578D01*
X001141Y018554D01*
X001106Y018528D01*
X001074Y018499D01*
X001044Y018467D01*
X001018Y018432D01*
X000994Y018395D01*
X000974Y018357D01*
X000957Y018317D01*
X000944Y018275D01*
X000935Y018233D01*
X000929Y018189D01*
X000927Y018146D01*
X000927Y001427D01*
X000929Y001383D01*
X000935Y001340D01*
X000944Y001298D01*
X000957Y001256D01*
X000974Y001216D01*
X000994Y001177D01*
X001017Y001140D01*
X001044Y001106D01*
X001073Y001073D01*
X001106Y001044D01*
X001140Y001017D01*
X001177Y000994D01*
X001216Y000974D01*
X001256Y000957D01*
X001298Y000944D01*
X001340Y000935D01*
X001383Y000929D01*
X001427Y000927D01*
X008294Y002377D02*
X008294Y007776D01*
X005844Y010226D01*
X003544Y010226D01*
X003514Y010228D01*
X003484Y010233D01*
X003455Y010242D01*
X003428Y010255D01*
X003402Y010270D01*
X003378Y010289D01*
X003357Y010310D01*
X003338Y010334D01*
X003323Y010360D01*
X003310Y010387D01*
X003301Y010416D01*
X003296Y010446D01*
X003294Y010476D01*
X003294Y011476D01*
X005044Y011476D01*
X005049Y011447D01*
X005056Y011418D01*
X005067Y011390D01*
X005081Y011364D01*
X005098Y011339D01*
X005118Y011316D01*
X005139Y011296D01*
X005163Y011278D01*
X005189Y011263D01*
X005217Y011252D01*
X005245Y011243D01*
X005274Y011237D01*
X005304Y011235D01*
X005334Y011236D01*
X006434Y011236D01*
X008334Y009336D01*
X014484Y009336D01*
X014510Y009334D01*
X014536Y009329D01*
X014561Y009321D01*
X014584Y009309D01*
X014606Y009295D01*
X014625Y009277D01*
X014643Y009258D01*
X014657Y009236D01*
X014669Y009213D01*
X014677Y009188D01*
X014682Y009162D01*
X014684Y009136D01*
X014684Y006896D01*
X014680Y006869D01*
X014673Y006843D01*
X014662Y006818D01*
X014648Y006795D01*
X014631Y006774D01*
X014611Y006756D01*
X014588Y006741D01*
X014564Y006729D01*
X014538Y006721D01*
X014511Y006717D01*
X014484Y006716D01*
X014284Y006716D01*
X014258Y006714D01*
X014232Y006709D01*
X014207Y006701D01*
X014184Y006689D01*
X014162Y006675D01*
X014143Y006657D01*
X014125Y006638D01*
X014111Y006616D01*
X014099Y006593D01*
X014091Y006568D01*
X014086Y006542D01*
X014084Y006516D01*
X014084Y006023D01*
X013034Y006023D01*
X013034Y006263D01*
X013034Y006264D02*
X013034Y006287D01*
X013030Y006310D01*
X013024Y006332D01*
X013014Y006353D01*
X013002Y006372D01*
X012987Y006389D01*
X012969Y006404D01*
X012950Y006417D01*
X012929Y006426D01*
X012907Y006432D01*
X012884Y006436D01*
X012644Y006436D01*
X012644Y006437D02*
X012621Y006440D01*
X012599Y006447D01*
X012578Y006457D01*
X012558Y006470D01*
X012541Y006486D01*
X012525Y006503D01*
X012513Y006523D01*
X012504Y006545D01*
X012497Y006567D01*
X012494Y006590D01*
X012495Y006614D01*
X012494Y006613D02*
X012494Y007563D01*
X011594Y007563D01*
X011594Y006613D01*
X011593Y006614D02*
X011594Y006590D01*
X011591Y006567D01*
X011584Y006545D01*
X011575Y006523D01*
X011563Y006503D01*
X011547Y006486D01*
X011530Y006470D01*
X011510Y006457D01*
X011489Y006447D01*
X011467Y006440D01*
X011444Y006437D01*
X011444Y006436D02*
X011006Y006436D01*
X010956Y006398D01*
X010908Y006357D01*
X010863Y006313D01*
X010821Y006267D01*
X010781Y006218D01*
X010745Y006166D01*
X010712Y006113D01*
X010682Y006058D01*
X010655Y006001D01*
X010632Y005942D01*
X010613Y005882D01*
X010597Y005821D01*
X010585Y005760D01*
X010576Y005697D01*
X010572Y005634D01*
X010571Y005572D01*
X010574Y005509D01*
X010581Y005446D01*
X010592Y005384D01*
X010606Y005323D01*
X010624Y005263D01*
X010646Y005204D01*
X010671Y005146D01*
X010700Y005090D01*
X010732Y005036D01*
X010767Y004984D01*
X010805Y004934D01*
X010846Y004886D01*
X010891Y004841D01*
X010937Y004799D01*
X010986Y004760D01*
X011038Y004724D01*
X011091Y004691D01*
X011147Y004661D01*
X011204Y004635D01*
X011262Y004612D01*
X011322Y004593D01*
X011383Y004577D01*
X011445Y004565D01*
X011507Y004557D01*
X011570Y004553D01*
X011633Y004552D01*
X011696Y004556D01*
X011758Y004563D01*
X011820Y004574D01*
X011882Y004588D01*
X011942Y004606D01*
X012001Y004628D01*
X012058Y004654D01*
X012059Y004653D02*
X012279Y004653D01*
X012479Y004453D01*
X012479Y004103D01*
X012478Y004103D02*
X012480Y004071D01*
X012485Y004039D01*
X012495Y004008D01*
X012508Y003978D01*
X012524Y003950D01*
X012543Y003924D01*
X012565Y003901D01*
X012590Y003880D01*
X012617Y003862D01*
X012646Y003848D01*
X012676Y003837D01*
X012708Y003829D01*
X012740Y003825D01*
X012772Y003825D01*
X012804Y003829D01*
X012836Y003837D01*
X012866Y003848D01*
X012895Y003862D01*
X012922Y003880D01*
X012947Y003901D01*
X012969Y003924D01*
X012988Y003950D01*
X013004Y003978D01*
X013017Y004008D01*
X013027Y004039D01*
X013032Y004071D01*
X013034Y004103D01*
X013034Y005123D01*
X014084Y005123D01*
X014084Y003586D01*
X014086Y003552D01*
X014092Y003519D01*
X014101Y003487D01*
X014114Y003456D01*
X014130Y003426D01*
X014149Y003399D01*
X014172Y003374D01*
X014197Y003351D01*
X014224Y003332D01*
X014254Y003316D01*
X014285Y003303D01*
X014317Y003294D01*
X014350Y003288D01*
X014384Y003286D01*
X014663Y003286D01*
X014663Y002126D01*
X008546Y002126D01*
X008516Y002128D01*
X008486Y002133D01*
X008457Y002142D01*
X008429Y002155D01*
X008403Y002170D01*
X008379Y002189D01*
X008358Y002211D01*
X008339Y002234D01*
X008323Y002261D01*
X008311Y002288D01*
X008301Y002317D01*
X008296Y002347D01*
X008294Y002378D01*
X015513Y002126D02*
X015513Y003286D01*
X020989Y003286D01*
X021023Y003290D01*
X021056Y003298D01*
X021088Y003310D01*
X021119Y003324D01*
X021148Y003342D01*
X021175Y003363D01*
X021200Y003386D01*
X021222Y003412D01*
X021242Y003440D01*
X021258Y003470D01*
X021271Y003502D01*
X021281Y003534D01*
X021287Y003568D01*
X021290Y003602D01*
X021289Y003636D01*
X021289Y004519D01*
X022349Y004519D01*
X022349Y002376D01*
X022347Y002346D01*
X022342Y002316D01*
X022333Y002287D01*
X022320Y002260D01*
X022305Y002234D01*
X022286Y002210D01*
X022265Y002189D01*
X022241Y002170D01*
X022215Y002155D01*
X022188Y002142D01*
X022159Y002133D01*
X022129Y002128D01*
X022099Y002126D01*
X015513Y002126D01*
X019189Y005929D02*
X020989Y005929D01*
X021023Y005927D01*
X021056Y005921D01*
X021088Y005912D01*
X021119Y005899D01*
X021149Y005883D01*
X021176Y005864D01*
X021201Y005841D01*
X021224Y005816D01*
X021243Y005789D01*
X021259Y005759D01*
X021272Y005728D01*
X021281Y005696D01*
X021287Y005663D01*
X021289Y005629D01*
X021289Y005369D01*
X022349Y005369D01*
X022349Y011926D01*
X022347Y011956D01*
X022342Y011986D01*
X022333Y012015D01*
X022320Y012042D01*
X022305Y012068D01*
X022286Y012092D01*
X022265Y012113D01*
X022241Y012132D01*
X022215Y012147D01*
X022188Y012160D01*
X022159Y012169D01*
X022129Y012174D01*
X022099Y012176D01*
X014854Y012176D01*
X014824Y012178D01*
X014794Y012183D01*
X014765Y012192D01*
X014738Y012205D01*
X014712Y012220D01*
X014688Y012239D01*
X014667Y012260D01*
X014648Y012284D01*
X014633Y012310D01*
X014620Y012337D01*
X014611Y012366D01*
X014606Y012396D01*
X014604Y012426D01*
X014604Y013826D01*
X013444Y013826D01*
X013444Y013186D01*
X013433Y013112D01*
X013418Y013040D01*
X013399Y012968D01*
X013377Y012898D01*
X013351Y012829D01*
X013321Y012761D01*
X013288Y012694D01*
X013252Y012630D01*
X013212Y012568D01*
X013169Y012507D01*
X013123Y012449D01*
X013075Y012393D01*
X013023Y012340D01*
X012969Y012290D01*
X012912Y012243D01*
X012853Y012198D01*
X012791Y012157D01*
X012728Y012119D01*
X012663Y012084D01*
X012595Y012053D01*
X012527Y012025D01*
X012457Y012001D01*
X012386Y011981D01*
X012314Y011964D01*
X012241Y011951D01*
X012168Y011941D01*
X012094Y011936D01*
X011544Y011936D01*
X011544Y010486D01*
X017327Y010486D01*
X017677Y010134D01*
X018677Y010134D01*
X018708Y010133D01*
X018739Y010128D01*
X018768Y010119D01*
X018797Y010107D01*
X018824Y010092D01*
X018848Y010073D01*
X018871Y010052D01*
X018890Y010028D01*
X018907Y010002D01*
X018920Y009974D01*
X018930Y009945D01*
X018936Y009915D01*
X018939Y009884D01*
X018939Y006179D01*
X018941Y006149D01*
X018946Y006119D01*
X018955Y006090D01*
X018968Y006063D01*
X018983Y006037D01*
X019002Y006013D01*
X019023Y005992D01*
X019047Y005973D01*
X019073Y005958D01*
X019100Y005945D01*
X019129Y005936D01*
X019159Y005931D01*
X019189Y005929D01*
X010744Y010486D02*
X010744Y011936D01*
X010194Y011936D01*
X010744Y010486D02*
X008784Y010486D01*
X006644Y012636D01*
X006644Y013176D01*
X006688Y013178D01*
X006731Y013184D01*
X006773Y013193D01*
X006815Y013206D01*
X006855Y013223D01*
X006894Y013243D01*
X006931Y013266D01*
X006965Y013293D01*
X006998Y013322D01*
X007027Y013355D01*
X007054Y013389D01*
X007077Y013426D01*
X007097Y013465D01*
X007114Y013505D01*
X007127Y013547D01*
X007136Y013589D01*
X007142Y013632D01*
X007144Y013676D01*
X007142Y013720D01*
X007136Y013763D01*
X007127Y013805D01*
X007114Y013847D01*
X007097Y013887D01*
X007077Y013926D01*
X007054Y013963D01*
X007027Y013997D01*
X006998Y014030D01*
X006965Y014059D01*
X006931Y014086D01*
X006894Y014109D01*
X006855Y014129D01*
X006815Y014146D01*
X006773Y014159D01*
X006731Y014168D01*
X006688Y014174D01*
X006644Y014176D01*
X006644Y015476D01*
X006642Y015499D01*
X006637Y015522D01*
X006628Y015544D01*
X006615Y015564D01*
X006600Y015582D01*
X006582Y015597D01*
X006562Y015610D01*
X006540Y015619D01*
X006517Y015624D01*
X006494Y015626D01*
X005044Y015626D01*
X005021Y015624D01*
X004998Y015619D01*
X004976Y015610D01*
X004956Y015597D01*
X004938Y015582D01*
X004923Y015564D01*
X004910Y015544D01*
X004901Y015522D01*
X004896Y015499D01*
X004894Y015476D01*
X004894Y015226D01*
X004744Y015076D02*
X004444Y014976D01*
X004418Y014967D01*
X004393Y014955D01*
X004370Y014939D01*
X004349Y014921D01*
X004331Y014900D01*
X004315Y014877D01*
X004303Y014852D01*
X004294Y014826D01*
X004294Y014226D01*
X004303Y014200D01*
X004315Y014175D01*
X004331Y014152D01*
X004349Y014131D01*
X004370Y014113D01*
X004393Y014097D01*
X004418Y014085D01*
X004444Y014076D01*
X004744Y013976D01*
X005044Y013526D02*
X005044Y012326D01*
X003294Y012326D01*
X003294Y017176D01*
X003296Y017206D01*
X003301Y017236D01*
X003310Y017265D01*
X003323Y017292D01*
X003338Y017318D01*
X003357Y017342D01*
X003378Y017363D01*
X003402Y017382D01*
X003428Y017397D01*
X003455Y017410D01*
X003484Y017419D01*
X003514Y017424D01*
X003544Y017426D01*
X014364Y017426D01*
X014393Y017424D01*
X014422Y017418D01*
X014451Y017408D01*
X014477Y017396D01*
X014502Y017380D01*
X014525Y017361D01*
X014546Y017340D01*
X014563Y017316D01*
X014578Y017290D01*
X014590Y017263D01*
X014598Y017235D01*
X014603Y017206D01*
X014604Y017176D01*
X014604Y014676D01*
X013444Y014676D01*
X013444Y016399D01*
X013424Y016443D01*
X013400Y016485D01*
X013373Y016525D01*
X013343Y016563D01*
X013310Y016598D01*
X013274Y016631D01*
X013236Y016661D01*
X013196Y016688D01*
X013153Y016711D01*
X013109Y016731D01*
X013064Y016748D01*
X013017Y016761D01*
X012970Y016770D01*
X012922Y016775D01*
X012873Y016777D01*
X012825Y016775D01*
X012777Y016769D01*
X012730Y016759D01*
X012683Y016746D01*
X012638Y016729D01*
X012537Y016636D02*
X009747Y016636D01*
X009747Y016635D02*
X009736Y016655D01*
X009722Y016674D01*
X009707Y016691D01*
X009689Y016706D01*
X009670Y016719D01*
X009650Y016729D01*
X009605Y016746D01*
X009558Y016759D01*
X009511Y016769D01*
X009463Y016775D01*
X009415Y016777D01*
X009366Y016775D01*
X009318Y016770D01*
X009271Y016761D01*
X009224Y016748D01*
X009179Y016731D01*
X009135Y016711D01*
X009092Y016688D01*
X009052Y016661D01*
X009014Y016631D01*
X008978Y016598D01*
X008945Y016563D01*
X008915Y016525D01*
X008888Y016485D01*
X008864Y016443D01*
X008844Y016399D01*
X008844Y013186D01*
X008855Y013112D01*
X008870Y013040D01*
X008889Y012968D01*
X008911Y012898D01*
X008937Y012829D01*
X008967Y012761D01*
X009000Y012694D01*
X009036Y012630D01*
X009076Y012568D01*
X009119Y012507D01*
X009165Y012449D01*
X009213Y012393D01*
X009265Y012340D01*
X009319Y012290D01*
X009376Y012243D01*
X009435Y012198D01*
X009497Y012157D01*
X009560Y012119D01*
X009625Y012084D01*
X009693Y012053D01*
X009761Y012025D01*
X009831Y012001D01*
X009902Y011981D01*
X009974Y011964D01*
X010047Y011951D01*
X010120Y011941D01*
X010194Y011936D01*
X004894Y015226D02*
X004881Y015197D01*
X004865Y015171D01*
X004846Y015146D01*
X004824Y015124D01*
X004799Y015105D01*
X004773Y015089D01*
X004744Y015076D01*
X004744Y013976D02*
X004782Y013950D01*
X004819Y013922D01*
X004854Y013891D01*
X004886Y013857D01*
X004916Y013822D01*
X004944Y013784D01*
X004968Y013744D01*
X004989Y013703D01*
X005008Y013660D01*
X005023Y013616D01*
X005035Y013571D01*
X005044Y013526D01*
X012538Y016635D02*
X012549Y016655D01*
X012563Y016674D01*
X012579Y016691D01*
X012597Y016706D01*
X012617Y016719D01*
X012637Y016729D01*
D11*
X011967Y013976D03*
X011520Y013976D03*
X010767Y013976D03*
X010320Y013976D03*
X016285Y009550D03*
X016732Y009550D03*
X011807Y005976D03*
X011360Y005976D03*
X011360Y005616D03*
X011807Y005616D03*
X011807Y005256D03*
X011807Y004896D03*
X011360Y004896D03*
X011360Y005256D03*
D12*
X011742Y014798D03*
X012226Y014798D03*
X010545Y014798D03*
X010061Y014798D03*
D13*
X010947Y014798D03*
X011341Y014798D03*
D14*
X012736Y014727D02*
X012736Y014971D01*
X012738Y014991D01*
X012743Y015010D01*
X012752Y015028D01*
X012764Y015044D01*
X012779Y015057D01*
X012796Y015068D01*
X012814Y015075D01*
X012834Y015079D01*
X012854Y015079D01*
X012874Y015075D01*
X012892Y015068D01*
X012909Y015057D01*
X012924Y015044D01*
X012936Y015028D01*
X012945Y015010D01*
X012950Y014991D01*
X012952Y014971D01*
X012953Y014971D02*
X012953Y014727D01*
X012952Y014727D02*
X012950Y014707D01*
X012945Y014688D01*
X012936Y014670D01*
X012924Y014654D01*
X012909Y014641D01*
X012892Y014630D01*
X012874Y014623D01*
X012854Y014619D01*
X012834Y014619D01*
X012814Y014623D01*
X012796Y014630D01*
X012779Y014641D01*
X012764Y014654D01*
X012752Y014670D01*
X012743Y014688D01*
X012738Y014707D01*
X012736Y014727D01*
X012736Y016223D02*
X012736Y016467D01*
X012738Y016487D01*
X012743Y016506D01*
X012752Y016524D01*
X012764Y016540D01*
X012779Y016553D01*
X012796Y016564D01*
X012814Y016571D01*
X012834Y016575D01*
X012854Y016575D01*
X012874Y016571D01*
X012892Y016564D01*
X012909Y016553D01*
X012924Y016540D01*
X012936Y016524D01*
X012945Y016506D01*
X012950Y016487D01*
X012952Y016467D01*
X012953Y016467D02*
X012953Y016223D01*
X012952Y016223D02*
X012950Y016203D01*
X012945Y016184D01*
X012936Y016166D01*
X012924Y016150D01*
X012909Y016137D01*
X012892Y016126D01*
X012874Y016119D01*
X012854Y016115D01*
X012834Y016115D01*
X012814Y016119D01*
X012796Y016126D01*
X012779Y016137D01*
X012764Y016150D01*
X012752Y016166D01*
X012743Y016184D01*
X012738Y016203D01*
X012736Y016223D01*
X009551Y016223D02*
X009551Y016467D01*
X009549Y016487D01*
X009544Y016506D01*
X009535Y016524D01*
X009523Y016540D01*
X009508Y016553D01*
X009491Y016564D01*
X009473Y016571D01*
X009453Y016575D01*
X009433Y016575D01*
X009413Y016571D01*
X009395Y016564D01*
X009378Y016553D01*
X009363Y016540D01*
X009351Y016524D01*
X009342Y016506D01*
X009337Y016487D01*
X009335Y016467D01*
X009335Y016223D01*
X009337Y016203D01*
X009342Y016184D01*
X009351Y016166D01*
X009363Y016150D01*
X009378Y016137D01*
X009395Y016126D01*
X009413Y016119D01*
X009433Y016115D01*
X009453Y016115D01*
X009473Y016119D01*
X009491Y016126D01*
X009508Y016137D01*
X009523Y016150D01*
X009535Y016166D01*
X009544Y016184D01*
X009549Y016203D01*
X009551Y016223D01*
X009551Y014971D02*
X009551Y014727D01*
X009549Y014707D01*
X009544Y014688D01*
X009535Y014670D01*
X009523Y014654D01*
X009508Y014641D01*
X009491Y014630D01*
X009473Y014623D01*
X009453Y014619D01*
X009433Y014619D01*
X009413Y014623D01*
X009395Y014630D01*
X009378Y014641D01*
X009363Y014654D01*
X009351Y014670D01*
X009342Y014688D01*
X009337Y014707D01*
X009335Y014727D01*
X009335Y014971D01*
X009337Y014991D01*
X009342Y015010D01*
X009351Y015028D01*
X009363Y015044D01*
X009378Y015057D01*
X009395Y015068D01*
X009413Y015075D01*
X009433Y015079D01*
X009453Y015079D01*
X009473Y015075D01*
X009491Y015068D01*
X009508Y015057D01*
X009523Y015044D01*
X009535Y015028D01*
X009544Y015010D01*
X009549Y014991D01*
X009551Y014971D01*
D15*
X009443Y014733D02*
X009443Y014733D01*
X009443Y014969D01*
X009443Y014969D01*
X009443Y014733D01*
X009443Y016229D02*
X009443Y016229D01*
X009443Y016465D01*
X009443Y016465D01*
X009443Y016229D01*
X012844Y016229D02*
X012844Y016229D01*
X012844Y016465D01*
X012844Y016465D01*
X012844Y016229D01*
X012844Y014733D02*
X012844Y014733D01*
X012844Y014969D01*
X012844Y014969D01*
X012844Y014733D01*
D16*
X011144Y015476D03*
X011144Y015826D03*
X012784Y006166D03*
X012784Y005566D03*
X012784Y004966D03*
D17*
X012759Y004166D03*
D18*
X012043Y007553D03*
D19*
X004750Y014329D03*
X004750Y014723D03*
D20*
X005794Y015334D03*
X005794Y013717D03*
D21*
X001715Y017958D03*
X001715Y001715D03*
X024538Y001715D03*
D22*
X020903Y003664D03*
X020903Y004364D03*
X020903Y005064D03*
D23*
X023611Y001321D02*
X023613Y001351D01*
X023619Y001380D01*
X023628Y001408D01*
X023641Y001434D01*
X023658Y001459D01*
X023677Y001482D01*
X023700Y001501D01*
X023724Y001518D01*
X023751Y001531D01*
X023779Y001540D01*
X023808Y001546D01*
X023838Y001548D01*
X023868Y001546D01*
X023897Y001540D01*
X023925Y001531D01*
X023951Y001518D01*
X023976Y001501D01*
X023999Y001482D01*
X024018Y001459D01*
X024035Y001435D01*
X024048Y001408D01*
X024057Y001380D01*
X024063Y001351D01*
X024065Y001321D01*
X024063Y001291D01*
X024057Y001262D01*
X024048Y001234D01*
X024035Y001208D01*
X024018Y001183D01*
X023999Y001160D01*
X023976Y001141D01*
X023952Y001124D01*
X023925Y001111D01*
X023897Y001102D01*
X023868Y001096D01*
X023838Y001094D01*
X023808Y001096D01*
X023779Y001102D01*
X023751Y001111D01*
X023725Y001124D01*
X023700Y001141D01*
X023677Y001160D01*
X023658Y001183D01*
X023641Y001207D01*
X023628Y001234D01*
X023619Y001262D01*
X023613Y001291D01*
X023611Y001321D01*
X001094Y017285D02*
X001096Y017315D01*
X001102Y017344D01*
X001111Y017372D01*
X001124Y017398D01*
X001141Y017423D01*
X001160Y017446D01*
X001183Y017465D01*
X001207Y017482D01*
X001234Y017495D01*
X001262Y017504D01*
X001291Y017510D01*
X001321Y017512D01*
X001351Y017510D01*
X001380Y017504D01*
X001408Y017495D01*
X001434Y017482D01*
X001459Y017465D01*
X001482Y017446D01*
X001501Y017423D01*
X001518Y017399D01*
X001531Y017372D01*
X001540Y017344D01*
X001546Y017315D01*
X001548Y017285D01*
X001546Y017255D01*
X001540Y017226D01*
X001531Y017198D01*
X001518Y017172D01*
X001501Y017147D01*
X001482Y017124D01*
X001459Y017105D01*
X001435Y017088D01*
X001408Y017075D01*
X001380Y017066D01*
X001351Y017060D01*
X001321Y017058D01*
X001291Y017060D01*
X001262Y017066D01*
X001234Y017075D01*
X001208Y017088D01*
X001183Y017105D01*
X001160Y017124D01*
X001141Y017147D01*
X001124Y017171D01*
X001111Y017198D01*
X001102Y017226D01*
X001096Y017255D01*
X001094Y017285D01*
D24*
X018109Y010161D03*
X018981Y007760D03*
D25*
X011144Y012736D03*
D26*
X016067Y005399D03*
X016067Y004899D03*
X016067Y004399D03*
X016067Y003899D03*
X018187Y003899D03*
X018187Y004399D03*
X018187Y004899D03*
X018187Y005399D03*
D27*
X017127Y004649D03*
D28*
X019005Y004696D03*
X019005Y004250D03*
X015807Y007266D03*
X015807Y007713D03*
X014695Y005316D03*
X014335Y005316D03*
X014335Y004870D03*
X014695Y004870D03*
X014695Y004223D03*
X014335Y004223D03*
X014335Y003776D03*
X014695Y003776D03*
D29*
X015541Y008760D03*
X015541Y009469D03*
D30*
X017620Y007972D03*
X017620Y007426D03*
D31*
X014836Y006374D03*
X014396Y006374D03*
D32*
X016312Y007287D03*
X016686Y007287D03*
X017060Y007287D03*
X017060Y008311D03*
X016686Y008311D03*
X016312Y008311D03*
D33*
X016315Y009038D03*
X016862Y009038D03*
D34*
X015852Y006673D03*
X015852Y006417D03*
X015852Y006161D03*
X015852Y005906D03*
X018155Y005906D03*
X018155Y006161D03*
X018155Y006417D03*
X018155Y006673D03*
D35*
X019961Y005962D03*
D36*
X018840Y004929D02*
X018821Y004918D01*
X018795Y004892D01*
X018776Y004860D01*
X018767Y004825D01*
X018767Y004706D01*
X018996Y004706D01*
X018996Y004687D01*
X018767Y004687D01*
X018767Y004629D01*
X018736Y004629D01*
X018688Y004677D01*
X018704Y004693D01*
X018722Y004725D01*
X018732Y004760D01*
X018732Y004879D01*
X018207Y004879D01*
X018207Y004919D01*
X018732Y004919D01*
X018732Y005037D01*
X018731Y005038D01*
X018801Y004968D01*
X018840Y004929D01*
X018839Y004931D02*
X018732Y004931D01*
X018732Y005009D02*
X018760Y005009D01*
X018774Y004852D02*
X018732Y004852D01*
X018732Y004774D02*
X018767Y004774D01*
X018705Y004695D02*
X018996Y004695D01*
X019015Y004695D02*
X019947Y004695D01*
X019947Y004617D02*
X019244Y004617D01*
X019244Y004568D02*
X019244Y004687D01*
X019015Y004687D01*
X019015Y004706D01*
X019244Y004706D01*
X019244Y004825D01*
X019241Y004834D01*
X019947Y004834D01*
X019947Y003807D01*
X018732Y003807D01*
X018732Y003879D01*
X018207Y003879D01*
X018207Y003919D01*
X018732Y003919D01*
X018732Y004037D01*
X018722Y004073D01*
X018704Y004105D01*
X018688Y004121D01*
X018727Y004160D01*
X018727Y004065D01*
X018832Y003960D01*
X019178Y003960D01*
X019284Y004065D01*
X019284Y004434D01*
X019216Y004501D01*
X019234Y004532D01*
X019244Y004568D01*
X019236Y004538D02*
X019947Y004538D01*
X019947Y004460D02*
X019258Y004460D01*
X019284Y004381D02*
X019947Y004381D01*
X019947Y004303D02*
X019284Y004303D01*
X019284Y004224D02*
X019947Y004224D01*
X019947Y004146D02*
X019284Y004146D01*
X019284Y004067D02*
X019947Y004067D01*
X019947Y003989D02*
X019208Y003989D01*
X018803Y003989D02*
X018732Y003989D01*
X018724Y004067D02*
X018727Y004067D01*
X018727Y004146D02*
X018713Y004146D01*
X018732Y003832D02*
X019947Y003832D01*
X019947Y003910D02*
X018207Y003910D01*
X018167Y003910D02*
X016652Y003910D01*
X016652Y003832D02*
X017642Y003832D01*
X017642Y003807D02*
X016652Y003807D01*
X016652Y004019D01*
X017642Y004019D01*
X017642Y003919D01*
X018167Y003919D01*
X018167Y003879D01*
X017642Y003879D01*
X017642Y003807D01*
X017642Y003989D02*
X016652Y003989D01*
X019244Y004774D02*
X019947Y004774D01*
X018155Y006162D02*
X018155Y006162D01*
X018155Y006417D01*
X018155Y006417D01*
X018155Y006209D01*
X018155Y006162D01*
X018155Y006161D01*
X017779Y006161D01*
X017779Y006156D01*
X017449Y006156D01*
X017422Y006158D01*
X017372Y006179D01*
X017334Y006217D01*
X017313Y006268D01*
X017310Y006295D01*
X017310Y006938D01*
X017348Y006976D01*
X017348Y007197D01*
X017357Y007189D01*
X017389Y007170D01*
X017425Y007161D01*
X017598Y007161D01*
X017598Y007403D01*
X017643Y007403D01*
X017643Y007161D01*
X017816Y007161D01*
X017851Y007170D01*
X017883Y007189D01*
X017909Y007215D01*
X017912Y007219D01*
X018208Y006922D01*
X017844Y006922D01*
X017739Y006817D01*
X017739Y006530D01*
X017779Y006490D01*
X017779Y006417D01*
X017779Y006330D01*
X017788Y006294D01*
X017791Y006289D01*
X017788Y006284D01*
X017779Y006249D01*
X017779Y006162D01*
X018155Y006162D01*
X018155Y006187D02*
X018155Y006187D01*
X018155Y006265D02*
X018155Y006265D01*
X018155Y006344D02*
X018155Y006344D01*
X018155Y006417D02*
X017779Y006417D01*
X018155Y006417D01*
X018155Y006417D01*
X017779Y006422D02*
X017310Y006422D01*
X017310Y006344D02*
X017779Y006344D01*
X017783Y006265D02*
X017314Y006265D01*
X017364Y006187D02*
X017779Y006187D01*
X017768Y006501D02*
X017310Y006501D01*
X017310Y006579D02*
X017739Y006579D01*
X017739Y006658D02*
X017310Y006658D01*
X017310Y006736D02*
X017739Y006736D01*
X017739Y006815D02*
X017310Y006815D01*
X017310Y006893D02*
X017816Y006893D01*
X018002Y007129D02*
X017348Y007129D01*
X017348Y007050D02*
X018080Y007050D01*
X018159Y006972D02*
X017344Y006972D01*
X017598Y007207D02*
X017643Y007207D01*
X017643Y007286D02*
X017598Y007286D01*
X017598Y007364D02*
X017643Y007364D01*
X017902Y007207D02*
X017923Y007207D01*
X017809Y008277D02*
X017369Y008277D01*
X017348Y008257D01*
X017348Y008622D01*
X017243Y008727D01*
X017107Y008727D01*
X017167Y008787D01*
X017167Y009290D01*
X017077Y009379D01*
X017077Y009504D01*
X017039Y009596D01*
X017022Y009613D01*
X017022Y009723D01*
X016916Y009828D01*
X016547Y009828D01*
X016508Y009790D01*
X016470Y009828D01*
X016297Y009828D01*
X016297Y009841D01*
X016249Y009959D01*
X016159Y010049D01*
X016041Y010097D01*
X015914Y010097D01*
X015796Y010049D01*
X015706Y009959D01*
X015659Y009846D01*
X015250Y009846D01*
X015144Y009740D01*
X015144Y009197D01*
X015250Y009092D01*
X015290Y009092D01*
X015270Y009087D01*
X015239Y009068D01*
X015212Y009042D01*
X015194Y009010D01*
X015184Y008975D01*
X015184Y008800D01*
X015501Y008800D01*
X015501Y008720D01*
X015184Y008720D01*
X015184Y008544D01*
X015194Y008509D01*
X015212Y008477D01*
X015239Y008451D01*
X015270Y008432D01*
X015306Y008423D01*
X015501Y008423D01*
X015501Y008720D01*
X015581Y008720D01*
X015581Y008800D01*
X015898Y008800D01*
X015898Y008975D01*
X015888Y009010D01*
X015870Y009042D01*
X015844Y009068D01*
X015812Y009087D01*
X015792Y009092D01*
X015832Y009092D01*
X015938Y009197D01*
X015938Y009300D01*
X016020Y009300D01*
X016010Y009290D01*
X016010Y008787D01*
X016062Y008734D01*
X016062Y008660D01*
X016024Y008622D01*
X016024Y008383D01*
X016009Y008399D01*
X015891Y008447D01*
X015838Y008447D01*
X015844Y008451D01*
X015870Y008477D01*
X015888Y008509D01*
X015898Y008544D01*
X015898Y008720D01*
X015581Y008720D01*
X015581Y008423D01*
X015704Y008423D01*
X015646Y008399D01*
X015556Y008309D01*
X015507Y008191D01*
X015507Y008064D01*
X015556Y007946D01*
X015567Y007935D01*
X015529Y007897D01*
X015529Y007528D01*
X015596Y007461D01*
X015578Y007430D01*
X015569Y007395D01*
X015569Y007275D01*
X015798Y007275D01*
X015798Y007257D01*
X015569Y007257D01*
X015569Y007138D01*
X015578Y007102D01*
X015597Y007070D01*
X015623Y007044D01*
X015655Y007026D01*
X015690Y007016D01*
X015798Y007016D01*
X015798Y007257D01*
X015816Y007257D01*
X015816Y007016D01*
X015924Y007016D01*
X015960Y007026D01*
X015992Y007044D01*
X016018Y007070D01*
X016024Y007081D01*
X016024Y006976D01*
X016062Y006938D01*
X016062Y006922D01*
X015541Y006922D01*
X015436Y006817D01*
X015436Y006747D01*
X015314Y006747D01*
X015196Y006699D01*
X015106Y006609D01*
X015098Y006589D01*
X015035Y006653D01*
X014872Y006653D01*
X014942Y006760D01*
X014946Y006836D01*
X014949Y006843D01*
X014949Y006889D01*
X014951Y006934D01*
X014949Y006941D01*
X014949Y009260D01*
X014824Y009476D01*
X014608Y009601D01*
X008443Y009601D01*
X006584Y011460D01*
X006486Y011501D01*
X005374Y011501D01*
X005361Y011504D01*
X005321Y011501D01*
X005309Y011501D01*
X005309Y013362D01*
X006455Y013362D01*
X006419Y013326D01*
X006379Y013228D01*
X006379Y012636D01*
X006379Y012584D01*
X006379Y012583D01*
X006399Y012534D01*
X006419Y012486D01*
X006419Y012486D01*
X006419Y012486D01*
X006456Y012448D01*
X008559Y010336D01*
X008559Y010336D01*
X008596Y010299D01*
X008633Y010261D01*
X008633Y010261D01*
X008634Y010261D01*
X008682Y010241D01*
X008730Y010221D01*
X008731Y010221D01*
X008784Y010221D01*
X008836Y010221D01*
X017217Y010221D01*
X017453Y009984D01*
X017453Y009984D01*
X017456Y009981D01*
X017475Y009934D01*
X017457Y009891D01*
X017457Y009764D01*
X017506Y009646D01*
X017596Y009556D01*
X017714Y009507D01*
X017809Y009507D01*
X017809Y008277D01*
X017809Y008306D02*
X017348Y008306D01*
X017348Y008385D02*
X017809Y008385D01*
X017809Y008463D02*
X017348Y008463D01*
X017348Y008542D02*
X017809Y008542D01*
X017809Y008620D02*
X017348Y008620D01*
X017271Y008699D02*
X017809Y008699D01*
X017809Y008777D02*
X017157Y008777D01*
X017167Y008856D02*
X017809Y008856D01*
X017809Y008934D02*
X017167Y008934D01*
X017167Y009013D02*
X017809Y009013D01*
X017809Y009091D02*
X017167Y009091D01*
X017167Y009170D02*
X017809Y009170D01*
X017809Y009248D02*
X017167Y009248D01*
X017130Y009327D02*
X017809Y009327D01*
X017809Y009405D02*
X017077Y009405D01*
X017077Y009484D02*
X017809Y009484D01*
X017590Y009562D02*
X017053Y009562D01*
X017022Y009641D02*
X017511Y009641D01*
X017476Y009719D02*
X017022Y009719D01*
X016947Y009798D02*
X017457Y009798D01*
X017457Y009876D02*
X016283Y009876D01*
X016250Y009955D02*
X017466Y009955D01*
X017403Y010033D02*
X016174Y010033D01*
X015781Y010033D02*
X008011Y010033D01*
X008089Y009955D02*
X015705Y009955D01*
X015672Y009876D02*
X008168Y009876D01*
X008246Y009798D02*
X015202Y009798D01*
X015144Y009719D02*
X008325Y009719D01*
X008403Y009641D02*
X015144Y009641D01*
X015144Y009562D02*
X014675Y009562D01*
X014810Y009484D02*
X015144Y009484D01*
X015144Y009405D02*
X014865Y009405D01*
X014824Y009476D02*
X014824Y009476D01*
X014824Y009476D01*
X014910Y009327D02*
X015144Y009327D01*
X015144Y009248D02*
X014949Y009248D01*
X014949Y009170D02*
X015172Y009170D01*
X015287Y009091D02*
X014949Y009091D01*
X014949Y009013D02*
X015195Y009013D01*
X015184Y008934D02*
X014949Y008934D01*
X014949Y008856D02*
X015184Y008856D01*
X015184Y008699D02*
X014949Y008699D01*
X014949Y008777D02*
X015501Y008777D01*
X015501Y008699D02*
X015581Y008699D01*
X015581Y008777D02*
X016019Y008777D01*
X016010Y008856D02*
X015898Y008856D01*
X015898Y008934D02*
X016010Y008934D01*
X016010Y009013D02*
X015887Y009013D01*
X015795Y009091D02*
X016010Y009091D01*
X016010Y009170D02*
X015910Y009170D01*
X015938Y009248D02*
X016010Y009248D01*
X016062Y008699D02*
X015898Y008699D01*
X015898Y008620D02*
X016024Y008620D01*
X016024Y008542D02*
X015897Y008542D01*
X015856Y008463D02*
X016024Y008463D01*
X016022Y008385D02*
X016024Y008385D01*
X015632Y008385D02*
X014949Y008385D01*
X014949Y008463D02*
X015226Y008463D01*
X015185Y008542D02*
X014949Y008542D01*
X014949Y008620D02*
X015184Y008620D01*
X015501Y008620D02*
X015581Y008620D01*
X015581Y008542D02*
X015501Y008542D01*
X015501Y008463D02*
X015581Y008463D01*
X015555Y008306D02*
X014949Y008306D01*
X014949Y008228D02*
X015523Y008228D01*
X015507Y008149D02*
X014949Y008149D01*
X014949Y008071D02*
X015507Y008071D01*
X015537Y007992D02*
X014949Y007992D01*
X014949Y007914D02*
X015545Y007914D01*
X015529Y007835D02*
X014949Y007835D01*
X014949Y007757D02*
X015529Y007757D01*
X015529Y007678D02*
X014949Y007678D01*
X014949Y007600D02*
X015529Y007600D01*
X015536Y007521D02*
X014949Y007521D01*
X014949Y007443D02*
X015586Y007443D01*
X015569Y007364D02*
X014949Y007364D01*
X014949Y007286D02*
X015569Y007286D01*
X015569Y007207D02*
X014949Y007207D01*
X014949Y007129D02*
X015571Y007129D01*
X015616Y007050D02*
X014949Y007050D01*
X014949Y006972D02*
X016028Y006972D01*
X016024Y007050D02*
X015998Y007050D01*
X015816Y007050D02*
X015798Y007050D01*
X015798Y007129D02*
X015816Y007129D01*
X015816Y007207D02*
X015798Y007207D01*
X015512Y006893D02*
X014949Y006893D01*
X014945Y006815D02*
X015436Y006815D01*
X015287Y006736D02*
X014927Y006736D01*
X014942Y006760D02*
X014942Y006760D01*
X014876Y006658D02*
X015155Y006658D01*
X014396Y005877D02*
X013871Y005353D01*
X013034Y005353D01*
X012784Y005103D01*
X012784Y004966D01*
X012784Y005566D02*
X012786Y005573D01*
X013654Y005573D01*
X013676Y005575D01*
X013697Y005580D01*
X013718Y005588D01*
X013736Y005600D01*
X013753Y005614D01*
X013767Y005631D01*
X013779Y005649D01*
X013787Y005670D01*
X013792Y005691D01*
X013794Y005713D01*
X013794Y005813D01*
X013784Y005823D01*
X013334Y005823D02*
X012984Y005823D01*
X012784Y006023D01*
X012784Y006166D01*
X008029Y006187D02*
X005714Y006187D01*
X005714Y006265D02*
X008029Y006265D01*
X008029Y006344D02*
X005714Y006344D01*
X005714Y006422D02*
X008029Y006422D01*
X008029Y006501D02*
X005714Y006501D01*
X005714Y006579D02*
X008029Y006579D01*
X008029Y006658D02*
X005714Y006658D01*
X005714Y006736D02*
X008029Y006736D01*
X008029Y006815D02*
X005714Y006815D01*
X005714Y006893D02*
X008029Y006893D01*
X008029Y006972D02*
X005714Y006972D01*
X005714Y007050D02*
X008029Y007050D01*
X008029Y007129D02*
X005714Y007129D01*
X005714Y007207D02*
X008029Y007207D01*
X008029Y007286D02*
X005714Y007286D01*
X005714Y007364D02*
X008029Y007364D01*
X008029Y007443D02*
X005714Y007443D01*
X005714Y007521D02*
X008029Y007521D01*
X008029Y007600D02*
X005714Y007600D01*
X005714Y007678D02*
X008016Y007678D01*
X008029Y007666D02*
X008029Y002430D01*
X008029Y002430D01*
X008029Y002377D01*
X008029Y002325D01*
X008029Y002324D01*
X008029Y002274D01*
X008108Y002084D01*
X008254Y001939D01*
X008444Y001860D01*
X008547Y001861D01*
X022201Y001861D01*
X022391Y001939D01*
X022536Y002084D01*
X022614Y002273D01*
X022614Y012028D01*
X022536Y012217D01*
X022391Y012362D01*
X022391Y012362D01*
X022201Y012441D01*
X014869Y012441D01*
X014869Y012478D01*
X014869Y013756D01*
X014879Y013766D01*
X014879Y014724D01*
X014869Y014734D01*
X014869Y017173D01*
X014871Y017272D01*
X014871Y017272D01*
X014797Y017461D01*
X014656Y017607D01*
X014656Y017607D01*
X014471Y017689D01*
X014419Y017690D01*
X014416Y017691D01*
X014366Y017691D01*
X014316Y017692D01*
X014314Y017691D01*
X003441Y017691D01*
X003252Y017612D01*
X003107Y017467D01*
X003029Y017278D01*
X003029Y010373D01*
X003107Y010184D01*
X003107Y010184D01*
X003252Y010039D01*
X003441Y009961D01*
X005734Y009961D01*
X008029Y007666D01*
X007938Y007757D02*
X005714Y007757D01*
X005714Y007835D02*
X007859Y007835D01*
X007781Y007914D02*
X005714Y007914D01*
X005714Y007971D02*
X005608Y008076D01*
X003459Y008076D01*
X003354Y007971D01*
X003354Y006022D01*
X003459Y005916D01*
X005608Y005916D01*
X005714Y006022D01*
X005714Y007971D01*
X005692Y007992D02*
X007702Y007992D01*
X007624Y008071D02*
X005614Y008071D01*
X006760Y008934D02*
X001192Y008934D01*
X001192Y008856D02*
X006839Y008856D01*
X006917Y008777D02*
X001192Y008777D01*
X001192Y008699D02*
X006996Y008699D01*
X007074Y008620D02*
X001192Y008620D01*
X001192Y008542D02*
X007153Y008542D01*
X007231Y008463D02*
X001192Y008463D01*
X001192Y008385D02*
X007310Y008385D01*
X007388Y008306D02*
X001192Y008306D01*
X001192Y008228D02*
X007467Y008228D01*
X007545Y008149D02*
X001192Y008149D01*
X001192Y008071D02*
X003454Y008071D01*
X003375Y007992D02*
X001192Y007992D01*
X001192Y007914D02*
X003354Y007914D01*
X003354Y007835D02*
X001192Y007835D01*
X001192Y007757D02*
X003354Y007757D01*
X003354Y007678D02*
X001192Y007678D01*
X001192Y007600D02*
X003354Y007600D01*
X003354Y007521D02*
X001192Y007521D01*
X001192Y007443D02*
X003354Y007443D01*
X003354Y007364D02*
X001192Y007364D01*
X001192Y007286D02*
X003354Y007286D01*
X003354Y007207D02*
X001192Y007207D01*
X001192Y007129D02*
X003354Y007129D01*
X003354Y007050D02*
X001192Y007050D01*
X001192Y006972D02*
X003354Y006972D01*
X003354Y006893D02*
X001192Y006893D01*
X001192Y006815D02*
X003354Y006815D01*
X003354Y006736D02*
X001192Y006736D01*
X001192Y006658D02*
X003354Y006658D01*
X003354Y006579D02*
X001192Y006579D01*
X001192Y006501D02*
X003354Y006501D01*
X003354Y006422D02*
X001192Y006422D01*
X001192Y006344D02*
X003354Y006344D01*
X003354Y006265D02*
X001192Y006265D01*
X001192Y006187D02*
X003354Y006187D01*
X003354Y006108D02*
X001192Y006108D01*
X001192Y006030D02*
X003354Y006030D01*
X003424Y005951D02*
X001192Y005951D01*
X001192Y005873D02*
X008029Y005873D01*
X008029Y005951D02*
X005643Y005951D01*
X005714Y006030D02*
X008029Y006030D01*
X008029Y006108D02*
X005714Y006108D01*
X008029Y005794D02*
X001192Y005794D01*
X001192Y005716D02*
X008029Y005716D01*
X008029Y005637D02*
X001192Y005637D01*
X001192Y005559D02*
X008029Y005559D01*
X008029Y005480D02*
X001192Y005480D01*
X001192Y005402D02*
X008029Y005402D01*
X008029Y005323D02*
X001192Y005323D01*
X001192Y005245D02*
X008029Y005245D01*
X008029Y005166D02*
X001192Y005166D01*
X001192Y005088D02*
X008029Y005088D01*
X008029Y005009D02*
X001192Y005009D01*
X001192Y004931D02*
X008029Y004931D01*
X008029Y004852D02*
X001192Y004852D01*
X001192Y004774D02*
X008029Y004774D01*
X008029Y004695D02*
X001192Y004695D01*
X001192Y004617D02*
X008029Y004617D01*
X008029Y004538D02*
X001192Y004538D01*
X001192Y004460D02*
X008029Y004460D01*
X008029Y004381D02*
X001192Y004381D01*
X001192Y004303D02*
X008029Y004303D01*
X008029Y004224D02*
X001192Y004224D01*
X001192Y004146D02*
X008029Y004146D01*
X008029Y004067D02*
X001192Y004067D01*
X001192Y003989D02*
X008029Y003989D01*
X008029Y003910D02*
X001192Y003910D01*
X001192Y003832D02*
X008029Y003832D01*
X008029Y003753D02*
X001192Y003753D01*
X001192Y003675D02*
X008029Y003675D01*
X008029Y003596D02*
X001192Y003596D01*
X001192Y003518D02*
X008029Y003518D01*
X008029Y003439D02*
X001192Y003439D01*
X001192Y003361D02*
X008029Y003361D01*
X008029Y003282D02*
X001192Y003282D01*
X001192Y003204D02*
X008029Y003204D01*
X008029Y003125D02*
X001192Y003125D01*
X001192Y003047D02*
X008029Y003047D01*
X008029Y002968D02*
X001192Y002968D01*
X001192Y002890D02*
X008029Y002890D01*
X008029Y002811D02*
X001192Y002811D01*
X001192Y002733D02*
X008029Y002733D01*
X008029Y002654D02*
X001192Y002654D01*
X001192Y002576D02*
X008029Y002576D01*
X008029Y002497D02*
X001192Y002497D01*
X001192Y002419D02*
X008029Y002419D01*
X008029Y002340D02*
X001192Y002340D01*
X001192Y002262D02*
X008034Y002262D01*
X008067Y002183D02*
X001192Y002183D01*
X001192Y002105D02*
X008099Y002105D01*
X008108Y002084D02*
X008108Y002084D01*
X008166Y002026D02*
X001192Y002026D01*
X001192Y001948D02*
X001517Y001948D01*
X001542Y001973D02*
X001456Y001888D01*
X001410Y001775D01*
X001410Y001654D01*
X001456Y001542D01*
X001542Y001456D01*
X001654Y001410D01*
X001775Y001410D01*
X001888Y001456D01*
X001973Y001542D01*
X002020Y001654D01*
X002020Y001775D01*
X001973Y001888D01*
X001888Y001973D01*
X001775Y002020D01*
X001654Y002020D01*
X001542Y001973D01*
X001449Y001869D02*
X001192Y001869D01*
X001192Y001791D02*
X001416Y001791D01*
X001410Y001712D02*
X001192Y001712D01*
X001192Y001634D02*
X001418Y001634D01*
X001451Y001555D02*
X001192Y001555D01*
X001192Y001477D02*
X001521Y001477D01*
X001427Y001192D02*
X001382Y001197D01*
X001297Y001232D01*
X001232Y001297D01*
X001197Y001382D01*
X001192Y001427D01*
X001192Y016833D01*
X001228Y016818D01*
X001414Y016818D01*
X001586Y016889D01*
X001717Y017021D01*
X001788Y017192D01*
X001788Y017378D01*
X001717Y017550D01*
X001586Y017681D01*
X001414Y017752D01*
X001228Y017752D01*
X001192Y017737D01*
X001192Y018145D01*
X001197Y018191D01*
X001232Y018275D01*
X001297Y018340D01*
X001381Y018375D01*
X001427Y018379D01*
X001480Y018379D01*
X024775Y018379D01*
X024777Y018378D01*
X024828Y018379D01*
X024829Y018379D01*
X024876Y018375D01*
X024963Y018340D01*
X025030Y018275D01*
X025067Y018189D01*
X025072Y018143D01*
X025072Y001430D01*
X025067Y001383D01*
X025030Y001297D01*
X024963Y001231D01*
X024876Y001196D01*
X024829Y001192D01*
X024827Y001192D01*
X024776Y001193D01*
X024775Y001192D01*
X024291Y001192D01*
X024305Y001228D01*
X024305Y001414D01*
X024234Y001586D01*
X024103Y001717D01*
X023931Y001788D01*
X023746Y001788D01*
X023574Y001717D01*
X023443Y001586D01*
X023371Y001414D01*
X023371Y001228D01*
X023386Y001192D01*
X001427Y001192D01*
X001287Y001241D02*
X023371Y001241D01*
X023371Y001320D02*
X001222Y001320D01*
X001195Y001398D02*
X023371Y001398D01*
X023397Y001477D02*
X001908Y001477D01*
X001979Y001555D02*
X023430Y001555D01*
X023491Y001634D02*
X002011Y001634D01*
X002020Y001712D02*
X023569Y001712D01*
X024108Y001712D02*
X024233Y001712D01*
X024233Y001654D02*
X024280Y001542D01*
X024366Y001456D01*
X024478Y001410D01*
X024599Y001410D01*
X024711Y001456D01*
X024797Y001542D01*
X024843Y001654D01*
X024843Y001775D01*
X024797Y001888D01*
X024711Y001973D01*
X024599Y002020D01*
X024478Y002020D01*
X024366Y001973D01*
X024280Y001888D01*
X024233Y001775D01*
X024233Y001654D01*
X024242Y001634D02*
X024186Y001634D01*
X024247Y001555D02*
X024274Y001555D01*
X024279Y001477D02*
X024345Y001477D01*
X024305Y001398D02*
X025068Y001398D01*
X025072Y001477D02*
X024732Y001477D01*
X024803Y001555D02*
X025072Y001555D01*
X025072Y001634D02*
X024835Y001634D01*
X024843Y001712D02*
X025072Y001712D01*
X025072Y001791D02*
X024837Y001791D01*
X024805Y001869D02*
X025072Y001869D01*
X025072Y001948D02*
X024737Y001948D01*
X025072Y002026D02*
X022478Y002026D01*
X022536Y002084D02*
X022536Y002084D01*
X022544Y002105D02*
X025072Y002105D01*
X025072Y002183D02*
X022577Y002183D01*
X022609Y002262D02*
X025072Y002262D01*
X025072Y002340D02*
X022614Y002340D01*
X022614Y002419D02*
X025072Y002419D01*
X025072Y002497D02*
X022614Y002497D01*
X022614Y002576D02*
X025072Y002576D01*
X025072Y002654D02*
X022614Y002654D01*
X022614Y002733D02*
X025072Y002733D01*
X025072Y002811D02*
X022614Y002811D01*
X022614Y002890D02*
X025072Y002890D01*
X025072Y002968D02*
X022614Y002968D01*
X022614Y003047D02*
X025072Y003047D01*
X025072Y003125D02*
X022614Y003125D01*
X022614Y003204D02*
X025072Y003204D01*
X025072Y003282D02*
X022614Y003282D01*
X022614Y003361D02*
X025072Y003361D01*
X025072Y003439D02*
X022614Y003439D01*
X022614Y003518D02*
X025072Y003518D01*
X025072Y003596D02*
X022614Y003596D01*
X022614Y003675D02*
X025072Y003675D01*
X025072Y003753D02*
X022614Y003753D01*
X022614Y003832D02*
X025072Y003832D01*
X025072Y003910D02*
X022614Y003910D01*
X022614Y003989D02*
X025072Y003989D01*
X025072Y004067D02*
X022614Y004067D01*
X022614Y004146D02*
X025072Y004146D01*
X025072Y004224D02*
X022614Y004224D01*
X022614Y004303D02*
X025072Y004303D01*
X025072Y004381D02*
X022614Y004381D01*
X022614Y004460D02*
X025072Y004460D01*
X025072Y004538D02*
X022614Y004538D01*
X022614Y004617D02*
X025072Y004617D01*
X025072Y004695D02*
X022614Y004695D01*
X022614Y004774D02*
X025072Y004774D01*
X025072Y004852D02*
X022614Y004852D01*
X022614Y004931D02*
X025072Y004931D01*
X025072Y005009D02*
X022614Y005009D01*
X022614Y005088D02*
X025072Y005088D01*
X025072Y005166D02*
X022614Y005166D01*
X022614Y005245D02*
X025072Y005245D01*
X025072Y005323D02*
X022614Y005323D01*
X022614Y005402D02*
X025072Y005402D01*
X025072Y005480D02*
X022614Y005480D01*
X022614Y005559D02*
X025072Y005559D01*
X025072Y005637D02*
X022614Y005637D01*
X022614Y005716D02*
X025072Y005716D01*
X025072Y005794D02*
X022614Y005794D01*
X022614Y005873D02*
X025072Y005873D01*
X025072Y005951D02*
X022614Y005951D01*
X022614Y006030D02*
X025072Y006030D01*
X025072Y006108D02*
X022614Y006108D01*
X022614Y006187D02*
X025072Y006187D01*
X025072Y006265D02*
X022614Y006265D01*
X022614Y006344D02*
X025072Y006344D01*
X025072Y006422D02*
X022614Y006422D01*
X022614Y006501D02*
X025072Y006501D01*
X025072Y006579D02*
X022614Y006579D01*
X022614Y006658D02*
X025072Y006658D01*
X025072Y006736D02*
X022614Y006736D01*
X022614Y006815D02*
X025072Y006815D01*
X025072Y006893D02*
X022614Y006893D01*
X022614Y006972D02*
X025072Y006972D01*
X025072Y007050D02*
X022614Y007050D01*
X022614Y007129D02*
X025072Y007129D01*
X025072Y007207D02*
X022614Y007207D01*
X022614Y007286D02*
X025072Y007286D01*
X025072Y007364D02*
X022614Y007364D01*
X022614Y007443D02*
X025072Y007443D01*
X025072Y007521D02*
X022614Y007521D01*
X022614Y007600D02*
X025072Y007600D01*
X025072Y007678D02*
X022614Y007678D01*
X022614Y007757D02*
X025072Y007757D01*
X025072Y007835D02*
X022614Y007835D01*
X022614Y007914D02*
X025072Y007914D01*
X025072Y007992D02*
X022614Y007992D01*
X022614Y008071D02*
X025072Y008071D01*
X025072Y008149D02*
X022614Y008149D01*
X022614Y008228D02*
X025072Y008228D01*
X025072Y008306D02*
X022614Y008306D01*
X022614Y008385D02*
X025072Y008385D01*
X025072Y008463D02*
X022614Y008463D01*
X022614Y008542D02*
X025072Y008542D01*
X025072Y008620D02*
X022614Y008620D01*
X022614Y008699D02*
X025072Y008699D01*
X025072Y008777D02*
X022614Y008777D01*
X022614Y008856D02*
X025072Y008856D01*
X025072Y008934D02*
X022614Y008934D01*
X022614Y009013D02*
X025072Y009013D01*
X025072Y009091D02*
X022614Y009091D01*
X022614Y009170D02*
X025072Y009170D01*
X025072Y009248D02*
X022614Y009248D01*
X022614Y009327D02*
X025072Y009327D01*
X025072Y009405D02*
X022614Y009405D01*
X022614Y009484D02*
X025072Y009484D01*
X025072Y009562D02*
X022614Y009562D01*
X022614Y009641D02*
X025072Y009641D01*
X025072Y009719D02*
X022614Y009719D01*
X022614Y009798D02*
X025072Y009798D01*
X025072Y009876D02*
X022614Y009876D01*
X022614Y009955D02*
X025072Y009955D01*
X025072Y010033D02*
X022614Y010033D01*
X022614Y010112D02*
X025072Y010112D01*
X025072Y010190D02*
X022614Y010190D01*
X022614Y010269D02*
X025072Y010269D01*
X025072Y010347D02*
X022614Y010347D01*
X022614Y010426D02*
X025072Y010426D01*
X025072Y010504D02*
X022614Y010504D01*
X022614Y010583D02*
X025072Y010583D01*
X025072Y010661D02*
X022614Y010661D01*
X022614Y010740D02*
X025072Y010740D01*
X025072Y010818D02*
X022614Y010818D01*
X022614Y010897D02*
X025072Y010897D01*
X025072Y010975D02*
X022614Y010975D01*
X022614Y011054D02*
X025072Y011054D01*
X025072Y011132D02*
X022614Y011132D01*
X022614Y011211D02*
X025072Y011211D01*
X025072Y011289D02*
X022614Y011289D01*
X022614Y011368D02*
X025072Y011368D01*
X025072Y011446D02*
X022614Y011446D01*
X022614Y011525D02*
X025072Y011525D01*
X025072Y011603D02*
X022614Y011603D01*
X022614Y011682D02*
X025072Y011682D01*
X025072Y011760D02*
X022614Y011760D01*
X022614Y011839D02*
X025072Y011839D01*
X025072Y011917D02*
X022614Y011917D01*
X022614Y011996D02*
X025072Y011996D01*
X025072Y012074D02*
X022595Y012074D01*
X022562Y012153D02*
X025072Y012153D01*
X025072Y012231D02*
X022522Y012231D01*
X022536Y012217D02*
X022536Y012217D01*
X022443Y012310D02*
X025072Y012310D01*
X025072Y012388D02*
X022328Y012388D01*
X025072Y012467D02*
X014869Y012467D01*
X014869Y012545D02*
X025072Y012545D01*
X025072Y012624D02*
X014869Y012624D01*
X014869Y012702D02*
X025072Y012702D01*
X025072Y012781D02*
X014869Y012781D01*
X014869Y012859D02*
X025072Y012859D01*
X025072Y012938D02*
X014869Y012938D01*
X014869Y013016D02*
X025072Y013016D01*
X025072Y013095D02*
X014869Y013095D01*
X014869Y013173D02*
X025072Y013173D01*
X025072Y013252D02*
X014869Y013252D01*
X014869Y013330D02*
X025072Y013330D01*
X025072Y013409D02*
X014869Y013409D01*
X014869Y013487D02*
X025072Y013487D01*
X025072Y013566D02*
X014869Y013566D01*
X014869Y013644D02*
X025072Y013644D01*
X025072Y013723D02*
X014869Y013723D01*
X014879Y013801D02*
X025072Y013801D01*
X025072Y013880D02*
X014879Y013880D01*
X014879Y013958D02*
X025072Y013958D01*
X025072Y014037D02*
X014879Y014037D01*
X014879Y014115D02*
X025072Y014115D01*
X025072Y014194D02*
X014879Y014194D01*
X014879Y014272D02*
X025072Y014272D01*
X025072Y014351D02*
X014879Y014351D01*
X014879Y014429D02*
X025072Y014429D01*
X025072Y014508D02*
X014879Y014508D01*
X014879Y014586D02*
X025072Y014586D01*
X025072Y014665D02*
X014879Y014665D01*
X014869Y014743D02*
X025072Y014743D01*
X025072Y014822D02*
X014869Y014822D01*
X014869Y014900D02*
X025072Y014900D01*
X025072Y014979D02*
X014869Y014979D01*
X014869Y015057D02*
X025072Y015057D01*
X025072Y015136D02*
X014869Y015136D01*
X014869Y015214D02*
X025072Y015214D01*
X025072Y015293D02*
X014869Y015293D01*
X014869Y015371D02*
X025072Y015371D01*
X025072Y015450D02*
X014869Y015450D01*
X014869Y015528D02*
X025072Y015528D01*
X025072Y015607D02*
X014869Y015607D01*
X014869Y015685D02*
X025072Y015685D01*
X025072Y015764D02*
X014869Y015764D01*
X014869Y015842D02*
X025072Y015842D01*
X025072Y015921D02*
X014869Y015921D01*
X014869Y015999D02*
X025072Y015999D01*
X025072Y016078D02*
X014869Y016078D01*
X014869Y016156D02*
X025072Y016156D01*
X025072Y016235D02*
X014869Y016235D01*
X014869Y016313D02*
X025072Y016313D01*
X025072Y016392D02*
X014869Y016392D01*
X014869Y016470D02*
X025072Y016470D01*
X025072Y016549D02*
X014869Y016549D01*
X014869Y016627D02*
X025072Y016627D01*
X025072Y016706D02*
X014869Y016706D01*
X014869Y016784D02*
X025072Y016784D01*
X025072Y016863D02*
X014869Y016863D01*
X014869Y016941D02*
X025072Y016941D01*
X025072Y017020D02*
X014869Y017020D01*
X014869Y017098D02*
X025072Y017098D01*
X025072Y017177D02*
X014869Y017177D01*
X014870Y017255D02*
X025072Y017255D01*
X025072Y017334D02*
X014846Y017334D01*
X014816Y017412D02*
X025072Y017412D01*
X025072Y017491D02*
X014768Y017491D01*
X014693Y017569D02*
X025072Y017569D01*
X025072Y017648D02*
X014563Y017648D01*
X014471Y017689D02*
X014471Y017689D01*
X012448Y016371D02*
X012448Y016150D01*
X012508Y016004D01*
X012620Y015893D01*
X012766Y015832D01*
X012923Y015832D01*
X013069Y015893D01*
X013179Y016002D01*
X013179Y015196D01*
X013069Y015305D01*
X012923Y015366D01*
X012766Y015366D01*
X012620Y015305D01*
X012508Y015194D01*
X012483Y015133D01*
X012470Y015147D01*
X012438Y015165D01*
X012402Y015175D01*
X012265Y015175D01*
X012265Y014837D01*
X012188Y014837D01*
X012188Y015175D01*
X012050Y015175D01*
X012042Y015172D01*
X012042Y015323D01*
X012051Y015421D01*
X011985Y015635D01*
X011985Y015635D01*
X011842Y015809D01*
X011644Y015914D01*
X011577Y015920D01*
X011563Y015926D01*
X011518Y015926D01*
X011473Y015930D01*
X011459Y015926D01*
X011423Y016013D01*
X011331Y016105D01*
X011209Y016156D01*
X011078Y016156D01*
X010957Y016105D01*
X010864Y016013D01*
X010829Y015929D01*
X010790Y015926D01*
X010744Y015926D01*
X010731Y015920D01*
X010662Y015914D01*
X010662Y015914D01*
X010455Y015807D01*
X010306Y015629D01*
X010236Y015407D01*
X010245Y015304D01*
X010245Y015172D01*
X010237Y015175D01*
X010100Y015175D01*
X010100Y014837D01*
X010022Y014837D01*
X010022Y015175D01*
X009885Y015175D01*
X009850Y015165D01*
X009818Y015147D01*
X009804Y015133D01*
X009779Y015194D01*
X009668Y015305D01*
X009522Y015366D01*
X009364Y015366D01*
X009218Y015305D01*
X009109Y015196D01*
X009109Y016002D01*
X009218Y015893D01*
X009364Y015832D01*
X009522Y015832D01*
X009668Y015893D01*
X009779Y016004D01*
X009839Y016150D01*
X009839Y016371D01*
X012448Y016371D01*
X012448Y016313D02*
X009839Y016313D01*
X009839Y016235D02*
X012448Y016235D01*
X012448Y016156D02*
X009839Y016156D01*
X009810Y016078D02*
X010929Y016078D01*
X010858Y015999D02*
X009774Y015999D01*
X009696Y015921D02*
X010733Y015921D01*
X010524Y015842D02*
X009546Y015842D01*
X009340Y015842D02*
X009109Y015842D01*
X009109Y015764D02*
X010419Y015764D01*
X010455Y015807D02*
X010455Y015807D01*
X010354Y015685D02*
X009109Y015685D01*
X009109Y015607D02*
X010299Y015607D01*
X010306Y015629D02*
X010306Y015629D01*
X010275Y015528D02*
X009109Y015528D01*
X009109Y015450D02*
X010250Y015450D01*
X010239Y015371D02*
X009109Y015371D01*
X009109Y015293D02*
X009206Y015293D01*
X009127Y015214D02*
X009109Y015214D01*
X009680Y015293D02*
X010245Y015293D01*
X010245Y015214D02*
X009758Y015214D01*
X009803Y015136D02*
X009807Y015136D01*
X010022Y015136D02*
X010100Y015136D01*
X010100Y015057D02*
X010022Y015057D01*
X010022Y014979D02*
X010100Y014979D01*
X010100Y014900D02*
X010022Y014900D01*
X010022Y014760D02*
X010100Y014760D01*
X010100Y014422D01*
X010237Y014422D01*
X010266Y014430D01*
X010313Y014382D01*
X010717Y014382D01*
X010717Y014254D01*
X010582Y014254D01*
X010515Y014187D01*
X010484Y014205D01*
X010449Y014214D01*
X010330Y014214D01*
X010330Y013985D01*
X010311Y013985D01*
X010311Y013966D01*
X010330Y013966D01*
X010330Y013737D01*
X010449Y013737D01*
X010484Y013747D01*
X010515Y013764D01*
X010582Y013697D01*
X010952Y013697D01*
X011057Y013803D01*
X011057Y013850D01*
X011067Y013855D01*
X011067Y013855D01*
X011067Y013855D01*
X011144Y013988D01*
X011220Y013855D01*
X011220Y013855D01*
X011220Y013855D01*
X011230Y013850D01*
X011230Y013803D01*
X011336Y013697D01*
X011705Y013697D01*
X011772Y013764D01*
X011803Y013747D01*
X011839Y013737D01*
X011958Y013737D01*
X011958Y013966D01*
X011976Y013966D01*
X011976Y013737D01*
X012095Y013737D01*
X012131Y013747D01*
X012163Y013765D01*
X012189Y013791D01*
X012208Y013823D01*
X012217Y013859D01*
X012217Y013966D01*
X011976Y013966D01*
X011976Y013985D01*
X011958Y013985D01*
X011958Y014214D01*
X011839Y014214D01*
X011803Y014205D01*
X011772Y014187D01*
X011705Y014254D01*
X011571Y014254D01*
X011571Y014382D01*
X011974Y014382D01*
X012022Y014430D01*
X012050Y014422D01*
X012188Y014422D01*
X012188Y014760D01*
X012265Y014760D01*
X012265Y014422D01*
X012402Y014422D01*
X012438Y014432D01*
X012470Y014450D01*
X012496Y014476D01*
X012512Y014504D01*
X012620Y014397D01*
X012766Y014336D01*
X012923Y014336D01*
X013069Y014397D01*
X013181Y014508D01*
X013203Y014563D01*
X013219Y014526D01*
X013239Y014506D01*
X013239Y013995D01*
X013219Y013976D01*
X013179Y013878D01*
X013179Y013208D01*
X013149Y013059D01*
X013021Y012761D01*
X012816Y012509D01*
X012550Y012324D01*
X012242Y012220D01*
X012083Y012201D01*
X011433Y012201D01*
X011486Y012223D01*
X011657Y012393D01*
X011749Y012615D01*
X011749Y012856D01*
X011657Y013078D01*
X011486Y013249D01*
X011264Y013341D01*
X011023Y013341D01*
X010801Y013249D01*
X010631Y013078D01*
X010539Y012856D01*
X010539Y012615D01*
X010631Y012393D01*
X010801Y012223D01*
X010854Y012201D01*
X010204Y012201D01*
X010045Y012220D01*
X009738Y012324D01*
X009471Y012509D01*
X009266Y012761D01*
X009138Y013059D01*
X009109Y013208D01*
X009109Y014506D01*
X009218Y014397D01*
X009364Y014336D01*
X009522Y014336D01*
X009668Y014397D01*
X009775Y014504D01*
X009792Y014476D01*
X009818Y014450D01*
X009850Y014432D01*
X009885Y014422D01*
X010022Y014422D01*
X010022Y014760D01*
X010022Y014743D02*
X010100Y014743D01*
X010100Y014665D02*
X010022Y014665D01*
X010022Y014586D02*
X010100Y014586D01*
X010100Y014508D02*
X010022Y014508D01*
X010022Y014429D02*
X010100Y014429D01*
X010264Y014429D02*
X010266Y014429D01*
X010311Y014214D02*
X010192Y014214D01*
X010156Y014205D01*
X010124Y014186D01*
X010098Y014160D01*
X010080Y014128D01*
X010070Y014093D01*
X010070Y013985D01*
X010311Y013985D01*
X010311Y014214D01*
X010311Y014194D02*
X010330Y014194D01*
X010330Y014115D02*
X010311Y014115D01*
X010311Y014037D02*
X010330Y014037D01*
X010311Y013966D02*
X010070Y013966D01*
X010070Y013859D01*
X010080Y013823D01*
X010098Y013791D01*
X010124Y013765D01*
X010156Y013747D01*
X010192Y013737D01*
X010311Y013737D01*
X010311Y013966D01*
X010311Y013958D02*
X010330Y013958D01*
X010330Y013880D02*
X010311Y013880D01*
X010311Y013801D02*
X010330Y013801D01*
X010092Y013801D02*
X009109Y013801D01*
X009109Y013723D02*
X010557Y013723D01*
X010977Y013723D02*
X011310Y013723D01*
X011232Y013801D02*
X011056Y013801D01*
X011081Y013880D02*
X011206Y013880D01*
X011161Y013958D02*
X011126Y013958D01*
X010717Y014272D02*
X009109Y014272D01*
X009109Y014194D02*
X010138Y014194D01*
X010076Y014115D02*
X009109Y014115D01*
X009109Y014037D02*
X010070Y014037D01*
X010070Y013958D02*
X009109Y013958D01*
X009109Y013880D02*
X010070Y013880D01*
X010503Y014194D02*
X010522Y014194D01*
X010717Y014351D02*
X009557Y014351D01*
X009700Y014429D02*
X009858Y014429D01*
X009329Y014351D02*
X009109Y014351D01*
X009109Y014429D02*
X009186Y014429D01*
X009109Y013644D02*
X013179Y013644D01*
X013179Y013566D02*
X009109Y013566D01*
X009109Y013487D02*
X013179Y013487D01*
X013179Y013409D02*
X009109Y013409D01*
X009109Y013330D02*
X010999Y013330D01*
X010809Y013252D02*
X009109Y013252D01*
X009116Y013173D02*
X010726Y013173D01*
X010647Y013095D02*
X009131Y013095D01*
X009157Y013016D02*
X010605Y013016D01*
X010573Y012938D02*
X009190Y012938D01*
X009224Y012859D02*
X010540Y012859D01*
X010539Y012781D02*
X009258Y012781D01*
X009314Y012702D02*
X010539Y012702D01*
X010539Y012624D02*
X009378Y012624D01*
X009442Y012545D02*
X010568Y012545D01*
X010600Y012467D02*
X009532Y012467D01*
X009645Y012388D02*
X010635Y012388D01*
X010714Y012310D02*
X009780Y012310D01*
X010010Y012231D02*
X010792Y012231D01*
X011495Y012231D02*
X012277Y012231D01*
X012508Y012310D02*
X011574Y012310D01*
X011652Y012388D02*
X012642Y012388D01*
X012755Y012467D02*
X011687Y012467D01*
X011720Y012545D02*
X012846Y012545D01*
X012910Y012624D02*
X011749Y012624D01*
X011749Y012702D02*
X012974Y012702D01*
X013030Y012781D02*
X011749Y012781D01*
X011747Y012859D02*
X013064Y012859D01*
X013097Y012938D02*
X011715Y012938D01*
X011682Y013016D02*
X013131Y013016D01*
X013156Y013095D02*
X011640Y013095D01*
X011562Y013173D02*
X013172Y013173D01*
X013179Y013252D02*
X011478Y013252D01*
X011289Y013330D02*
X013179Y013330D01*
X013179Y013723D02*
X011731Y013723D01*
X011958Y013801D02*
X011976Y013801D01*
X011976Y013880D02*
X011958Y013880D01*
X011958Y013958D02*
X011976Y013958D01*
X011976Y013985D02*
X012217Y013985D01*
X012217Y014093D01*
X012208Y014128D01*
X012189Y014160D01*
X012163Y014186D01*
X012131Y014205D01*
X012095Y014214D01*
X011976Y014214D01*
X011976Y013985D01*
X011976Y014037D02*
X011958Y014037D01*
X011958Y014115D02*
X011976Y014115D01*
X011976Y014194D02*
X011958Y014194D01*
X011785Y014194D02*
X011765Y014194D01*
X011571Y014272D02*
X013239Y014272D01*
X013239Y014194D02*
X012150Y014194D01*
X012211Y014115D02*
X013239Y014115D01*
X013239Y014037D02*
X012217Y014037D01*
X012217Y013958D02*
X013212Y013958D01*
X013179Y013880D02*
X012217Y013880D01*
X012195Y013801D02*
X013179Y013801D01*
X013239Y014351D02*
X012959Y014351D01*
X013102Y014429D02*
X013239Y014429D01*
X013237Y014508D02*
X013180Y014508D01*
X012730Y014351D02*
X011571Y014351D01*
X012021Y014429D02*
X012024Y014429D01*
X012188Y014429D02*
X012265Y014429D01*
X012265Y014508D02*
X012188Y014508D01*
X012188Y014586D02*
X012265Y014586D01*
X012265Y014665D02*
X012188Y014665D01*
X012188Y014743D02*
X012265Y014743D01*
X012265Y014900D02*
X012188Y014900D01*
X012188Y014979D02*
X012265Y014979D01*
X012265Y015057D02*
X012188Y015057D01*
X012188Y015136D02*
X012265Y015136D01*
X012481Y015136D02*
X012484Y015136D01*
X012529Y015214D02*
X012042Y015214D01*
X012042Y015293D02*
X012608Y015293D01*
X013081Y015293D02*
X013179Y015293D01*
X013179Y015371D02*
X012047Y015371D01*
X012051Y015421D02*
X012051Y015421D01*
X012042Y015450D02*
X013179Y015450D01*
X013179Y015528D02*
X012018Y015528D01*
X011994Y015607D02*
X013179Y015607D01*
X013179Y015685D02*
X011944Y015685D01*
X011879Y015764D02*
X013179Y015764D01*
X013179Y015842D02*
X012948Y015842D01*
X013097Y015921D02*
X013179Y015921D01*
X013176Y015999D02*
X013179Y015999D01*
X012741Y015842D02*
X011778Y015842D01*
X011842Y015809D02*
X011842Y015809D01*
X011842Y015809D01*
X011644Y015914D02*
X011644Y015914D01*
X011575Y015921D02*
X012592Y015921D01*
X012513Y015999D02*
X011429Y015999D01*
X011358Y016078D02*
X012478Y016078D01*
X013160Y015214D02*
X013179Y015214D01*
X012587Y014429D02*
X012429Y014429D01*
X009190Y015921D02*
X009109Y015921D01*
X009109Y015999D02*
X009112Y015999D01*
X006424Y013330D02*
X005309Y013330D01*
X005309Y013252D02*
X006388Y013252D01*
X006379Y013173D02*
X005309Y013173D01*
X005309Y013095D02*
X006379Y013095D01*
X006379Y013016D02*
X005309Y013016D01*
X005309Y012938D02*
X006379Y012938D01*
X006379Y012859D02*
X005309Y012859D01*
X005309Y012781D02*
X006379Y012781D01*
X006379Y012702D02*
X005309Y012702D01*
X005309Y012624D02*
X006379Y012624D01*
X006379Y012583D02*
X006379Y012583D01*
X006394Y012545D02*
X005309Y012545D01*
X005309Y012467D02*
X006438Y012467D01*
X006516Y012388D02*
X005309Y012388D01*
X005309Y012310D02*
X006594Y012310D01*
X006672Y012231D02*
X005309Y012231D01*
X005309Y012153D02*
X006750Y012153D01*
X006828Y012074D02*
X005309Y012074D01*
X005309Y011996D02*
X006907Y011996D01*
X006985Y011917D02*
X005309Y011917D01*
X005309Y011839D02*
X007063Y011839D01*
X007141Y011760D02*
X005309Y011760D01*
X005309Y011682D02*
X007219Y011682D01*
X007297Y011603D02*
X005309Y011603D01*
X005309Y011525D02*
X007375Y011525D01*
X007454Y011446D02*
X006598Y011446D01*
X006676Y011368D02*
X007532Y011368D01*
X007610Y011289D02*
X006755Y011289D01*
X006833Y011211D02*
X007688Y011211D01*
X007766Y011132D02*
X006912Y011132D01*
X006990Y011054D02*
X007844Y011054D01*
X007922Y010975D02*
X007069Y010975D01*
X007147Y010897D02*
X008000Y010897D01*
X008079Y010818D02*
X007226Y010818D01*
X007304Y010740D02*
X008157Y010740D01*
X008235Y010661D02*
X007383Y010661D01*
X007461Y010583D02*
X008313Y010583D01*
X008391Y010504D02*
X007540Y010504D01*
X007618Y010426D02*
X008469Y010426D01*
X008547Y010347D02*
X007697Y010347D01*
X007775Y010269D02*
X008626Y010269D01*
X008731Y010221D02*
X008731Y010221D01*
X008836Y010221D02*
X008836Y010221D01*
X007932Y010112D02*
X017325Y010112D01*
X017247Y010190D02*
X007854Y010190D01*
X006446Y009248D02*
X001192Y009248D01*
X001192Y009170D02*
X006525Y009170D01*
X006603Y009091D02*
X001192Y009091D01*
X001192Y009013D02*
X006682Y009013D01*
X006368Y009327D02*
X001192Y009327D01*
X001192Y009405D02*
X006289Y009405D01*
X006211Y009484D02*
X001192Y009484D01*
X001192Y009562D02*
X006132Y009562D01*
X006054Y009641D02*
X001192Y009641D01*
X001192Y009719D02*
X005975Y009719D01*
X005897Y009798D02*
X001192Y009798D01*
X001192Y009876D02*
X005818Y009876D01*
X005740Y009955D02*
X001192Y009955D01*
X001192Y010033D02*
X003266Y010033D01*
X003252Y010039D02*
X003252Y010039D01*
X003179Y010112D02*
X001192Y010112D01*
X001192Y010190D02*
X003104Y010190D01*
X003072Y010269D02*
X001192Y010269D01*
X001192Y010347D02*
X003039Y010347D01*
X003029Y010426D02*
X001192Y010426D01*
X001192Y010504D02*
X003029Y010504D01*
X003029Y010583D02*
X001192Y010583D01*
X001192Y010661D02*
X003029Y010661D01*
X003029Y010740D02*
X001192Y010740D01*
X001192Y010818D02*
X003029Y010818D01*
X003029Y010897D02*
X001192Y010897D01*
X001192Y010975D02*
X003029Y010975D01*
X003029Y011054D02*
X001192Y011054D01*
X001192Y011132D02*
X003029Y011132D01*
X003029Y011211D02*
X001192Y011211D01*
X001192Y011289D02*
X003029Y011289D01*
X003029Y011368D02*
X001192Y011368D01*
X001192Y011446D02*
X003029Y011446D01*
X003029Y011525D02*
X001192Y011525D01*
X001192Y011603D02*
X003029Y011603D01*
X003029Y011682D02*
X001192Y011682D01*
X001192Y011760D02*
X003029Y011760D01*
X003029Y011839D02*
X001192Y011839D01*
X001192Y011917D02*
X003029Y011917D01*
X003029Y011996D02*
X001192Y011996D01*
X001192Y012074D02*
X003029Y012074D01*
X003029Y012153D02*
X001192Y012153D01*
X001192Y012231D02*
X003029Y012231D01*
X003029Y012310D02*
X001192Y012310D01*
X001192Y012388D02*
X003029Y012388D01*
X003029Y012467D02*
X001192Y012467D01*
X001192Y012545D02*
X003029Y012545D01*
X003029Y012624D02*
X001192Y012624D01*
X001192Y012702D02*
X003029Y012702D01*
X003029Y012781D02*
X001192Y012781D01*
X001192Y012859D02*
X003029Y012859D01*
X003029Y012938D02*
X001192Y012938D01*
X001192Y013016D02*
X003029Y013016D01*
X003029Y013095D02*
X001192Y013095D01*
X001192Y013173D02*
X003029Y013173D01*
X003029Y013252D02*
X001192Y013252D01*
X001192Y013330D02*
X003029Y013330D01*
X003029Y013409D02*
X001192Y013409D01*
X001192Y013487D02*
X003029Y013487D01*
X003029Y013566D02*
X001192Y013566D01*
X001192Y013644D02*
X003029Y013644D01*
X003029Y013723D02*
X001192Y013723D01*
X001192Y013801D02*
X003029Y013801D01*
X003029Y013880D02*
X001192Y013880D01*
X001192Y013958D02*
X003029Y013958D01*
X003029Y014037D02*
X001192Y014037D01*
X001192Y014115D02*
X003029Y014115D01*
X003029Y014194D02*
X001192Y014194D01*
X001192Y014272D02*
X003029Y014272D01*
X003029Y014351D02*
X001192Y014351D01*
X001192Y014429D02*
X003029Y014429D01*
X003029Y014508D02*
X001192Y014508D01*
X001192Y014586D02*
X003029Y014586D01*
X003029Y014665D02*
X001192Y014665D01*
X001192Y014743D02*
X003029Y014743D01*
X003029Y014822D02*
X001192Y014822D01*
X001192Y014900D02*
X003029Y014900D01*
X003029Y014979D02*
X001192Y014979D01*
X001192Y015057D02*
X003029Y015057D01*
X003029Y015136D02*
X001192Y015136D01*
X001192Y015214D02*
X003029Y015214D01*
X003029Y015293D02*
X001192Y015293D01*
X001192Y015371D02*
X003029Y015371D01*
X003029Y015450D02*
X001192Y015450D01*
X001192Y015528D02*
X003029Y015528D01*
X003029Y015607D02*
X001192Y015607D01*
X001192Y015685D02*
X003029Y015685D01*
X003029Y015764D02*
X001192Y015764D01*
X001192Y015842D02*
X003029Y015842D01*
X003029Y015921D02*
X001192Y015921D01*
X001192Y015999D02*
X003029Y015999D01*
X003029Y016078D02*
X001192Y016078D01*
X001192Y016156D02*
X003029Y016156D01*
X003029Y016235D02*
X001192Y016235D01*
X001192Y016313D02*
X003029Y016313D01*
X003029Y016392D02*
X001192Y016392D01*
X001192Y016470D02*
X003029Y016470D01*
X003029Y016549D02*
X001192Y016549D01*
X001192Y016627D02*
X003029Y016627D01*
X003029Y016706D02*
X001192Y016706D01*
X001192Y016784D02*
X003029Y016784D01*
X003029Y016863D02*
X001522Y016863D01*
X001638Y016941D02*
X003029Y016941D01*
X003029Y017020D02*
X001716Y017020D01*
X001749Y017098D02*
X003029Y017098D01*
X003029Y017177D02*
X001782Y017177D01*
X001788Y017255D02*
X003029Y017255D01*
X003052Y017334D02*
X001788Y017334D01*
X001774Y017412D02*
X003084Y017412D01*
X003107Y017467D02*
X003107Y017467D01*
X003131Y017491D02*
X001741Y017491D01*
X001697Y017569D02*
X003209Y017569D01*
X003252Y017612D02*
X003252Y017612D01*
X003338Y017648D02*
X001619Y017648D01*
X001654Y017653D02*
X001775Y017653D01*
X001888Y017700D01*
X001973Y017785D01*
X002020Y017898D01*
X002020Y018019D01*
X001973Y018131D01*
X001888Y018217D01*
X001775Y018263D01*
X001654Y018263D01*
X001542Y018217D01*
X001456Y018131D01*
X001410Y018019D01*
X001410Y017898D01*
X001456Y017785D01*
X001542Y017700D01*
X001654Y017653D01*
X001515Y017726D02*
X001476Y017726D01*
X001448Y017805D02*
X001192Y017805D01*
X001192Y017883D02*
X001416Y017883D01*
X001410Y017962D02*
X001192Y017962D01*
X001192Y018040D02*
X001419Y018040D01*
X001451Y018119D02*
X001192Y018119D01*
X001200Y018197D02*
X001523Y018197D01*
X001480Y018379D02*
X001480Y018379D01*
X001427Y018379D02*
X001427Y018379D01*
X001332Y018354D02*
X024927Y018354D01*
X025029Y018276D02*
X001233Y018276D01*
X001907Y018197D02*
X025063Y018197D01*
X025072Y018119D02*
X001978Y018119D01*
X002011Y018040D02*
X025072Y018040D01*
X025072Y017962D02*
X002020Y017962D01*
X002014Y017883D02*
X025072Y017883D01*
X025072Y017805D02*
X001981Y017805D01*
X001914Y017726D02*
X025072Y017726D01*
X016517Y009798D02*
X016500Y009798D01*
X022223Y001869D02*
X024272Y001869D01*
X024240Y001791D02*
X002013Y001791D01*
X001981Y001869D02*
X008422Y001869D01*
X008444Y001860D02*
X008444Y001860D01*
X008254Y001939D02*
X008254Y001939D01*
X008254Y001939D01*
X008245Y001948D02*
X001913Y001948D01*
X022391Y001939D02*
X022391Y001939D01*
X022400Y001948D02*
X024340Y001948D01*
X024305Y001320D02*
X025040Y001320D01*
X024973Y001241D02*
X024305Y001241D01*
D37*
X020514Y003781D03*
X020514Y004131D03*
X019712Y004114D03*
X019412Y004114D03*
X019412Y004414D03*
X019412Y004714D03*
X019552Y005399D03*
X020352Y005399D03*
X017712Y006264D03*
X017712Y006564D03*
X017412Y006564D03*
X017412Y006264D03*
X018627Y007477D03*
X018627Y008077D03*
X017462Y008364D03*
X017462Y008664D03*
X017462Y008964D03*
X017262Y009214D03*
X017777Y009827D03*
X018477Y009827D03*
X015412Y007764D03*
X015412Y007464D03*
X015412Y007164D03*
X015612Y006964D03*
X014777Y006077D03*
X015127Y005727D03*
X014695Y004551D03*
X014335Y004551D03*
X015027Y003977D03*
X015377Y003977D03*
X016852Y004374D03*
X017127Y004649D03*
X017402Y004374D03*
X017402Y004924D03*
X016852Y004924D03*
X012469Y005088D03*
X012144Y005088D03*
X011019Y005034D03*
X010944Y006034D03*
X011419Y006209D03*
X012044Y007109D03*
X015012Y012614D03*
X012344Y016276D03*
X012044Y016276D03*
X011744Y016276D03*
X011444Y016276D03*
X011144Y016276D03*
X010844Y016276D03*
X010544Y016276D03*
X010244Y016276D03*
X009944Y016276D03*
X006112Y013214D03*
X006337Y013064D03*
X006112Y012914D03*
D38*
X005326Y014229D02*
X005226Y014329D01*
X004750Y014329D01*
X004750Y014723D02*
X005732Y014723D01*
X005782Y014773D01*
X010545Y014798D02*
X010545Y015317D01*
X010544Y015349D01*
X010547Y015381D01*
X010553Y015412D01*
X010562Y015443D01*
X010575Y015472D01*
X010591Y015499D01*
X010611Y015525D01*
X010632Y015548D01*
X010657Y015569D01*
X010683Y015587D01*
X010712Y015602D01*
X010741Y015613D01*
X010772Y015621D01*
X010804Y015626D01*
X010994Y015626D01*
X011144Y015826D01*
X011294Y015626D01*
X011504Y015626D01*
X011533Y015621D01*
X011562Y015614D01*
X011590Y015603D01*
X011616Y015589D01*
X011641Y015572D01*
X011663Y015553D01*
X011683Y015531D01*
X011701Y015507D01*
X011716Y015481D01*
X011728Y015454D01*
X011736Y015426D01*
X011742Y015396D01*
X011744Y015367D01*
X011743Y015337D01*
X011742Y015337D02*
X011742Y014798D01*
X011144Y015476D02*
X011144Y015566D01*
X011154Y015576D01*
X018109Y010161D02*
X018109Y007927D01*
X018064Y007972D01*
X017620Y007972D01*
X018109Y007927D02*
X018109Y007446D01*
X018677Y006877D01*
X018677Y005397D01*
X018599Y005399D01*
X018187Y005399D01*
X018187Y004899D02*
X017377Y004899D01*
X017127Y004649D01*
X016449Y005399D02*
X016067Y005399D01*
X015987Y006287D02*
X015527Y006287D01*
D39*
X019552Y005399D02*
X020352Y005399D01*
D40*
X020177Y005064D02*
X020177Y003677D01*
X020175Y003660D01*
X020171Y003643D01*
X020164Y003627D01*
X020154Y003613D01*
X020141Y003600D01*
X020127Y003590D01*
X020111Y003583D01*
X020094Y003579D01*
X020077Y003577D01*
X015727Y003577D01*
X016007Y003899D02*
X016007Y003967D01*
X015377Y003967D01*
X015377Y003977D01*
X015377Y003978D02*
X015374Y003943D01*
X015375Y003907D01*
X015379Y003872D01*
X015387Y003838D01*
X015398Y003804D01*
X015412Y003772D01*
X015430Y003741D01*
X015450Y003712D01*
X015473Y003686D01*
X015499Y003661D01*
X015527Y003640D01*
X015557Y003621D01*
X015589Y003606D01*
X015622Y003594D01*
X015657Y003585D01*
X015692Y003580D01*
X015727Y003578D01*
X016007Y003899D02*
X016067Y003899D01*
X016306Y003899D01*
X016067Y004399D02*
X015706Y004399D01*
X014789Y005366D01*
X014739Y005316D01*
X014695Y005316D01*
X014877Y005577D02*
X014477Y005577D01*
X014335Y005435D01*
X014335Y005316D01*
X014496Y005777D02*
X014396Y005877D01*
X014396Y006374D01*
X014836Y006374D02*
X014836Y006136D01*
X014777Y006077D01*
X014496Y005777D02*
X015077Y005777D01*
X015127Y005727D01*
X014877Y005577D02*
X015606Y004849D01*
X016017Y004849D01*
X016067Y004899D01*
X015027Y003977D02*
X015025Y003951D01*
X015020Y003925D01*
X015012Y003900D01*
X015000Y003876D01*
X014985Y003855D01*
X014968Y003835D01*
X014948Y003818D01*
X014926Y003803D01*
X014903Y003791D01*
X014878Y003783D01*
X014852Y003778D01*
X014826Y003776D01*
X014695Y003776D01*
X014335Y003776D01*
X014335Y004223D02*
X014335Y004551D01*
X014335Y004870D01*
X014695Y004870D02*
X014695Y004551D01*
X014695Y004223D01*
X012759Y004166D02*
X012759Y004448D01*
X012394Y004813D01*
X012244Y004813D01*
X012144Y004913D01*
X012144Y005088D01*
X012469Y005088D02*
X012587Y004966D01*
X012784Y004966D01*
X012784Y005566D02*
X012734Y005616D01*
X011807Y005616D01*
X011360Y005616D02*
X011360Y005976D01*
X011360Y006151D01*
X011419Y006209D01*
X011807Y005976D02*
X012000Y006166D01*
X012784Y006166D01*
X011807Y005256D02*
X011807Y004896D01*
X011360Y004896D02*
X011157Y004896D01*
X011019Y005034D01*
X011267Y005296D02*
X011360Y005256D01*
X011267Y005295D02*
X011235Y005295D01*
X011203Y005299D01*
X011171Y005306D01*
X011140Y005316D01*
X011111Y005329D01*
X011083Y005345D01*
X011057Y005365D01*
X011033Y005386D01*
X011011Y005410D01*
X010992Y005437D01*
X010976Y005465D01*
X010963Y005494D01*
X010953Y005525D01*
X010947Y005557D01*
X010943Y005589D01*
X010944Y005589D02*
X010944Y006034D01*
X010944Y005959D01*
X018187Y005399D02*
X018456Y005399D01*
X018527Y005327D01*
X018767Y005327D01*
X019031Y005064D01*
X020177Y005064D01*
X020903Y005064D01*
X020845Y005056D01*
X020714Y005056D01*
X020847Y004414D02*
X020514Y004131D01*
X020847Y004414D02*
X020903Y004364D01*
X020514Y003781D02*
X020656Y003664D01*
X020903Y003664D01*
X019005Y004250D02*
X018856Y004399D01*
X018187Y004399D01*
X011520Y013975D02*
X011494Y013977D01*
X011469Y013982D01*
X011445Y013991D01*
X011423Y014004D01*
X011402Y014019D01*
X011384Y014037D01*
X011369Y014058D01*
X011356Y014080D01*
X011347Y014104D01*
X011342Y014129D01*
X011340Y014155D01*
X011341Y014155D02*
X011341Y014798D01*
X010947Y014798D02*
X010947Y014155D01*
X010945Y014129D01*
X010940Y014104D01*
X010931Y014080D01*
X010918Y014058D01*
X010903Y014037D01*
X010885Y014019D01*
X010864Y014004D01*
X010842Y013991D01*
X010818Y013982D01*
X010793Y013977D01*
X010767Y013975D01*
D41*
X013334Y005823D03*
X013784Y005823D03*
D42*
X015377Y006127D02*
X015377Y006427D01*
X016449Y005399D02*
X017027Y005399D01*
X018627Y007477D02*
X018627Y008077D01*
X018477Y009827D02*
X017777Y009827D01*
D43*
X012043Y007553D02*
X012043Y007076D01*
X012044Y007076D01*
X012044Y007109D01*
D44*
X005326Y014229D03*
X005782Y014773D03*
D45*
X015977Y009777D03*
X015827Y008127D03*
X015377Y006427D03*
X015377Y006127D03*
X016727Y005399D03*
X017027Y005399D03*
D46*
X017449Y005906D02*
X018155Y005906D01*
X017449Y005906D02*
X017411Y005908D01*
X017373Y005913D01*
X017336Y005923D01*
X017300Y005936D01*
X017266Y005952D01*
X017233Y005972D01*
X017202Y005994D01*
X017174Y006020D01*
X017148Y006048D01*
X017126Y006079D01*
X017106Y006112D01*
X017090Y006146D01*
X017077Y006182D01*
X017067Y006219D01*
X017062Y006257D01*
X017060Y006295D01*
X017060Y007287D01*
X016686Y007287D02*
X016686Y007519D01*
X016684Y007547D01*
X016678Y007574D01*
X016668Y007600D01*
X016655Y007624D01*
X016639Y007646D01*
X016619Y007666D01*
X016597Y007682D01*
X016573Y007695D01*
X016547Y007705D01*
X016520Y007711D01*
X016492Y007713D01*
X015807Y007713D01*
X015827Y008127D02*
X016177Y008127D01*
X016312Y008262D01*
X016312Y008311D01*
X016312Y009035D01*
X016315Y009038D01*
X016314Y009038D01*
X016312Y009037D01*
X016312Y009035D01*
X016686Y008716D02*
X016827Y008857D01*
X016827Y009004D01*
X016862Y009038D01*
X016827Y009004D02*
X016827Y009454D01*
X016732Y009550D01*
X016732Y009523D01*
X016285Y009550D02*
X015977Y009550D01*
X015977Y009777D01*
X015977Y009550D02*
X015622Y009550D01*
X015541Y009469D01*
X016686Y008716D02*
X016686Y008311D01*
X016312Y007287D02*
X016312Y006012D01*
X016313Y006012D02*
X016307Y005992D01*
X016298Y005973D01*
X016287Y005955D01*
X016273Y005939D01*
X016256Y005926D01*
X016238Y005916D01*
X016218Y005908D01*
X016198Y005904D01*
X016177Y005903D01*
X016156Y005905D01*
X016156Y005906D02*
X015852Y005906D01*
D47*
X015852Y006161D02*
X015852Y006417D01*
X015987Y006287D02*
X015861Y006161D01*
X015852Y006161D01*
X015527Y006287D02*
X015517Y006287D01*
X015495Y006289D01*
X015474Y006294D01*
X015453Y006302D01*
X015435Y006314D01*
X015418Y006328D01*
X015404Y006345D01*
X015392Y006363D01*
X015384Y006384D01*
X015379Y006405D01*
X015377Y006427D01*
M02*
