G75*
G70*
%OFA0B0*%
%FSLAX24Y24*%
%IPPOS*%
%LPD*%
%AMOC8*
5,1,8,0,0,1.08239X$1,22.5*
%
%ADD10C,0.0050*%
%ADD11C,0.0004*%
%ADD12C,0.0433*%
%ADD13C,0.0500*%
%ADD14C,0.0709*%
%ADD15C,0.0000*%
%ADD16C,0.0454*%
%ADD17C,0.0984*%
%ADD18C,0.0800*%
%ADD19C,0.0850*%
%ADD20C,0.0787*%
%ADD21C,0.1378*%
D10*
X001427Y000927D02*
X024826Y000927D01*
X024825Y000927D02*
X024870Y000928D01*
X024913Y000934D01*
X024957Y000943D01*
X024999Y000956D01*
X025040Y000972D01*
X025079Y000992D01*
X025117Y001015D01*
X025152Y001042D01*
X025185Y001071D01*
X025215Y001104D01*
X025242Y001138D01*
X025266Y001175D01*
X025287Y001214D01*
X025305Y001255D01*
X025318Y001297D01*
X025328Y001340D01*
X025335Y001383D01*
X025337Y001427D01*
X025337Y018146D01*
X025334Y018189D01*
X025328Y018233D01*
X025318Y018276D01*
X025304Y018318D01*
X025287Y018358D01*
X025266Y018397D01*
X025242Y018434D01*
X025215Y018469D01*
X025184Y018501D01*
X025152Y018530D01*
X025116Y018556D01*
X025079Y018580D01*
X025040Y018599D01*
X024999Y018616D01*
X024956Y018628D01*
X024913Y018637D01*
X024870Y018643D01*
X024825Y018644D01*
X024826Y018644D02*
X001427Y018644D01*
X001383Y018642D01*
X001340Y018637D01*
X001298Y018627D01*
X001256Y018614D01*
X001216Y018598D01*
X001177Y018578D01*
X001141Y018554D01*
X001106Y018528D01*
X001074Y018499D01*
X001044Y018467D01*
X001018Y018432D01*
X000994Y018395D01*
X000974Y018357D01*
X000957Y018317D01*
X000944Y018275D01*
X000935Y018233D01*
X000929Y018189D01*
X000927Y018146D01*
X000927Y001427D01*
X000929Y001383D01*
X000935Y001340D01*
X000944Y001298D01*
X000957Y001256D01*
X000974Y001216D01*
X000994Y001177D01*
X001017Y001140D01*
X001044Y001106D01*
X001073Y001073D01*
X001106Y001044D01*
X001140Y001017D01*
X001177Y000994D01*
X001216Y000974D01*
X001256Y000957D01*
X001298Y000944D01*
X001340Y000935D01*
X001383Y000929D01*
X001427Y000927D01*
X008294Y002377D02*
X008294Y007776D01*
X005844Y010226D01*
X003544Y010226D01*
X003514Y010228D01*
X003484Y010233D01*
X003455Y010242D01*
X003428Y010255D01*
X003402Y010270D01*
X003378Y010289D01*
X003357Y010310D01*
X003338Y010334D01*
X003323Y010360D01*
X003310Y010387D01*
X003301Y010416D01*
X003296Y010446D01*
X003294Y010476D01*
X003294Y011476D01*
X005044Y011476D01*
X005049Y011447D01*
X005056Y011418D01*
X005067Y011390D01*
X005081Y011364D01*
X005098Y011339D01*
X005118Y011316D01*
X005139Y011296D01*
X005163Y011278D01*
X005189Y011263D01*
X005217Y011252D01*
X005245Y011243D01*
X005274Y011237D01*
X005304Y011235D01*
X005334Y011236D01*
X006434Y011236D01*
X008334Y009336D01*
X014484Y009336D01*
X014510Y009334D01*
X014536Y009329D01*
X014561Y009321D01*
X014584Y009309D01*
X014606Y009295D01*
X014625Y009277D01*
X014643Y009258D01*
X014657Y009236D01*
X014669Y009213D01*
X014677Y009188D01*
X014682Y009162D01*
X014684Y009136D01*
X014684Y006896D01*
X014680Y006869D01*
X014673Y006843D01*
X014662Y006818D01*
X014648Y006795D01*
X014631Y006774D01*
X014611Y006756D01*
X014588Y006741D01*
X014564Y006729D01*
X014538Y006721D01*
X014511Y006717D01*
X014484Y006716D01*
X014284Y006716D01*
X014258Y006714D01*
X014232Y006709D01*
X014207Y006701D01*
X014184Y006689D01*
X014162Y006675D01*
X014143Y006657D01*
X014125Y006638D01*
X014111Y006616D01*
X014099Y006593D01*
X014091Y006568D01*
X014086Y006542D01*
X014084Y006516D01*
X014084Y006023D01*
X013034Y006023D01*
X013034Y006263D01*
X013034Y006264D02*
X013034Y006287D01*
X013030Y006310D01*
X013024Y006332D01*
X013014Y006353D01*
X013002Y006372D01*
X012987Y006389D01*
X012969Y006404D01*
X012950Y006417D01*
X012929Y006426D01*
X012907Y006432D01*
X012884Y006436D01*
X012644Y006436D01*
X012644Y006437D02*
X012621Y006440D01*
X012599Y006447D01*
X012578Y006457D01*
X012558Y006470D01*
X012541Y006486D01*
X012525Y006503D01*
X012513Y006523D01*
X012504Y006545D01*
X012497Y006567D01*
X012494Y006590D01*
X012495Y006614D01*
X012494Y006613D02*
X012494Y007563D01*
X011594Y007563D01*
X011594Y006613D01*
X011593Y006614D02*
X011594Y006590D01*
X011591Y006567D01*
X011584Y006545D01*
X011575Y006523D01*
X011563Y006503D01*
X011547Y006486D01*
X011530Y006470D01*
X011510Y006457D01*
X011489Y006447D01*
X011467Y006440D01*
X011444Y006437D01*
X011444Y006436D02*
X011006Y006436D01*
X010956Y006398D01*
X010908Y006357D01*
X010863Y006313D01*
X010821Y006267D01*
X010781Y006218D01*
X010745Y006166D01*
X010712Y006113D01*
X010682Y006058D01*
X010655Y006001D01*
X010632Y005942D01*
X010613Y005882D01*
X010597Y005821D01*
X010585Y005760D01*
X010576Y005697D01*
X010572Y005634D01*
X010571Y005572D01*
X010574Y005509D01*
X010581Y005446D01*
X010592Y005384D01*
X010606Y005323D01*
X010624Y005263D01*
X010646Y005204D01*
X010671Y005146D01*
X010700Y005090D01*
X010732Y005036D01*
X010767Y004984D01*
X010805Y004934D01*
X010846Y004886D01*
X010891Y004841D01*
X010937Y004799D01*
X010986Y004760D01*
X011038Y004724D01*
X011091Y004691D01*
X011147Y004661D01*
X011204Y004635D01*
X011262Y004612D01*
X011322Y004593D01*
X011383Y004577D01*
X011445Y004565D01*
X011507Y004557D01*
X011570Y004553D01*
X011633Y004552D01*
X011696Y004556D01*
X011758Y004563D01*
X011820Y004574D01*
X011882Y004588D01*
X011942Y004606D01*
X012001Y004628D01*
X012058Y004654D01*
X012059Y004653D02*
X012279Y004653D01*
X012479Y004453D01*
X012479Y004103D01*
X012478Y004103D02*
X012480Y004071D01*
X012485Y004039D01*
X012495Y004008D01*
X012508Y003978D01*
X012524Y003950D01*
X012543Y003924D01*
X012565Y003901D01*
X012590Y003880D01*
X012617Y003862D01*
X012646Y003848D01*
X012676Y003837D01*
X012708Y003829D01*
X012740Y003825D01*
X012772Y003825D01*
X012804Y003829D01*
X012836Y003837D01*
X012866Y003848D01*
X012895Y003862D01*
X012922Y003880D01*
X012947Y003901D01*
X012969Y003924D01*
X012988Y003950D01*
X013004Y003978D01*
X013017Y004008D01*
X013027Y004039D01*
X013032Y004071D01*
X013034Y004103D01*
X013034Y005123D01*
X014084Y005123D01*
X014084Y003586D01*
X014086Y003552D01*
X014092Y003519D01*
X014101Y003487D01*
X014114Y003456D01*
X014130Y003426D01*
X014149Y003399D01*
X014172Y003374D01*
X014197Y003351D01*
X014224Y003332D01*
X014254Y003316D01*
X014285Y003303D01*
X014317Y003294D01*
X014350Y003288D01*
X014384Y003286D01*
X014663Y003286D01*
X014663Y002126D01*
X008546Y002126D01*
X008516Y002128D01*
X008486Y002133D01*
X008457Y002142D01*
X008429Y002155D01*
X008403Y002170D01*
X008379Y002189D01*
X008358Y002211D01*
X008339Y002234D01*
X008323Y002261D01*
X008311Y002288D01*
X008301Y002317D01*
X008296Y002347D01*
X008294Y002378D01*
X015513Y002126D02*
X015513Y003286D01*
X020989Y003286D01*
X021023Y003290D01*
X021056Y003298D01*
X021088Y003310D01*
X021119Y003324D01*
X021148Y003342D01*
X021175Y003363D01*
X021200Y003386D01*
X021222Y003412D01*
X021242Y003440D01*
X021258Y003470D01*
X021271Y003502D01*
X021281Y003534D01*
X021287Y003568D01*
X021290Y003602D01*
X021289Y003636D01*
X021289Y004519D01*
X022349Y004519D01*
X022349Y002376D01*
X022347Y002346D01*
X022342Y002316D01*
X022333Y002287D01*
X022320Y002260D01*
X022305Y002234D01*
X022286Y002210D01*
X022265Y002189D01*
X022241Y002170D01*
X022215Y002155D01*
X022188Y002142D01*
X022159Y002133D01*
X022129Y002128D01*
X022099Y002126D01*
X015513Y002126D01*
X019189Y005929D02*
X020989Y005929D01*
X021023Y005927D01*
X021056Y005921D01*
X021088Y005912D01*
X021119Y005899D01*
X021149Y005883D01*
X021176Y005864D01*
X021201Y005841D01*
X021224Y005816D01*
X021243Y005789D01*
X021259Y005759D01*
X021272Y005728D01*
X021281Y005696D01*
X021287Y005663D01*
X021289Y005629D01*
X021289Y005369D01*
X022349Y005369D01*
X022349Y011926D01*
X022347Y011956D01*
X022342Y011986D01*
X022333Y012015D01*
X022320Y012042D01*
X022305Y012068D01*
X022286Y012092D01*
X022265Y012113D01*
X022241Y012132D01*
X022215Y012147D01*
X022188Y012160D01*
X022159Y012169D01*
X022129Y012174D01*
X022099Y012176D01*
X014854Y012176D01*
X014824Y012178D01*
X014794Y012183D01*
X014765Y012192D01*
X014738Y012205D01*
X014712Y012220D01*
X014688Y012239D01*
X014667Y012260D01*
X014648Y012284D01*
X014633Y012310D01*
X014620Y012337D01*
X014611Y012366D01*
X014606Y012396D01*
X014604Y012426D01*
X014604Y013826D01*
X013444Y013826D01*
X013444Y013186D01*
X013433Y013112D01*
X013418Y013040D01*
X013399Y012968D01*
X013377Y012898D01*
X013351Y012829D01*
X013321Y012761D01*
X013288Y012694D01*
X013252Y012630D01*
X013212Y012568D01*
X013169Y012507D01*
X013123Y012449D01*
X013075Y012393D01*
X013023Y012340D01*
X012969Y012290D01*
X012912Y012243D01*
X012853Y012198D01*
X012791Y012157D01*
X012728Y012119D01*
X012663Y012084D01*
X012595Y012053D01*
X012527Y012025D01*
X012457Y012001D01*
X012386Y011981D01*
X012314Y011964D01*
X012241Y011951D01*
X012168Y011941D01*
X012094Y011936D01*
X011544Y011936D01*
X011544Y010486D01*
X017327Y010486D01*
X017677Y010134D01*
X018677Y010134D01*
X018708Y010133D01*
X018739Y010128D01*
X018768Y010119D01*
X018797Y010107D01*
X018824Y010092D01*
X018848Y010073D01*
X018871Y010052D01*
X018890Y010028D01*
X018907Y010002D01*
X018920Y009974D01*
X018930Y009945D01*
X018936Y009915D01*
X018939Y009884D01*
X018939Y006179D01*
X018941Y006149D01*
X018946Y006119D01*
X018955Y006090D01*
X018968Y006063D01*
X018983Y006037D01*
X019002Y006013D01*
X019023Y005992D01*
X019047Y005973D01*
X019073Y005958D01*
X019100Y005945D01*
X019129Y005936D01*
X019159Y005931D01*
X019189Y005929D01*
X010744Y010486D02*
X010744Y011936D01*
X010194Y011936D01*
X010744Y010486D02*
X008784Y010486D01*
X006644Y012636D01*
X006644Y013176D01*
X006688Y013178D01*
X006731Y013184D01*
X006773Y013193D01*
X006815Y013206D01*
X006855Y013223D01*
X006894Y013243D01*
X006931Y013266D01*
X006965Y013293D01*
X006998Y013322D01*
X007027Y013355D01*
X007054Y013389D01*
X007077Y013426D01*
X007097Y013465D01*
X007114Y013505D01*
X007127Y013547D01*
X007136Y013589D01*
X007142Y013632D01*
X007144Y013676D01*
X007142Y013720D01*
X007136Y013763D01*
X007127Y013805D01*
X007114Y013847D01*
X007097Y013887D01*
X007077Y013926D01*
X007054Y013963D01*
X007027Y013997D01*
X006998Y014030D01*
X006965Y014059D01*
X006931Y014086D01*
X006894Y014109D01*
X006855Y014129D01*
X006815Y014146D01*
X006773Y014159D01*
X006731Y014168D01*
X006688Y014174D01*
X006644Y014176D01*
X006644Y015476D01*
X006642Y015499D01*
X006637Y015522D01*
X006628Y015544D01*
X006615Y015564D01*
X006600Y015582D01*
X006582Y015597D01*
X006562Y015610D01*
X006540Y015619D01*
X006517Y015624D01*
X006494Y015626D01*
X005044Y015626D01*
X005021Y015624D01*
X004998Y015619D01*
X004976Y015610D01*
X004956Y015597D01*
X004938Y015582D01*
X004923Y015564D01*
X004910Y015544D01*
X004901Y015522D01*
X004896Y015499D01*
X004894Y015476D01*
X004894Y015226D01*
X004744Y015076D02*
X004444Y014976D01*
X004418Y014967D01*
X004393Y014955D01*
X004370Y014939D01*
X004349Y014921D01*
X004331Y014900D01*
X004315Y014877D01*
X004303Y014852D01*
X004294Y014826D01*
X004294Y014226D01*
X004303Y014200D01*
X004315Y014175D01*
X004331Y014152D01*
X004349Y014131D01*
X004370Y014113D01*
X004393Y014097D01*
X004418Y014085D01*
X004444Y014076D01*
X004744Y013976D01*
X005044Y013526D02*
X005044Y012326D01*
X003294Y012326D01*
X003294Y017176D01*
X003296Y017206D01*
X003301Y017236D01*
X003310Y017265D01*
X003323Y017292D01*
X003338Y017318D01*
X003357Y017342D01*
X003378Y017363D01*
X003402Y017382D01*
X003428Y017397D01*
X003455Y017410D01*
X003484Y017419D01*
X003514Y017424D01*
X003544Y017426D01*
X014364Y017426D01*
X014393Y017424D01*
X014422Y017418D01*
X014451Y017408D01*
X014477Y017396D01*
X014502Y017380D01*
X014525Y017361D01*
X014546Y017340D01*
X014563Y017316D01*
X014578Y017290D01*
X014590Y017263D01*
X014598Y017235D01*
X014603Y017206D01*
X014604Y017176D01*
X014604Y014676D01*
X013444Y014676D01*
X013444Y016399D01*
X013424Y016443D01*
X013400Y016485D01*
X013373Y016525D01*
X013343Y016563D01*
X013310Y016598D01*
X013274Y016631D01*
X013236Y016661D01*
X013196Y016688D01*
X013153Y016711D01*
X013109Y016731D01*
X013064Y016748D01*
X013017Y016761D01*
X012970Y016770D01*
X012922Y016775D01*
X012873Y016777D01*
X012825Y016775D01*
X012777Y016769D01*
X012730Y016759D01*
X012683Y016746D01*
X012638Y016729D01*
X012537Y016636D02*
X009747Y016636D01*
X009747Y016635D02*
X009736Y016655D01*
X009722Y016674D01*
X009707Y016691D01*
X009689Y016706D01*
X009670Y016719D01*
X009650Y016729D01*
X009605Y016746D01*
X009558Y016759D01*
X009511Y016769D01*
X009463Y016775D01*
X009415Y016777D01*
X009366Y016775D01*
X009318Y016770D01*
X009271Y016761D01*
X009224Y016748D01*
X009179Y016731D01*
X009135Y016711D01*
X009092Y016688D01*
X009052Y016661D01*
X009014Y016631D01*
X008978Y016598D01*
X008945Y016563D01*
X008915Y016525D01*
X008888Y016485D01*
X008864Y016443D01*
X008844Y016399D01*
X008844Y013186D01*
X008855Y013112D01*
X008870Y013040D01*
X008889Y012968D01*
X008911Y012898D01*
X008937Y012829D01*
X008967Y012761D01*
X009000Y012694D01*
X009036Y012630D01*
X009076Y012568D01*
X009119Y012507D01*
X009165Y012449D01*
X009213Y012393D01*
X009265Y012340D01*
X009319Y012290D01*
X009376Y012243D01*
X009435Y012198D01*
X009497Y012157D01*
X009560Y012119D01*
X009625Y012084D01*
X009693Y012053D01*
X009761Y012025D01*
X009831Y012001D01*
X009902Y011981D01*
X009974Y011964D01*
X010047Y011951D01*
X010120Y011941D01*
X010194Y011936D01*
X004894Y015226D02*
X004881Y015197D01*
X004865Y015171D01*
X004846Y015146D01*
X004824Y015124D01*
X004799Y015105D01*
X004773Y015089D01*
X004744Y015076D01*
X004744Y013976D02*
X004782Y013950D01*
X004819Y013922D01*
X004854Y013891D01*
X004886Y013857D01*
X004916Y013822D01*
X004944Y013784D01*
X004968Y013744D01*
X004989Y013703D01*
X005008Y013660D01*
X005023Y013616D01*
X005035Y013571D01*
X005044Y013526D01*
X012538Y016635D02*
X012549Y016655D01*
X012563Y016674D01*
X012579Y016691D01*
X012597Y016706D01*
X012617Y016719D01*
X012637Y016729D01*
D11*
X012736Y016467D02*
X012736Y016223D01*
X012738Y016203D01*
X012743Y016184D01*
X012752Y016166D01*
X012764Y016150D01*
X012779Y016137D01*
X012796Y016126D01*
X012814Y016119D01*
X012834Y016115D01*
X012854Y016115D01*
X012874Y016119D01*
X012892Y016126D01*
X012909Y016137D01*
X012924Y016150D01*
X012936Y016166D01*
X012945Y016184D01*
X012950Y016203D01*
X012952Y016223D01*
X012953Y016223D02*
X012953Y016467D01*
X012952Y016467D02*
X012950Y016487D01*
X012945Y016506D01*
X012936Y016524D01*
X012924Y016540D01*
X012909Y016553D01*
X012892Y016564D01*
X012874Y016571D01*
X012854Y016575D01*
X012834Y016575D01*
X012814Y016571D01*
X012796Y016564D01*
X012779Y016553D01*
X012764Y016540D01*
X012752Y016524D01*
X012743Y016506D01*
X012738Y016487D01*
X012736Y016467D01*
X012736Y014971D02*
X012736Y014727D01*
X012738Y014707D01*
X012743Y014688D01*
X012752Y014670D01*
X012764Y014654D01*
X012779Y014641D01*
X012796Y014630D01*
X012814Y014623D01*
X012834Y014619D01*
X012854Y014619D01*
X012874Y014623D01*
X012892Y014630D01*
X012909Y014641D01*
X012924Y014654D01*
X012936Y014670D01*
X012945Y014688D01*
X012950Y014707D01*
X012952Y014727D01*
X012953Y014727D02*
X012953Y014971D01*
X012952Y014971D02*
X012950Y014991D01*
X012945Y015010D01*
X012936Y015028D01*
X012924Y015044D01*
X012909Y015057D01*
X012892Y015068D01*
X012874Y015075D01*
X012854Y015079D01*
X012834Y015079D01*
X012814Y015075D01*
X012796Y015068D01*
X012779Y015057D01*
X012764Y015044D01*
X012752Y015028D01*
X012743Y015010D01*
X012738Y014991D01*
X012736Y014971D01*
X009551Y014971D02*
X009551Y014727D01*
X009549Y014707D01*
X009544Y014688D01*
X009535Y014670D01*
X009523Y014654D01*
X009508Y014641D01*
X009491Y014630D01*
X009473Y014623D01*
X009453Y014619D01*
X009433Y014619D01*
X009413Y014623D01*
X009395Y014630D01*
X009378Y014641D01*
X009363Y014654D01*
X009351Y014670D01*
X009342Y014688D01*
X009337Y014707D01*
X009335Y014727D01*
X009335Y014971D01*
X009337Y014991D01*
X009342Y015010D01*
X009351Y015028D01*
X009363Y015044D01*
X009378Y015057D01*
X009395Y015068D01*
X009413Y015075D01*
X009433Y015079D01*
X009453Y015079D01*
X009473Y015075D01*
X009491Y015068D01*
X009508Y015057D01*
X009523Y015044D01*
X009535Y015028D01*
X009544Y015010D01*
X009549Y014991D01*
X009551Y014971D01*
X009551Y016223D02*
X009551Y016467D01*
X009549Y016487D01*
X009544Y016506D01*
X009535Y016524D01*
X009523Y016540D01*
X009508Y016553D01*
X009491Y016564D01*
X009473Y016571D01*
X009453Y016575D01*
X009433Y016575D01*
X009413Y016571D01*
X009395Y016564D01*
X009378Y016553D01*
X009363Y016540D01*
X009351Y016524D01*
X009342Y016506D01*
X009337Y016487D01*
X009335Y016467D01*
X009335Y016223D01*
X009337Y016203D01*
X009342Y016184D01*
X009351Y016166D01*
X009363Y016150D01*
X009378Y016137D01*
X009395Y016126D01*
X009413Y016119D01*
X009433Y016115D01*
X009453Y016115D01*
X009473Y016119D01*
X009491Y016126D01*
X009508Y016137D01*
X009523Y016150D01*
X009535Y016166D01*
X009544Y016184D01*
X009549Y016203D01*
X009551Y016223D01*
D12*
X009443Y016465D02*
X009443Y016465D01*
X009443Y016229D01*
X009443Y016229D01*
X009443Y016465D01*
X009443Y014969D02*
X009443Y014969D01*
X009443Y014733D01*
X009443Y014733D01*
X009443Y014969D01*
X012844Y014969D02*
X012844Y014969D01*
X012844Y014733D01*
X012844Y014733D01*
X012844Y014969D01*
X012844Y016465D02*
X012844Y016465D01*
X012844Y016229D01*
X012844Y016229D01*
X012844Y016465D01*
D13*
X012084Y005566D03*
X011084Y005566D03*
D14*
X012043Y007553D03*
D15*
X023611Y001321D02*
X023613Y001351D01*
X023619Y001380D01*
X023628Y001408D01*
X023641Y001434D01*
X023658Y001459D01*
X023677Y001482D01*
X023700Y001501D01*
X023724Y001518D01*
X023751Y001531D01*
X023779Y001540D01*
X023808Y001546D01*
X023838Y001548D01*
X023868Y001546D01*
X023897Y001540D01*
X023925Y001531D01*
X023951Y001518D01*
X023976Y001501D01*
X023999Y001482D01*
X024018Y001459D01*
X024035Y001435D01*
X024048Y001408D01*
X024057Y001380D01*
X024063Y001351D01*
X024065Y001321D01*
X024063Y001291D01*
X024057Y001262D01*
X024048Y001234D01*
X024035Y001208D01*
X024018Y001183D01*
X023999Y001160D01*
X023976Y001141D01*
X023952Y001124D01*
X023925Y001111D01*
X023897Y001102D01*
X023868Y001096D01*
X023838Y001094D01*
X023808Y001096D01*
X023779Y001102D01*
X023751Y001111D01*
X023725Y001124D01*
X023700Y001141D01*
X023677Y001160D01*
X023658Y001183D01*
X023641Y001207D01*
X023628Y001234D01*
X023619Y001262D01*
X023613Y001291D01*
X023611Y001321D01*
X001094Y017285D02*
X001096Y017315D01*
X001102Y017344D01*
X001111Y017372D01*
X001124Y017398D01*
X001141Y017423D01*
X001160Y017446D01*
X001183Y017465D01*
X001207Y017482D01*
X001234Y017495D01*
X001262Y017504D01*
X001291Y017510D01*
X001321Y017512D01*
X001351Y017510D01*
X001380Y017504D01*
X001408Y017495D01*
X001434Y017482D01*
X001459Y017465D01*
X001482Y017446D01*
X001501Y017423D01*
X001518Y017399D01*
X001531Y017372D01*
X001540Y017344D01*
X001546Y017315D01*
X001548Y017285D01*
X001546Y017255D01*
X001540Y017226D01*
X001531Y017198D01*
X001518Y017172D01*
X001501Y017147D01*
X001482Y017124D01*
X001459Y017105D01*
X001435Y017088D01*
X001408Y017075D01*
X001380Y017066D01*
X001351Y017060D01*
X001321Y017058D01*
X001291Y017060D01*
X001262Y017066D01*
X001234Y017075D01*
X001208Y017088D01*
X001183Y017105D01*
X001160Y017124D01*
X001141Y017147D01*
X001124Y017171D01*
X001111Y017198D01*
X001102Y017226D01*
X001096Y017255D01*
X001094Y017285D01*
D16*
X001321Y017285D03*
X023838Y001321D03*
D17*
X018981Y007760D03*
X018109Y010161D03*
D18*
X012144Y015386D03*
X010144Y015386D03*
D19*
X011144Y012736D03*
D20*
X006646Y013676D03*
D21*
X019961Y005962D03*
M02*
