G75*
G70*
%OFA0B0*%
%FSLAX24Y24*%
%IPPOS*%
%LPD*%
%AMOC8*
5,1,8,0,0,1.08239X$1,22.5*
%
%ADD10C,0.0050*%
%ADD11R,0.0197X0.0220*%
%ADD12R,0.0220X0.0197*%
%ADD13R,0.0315X0.0472*%
%ADD14R,0.0250X0.0472*%
%ADD15C,0.0004*%
%ADD16C,0.0450*%
%ADD17C,0.0120*%
%ADD18R,0.0600X0.0236*%
%ADD19R,0.1450X0.0350*%
%ADD20R,0.0250X0.0197*%
%ADD21R,0.0551X0.0236*%
%ADD22R,0.0551X0.1181*%
%ADD23R,0.0551X0.0906*%
%ADD24R,0.0354X0.0250*%
%ADD25R,0.0250X0.0354*%
D10*
X001284Y000534D02*
X024182Y000534D01*
X024182Y000533D02*
X024236Y000535D01*
X024290Y000540D01*
X024343Y000549D01*
X024396Y000562D01*
X024447Y000579D01*
X024497Y000599D01*
X024545Y000623D01*
X024592Y000650D01*
X024637Y000681D01*
X024679Y000714D01*
X024719Y000751D01*
X024756Y000790D01*
X024790Y000832D01*
X024821Y000876D01*
X024849Y000922D01*
X024873Y000970D01*
X024894Y001020D01*
X024912Y001071D01*
X024926Y001123D01*
X024936Y001176D01*
X024942Y001230D01*
X024944Y001283D01*
X024943Y001284D02*
X024943Y017502D01*
X024944Y017502D02*
X024942Y017556D01*
X024935Y017610D01*
X024925Y017663D01*
X024912Y017715D01*
X024894Y017766D01*
X024873Y017816D01*
X024849Y017864D01*
X024821Y017910D01*
X024789Y017954D01*
X024755Y017995D01*
X024718Y018034D01*
X024678Y018071D01*
X024636Y018104D01*
X024592Y018135D01*
X024545Y018162D01*
X024497Y018185D01*
X024447Y018206D01*
X024395Y018222D01*
X024343Y018235D01*
X024290Y018244D01*
X024236Y018250D01*
X024183Y018251D01*
X024182Y018250D02*
X013925Y018250D01*
X013925Y018222D01*
X013921Y018194D01*
X013914Y018167D01*
X013903Y018141D01*
X013889Y018117D01*
X013872Y018095D01*
X013852Y018075D01*
X013830Y018058D01*
X013806Y018044D01*
X013780Y018033D01*
X013753Y018026D01*
X013725Y018022D01*
X013575Y018022D01*
X013547Y018026D01*
X013520Y018033D01*
X013494Y018044D01*
X013470Y018058D01*
X013448Y018075D01*
X013428Y018095D01*
X013411Y018117D01*
X013397Y018141D01*
X013386Y018167D01*
X013379Y018194D01*
X013375Y018222D01*
X013375Y018250D01*
X008187Y018250D01*
X008187Y018222D01*
X008183Y018194D01*
X008176Y018167D01*
X008165Y018141D01*
X008151Y018117D01*
X008134Y018095D01*
X008114Y018075D01*
X008092Y018058D01*
X008068Y018044D01*
X008042Y018033D01*
X008015Y018026D01*
X007987Y018022D01*
X007837Y018022D01*
X007838Y018022D02*
X007809Y018026D01*
X007782Y018033D01*
X007756Y018043D01*
X007731Y018057D01*
X007708Y018074D01*
X007688Y018094D01*
X007670Y018116D01*
X007656Y018141D01*
X007644Y018167D01*
X007637Y018194D01*
X007633Y018222D01*
X007632Y018250D01*
X001284Y018250D01*
X001231Y018248D01*
X001177Y018243D01*
X001125Y018233D01*
X001073Y018220D01*
X001022Y018203D01*
X000973Y018183D01*
X000925Y018159D01*
X000879Y018132D01*
X000835Y018101D01*
X000793Y018068D01*
X000754Y018031D01*
X000718Y017992D01*
X000684Y017951D01*
X000653Y017907D01*
X000626Y017861D01*
X000602Y017813D01*
X000582Y017764D01*
X000565Y017713D01*
X000551Y017661D01*
X000542Y017609D01*
X000536Y017555D01*
X000534Y017502D01*
X000534Y001284D01*
X000536Y001230D01*
X000542Y001177D01*
X000551Y001125D01*
X000564Y001073D01*
X000581Y001022D01*
X000602Y000972D01*
X000626Y000925D01*
X000653Y000879D01*
X000684Y000835D01*
X000717Y000793D01*
X000754Y000754D01*
X000793Y000717D01*
X000835Y000684D01*
X000879Y000653D01*
X000925Y000626D01*
X000972Y000602D01*
X001022Y000581D01*
X001073Y000564D01*
X001125Y000551D01*
X001177Y000542D01*
X001230Y000536D01*
X001284Y000534D01*
X007900Y001984D02*
X007900Y007382D01*
X005450Y009832D01*
X003150Y009832D01*
X003120Y009834D01*
X003090Y009839D01*
X003061Y009848D01*
X003034Y009861D01*
X003008Y009876D01*
X002984Y009895D01*
X002963Y009916D01*
X002944Y009940D01*
X002929Y009966D01*
X002916Y009993D01*
X002907Y010022D01*
X002902Y010052D01*
X002900Y010082D01*
X002900Y011082D01*
X004650Y011082D01*
X004655Y011053D01*
X004662Y011024D01*
X004673Y010996D01*
X004687Y010970D01*
X004704Y010945D01*
X004724Y010922D01*
X004745Y010902D01*
X004769Y010884D01*
X004795Y010869D01*
X004823Y010858D01*
X004851Y010849D01*
X004880Y010843D01*
X004910Y010841D01*
X004940Y010842D01*
X006040Y010842D01*
X007940Y008942D01*
X014090Y008942D01*
X014116Y008940D01*
X014142Y008935D01*
X014167Y008927D01*
X014190Y008915D01*
X014212Y008901D01*
X014231Y008883D01*
X014249Y008864D01*
X014263Y008842D01*
X014275Y008819D01*
X014283Y008794D01*
X014288Y008768D01*
X014290Y008742D01*
X014290Y006502D01*
X014286Y006475D01*
X014279Y006449D01*
X014268Y006424D01*
X014254Y006401D01*
X014237Y006380D01*
X014217Y006362D01*
X014194Y006347D01*
X014170Y006335D01*
X014144Y006327D01*
X014117Y006323D01*
X014090Y006322D01*
X013890Y006322D01*
X013864Y006320D01*
X013838Y006315D01*
X013813Y006307D01*
X013790Y006295D01*
X013768Y006281D01*
X013749Y006263D01*
X013731Y006244D01*
X013717Y006222D01*
X013705Y006199D01*
X013697Y006174D01*
X013692Y006148D01*
X013690Y006122D01*
X013690Y005436D01*
X013690Y005437D02*
X013687Y005413D01*
X013681Y005391D01*
X013672Y005369D01*
X013660Y005349D01*
X013645Y005331D01*
X013628Y005315D01*
X013608Y005302D01*
X013587Y005292D01*
X013565Y005285D01*
X013542Y005281D01*
X013519Y005280D01*
X012785Y005280D01*
X012786Y005280D02*
X012763Y005284D01*
X012741Y005291D01*
X012720Y005301D01*
X012701Y005314D01*
X012684Y005330D01*
X012670Y005348D01*
X012658Y005368D01*
X012649Y005389D01*
X012643Y005411D01*
X012640Y005434D01*
X012641Y005457D01*
X012640Y005458D02*
X012640Y005520D01*
X012640Y005543D01*
X012636Y005566D01*
X012630Y005588D01*
X012620Y005609D01*
X012608Y005628D01*
X012593Y005645D01*
X012575Y005660D01*
X012556Y005673D01*
X012535Y005682D01*
X012513Y005688D01*
X012490Y005692D01*
X012300Y005692D01*
X012300Y005693D02*
X012277Y005696D01*
X012255Y005703D01*
X012234Y005713D01*
X012214Y005726D01*
X012197Y005742D01*
X012181Y005759D01*
X012169Y005779D01*
X012160Y005801D01*
X012153Y005823D01*
X012150Y005846D01*
X012151Y005870D01*
X012150Y005870D02*
X012150Y006820D01*
X011150Y006820D01*
X011150Y006320D01*
X011129Y006263D01*
X011106Y006207D01*
X011079Y006153D01*
X011049Y006100D01*
X011017Y006049D01*
X010981Y006000D01*
X010943Y005953D01*
X010903Y005908D01*
X010860Y005865D01*
X010814Y005825D01*
X010766Y005788D01*
X010717Y005753D01*
X010665Y005721D01*
X010612Y005692D01*
X010613Y005692D02*
X010563Y005654D01*
X010515Y005613D01*
X010470Y005569D01*
X010428Y005523D01*
X010388Y005474D01*
X010352Y005422D01*
X010319Y005369D01*
X010289Y005314D01*
X010262Y005257D01*
X010239Y005198D01*
X010220Y005138D01*
X010204Y005077D01*
X010192Y005016D01*
X010183Y004953D01*
X010179Y004890D01*
X010178Y004828D01*
X010181Y004765D01*
X010188Y004702D01*
X010199Y004640D01*
X010213Y004579D01*
X010231Y004519D01*
X010253Y004460D01*
X010278Y004402D01*
X010307Y004346D01*
X010339Y004292D01*
X010374Y004240D01*
X010412Y004190D01*
X010453Y004142D01*
X010498Y004097D01*
X010544Y004055D01*
X010593Y004016D01*
X010645Y003980D01*
X010698Y003947D01*
X010754Y003917D01*
X010811Y003891D01*
X010869Y003868D01*
X010929Y003849D01*
X010990Y003833D01*
X011052Y003821D01*
X011114Y003813D01*
X011177Y003809D01*
X011240Y003808D01*
X011303Y003812D01*
X011365Y003819D01*
X011427Y003830D01*
X011489Y003844D01*
X011549Y003862D01*
X011608Y003884D01*
X011665Y003910D01*
X011885Y003910D01*
X012085Y003710D01*
X012085Y003510D01*
X012087Y003478D01*
X012092Y003446D01*
X012102Y003415D01*
X012115Y003385D01*
X012131Y003357D01*
X012150Y003331D01*
X012172Y003308D01*
X012197Y003287D01*
X012224Y003269D01*
X012253Y003255D01*
X012283Y003244D01*
X012315Y003236D01*
X012347Y003232D01*
X012379Y003232D01*
X012411Y003236D01*
X012443Y003244D01*
X012473Y003255D01*
X012502Y003269D01*
X012529Y003287D01*
X012554Y003308D01*
X012576Y003331D01*
X012595Y003357D01*
X012611Y003385D01*
X012624Y003415D01*
X012634Y003446D01*
X012639Y003478D01*
X012641Y003510D01*
X012640Y003510D02*
X012640Y004231D01*
X012641Y004231D02*
X012644Y004254D01*
X012651Y004276D01*
X012661Y004297D01*
X012674Y004317D01*
X012689Y004334D01*
X012707Y004349D01*
X012727Y004361D01*
X012748Y004371D01*
X012771Y004377D01*
X012794Y004380D01*
X012817Y004379D01*
X012817Y004380D02*
X013540Y004380D01*
X013563Y004377D01*
X013585Y004370D01*
X013605Y004361D01*
X013625Y004349D01*
X013642Y004334D01*
X013657Y004317D01*
X013670Y004298D01*
X013679Y004277D01*
X013686Y004255D01*
X013689Y004233D01*
X013690Y004210D01*
X013690Y003192D01*
X013692Y003158D01*
X013698Y003125D01*
X013707Y003093D01*
X013720Y003062D01*
X013736Y003032D01*
X013755Y003005D01*
X013778Y002980D01*
X013803Y002957D01*
X013830Y002938D01*
X013860Y002922D01*
X013891Y002909D01*
X013923Y002900D01*
X013956Y002894D01*
X013990Y002892D01*
X014269Y002892D01*
X014269Y001732D01*
X008153Y001732D01*
X008152Y001732D02*
X008122Y001734D01*
X008092Y001739D01*
X008063Y001748D01*
X008035Y001761D01*
X008009Y001776D01*
X007985Y001795D01*
X007964Y001817D01*
X007945Y001840D01*
X007929Y001867D01*
X007917Y001894D01*
X007907Y001923D01*
X007902Y001953D01*
X007900Y001984D01*
X015119Y001732D02*
X015119Y002892D01*
X020595Y002892D01*
X020629Y002896D01*
X020662Y002904D01*
X020694Y002916D01*
X020725Y002930D01*
X020754Y002948D01*
X020781Y002969D01*
X020806Y002992D01*
X020828Y003018D01*
X020848Y003046D01*
X020864Y003076D01*
X020877Y003108D01*
X020887Y003140D01*
X020893Y003174D01*
X020896Y003208D01*
X020895Y003242D01*
X020895Y004126D01*
X021955Y004126D01*
X021955Y001982D01*
X021953Y001952D01*
X021948Y001922D01*
X021939Y001893D01*
X021926Y001866D01*
X021911Y001840D01*
X021892Y001816D01*
X021871Y001795D01*
X021847Y001776D01*
X021821Y001761D01*
X021794Y001748D01*
X021765Y001739D01*
X021735Y001734D01*
X021705Y001732D01*
X015119Y001732D01*
X018795Y005535D02*
X020595Y005535D01*
X020629Y005533D01*
X020662Y005527D01*
X020694Y005518D01*
X020725Y005505D01*
X020755Y005489D01*
X020782Y005470D01*
X020807Y005447D01*
X020830Y005422D01*
X020849Y005395D01*
X020865Y005365D01*
X020878Y005334D01*
X020887Y005302D01*
X020893Y005269D01*
X020895Y005235D01*
X020895Y004976D01*
X021955Y004976D01*
X021955Y011532D01*
X021953Y011562D01*
X021948Y011592D01*
X021939Y011621D01*
X021926Y011648D01*
X021911Y011674D01*
X021892Y011698D01*
X021871Y011719D01*
X021847Y011738D01*
X021821Y011753D01*
X021794Y011766D01*
X021765Y011775D01*
X021735Y011780D01*
X021705Y011782D01*
X014460Y011782D01*
X014430Y011784D01*
X014400Y011789D01*
X014371Y011798D01*
X014344Y011811D01*
X014318Y011826D01*
X014294Y011845D01*
X014273Y011866D01*
X014254Y011890D01*
X014239Y011916D01*
X014226Y011943D01*
X014217Y011972D01*
X014212Y012002D01*
X014210Y012032D01*
X014210Y014032D01*
X013050Y014032D01*
X013050Y013092D01*
X013051Y013092D02*
X013042Y013031D01*
X013029Y012972D01*
X013012Y012913D01*
X012992Y012855D01*
X012968Y012799D01*
X012941Y012744D01*
X012910Y012691D01*
X012876Y012641D01*
X012839Y012592D01*
X012798Y012546D01*
X012755Y012503D01*
X012709Y012462D01*
X012661Y012425D01*
X012611Y012390D01*
X012558Y012359D01*
X012504Y012332D01*
X012448Y012307D01*
X012390Y012287D01*
X012331Y012270D01*
X012272Y012257D01*
X012211Y012247D01*
X012150Y012242D01*
X010250Y012242D01*
X010250Y010092D01*
X016934Y010092D01*
X017284Y009740D01*
X018284Y009740D01*
X018315Y009739D01*
X018346Y009734D01*
X018375Y009725D01*
X018404Y009713D01*
X018431Y009698D01*
X018455Y009679D01*
X018478Y009658D01*
X018497Y009634D01*
X018514Y009608D01*
X018527Y009580D01*
X018537Y009551D01*
X018543Y009521D01*
X018546Y009490D01*
X018545Y009490D02*
X018545Y005785D01*
X018547Y005755D01*
X018552Y005725D01*
X018561Y005696D01*
X018574Y005669D01*
X018589Y005643D01*
X018608Y005619D01*
X018629Y005598D01*
X018653Y005579D01*
X018679Y005564D01*
X018706Y005551D01*
X018735Y005542D01*
X018765Y005537D01*
X018795Y005535D01*
X009450Y010092D02*
X009450Y012242D01*
X009400Y012242D01*
X008450Y013092D02*
X008450Y016006D01*
X008470Y016050D01*
X008494Y016092D01*
X008521Y016132D01*
X008551Y016170D01*
X008584Y016205D01*
X008620Y016238D01*
X008658Y016268D01*
X008698Y016295D01*
X008741Y016318D01*
X008785Y016338D01*
X008830Y016355D01*
X008877Y016368D01*
X008924Y016377D01*
X008972Y016382D01*
X009021Y016384D01*
X009069Y016382D01*
X009117Y016376D01*
X009164Y016366D01*
X009211Y016353D01*
X009256Y016336D01*
X009354Y016242D02*
X012144Y016242D01*
X012144Y016241D02*
X012155Y016261D01*
X012169Y016280D01*
X012185Y016297D01*
X012203Y016312D01*
X012223Y016325D01*
X012243Y016335D01*
X012244Y016336D02*
X012289Y016353D01*
X012336Y016366D01*
X012383Y016376D01*
X012431Y016382D01*
X012479Y016384D01*
X012528Y016382D01*
X012576Y016377D01*
X012623Y016368D01*
X012670Y016355D01*
X012715Y016338D01*
X012759Y016318D01*
X012802Y016295D01*
X012842Y016268D01*
X012880Y016238D01*
X012916Y016205D01*
X012949Y016170D01*
X012979Y016132D01*
X013006Y016092D01*
X013030Y016050D01*
X013050Y016006D01*
X013050Y014882D01*
X014210Y014882D01*
X014210Y016622D01*
X014209Y016652D01*
X014204Y016681D01*
X014196Y016709D01*
X014184Y016736D01*
X014169Y016762D01*
X014152Y016786D01*
X014131Y016807D01*
X014108Y016826D01*
X014083Y016842D01*
X014057Y016854D01*
X014028Y016864D01*
X013999Y016870D01*
X013970Y016872D01*
X013925Y016872D01*
X013925Y016900D01*
X013921Y016928D01*
X013914Y016955D01*
X013903Y016981D01*
X013889Y017005D01*
X013872Y017027D01*
X013852Y017047D01*
X013830Y017064D01*
X013806Y017078D01*
X013780Y017089D01*
X013753Y017096D01*
X013725Y017100D01*
X013575Y017100D01*
X013547Y017096D01*
X013520Y017089D01*
X013494Y017078D01*
X013470Y017064D01*
X013448Y017047D01*
X013428Y017027D01*
X013411Y017005D01*
X013397Y016981D01*
X013386Y016955D01*
X013379Y016928D01*
X013375Y016900D01*
X013375Y016872D01*
X008187Y016872D01*
X008187Y016900D01*
X008183Y016928D01*
X008176Y016955D01*
X008165Y016981D01*
X008151Y017005D01*
X008134Y017027D01*
X008114Y017047D01*
X008092Y017064D01*
X008068Y017078D01*
X008042Y017089D01*
X008015Y017096D01*
X007987Y017100D01*
X007837Y017100D01*
X007838Y017101D02*
X007809Y017097D01*
X007782Y017090D01*
X007756Y017080D01*
X007731Y017066D01*
X007708Y017049D01*
X007688Y017029D01*
X007670Y017007D01*
X007656Y016982D01*
X007644Y016956D01*
X007637Y016929D01*
X007633Y016901D01*
X007632Y016873D01*
X007632Y016872D02*
X003150Y016872D01*
X003120Y016870D01*
X003090Y016865D01*
X003061Y016856D01*
X003034Y016843D01*
X003008Y016828D01*
X002984Y016809D01*
X002963Y016788D01*
X002944Y016764D01*
X002929Y016738D01*
X002916Y016711D01*
X002907Y016682D01*
X002902Y016652D01*
X002900Y016622D01*
X002900Y011932D01*
X004650Y011932D01*
X004650Y013132D01*
X004350Y013582D02*
X004050Y013682D01*
X004024Y013691D01*
X003999Y013703D01*
X003976Y013719D01*
X003955Y013737D01*
X003937Y013758D01*
X003921Y013781D01*
X003909Y013806D01*
X003900Y013832D01*
X003900Y014432D01*
X004050Y014582D02*
X004350Y014682D01*
X004500Y014832D02*
X004500Y015082D01*
X004502Y015105D01*
X004507Y015128D01*
X004516Y015150D01*
X004529Y015170D01*
X004544Y015188D01*
X004562Y015203D01*
X004582Y015216D01*
X004604Y015225D01*
X004627Y015230D01*
X004650Y015232D01*
X006100Y015232D01*
X006123Y015230D01*
X006146Y015225D01*
X006168Y015216D01*
X006188Y015203D01*
X006206Y015188D01*
X006221Y015170D01*
X006234Y015150D01*
X006243Y015128D01*
X006248Y015105D01*
X006250Y015082D01*
X006250Y013782D01*
X006294Y013780D01*
X006337Y013774D01*
X006379Y013765D01*
X006421Y013752D01*
X006461Y013735D01*
X006500Y013715D01*
X006537Y013692D01*
X006571Y013665D01*
X006604Y013636D01*
X006633Y013603D01*
X006660Y013569D01*
X006683Y013532D01*
X006703Y013493D01*
X006720Y013453D01*
X006733Y013411D01*
X006742Y013369D01*
X006748Y013326D01*
X006750Y013282D01*
X006748Y013238D01*
X006742Y013195D01*
X006733Y013153D01*
X006720Y013111D01*
X006703Y013071D01*
X006683Y013032D01*
X006660Y012995D01*
X006633Y012961D01*
X006604Y012928D01*
X006571Y012899D01*
X006537Y012872D01*
X006500Y012849D01*
X006461Y012829D01*
X006421Y012812D01*
X006379Y012799D01*
X006337Y012790D01*
X006294Y012784D01*
X006250Y012782D01*
X006250Y012242D01*
X008390Y010092D01*
X009450Y010092D01*
X009399Y012242D02*
X009339Y012245D01*
X009280Y012253D01*
X009220Y012264D01*
X009162Y012278D01*
X009105Y012296D01*
X009048Y012318D01*
X008994Y012343D01*
X008940Y012371D01*
X008889Y012402D01*
X008840Y012437D01*
X008792Y012474D01*
X008747Y012514D01*
X008705Y012557D01*
X008665Y012602D01*
X008629Y012650D01*
X008595Y012700D01*
X008564Y012751D01*
X008536Y012805D01*
X008512Y012860D01*
X008491Y012916D01*
X008473Y012974D01*
X008459Y013033D01*
X008449Y013092D01*
X009353Y016241D02*
X009342Y016261D01*
X009328Y016280D01*
X009313Y016297D01*
X009295Y016312D01*
X009276Y016325D01*
X009256Y016335D01*
X004500Y014832D02*
X004487Y014803D01*
X004471Y014777D01*
X004452Y014752D01*
X004430Y014730D01*
X004405Y014711D01*
X004379Y014695D01*
X004350Y014682D01*
X004050Y014582D02*
X004024Y014573D01*
X003999Y014561D01*
X003976Y014545D01*
X003955Y014527D01*
X003937Y014506D01*
X003921Y014483D01*
X003909Y014458D01*
X003900Y014432D01*
X004350Y013582D02*
X004388Y013556D01*
X004425Y013528D01*
X004460Y013497D01*
X004492Y013463D01*
X004522Y013428D01*
X004550Y013390D01*
X004574Y013350D01*
X004595Y013309D01*
X004614Y013266D01*
X004629Y013222D01*
X004641Y013177D01*
X004650Y013132D01*
D11*
X014914Y008057D03*
X015334Y008057D03*
X015754Y008057D03*
X015754Y007610D03*
X015334Y007610D03*
X014914Y007610D03*
X014302Y004923D03*
X013942Y004923D03*
X013942Y004476D03*
X014302Y004476D03*
X014302Y003829D03*
X013942Y003829D03*
X013942Y003383D03*
X014302Y003383D03*
X018465Y003347D03*
X018465Y003794D03*
D12*
X016420Y005315D03*
X015974Y005315D03*
X015520Y005315D03*
X015074Y005315D03*
X016400Y007604D03*
X016847Y007604D03*
X011413Y005232D03*
X010967Y005232D03*
X010967Y004872D03*
X010967Y004512D03*
X011413Y004512D03*
X011413Y004872D03*
X011413Y004152D03*
X010967Y004152D03*
X011127Y013421D03*
X011573Y013421D03*
X010373Y013421D03*
X009927Y013421D03*
D13*
X010152Y014405D03*
X009667Y014405D03*
X011348Y014405D03*
X011833Y014405D03*
D14*
X010947Y014405D03*
X010553Y014405D03*
D15*
X009261Y014407D02*
X008828Y014407D01*
X008828Y014409D02*
X009261Y014409D01*
X009261Y014411D02*
X008828Y014411D01*
X008828Y014414D02*
X009261Y014414D01*
X009261Y014416D02*
X008828Y014416D01*
X008828Y014419D02*
X009261Y014419D01*
X009261Y014421D02*
X008828Y014421D01*
X008828Y014424D02*
X009261Y014424D01*
X009261Y014426D02*
X008828Y014426D01*
X008828Y014428D02*
X009261Y014428D01*
X009261Y014431D02*
X008828Y014431D01*
X008828Y014433D02*
X009261Y014433D01*
X009261Y014436D02*
X008828Y014436D01*
X008828Y014438D02*
X009261Y014438D01*
X009261Y014441D02*
X008828Y014441D01*
X008828Y014443D02*
X009261Y014443D01*
X009261Y014446D02*
X008828Y014446D01*
X008828Y014448D02*
X009261Y014448D01*
X009261Y014450D02*
X008828Y014450D01*
X008828Y014453D02*
X009261Y014453D01*
X009261Y014455D02*
X008828Y014455D01*
X008828Y014458D02*
X009261Y014458D01*
X009261Y014460D02*
X008828Y014460D01*
X008828Y014463D02*
X009261Y014463D01*
X009261Y014465D02*
X008828Y014465D01*
X008828Y014467D02*
X009261Y014467D01*
X009261Y014470D02*
X008828Y014470D01*
X008828Y014472D02*
X009261Y014472D01*
X009261Y014475D02*
X008828Y014475D01*
X008828Y014477D02*
X009261Y014477D01*
X009261Y014480D02*
X008828Y014480D01*
X008828Y014482D02*
X009261Y014482D01*
X009261Y014485D02*
X008828Y014485D01*
X008828Y014487D02*
X009261Y014487D01*
X009261Y014489D02*
X008828Y014489D01*
X008828Y014492D02*
X009261Y014492D01*
X009261Y014494D02*
X008828Y014494D01*
X008828Y014497D02*
X009261Y014497D01*
X009261Y014499D02*
X008828Y014499D01*
X008828Y014502D02*
X009261Y014502D01*
X009261Y014504D02*
X008828Y014504D01*
X008828Y014506D02*
X009261Y014506D01*
X009261Y014509D02*
X008828Y014509D01*
X008828Y014511D02*
X009261Y014511D01*
X009261Y014514D02*
X008828Y014514D01*
X008828Y014516D02*
X009261Y014516D01*
X009261Y014519D02*
X008828Y014519D01*
X008828Y014521D02*
X009261Y014521D01*
X009261Y014524D02*
X008828Y014524D01*
X008828Y014526D02*
X009261Y014526D01*
X009261Y014528D02*
X008828Y014528D01*
X008828Y014531D02*
X009261Y014531D01*
X009261Y014533D02*
X008828Y014533D01*
X008828Y014536D02*
X009261Y014536D01*
X009261Y014538D02*
X008828Y014538D01*
X008828Y014541D02*
X009261Y014541D01*
X009261Y014543D02*
X008828Y014543D01*
X008828Y014545D02*
X009261Y014545D01*
X009261Y014548D02*
X008828Y014548D01*
X008828Y014550D02*
X009261Y014550D01*
X009261Y014553D02*
X008828Y014553D01*
X008828Y014555D02*
X009261Y014555D01*
X009261Y014558D02*
X008828Y014558D01*
X008828Y014560D02*
X009261Y014560D01*
X009261Y014563D02*
X008828Y014563D01*
X008828Y014565D02*
X009261Y014565D01*
X009261Y014567D02*
X008828Y014567D01*
X008828Y014570D02*
X009261Y014570D01*
X009261Y014572D02*
X008828Y014572D01*
X008828Y014575D02*
X009261Y014575D01*
X009261Y014577D02*
X009256Y014620D01*
X009242Y014662D01*
X009221Y014700D01*
X009192Y014733D01*
X009157Y014760D01*
X008918Y014760D01*
X008914Y014758D02*
X009161Y014758D01*
X009164Y014755D02*
X008910Y014755D01*
X008906Y014753D02*
X008945Y014776D01*
X008988Y014790D01*
X009033Y014794D01*
X009076Y014791D01*
X009118Y014779D01*
X009157Y014760D01*
X009152Y014762D02*
X008922Y014762D01*
X008926Y014765D02*
X009148Y014765D01*
X009143Y014767D02*
X008930Y014767D01*
X008934Y014770D02*
X009138Y014770D01*
X009133Y014772D02*
X008938Y014772D01*
X008942Y014775D02*
X009128Y014775D01*
X009123Y014777D02*
X008948Y014777D01*
X008955Y014779D02*
X009118Y014779D01*
X009110Y014782D02*
X008963Y014782D01*
X008970Y014784D02*
X009101Y014784D01*
X009092Y014787D02*
X008978Y014787D01*
X008985Y014789D02*
X009083Y014789D01*
X009069Y014792D02*
X009004Y014792D01*
X009031Y014794D02*
X009035Y014794D01*
X008906Y014753D02*
X008874Y014722D01*
X008849Y014684D01*
X008834Y014642D01*
X008828Y014597D01*
X009259Y014597D01*
X009259Y014599D02*
X008828Y014599D01*
X008828Y014597D02*
X008828Y014361D01*
X008831Y014316D01*
X008843Y014272D01*
X008863Y014232D01*
X008891Y014196D01*
X008925Y014167D01*
X008965Y014144D01*
X009007Y014130D01*
X009052Y014124D01*
X009100Y014131D01*
X009144Y014147D01*
X009184Y014173D01*
X009217Y014207D01*
X009242Y014248D01*
X008855Y014248D01*
X008856Y014246D02*
X009240Y014246D01*
X009242Y014248D02*
X009257Y014293D01*
X009261Y014341D01*
X009261Y014577D01*
X008828Y014577D01*
X008828Y014580D02*
X009261Y014580D01*
X009261Y014582D02*
X008828Y014582D01*
X008828Y014584D02*
X009260Y014584D01*
X009260Y014587D02*
X008828Y014587D01*
X008828Y014589D02*
X009260Y014589D01*
X009260Y014592D02*
X008828Y014592D01*
X008828Y014594D02*
X009259Y014594D01*
X009258Y014602D02*
X008828Y014602D01*
X008829Y014604D02*
X009258Y014604D01*
X009258Y014606D02*
X008829Y014606D01*
X008829Y014609D02*
X009257Y014609D01*
X009257Y014611D02*
X008829Y014611D01*
X008830Y014614D02*
X009257Y014614D01*
X009256Y014616D02*
X008830Y014616D01*
X008830Y014619D02*
X009256Y014619D01*
X009256Y014621D02*
X008831Y014621D01*
X008831Y014623D02*
X009255Y014623D01*
X009254Y014626D02*
X008831Y014626D01*
X008832Y014628D02*
X009253Y014628D01*
X009253Y014631D02*
X008832Y014631D01*
X008832Y014633D02*
X009252Y014633D01*
X009251Y014636D02*
X008833Y014636D01*
X008833Y014638D02*
X009250Y014638D01*
X009249Y014641D02*
X008833Y014641D01*
X008834Y014643D02*
X009248Y014643D01*
X009248Y014645D02*
X008835Y014645D01*
X008836Y014648D02*
X009247Y014648D01*
X009246Y014650D02*
X008837Y014650D01*
X008838Y014653D02*
X009245Y014653D01*
X009244Y014655D02*
X008838Y014655D01*
X008839Y014658D02*
X009244Y014658D01*
X009243Y014660D02*
X008840Y014660D01*
X008841Y014662D02*
X009242Y014662D01*
X009240Y014665D02*
X008842Y014665D01*
X008843Y014667D02*
X009239Y014667D01*
X009238Y014670D02*
X008844Y014670D01*
X008845Y014672D02*
X009236Y014672D01*
X009235Y014675D02*
X008846Y014675D01*
X008847Y014677D02*
X009234Y014677D01*
X009232Y014680D02*
X008848Y014680D01*
X008848Y014682D02*
X009231Y014682D01*
X009229Y014684D02*
X008849Y014684D01*
X008851Y014687D02*
X009228Y014687D01*
X009227Y014689D02*
X008853Y014689D01*
X008854Y014692D02*
X009225Y014692D01*
X009224Y014694D02*
X008856Y014694D01*
X008857Y014697D02*
X009222Y014697D01*
X009221Y014699D02*
X008859Y014699D01*
X008861Y014701D02*
X009219Y014701D01*
X009217Y014704D02*
X008862Y014704D01*
X008864Y014706D02*
X009215Y014706D01*
X009213Y014709D02*
X008865Y014709D01*
X008867Y014711D02*
X009211Y014711D01*
X009209Y014714D02*
X008869Y014714D01*
X008870Y014716D02*
X009207Y014716D01*
X009205Y014719D02*
X008872Y014719D01*
X008873Y014721D02*
X009202Y014721D01*
X009200Y014723D02*
X008876Y014723D01*
X008878Y014726D02*
X009198Y014726D01*
X009196Y014728D02*
X008881Y014728D01*
X008883Y014731D02*
X009194Y014731D01*
X009192Y014733D02*
X008886Y014733D01*
X008888Y014736D02*
X009189Y014736D01*
X009186Y014738D02*
X008891Y014738D01*
X008893Y014740D02*
X009182Y014740D01*
X009179Y014743D02*
X008896Y014743D01*
X008899Y014745D02*
X009176Y014745D01*
X009173Y014748D02*
X008901Y014748D01*
X008904Y014750D02*
X009170Y014750D01*
X009167Y014753D02*
X008906Y014753D01*
X008828Y014404D02*
X009261Y014404D01*
X009261Y014402D02*
X008828Y014402D01*
X008828Y014399D02*
X009261Y014399D01*
X009261Y014397D02*
X008828Y014397D01*
X008828Y014394D02*
X009261Y014394D01*
X009261Y014392D02*
X008828Y014392D01*
X008828Y014389D02*
X009261Y014389D01*
X009261Y014387D02*
X008828Y014387D01*
X008828Y014385D02*
X009261Y014385D01*
X009261Y014382D02*
X008828Y014382D01*
X008828Y014380D02*
X009261Y014380D01*
X009261Y014377D02*
X008828Y014377D01*
X008828Y014375D02*
X009261Y014375D01*
X009261Y014372D02*
X008828Y014372D01*
X008828Y014370D02*
X009261Y014370D01*
X009261Y014368D02*
X008828Y014368D01*
X008828Y014365D02*
X009261Y014365D01*
X009261Y014363D02*
X008828Y014363D01*
X008828Y014360D02*
X009261Y014360D01*
X009261Y014358D02*
X008828Y014358D01*
X008828Y014355D02*
X009261Y014355D01*
X009261Y014353D02*
X008828Y014353D01*
X008828Y014350D02*
X009261Y014350D01*
X009261Y014348D02*
X008829Y014348D01*
X008829Y014346D02*
X009261Y014346D01*
X009261Y014343D02*
X008829Y014343D01*
X008829Y014341D02*
X009261Y014341D01*
X009261Y014338D02*
X008829Y014338D01*
X008829Y014336D02*
X009261Y014336D01*
X009261Y014333D02*
X008830Y014333D01*
X008830Y014331D02*
X009260Y014331D01*
X009260Y014329D02*
X008830Y014329D01*
X008830Y014326D02*
X009260Y014326D01*
X009260Y014324D02*
X008830Y014324D01*
X008831Y014321D02*
X009259Y014321D01*
X009259Y014319D02*
X008831Y014319D01*
X008831Y014316D02*
X009259Y014316D01*
X009259Y014314D02*
X008831Y014314D01*
X008832Y014311D02*
X009259Y014311D01*
X009258Y014309D02*
X008833Y014309D01*
X008833Y014307D02*
X009258Y014307D01*
X009258Y014304D02*
X008834Y014304D01*
X008835Y014302D02*
X009258Y014302D01*
X009257Y014299D02*
X008835Y014299D01*
X008836Y014297D02*
X009257Y014297D01*
X009257Y014294D02*
X008837Y014294D01*
X008837Y014292D02*
X009256Y014292D01*
X009256Y014290D02*
X008838Y014290D01*
X008839Y014287D02*
X009255Y014287D01*
X009254Y014285D02*
X008840Y014285D01*
X008840Y014282D02*
X009253Y014282D01*
X009252Y014280D02*
X008841Y014280D01*
X008842Y014277D02*
X009252Y014277D01*
X009251Y014275D02*
X008842Y014275D01*
X008843Y014273D02*
X009250Y014273D01*
X009249Y014270D02*
X008844Y014270D01*
X008845Y014268D02*
X009248Y014268D01*
X009248Y014265D02*
X008846Y014265D01*
X008848Y014263D02*
X009247Y014263D01*
X009246Y014260D02*
X008849Y014260D01*
X008850Y014258D02*
X009245Y014258D01*
X009244Y014255D02*
X008851Y014255D01*
X008853Y014253D02*
X009244Y014253D01*
X009243Y014251D02*
X008854Y014251D01*
X008857Y014243D02*
X009239Y014243D01*
X009237Y014241D02*
X008859Y014241D01*
X008860Y014238D02*
X009236Y014238D01*
X009235Y014236D02*
X008861Y014236D01*
X008862Y014234D02*
X009233Y014234D01*
X009232Y014231D02*
X008864Y014231D01*
X008866Y014229D02*
X009230Y014229D01*
X009229Y014226D02*
X008868Y014226D01*
X008870Y014224D02*
X009227Y014224D01*
X009226Y014221D02*
X008871Y014221D01*
X008873Y014219D02*
X009224Y014219D01*
X009223Y014216D02*
X008875Y014216D01*
X008877Y014214D02*
X009221Y014214D01*
X009220Y014212D02*
X008879Y014212D01*
X008881Y014209D02*
X009218Y014209D01*
X009217Y014207D02*
X008883Y014207D01*
X008885Y014204D02*
X009214Y014204D01*
X009212Y014202D02*
X008887Y014202D01*
X008888Y014199D02*
X009210Y014199D01*
X009207Y014197D02*
X008890Y014197D01*
X008893Y014195D02*
X009205Y014195D01*
X009202Y014192D02*
X008896Y014192D01*
X008899Y014190D02*
X009200Y014190D01*
X009198Y014187D02*
X008901Y014187D01*
X008904Y014185D02*
X009195Y014185D01*
X009193Y014182D02*
X008907Y014182D01*
X008910Y014180D02*
X009191Y014180D01*
X009188Y014177D02*
X008913Y014177D01*
X008915Y014175D02*
X009186Y014175D01*
X009183Y014173D02*
X008918Y014173D01*
X008921Y014170D02*
X009180Y014170D01*
X009176Y014168D02*
X008924Y014168D01*
X008928Y014165D02*
X009172Y014165D01*
X009168Y014163D02*
X008932Y014163D01*
X008936Y014160D02*
X009165Y014160D01*
X009161Y014158D02*
X008940Y014158D01*
X008945Y014156D02*
X009157Y014156D01*
X009154Y014153D02*
X008949Y014153D01*
X008953Y014151D02*
X009150Y014151D01*
X009146Y014148D02*
X008958Y014148D01*
X008962Y014146D02*
X009141Y014146D01*
X009134Y014143D02*
X008967Y014143D01*
X008975Y014141D02*
X009128Y014141D01*
X009121Y014138D02*
X008982Y014138D01*
X008989Y014136D02*
X009114Y014136D01*
X009108Y014134D02*
X008997Y014134D01*
X009004Y014131D02*
X009101Y014131D01*
X009086Y014129D02*
X009017Y014129D01*
X009037Y014126D02*
X009067Y014126D01*
X009052Y015620D02*
X009007Y015626D01*
X008965Y015640D01*
X008925Y015663D01*
X008891Y015692D01*
X008863Y015728D01*
X008843Y015768D01*
X008831Y015812D01*
X008828Y015857D01*
X009261Y015857D01*
X009261Y015859D02*
X008828Y015859D01*
X008828Y015857D02*
X008828Y016093D01*
X009259Y016093D01*
X009259Y016091D02*
X008828Y016091D01*
X008828Y016093D02*
X008834Y016138D01*
X008849Y016180D01*
X008874Y016218D01*
X008906Y016249D01*
X008945Y016272D01*
X008988Y016286D01*
X009033Y016290D01*
X009076Y016287D01*
X009118Y016276D01*
X009157Y016256D01*
X009192Y016229D01*
X009221Y016196D01*
X009242Y016158D01*
X009256Y016117D01*
X009261Y016073D01*
X009261Y015837D01*
X009257Y015789D01*
X009242Y015744D01*
X009217Y015703D01*
X008882Y015703D01*
X008881Y015706D02*
X009219Y015706D01*
X009220Y015708D02*
X008879Y015708D01*
X008877Y015710D02*
X009222Y015710D01*
X009223Y015713D02*
X008875Y015713D01*
X008873Y015715D02*
X009224Y015715D01*
X009226Y015718D02*
X008871Y015718D01*
X008869Y015720D02*
X009227Y015720D01*
X009229Y015723D02*
X008867Y015723D01*
X008865Y015725D02*
X009230Y015725D01*
X009232Y015728D02*
X008864Y015728D01*
X008862Y015730D02*
X009233Y015730D01*
X009235Y015732D02*
X008861Y015732D01*
X008860Y015735D02*
X009236Y015735D01*
X009238Y015737D02*
X008859Y015737D01*
X008857Y015740D02*
X009239Y015740D01*
X009241Y015742D02*
X008856Y015742D01*
X008855Y015745D02*
X009242Y015745D01*
X009243Y015747D02*
X008854Y015747D01*
X008852Y015749D02*
X009244Y015749D01*
X009244Y015752D02*
X008851Y015752D01*
X008850Y015754D02*
X009245Y015754D01*
X009246Y015757D02*
X008849Y015757D01*
X008848Y015759D02*
X009247Y015759D01*
X009248Y015762D02*
X008846Y015762D01*
X008845Y015764D02*
X009248Y015764D01*
X009249Y015767D02*
X008844Y015767D01*
X008843Y015769D02*
X009250Y015769D01*
X009251Y015771D02*
X008842Y015771D01*
X008841Y015774D02*
X009252Y015774D01*
X009252Y015776D02*
X008841Y015776D01*
X008840Y015779D02*
X009253Y015779D01*
X009254Y015781D02*
X008839Y015781D01*
X008839Y015784D02*
X009255Y015784D01*
X009256Y015786D02*
X008838Y015786D01*
X008837Y015788D02*
X009257Y015788D01*
X009257Y015791D02*
X008837Y015791D01*
X008836Y015793D02*
X009257Y015793D01*
X009257Y015796D02*
X008835Y015796D01*
X008835Y015798D02*
X009258Y015798D01*
X009258Y015801D02*
X008834Y015801D01*
X008833Y015803D02*
X009258Y015803D01*
X009258Y015806D02*
X008833Y015806D01*
X008832Y015808D02*
X009259Y015808D01*
X009259Y015810D02*
X008831Y015810D01*
X008831Y015813D02*
X009259Y015813D01*
X009259Y015815D02*
X008831Y015815D01*
X008830Y015818D02*
X009260Y015818D01*
X009260Y015820D02*
X008830Y015820D01*
X008830Y015823D02*
X009260Y015823D01*
X009260Y015825D02*
X008830Y015825D01*
X008830Y015827D02*
X009260Y015827D01*
X009261Y015830D02*
X008830Y015830D01*
X008829Y015832D02*
X009261Y015832D01*
X009261Y015835D02*
X008829Y015835D01*
X008829Y015837D02*
X009261Y015837D01*
X009261Y015840D02*
X008829Y015840D01*
X008829Y015842D02*
X009261Y015842D01*
X009261Y015845D02*
X008829Y015845D01*
X008828Y015847D02*
X009261Y015847D01*
X009261Y015849D02*
X008828Y015849D01*
X008828Y015852D02*
X009261Y015852D01*
X009261Y015854D02*
X008828Y015854D01*
X008828Y015862D02*
X009261Y015862D01*
X009261Y015864D02*
X008828Y015864D01*
X008828Y015866D02*
X009261Y015866D01*
X009261Y015869D02*
X008828Y015869D01*
X008828Y015871D02*
X009261Y015871D01*
X009261Y015874D02*
X008828Y015874D01*
X008828Y015876D02*
X009261Y015876D01*
X009261Y015879D02*
X008828Y015879D01*
X008828Y015881D02*
X009261Y015881D01*
X009261Y015884D02*
X008828Y015884D01*
X008828Y015886D02*
X009261Y015886D01*
X009261Y015888D02*
X008828Y015888D01*
X008828Y015891D02*
X009261Y015891D01*
X009261Y015893D02*
X008828Y015893D01*
X008828Y015896D02*
X009261Y015896D01*
X009261Y015898D02*
X008828Y015898D01*
X008828Y015901D02*
X009261Y015901D01*
X009261Y015903D02*
X008828Y015903D01*
X008828Y015905D02*
X009261Y015905D01*
X009261Y015908D02*
X008828Y015908D01*
X008828Y015910D02*
X009261Y015910D01*
X009261Y015913D02*
X008828Y015913D01*
X008828Y015915D02*
X009261Y015915D01*
X009261Y015918D02*
X008828Y015918D01*
X008828Y015920D02*
X009261Y015920D01*
X009261Y015923D02*
X008828Y015923D01*
X008828Y015925D02*
X009261Y015925D01*
X009261Y015927D02*
X008828Y015927D01*
X008828Y015930D02*
X009261Y015930D01*
X009261Y015932D02*
X008828Y015932D01*
X008828Y015935D02*
X009261Y015935D01*
X009261Y015937D02*
X008828Y015937D01*
X008828Y015940D02*
X009261Y015940D01*
X009261Y015942D02*
X008828Y015942D01*
X008828Y015944D02*
X009261Y015944D01*
X009261Y015947D02*
X008828Y015947D01*
X008828Y015949D02*
X009261Y015949D01*
X009261Y015952D02*
X008828Y015952D01*
X008828Y015954D02*
X009261Y015954D01*
X009261Y015957D02*
X008828Y015957D01*
X008828Y015959D02*
X009261Y015959D01*
X009261Y015962D02*
X008828Y015962D01*
X008828Y015964D02*
X009261Y015964D01*
X009261Y015966D02*
X008828Y015966D01*
X008828Y015969D02*
X009261Y015969D01*
X009261Y015971D02*
X008828Y015971D01*
X008828Y015974D02*
X009261Y015974D01*
X009261Y015976D02*
X008828Y015976D01*
X008828Y015979D02*
X009261Y015979D01*
X009261Y015981D02*
X008828Y015981D01*
X008828Y015983D02*
X009261Y015983D01*
X009261Y015986D02*
X008828Y015986D01*
X008828Y015988D02*
X009261Y015988D01*
X009261Y015991D02*
X008828Y015991D01*
X008828Y015993D02*
X009261Y015993D01*
X009261Y015996D02*
X008828Y015996D01*
X008828Y015998D02*
X009261Y015998D01*
X009261Y016001D02*
X008828Y016001D01*
X008828Y016003D02*
X009261Y016003D01*
X009261Y016005D02*
X008828Y016005D01*
X008828Y016008D02*
X009261Y016008D01*
X009261Y016010D02*
X008828Y016010D01*
X008828Y016013D02*
X009261Y016013D01*
X009261Y016015D02*
X008828Y016015D01*
X008828Y016018D02*
X009261Y016018D01*
X009261Y016020D02*
X008828Y016020D01*
X008828Y016022D02*
X009261Y016022D01*
X009261Y016025D02*
X008828Y016025D01*
X008828Y016027D02*
X009261Y016027D01*
X009261Y016030D02*
X008828Y016030D01*
X008828Y016032D02*
X009261Y016032D01*
X009261Y016035D02*
X008828Y016035D01*
X008828Y016037D02*
X009261Y016037D01*
X009261Y016040D02*
X008828Y016040D01*
X008828Y016042D02*
X009261Y016042D01*
X009261Y016044D02*
X008828Y016044D01*
X008828Y016047D02*
X009261Y016047D01*
X009261Y016049D02*
X008828Y016049D01*
X008828Y016052D02*
X009261Y016052D01*
X009261Y016054D02*
X008828Y016054D01*
X008828Y016057D02*
X009261Y016057D01*
X009261Y016059D02*
X008828Y016059D01*
X008828Y016061D02*
X009261Y016061D01*
X009261Y016064D02*
X008828Y016064D01*
X008828Y016066D02*
X009261Y016066D01*
X009261Y016069D02*
X008828Y016069D01*
X008828Y016071D02*
X009261Y016071D01*
X009261Y016074D02*
X008828Y016074D01*
X008828Y016076D02*
X009261Y016076D01*
X009261Y016079D02*
X008828Y016079D01*
X008828Y016081D02*
X009260Y016081D01*
X009260Y016083D02*
X008828Y016083D01*
X008828Y016086D02*
X009260Y016086D01*
X009259Y016088D02*
X008828Y016088D01*
X008828Y016096D02*
X009259Y016096D01*
X009258Y016098D02*
X008828Y016098D01*
X008829Y016100D02*
X009258Y016100D01*
X009258Y016103D02*
X008829Y016103D01*
X008829Y016105D02*
X009257Y016105D01*
X009257Y016108D02*
X008830Y016108D01*
X008830Y016110D02*
X009257Y016110D01*
X009256Y016113D02*
X008830Y016113D01*
X008831Y016115D02*
X009256Y016115D01*
X009256Y016118D02*
X008831Y016118D01*
X008831Y016120D02*
X009255Y016120D01*
X009254Y016122D02*
X008831Y016122D01*
X008832Y016125D02*
X009253Y016125D01*
X009252Y016127D02*
X008832Y016127D01*
X008832Y016130D02*
X009252Y016130D01*
X009251Y016132D02*
X008833Y016132D01*
X008833Y016135D02*
X009250Y016135D01*
X009249Y016137D02*
X008833Y016137D01*
X008834Y016139D02*
X009248Y016139D01*
X009248Y016142D02*
X008835Y016142D01*
X008836Y016144D02*
X009247Y016144D01*
X009246Y016147D02*
X008837Y016147D01*
X008838Y016149D02*
X009245Y016149D01*
X009244Y016152D02*
X008839Y016152D01*
X008840Y016154D02*
X009243Y016154D01*
X009243Y016156D02*
X008840Y016156D01*
X008841Y016159D02*
X009242Y016159D01*
X009240Y016161D02*
X008842Y016161D01*
X008843Y016164D02*
X009239Y016164D01*
X009237Y016166D02*
X008844Y016166D01*
X008845Y016169D02*
X009236Y016169D01*
X009235Y016171D02*
X008846Y016171D01*
X008847Y016174D02*
X009233Y016174D01*
X009232Y016176D02*
X008848Y016176D01*
X008849Y016178D02*
X009231Y016178D01*
X009229Y016181D02*
X008850Y016181D01*
X008851Y016183D02*
X009228Y016183D01*
X009226Y016186D02*
X008853Y016186D01*
X008855Y016188D02*
X009225Y016188D01*
X009224Y016191D02*
X008856Y016191D01*
X008858Y016193D02*
X009222Y016193D01*
X009221Y016195D02*
X008859Y016195D01*
X008861Y016198D02*
X009219Y016198D01*
X009217Y016200D02*
X008863Y016200D01*
X008864Y016203D02*
X009215Y016203D01*
X009213Y016205D02*
X008866Y016205D01*
X008867Y016208D02*
X009210Y016208D01*
X009208Y016210D02*
X008869Y016210D01*
X008871Y016213D02*
X009206Y016213D01*
X009204Y016215D02*
X008872Y016215D01*
X008874Y016217D02*
X009202Y016217D01*
X009200Y016220D02*
X008876Y016220D01*
X008879Y016222D02*
X009198Y016222D01*
X009196Y016225D02*
X008881Y016225D01*
X008884Y016227D02*
X009194Y016227D01*
X009191Y016230D02*
X008886Y016230D01*
X008889Y016232D02*
X009188Y016232D01*
X009185Y016234D02*
X008891Y016234D01*
X008894Y016237D02*
X009182Y016237D01*
X009179Y016239D02*
X008896Y016239D01*
X008899Y016242D02*
X009176Y016242D01*
X009173Y016244D02*
X008902Y016244D01*
X008904Y016247D02*
X009169Y016247D01*
X009166Y016249D02*
X008907Y016249D01*
X008911Y016252D02*
X009163Y016252D01*
X009160Y016254D02*
X008915Y016254D01*
X008919Y016256D02*
X009157Y016256D01*
X009152Y016259D02*
X008923Y016259D01*
X008927Y016261D02*
X009147Y016261D01*
X009142Y016264D02*
X008931Y016264D01*
X008935Y016266D02*
X009137Y016266D01*
X009132Y016269D02*
X008939Y016269D01*
X008943Y016271D02*
X009127Y016271D01*
X009123Y016273D02*
X008949Y016273D01*
X008956Y016276D02*
X009117Y016276D01*
X009108Y016278D02*
X008964Y016278D01*
X008971Y016281D02*
X009099Y016281D01*
X009090Y016283D02*
X008979Y016283D01*
X008986Y016286D02*
X009082Y016286D01*
X009063Y016288D02*
X009009Y016288D01*
X008884Y015701D02*
X009215Y015701D01*
X009217Y015703D02*
X009184Y015669D01*
X008918Y015669D01*
X008921Y015667D02*
X009180Y015667D01*
X009177Y015664D02*
X008923Y015664D01*
X008927Y015662D02*
X009173Y015662D01*
X009169Y015659D02*
X008931Y015659D01*
X008935Y015657D02*
X009165Y015657D01*
X009162Y015654D02*
X008940Y015654D01*
X008944Y015652D02*
X009158Y015652D01*
X009154Y015650D02*
X008948Y015650D01*
X008952Y015647D02*
X009150Y015647D01*
X009147Y015645D02*
X008957Y015645D01*
X008961Y015642D02*
X009142Y015642D01*
X009144Y015643D02*
X009100Y015627D01*
X009052Y015620D01*
X009034Y015623D02*
X009070Y015623D01*
X009089Y015625D02*
X009014Y015625D01*
X009003Y015628D02*
X009102Y015628D01*
X009109Y015630D02*
X008995Y015630D01*
X008988Y015632D02*
X009116Y015632D01*
X009122Y015635D02*
X008981Y015635D01*
X008973Y015637D02*
X009129Y015637D01*
X009135Y015640D02*
X008966Y015640D01*
X008915Y015671D02*
X009186Y015671D01*
X009184Y015669D02*
X009144Y015643D01*
X009189Y015674D02*
X008912Y015674D01*
X008909Y015676D02*
X009191Y015676D01*
X009193Y015679D02*
X008907Y015679D01*
X008904Y015681D02*
X009196Y015681D01*
X009198Y015684D02*
X008901Y015684D01*
X008898Y015686D02*
X009201Y015686D01*
X009203Y015689D02*
X008895Y015689D01*
X008892Y015691D02*
X009205Y015691D01*
X009208Y015693D02*
X008890Y015693D01*
X008888Y015696D02*
X009210Y015696D01*
X009212Y015698D02*
X008886Y015698D01*
X012228Y015857D02*
X012228Y016093D01*
X012660Y016093D01*
X012660Y016091D02*
X012228Y016091D01*
X012228Y016093D02*
X012234Y016138D01*
X012250Y016180D01*
X012275Y016218D01*
X012307Y016249D01*
X012346Y016272D01*
X012389Y016286D01*
X012433Y016290D01*
X012477Y016287D01*
X012519Y016276D01*
X012558Y016256D01*
X012593Y016229D01*
X012621Y016196D01*
X012643Y016158D01*
X012657Y016117D01*
X012662Y016073D01*
X012662Y015837D01*
X012658Y015789D01*
X012643Y015744D01*
X012618Y015703D01*
X012283Y015703D01*
X012281Y015706D02*
X012619Y015706D01*
X012618Y015703D02*
X012585Y015669D01*
X012545Y015643D01*
X012500Y015627D01*
X012453Y015620D01*
X012408Y015626D01*
X012365Y015640D01*
X012326Y015663D01*
X012292Y015692D01*
X012264Y015728D01*
X012244Y015768D01*
X012232Y015812D01*
X012228Y015857D01*
X012662Y015857D01*
X012662Y015859D02*
X012228Y015859D01*
X012228Y015862D02*
X012662Y015862D01*
X012662Y015864D02*
X012228Y015864D01*
X012228Y015866D02*
X012662Y015866D01*
X012662Y015869D02*
X012228Y015869D01*
X012228Y015871D02*
X012662Y015871D01*
X012662Y015874D02*
X012228Y015874D01*
X012228Y015876D02*
X012662Y015876D01*
X012662Y015879D02*
X012228Y015879D01*
X012228Y015881D02*
X012662Y015881D01*
X012662Y015884D02*
X012228Y015884D01*
X012228Y015886D02*
X012662Y015886D01*
X012662Y015888D02*
X012228Y015888D01*
X012228Y015891D02*
X012662Y015891D01*
X012662Y015893D02*
X012228Y015893D01*
X012228Y015896D02*
X012662Y015896D01*
X012662Y015898D02*
X012228Y015898D01*
X012228Y015901D02*
X012662Y015901D01*
X012662Y015903D02*
X012228Y015903D01*
X012228Y015905D02*
X012662Y015905D01*
X012662Y015908D02*
X012228Y015908D01*
X012228Y015910D02*
X012662Y015910D01*
X012662Y015913D02*
X012228Y015913D01*
X012228Y015915D02*
X012662Y015915D01*
X012662Y015918D02*
X012228Y015918D01*
X012228Y015920D02*
X012662Y015920D01*
X012662Y015923D02*
X012228Y015923D01*
X012228Y015925D02*
X012662Y015925D01*
X012662Y015927D02*
X012228Y015927D01*
X012228Y015930D02*
X012662Y015930D01*
X012662Y015932D02*
X012228Y015932D01*
X012228Y015935D02*
X012662Y015935D01*
X012662Y015937D02*
X012228Y015937D01*
X012228Y015940D02*
X012662Y015940D01*
X012662Y015942D02*
X012228Y015942D01*
X012228Y015944D02*
X012662Y015944D01*
X012662Y015947D02*
X012228Y015947D01*
X012228Y015949D02*
X012662Y015949D01*
X012662Y015952D02*
X012228Y015952D01*
X012228Y015954D02*
X012662Y015954D01*
X012662Y015957D02*
X012228Y015957D01*
X012228Y015959D02*
X012662Y015959D01*
X012662Y015962D02*
X012228Y015962D01*
X012228Y015964D02*
X012662Y015964D01*
X012662Y015966D02*
X012228Y015966D01*
X012228Y015969D02*
X012662Y015969D01*
X012662Y015971D02*
X012228Y015971D01*
X012228Y015974D02*
X012662Y015974D01*
X012662Y015976D02*
X012228Y015976D01*
X012228Y015979D02*
X012662Y015979D01*
X012662Y015981D02*
X012228Y015981D01*
X012228Y015983D02*
X012662Y015983D01*
X012662Y015986D02*
X012228Y015986D01*
X012228Y015988D02*
X012662Y015988D01*
X012662Y015991D02*
X012228Y015991D01*
X012228Y015993D02*
X012662Y015993D01*
X012662Y015996D02*
X012228Y015996D01*
X012228Y015998D02*
X012662Y015998D01*
X012662Y016001D02*
X012228Y016001D01*
X012228Y016003D02*
X012662Y016003D01*
X012662Y016005D02*
X012228Y016005D01*
X012228Y016008D02*
X012662Y016008D01*
X012662Y016010D02*
X012228Y016010D01*
X012228Y016013D02*
X012662Y016013D01*
X012662Y016015D02*
X012228Y016015D01*
X012228Y016018D02*
X012662Y016018D01*
X012662Y016020D02*
X012228Y016020D01*
X012228Y016022D02*
X012662Y016022D01*
X012662Y016025D02*
X012228Y016025D01*
X012228Y016027D02*
X012662Y016027D01*
X012662Y016030D02*
X012228Y016030D01*
X012228Y016032D02*
X012662Y016032D01*
X012662Y016035D02*
X012228Y016035D01*
X012228Y016037D02*
X012662Y016037D01*
X012662Y016040D02*
X012228Y016040D01*
X012228Y016042D02*
X012662Y016042D01*
X012662Y016044D02*
X012228Y016044D01*
X012228Y016047D02*
X012662Y016047D01*
X012662Y016049D02*
X012228Y016049D01*
X012228Y016052D02*
X012662Y016052D01*
X012662Y016054D02*
X012228Y016054D01*
X012228Y016057D02*
X012662Y016057D01*
X012662Y016059D02*
X012228Y016059D01*
X012228Y016061D02*
X012662Y016061D01*
X012662Y016064D02*
X012228Y016064D01*
X012228Y016066D02*
X012662Y016066D01*
X012662Y016069D02*
X012228Y016069D01*
X012228Y016071D02*
X012662Y016071D01*
X012662Y016074D02*
X012228Y016074D01*
X012228Y016076D02*
X012662Y016076D01*
X012661Y016079D02*
X012228Y016079D01*
X012228Y016081D02*
X012661Y016081D01*
X012661Y016083D02*
X012228Y016083D01*
X012228Y016086D02*
X012661Y016086D01*
X012660Y016088D02*
X012228Y016088D01*
X012229Y016096D02*
X012659Y016096D01*
X012659Y016098D02*
X012229Y016098D01*
X012229Y016100D02*
X012659Y016100D01*
X012658Y016103D02*
X012230Y016103D01*
X012230Y016105D02*
X012658Y016105D01*
X012658Y016108D02*
X012230Y016108D01*
X012231Y016110D02*
X012658Y016110D01*
X012657Y016113D02*
X012231Y016113D01*
X012231Y016115D02*
X012657Y016115D01*
X012656Y016118D02*
X012232Y016118D01*
X012232Y016120D02*
X012656Y016120D01*
X012655Y016122D02*
X012232Y016122D01*
X012233Y016125D02*
X012654Y016125D01*
X012653Y016127D02*
X012233Y016127D01*
X012233Y016130D02*
X012652Y016130D01*
X012652Y016132D02*
X012234Y016132D01*
X012234Y016135D02*
X012651Y016135D01*
X012650Y016137D02*
X012234Y016137D01*
X012235Y016139D02*
X012649Y016139D01*
X012648Y016142D02*
X012236Y016142D01*
X012237Y016144D02*
X012648Y016144D01*
X012647Y016147D02*
X012238Y016147D01*
X012239Y016149D02*
X012646Y016149D01*
X012645Y016152D02*
X012239Y016152D01*
X012240Y016154D02*
X012644Y016154D01*
X012643Y016156D02*
X012241Y016156D01*
X012242Y016159D02*
X012642Y016159D01*
X012641Y016161D02*
X012243Y016161D01*
X012244Y016164D02*
X012640Y016164D01*
X012638Y016166D02*
X012245Y016166D01*
X012246Y016169D02*
X012637Y016169D01*
X012636Y016171D02*
X012247Y016171D01*
X012248Y016174D02*
X012634Y016174D01*
X012633Y016176D02*
X012249Y016176D01*
X012249Y016178D02*
X012631Y016178D01*
X012630Y016181D02*
X012251Y016181D01*
X012252Y016183D02*
X012629Y016183D01*
X012627Y016186D02*
X012254Y016186D01*
X012255Y016188D02*
X012626Y016188D01*
X012624Y016191D02*
X012257Y016191D01*
X012259Y016193D02*
X012623Y016193D01*
X012622Y016195D02*
X012260Y016195D01*
X012262Y016198D02*
X012620Y016198D01*
X012618Y016200D02*
X012263Y016200D01*
X012265Y016203D02*
X012615Y016203D01*
X012613Y016205D02*
X012267Y016205D01*
X012268Y016208D02*
X012611Y016208D01*
X012609Y016210D02*
X012270Y016210D01*
X012271Y016213D02*
X012607Y016213D01*
X012605Y016215D02*
X012273Y016215D01*
X012275Y016217D02*
X012603Y016217D01*
X012601Y016220D02*
X012277Y016220D01*
X012279Y016222D02*
X012599Y016222D01*
X012597Y016225D02*
X012282Y016225D01*
X012285Y016227D02*
X012594Y016227D01*
X012592Y016230D02*
X012287Y016230D01*
X012290Y016232D02*
X012589Y016232D01*
X012586Y016234D02*
X012292Y016234D01*
X012295Y016237D02*
X012583Y016237D01*
X012580Y016239D02*
X012297Y016239D01*
X012300Y016242D02*
X012576Y016242D01*
X012573Y016244D02*
X012302Y016244D01*
X012305Y016247D02*
X012570Y016247D01*
X012567Y016249D02*
X012307Y016249D01*
X012311Y016252D02*
X012564Y016252D01*
X012561Y016254D02*
X012316Y016254D01*
X012320Y016256D02*
X012557Y016256D01*
X012552Y016259D02*
X012324Y016259D01*
X012328Y016261D02*
X012548Y016261D01*
X012543Y016264D02*
X012332Y016264D01*
X012336Y016266D02*
X012538Y016266D01*
X012533Y016269D02*
X012340Y016269D01*
X012344Y016271D02*
X012528Y016271D01*
X012523Y016273D02*
X012350Y016273D01*
X012357Y016276D02*
X012518Y016276D01*
X012509Y016278D02*
X012365Y016278D01*
X012372Y016281D02*
X012500Y016281D01*
X012491Y016283D02*
X012380Y016283D01*
X012387Y016286D02*
X012482Y016286D01*
X012464Y016288D02*
X012410Y016288D01*
X012229Y015854D02*
X012662Y015854D01*
X012662Y015852D02*
X012229Y015852D01*
X012229Y015849D02*
X012662Y015849D01*
X012662Y015847D02*
X012229Y015847D01*
X012229Y015845D02*
X012662Y015845D01*
X012662Y015842D02*
X012230Y015842D01*
X012230Y015840D02*
X012662Y015840D01*
X012662Y015837D02*
X012230Y015837D01*
X012230Y015835D02*
X012662Y015835D01*
X012662Y015832D02*
X012230Y015832D01*
X012230Y015830D02*
X012661Y015830D01*
X012661Y015827D02*
X012231Y015827D01*
X012231Y015825D02*
X012661Y015825D01*
X012661Y015823D02*
X012231Y015823D01*
X012231Y015820D02*
X012661Y015820D01*
X012660Y015818D02*
X012231Y015818D01*
X012231Y015815D02*
X012660Y015815D01*
X012660Y015813D02*
X012232Y015813D01*
X012232Y015810D02*
X012660Y015810D01*
X012659Y015808D02*
X012233Y015808D01*
X012233Y015806D02*
X012659Y015806D01*
X012659Y015803D02*
X012234Y015803D01*
X012235Y015801D02*
X012659Y015801D01*
X012658Y015798D02*
X012235Y015798D01*
X012236Y015796D02*
X012658Y015796D01*
X012658Y015793D02*
X012237Y015793D01*
X012238Y015791D02*
X012658Y015791D01*
X012657Y015788D02*
X012238Y015788D01*
X012239Y015786D02*
X012656Y015786D01*
X012656Y015784D02*
X012240Y015784D01*
X012240Y015781D02*
X012655Y015781D01*
X012654Y015779D02*
X012241Y015779D01*
X012242Y015776D02*
X012653Y015776D01*
X012652Y015774D02*
X012242Y015774D01*
X012243Y015771D02*
X012652Y015771D01*
X012651Y015769D02*
X012244Y015769D01*
X012245Y015767D02*
X012650Y015767D01*
X012649Y015764D02*
X012246Y015764D01*
X012247Y015762D02*
X012648Y015762D01*
X012648Y015759D02*
X012248Y015759D01*
X012250Y015757D02*
X012647Y015757D01*
X012646Y015754D02*
X012251Y015754D01*
X012252Y015752D02*
X012645Y015752D01*
X012644Y015749D02*
X012253Y015749D01*
X012254Y015747D02*
X012644Y015747D01*
X012643Y015745D02*
X012256Y015745D01*
X012257Y015742D02*
X012641Y015742D01*
X012640Y015740D02*
X012258Y015740D01*
X012259Y015737D02*
X012638Y015737D01*
X012637Y015735D02*
X012261Y015735D01*
X012262Y015732D02*
X012636Y015732D01*
X012634Y015730D02*
X012263Y015730D01*
X012264Y015728D02*
X012633Y015728D01*
X012631Y015725D02*
X012266Y015725D01*
X012268Y015723D02*
X012630Y015723D01*
X012628Y015720D02*
X012270Y015720D01*
X012272Y015718D02*
X012627Y015718D01*
X012625Y015715D02*
X012274Y015715D01*
X012276Y015713D02*
X012624Y015713D01*
X012622Y015710D02*
X012278Y015710D01*
X012279Y015708D02*
X012621Y015708D01*
X012615Y015701D02*
X012285Y015701D01*
X012287Y015698D02*
X012613Y015698D01*
X012611Y015696D02*
X012289Y015696D01*
X012291Y015693D02*
X012608Y015693D01*
X012606Y015691D02*
X012293Y015691D01*
X012296Y015689D02*
X012604Y015689D01*
X012601Y015686D02*
X012299Y015686D01*
X012302Y015684D02*
X012599Y015684D01*
X012597Y015681D02*
X012304Y015681D01*
X012307Y015679D02*
X012594Y015679D01*
X012592Y015676D02*
X012310Y015676D01*
X012313Y015674D02*
X012590Y015674D01*
X012587Y015671D02*
X012316Y015671D01*
X012319Y015669D02*
X012585Y015669D01*
X012581Y015667D02*
X012321Y015667D01*
X012324Y015664D02*
X012577Y015664D01*
X012574Y015662D02*
X012328Y015662D01*
X012332Y015659D02*
X012570Y015659D01*
X012566Y015657D02*
X012336Y015657D01*
X012340Y015654D02*
X012562Y015654D01*
X012559Y015652D02*
X012345Y015652D01*
X012349Y015650D02*
X012555Y015650D01*
X012551Y015647D02*
X012353Y015647D01*
X012358Y015645D02*
X012547Y015645D01*
X012543Y015642D02*
X012362Y015642D01*
X012367Y015640D02*
X012536Y015640D01*
X012530Y015637D02*
X012374Y015637D01*
X012381Y015635D02*
X012523Y015635D01*
X012516Y015632D02*
X012389Y015632D01*
X012396Y015630D02*
X012510Y015630D01*
X012503Y015628D02*
X012403Y015628D01*
X012415Y015625D02*
X012490Y015625D01*
X012471Y015623D02*
X012434Y015623D01*
X012433Y014794D02*
X012477Y014791D01*
X012519Y014779D01*
X012558Y014760D01*
X012319Y014760D01*
X012323Y014762D02*
X012553Y014762D01*
X012548Y014765D02*
X012327Y014765D01*
X012331Y014767D02*
X012544Y014767D01*
X012539Y014770D02*
X012335Y014770D01*
X012339Y014772D02*
X012534Y014772D01*
X012529Y014775D02*
X012343Y014775D01*
X012346Y014776D02*
X012389Y014790D01*
X012433Y014794D01*
X012432Y014794D02*
X012436Y014794D01*
X012405Y014792D02*
X012470Y014792D01*
X012484Y014789D02*
X012386Y014789D01*
X012378Y014787D02*
X012493Y014787D01*
X012502Y014784D02*
X012371Y014784D01*
X012363Y014782D02*
X012510Y014782D01*
X012519Y014779D02*
X012356Y014779D01*
X012349Y014777D02*
X012524Y014777D01*
X012558Y014760D02*
X012593Y014733D01*
X012621Y014700D01*
X012643Y014662D01*
X012657Y014620D01*
X012662Y014577D01*
X012662Y014341D01*
X012658Y014293D01*
X012643Y014248D01*
X012618Y014207D01*
X012585Y014173D01*
X012545Y014147D01*
X012500Y014131D01*
X012453Y014124D01*
X012408Y014130D01*
X012365Y014144D01*
X012326Y014167D01*
X012292Y014196D01*
X012264Y014232D01*
X012244Y014272D01*
X012232Y014316D01*
X012228Y014361D01*
X012228Y014597D01*
X012660Y014597D01*
X012659Y014599D02*
X012229Y014599D01*
X012228Y014597D02*
X012234Y014642D01*
X012250Y014684D01*
X012275Y014722D01*
X012307Y014753D01*
X012346Y014776D01*
X012315Y014758D02*
X012561Y014758D01*
X012564Y014755D02*
X012311Y014755D01*
X012307Y014753D02*
X012568Y014753D01*
X012571Y014750D02*
X012304Y014750D01*
X012302Y014748D02*
X012574Y014748D01*
X012577Y014745D02*
X012299Y014745D01*
X012297Y014743D02*
X012580Y014743D01*
X012583Y014740D02*
X012294Y014740D01*
X012292Y014738D02*
X012586Y014738D01*
X012589Y014736D02*
X012289Y014736D01*
X012287Y014733D02*
X012593Y014733D01*
X012595Y014731D02*
X012284Y014731D01*
X012282Y014728D02*
X012597Y014728D01*
X012599Y014726D02*
X012279Y014726D01*
X012276Y014723D02*
X012601Y014723D01*
X012603Y014721D02*
X012274Y014721D01*
X012273Y014719D02*
X012605Y014719D01*
X012607Y014716D02*
X012271Y014716D01*
X012269Y014714D02*
X012610Y014714D01*
X012612Y014711D02*
X012268Y014711D01*
X012266Y014709D02*
X012614Y014709D01*
X012616Y014706D02*
X012265Y014706D01*
X012263Y014704D02*
X012618Y014704D01*
X012620Y014701D02*
X012261Y014701D01*
X012260Y014699D02*
X012622Y014699D01*
X012623Y014697D02*
X012258Y014697D01*
X012257Y014694D02*
X012625Y014694D01*
X012626Y014692D02*
X012255Y014692D01*
X012253Y014689D02*
X012627Y014689D01*
X012629Y014687D02*
X012252Y014687D01*
X012250Y014684D02*
X012630Y014684D01*
X012632Y014682D02*
X012249Y014682D01*
X012248Y014680D02*
X012633Y014680D01*
X012634Y014677D02*
X012247Y014677D01*
X012247Y014675D02*
X012636Y014675D01*
X012637Y014672D02*
X012246Y014672D01*
X012245Y014670D02*
X012639Y014670D01*
X012640Y014667D02*
X012244Y014667D01*
X012243Y014665D02*
X012641Y014665D01*
X012643Y014662D02*
X012242Y014662D01*
X012241Y014660D02*
X012644Y014660D01*
X012644Y014658D02*
X012240Y014658D01*
X012239Y014655D02*
X012645Y014655D01*
X012646Y014653D02*
X012238Y014653D01*
X012237Y014650D02*
X012647Y014650D01*
X012648Y014648D02*
X012237Y014648D01*
X012236Y014645D02*
X012648Y014645D01*
X012649Y014643D02*
X012235Y014643D01*
X012234Y014641D02*
X012650Y014641D01*
X012651Y014638D02*
X012234Y014638D01*
X012234Y014636D02*
X012652Y014636D01*
X012652Y014633D02*
X012233Y014633D01*
X012233Y014631D02*
X012653Y014631D01*
X012654Y014628D02*
X012233Y014628D01*
X012232Y014626D02*
X012655Y014626D01*
X012656Y014623D02*
X012232Y014623D01*
X012232Y014621D02*
X012657Y014621D01*
X012657Y014619D02*
X012231Y014619D01*
X012231Y014616D02*
X012657Y014616D01*
X012658Y014614D02*
X012231Y014614D01*
X012230Y014611D02*
X012658Y014611D01*
X012658Y014609D02*
X012230Y014609D01*
X012230Y014606D02*
X012658Y014606D01*
X012659Y014604D02*
X012229Y014604D01*
X012229Y014602D02*
X012659Y014602D01*
X012660Y014594D02*
X012228Y014594D01*
X012228Y014592D02*
X012660Y014592D01*
X012661Y014589D02*
X012228Y014589D01*
X012228Y014587D02*
X012661Y014587D01*
X012661Y014584D02*
X012228Y014584D01*
X012228Y014582D02*
X012662Y014582D01*
X012662Y014580D02*
X012228Y014580D01*
X012228Y014577D02*
X012662Y014577D01*
X012662Y014575D02*
X012228Y014575D01*
X012228Y014572D02*
X012662Y014572D01*
X012662Y014570D02*
X012228Y014570D01*
X012228Y014567D02*
X012662Y014567D01*
X012662Y014565D02*
X012228Y014565D01*
X012228Y014563D02*
X012662Y014563D01*
X012662Y014560D02*
X012228Y014560D01*
X012228Y014558D02*
X012662Y014558D01*
X012662Y014555D02*
X012228Y014555D01*
X012228Y014553D02*
X012662Y014553D01*
X012662Y014550D02*
X012228Y014550D01*
X012228Y014548D02*
X012662Y014548D01*
X012662Y014545D02*
X012228Y014545D01*
X012228Y014543D02*
X012662Y014543D01*
X012662Y014541D02*
X012228Y014541D01*
X012228Y014538D02*
X012662Y014538D01*
X012662Y014536D02*
X012228Y014536D01*
X012228Y014533D02*
X012662Y014533D01*
X012662Y014531D02*
X012228Y014531D01*
X012228Y014528D02*
X012662Y014528D01*
X012662Y014526D02*
X012228Y014526D01*
X012228Y014524D02*
X012662Y014524D01*
X012662Y014521D02*
X012228Y014521D01*
X012228Y014519D02*
X012662Y014519D01*
X012662Y014516D02*
X012228Y014516D01*
X012228Y014514D02*
X012662Y014514D01*
X012662Y014511D02*
X012228Y014511D01*
X012228Y014509D02*
X012662Y014509D01*
X012662Y014506D02*
X012228Y014506D01*
X012228Y014504D02*
X012662Y014504D01*
X012662Y014502D02*
X012228Y014502D01*
X012228Y014499D02*
X012662Y014499D01*
X012662Y014497D02*
X012228Y014497D01*
X012228Y014494D02*
X012662Y014494D01*
X012662Y014492D02*
X012228Y014492D01*
X012228Y014489D02*
X012662Y014489D01*
X012662Y014487D02*
X012228Y014487D01*
X012228Y014485D02*
X012662Y014485D01*
X012662Y014482D02*
X012228Y014482D01*
X012228Y014480D02*
X012662Y014480D01*
X012662Y014477D02*
X012228Y014477D01*
X012228Y014475D02*
X012662Y014475D01*
X012662Y014472D02*
X012228Y014472D01*
X012228Y014470D02*
X012662Y014470D01*
X012662Y014467D02*
X012228Y014467D01*
X012228Y014465D02*
X012662Y014465D01*
X012662Y014463D02*
X012228Y014463D01*
X012228Y014460D02*
X012662Y014460D01*
X012662Y014458D02*
X012228Y014458D01*
X012228Y014455D02*
X012662Y014455D01*
X012662Y014453D02*
X012228Y014453D01*
X012228Y014450D02*
X012662Y014450D01*
X012662Y014448D02*
X012228Y014448D01*
X012228Y014446D02*
X012662Y014446D01*
X012662Y014443D02*
X012228Y014443D01*
X012228Y014441D02*
X012662Y014441D01*
X012662Y014438D02*
X012228Y014438D01*
X012228Y014436D02*
X012662Y014436D01*
X012662Y014433D02*
X012228Y014433D01*
X012228Y014431D02*
X012662Y014431D01*
X012662Y014428D02*
X012228Y014428D01*
X012228Y014426D02*
X012662Y014426D01*
X012662Y014424D02*
X012228Y014424D01*
X012228Y014421D02*
X012662Y014421D01*
X012662Y014419D02*
X012228Y014419D01*
X012228Y014416D02*
X012662Y014416D01*
X012662Y014414D02*
X012228Y014414D01*
X012228Y014411D02*
X012662Y014411D01*
X012662Y014409D02*
X012228Y014409D01*
X012228Y014407D02*
X012662Y014407D01*
X012662Y014404D02*
X012228Y014404D01*
X012228Y014402D02*
X012662Y014402D01*
X012662Y014399D02*
X012228Y014399D01*
X012228Y014397D02*
X012662Y014397D01*
X012662Y014394D02*
X012228Y014394D01*
X012228Y014392D02*
X012662Y014392D01*
X012662Y014389D02*
X012228Y014389D01*
X012228Y014387D02*
X012662Y014387D01*
X012662Y014385D02*
X012228Y014385D01*
X012228Y014382D02*
X012662Y014382D01*
X012662Y014380D02*
X012228Y014380D01*
X012228Y014377D02*
X012662Y014377D01*
X012662Y014375D02*
X012228Y014375D01*
X012228Y014372D02*
X012662Y014372D01*
X012662Y014370D02*
X012228Y014370D01*
X012228Y014368D02*
X012662Y014368D01*
X012662Y014365D02*
X012228Y014365D01*
X012228Y014363D02*
X012662Y014363D01*
X012662Y014360D02*
X012228Y014360D01*
X012229Y014358D02*
X012662Y014358D01*
X012662Y014355D02*
X012229Y014355D01*
X012229Y014353D02*
X012662Y014353D01*
X012662Y014350D02*
X012229Y014350D01*
X012229Y014348D02*
X012662Y014348D01*
X012662Y014346D02*
X012230Y014346D01*
X012230Y014343D02*
X012662Y014343D01*
X012662Y014341D02*
X012230Y014341D01*
X012230Y014338D02*
X012662Y014338D01*
X012662Y014336D02*
X012230Y014336D01*
X012230Y014333D02*
X012661Y014333D01*
X012661Y014331D02*
X012231Y014331D01*
X012231Y014329D02*
X012661Y014329D01*
X012661Y014326D02*
X012231Y014326D01*
X012231Y014324D02*
X012660Y014324D01*
X012660Y014321D02*
X012231Y014321D01*
X012231Y014319D02*
X012660Y014319D01*
X012660Y014316D02*
X012232Y014316D01*
X012232Y014314D02*
X012660Y014314D01*
X012659Y014311D02*
X012233Y014311D01*
X012234Y014309D02*
X012659Y014309D01*
X012659Y014307D02*
X012234Y014307D01*
X012235Y014304D02*
X012659Y014304D01*
X012658Y014302D02*
X012236Y014302D01*
X012236Y014299D02*
X012658Y014299D01*
X012658Y014297D02*
X012237Y014297D01*
X012238Y014294D02*
X012658Y014294D01*
X012657Y014292D02*
X012238Y014292D01*
X012239Y014290D02*
X012656Y014290D01*
X012656Y014287D02*
X012240Y014287D01*
X012240Y014285D02*
X012655Y014285D01*
X012654Y014282D02*
X012241Y014282D01*
X012242Y014280D02*
X012653Y014280D01*
X012652Y014277D02*
X012242Y014277D01*
X012243Y014275D02*
X012652Y014275D01*
X012651Y014273D02*
X012244Y014273D01*
X012245Y014270D02*
X012650Y014270D01*
X012649Y014268D02*
X012246Y014268D01*
X012247Y014265D02*
X012648Y014265D01*
X012648Y014263D02*
X012249Y014263D01*
X012250Y014260D02*
X012647Y014260D01*
X012646Y014258D02*
X012251Y014258D01*
X012252Y014255D02*
X012645Y014255D01*
X012644Y014253D02*
X012253Y014253D01*
X012255Y014251D02*
X012643Y014251D01*
X012643Y014248D02*
X012256Y014248D01*
X012257Y014246D02*
X012641Y014246D01*
X012640Y014243D02*
X012258Y014243D01*
X012260Y014241D02*
X012638Y014241D01*
X012637Y014238D02*
X012261Y014238D01*
X012262Y014236D02*
X012635Y014236D01*
X012634Y014234D02*
X012263Y014234D01*
X012265Y014231D02*
X012632Y014231D01*
X012631Y014229D02*
X012267Y014229D01*
X012268Y014226D02*
X012629Y014226D01*
X012628Y014224D02*
X012270Y014224D01*
X012272Y014221D02*
X012626Y014221D01*
X012625Y014219D02*
X012274Y014219D01*
X012276Y014216D02*
X012624Y014216D01*
X012622Y014214D02*
X012278Y014214D01*
X012280Y014212D02*
X012621Y014212D01*
X012619Y014209D02*
X012282Y014209D01*
X012284Y014207D02*
X012617Y014207D01*
X012615Y014204D02*
X012285Y014204D01*
X012287Y014202D02*
X012613Y014202D01*
X012610Y014199D02*
X012289Y014199D01*
X012291Y014197D02*
X012608Y014197D01*
X012606Y014195D02*
X012294Y014195D01*
X012297Y014192D02*
X012603Y014192D01*
X012601Y014190D02*
X012299Y014190D01*
X012302Y014187D02*
X012599Y014187D01*
X012596Y014185D02*
X012305Y014185D01*
X012308Y014182D02*
X012594Y014182D01*
X012592Y014180D02*
X012311Y014180D01*
X012313Y014177D02*
X012589Y014177D01*
X012587Y014175D02*
X012316Y014175D01*
X012319Y014173D02*
X012584Y014173D01*
X012580Y014170D02*
X012322Y014170D01*
X012325Y014168D02*
X012577Y014168D01*
X012573Y014165D02*
X012328Y014165D01*
X012333Y014163D02*
X012569Y014163D01*
X012566Y014160D02*
X012337Y014160D01*
X012341Y014158D02*
X012562Y014158D01*
X012558Y014156D02*
X012345Y014156D01*
X012350Y014153D02*
X012554Y014153D01*
X012551Y014151D02*
X012354Y014151D01*
X012358Y014148D02*
X012547Y014148D01*
X012542Y014146D02*
X012363Y014146D01*
X012368Y014143D02*
X012535Y014143D01*
X012528Y014141D02*
X012375Y014141D01*
X012383Y014138D02*
X012522Y014138D01*
X012515Y014136D02*
X012390Y014136D01*
X012397Y014134D02*
X012509Y014134D01*
X012502Y014131D02*
X012405Y014131D01*
X012418Y014129D02*
X012487Y014129D01*
X012468Y014126D02*
X012438Y014126D01*
D16*
X012390Y005222D03*
X012390Y004422D03*
D17*
X012250Y003762D02*
X012530Y003762D01*
X012530Y003482D01*
X012250Y003482D01*
X012250Y003762D01*
X012250Y003601D02*
X012530Y003601D01*
X012530Y003720D02*
X012250Y003720D01*
D18*
X004356Y013935D03*
X004356Y014329D03*
D19*
X005400Y014941D03*
X005400Y013323D03*
D20*
X014002Y005980D03*
X014442Y005980D03*
D21*
X015354Y004824D03*
X015354Y004324D03*
X015354Y003824D03*
X015354Y003324D03*
X017440Y003324D03*
X017440Y003824D03*
X017440Y004324D03*
X017440Y004824D03*
D22*
X016397Y004074D03*
D23*
X016771Y006484D03*
X015373Y006484D03*
D24*
X016314Y008087D03*
X016314Y008634D03*
X016933Y008634D03*
X016933Y008087D03*
D25*
X015607Y008586D03*
X015060Y008586D03*
M02*
