G75*
G70*
%OFA0B0*%
%FSLAX24Y24*%
%IPPOS*%
%LPD*%
%AMOC8*
5,1,8,0,0,1.08239X$1,22.5*
%
%ADD10C,0.0050*%
%ADD11C,0.0236*%
D10*
X001284Y000534D02*
X024182Y000534D01*
X024182Y000533D02*
X024236Y000535D01*
X024290Y000540D01*
X024343Y000549D01*
X024396Y000562D01*
X024447Y000579D01*
X024497Y000599D01*
X024545Y000623D01*
X024592Y000650D01*
X024637Y000681D01*
X024679Y000714D01*
X024719Y000751D01*
X024756Y000790D01*
X024790Y000832D01*
X024821Y000876D01*
X024849Y000922D01*
X024873Y000970D01*
X024894Y001020D01*
X024912Y001071D01*
X024926Y001123D01*
X024936Y001176D01*
X024942Y001230D01*
X024944Y001283D01*
X024943Y001284D02*
X024943Y017502D01*
X024944Y017502D02*
X024942Y017556D01*
X024935Y017610D01*
X024925Y017663D01*
X024912Y017715D01*
X024894Y017766D01*
X024873Y017816D01*
X024849Y017864D01*
X024821Y017910D01*
X024789Y017954D01*
X024755Y017995D01*
X024718Y018034D01*
X024678Y018071D01*
X024636Y018104D01*
X024592Y018135D01*
X024545Y018162D01*
X024497Y018185D01*
X024447Y018206D01*
X024395Y018222D01*
X024343Y018235D01*
X024290Y018244D01*
X024236Y018250D01*
X024183Y018251D01*
X024182Y018250D02*
X013925Y018250D01*
X013925Y018222D01*
X013921Y018194D01*
X013914Y018167D01*
X013903Y018141D01*
X013889Y018117D01*
X013872Y018095D01*
X013852Y018075D01*
X013830Y018058D01*
X013806Y018044D01*
X013780Y018033D01*
X013753Y018026D01*
X013725Y018022D01*
X013575Y018022D01*
X013547Y018026D01*
X013520Y018033D01*
X013494Y018044D01*
X013470Y018058D01*
X013448Y018075D01*
X013428Y018095D01*
X013411Y018117D01*
X013397Y018141D01*
X013386Y018167D01*
X013379Y018194D01*
X013375Y018222D01*
X013375Y018250D01*
X008187Y018250D01*
X008187Y018222D01*
X008183Y018194D01*
X008176Y018167D01*
X008165Y018141D01*
X008151Y018117D01*
X008134Y018095D01*
X008114Y018075D01*
X008092Y018058D01*
X008068Y018044D01*
X008042Y018033D01*
X008015Y018026D01*
X007987Y018022D01*
X007837Y018022D01*
X007838Y018022D02*
X007809Y018026D01*
X007782Y018033D01*
X007756Y018043D01*
X007731Y018057D01*
X007708Y018074D01*
X007688Y018094D01*
X007670Y018116D01*
X007656Y018141D01*
X007644Y018167D01*
X007637Y018194D01*
X007633Y018222D01*
X007632Y018250D01*
X001284Y018250D01*
X001231Y018248D01*
X001177Y018243D01*
X001125Y018233D01*
X001073Y018220D01*
X001022Y018203D01*
X000973Y018183D01*
X000925Y018159D01*
X000879Y018132D01*
X000835Y018101D01*
X000793Y018068D01*
X000754Y018031D01*
X000718Y017992D01*
X000684Y017951D01*
X000653Y017907D01*
X000626Y017861D01*
X000602Y017813D01*
X000582Y017764D01*
X000565Y017713D01*
X000551Y017661D01*
X000542Y017609D01*
X000536Y017555D01*
X000534Y017502D01*
X000534Y001284D01*
X000536Y001230D01*
X000542Y001177D01*
X000551Y001125D01*
X000564Y001073D01*
X000581Y001022D01*
X000602Y000972D01*
X000626Y000925D01*
X000653Y000879D01*
X000684Y000835D01*
X000717Y000793D01*
X000754Y000754D01*
X000793Y000717D01*
X000835Y000684D01*
X000879Y000653D01*
X000925Y000626D01*
X000972Y000602D01*
X001022Y000581D01*
X001073Y000564D01*
X001125Y000551D01*
X001177Y000542D01*
X001230Y000536D01*
X001284Y000534D01*
X007900Y001984D02*
X007900Y007382D01*
X005450Y009832D01*
X003150Y009832D01*
X003120Y009834D01*
X003090Y009839D01*
X003061Y009848D01*
X003034Y009861D01*
X003008Y009876D01*
X002984Y009895D01*
X002963Y009916D01*
X002944Y009940D01*
X002929Y009966D01*
X002916Y009993D01*
X002907Y010022D01*
X002902Y010052D01*
X002900Y010082D01*
X002900Y011082D01*
X004650Y011082D01*
X004655Y011053D01*
X004662Y011024D01*
X004673Y010996D01*
X004687Y010970D01*
X004704Y010945D01*
X004724Y010922D01*
X004745Y010902D01*
X004769Y010884D01*
X004795Y010869D01*
X004823Y010858D01*
X004851Y010849D01*
X004880Y010843D01*
X004910Y010841D01*
X004940Y010842D01*
X006040Y010842D01*
X007940Y008942D01*
X014090Y008942D01*
X014116Y008940D01*
X014142Y008935D01*
X014167Y008927D01*
X014190Y008915D01*
X014212Y008901D01*
X014231Y008883D01*
X014249Y008864D01*
X014263Y008842D01*
X014275Y008819D01*
X014283Y008794D01*
X014288Y008768D01*
X014290Y008742D01*
X014290Y006502D01*
X014286Y006475D01*
X014279Y006449D01*
X014268Y006424D01*
X014254Y006401D01*
X014237Y006380D01*
X014217Y006362D01*
X014194Y006347D01*
X014170Y006335D01*
X014144Y006327D01*
X014117Y006323D01*
X014090Y006322D01*
X013890Y006322D01*
X013864Y006320D01*
X013838Y006315D01*
X013813Y006307D01*
X013790Y006295D01*
X013768Y006281D01*
X013749Y006263D01*
X013731Y006244D01*
X013717Y006222D01*
X013705Y006199D01*
X013697Y006174D01*
X013692Y006148D01*
X013690Y006122D01*
X013690Y005436D01*
X013690Y005437D02*
X013687Y005413D01*
X013681Y005391D01*
X013672Y005369D01*
X013660Y005349D01*
X013645Y005331D01*
X013628Y005315D01*
X013608Y005302D01*
X013587Y005292D01*
X013565Y005285D01*
X013542Y005281D01*
X013519Y005280D01*
X012785Y005280D01*
X012786Y005280D02*
X012763Y005284D01*
X012741Y005291D01*
X012720Y005301D01*
X012701Y005314D01*
X012684Y005330D01*
X012670Y005348D01*
X012658Y005368D01*
X012649Y005389D01*
X012643Y005411D01*
X012640Y005434D01*
X012641Y005457D01*
X012640Y005458D02*
X012640Y005520D01*
X012640Y005543D01*
X012636Y005566D01*
X012630Y005588D01*
X012620Y005609D01*
X012608Y005628D01*
X012593Y005645D01*
X012575Y005660D01*
X012556Y005673D01*
X012535Y005682D01*
X012513Y005688D01*
X012490Y005692D01*
X012300Y005692D01*
X012300Y005693D02*
X012277Y005696D01*
X012255Y005703D01*
X012234Y005713D01*
X012214Y005726D01*
X012197Y005742D01*
X012181Y005759D01*
X012169Y005779D01*
X012160Y005801D01*
X012153Y005823D01*
X012150Y005846D01*
X012151Y005870D01*
X012150Y005870D02*
X012150Y006820D01*
X011150Y006820D01*
X011150Y006320D01*
X011129Y006263D01*
X011106Y006207D01*
X011079Y006153D01*
X011049Y006100D01*
X011017Y006049D01*
X010981Y006000D01*
X010943Y005953D01*
X010903Y005908D01*
X010860Y005865D01*
X010814Y005825D01*
X010766Y005788D01*
X010717Y005753D01*
X010665Y005721D01*
X010612Y005692D01*
X010613Y005692D02*
X010563Y005654D01*
X010515Y005613D01*
X010470Y005569D01*
X010428Y005523D01*
X010388Y005474D01*
X010352Y005422D01*
X010319Y005369D01*
X010289Y005314D01*
X010262Y005257D01*
X010239Y005198D01*
X010220Y005138D01*
X010204Y005077D01*
X010192Y005016D01*
X010183Y004953D01*
X010179Y004890D01*
X010178Y004828D01*
X010181Y004765D01*
X010188Y004702D01*
X010199Y004640D01*
X010213Y004579D01*
X010231Y004519D01*
X010253Y004460D01*
X010278Y004402D01*
X010307Y004346D01*
X010339Y004292D01*
X010374Y004240D01*
X010412Y004190D01*
X010453Y004142D01*
X010498Y004097D01*
X010544Y004055D01*
X010593Y004016D01*
X010645Y003980D01*
X010698Y003947D01*
X010754Y003917D01*
X010811Y003891D01*
X010869Y003868D01*
X010929Y003849D01*
X010990Y003833D01*
X011052Y003821D01*
X011114Y003813D01*
X011177Y003809D01*
X011240Y003808D01*
X011303Y003812D01*
X011365Y003819D01*
X011427Y003830D01*
X011489Y003844D01*
X011549Y003862D01*
X011608Y003884D01*
X011665Y003910D01*
X011885Y003910D01*
X012085Y003710D01*
X012085Y003510D01*
X012087Y003478D01*
X012092Y003446D01*
X012102Y003415D01*
X012115Y003385D01*
X012131Y003357D01*
X012150Y003331D01*
X012172Y003308D01*
X012197Y003287D01*
X012224Y003269D01*
X012253Y003255D01*
X012283Y003244D01*
X012315Y003236D01*
X012347Y003232D01*
X012379Y003232D01*
X012411Y003236D01*
X012443Y003244D01*
X012473Y003255D01*
X012502Y003269D01*
X012529Y003287D01*
X012554Y003308D01*
X012576Y003331D01*
X012595Y003357D01*
X012611Y003385D01*
X012624Y003415D01*
X012634Y003446D01*
X012639Y003478D01*
X012641Y003510D01*
X012640Y003510D02*
X012640Y004231D01*
X012641Y004231D02*
X012644Y004254D01*
X012651Y004276D01*
X012661Y004297D01*
X012674Y004317D01*
X012689Y004334D01*
X012707Y004349D01*
X012727Y004361D01*
X012748Y004371D01*
X012771Y004377D01*
X012794Y004380D01*
X012817Y004379D01*
X012817Y004380D02*
X013540Y004380D01*
X013563Y004377D01*
X013585Y004370D01*
X013605Y004361D01*
X013625Y004349D01*
X013642Y004334D01*
X013657Y004317D01*
X013670Y004298D01*
X013679Y004277D01*
X013686Y004255D01*
X013689Y004233D01*
X013690Y004210D01*
X013690Y003192D01*
X013692Y003158D01*
X013698Y003125D01*
X013707Y003093D01*
X013720Y003062D01*
X013736Y003032D01*
X013755Y003005D01*
X013778Y002980D01*
X013803Y002957D01*
X013830Y002938D01*
X013860Y002922D01*
X013891Y002909D01*
X013923Y002900D01*
X013956Y002894D01*
X013990Y002892D01*
X014269Y002892D01*
X014269Y001732D01*
X008153Y001732D01*
X008152Y001732D02*
X008122Y001734D01*
X008092Y001739D01*
X008063Y001748D01*
X008035Y001761D01*
X008009Y001776D01*
X007985Y001795D01*
X007964Y001817D01*
X007945Y001840D01*
X007929Y001867D01*
X007917Y001894D01*
X007907Y001923D01*
X007902Y001953D01*
X007900Y001984D01*
X015119Y001732D02*
X015119Y002892D01*
X020595Y002892D01*
X020629Y002896D01*
X020662Y002904D01*
X020694Y002916D01*
X020725Y002930D01*
X020754Y002948D01*
X020781Y002969D01*
X020806Y002992D01*
X020828Y003018D01*
X020848Y003046D01*
X020864Y003076D01*
X020877Y003108D01*
X020887Y003140D01*
X020893Y003174D01*
X020896Y003208D01*
X020895Y003242D01*
X020895Y004126D01*
X021955Y004126D01*
X021955Y001982D01*
X021953Y001952D01*
X021948Y001922D01*
X021939Y001893D01*
X021926Y001866D01*
X021911Y001840D01*
X021892Y001816D01*
X021871Y001795D01*
X021847Y001776D01*
X021821Y001761D01*
X021794Y001748D01*
X021765Y001739D01*
X021735Y001734D01*
X021705Y001732D01*
X015119Y001732D01*
X018795Y005535D02*
X020595Y005535D01*
X020629Y005533D01*
X020662Y005527D01*
X020694Y005518D01*
X020725Y005505D01*
X020755Y005489D01*
X020782Y005470D01*
X020807Y005447D01*
X020830Y005422D01*
X020849Y005395D01*
X020865Y005365D01*
X020878Y005334D01*
X020887Y005302D01*
X020893Y005269D01*
X020895Y005235D01*
X020895Y004976D01*
X021955Y004976D01*
X021955Y011532D01*
X021953Y011562D01*
X021948Y011592D01*
X021939Y011621D01*
X021926Y011648D01*
X021911Y011674D01*
X021892Y011698D01*
X021871Y011719D01*
X021847Y011738D01*
X021821Y011753D01*
X021794Y011766D01*
X021765Y011775D01*
X021735Y011780D01*
X021705Y011782D01*
X014460Y011782D01*
X014430Y011784D01*
X014400Y011789D01*
X014371Y011798D01*
X014344Y011811D01*
X014318Y011826D01*
X014294Y011845D01*
X014273Y011866D01*
X014254Y011890D01*
X014239Y011916D01*
X014226Y011943D01*
X014217Y011972D01*
X014212Y012002D01*
X014210Y012032D01*
X014210Y014032D01*
X013050Y014032D01*
X013050Y013092D01*
X013051Y013092D02*
X013042Y013031D01*
X013029Y012972D01*
X013012Y012913D01*
X012992Y012855D01*
X012968Y012799D01*
X012941Y012744D01*
X012910Y012691D01*
X012876Y012641D01*
X012839Y012592D01*
X012798Y012546D01*
X012755Y012503D01*
X012709Y012462D01*
X012661Y012425D01*
X012611Y012390D01*
X012558Y012359D01*
X012504Y012332D01*
X012448Y012307D01*
X012390Y012287D01*
X012331Y012270D01*
X012272Y012257D01*
X012211Y012247D01*
X012150Y012242D01*
X010250Y012242D01*
X010250Y010092D01*
X016934Y010092D01*
X017284Y009740D01*
X018284Y009740D01*
X018315Y009739D01*
X018346Y009734D01*
X018375Y009725D01*
X018404Y009713D01*
X018431Y009698D01*
X018455Y009679D01*
X018478Y009658D01*
X018497Y009634D01*
X018514Y009608D01*
X018527Y009580D01*
X018537Y009551D01*
X018543Y009521D01*
X018546Y009490D01*
X018545Y009490D02*
X018545Y005785D01*
X018547Y005755D01*
X018552Y005725D01*
X018561Y005696D01*
X018574Y005669D01*
X018589Y005643D01*
X018608Y005619D01*
X018629Y005598D01*
X018653Y005579D01*
X018679Y005564D01*
X018706Y005551D01*
X018735Y005542D01*
X018765Y005537D01*
X018795Y005535D01*
X009450Y010092D02*
X009450Y012242D01*
X009400Y012242D01*
X008450Y013092D02*
X008450Y016006D01*
X008470Y016050D01*
X008494Y016092D01*
X008521Y016132D01*
X008551Y016170D01*
X008584Y016205D01*
X008620Y016238D01*
X008658Y016268D01*
X008698Y016295D01*
X008741Y016318D01*
X008785Y016338D01*
X008830Y016355D01*
X008877Y016368D01*
X008924Y016377D01*
X008972Y016382D01*
X009021Y016384D01*
X009069Y016382D01*
X009117Y016376D01*
X009164Y016366D01*
X009211Y016353D01*
X009256Y016336D01*
X009354Y016242D02*
X012144Y016242D01*
X012144Y016241D02*
X012155Y016261D01*
X012169Y016280D01*
X012185Y016297D01*
X012203Y016312D01*
X012223Y016325D01*
X012243Y016335D01*
X012244Y016336D02*
X012289Y016353D01*
X012336Y016366D01*
X012383Y016376D01*
X012431Y016382D01*
X012479Y016384D01*
X012528Y016382D01*
X012576Y016377D01*
X012623Y016368D01*
X012670Y016355D01*
X012715Y016338D01*
X012759Y016318D01*
X012802Y016295D01*
X012842Y016268D01*
X012880Y016238D01*
X012916Y016205D01*
X012949Y016170D01*
X012979Y016132D01*
X013006Y016092D01*
X013030Y016050D01*
X013050Y016006D01*
X013050Y014882D01*
X014210Y014882D01*
X014210Y016622D01*
X014209Y016652D01*
X014204Y016681D01*
X014196Y016709D01*
X014184Y016736D01*
X014169Y016762D01*
X014152Y016786D01*
X014131Y016807D01*
X014108Y016826D01*
X014083Y016842D01*
X014057Y016854D01*
X014028Y016864D01*
X013999Y016870D01*
X013970Y016872D01*
X013925Y016872D01*
X013925Y016900D01*
X013921Y016928D01*
X013914Y016955D01*
X013903Y016981D01*
X013889Y017005D01*
X013872Y017027D01*
X013852Y017047D01*
X013830Y017064D01*
X013806Y017078D01*
X013780Y017089D01*
X013753Y017096D01*
X013725Y017100D01*
X013575Y017100D01*
X013547Y017096D01*
X013520Y017089D01*
X013494Y017078D01*
X013470Y017064D01*
X013448Y017047D01*
X013428Y017027D01*
X013411Y017005D01*
X013397Y016981D01*
X013386Y016955D01*
X013379Y016928D01*
X013375Y016900D01*
X013375Y016872D01*
X008187Y016872D01*
X008187Y016900D01*
X008183Y016928D01*
X008176Y016955D01*
X008165Y016981D01*
X008151Y017005D01*
X008134Y017027D01*
X008114Y017047D01*
X008092Y017064D01*
X008068Y017078D01*
X008042Y017089D01*
X008015Y017096D01*
X007987Y017100D01*
X007837Y017100D01*
X007838Y017101D02*
X007809Y017097D01*
X007782Y017090D01*
X007756Y017080D01*
X007731Y017066D01*
X007708Y017049D01*
X007688Y017029D01*
X007670Y017007D01*
X007656Y016982D01*
X007644Y016956D01*
X007637Y016929D01*
X007633Y016901D01*
X007632Y016873D01*
X007632Y016872D02*
X003150Y016872D01*
X003120Y016870D01*
X003090Y016865D01*
X003061Y016856D01*
X003034Y016843D01*
X003008Y016828D01*
X002984Y016809D01*
X002963Y016788D01*
X002944Y016764D01*
X002929Y016738D01*
X002916Y016711D01*
X002907Y016682D01*
X002902Y016652D01*
X002900Y016622D01*
X002900Y011932D01*
X004650Y011932D01*
X004650Y013132D01*
X004350Y013582D02*
X004050Y013682D01*
X004024Y013691D01*
X003999Y013703D01*
X003976Y013719D01*
X003955Y013737D01*
X003937Y013758D01*
X003921Y013781D01*
X003909Y013806D01*
X003900Y013832D01*
X003900Y014432D01*
X004050Y014582D02*
X004350Y014682D01*
X004500Y014832D02*
X004500Y015082D01*
X004502Y015105D01*
X004507Y015128D01*
X004516Y015150D01*
X004529Y015170D01*
X004544Y015188D01*
X004562Y015203D01*
X004582Y015216D01*
X004604Y015225D01*
X004627Y015230D01*
X004650Y015232D01*
X006100Y015232D01*
X006123Y015230D01*
X006146Y015225D01*
X006168Y015216D01*
X006188Y015203D01*
X006206Y015188D01*
X006221Y015170D01*
X006234Y015150D01*
X006243Y015128D01*
X006248Y015105D01*
X006250Y015082D01*
X006250Y013782D01*
X006294Y013780D01*
X006337Y013774D01*
X006379Y013765D01*
X006421Y013752D01*
X006461Y013735D01*
X006500Y013715D01*
X006537Y013692D01*
X006571Y013665D01*
X006604Y013636D01*
X006633Y013603D01*
X006660Y013569D01*
X006683Y013532D01*
X006703Y013493D01*
X006720Y013453D01*
X006733Y013411D01*
X006742Y013369D01*
X006748Y013326D01*
X006750Y013282D01*
X006748Y013238D01*
X006742Y013195D01*
X006733Y013153D01*
X006720Y013111D01*
X006703Y013071D01*
X006683Y013032D01*
X006660Y012995D01*
X006633Y012961D01*
X006604Y012928D01*
X006571Y012899D01*
X006537Y012872D01*
X006500Y012849D01*
X006461Y012829D01*
X006421Y012812D01*
X006379Y012799D01*
X006337Y012790D01*
X006294Y012784D01*
X006250Y012782D01*
X006250Y012242D01*
X008390Y010092D01*
X009450Y010092D01*
X009399Y012242D02*
X009339Y012245D01*
X009280Y012253D01*
X009220Y012264D01*
X009162Y012278D01*
X009105Y012296D01*
X009048Y012318D01*
X008994Y012343D01*
X008940Y012371D01*
X008889Y012402D01*
X008840Y012437D01*
X008792Y012474D01*
X008747Y012514D01*
X008705Y012557D01*
X008665Y012602D01*
X008629Y012650D01*
X008595Y012700D01*
X008564Y012751D01*
X008536Y012805D01*
X008512Y012860D01*
X008491Y012916D01*
X008473Y012974D01*
X008459Y013033D01*
X008449Y013092D01*
X009353Y016241D02*
X009342Y016261D01*
X009328Y016280D01*
X009313Y016297D01*
X009295Y016312D01*
X009276Y016325D01*
X009256Y016335D01*
X004500Y014832D02*
X004487Y014803D01*
X004471Y014777D01*
X004452Y014752D01*
X004430Y014730D01*
X004405Y014711D01*
X004379Y014695D01*
X004350Y014682D01*
X004050Y014582D02*
X004024Y014573D01*
X003999Y014561D01*
X003976Y014545D01*
X003955Y014527D01*
X003937Y014506D01*
X003921Y014483D01*
X003909Y014458D01*
X003900Y014432D01*
X004350Y013582D02*
X004388Y013556D01*
X004425Y013528D01*
X004460Y013497D01*
X004492Y013463D01*
X004522Y013428D01*
X004550Y013390D01*
X004574Y013350D01*
X004595Y013309D01*
X004614Y013266D01*
X004629Y013222D01*
X004641Y013177D01*
X004650Y013132D01*
D11*
X009048Y014333D02*
X009048Y014577D01*
X009048Y015829D02*
X009048Y016073D01*
X012448Y016073D02*
X012448Y015829D01*
X012448Y014577D02*
X012448Y014333D01*
M02*
