G75*
G70*
%OFA0B0*%
%FSLAX24Y24*%
%IPPOS*%
%LPD*%
%AMOC8*
5,1,8,0,0,1.08239X$1,22.5*
%
%ADD10C,0.0050*%
%ADD11R,0.1100X0.0850*%
%ADD12R,0.1050X0.0850*%
%ADD13R,0.1650X0.0850*%
%ADD14R,0.0850X0.1150*%
%ADD15R,0.0810X0.2000*%
%ADD16R,0.0550X0.1400*%
%ADD17R,0.0197X0.0220*%
%ADD18R,0.0220X0.0197*%
%ADD19R,0.0315X0.0472*%
%ADD20R,0.0250X0.0472*%
%ADD21C,0.0004*%
%ADD22C,0.0450*%
%ADD23C,0.0709*%
%ADD24C,0.0120*%
%ADD25R,0.0600X0.0236*%
%ADD26R,0.1450X0.0350*%
%ADD27C,0.0512*%
%ADD28R,0.0250X0.0197*%
%ADD29R,0.0551X0.0236*%
%ADD30R,0.0551X0.1181*%
%ADD31R,0.0551X0.0906*%
%ADD32R,0.0354X0.0250*%
%ADD33R,0.0250X0.0354*%
%ADD34C,0.0984*%
%ADD35C,0.0850*%
%ADD36C,0.1378*%
D10*
X001284Y000534D02*
X024182Y000534D01*
X024182Y000533D02*
X024236Y000535D01*
X024290Y000540D01*
X024343Y000549D01*
X024396Y000562D01*
X024447Y000579D01*
X024497Y000599D01*
X024545Y000623D01*
X024592Y000650D01*
X024637Y000681D01*
X024679Y000714D01*
X024719Y000751D01*
X024756Y000790D01*
X024790Y000832D01*
X024821Y000876D01*
X024849Y000922D01*
X024873Y000970D01*
X024894Y001020D01*
X024912Y001071D01*
X024926Y001123D01*
X024936Y001176D01*
X024942Y001230D01*
X024944Y001283D01*
X024943Y001284D02*
X024943Y017502D01*
X024944Y017502D02*
X024942Y017556D01*
X024935Y017610D01*
X024925Y017663D01*
X024912Y017715D01*
X024894Y017766D01*
X024873Y017816D01*
X024849Y017864D01*
X024821Y017910D01*
X024789Y017954D01*
X024755Y017995D01*
X024718Y018034D01*
X024678Y018071D01*
X024636Y018104D01*
X024592Y018135D01*
X024545Y018162D01*
X024497Y018185D01*
X024447Y018206D01*
X024395Y018222D01*
X024343Y018235D01*
X024290Y018244D01*
X024236Y018250D01*
X024183Y018251D01*
X024182Y018250D02*
X013925Y018250D01*
X013925Y018222D01*
X013921Y018194D01*
X013914Y018167D01*
X013903Y018141D01*
X013889Y018117D01*
X013872Y018095D01*
X013852Y018075D01*
X013830Y018058D01*
X013806Y018044D01*
X013780Y018033D01*
X013753Y018026D01*
X013725Y018022D01*
X013575Y018022D01*
X013547Y018026D01*
X013520Y018033D01*
X013494Y018044D01*
X013470Y018058D01*
X013448Y018075D01*
X013428Y018095D01*
X013411Y018117D01*
X013397Y018141D01*
X013386Y018167D01*
X013379Y018194D01*
X013375Y018222D01*
X013375Y018250D01*
X008187Y018250D01*
X008187Y018222D01*
X008183Y018194D01*
X008176Y018167D01*
X008165Y018141D01*
X008151Y018117D01*
X008134Y018095D01*
X008114Y018075D01*
X008092Y018058D01*
X008068Y018044D01*
X008042Y018033D01*
X008015Y018026D01*
X007987Y018022D01*
X007837Y018022D01*
X007838Y018022D02*
X007809Y018026D01*
X007782Y018033D01*
X007756Y018043D01*
X007731Y018057D01*
X007708Y018074D01*
X007688Y018094D01*
X007670Y018116D01*
X007656Y018141D01*
X007644Y018167D01*
X007637Y018194D01*
X007633Y018222D01*
X007632Y018250D01*
X001284Y018250D01*
X001231Y018248D01*
X001177Y018243D01*
X001125Y018233D01*
X001073Y018220D01*
X001022Y018203D01*
X000973Y018183D01*
X000925Y018159D01*
X000879Y018132D01*
X000835Y018101D01*
X000793Y018068D01*
X000754Y018031D01*
X000718Y017992D01*
X000684Y017951D01*
X000653Y017907D01*
X000626Y017861D01*
X000602Y017813D01*
X000582Y017764D01*
X000565Y017713D01*
X000551Y017661D01*
X000542Y017609D01*
X000536Y017555D01*
X000534Y017502D01*
X000534Y001284D01*
X000536Y001230D01*
X000542Y001177D01*
X000551Y001125D01*
X000564Y001073D01*
X000581Y001022D01*
X000602Y000972D01*
X000626Y000925D01*
X000653Y000879D01*
X000684Y000835D01*
X000717Y000793D01*
X000754Y000754D01*
X000793Y000717D01*
X000835Y000684D01*
X000879Y000653D01*
X000925Y000626D01*
X000972Y000602D01*
X001022Y000581D01*
X001073Y000564D01*
X001125Y000551D01*
X001177Y000542D01*
X001230Y000536D01*
X001284Y000534D01*
X007900Y001984D02*
X007900Y007382D01*
X005450Y009832D01*
X003150Y009832D01*
X003120Y009834D01*
X003090Y009839D01*
X003061Y009848D01*
X003034Y009861D01*
X003008Y009876D01*
X002984Y009895D01*
X002963Y009916D01*
X002944Y009940D01*
X002929Y009966D01*
X002916Y009993D01*
X002907Y010022D01*
X002902Y010052D01*
X002900Y010082D01*
X002900Y011082D01*
X004650Y011082D01*
X004655Y011053D01*
X004662Y011024D01*
X004673Y010996D01*
X004687Y010970D01*
X004704Y010945D01*
X004724Y010922D01*
X004745Y010902D01*
X004769Y010884D01*
X004795Y010869D01*
X004823Y010858D01*
X004851Y010849D01*
X004880Y010843D01*
X004910Y010841D01*
X004940Y010842D01*
X006040Y010842D01*
X007940Y008942D01*
X014090Y008942D01*
X014116Y008940D01*
X014142Y008935D01*
X014167Y008927D01*
X014190Y008915D01*
X014212Y008901D01*
X014231Y008883D01*
X014249Y008864D01*
X014263Y008842D01*
X014275Y008819D01*
X014283Y008794D01*
X014288Y008768D01*
X014290Y008742D01*
X014290Y006502D01*
X014286Y006475D01*
X014279Y006449D01*
X014268Y006424D01*
X014254Y006401D01*
X014237Y006380D01*
X014217Y006362D01*
X014194Y006347D01*
X014170Y006335D01*
X014144Y006327D01*
X014117Y006323D01*
X014090Y006322D01*
X013890Y006322D01*
X013864Y006320D01*
X013838Y006315D01*
X013813Y006307D01*
X013790Y006295D01*
X013768Y006281D01*
X013749Y006263D01*
X013731Y006244D01*
X013717Y006222D01*
X013705Y006199D01*
X013697Y006174D01*
X013692Y006148D01*
X013690Y006122D01*
X013690Y005436D01*
X013690Y005437D02*
X013687Y005413D01*
X013681Y005391D01*
X013672Y005369D01*
X013660Y005349D01*
X013645Y005331D01*
X013628Y005315D01*
X013608Y005302D01*
X013587Y005292D01*
X013565Y005285D01*
X013542Y005281D01*
X013519Y005280D01*
X012785Y005280D01*
X012786Y005280D02*
X012763Y005284D01*
X012741Y005291D01*
X012720Y005301D01*
X012701Y005314D01*
X012684Y005330D01*
X012670Y005348D01*
X012658Y005368D01*
X012649Y005389D01*
X012643Y005411D01*
X012640Y005434D01*
X012641Y005457D01*
X012640Y005458D02*
X012640Y005520D01*
X012640Y005543D01*
X012636Y005566D01*
X012630Y005588D01*
X012620Y005609D01*
X012608Y005628D01*
X012593Y005645D01*
X012575Y005660D01*
X012556Y005673D01*
X012535Y005682D01*
X012513Y005688D01*
X012490Y005692D01*
X012300Y005692D01*
X012300Y005693D02*
X012277Y005696D01*
X012255Y005703D01*
X012234Y005713D01*
X012214Y005726D01*
X012197Y005742D01*
X012181Y005759D01*
X012169Y005779D01*
X012160Y005801D01*
X012153Y005823D01*
X012150Y005846D01*
X012151Y005870D01*
X012150Y005870D02*
X012150Y006820D01*
X011150Y006820D01*
X011150Y006320D01*
X011129Y006263D01*
X011106Y006207D01*
X011079Y006153D01*
X011049Y006100D01*
X011017Y006049D01*
X010981Y006000D01*
X010943Y005953D01*
X010903Y005908D01*
X010860Y005865D01*
X010814Y005825D01*
X010766Y005788D01*
X010717Y005753D01*
X010665Y005721D01*
X010612Y005692D01*
X010613Y005692D02*
X010563Y005654D01*
X010515Y005613D01*
X010470Y005569D01*
X010428Y005523D01*
X010388Y005474D01*
X010352Y005422D01*
X010319Y005369D01*
X010289Y005314D01*
X010262Y005257D01*
X010239Y005198D01*
X010220Y005138D01*
X010204Y005077D01*
X010192Y005016D01*
X010183Y004953D01*
X010179Y004890D01*
X010178Y004828D01*
X010181Y004765D01*
X010188Y004702D01*
X010199Y004640D01*
X010213Y004579D01*
X010231Y004519D01*
X010253Y004460D01*
X010278Y004402D01*
X010307Y004346D01*
X010339Y004292D01*
X010374Y004240D01*
X010412Y004190D01*
X010453Y004142D01*
X010498Y004097D01*
X010544Y004055D01*
X010593Y004016D01*
X010645Y003980D01*
X010698Y003947D01*
X010754Y003917D01*
X010811Y003891D01*
X010869Y003868D01*
X010929Y003849D01*
X010990Y003833D01*
X011052Y003821D01*
X011114Y003813D01*
X011177Y003809D01*
X011240Y003808D01*
X011303Y003812D01*
X011365Y003819D01*
X011427Y003830D01*
X011489Y003844D01*
X011549Y003862D01*
X011608Y003884D01*
X011665Y003910D01*
X011885Y003910D01*
X012085Y003710D01*
X012085Y003510D01*
X012087Y003478D01*
X012092Y003446D01*
X012102Y003415D01*
X012115Y003385D01*
X012131Y003357D01*
X012150Y003331D01*
X012172Y003308D01*
X012197Y003287D01*
X012224Y003269D01*
X012253Y003255D01*
X012283Y003244D01*
X012315Y003236D01*
X012347Y003232D01*
X012379Y003232D01*
X012411Y003236D01*
X012443Y003244D01*
X012473Y003255D01*
X012502Y003269D01*
X012529Y003287D01*
X012554Y003308D01*
X012576Y003331D01*
X012595Y003357D01*
X012611Y003385D01*
X012624Y003415D01*
X012634Y003446D01*
X012639Y003478D01*
X012641Y003510D01*
X012640Y003510D02*
X012640Y004231D01*
X012641Y004231D02*
X012644Y004254D01*
X012651Y004276D01*
X012661Y004297D01*
X012674Y004317D01*
X012689Y004334D01*
X012707Y004349D01*
X012727Y004361D01*
X012748Y004371D01*
X012771Y004377D01*
X012794Y004380D01*
X012817Y004379D01*
X012817Y004380D02*
X013540Y004380D01*
X013563Y004377D01*
X013585Y004370D01*
X013605Y004361D01*
X013625Y004349D01*
X013642Y004334D01*
X013657Y004317D01*
X013670Y004298D01*
X013679Y004277D01*
X013686Y004255D01*
X013689Y004233D01*
X013690Y004210D01*
X013690Y003192D01*
X013692Y003158D01*
X013698Y003125D01*
X013707Y003093D01*
X013720Y003062D01*
X013736Y003032D01*
X013755Y003005D01*
X013778Y002980D01*
X013803Y002957D01*
X013830Y002938D01*
X013860Y002922D01*
X013891Y002909D01*
X013923Y002900D01*
X013956Y002894D01*
X013990Y002892D01*
X014269Y002892D01*
X014269Y001732D01*
X008153Y001732D01*
X008152Y001732D02*
X008122Y001734D01*
X008092Y001739D01*
X008063Y001748D01*
X008035Y001761D01*
X008009Y001776D01*
X007985Y001795D01*
X007964Y001817D01*
X007945Y001840D01*
X007929Y001867D01*
X007917Y001894D01*
X007907Y001923D01*
X007902Y001953D01*
X007900Y001984D01*
X015119Y001732D02*
X015119Y002892D01*
X020595Y002892D01*
X020629Y002896D01*
X020662Y002904D01*
X020694Y002916D01*
X020725Y002930D01*
X020754Y002948D01*
X020781Y002969D01*
X020806Y002992D01*
X020828Y003018D01*
X020848Y003046D01*
X020864Y003076D01*
X020877Y003108D01*
X020887Y003140D01*
X020893Y003174D01*
X020896Y003208D01*
X020895Y003242D01*
X020895Y004126D01*
X021955Y004126D01*
X021955Y001982D01*
X021953Y001952D01*
X021948Y001922D01*
X021939Y001893D01*
X021926Y001866D01*
X021911Y001840D01*
X021892Y001816D01*
X021871Y001795D01*
X021847Y001776D01*
X021821Y001761D01*
X021794Y001748D01*
X021765Y001739D01*
X021735Y001734D01*
X021705Y001732D01*
X015119Y001732D01*
X018795Y005535D02*
X020595Y005535D01*
X020629Y005533D01*
X020662Y005527D01*
X020694Y005518D01*
X020725Y005505D01*
X020755Y005489D01*
X020782Y005470D01*
X020807Y005447D01*
X020830Y005422D01*
X020849Y005395D01*
X020865Y005365D01*
X020878Y005334D01*
X020887Y005302D01*
X020893Y005269D01*
X020895Y005235D01*
X020895Y004976D01*
X021955Y004976D01*
X021955Y011532D01*
X021953Y011562D01*
X021948Y011592D01*
X021939Y011621D01*
X021926Y011648D01*
X021911Y011674D01*
X021892Y011698D01*
X021871Y011719D01*
X021847Y011738D01*
X021821Y011753D01*
X021794Y011766D01*
X021765Y011775D01*
X021735Y011780D01*
X021705Y011782D01*
X014460Y011782D01*
X014430Y011784D01*
X014400Y011789D01*
X014371Y011798D01*
X014344Y011811D01*
X014318Y011826D01*
X014294Y011845D01*
X014273Y011866D01*
X014254Y011890D01*
X014239Y011916D01*
X014226Y011943D01*
X014217Y011972D01*
X014212Y012002D01*
X014210Y012032D01*
X014210Y014032D01*
X013050Y014032D01*
X013050Y013092D01*
X013051Y013092D02*
X013042Y013031D01*
X013029Y012972D01*
X013012Y012913D01*
X012992Y012855D01*
X012968Y012799D01*
X012941Y012744D01*
X012910Y012691D01*
X012876Y012641D01*
X012839Y012592D01*
X012798Y012546D01*
X012755Y012503D01*
X012709Y012462D01*
X012661Y012425D01*
X012611Y012390D01*
X012558Y012359D01*
X012504Y012332D01*
X012448Y012307D01*
X012390Y012287D01*
X012331Y012270D01*
X012272Y012257D01*
X012211Y012247D01*
X012150Y012242D01*
X010250Y012242D01*
X010250Y010092D01*
X016934Y010092D01*
X017284Y009740D01*
X018284Y009740D01*
X018315Y009739D01*
X018346Y009734D01*
X018375Y009725D01*
X018404Y009713D01*
X018431Y009698D01*
X018455Y009679D01*
X018478Y009658D01*
X018497Y009634D01*
X018514Y009608D01*
X018527Y009580D01*
X018537Y009551D01*
X018543Y009521D01*
X018546Y009490D01*
X018545Y009490D02*
X018545Y005785D01*
X018547Y005755D01*
X018552Y005725D01*
X018561Y005696D01*
X018574Y005669D01*
X018589Y005643D01*
X018608Y005619D01*
X018629Y005598D01*
X018653Y005579D01*
X018679Y005564D01*
X018706Y005551D01*
X018735Y005542D01*
X018765Y005537D01*
X018795Y005535D01*
X009450Y010092D02*
X009450Y012242D01*
X009400Y012242D01*
X008450Y013092D02*
X008450Y016006D01*
X008470Y016050D01*
X008494Y016092D01*
X008521Y016132D01*
X008551Y016170D01*
X008584Y016205D01*
X008620Y016238D01*
X008658Y016268D01*
X008698Y016295D01*
X008741Y016318D01*
X008785Y016338D01*
X008830Y016355D01*
X008877Y016368D01*
X008924Y016377D01*
X008972Y016382D01*
X009021Y016384D01*
X009069Y016382D01*
X009117Y016376D01*
X009164Y016366D01*
X009211Y016353D01*
X009256Y016336D01*
X009354Y016242D02*
X012144Y016242D01*
X012144Y016241D02*
X012155Y016261D01*
X012169Y016280D01*
X012185Y016297D01*
X012203Y016312D01*
X012223Y016325D01*
X012243Y016335D01*
X012244Y016336D02*
X012289Y016353D01*
X012336Y016366D01*
X012383Y016376D01*
X012431Y016382D01*
X012479Y016384D01*
X012528Y016382D01*
X012576Y016377D01*
X012623Y016368D01*
X012670Y016355D01*
X012715Y016338D01*
X012759Y016318D01*
X012802Y016295D01*
X012842Y016268D01*
X012880Y016238D01*
X012916Y016205D01*
X012949Y016170D01*
X012979Y016132D01*
X013006Y016092D01*
X013030Y016050D01*
X013050Y016006D01*
X013050Y014882D01*
X014210Y014882D01*
X014210Y016622D01*
X014209Y016652D01*
X014204Y016681D01*
X014196Y016709D01*
X014184Y016736D01*
X014169Y016762D01*
X014152Y016786D01*
X014131Y016807D01*
X014108Y016826D01*
X014083Y016842D01*
X014057Y016854D01*
X014028Y016864D01*
X013999Y016870D01*
X013970Y016872D01*
X013925Y016872D01*
X013925Y016900D01*
X013921Y016928D01*
X013914Y016955D01*
X013903Y016981D01*
X013889Y017005D01*
X013872Y017027D01*
X013852Y017047D01*
X013830Y017064D01*
X013806Y017078D01*
X013780Y017089D01*
X013753Y017096D01*
X013725Y017100D01*
X013575Y017100D01*
X013547Y017096D01*
X013520Y017089D01*
X013494Y017078D01*
X013470Y017064D01*
X013448Y017047D01*
X013428Y017027D01*
X013411Y017005D01*
X013397Y016981D01*
X013386Y016955D01*
X013379Y016928D01*
X013375Y016900D01*
X013375Y016872D01*
X008187Y016872D01*
X008187Y016900D01*
X008183Y016928D01*
X008176Y016955D01*
X008165Y016981D01*
X008151Y017005D01*
X008134Y017027D01*
X008114Y017047D01*
X008092Y017064D01*
X008068Y017078D01*
X008042Y017089D01*
X008015Y017096D01*
X007987Y017100D01*
X007837Y017100D01*
X007838Y017101D02*
X007809Y017097D01*
X007782Y017090D01*
X007756Y017080D01*
X007731Y017066D01*
X007708Y017049D01*
X007688Y017029D01*
X007670Y017007D01*
X007656Y016982D01*
X007644Y016956D01*
X007637Y016929D01*
X007633Y016901D01*
X007632Y016873D01*
X007632Y016872D02*
X003150Y016872D01*
X003120Y016870D01*
X003090Y016865D01*
X003061Y016856D01*
X003034Y016843D01*
X003008Y016828D01*
X002984Y016809D01*
X002963Y016788D01*
X002944Y016764D01*
X002929Y016738D01*
X002916Y016711D01*
X002907Y016682D01*
X002902Y016652D01*
X002900Y016622D01*
X002900Y011932D01*
X004650Y011932D01*
X004650Y013132D01*
X004350Y013582D02*
X004050Y013682D01*
X004024Y013691D01*
X003999Y013703D01*
X003976Y013719D01*
X003955Y013737D01*
X003937Y013758D01*
X003921Y013781D01*
X003909Y013806D01*
X003900Y013832D01*
X003900Y014432D01*
X004050Y014582D02*
X004350Y014682D01*
X004500Y014832D02*
X004500Y015082D01*
X004502Y015105D01*
X004507Y015128D01*
X004516Y015150D01*
X004529Y015170D01*
X004544Y015188D01*
X004562Y015203D01*
X004582Y015216D01*
X004604Y015225D01*
X004627Y015230D01*
X004650Y015232D01*
X006100Y015232D01*
X006123Y015230D01*
X006146Y015225D01*
X006168Y015216D01*
X006188Y015203D01*
X006206Y015188D01*
X006221Y015170D01*
X006234Y015150D01*
X006243Y015128D01*
X006248Y015105D01*
X006250Y015082D01*
X006250Y013782D01*
X006294Y013780D01*
X006337Y013774D01*
X006379Y013765D01*
X006421Y013752D01*
X006461Y013735D01*
X006500Y013715D01*
X006537Y013692D01*
X006571Y013665D01*
X006604Y013636D01*
X006633Y013603D01*
X006660Y013569D01*
X006683Y013532D01*
X006703Y013493D01*
X006720Y013453D01*
X006733Y013411D01*
X006742Y013369D01*
X006748Y013326D01*
X006750Y013282D01*
X006748Y013238D01*
X006742Y013195D01*
X006733Y013153D01*
X006720Y013111D01*
X006703Y013071D01*
X006683Y013032D01*
X006660Y012995D01*
X006633Y012961D01*
X006604Y012928D01*
X006571Y012899D01*
X006537Y012872D01*
X006500Y012849D01*
X006461Y012829D01*
X006421Y012812D01*
X006379Y012799D01*
X006337Y012790D01*
X006294Y012784D01*
X006250Y012782D01*
X006250Y012242D01*
X008390Y010092D01*
X009450Y010092D01*
X009399Y012242D02*
X009339Y012245D01*
X009280Y012253D01*
X009220Y012264D01*
X009162Y012278D01*
X009105Y012296D01*
X009048Y012318D01*
X008994Y012343D01*
X008940Y012371D01*
X008889Y012402D01*
X008840Y012437D01*
X008792Y012474D01*
X008747Y012514D01*
X008705Y012557D01*
X008665Y012602D01*
X008629Y012650D01*
X008595Y012700D01*
X008564Y012751D01*
X008536Y012805D01*
X008512Y012860D01*
X008491Y012916D01*
X008473Y012974D01*
X008459Y013033D01*
X008449Y013092D01*
X009353Y016241D02*
X009342Y016261D01*
X009328Y016280D01*
X009313Y016297D01*
X009295Y016312D01*
X009276Y016325D01*
X009256Y016335D01*
X004500Y014832D02*
X004487Y014803D01*
X004471Y014777D01*
X004452Y014752D01*
X004430Y014730D01*
X004405Y014711D01*
X004379Y014695D01*
X004350Y014682D01*
X004050Y014582D02*
X004024Y014573D01*
X003999Y014561D01*
X003976Y014545D01*
X003955Y014527D01*
X003937Y014506D01*
X003921Y014483D01*
X003909Y014458D01*
X003900Y014432D01*
X004350Y013582D02*
X004388Y013556D01*
X004425Y013528D01*
X004460Y013497D01*
X004492Y013463D01*
X004522Y013428D01*
X004550Y013390D01*
X004574Y013350D01*
X004595Y013309D01*
X004614Y013266D01*
X004629Y013222D01*
X004641Y013177D01*
X004650Y013132D01*
D11*
X021425Y004551D03*
D12*
X013655Y014457D03*
D13*
X003775Y011507D03*
D14*
X014694Y002357D03*
D15*
X009849Y011164D03*
D16*
X007912Y017550D03*
D17*
X014914Y008057D03*
X015334Y008057D03*
X015754Y008057D03*
X015754Y007610D03*
X015334Y007610D03*
X014914Y007610D03*
X014302Y004923D03*
X013942Y004923D03*
X013942Y004476D03*
X014302Y004476D03*
X014302Y003829D03*
X013942Y003829D03*
X013942Y003383D03*
X014302Y003383D03*
X018465Y003347D03*
X018465Y003794D03*
D18*
X016420Y005315D03*
X015974Y005315D03*
X015520Y005315D03*
X015074Y005315D03*
X016400Y007604D03*
X016847Y007604D03*
X011413Y005232D03*
X010967Y005232D03*
X010967Y004872D03*
X010967Y004512D03*
X011413Y004512D03*
X011413Y004872D03*
X011413Y004152D03*
X010967Y004152D03*
X011127Y013421D03*
X011573Y013421D03*
X010373Y013421D03*
X009927Y013421D03*
D19*
X010152Y014405D03*
X009667Y014405D03*
X011348Y014405D03*
X011833Y014405D03*
D20*
X010947Y014405D03*
X010553Y014405D03*
D21*
X009282Y014407D02*
X008810Y014407D01*
X008810Y014409D02*
X009282Y014409D01*
X009282Y014411D02*
X008810Y014411D01*
X008810Y014414D02*
X009282Y014414D01*
X009282Y014416D02*
X008810Y014416D01*
X008810Y014419D02*
X009282Y014419D01*
X009282Y014421D02*
X008810Y014421D01*
X008810Y014424D02*
X009282Y014424D01*
X009282Y014426D02*
X008810Y014426D01*
X008810Y014428D02*
X009282Y014428D01*
X009282Y014431D02*
X008810Y014431D01*
X008810Y014433D02*
X009282Y014433D01*
X009282Y014436D02*
X008810Y014436D01*
X008810Y014438D02*
X009282Y014438D01*
X009282Y014441D02*
X008810Y014441D01*
X008810Y014443D02*
X009282Y014443D01*
X009282Y014446D02*
X008810Y014446D01*
X008810Y014448D02*
X009282Y014448D01*
X009282Y014450D02*
X008810Y014450D01*
X008810Y014453D02*
X009282Y014453D01*
X009282Y014455D02*
X008810Y014455D01*
X008810Y014458D02*
X009282Y014458D01*
X009282Y014460D02*
X008810Y014460D01*
X008810Y014463D02*
X009282Y014463D01*
X009282Y014465D02*
X008810Y014465D01*
X008810Y014467D02*
X009282Y014467D01*
X009282Y014470D02*
X008810Y014470D01*
X008810Y014472D02*
X009282Y014472D01*
X009282Y014475D02*
X008810Y014475D01*
X008810Y014477D02*
X009282Y014477D01*
X009282Y014480D02*
X008810Y014480D01*
X008810Y014482D02*
X009282Y014482D01*
X009282Y014485D02*
X008810Y014485D01*
X008810Y014487D02*
X009282Y014487D01*
X009282Y014489D02*
X008810Y014489D01*
X008810Y014492D02*
X009282Y014492D01*
X009282Y014494D02*
X008810Y014494D01*
X008810Y014497D02*
X009282Y014497D01*
X009282Y014499D02*
X008810Y014499D01*
X008810Y014502D02*
X009282Y014502D01*
X009282Y014504D02*
X008810Y014504D01*
X008810Y014506D02*
X009282Y014506D01*
X009282Y014509D02*
X008810Y014509D01*
X008810Y014511D02*
X009282Y014511D01*
X009282Y014514D02*
X008810Y014514D01*
X008810Y014516D02*
X009282Y014516D01*
X009282Y014519D02*
X008810Y014519D01*
X008810Y014521D02*
X009282Y014521D01*
X009282Y014524D02*
X008810Y014524D01*
X008810Y014526D02*
X009282Y014526D01*
X009282Y014528D02*
X008810Y014528D01*
X008810Y014531D02*
X009282Y014531D01*
X009282Y014533D02*
X008810Y014533D01*
X008810Y014536D02*
X009282Y014536D01*
X009282Y014538D02*
X008810Y014538D01*
X008810Y014541D02*
X009282Y014541D01*
X009282Y014543D02*
X008810Y014543D01*
X008810Y014545D02*
X009282Y014545D01*
X009282Y014548D02*
X008810Y014548D01*
X008810Y014550D02*
X009282Y014550D01*
X009282Y014553D02*
X008810Y014553D01*
X008810Y014555D02*
X009282Y014555D01*
X009282Y014558D02*
X008810Y014558D01*
X008810Y014560D02*
X009282Y014560D01*
X009282Y014563D02*
X008810Y014563D01*
X008810Y014565D02*
X009282Y014565D01*
X009282Y014567D02*
X008810Y014567D01*
X008810Y014570D02*
X009282Y014570D01*
X009282Y014572D02*
X008810Y014572D01*
X008810Y014575D02*
X009282Y014575D01*
X009282Y014577D02*
X008810Y014577D01*
X008815Y014623D01*
X008828Y014667D01*
X009263Y014667D01*
X009264Y014665D02*
X008827Y014665D01*
X008827Y014662D02*
X009265Y014662D01*
X009265Y014660D02*
X008826Y014660D01*
X008825Y014658D02*
X009266Y014658D01*
X009267Y014655D02*
X008824Y014655D01*
X008824Y014653D02*
X009268Y014653D01*
X009269Y014650D02*
X008823Y014650D01*
X008822Y014648D02*
X009270Y014648D01*
X009271Y014645D02*
X008821Y014645D01*
X008821Y014643D02*
X009271Y014643D01*
X009272Y014641D02*
X008820Y014641D01*
X008819Y014638D02*
X009273Y014638D01*
X009274Y014636D02*
X008818Y014636D01*
X008818Y014633D02*
X009275Y014633D01*
X009276Y014631D02*
X008817Y014631D01*
X008816Y014628D02*
X009276Y014628D01*
X009276Y014630D02*
X009282Y014577D01*
X009282Y014341D01*
X009277Y014288D01*
X009259Y014238D01*
X009231Y014193D01*
X009194Y014155D01*
X009149Y014127D01*
X009099Y014109D01*
X008995Y014109D01*
X009000Y014108D02*
X008955Y014121D01*
X008914Y014144D01*
X008879Y014173D01*
X008849Y014209D01*
X008828Y014250D01*
X008814Y014295D01*
X008810Y014341D01*
X008810Y014577D01*
X008810Y014580D02*
X009282Y014580D01*
X009282Y014582D02*
X008810Y014582D01*
X008811Y014584D02*
X009281Y014584D01*
X009281Y014587D02*
X008811Y014587D01*
X008811Y014589D02*
X009281Y014589D01*
X009281Y014592D02*
X008811Y014592D01*
X008812Y014594D02*
X009280Y014594D01*
X009280Y014597D02*
X008812Y014597D01*
X008812Y014599D02*
X009280Y014599D01*
X009279Y014602D02*
X008812Y014602D01*
X008813Y014604D02*
X009279Y014604D01*
X009279Y014606D02*
X008813Y014606D01*
X008813Y014609D02*
X009279Y014609D01*
X009278Y014611D02*
X008813Y014611D01*
X008814Y014614D02*
X009278Y014614D01*
X009278Y014616D02*
X008814Y014616D01*
X008814Y014619D02*
X009277Y014619D01*
X009277Y014621D02*
X008814Y014621D01*
X008815Y014623D02*
X009277Y014623D01*
X009277Y014626D02*
X008815Y014626D01*
X008828Y014667D02*
X008850Y014708D01*
X008879Y014743D01*
X009211Y014743D01*
X009209Y014745D02*
X008882Y014745D01*
X008879Y014743D02*
X008915Y014773D01*
X008956Y014794D01*
X009000Y014807D01*
X009046Y014812D01*
X009098Y014806D01*
X009148Y014789D01*
X009193Y014761D01*
X009230Y014724D01*
X009259Y014679D01*
X009276Y014630D01*
X009262Y014670D02*
X008829Y014670D01*
X008831Y014672D02*
X009261Y014672D01*
X009260Y014675D02*
X008832Y014675D01*
X008833Y014677D02*
X009259Y014677D01*
X009258Y014680D02*
X008835Y014680D01*
X008836Y014682D02*
X009257Y014682D01*
X009255Y014684D02*
X008837Y014684D01*
X008839Y014687D02*
X009254Y014687D01*
X009252Y014689D02*
X008840Y014689D01*
X008841Y014692D02*
X009251Y014692D01*
X009249Y014694D02*
X008843Y014694D01*
X008844Y014697D02*
X009248Y014697D01*
X009246Y014699D02*
X008845Y014699D01*
X008847Y014701D02*
X009245Y014701D01*
X009243Y014704D02*
X008848Y014704D01*
X008849Y014706D02*
X009241Y014706D01*
X009240Y014709D02*
X008851Y014709D01*
X008853Y014711D02*
X009238Y014711D01*
X009237Y014714D02*
X008855Y014714D01*
X008857Y014716D02*
X009235Y014716D01*
X009234Y014719D02*
X008859Y014719D01*
X008861Y014721D02*
X009232Y014721D01*
X009231Y014723D02*
X008863Y014723D01*
X008865Y014726D02*
X009228Y014726D01*
X009226Y014728D02*
X008867Y014728D01*
X008869Y014731D02*
X009223Y014731D01*
X009221Y014733D02*
X008871Y014733D01*
X008873Y014736D02*
X009219Y014736D01*
X009216Y014738D02*
X008875Y014738D01*
X008877Y014740D02*
X009214Y014740D01*
X009206Y014748D02*
X008885Y014748D01*
X008888Y014750D02*
X009204Y014750D01*
X009201Y014753D02*
X008891Y014753D01*
X008894Y014755D02*
X009199Y014755D01*
X009196Y014758D02*
X008897Y014758D01*
X008900Y014760D02*
X009194Y014760D01*
X009191Y014762D02*
X008903Y014762D01*
X008906Y014765D02*
X009187Y014765D01*
X009183Y014767D02*
X008909Y014767D01*
X008912Y014770D02*
X009179Y014770D01*
X009175Y014772D02*
X008915Y014772D01*
X008919Y014775D02*
X009171Y014775D01*
X009167Y014777D02*
X008924Y014777D01*
X008928Y014779D02*
X009163Y014779D01*
X009159Y014782D02*
X008933Y014782D01*
X008937Y014784D02*
X009155Y014784D01*
X009151Y014787D02*
X008942Y014787D01*
X008947Y014789D02*
X009147Y014789D01*
X009140Y014792D02*
X008951Y014792D01*
X008956Y014794D02*
X009133Y014794D01*
X009126Y014797D02*
X008964Y014797D01*
X008972Y014799D02*
X009119Y014799D01*
X009112Y014801D02*
X008980Y014801D01*
X008988Y014804D02*
X009105Y014804D01*
X009096Y014806D02*
X008997Y014806D01*
X009015Y014809D02*
X009073Y014809D01*
X009051Y014811D02*
X009041Y014811D01*
X008810Y014404D02*
X009282Y014404D01*
X009282Y014402D02*
X008810Y014402D01*
X008810Y014399D02*
X009282Y014399D01*
X009282Y014397D02*
X008810Y014397D01*
X008810Y014394D02*
X009282Y014394D01*
X009282Y014392D02*
X008810Y014392D01*
X008810Y014389D02*
X009282Y014389D01*
X009282Y014387D02*
X008810Y014387D01*
X008810Y014385D02*
X009282Y014385D01*
X009282Y014382D02*
X008810Y014382D01*
X008810Y014380D02*
X009282Y014380D01*
X009282Y014377D02*
X008810Y014377D01*
X008810Y014375D02*
X009282Y014375D01*
X009282Y014372D02*
X008810Y014372D01*
X008810Y014370D02*
X009282Y014370D01*
X009282Y014368D02*
X008810Y014368D01*
X008810Y014365D02*
X009282Y014365D01*
X009282Y014363D02*
X008810Y014363D01*
X008810Y014360D02*
X009282Y014360D01*
X009282Y014358D02*
X008810Y014358D01*
X008810Y014355D02*
X009282Y014355D01*
X009282Y014353D02*
X008810Y014353D01*
X008810Y014350D02*
X009282Y014350D01*
X009282Y014348D02*
X008810Y014348D01*
X008810Y014346D02*
X009282Y014346D01*
X009282Y014343D02*
X008810Y014343D01*
X008810Y014341D02*
X009282Y014341D01*
X009282Y014338D02*
X008810Y014338D01*
X008810Y014336D02*
X009282Y014336D01*
X009281Y014333D02*
X008811Y014333D01*
X008811Y014331D02*
X009281Y014331D01*
X009281Y014329D02*
X008811Y014329D01*
X008811Y014326D02*
X009281Y014326D01*
X009280Y014324D02*
X008811Y014324D01*
X008812Y014321D02*
X009280Y014321D01*
X009280Y014319D02*
X008812Y014319D01*
X008812Y014316D02*
X009280Y014316D01*
X009279Y014314D02*
X008812Y014314D01*
X008813Y014311D02*
X009279Y014311D01*
X009279Y014309D02*
X008813Y014309D01*
X008813Y014307D02*
X009279Y014307D01*
X009278Y014304D02*
X008813Y014304D01*
X008814Y014302D02*
X009278Y014302D01*
X009278Y014299D02*
X008814Y014299D01*
X008814Y014297D02*
X009277Y014297D01*
X009277Y014294D02*
X008814Y014294D01*
X008815Y014292D02*
X009277Y014292D01*
X009277Y014290D02*
X008816Y014290D01*
X008817Y014287D02*
X009276Y014287D01*
X009275Y014285D02*
X008817Y014285D01*
X008818Y014282D02*
X009274Y014282D01*
X009274Y014280D02*
X008819Y014280D01*
X008819Y014277D02*
X009273Y014277D01*
X009272Y014275D02*
X008820Y014275D01*
X008821Y014273D02*
X009271Y014273D01*
X009270Y014270D02*
X008822Y014270D01*
X008822Y014268D02*
X009269Y014268D01*
X009269Y014265D02*
X008823Y014265D01*
X008824Y014263D02*
X009268Y014263D01*
X009267Y014260D02*
X008825Y014260D01*
X008825Y014258D02*
X009266Y014258D01*
X009265Y014255D02*
X008826Y014255D01*
X008827Y014253D02*
X009264Y014253D01*
X009264Y014251D02*
X008827Y014251D01*
X008829Y014248D02*
X009263Y014248D01*
X009262Y014246D02*
X008830Y014246D01*
X008831Y014243D02*
X009261Y014243D01*
X009260Y014241D02*
X008833Y014241D01*
X008834Y014238D02*
X009259Y014238D01*
X009258Y014236D02*
X008835Y014236D01*
X008836Y014234D02*
X009256Y014234D01*
X009255Y014231D02*
X008838Y014231D01*
X008839Y014229D02*
X009253Y014229D01*
X009252Y014226D02*
X008840Y014226D01*
X008842Y014224D02*
X009250Y014224D01*
X009249Y014221D02*
X008843Y014221D01*
X008844Y014219D02*
X009247Y014219D01*
X009246Y014216D02*
X008845Y014216D01*
X008847Y014214D02*
X009244Y014214D01*
X009243Y014212D02*
X008848Y014212D01*
X008849Y014209D02*
X009241Y014209D01*
X009240Y014207D02*
X008851Y014207D01*
X008853Y014204D02*
X009238Y014204D01*
X009237Y014202D02*
X008855Y014202D01*
X008857Y014199D02*
X009235Y014199D01*
X009234Y014197D02*
X008859Y014197D01*
X008861Y014195D02*
X009232Y014195D01*
X009230Y014192D02*
X008863Y014192D01*
X008865Y014190D02*
X009228Y014190D01*
X009225Y014187D02*
X008867Y014187D01*
X008869Y014185D02*
X009223Y014185D01*
X009220Y014182D02*
X008871Y014182D01*
X008873Y014180D02*
X009218Y014180D01*
X009216Y014177D02*
X008875Y014177D01*
X008877Y014175D02*
X009213Y014175D01*
X009211Y014173D02*
X008879Y014173D01*
X008882Y014170D02*
X009208Y014170D01*
X009206Y014168D02*
X008885Y014168D01*
X008888Y014165D02*
X009204Y014165D01*
X009201Y014163D02*
X008891Y014163D01*
X008894Y014160D02*
X009199Y014160D01*
X009196Y014158D02*
X008897Y014158D01*
X008900Y014156D02*
X009194Y014156D01*
X009190Y014153D02*
X008903Y014153D01*
X008906Y014151D02*
X009186Y014151D01*
X009182Y014148D02*
X008909Y014148D01*
X008912Y014146D02*
X009179Y014146D01*
X009175Y014143D02*
X008915Y014143D01*
X008919Y014141D02*
X009171Y014141D01*
X009167Y014138D02*
X008924Y014138D01*
X008928Y014136D02*
X009163Y014136D01*
X009159Y014134D02*
X008933Y014134D01*
X008937Y014131D02*
X009156Y014131D01*
X009152Y014129D02*
X008942Y014129D01*
X008946Y014126D02*
X009147Y014126D01*
X009140Y014124D02*
X008951Y014124D01*
X008955Y014121D02*
X009133Y014121D01*
X009126Y014119D02*
X008963Y014119D01*
X008971Y014117D02*
X009120Y014117D01*
X009113Y014114D02*
X008979Y014114D01*
X008987Y014112D02*
X009106Y014112D01*
X009099Y014109D02*
X009046Y014103D01*
X009000Y014108D01*
X009009Y014107D02*
X009078Y014107D01*
X009058Y014104D02*
X009033Y014104D01*
X009046Y015599D02*
X009000Y015604D01*
X008955Y015617D01*
X008914Y015640D01*
X009175Y015640D01*
X009172Y015637D02*
X008919Y015637D01*
X008923Y015635D02*
X009168Y015635D01*
X009164Y015632D02*
X008928Y015632D01*
X008932Y015630D02*
X009160Y015630D01*
X009156Y015628D02*
X008937Y015628D01*
X008941Y015625D02*
X009152Y015625D01*
X009149Y015623D02*
X009099Y015605D01*
X009046Y015599D01*
X009061Y015601D02*
X009029Y015601D01*
X009005Y015603D02*
X009082Y015603D01*
X009100Y015606D02*
X008994Y015606D01*
X008986Y015608D02*
X009107Y015608D01*
X009114Y015611D02*
X008978Y015611D01*
X008970Y015613D02*
X009121Y015613D01*
X009128Y015615D02*
X008962Y015615D01*
X008955Y015618D02*
X009134Y015618D01*
X009141Y015620D02*
X008950Y015620D01*
X008946Y015623D02*
X009148Y015623D01*
X009149Y015623D02*
X009194Y015651D01*
X009231Y015689D01*
X009259Y015734D01*
X009277Y015784D01*
X009282Y015837D01*
X008810Y015837D01*
X008810Y016073D01*
X008815Y016119D01*
X008828Y016163D01*
X008850Y016204D01*
X008879Y016240D01*
X008915Y016269D01*
X008956Y016290D01*
X009000Y016303D01*
X009046Y016308D01*
X009098Y016302D01*
X009148Y016285D01*
X009193Y016257D01*
X009230Y016220D01*
X009259Y016175D01*
X009276Y016126D01*
X009282Y016073D01*
X009282Y015837D01*
X009282Y015835D02*
X008810Y015835D01*
X008810Y015837D02*
X008814Y015791D01*
X008828Y015746D01*
X008849Y015705D01*
X008879Y015669D01*
X009211Y015669D01*
X009209Y015667D02*
X008882Y015667D01*
X008885Y015664D02*
X009206Y015664D01*
X009204Y015662D02*
X008888Y015662D01*
X008891Y015659D02*
X009202Y015659D01*
X009199Y015657D02*
X008894Y015657D01*
X008897Y015654D02*
X009197Y015654D01*
X009194Y015652D02*
X008899Y015652D01*
X008902Y015650D02*
X009191Y015650D01*
X009187Y015647D02*
X008905Y015647D01*
X008908Y015645D02*
X009183Y015645D01*
X009179Y015642D02*
X008911Y015642D01*
X008914Y015640D02*
X008879Y015669D01*
X008877Y015671D02*
X009214Y015671D01*
X009216Y015674D02*
X008875Y015674D01*
X008873Y015676D02*
X009218Y015676D01*
X009221Y015679D02*
X008871Y015679D01*
X008869Y015681D02*
X009223Y015681D01*
X009226Y015684D02*
X008867Y015684D01*
X008865Y015686D02*
X009228Y015686D01*
X009231Y015689D02*
X008863Y015689D01*
X008861Y015691D02*
X009232Y015691D01*
X009234Y015693D02*
X008859Y015693D01*
X008857Y015696D02*
X009235Y015696D01*
X009237Y015698D02*
X008855Y015698D01*
X008853Y015701D02*
X009238Y015701D01*
X009240Y015703D02*
X008851Y015703D01*
X008849Y015706D02*
X009241Y015706D01*
X009243Y015708D02*
X008848Y015708D01*
X008847Y015710D02*
X009244Y015710D01*
X009246Y015713D02*
X008845Y015713D01*
X008844Y015715D02*
X009247Y015715D01*
X009249Y015718D02*
X008843Y015718D01*
X008841Y015720D02*
X009251Y015720D01*
X009252Y015723D02*
X008840Y015723D01*
X008839Y015725D02*
X009254Y015725D01*
X009255Y015728D02*
X008838Y015728D01*
X008836Y015730D02*
X009257Y015730D01*
X009258Y015732D02*
X008835Y015732D01*
X008834Y015735D02*
X009259Y015735D01*
X009260Y015737D02*
X008832Y015737D01*
X008831Y015740D02*
X009261Y015740D01*
X009262Y015742D02*
X008830Y015742D01*
X008828Y015745D02*
X009263Y015745D01*
X009264Y015747D02*
X008827Y015747D01*
X008827Y015749D02*
X009264Y015749D01*
X009265Y015752D02*
X008826Y015752D01*
X008825Y015754D02*
X009266Y015754D01*
X009267Y015757D02*
X008824Y015757D01*
X008824Y015759D02*
X009268Y015759D01*
X009269Y015762D02*
X008823Y015762D01*
X008822Y015764D02*
X009270Y015764D01*
X009270Y015767D02*
X008822Y015767D01*
X008821Y015769D02*
X009271Y015769D01*
X009272Y015771D02*
X008820Y015771D01*
X008819Y015774D02*
X009273Y015774D01*
X009274Y015776D02*
X008819Y015776D01*
X008818Y015779D02*
X009275Y015779D01*
X009275Y015781D02*
X008817Y015781D01*
X008816Y015784D02*
X009276Y015784D01*
X009277Y015786D02*
X008816Y015786D01*
X008815Y015788D02*
X009277Y015788D01*
X009277Y015791D02*
X008814Y015791D01*
X008814Y015793D02*
X009278Y015793D01*
X009278Y015796D02*
X008814Y015796D01*
X008814Y015798D02*
X009278Y015798D01*
X009278Y015801D02*
X008813Y015801D01*
X008813Y015803D02*
X009279Y015803D01*
X009279Y015806D02*
X008813Y015806D01*
X008813Y015808D02*
X009279Y015808D01*
X009279Y015810D02*
X008812Y015810D01*
X008812Y015813D02*
X009280Y015813D01*
X009280Y015815D02*
X008812Y015815D01*
X008812Y015818D02*
X009280Y015818D01*
X009280Y015820D02*
X008811Y015820D01*
X008811Y015823D02*
X009281Y015823D01*
X009281Y015825D02*
X008811Y015825D01*
X008811Y015827D02*
X009281Y015827D01*
X009281Y015830D02*
X008811Y015830D01*
X008810Y015832D02*
X009282Y015832D01*
X009282Y015840D02*
X008810Y015840D01*
X008810Y015842D02*
X009282Y015842D01*
X009282Y015845D02*
X008810Y015845D01*
X008810Y015847D02*
X009282Y015847D01*
X009282Y015849D02*
X008810Y015849D01*
X008810Y015852D02*
X009282Y015852D01*
X009282Y015854D02*
X008810Y015854D01*
X008810Y015857D02*
X009282Y015857D01*
X009282Y015859D02*
X008810Y015859D01*
X008810Y015862D02*
X009282Y015862D01*
X009282Y015864D02*
X008810Y015864D01*
X008810Y015866D02*
X009282Y015866D01*
X009282Y015869D02*
X008810Y015869D01*
X008810Y015871D02*
X009282Y015871D01*
X009282Y015874D02*
X008810Y015874D01*
X008810Y015876D02*
X009282Y015876D01*
X009282Y015879D02*
X008810Y015879D01*
X008810Y015881D02*
X009282Y015881D01*
X009282Y015884D02*
X008810Y015884D01*
X008810Y015886D02*
X009282Y015886D01*
X009282Y015888D02*
X008810Y015888D01*
X008810Y015891D02*
X009282Y015891D01*
X009282Y015893D02*
X008810Y015893D01*
X008810Y015896D02*
X009282Y015896D01*
X009282Y015898D02*
X008810Y015898D01*
X008810Y015901D02*
X009282Y015901D01*
X009282Y015903D02*
X008810Y015903D01*
X008810Y015905D02*
X009282Y015905D01*
X009282Y015908D02*
X008810Y015908D01*
X008810Y015910D02*
X009282Y015910D01*
X009282Y015913D02*
X008810Y015913D01*
X008810Y015915D02*
X009282Y015915D01*
X009282Y015918D02*
X008810Y015918D01*
X008810Y015920D02*
X009282Y015920D01*
X009282Y015923D02*
X008810Y015923D01*
X008810Y015925D02*
X009282Y015925D01*
X009282Y015927D02*
X008810Y015927D01*
X008810Y015930D02*
X009282Y015930D01*
X009282Y015932D02*
X008810Y015932D01*
X008810Y015935D02*
X009282Y015935D01*
X009282Y015937D02*
X008810Y015937D01*
X008810Y015940D02*
X009282Y015940D01*
X009282Y015942D02*
X008810Y015942D01*
X008810Y015944D02*
X009282Y015944D01*
X009282Y015947D02*
X008810Y015947D01*
X008810Y015949D02*
X009282Y015949D01*
X009282Y015952D02*
X008810Y015952D01*
X008810Y015954D02*
X009282Y015954D01*
X009282Y015957D02*
X008810Y015957D01*
X008810Y015959D02*
X009282Y015959D01*
X009282Y015962D02*
X008810Y015962D01*
X008810Y015964D02*
X009282Y015964D01*
X009282Y015966D02*
X008810Y015966D01*
X008810Y015969D02*
X009282Y015969D01*
X009282Y015971D02*
X008810Y015971D01*
X008810Y015974D02*
X009282Y015974D01*
X009282Y015976D02*
X008810Y015976D01*
X008810Y015979D02*
X009282Y015979D01*
X009282Y015981D02*
X008810Y015981D01*
X008810Y015983D02*
X009282Y015983D01*
X009282Y015986D02*
X008810Y015986D01*
X008810Y015988D02*
X009282Y015988D01*
X009282Y015991D02*
X008810Y015991D01*
X008810Y015993D02*
X009282Y015993D01*
X009282Y015996D02*
X008810Y015996D01*
X008810Y015998D02*
X009282Y015998D01*
X009282Y016001D02*
X008810Y016001D01*
X008810Y016003D02*
X009282Y016003D01*
X009282Y016005D02*
X008810Y016005D01*
X008810Y016008D02*
X009282Y016008D01*
X009282Y016010D02*
X008810Y016010D01*
X008810Y016013D02*
X009282Y016013D01*
X009282Y016015D02*
X008810Y016015D01*
X008810Y016018D02*
X009282Y016018D01*
X009282Y016020D02*
X008810Y016020D01*
X008810Y016022D02*
X009282Y016022D01*
X009282Y016025D02*
X008810Y016025D01*
X008810Y016027D02*
X009282Y016027D01*
X009282Y016030D02*
X008810Y016030D01*
X008810Y016032D02*
X009282Y016032D01*
X009282Y016035D02*
X008810Y016035D01*
X008810Y016037D02*
X009282Y016037D01*
X009282Y016040D02*
X008810Y016040D01*
X008810Y016042D02*
X009282Y016042D01*
X009282Y016044D02*
X008810Y016044D01*
X008810Y016047D02*
X009282Y016047D01*
X009282Y016049D02*
X008810Y016049D01*
X008810Y016052D02*
X009282Y016052D01*
X009282Y016054D02*
X008810Y016054D01*
X008810Y016057D02*
X009282Y016057D01*
X009282Y016059D02*
X008810Y016059D01*
X008810Y016061D02*
X009282Y016061D01*
X009282Y016064D02*
X008810Y016064D01*
X008810Y016066D02*
X009282Y016066D01*
X009282Y016069D02*
X008810Y016069D01*
X008810Y016071D02*
X009282Y016071D01*
X009282Y016074D02*
X008810Y016074D01*
X008810Y016076D02*
X009282Y016076D01*
X009282Y016079D02*
X008810Y016079D01*
X008811Y016081D02*
X009281Y016081D01*
X009281Y016083D02*
X008811Y016083D01*
X008811Y016086D02*
X009281Y016086D01*
X009281Y016088D02*
X008811Y016088D01*
X008812Y016091D02*
X009280Y016091D01*
X009280Y016093D02*
X008812Y016093D01*
X008812Y016096D02*
X009280Y016096D01*
X009279Y016098D02*
X008812Y016098D01*
X008813Y016100D02*
X009279Y016100D01*
X009279Y016103D02*
X008813Y016103D01*
X008813Y016105D02*
X009279Y016105D01*
X009278Y016108D02*
X008813Y016108D01*
X008814Y016110D02*
X009278Y016110D01*
X009278Y016113D02*
X008814Y016113D01*
X008814Y016115D02*
X009277Y016115D01*
X009277Y016118D02*
X008814Y016118D01*
X008815Y016120D02*
X009277Y016120D01*
X009277Y016122D02*
X008815Y016122D01*
X008816Y016125D02*
X009276Y016125D01*
X009276Y016127D02*
X008817Y016127D01*
X008818Y016130D02*
X009275Y016130D01*
X009274Y016132D02*
X008818Y016132D01*
X008819Y016135D02*
X009273Y016135D01*
X009272Y016137D02*
X008820Y016137D01*
X008821Y016139D02*
X009271Y016139D01*
X009270Y016142D02*
X008821Y016142D01*
X008822Y016144D02*
X009270Y016144D01*
X009269Y016147D02*
X008823Y016147D01*
X008824Y016149D02*
X009268Y016149D01*
X009267Y016152D02*
X008824Y016152D01*
X008825Y016154D02*
X009266Y016154D01*
X009265Y016156D02*
X008826Y016156D01*
X008827Y016159D02*
X009264Y016159D01*
X009264Y016161D02*
X008827Y016161D01*
X008828Y016164D02*
X009263Y016164D01*
X009262Y016166D02*
X008830Y016166D01*
X008831Y016169D02*
X009261Y016169D01*
X009260Y016171D02*
X008832Y016171D01*
X008834Y016174D02*
X009259Y016174D01*
X009258Y016176D02*
X008835Y016176D01*
X008836Y016178D02*
X009257Y016178D01*
X009255Y016181D02*
X008838Y016181D01*
X008839Y016183D02*
X009254Y016183D01*
X009252Y016186D02*
X008840Y016186D01*
X008841Y016188D02*
X009250Y016188D01*
X009249Y016191D02*
X008843Y016191D01*
X008844Y016193D02*
X009247Y016193D01*
X009246Y016195D02*
X008845Y016195D01*
X008847Y016198D02*
X009244Y016198D01*
X009243Y016200D02*
X008848Y016200D01*
X008849Y016203D02*
X009241Y016203D01*
X009240Y016205D02*
X008851Y016205D01*
X008853Y016208D02*
X009238Y016208D01*
X009237Y016210D02*
X008855Y016210D01*
X008857Y016213D02*
X009235Y016213D01*
X009233Y016215D02*
X008859Y016215D01*
X008861Y016217D02*
X009232Y016217D01*
X009230Y016220D02*
X008863Y016220D01*
X008865Y016222D02*
X009228Y016222D01*
X009225Y016225D02*
X008867Y016225D01*
X008869Y016227D02*
X009223Y016227D01*
X009221Y016230D02*
X008871Y016230D01*
X008873Y016232D02*
X009218Y016232D01*
X009216Y016234D02*
X008875Y016234D01*
X008877Y016237D02*
X009213Y016237D01*
X009211Y016239D02*
X008879Y016239D01*
X008882Y016242D02*
X009208Y016242D01*
X009206Y016244D02*
X008885Y016244D01*
X008888Y016247D02*
X009203Y016247D01*
X009201Y016249D02*
X008891Y016249D01*
X008894Y016252D02*
X009198Y016252D01*
X009196Y016254D02*
X008897Y016254D01*
X008900Y016256D02*
X009194Y016256D01*
X009190Y016259D02*
X008903Y016259D01*
X008906Y016261D02*
X009186Y016261D01*
X009182Y016264D02*
X008909Y016264D01*
X008912Y016266D02*
X009178Y016266D01*
X009174Y016269D02*
X008915Y016269D01*
X008920Y016271D02*
X009170Y016271D01*
X009166Y016273D02*
X008924Y016273D01*
X008929Y016276D02*
X009163Y016276D01*
X009159Y016278D02*
X008934Y016278D01*
X008938Y016281D02*
X009155Y016281D01*
X009151Y016283D02*
X008943Y016283D01*
X008947Y016286D02*
X009146Y016286D01*
X009139Y016288D02*
X008952Y016288D01*
X008957Y016291D02*
X009132Y016291D01*
X009125Y016293D02*
X008965Y016293D01*
X008973Y016295D02*
X009118Y016295D01*
X009111Y016298D02*
X008982Y016298D01*
X008990Y016300D02*
X009103Y016300D01*
X009092Y016303D02*
X008998Y016303D01*
X009019Y016305D02*
X009070Y016305D01*
X009047Y016308D02*
X009045Y016308D01*
X012211Y016073D02*
X012211Y015837D01*
X012683Y015837D01*
X012677Y015784D01*
X012217Y015784D01*
X012216Y015786D02*
X012678Y015786D01*
X012677Y015784D02*
X012660Y015734D01*
X012632Y015689D01*
X012595Y015651D01*
X012550Y015623D01*
X012500Y015605D01*
X012447Y015599D01*
X012401Y015604D01*
X012356Y015617D01*
X012315Y015640D01*
X012576Y015640D01*
X012572Y015637D02*
X012319Y015637D01*
X012315Y015640D02*
X012279Y015669D01*
X012250Y015705D01*
X012228Y015746D01*
X012215Y015791D01*
X012211Y015837D01*
X012211Y015835D02*
X012683Y015835D01*
X012683Y015837D02*
X012683Y016073D01*
X012677Y016126D01*
X012659Y016175D01*
X012631Y016220D01*
X012594Y016257D01*
X012549Y016285D01*
X012499Y016302D01*
X012447Y016308D01*
X012401Y016303D01*
X012357Y016290D01*
X012316Y016269D01*
X012280Y016240D01*
X012251Y016204D01*
X012229Y016163D01*
X012215Y016119D01*
X012211Y016073D01*
X012211Y016074D02*
X012683Y016074D01*
X012683Y016076D02*
X012211Y016076D01*
X012211Y016079D02*
X012682Y016079D01*
X012682Y016081D02*
X012211Y016081D01*
X012212Y016083D02*
X012682Y016083D01*
X012682Y016086D02*
X012212Y016086D01*
X012212Y016088D02*
X012681Y016088D01*
X012681Y016091D02*
X012212Y016091D01*
X012213Y016093D02*
X012681Y016093D01*
X012680Y016096D02*
X012213Y016096D01*
X012213Y016098D02*
X012680Y016098D01*
X012680Y016100D02*
X012213Y016100D01*
X012214Y016103D02*
X012680Y016103D01*
X012679Y016105D02*
X012214Y016105D01*
X012214Y016108D02*
X012679Y016108D01*
X012679Y016110D02*
X012214Y016110D01*
X012215Y016113D02*
X012678Y016113D01*
X012678Y016115D02*
X012215Y016115D01*
X012215Y016118D02*
X012678Y016118D01*
X012678Y016120D02*
X012216Y016120D01*
X012216Y016122D02*
X012677Y016122D01*
X012677Y016125D02*
X012217Y016125D01*
X012218Y016127D02*
X012676Y016127D01*
X012676Y016130D02*
X012219Y016130D01*
X012219Y016132D02*
X012675Y016132D01*
X012674Y016135D02*
X012220Y016135D01*
X012221Y016137D02*
X012673Y016137D01*
X012672Y016139D02*
X012222Y016139D01*
X012222Y016142D02*
X012671Y016142D01*
X012670Y016144D02*
X012223Y016144D01*
X012224Y016147D02*
X012670Y016147D01*
X012669Y016149D02*
X012225Y016149D01*
X012225Y016152D02*
X012668Y016152D01*
X012667Y016154D02*
X012226Y016154D01*
X012227Y016156D02*
X012666Y016156D01*
X012665Y016159D02*
X012228Y016159D01*
X012228Y016161D02*
X012664Y016161D01*
X012663Y016164D02*
X012229Y016164D01*
X012230Y016166D02*
X012663Y016166D01*
X012662Y016169D02*
X012232Y016169D01*
X012233Y016171D02*
X012661Y016171D01*
X012660Y016174D02*
X012234Y016174D01*
X012236Y016176D02*
X012659Y016176D01*
X012657Y016178D02*
X012237Y016178D01*
X012238Y016181D02*
X012656Y016181D01*
X012654Y016183D02*
X012240Y016183D01*
X012241Y016186D02*
X012653Y016186D01*
X012651Y016188D02*
X012242Y016188D01*
X012244Y016191D02*
X012650Y016191D01*
X012648Y016193D02*
X012245Y016193D01*
X012246Y016195D02*
X012647Y016195D01*
X012645Y016198D02*
X012248Y016198D01*
X012249Y016200D02*
X012644Y016200D01*
X012642Y016203D02*
X012250Y016203D01*
X012252Y016205D02*
X012640Y016205D01*
X012639Y016208D02*
X012254Y016208D01*
X012256Y016210D02*
X012637Y016210D01*
X012636Y016213D02*
X012258Y016213D01*
X012260Y016215D02*
X012634Y016215D01*
X012633Y016217D02*
X012262Y016217D01*
X012264Y016220D02*
X012631Y016220D01*
X012629Y016222D02*
X012266Y016222D01*
X012268Y016225D02*
X012626Y016225D01*
X012624Y016227D02*
X012270Y016227D01*
X012272Y016230D02*
X012621Y016230D01*
X012619Y016232D02*
X012274Y016232D01*
X012276Y016234D02*
X012616Y016234D01*
X012614Y016237D02*
X012278Y016237D01*
X012280Y016239D02*
X012612Y016239D01*
X012609Y016242D02*
X012283Y016242D01*
X012286Y016244D02*
X012607Y016244D01*
X012604Y016247D02*
X012289Y016247D01*
X012292Y016249D02*
X012602Y016249D01*
X012599Y016252D02*
X012295Y016252D01*
X012298Y016254D02*
X012597Y016254D01*
X012594Y016256D02*
X012301Y016256D01*
X012304Y016259D02*
X012591Y016259D01*
X012587Y016261D02*
X012307Y016261D01*
X012310Y016264D02*
X012583Y016264D01*
X012579Y016266D02*
X012313Y016266D01*
X012316Y016269D02*
X012575Y016269D01*
X012571Y016271D02*
X012321Y016271D01*
X012325Y016273D02*
X012567Y016273D01*
X012563Y016276D02*
X012330Y016276D01*
X012334Y016278D02*
X012559Y016278D01*
X012556Y016281D02*
X012339Y016281D01*
X012344Y016283D02*
X012552Y016283D01*
X012547Y016286D02*
X012348Y016286D01*
X012353Y016288D02*
X012540Y016288D01*
X012533Y016291D02*
X012358Y016291D01*
X012366Y016293D02*
X012525Y016293D01*
X012518Y016295D02*
X012374Y016295D01*
X012382Y016298D02*
X012511Y016298D01*
X012504Y016300D02*
X012391Y016300D01*
X012399Y016303D02*
X012493Y016303D01*
X012470Y016305D02*
X012420Y016305D01*
X012446Y016308D02*
X012448Y016308D01*
X012683Y016071D02*
X012211Y016071D01*
X012211Y016069D02*
X012683Y016069D01*
X012683Y016066D02*
X012211Y016066D01*
X012211Y016064D02*
X012683Y016064D01*
X012683Y016061D02*
X012211Y016061D01*
X012211Y016059D02*
X012683Y016059D01*
X012683Y016057D02*
X012211Y016057D01*
X012211Y016054D02*
X012683Y016054D01*
X012683Y016052D02*
X012211Y016052D01*
X012211Y016049D02*
X012683Y016049D01*
X012683Y016047D02*
X012211Y016047D01*
X012211Y016044D02*
X012683Y016044D01*
X012683Y016042D02*
X012211Y016042D01*
X012211Y016040D02*
X012683Y016040D01*
X012683Y016037D02*
X012211Y016037D01*
X012211Y016035D02*
X012683Y016035D01*
X012683Y016032D02*
X012211Y016032D01*
X012211Y016030D02*
X012683Y016030D01*
X012683Y016027D02*
X012211Y016027D01*
X012211Y016025D02*
X012683Y016025D01*
X012683Y016022D02*
X012211Y016022D01*
X012211Y016020D02*
X012683Y016020D01*
X012683Y016018D02*
X012211Y016018D01*
X012211Y016015D02*
X012683Y016015D01*
X012683Y016013D02*
X012211Y016013D01*
X012211Y016010D02*
X012683Y016010D01*
X012683Y016008D02*
X012211Y016008D01*
X012211Y016005D02*
X012683Y016005D01*
X012683Y016003D02*
X012211Y016003D01*
X012211Y016001D02*
X012683Y016001D01*
X012683Y015998D02*
X012211Y015998D01*
X012211Y015996D02*
X012683Y015996D01*
X012683Y015993D02*
X012211Y015993D01*
X012211Y015991D02*
X012683Y015991D01*
X012683Y015988D02*
X012211Y015988D01*
X012211Y015986D02*
X012683Y015986D01*
X012683Y015983D02*
X012211Y015983D01*
X012211Y015981D02*
X012683Y015981D01*
X012683Y015979D02*
X012211Y015979D01*
X012211Y015976D02*
X012683Y015976D01*
X012683Y015974D02*
X012211Y015974D01*
X012211Y015971D02*
X012683Y015971D01*
X012683Y015969D02*
X012211Y015969D01*
X012211Y015966D02*
X012683Y015966D01*
X012683Y015964D02*
X012211Y015964D01*
X012211Y015962D02*
X012683Y015962D01*
X012683Y015959D02*
X012211Y015959D01*
X012211Y015957D02*
X012683Y015957D01*
X012683Y015954D02*
X012211Y015954D01*
X012211Y015952D02*
X012683Y015952D01*
X012683Y015949D02*
X012211Y015949D01*
X012211Y015947D02*
X012683Y015947D01*
X012683Y015944D02*
X012211Y015944D01*
X012211Y015942D02*
X012683Y015942D01*
X012683Y015940D02*
X012211Y015940D01*
X012211Y015937D02*
X012683Y015937D01*
X012683Y015935D02*
X012211Y015935D01*
X012211Y015932D02*
X012683Y015932D01*
X012683Y015930D02*
X012211Y015930D01*
X012211Y015927D02*
X012683Y015927D01*
X012683Y015925D02*
X012211Y015925D01*
X012211Y015923D02*
X012683Y015923D01*
X012683Y015920D02*
X012211Y015920D01*
X012211Y015918D02*
X012683Y015918D01*
X012683Y015915D02*
X012211Y015915D01*
X012211Y015913D02*
X012683Y015913D01*
X012683Y015910D02*
X012211Y015910D01*
X012211Y015908D02*
X012683Y015908D01*
X012683Y015905D02*
X012211Y015905D01*
X012211Y015903D02*
X012683Y015903D01*
X012683Y015901D02*
X012211Y015901D01*
X012211Y015898D02*
X012683Y015898D01*
X012683Y015896D02*
X012211Y015896D01*
X012211Y015893D02*
X012683Y015893D01*
X012683Y015891D02*
X012211Y015891D01*
X012211Y015888D02*
X012683Y015888D01*
X012683Y015886D02*
X012211Y015886D01*
X012211Y015884D02*
X012683Y015884D01*
X012683Y015881D02*
X012211Y015881D01*
X012211Y015879D02*
X012683Y015879D01*
X012683Y015876D02*
X012211Y015876D01*
X012211Y015874D02*
X012683Y015874D01*
X012683Y015871D02*
X012211Y015871D01*
X012211Y015869D02*
X012683Y015869D01*
X012683Y015866D02*
X012211Y015866D01*
X012211Y015864D02*
X012683Y015864D01*
X012683Y015862D02*
X012211Y015862D01*
X012211Y015859D02*
X012683Y015859D01*
X012683Y015857D02*
X012211Y015857D01*
X012211Y015854D02*
X012683Y015854D01*
X012683Y015852D02*
X012211Y015852D01*
X012211Y015849D02*
X012683Y015849D01*
X012683Y015847D02*
X012211Y015847D01*
X012211Y015845D02*
X012683Y015845D01*
X012683Y015842D02*
X012211Y015842D01*
X012211Y015840D02*
X012683Y015840D01*
X012683Y015832D02*
X012211Y015832D01*
X012211Y015830D02*
X012682Y015830D01*
X012682Y015827D02*
X012212Y015827D01*
X012212Y015825D02*
X012682Y015825D01*
X012681Y015823D02*
X012212Y015823D01*
X012212Y015820D02*
X012681Y015820D01*
X012681Y015818D02*
X012212Y015818D01*
X012213Y015815D02*
X012681Y015815D01*
X012680Y015813D02*
X012213Y015813D01*
X012213Y015810D02*
X012680Y015810D01*
X012680Y015808D02*
X012213Y015808D01*
X012214Y015806D02*
X012680Y015806D01*
X012679Y015803D02*
X012214Y015803D01*
X012214Y015801D02*
X012679Y015801D01*
X012679Y015798D02*
X012214Y015798D01*
X012215Y015796D02*
X012679Y015796D01*
X012678Y015793D02*
X012215Y015793D01*
X012215Y015791D02*
X012678Y015791D01*
X012678Y015788D02*
X012216Y015788D01*
X012218Y015781D02*
X012676Y015781D01*
X012675Y015779D02*
X012219Y015779D01*
X012219Y015776D02*
X012675Y015776D01*
X012674Y015774D02*
X012220Y015774D01*
X012221Y015771D02*
X012673Y015771D01*
X012672Y015769D02*
X012222Y015769D01*
X012222Y015767D02*
X012671Y015767D01*
X012670Y015764D02*
X012223Y015764D01*
X012224Y015762D02*
X012669Y015762D01*
X012669Y015759D02*
X012224Y015759D01*
X012225Y015757D02*
X012668Y015757D01*
X012667Y015754D02*
X012226Y015754D01*
X012227Y015752D02*
X012666Y015752D01*
X012665Y015749D02*
X012227Y015749D01*
X012228Y015747D02*
X012664Y015747D01*
X012664Y015745D02*
X012229Y015745D01*
X012231Y015742D02*
X012663Y015742D01*
X012662Y015740D02*
X012232Y015740D01*
X012233Y015737D02*
X012661Y015737D01*
X012660Y015735D02*
X012234Y015735D01*
X012236Y015732D02*
X012659Y015732D01*
X012657Y015730D02*
X012237Y015730D01*
X012238Y015728D02*
X012656Y015728D01*
X012654Y015725D02*
X012240Y015725D01*
X012241Y015723D02*
X012653Y015723D01*
X012651Y015720D02*
X012242Y015720D01*
X012243Y015718D02*
X012650Y015718D01*
X012648Y015715D02*
X012245Y015715D01*
X012246Y015713D02*
X012647Y015713D01*
X012645Y015710D02*
X012247Y015710D01*
X012249Y015708D02*
X012644Y015708D01*
X012642Y015706D02*
X012250Y015706D01*
X012252Y015703D02*
X012641Y015703D01*
X012639Y015701D02*
X012254Y015701D01*
X012256Y015698D02*
X012638Y015698D01*
X012636Y015696D02*
X012258Y015696D01*
X012260Y015693D02*
X012635Y015693D01*
X012633Y015691D02*
X012262Y015691D01*
X012264Y015689D02*
X012631Y015689D01*
X012629Y015686D02*
X012266Y015686D01*
X012268Y015684D02*
X012627Y015684D01*
X012624Y015681D02*
X012270Y015681D01*
X012272Y015679D02*
X012622Y015679D01*
X012619Y015676D02*
X012274Y015676D01*
X012276Y015674D02*
X012617Y015674D01*
X012614Y015671D02*
X012278Y015671D01*
X012280Y015669D02*
X012612Y015669D01*
X012610Y015667D02*
X012283Y015667D01*
X012286Y015664D02*
X012607Y015664D01*
X012605Y015662D02*
X012288Y015662D01*
X012291Y015659D02*
X012602Y015659D01*
X012600Y015657D02*
X012294Y015657D01*
X012297Y015654D02*
X012598Y015654D01*
X012595Y015652D02*
X012300Y015652D01*
X012303Y015650D02*
X012592Y015650D01*
X012588Y015647D02*
X012306Y015647D01*
X012309Y015645D02*
X012584Y015645D01*
X012580Y015642D02*
X012312Y015642D01*
X012324Y015635D02*
X012569Y015635D01*
X012565Y015632D02*
X012328Y015632D01*
X012333Y015630D02*
X012561Y015630D01*
X012557Y015628D02*
X012337Y015628D01*
X012342Y015625D02*
X012553Y015625D01*
X012549Y015623D02*
X012346Y015623D01*
X012351Y015620D02*
X012542Y015620D01*
X012535Y015618D02*
X012355Y015618D01*
X012363Y015615D02*
X012528Y015615D01*
X012522Y015613D02*
X012371Y015613D01*
X012379Y015611D02*
X012515Y015611D01*
X012508Y015608D02*
X012387Y015608D01*
X012395Y015606D02*
X012501Y015606D01*
X012483Y015603D02*
X012406Y015603D01*
X012430Y015601D02*
X012462Y015601D01*
X012447Y014812D02*
X012499Y014806D01*
X012549Y014789D01*
X012594Y014761D01*
X012631Y014724D01*
X012659Y014679D01*
X012677Y014630D01*
X012683Y014577D01*
X012211Y014577D01*
X012215Y014623D01*
X012229Y014667D01*
X012664Y014667D01*
X012664Y014665D02*
X012228Y014665D01*
X012229Y014667D02*
X012251Y014708D01*
X012280Y014743D01*
X012612Y014743D01*
X012609Y014745D02*
X012283Y014745D01*
X012280Y014743D02*
X012316Y014773D01*
X012357Y014794D01*
X012401Y014807D01*
X012447Y014812D01*
X012452Y014811D02*
X012441Y014811D01*
X012415Y014809D02*
X012474Y014809D01*
X012497Y014806D02*
X012397Y014806D01*
X012389Y014804D02*
X012505Y014804D01*
X012513Y014801D02*
X012381Y014801D01*
X012373Y014799D02*
X012520Y014799D01*
X012527Y014797D02*
X012365Y014797D01*
X012357Y014794D02*
X012534Y014794D01*
X012541Y014792D02*
X012352Y014792D01*
X012347Y014789D02*
X012548Y014789D01*
X012552Y014787D02*
X012343Y014787D01*
X012338Y014784D02*
X012556Y014784D01*
X012560Y014782D02*
X012334Y014782D01*
X012329Y014779D02*
X012564Y014779D01*
X012568Y014777D02*
X012324Y014777D01*
X012320Y014775D02*
X012572Y014775D01*
X012576Y014772D02*
X012315Y014772D01*
X012312Y014770D02*
X012580Y014770D01*
X012584Y014767D02*
X012309Y014767D01*
X012306Y014765D02*
X012587Y014765D01*
X012591Y014762D02*
X012303Y014762D01*
X012301Y014760D02*
X012595Y014760D01*
X012597Y014758D02*
X012298Y014758D01*
X012295Y014755D02*
X012600Y014755D01*
X012602Y014753D02*
X012292Y014753D01*
X012289Y014750D02*
X012605Y014750D01*
X012607Y014748D02*
X012286Y014748D01*
X012278Y014740D02*
X012614Y014740D01*
X012617Y014738D02*
X012276Y014738D01*
X012274Y014736D02*
X012619Y014736D01*
X012622Y014733D02*
X012272Y014733D01*
X012270Y014731D02*
X012624Y014731D01*
X012627Y014728D02*
X012268Y014728D01*
X012266Y014726D02*
X012629Y014726D01*
X012631Y014723D02*
X012264Y014723D01*
X012262Y014721D02*
X012633Y014721D01*
X012635Y014719D02*
X012260Y014719D01*
X012258Y014716D02*
X012636Y014716D01*
X012638Y014714D02*
X012256Y014714D01*
X012254Y014711D02*
X012639Y014711D01*
X012641Y014709D02*
X012252Y014709D01*
X012250Y014706D02*
X012642Y014706D01*
X012644Y014704D02*
X012249Y014704D01*
X012247Y014701D02*
X012645Y014701D01*
X012647Y014699D02*
X012246Y014699D01*
X012245Y014697D02*
X012648Y014697D01*
X012650Y014694D02*
X012243Y014694D01*
X012242Y014692D02*
X012652Y014692D01*
X012653Y014689D02*
X012241Y014689D01*
X012239Y014687D02*
X012655Y014687D01*
X012656Y014684D02*
X012238Y014684D01*
X012237Y014682D02*
X012658Y014682D01*
X012659Y014680D02*
X012235Y014680D01*
X012234Y014677D02*
X012660Y014677D01*
X012661Y014675D02*
X012233Y014675D01*
X012232Y014672D02*
X012662Y014672D01*
X012663Y014670D02*
X012230Y014670D01*
X012227Y014662D02*
X012665Y014662D01*
X012666Y014660D02*
X012227Y014660D01*
X012226Y014658D02*
X012667Y014658D01*
X012668Y014655D02*
X012225Y014655D01*
X012224Y014653D02*
X012669Y014653D01*
X012670Y014650D02*
X012224Y014650D01*
X012223Y014648D02*
X012671Y014648D01*
X012671Y014645D02*
X012222Y014645D01*
X012221Y014643D02*
X012672Y014643D01*
X012673Y014641D02*
X012221Y014641D01*
X012220Y014638D02*
X012674Y014638D01*
X012675Y014636D02*
X012219Y014636D01*
X012218Y014633D02*
X012676Y014633D01*
X012677Y014631D02*
X012218Y014631D01*
X012217Y014628D02*
X012677Y014628D01*
X012677Y014626D02*
X012216Y014626D01*
X012215Y014623D02*
X012678Y014623D01*
X012678Y014621D02*
X012215Y014621D01*
X012215Y014619D02*
X012678Y014619D01*
X012679Y014616D02*
X012215Y014616D01*
X012214Y014614D02*
X012679Y014614D01*
X012679Y014611D02*
X012214Y014611D01*
X012214Y014609D02*
X012679Y014609D01*
X012680Y014606D02*
X012214Y014606D01*
X012213Y014604D02*
X012680Y014604D01*
X012680Y014602D02*
X012213Y014602D01*
X012213Y014599D02*
X012681Y014599D01*
X012681Y014597D02*
X012213Y014597D01*
X012212Y014594D02*
X012681Y014594D01*
X012681Y014592D02*
X012212Y014592D01*
X012212Y014589D02*
X012682Y014589D01*
X012682Y014587D02*
X012212Y014587D01*
X012211Y014584D02*
X012682Y014584D01*
X012683Y014582D02*
X012211Y014582D01*
X012211Y014580D02*
X012683Y014580D01*
X012683Y014577D02*
X012683Y014341D01*
X012677Y014288D01*
X012660Y014238D01*
X012632Y014193D01*
X012595Y014155D01*
X012550Y014127D01*
X012500Y014109D01*
X012396Y014109D01*
X012401Y014108D02*
X012356Y014121D01*
X012315Y014144D01*
X012279Y014173D01*
X012250Y014209D01*
X012642Y014209D01*
X012640Y014207D02*
X012252Y014207D01*
X012250Y014209D02*
X012228Y014250D01*
X012215Y014295D01*
X012211Y014341D01*
X012211Y014577D01*
X012211Y014575D02*
X012683Y014575D01*
X012683Y014572D02*
X012211Y014572D01*
X012211Y014570D02*
X012683Y014570D01*
X012683Y014567D02*
X012211Y014567D01*
X012211Y014565D02*
X012683Y014565D01*
X012683Y014563D02*
X012211Y014563D01*
X012211Y014560D02*
X012683Y014560D01*
X012683Y014558D02*
X012211Y014558D01*
X012211Y014555D02*
X012683Y014555D01*
X012683Y014553D02*
X012211Y014553D01*
X012211Y014550D02*
X012683Y014550D01*
X012683Y014548D02*
X012211Y014548D01*
X012211Y014545D02*
X012683Y014545D01*
X012683Y014543D02*
X012211Y014543D01*
X012211Y014541D02*
X012683Y014541D01*
X012683Y014538D02*
X012211Y014538D01*
X012211Y014536D02*
X012683Y014536D01*
X012683Y014533D02*
X012211Y014533D01*
X012211Y014531D02*
X012683Y014531D01*
X012683Y014528D02*
X012211Y014528D01*
X012211Y014526D02*
X012683Y014526D01*
X012683Y014524D02*
X012211Y014524D01*
X012211Y014521D02*
X012683Y014521D01*
X012683Y014519D02*
X012211Y014519D01*
X012211Y014516D02*
X012683Y014516D01*
X012683Y014514D02*
X012211Y014514D01*
X012211Y014511D02*
X012683Y014511D01*
X012683Y014509D02*
X012211Y014509D01*
X012211Y014506D02*
X012683Y014506D01*
X012683Y014504D02*
X012211Y014504D01*
X012211Y014502D02*
X012683Y014502D01*
X012683Y014499D02*
X012211Y014499D01*
X012211Y014497D02*
X012683Y014497D01*
X012683Y014494D02*
X012211Y014494D01*
X012211Y014492D02*
X012683Y014492D01*
X012683Y014489D02*
X012211Y014489D01*
X012211Y014487D02*
X012683Y014487D01*
X012683Y014485D02*
X012211Y014485D01*
X012211Y014482D02*
X012683Y014482D01*
X012683Y014480D02*
X012211Y014480D01*
X012211Y014477D02*
X012683Y014477D01*
X012683Y014475D02*
X012211Y014475D01*
X012211Y014472D02*
X012683Y014472D01*
X012683Y014470D02*
X012211Y014470D01*
X012211Y014467D02*
X012683Y014467D01*
X012683Y014465D02*
X012211Y014465D01*
X012211Y014463D02*
X012683Y014463D01*
X012683Y014460D02*
X012211Y014460D01*
X012211Y014458D02*
X012683Y014458D01*
X012683Y014455D02*
X012211Y014455D01*
X012211Y014453D02*
X012683Y014453D01*
X012683Y014450D02*
X012211Y014450D01*
X012211Y014448D02*
X012683Y014448D01*
X012683Y014446D02*
X012211Y014446D01*
X012211Y014443D02*
X012683Y014443D01*
X012683Y014441D02*
X012211Y014441D01*
X012211Y014438D02*
X012683Y014438D01*
X012683Y014436D02*
X012211Y014436D01*
X012211Y014433D02*
X012683Y014433D01*
X012683Y014431D02*
X012211Y014431D01*
X012211Y014428D02*
X012683Y014428D01*
X012683Y014426D02*
X012211Y014426D01*
X012211Y014424D02*
X012683Y014424D01*
X012683Y014421D02*
X012211Y014421D01*
X012211Y014419D02*
X012683Y014419D01*
X012683Y014416D02*
X012211Y014416D01*
X012211Y014414D02*
X012683Y014414D01*
X012683Y014411D02*
X012211Y014411D01*
X012211Y014409D02*
X012683Y014409D01*
X012683Y014407D02*
X012211Y014407D01*
X012211Y014404D02*
X012683Y014404D01*
X012683Y014402D02*
X012211Y014402D01*
X012211Y014399D02*
X012683Y014399D01*
X012683Y014397D02*
X012211Y014397D01*
X012211Y014394D02*
X012683Y014394D01*
X012683Y014392D02*
X012211Y014392D01*
X012211Y014389D02*
X012683Y014389D01*
X012683Y014387D02*
X012211Y014387D01*
X012211Y014385D02*
X012683Y014385D01*
X012683Y014382D02*
X012211Y014382D01*
X012211Y014380D02*
X012683Y014380D01*
X012683Y014377D02*
X012211Y014377D01*
X012211Y014375D02*
X012683Y014375D01*
X012683Y014372D02*
X012211Y014372D01*
X012211Y014370D02*
X012683Y014370D01*
X012683Y014368D02*
X012211Y014368D01*
X012211Y014365D02*
X012683Y014365D01*
X012683Y014363D02*
X012211Y014363D01*
X012211Y014360D02*
X012683Y014360D01*
X012683Y014358D02*
X012211Y014358D01*
X012211Y014355D02*
X012683Y014355D01*
X012683Y014353D02*
X012211Y014353D01*
X012211Y014350D02*
X012683Y014350D01*
X012683Y014348D02*
X012211Y014348D01*
X012211Y014346D02*
X012683Y014346D01*
X012683Y014343D02*
X012211Y014343D01*
X012211Y014341D02*
X012683Y014341D01*
X012683Y014338D02*
X012211Y014338D01*
X012211Y014336D02*
X012682Y014336D01*
X012682Y014333D02*
X012211Y014333D01*
X012212Y014331D02*
X012682Y014331D01*
X012682Y014329D02*
X012212Y014329D01*
X012212Y014326D02*
X012681Y014326D01*
X012681Y014324D02*
X012212Y014324D01*
X012213Y014321D02*
X012681Y014321D01*
X012681Y014319D02*
X012213Y014319D01*
X012213Y014316D02*
X012680Y014316D01*
X012680Y014314D02*
X012213Y014314D01*
X012213Y014311D02*
X012680Y014311D01*
X012680Y014309D02*
X012214Y014309D01*
X012214Y014307D02*
X012679Y014307D01*
X012679Y014304D02*
X012214Y014304D01*
X012214Y014302D02*
X012679Y014302D01*
X012679Y014299D02*
X012215Y014299D01*
X012215Y014297D02*
X012678Y014297D01*
X012678Y014294D02*
X012215Y014294D01*
X012216Y014292D02*
X012678Y014292D01*
X012677Y014290D02*
X012217Y014290D01*
X012217Y014287D02*
X012677Y014287D01*
X012676Y014285D02*
X012218Y014285D01*
X012219Y014282D02*
X012675Y014282D01*
X012674Y014280D02*
X012220Y014280D01*
X012220Y014277D02*
X012674Y014277D01*
X012673Y014275D02*
X012221Y014275D01*
X012222Y014273D02*
X012672Y014273D01*
X012671Y014270D02*
X012222Y014270D01*
X012223Y014268D02*
X012670Y014268D01*
X012669Y014265D02*
X012224Y014265D01*
X012225Y014263D02*
X012668Y014263D01*
X012668Y014260D02*
X012225Y014260D01*
X012226Y014258D02*
X012667Y014258D01*
X012666Y014255D02*
X012227Y014255D01*
X012228Y014253D02*
X012665Y014253D01*
X012664Y014251D02*
X012228Y014251D01*
X012229Y014248D02*
X012663Y014248D01*
X012663Y014246D02*
X012231Y014246D01*
X012232Y014243D02*
X012662Y014243D01*
X012661Y014241D02*
X012233Y014241D01*
X012235Y014238D02*
X012660Y014238D01*
X012659Y014236D02*
X012236Y014236D01*
X012237Y014234D02*
X012657Y014234D01*
X012656Y014231D02*
X012239Y014231D01*
X012240Y014229D02*
X012654Y014229D01*
X012653Y014226D02*
X012241Y014226D01*
X012242Y014224D02*
X012651Y014224D01*
X012650Y014221D02*
X012244Y014221D01*
X012245Y014219D02*
X012648Y014219D01*
X012646Y014216D02*
X012246Y014216D01*
X012248Y014214D02*
X012645Y014214D01*
X012643Y014212D02*
X012249Y014212D01*
X012254Y014204D02*
X012639Y014204D01*
X012637Y014202D02*
X012256Y014202D01*
X012258Y014199D02*
X012636Y014199D01*
X012634Y014197D02*
X012260Y014197D01*
X012262Y014195D02*
X012633Y014195D01*
X012631Y014192D02*
X012264Y014192D01*
X012266Y014190D02*
X012629Y014190D01*
X012626Y014187D02*
X012268Y014187D01*
X012270Y014185D02*
X012624Y014185D01*
X012621Y014182D02*
X012272Y014182D01*
X012274Y014180D02*
X012619Y014180D01*
X012616Y014177D02*
X012276Y014177D01*
X012278Y014175D02*
X012614Y014175D01*
X012612Y014173D02*
X012280Y014173D01*
X012283Y014170D02*
X012609Y014170D01*
X012607Y014168D02*
X012286Y014168D01*
X012289Y014165D02*
X012604Y014165D01*
X012602Y014163D02*
X012292Y014163D01*
X012295Y014160D02*
X012600Y014160D01*
X012597Y014158D02*
X012298Y014158D01*
X012301Y014156D02*
X012595Y014156D01*
X012591Y014153D02*
X012304Y014153D01*
X012307Y014151D02*
X012587Y014151D01*
X012583Y014148D02*
X012310Y014148D01*
X012313Y014146D02*
X012579Y014146D01*
X012576Y014143D02*
X012316Y014143D01*
X012320Y014141D02*
X012572Y014141D01*
X012568Y014138D02*
X012325Y014138D01*
X012329Y014136D02*
X012564Y014136D01*
X012560Y014134D02*
X012334Y014134D01*
X012338Y014131D02*
X012556Y014131D01*
X012553Y014129D02*
X012343Y014129D01*
X012347Y014126D02*
X012548Y014126D01*
X012541Y014124D02*
X012352Y014124D01*
X012356Y014121D02*
X012534Y014121D01*
X012527Y014119D02*
X012364Y014119D01*
X012372Y014117D02*
X012520Y014117D01*
X012513Y014114D02*
X012380Y014114D01*
X012388Y014112D02*
X012507Y014112D01*
X012500Y014109D02*
X012447Y014103D01*
X012401Y014108D01*
X012410Y014107D02*
X012479Y014107D01*
X012458Y014104D02*
X012434Y014104D01*
D22*
X012390Y005222D03*
X012390Y004422D03*
D23*
X011649Y006809D03*
D24*
X012250Y003762D02*
X012530Y003762D01*
X012530Y003482D01*
X012250Y003482D01*
X012250Y003762D01*
X012250Y003601D02*
X012530Y003601D01*
X012530Y003720D02*
X012250Y003720D01*
D25*
X004356Y013935D03*
X004356Y014329D03*
D26*
X005400Y014941D03*
X005400Y013323D03*
D27*
X020397Y004334D03*
X020397Y003334D03*
D28*
X014442Y005980D03*
X014002Y005980D03*
D29*
X015354Y004824D03*
X015354Y004324D03*
X015354Y003824D03*
X015354Y003324D03*
X017440Y003324D03*
X017440Y003824D03*
X017440Y004324D03*
X017440Y004824D03*
D30*
X016397Y004074D03*
D31*
X016771Y006484D03*
X015373Y006484D03*
D32*
X016314Y008087D03*
X016314Y008634D03*
X016933Y008634D03*
X016933Y008087D03*
D33*
X015607Y008586D03*
X015060Y008586D03*
D34*
X017715Y009767D03*
X018588Y007366D03*
D35*
X010750Y012342D03*
D36*
X019567Y005568D03*
M02*
