G75*
G70*
%OFA0B0*%
%FSLAX24Y24*%
%IPPOS*%
%LPD*%
%AMOC8*
5,1,8,0,0,1.08239X$1,22.5*
%
%ADD10C,0.0050*%
%ADD11C,0.0277*%
%ADD12C,0.0004*%
%ADD13C,0.0709*%
%ADD14C,0.0500*%
%ADD15C,0.0984*%
%ADD16C,0.0800*%
%ADD17C,0.0850*%
%ADD18C,0.1378*%
%ADD19C,0.0787*%
%ADD20C,0.0080*%
%ADD21C,0.0240*%
%ADD22C,0.0100*%
%ADD23C,0.0300*%
%ADD24C,0.0300*%
%ADD25C,0.0280*%
%ADD26C,0.0280*%
%ADD27C,0.0240*%
%ADD28C,0.0260*%
D10*
X001284Y000534D02*
X024182Y000534D01*
X024182Y000533D02*
X024236Y000535D01*
X024290Y000540D01*
X024343Y000549D01*
X024396Y000562D01*
X024447Y000579D01*
X024497Y000599D01*
X024545Y000623D01*
X024592Y000650D01*
X024637Y000681D01*
X024679Y000714D01*
X024719Y000751D01*
X024756Y000790D01*
X024790Y000832D01*
X024821Y000876D01*
X024849Y000922D01*
X024873Y000970D01*
X024894Y001020D01*
X024912Y001071D01*
X024926Y001123D01*
X024936Y001176D01*
X024942Y001230D01*
X024944Y001283D01*
X024943Y001284D02*
X024943Y017502D01*
X024944Y017502D02*
X024942Y017556D01*
X024935Y017610D01*
X024925Y017663D01*
X024912Y017715D01*
X024894Y017766D01*
X024873Y017816D01*
X024849Y017864D01*
X024821Y017910D01*
X024789Y017954D01*
X024755Y017995D01*
X024718Y018034D01*
X024678Y018071D01*
X024636Y018104D01*
X024592Y018135D01*
X024545Y018162D01*
X024497Y018185D01*
X024447Y018206D01*
X024395Y018222D01*
X024343Y018235D01*
X024290Y018244D01*
X024236Y018250D01*
X024183Y018251D01*
X024182Y018250D02*
X013925Y018250D01*
X013925Y018222D01*
X013921Y018194D01*
X013914Y018167D01*
X013903Y018141D01*
X013889Y018117D01*
X013872Y018095D01*
X013852Y018075D01*
X013830Y018058D01*
X013806Y018044D01*
X013780Y018033D01*
X013753Y018026D01*
X013725Y018022D01*
X013575Y018022D01*
X013547Y018026D01*
X013520Y018033D01*
X013494Y018044D01*
X013470Y018058D01*
X013448Y018075D01*
X013428Y018095D01*
X013411Y018117D01*
X013397Y018141D01*
X013386Y018167D01*
X013379Y018194D01*
X013375Y018222D01*
X013375Y018250D01*
X008187Y018250D01*
X008187Y018222D01*
X008183Y018194D01*
X008176Y018167D01*
X008165Y018141D01*
X008151Y018117D01*
X008134Y018095D01*
X008114Y018075D01*
X008092Y018058D01*
X008068Y018044D01*
X008042Y018033D01*
X008015Y018026D01*
X007987Y018022D01*
X007837Y018022D01*
X007838Y018022D02*
X007809Y018026D01*
X007782Y018033D01*
X007756Y018043D01*
X007731Y018057D01*
X007708Y018074D01*
X007688Y018094D01*
X007670Y018116D01*
X007656Y018141D01*
X007644Y018167D01*
X007637Y018194D01*
X007633Y018222D01*
X007632Y018250D01*
X001284Y018250D01*
X001231Y018248D01*
X001177Y018243D01*
X001125Y018233D01*
X001073Y018220D01*
X001022Y018203D01*
X000973Y018183D01*
X000925Y018159D01*
X000879Y018132D01*
X000835Y018101D01*
X000793Y018068D01*
X000754Y018031D01*
X000718Y017992D01*
X000684Y017951D01*
X000653Y017907D01*
X000626Y017861D01*
X000602Y017813D01*
X000582Y017764D01*
X000565Y017713D01*
X000551Y017661D01*
X000542Y017609D01*
X000536Y017555D01*
X000534Y017502D01*
X000534Y001284D01*
X000536Y001230D01*
X000542Y001177D01*
X000551Y001125D01*
X000564Y001073D01*
X000581Y001022D01*
X000602Y000972D01*
X000626Y000925D01*
X000653Y000879D01*
X000684Y000835D01*
X000717Y000793D01*
X000754Y000754D01*
X000793Y000717D01*
X000835Y000684D01*
X000879Y000653D01*
X000925Y000626D01*
X000972Y000602D01*
X001022Y000581D01*
X001073Y000564D01*
X001125Y000551D01*
X001177Y000542D01*
X001230Y000536D01*
X001284Y000534D01*
X007900Y001984D02*
X007900Y007382D01*
X005450Y009832D01*
X003150Y009832D01*
X003120Y009834D01*
X003090Y009839D01*
X003061Y009848D01*
X003034Y009861D01*
X003008Y009876D01*
X002984Y009895D01*
X002963Y009916D01*
X002944Y009940D01*
X002929Y009966D01*
X002916Y009993D01*
X002907Y010022D01*
X002902Y010052D01*
X002900Y010082D01*
X002900Y011082D01*
X004650Y011082D01*
X004655Y011053D01*
X004662Y011024D01*
X004673Y010996D01*
X004687Y010970D01*
X004704Y010945D01*
X004724Y010922D01*
X004745Y010902D01*
X004769Y010884D01*
X004795Y010869D01*
X004823Y010858D01*
X004851Y010849D01*
X004880Y010843D01*
X004910Y010841D01*
X004940Y010842D01*
X006040Y010842D01*
X007940Y008942D01*
X014090Y008942D01*
X014116Y008940D01*
X014142Y008935D01*
X014167Y008927D01*
X014190Y008915D01*
X014212Y008901D01*
X014231Y008883D01*
X014249Y008864D01*
X014263Y008842D01*
X014275Y008819D01*
X014283Y008794D01*
X014288Y008768D01*
X014290Y008742D01*
X014290Y006502D01*
X014286Y006475D01*
X014279Y006449D01*
X014268Y006424D01*
X014254Y006401D01*
X014237Y006380D01*
X014217Y006362D01*
X014194Y006347D01*
X014170Y006335D01*
X014144Y006327D01*
X014117Y006323D01*
X014090Y006322D01*
X013890Y006322D01*
X013864Y006320D01*
X013838Y006315D01*
X013813Y006307D01*
X013790Y006295D01*
X013768Y006281D01*
X013749Y006263D01*
X013731Y006244D01*
X013717Y006222D01*
X013705Y006199D01*
X013697Y006174D01*
X013692Y006148D01*
X013690Y006122D01*
X013690Y005436D01*
X013690Y005437D02*
X013687Y005413D01*
X013681Y005391D01*
X013672Y005369D01*
X013660Y005349D01*
X013645Y005331D01*
X013628Y005315D01*
X013608Y005302D01*
X013587Y005292D01*
X013565Y005285D01*
X013542Y005281D01*
X013519Y005280D01*
X012785Y005280D01*
X012786Y005280D02*
X012763Y005284D01*
X012741Y005291D01*
X012720Y005301D01*
X012701Y005314D01*
X012684Y005330D01*
X012670Y005348D01*
X012658Y005368D01*
X012649Y005389D01*
X012643Y005411D01*
X012640Y005434D01*
X012641Y005457D01*
X012640Y005458D02*
X012640Y005520D01*
X012640Y005543D01*
X012636Y005566D01*
X012630Y005588D01*
X012620Y005609D01*
X012608Y005628D01*
X012593Y005645D01*
X012575Y005660D01*
X012556Y005673D01*
X012535Y005682D01*
X012513Y005688D01*
X012490Y005692D01*
X012300Y005692D01*
X012300Y005693D02*
X012277Y005696D01*
X012255Y005703D01*
X012234Y005713D01*
X012214Y005726D01*
X012197Y005742D01*
X012181Y005759D01*
X012169Y005779D01*
X012160Y005801D01*
X012153Y005823D01*
X012150Y005846D01*
X012151Y005870D01*
X012150Y005870D02*
X012150Y006820D01*
X011150Y006820D01*
X011150Y006320D01*
X011129Y006263D01*
X011106Y006207D01*
X011079Y006153D01*
X011049Y006100D01*
X011017Y006049D01*
X010981Y006000D01*
X010943Y005953D01*
X010903Y005908D01*
X010860Y005865D01*
X010814Y005825D01*
X010766Y005788D01*
X010717Y005753D01*
X010665Y005721D01*
X010612Y005692D01*
X010613Y005692D02*
X010563Y005654D01*
X010515Y005613D01*
X010470Y005569D01*
X010428Y005523D01*
X010388Y005474D01*
X010352Y005422D01*
X010319Y005369D01*
X010289Y005314D01*
X010262Y005257D01*
X010239Y005198D01*
X010220Y005138D01*
X010204Y005077D01*
X010192Y005016D01*
X010183Y004953D01*
X010179Y004890D01*
X010178Y004828D01*
X010181Y004765D01*
X010188Y004702D01*
X010199Y004640D01*
X010213Y004579D01*
X010231Y004519D01*
X010253Y004460D01*
X010278Y004402D01*
X010307Y004346D01*
X010339Y004292D01*
X010374Y004240D01*
X010412Y004190D01*
X010453Y004142D01*
X010498Y004097D01*
X010544Y004055D01*
X010593Y004016D01*
X010645Y003980D01*
X010698Y003947D01*
X010754Y003917D01*
X010811Y003891D01*
X010869Y003868D01*
X010929Y003849D01*
X010990Y003833D01*
X011052Y003821D01*
X011114Y003813D01*
X011177Y003809D01*
X011240Y003808D01*
X011303Y003812D01*
X011365Y003819D01*
X011427Y003830D01*
X011489Y003844D01*
X011549Y003862D01*
X011608Y003884D01*
X011665Y003910D01*
X011885Y003910D01*
X012085Y003710D01*
X012085Y003510D01*
X012087Y003478D01*
X012092Y003446D01*
X012102Y003415D01*
X012115Y003385D01*
X012131Y003357D01*
X012150Y003331D01*
X012172Y003308D01*
X012197Y003287D01*
X012224Y003269D01*
X012253Y003255D01*
X012283Y003244D01*
X012315Y003236D01*
X012347Y003232D01*
X012379Y003232D01*
X012411Y003236D01*
X012443Y003244D01*
X012473Y003255D01*
X012502Y003269D01*
X012529Y003287D01*
X012554Y003308D01*
X012576Y003331D01*
X012595Y003357D01*
X012611Y003385D01*
X012624Y003415D01*
X012634Y003446D01*
X012639Y003478D01*
X012641Y003510D01*
X012640Y003510D02*
X012640Y004231D01*
X012641Y004231D02*
X012644Y004254D01*
X012651Y004276D01*
X012661Y004297D01*
X012674Y004317D01*
X012689Y004334D01*
X012707Y004349D01*
X012727Y004361D01*
X012748Y004371D01*
X012771Y004377D01*
X012794Y004380D01*
X012817Y004379D01*
X012817Y004380D02*
X013540Y004380D01*
X013563Y004377D01*
X013585Y004370D01*
X013605Y004361D01*
X013625Y004349D01*
X013642Y004334D01*
X013657Y004317D01*
X013670Y004298D01*
X013679Y004277D01*
X013686Y004255D01*
X013689Y004233D01*
X013690Y004210D01*
X013690Y003192D01*
X013692Y003158D01*
X013698Y003125D01*
X013707Y003093D01*
X013720Y003062D01*
X013736Y003032D01*
X013755Y003005D01*
X013778Y002980D01*
X013803Y002957D01*
X013830Y002938D01*
X013860Y002922D01*
X013891Y002909D01*
X013923Y002900D01*
X013956Y002894D01*
X013990Y002892D01*
X014269Y002892D01*
X014269Y001732D01*
X008153Y001732D01*
X008152Y001732D02*
X008122Y001734D01*
X008092Y001739D01*
X008063Y001748D01*
X008035Y001761D01*
X008009Y001776D01*
X007985Y001795D01*
X007964Y001817D01*
X007945Y001840D01*
X007929Y001867D01*
X007917Y001894D01*
X007907Y001923D01*
X007902Y001953D01*
X007900Y001984D01*
X015119Y001732D02*
X015119Y002892D01*
X020595Y002892D01*
X020629Y002896D01*
X020662Y002904D01*
X020694Y002916D01*
X020725Y002930D01*
X020754Y002948D01*
X020781Y002969D01*
X020806Y002992D01*
X020828Y003018D01*
X020848Y003046D01*
X020864Y003076D01*
X020877Y003108D01*
X020887Y003140D01*
X020893Y003174D01*
X020896Y003208D01*
X020895Y003242D01*
X020895Y004126D01*
X021955Y004126D01*
X021955Y001982D01*
X021953Y001952D01*
X021948Y001922D01*
X021939Y001893D01*
X021926Y001866D01*
X021911Y001840D01*
X021892Y001816D01*
X021871Y001795D01*
X021847Y001776D01*
X021821Y001761D01*
X021794Y001748D01*
X021765Y001739D01*
X021735Y001734D01*
X021705Y001732D01*
X015119Y001732D01*
X018795Y005535D02*
X020595Y005535D01*
X020629Y005533D01*
X020662Y005527D01*
X020694Y005518D01*
X020725Y005505D01*
X020755Y005489D01*
X020782Y005470D01*
X020807Y005447D01*
X020830Y005422D01*
X020849Y005395D01*
X020865Y005365D01*
X020878Y005334D01*
X020887Y005302D01*
X020893Y005269D01*
X020895Y005235D01*
X020895Y004976D01*
X021955Y004976D01*
X021955Y011532D01*
X021953Y011562D01*
X021948Y011592D01*
X021939Y011621D01*
X021926Y011648D01*
X021911Y011674D01*
X021892Y011698D01*
X021871Y011719D01*
X021847Y011738D01*
X021821Y011753D01*
X021794Y011766D01*
X021765Y011775D01*
X021735Y011780D01*
X021705Y011782D01*
X014460Y011782D01*
X014430Y011784D01*
X014400Y011789D01*
X014371Y011798D01*
X014344Y011811D01*
X014318Y011826D01*
X014294Y011845D01*
X014273Y011866D01*
X014254Y011890D01*
X014239Y011916D01*
X014226Y011943D01*
X014217Y011972D01*
X014212Y012002D01*
X014210Y012032D01*
X014210Y014032D01*
X013050Y014032D01*
X013050Y013092D01*
X013051Y013092D02*
X013042Y013031D01*
X013029Y012972D01*
X013012Y012913D01*
X012992Y012855D01*
X012968Y012799D01*
X012941Y012744D01*
X012910Y012691D01*
X012876Y012641D01*
X012839Y012592D01*
X012798Y012546D01*
X012755Y012503D01*
X012709Y012462D01*
X012661Y012425D01*
X012611Y012390D01*
X012558Y012359D01*
X012504Y012332D01*
X012448Y012307D01*
X012390Y012287D01*
X012331Y012270D01*
X012272Y012257D01*
X012211Y012247D01*
X012150Y012242D01*
X010250Y012242D01*
X010250Y010092D01*
X016934Y010092D01*
X017284Y009740D01*
X018284Y009740D01*
X018315Y009739D01*
X018346Y009734D01*
X018375Y009725D01*
X018404Y009713D01*
X018431Y009698D01*
X018455Y009679D01*
X018478Y009658D01*
X018497Y009634D01*
X018514Y009608D01*
X018527Y009580D01*
X018537Y009551D01*
X018543Y009521D01*
X018546Y009490D01*
X018545Y009490D02*
X018545Y005785D01*
X018547Y005755D01*
X018552Y005725D01*
X018561Y005696D01*
X018574Y005669D01*
X018589Y005643D01*
X018608Y005619D01*
X018629Y005598D01*
X018653Y005579D01*
X018679Y005564D01*
X018706Y005551D01*
X018735Y005542D01*
X018765Y005537D01*
X018795Y005535D01*
X009450Y010092D02*
X009450Y012242D01*
X009400Y012242D01*
X008450Y013092D02*
X008450Y016006D01*
X008470Y016050D01*
X008494Y016092D01*
X008521Y016132D01*
X008551Y016170D01*
X008584Y016205D01*
X008620Y016238D01*
X008658Y016268D01*
X008698Y016295D01*
X008741Y016318D01*
X008785Y016338D01*
X008830Y016355D01*
X008877Y016368D01*
X008924Y016377D01*
X008972Y016382D01*
X009021Y016384D01*
X009069Y016382D01*
X009117Y016376D01*
X009164Y016366D01*
X009211Y016353D01*
X009256Y016336D01*
X009354Y016242D02*
X012144Y016242D01*
X012144Y016241D02*
X012155Y016261D01*
X012169Y016280D01*
X012185Y016297D01*
X012203Y016312D01*
X012223Y016325D01*
X012243Y016335D01*
X012244Y016336D02*
X012289Y016353D01*
X012336Y016366D01*
X012383Y016376D01*
X012431Y016382D01*
X012479Y016384D01*
X012528Y016382D01*
X012576Y016377D01*
X012623Y016368D01*
X012670Y016355D01*
X012715Y016338D01*
X012759Y016318D01*
X012802Y016295D01*
X012842Y016268D01*
X012880Y016238D01*
X012916Y016205D01*
X012949Y016170D01*
X012979Y016132D01*
X013006Y016092D01*
X013030Y016050D01*
X013050Y016006D01*
X013050Y014882D01*
X014210Y014882D01*
X014210Y016622D01*
X014209Y016652D01*
X014204Y016681D01*
X014196Y016709D01*
X014184Y016736D01*
X014169Y016762D01*
X014152Y016786D01*
X014131Y016807D01*
X014108Y016826D01*
X014083Y016842D01*
X014057Y016854D01*
X014028Y016864D01*
X013999Y016870D01*
X013970Y016872D01*
X013925Y016872D01*
X013925Y016900D01*
X013921Y016928D01*
X013914Y016955D01*
X013903Y016981D01*
X013889Y017005D01*
X013872Y017027D01*
X013852Y017047D01*
X013830Y017064D01*
X013806Y017078D01*
X013780Y017089D01*
X013753Y017096D01*
X013725Y017100D01*
X013575Y017100D01*
X013547Y017096D01*
X013520Y017089D01*
X013494Y017078D01*
X013470Y017064D01*
X013448Y017047D01*
X013428Y017027D01*
X013411Y017005D01*
X013397Y016981D01*
X013386Y016955D01*
X013379Y016928D01*
X013375Y016900D01*
X013375Y016872D01*
X008187Y016872D01*
X008187Y016900D01*
X008183Y016928D01*
X008176Y016955D01*
X008165Y016981D01*
X008151Y017005D01*
X008134Y017027D01*
X008114Y017047D01*
X008092Y017064D01*
X008068Y017078D01*
X008042Y017089D01*
X008015Y017096D01*
X007987Y017100D01*
X007837Y017100D01*
X007838Y017101D02*
X007809Y017097D01*
X007782Y017090D01*
X007756Y017080D01*
X007731Y017066D01*
X007708Y017049D01*
X007688Y017029D01*
X007670Y017007D01*
X007656Y016982D01*
X007644Y016956D01*
X007637Y016929D01*
X007633Y016901D01*
X007632Y016873D01*
X007632Y016872D02*
X003150Y016872D01*
X003120Y016870D01*
X003090Y016865D01*
X003061Y016856D01*
X003034Y016843D01*
X003008Y016828D01*
X002984Y016809D01*
X002963Y016788D01*
X002944Y016764D01*
X002929Y016738D01*
X002916Y016711D01*
X002907Y016682D01*
X002902Y016652D01*
X002900Y016622D01*
X002900Y011932D01*
X004650Y011932D01*
X004650Y013132D01*
X004350Y013582D02*
X004050Y013682D01*
X004024Y013691D01*
X003999Y013703D01*
X003976Y013719D01*
X003955Y013737D01*
X003937Y013758D01*
X003921Y013781D01*
X003909Y013806D01*
X003900Y013832D01*
X003900Y014432D01*
X004050Y014582D02*
X004350Y014682D01*
X004500Y014832D02*
X004500Y015082D01*
X004502Y015105D01*
X004507Y015128D01*
X004516Y015150D01*
X004529Y015170D01*
X004544Y015188D01*
X004562Y015203D01*
X004582Y015216D01*
X004604Y015225D01*
X004627Y015230D01*
X004650Y015232D01*
X006100Y015232D01*
X006123Y015230D01*
X006146Y015225D01*
X006168Y015216D01*
X006188Y015203D01*
X006206Y015188D01*
X006221Y015170D01*
X006234Y015150D01*
X006243Y015128D01*
X006248Y015105D01*
X006250Y015082D01*
X006250Y013782D01*
X006294Y013780D01*
X006337Y013774D01*
X006379Y013765D01*
X006421Y013752D01*
X006461Y013735D01*
X006500Y013715D01*
X006537Y013692D01*
X006571Y013665D01*
X006604Y013636D01*
X006633Y013603D01*
X006660Y013569D01*
X006683Y013532D01*
X006703Y013493D01*
X006720Y013453D01*
X006733Y013411D01*
X006742Y013369D01*
X006748Y013326D01*
X006750Y013282D01*
X006748Y013238D01*
X006742Y013195D01*
X006733Y013153D01*
X006720Y013111D01*
X006703Y013071D01*
X006683Y013032D01*
X006660Y012995D01*
X006633Y012961D01*
X006604Y012928D01*
X006571Y012899D01*
X006537Y012872D01*
X006500Y012849D01*
X006461Y012829D01*
X006421Y012812D01*
X006379Y012799D01*
X006337Y012790D01*
X006294Y012784D01*
X006250Y012782D01*
X006250Y012242D01*
X008390Y010092D01*
X009450Y010092D01*
X009399Y012242D02*
X009339Y012245D01*
X009280Y012253D01*
X009220Y012264D01*
X009162Y012278D01*
X009105Y012296D01*
X009048Y012318D01*
X008994Y012343D01*
X008940Y012371D01*
X008889Y012402D01*
X008840Y012437D01*
X008792Y012474D01*
X008747Y012514D01*
X008705Y012557D01*
X008665Y012602D01*
X008629Y012650D01*
X008595Y012700D01*
X008564Y012751D01*
X008536Y012805D01*
X008512Y012860D01*
X008491Y012916D01*
X008473Y012974D01*
X008459Y013033D01*
X008449Y013092D01*
X009353Y016241D02*
X009342Y016261D01*
X009328Y016280D01*
X009313Y016297D01*
X009295Y016312D01*
X009276Y016325D01*
X009256Y016335D01*
X004500Y014832D02*
X004487Y014803D01*
X004471Y014777D01*
X004452Y014752D01*
X004430Y014730D01*
X004405Y014711D01*
X004379Y014695D01*
X004350Y014682D01*
X004050Y014582D02*
X004024Y014573D01*
X003999Y014561D01*
X003976Y014545D01*
X003955Y014527D01*
X003937Y014506D01*
X003921Y014483D01*
X003909Y014458D01*
X003900Y014432D01*
X004350Y013582D02*
X004388Y013556D01*
X004425Y013528D01*
X004460Y013497D01*
X004492Y013463D01*
X004522Y013428D01*
X004550Y013390D01*
X004574Y013350D01*
X004595Y013309D01*
X004614Y013266D01*
X004629Y013222D01*
X004641Y013177D01*
X004650Y013132D01*
D11*
X009049Y014457D03*
X009049Y015953D03*
X012450Y015953D03*
X012450Y014457D03*
D12*
X012664Y014458D02*
X012234Y014458D01*
X012234Y014460D02*
X012664Y014460D01*
X012664Y014463D02*
X012234Y014463D01*
X012234Y014465D02*
X012664Y014465D01*
X012664Y014467D02*
X012234Y014467D01*
X012234Y014470D02*
X012664Y014470D01*
X012664Y014472D02*
X012234Y014472D01*
X012234Y014475D02*
X012664Y014475D01*
X012664Y014477D02*
X012234Y014477D01*
X012234Y014480D02*
X012664Y014480D01*
X012664Y014482D02*
X012234Y014482D01*
X012234Y014485D02*
X012664Y014485D01*
X012664Y014487D02*
X012234Y014487D01*
X012234Y014489D02*
X012664Y014489D01*
X012664Y014492D02*
X012234Y014492D01*
X012234Y014494D02*
X012664Y014494D01*
X012664Y014497D02*
X012234Y014497D01*
X012234Y014499D02*
X012664Y014499D01*
X012664Y014502D02*
X012234Y014502D01*
X012234Y014504D02*
X012664Y014504D01*
X012664Y014506D02*
X012234Y014506D01*
X012234Y014509D02*
X012664Y014509D01*
X012664Y014511D02*
X012234Y014511D01*
X012234Y014514D02*
X012664Y014514D01*
X012664Y014516D02*
X012234Y014516D01*
X012234Y014519D02*
X012664Y014519D01*
X012664Y014521D02*
X012234Y014521D01*
X012234Y014524D02*
X012664Y014524D01*
X012664Y014526D02*
X012234Y014526D01*
X012234Y014528D02*
X012664Y014528D01*
X012664Y014531D02*
X012234Y014531D01*
X012234Y014533D02*
X012664Y014533D01*
X012664Y014536D02*
X012234Y014536D01*
X012234Y014538D02*
X012664Y014538D01*
X012664Y014541D02*
X012234Y014541D01*
X012234Y014543D02*
X012664Y014543D01*
X012664Y014545D02*
X012234Y014545D01*
X012234Y014548D02*
X012664Y014548D01*
X012664Y014550D02*
X012234Y014550D01*
X012234Y014553D02*
X012664Y014553D01*
X012664Y014555D02*
X012234Y014555D01*
X012234Y014558D02*
X012664Y014558D01*
X012664Y014560D02*
X012234Y014560D01*
X012234Y014563D02*
X012664Y014563D01*
X012664Y014565D02*
X012234Y014565D01*
X012234Y014567D02*
X012664Y014567D01*
X012664Y014570D02*
X012234Y014570D01*
X012234Y014572D02*
X012664Y014572D01*
X012664Y014575D02*
X012234Y014575D01*
X012234Y014339D01*
X012240Y014291D01*
X012256Y014246D01*
X012643Y014246D01*
X012659Y014291D01*
X012664Y014339D01*
X012664Y014575D01*
X012659Y014623D01*
X012643Y014669D01*
X012617Y014709D01*
X012583Y014743D01*
X012542Y014769D01*
X012497Y014785D01*
X012449Y014790D01*
X012401Y014785D01*
X012356Y014769D01*
X012315Y014743D01*
X012584Y014743D01*
X012586Y014740D02*
X012312Y014740D01*
X012310Y014738D02*
X012589Y014738D01*
X012591Y014736D02*
X012307Y014736D01*
X012305Y014733D02*
X012593Y014733D01*
X012596Y014731D02*
X012303Y014731D01*
X012300Y014728D02*
X012598Y014728D01*
X012601Y014726D02*
X012298Y014726D01*
X012295Y014723D02*
X012603Y014723D01*
X012606Y014721D02*
X012293Y014721D01*
X012290Y014719D02*
X012608Y014719D01*
X012610Y014716D02*
X012288Y014716D01*
X012285Y014714D02*
X012613Y014714D01*
X012615Y014711D02*
X012283Y014711D01*
X012281Y014709D02*
X012256Y014669D01*
X012240Y014623D01*
X012234Y014575D01*
X012235Y014577D02*
X012664Y014577D01*
X012664Y014580D02*
X012235Y014580D01*
X012235Y014582D02*
X012663Y014582D01*
X012663Y014584D02*
X012235Y014584D01*
X012236Y014587D02*
X012663Y014587D01*
X012662Y014589D02*
X012236Y014589D01*
X012236Y014592D02*
X012662Y014592D01*
X012662Y014594D02*
X012236Y014594D01*
X012237Y014597D02*
X012662Y014597D01*
X012661Y014599D02*
X012237Y014599D01*
X012237Y014602D02*
X012661Y014602D01*
X012661Y014604D02*
X012238Y014604D01*
X012238Y014606D02*
X012661Y014606D01*
X012660Y014609D02*
X012238Y014609D01*
X012238Y014611D02*
X012660Y014611D01*
X012660Y014614D02*
X012239Y014614D01*
X012239Y014616D02*
X012659Y014616D01*
X012659Y014619D02*
X012239Y014619D01*
X012239Y014621D02*
X012659Y014621D01*
X012659Y014623D02*
X012240Y014623D01*
X012241Y014626D02*
X012658Y014626D01*
X012657Y014628D02*
X012242Y014628D01*
X012242Y014631D02*
X012656Y014631D01*
X012655Y014633D02*
X012243Y014633D01*
X012244Y014636D02*
X012654Y014636D01*
X012653Y014638D02*
X012245Y014638D01*
X012246Y014641D02*
X012653Y014641D01*
X012652Y014643D02*
X012247Y014643D01*
X012248Y014645D02*
X012651Y014645D01*
X012650Y014648D02*
X012248Y014648D01*
X012249Y014650D02*
X012649Y014650D01*
X012648Y014653D02*
X012250Y014653D01*
X012251Y014655D02*
X012648Y014655D01*
X012647Y014658D02*
X012252Y014658D01*
X012253Y014660D02*
X012646Y014660D01*
X012645Y014662D02*
X012253Y014662D01*
X012254Y014665D02*
X012644Y014665D01*
X012643Y014667D02*
X012255Y014667D01*
X012256Y014670D02*
X012642Y014670D01*
X012641Y014672D02*
X012258Y014672D01*
X012259Y014675D02*
X012639Y014675D01*
X012637Y014677D02*
X012261Y014677D01*
X012262Y014680D02*
X012636Y014680D01*
X012634Y014682D02*
X012264Y014682D01*
X012266Y014684D02*
X012633Y014684D01*
X012631Y014687D02*
X012267Y014687D01*
X012269Y014689D02*
X012630Y014689D01*
X012628Y014692D02*
X012270Y014692D01*
X012272Y014694D02*
X012627Y014694D01*
X012625Y014697D02*
X012273Y014697D01*
X012275Y014699D02*
X012624Y014699D01*
X012622Y014701D02*
X012276Y014701D01*
X012278Y014704D02*
X012621Y014704D01*
X012619Y014706D02*
X012279Y014706D01*
X012281Y014709D02*
X012618Y014709D01*
X012580Y014745D02*
X012318Y014745D01*
X012315Y014743D02*
X012281Y014709D01*
X012322Y014748D02*
X012576Y014748D01*
X012572Y014750D02*
X012326Y014750D01*
X012330Y014753D02*
X012568Y014753D01*
X012565Y014755D02*
X012334Y014755D01*
X012338Y014758D02*
X012561Y014758D01*
X012557Y014760D02*
X012342Y014760D01*
X012345Y014762D02*
X012553Y014762D01*
X012549Y014765D02*
X012349Y014765D01*
X012353Y014767D02*
X012545Y014767D01*
X012540Y014770D02*
X012358Y014770D01*
X012365Y014772D02*
X012533Y014772D01*
X012527Y014775D02*
X012372Y014775D01*
X012379Y014777D02*
X012520Y014777D01*
X012513Y014779D02*
X012386Y014779D01*
X012393Y014782D02*
X012506Y014782D01*
X012499Y014784D02*
X012400Y014784D01*
X012418Y014787D02*
X012480Y014787D01*
X012459Y014789D02*
X012440Y014789D01*
X012234Y014455D02*
X012664Y014455D01*
X012664Y014453D02*
X012234Y014453D01*
X012234Y014450D02*
X012664Y014450D01*
X012664Y014448D02*
X012234Y014448D01*
X012234Y014446D02*
X012664Y014446D01*
X012664Y014443D02*
X012234Y014443D01*
X012234Y014441D02*
X012664Y014441D01*
X012664Y014438D02*
X012234Y014438D01*
X012234Y014436D02*
X012664Y014436D01*
X012664Y014433D02*
X012234Y014433D01*
X012234Y014431D02*
X012664Y014431D01*
X012664Y014428D02*
X012234Y014428D01*
X012234Y014426D02*
X012664Y014426D01*
X012664Y014424D02*
X012234Y014424D01*
X012234Y014421D02*
X012664Y014421D01*
X012664Y014419D02*
X012234Y014419D01*
X012234Y014416D02*
X012664Y014416D01*
X012664Y014414D02*
X012234Y014414D01*
X012234Y014411D02*
X012664Y014411D01*
X012664Y014409D02*
X012234Y014409D01*
X012234Y014407D02*
X012664Y014407D01*
X012664Y014404D02*
X012234Y014404D01*
X012234Y014402D02*
X012664Y014402D01*
X012664Y014399D02*
X012234Y014399D01*
X012234Y014397D02*
X012664Y014397D01*
X012664Y014394D02*
X012234Y014394D01*
X012234Y014392D02*
X012664Y014392D01*
X012664Y014389D02*
X012234Y014389D01*
X012234Y014387D02*
X012664Y014387D01*
X012664Y014385D02*
X012234Y014385D01*
X012234Y014382D02*
X012664Y014382D01*
X012664Y014380D02*
X012234Y014380D01*
X012234Y014377D02*
X012664Y014377D01*
X012664Y014375D02*
X012234Y014375D01*
X012234Y014372D02*
X012664Y014372D01*
X012664Y014370D02*
X012234Y014370D01*
X012234Y014368D02*
X012664Y014368D01*
X012664Y014365D02*
X012234Y014365D01*
X012234Y014363D02*
X012664Y014363D01*
X012664Y014360D02*
X012234Y014360D01*
X012234Y014358D02*
X012664Y014358D01*
X012664Y014355D02*
X012234Y014355D01*
X012234Y014353D02*
X012664Y014353D01*
X012664Y014350D02*
X012234Y014350D01*
X012234Y014348D02*
X012664Y014348D01*
X012664Y014346D02*
X012234Y014346D01*
X012234Y014343D02*
X012664Y014343D01*
X012664Y014341D02*
X012234Y014341D01*
X012234Y014338D02*
X012664Y014338D01*
X012664Y014336D02*
X012235Y014336D01*
X012235Y014333D02*
X012663Y014333D01*
X012663Y014331D02*
X012235Y014331D01*
X012236Y014329D02*
X012663Y014329D01*
X012663Y014326D02*
X012236Y014326D01*
X012236Y014324D02*
X012662Y014324D01*
X012662Y014321D02*
X012236Y014321D01*
X012237Y014319D02*
X012662Y014319D01*
X012661Y014316D02*
X012237Y014316D01*
X012237Y014314D02*
X012661Y014314D01*
X012661Y014311D02*
X012237Y014311D01*
X012238Y014309D02*
X012661Y014309D01*
X012660Y014307D02*
X012238Y014307D01*
X012238Y014304D02*
X012660Y014304D01*
X012660Y014302D02*
X012239Y014302D01*
X012239Y014299D02*
X012660Y014299D01*
X012659Y014297D02*
X012239Y014297D01*
X012239Y014294D02*
X012659Y014294D01*
X012659Y014292D02*
X012240Y014292D01*
X012240Y014290D02*
X012658Y014290D01*
X012657Y014287D02*
X012241Y014287D01*
X012242Y014285D02*
X012656Y014285D01*
X012655Y014282D02*
X012243Y014282D01*
X012244Y014280D02*
X012655Y014280D01*
X012654Y014277D02*
X012245Y014277D01*
X012246Y014275D02*
X012653Y014275D01*
X012652Y014273D02*
X012246Y014273D01*
X012247Y014270D02*
X012651Y014270D01*
X012650Y014268D02*
X012248Y014268D01*
X012249Y014265D02*
X012650Y014265D01*
X012649Y014263D02*
X012250Y014263D01*
X012251Y014260D02*
X012648Y014260D01*
X012647Y014258D02*
X012251Y014258D01*
X012252Y014255D02*
X012646Y014255D01*
X012645Y014253D02*
X012253Y014253D01*
X012254Y014251D02*
X012644Y014251D01*
X012644Y014248D02*
X012255Y014248D01*
X012256Y014246D02*
X012281Y014205D01*
X012315Y014171D01*
X012356Y014146D01*
X012543Y014146D01*
X012542Y014146D02*
X012583Y014171D01*
X012617Y014205D01*
X012643Y014246D01*
X012641Y014243D02*
X012257Y014243D01*
X012259Y014241D02*
X012640Y014241D01*
X012638Y014238D02*
X012260Y014238D01*
X012262Y014236D02*
X012636Y014236D01*
X012635Y014234D02*
X012263Y014234D01*
X012265Y014231D02*
X012633Y014231D01*
X012632Y014229D02*
X012267Y014229D01*
X012268Y014226D02*
X012630Y014226D01*
X012629Y014224D02*
X012270Y014224D01*
X012271Y014221D02*
X012627Y014221D01*
X012626Y014219D02*
X012273Y014219D01*
X012274Y014216D02*
X012624Y014216D01*
X012623Y014214D02*
X012276Y014214D01*
X012277Y014212D02*
X012621Y014212D01*
X012620Y014209D02*
X012279Y014209D01*
X012280Y014207D02*
X012618Y014207D01*
X012616Y014204D02*
X012282Y014204D01*
X012285Y014202D02*
X012614Y014202D01*
X012611Y014199D02*
X012287Y014199D01*
X012290Y014197D02*
X012609Y014197D01*
X012606Y014195D02*
X012292Y014195D01*
X012294Y014192D02*
X012604Y014192D01*
X012602Y014190D02*
X012297Y014190D01*
X012299Y014187D02*
X012599Y014187D01*
X012597Y014185D02*
X012302Y014185D01*
X012304Y014182D02*
X012594Y014182D01*
X012592Y014180D02*
X012307Y014180D01*
X012309Y014177D02*
X012589Y014177D01*
X012587Y014175D02*
X012311Y014175D01*
X012314Y014173D02*
X012585Y014173D01*
X012581Y014170D02*
X012317Y014170D01*
X012321Y014168D02*
X012578Y014168D01*
X012574Y014165D02*
X012325Y014165D01*
X012329Y014163D02*
X012570Y014163D01*
X012566Y014160D02*
X012333Y014160D01*
X012336Y014158D02*
X012562Y014158D01*
X012558Y014156D02*
X012340Y014156D01*
X012344Y014153D02*
X012554Y014153D01*
X012550Y014151D02*
X012348Y014151D01*
X012352Y014148D02*
X012547Y014148D01*
X012542Y014146D02*
X012497Y014130D01*
X012449Y014124D01*
X012401Y014130D01*
X012356Y014146D01*
X012363Y014143D02*
X012536Y014143D01*
X012529Y014141D02*
X012370Y014141D01*
X012377Y014138D02*
X012522Y014138D01*
X012515Y014136D02*
X012383Y014136D01*
X012390Y014134D02*
X012508Y014134D01*
X012501Y014131D02*
X012397Y014131D01*
X012411Y014129D02*
X012488Y014129D01*
X012466Y014126D02*
X012432Y014126D01*
X012449Y015620D02*
X012497Y015626D01*
X012542Y015642D01*
X012583Y015667D01*
X012617Y015701D01*
X012643Y015742D01*
X012659Y015787D01*
X012664Y015835D01*
X012234Y015835D01*
X012240Y015787D01*
X012256Y015742D01*
X012281Y015701D01*
X012315Y015667D01*
X012356Y015642D01*
X012401Y015626D01*
X012449Y015620D01*
X012429Y015623D02*
X012470Y015623D01*
X012491Y015625D02*
X012407Y015625D01*
X012396Y015628D02*
X012502Y015628D01*
X012509Y015630D02*
X012389Y015630D01*
X012382Y015632D02*
X012516Y015632D01*
X012523Y015635D02*
X012375Y015635D01*
X012368Y015637D02*
X012530Y015637D01*
X012537Y015640D02*
X012361Y015640D01*
X012355Y015642D02*
X012543Y015642D01*
X012547Y015645D02*
X012351Y015645D01*
X012347Y015647D02*
X012551Y015647D01*
X012555Y015650D02*
X012344Y015650D01*
X012340Y015652D02*
X012559Y015652D01*
X012563Y015654D02*
X012336Y015654D01*
X012332Y015657D02*
X012567Y015657D01*
X012570Y015659D02*
X012328Y015659D01*
X012324Y015662D02*
X012574Y015662D01*
X012578Y015664D02*
X012320Y015664D01*
X012316Y015667D02*
X012582Y015667D01*
X012585Y015669D02*
X012314Y015669D01*
X012311Y015671D02*
X012587Y015671D01*
X012590Y015674D02*
X012309Y015674D01*
X012306Y015676D02*
X012592Y015676D01*
X012595Y015679D02*
X012304Y015679D01*
X012301Y015681D02*
X012597Y015681D01*
X012600Y015684D02*
X012299Y015684D01*
X012296Y015686D02*
X012602Y015686D01*
X012604Y015689D02*
X012294Y015689D01*
X012292Y015691D02*
X012607Y015691D01*
X012609Y015693D02*
X012289Y015693D01*
X012287Y015696D02*
X012612Y015696D01*
X012614Y015698D02*
X012284Y015698D01*
X012282Y015701D02*
X012617Y015701D01*
X012618Y015703D02*
X012280Y015703D01*
X012279Y015706D02*
X012620Y015706D01*
X012621Y015708D02*
X012277Y015708D01*
X012275Y015710D02*
X012623Y015710D01*
X012624Y015713D02*
X012274Y015713D01*
X012272Y015715D02*
X012626Y015715D01*
X012628Y015718D02*
X012271Y015718D01*
X012269Y015720D02*
X012629Y015720D01*
X012631Y015723D02*
X012268Y015723D01*
X012266Y015725D02*
X012632Y015725D01*
X012634Y015728D02*
X012265Y015728D01*
X012263Y015730D02*
X012635Y015730D01*
X012637Y015732D02*
X012262Y015732D01*
X012260Y015735D02*
X012638Y015735D01*
X012640Y015737D02*
X012259Y015737D01*
X012257Y015740D02*
X012641Y015740D01*
X012643Y015742D02*
X012256Y015742D01*
X012255Y015745D02*
X012644Y015745D01*
X012645Y015747D02*
X012254Y015747D01*
X012253Y015749D02*
X012645Y015749D01*
X012646Y015752D02*
X012252Y015752D01*
X012251Y015754D02*
X012647Y015754D01*
X012648Y015757D02*
X012250Y015757D01*
X012250Y015759D02*
X012649Y015759D01*
X012650Y015762D02*
X012249Y015762D01*
X012248Y015764D02*
X012651Y015764D01*
X012651Y015767D02*
X012247Y015767D01*
X012246Y015769D02*
X012652Y015769D01*
X012653Y015771D02*
X012245Y015771D01*
X012245Y015774D02*
X012654Y015774D01*
X012655Y015776D02*
X012244Y015776D01*
X012243Y015779D02*
X012656Y015779D01*
X012656Y015781D02*
X012242Y015781D01*
X012241Y015784D02*
X012657Y015784D01*
X012658Y015786D02*
X012240Y015786D01*
X012240Y015788D02*
X012659Y015788D01*
X012659Y015791D02*
X012239Y015791D01*
X012239Y015793D02*
X012659Y015793D01*
X012660Y015796D02*
X012239Y015796D01*
X012239Y015798D02*
X012660Y015798D01*
X012660Y015801D02*
X012238Y015801D01*
X012238Y015803D02*
X012660Y015803D01*
X012661Y015806D02*
X012238Y015806D01*
X012237Y015808D02*
X012661Y015808D01*
X012661Y015810D02*
X012237Y015810D01*
X012237Y015813D02*
X012662Y015813D01*
X012662Y015815D02*
X012237Y015815D01*
X012236Y015818D02*
X012662Y015818D01*
X012662Y015820D02*
X012236Y015820D01*
X012236Y015823D02*
X012663Y015823D01*
X012663Y015825D02*
X012236Y015825D01*
X012235Y015827D02*
X012663Y015827D01*
X012663Y015830D02*
X012235Y015830D01*
X012235Y015832D02*
X012664Y015832D01*
X012664Y015835D02*
X012664Y016071D01*
X012234Y016071D01*
X012234Y015835D01*
X012234Y015837D02*
X012664Y015837D01*
X012664Y015840D02*
X012234Y015840D01*
X012234Y015842D02*
X012664Y015842D01*
X012664Y015845D02*
X012234Y015845D01*
X012234Y015847D02*
X012664Y015847D01*
X012664Y015849D02*
X012234Y015849D01*
X012234Y015852D02*
X012664Y015852D01*
X012664Y015854D02*
X012234Y015854D01*
X012234Y015857D02*
X012664Y015857D01*
X012664Y015859D02*
X012234Y015859D01*
X012234Y015862D02*
X012664Y015862D01*
X012664Y015864D02*
X012234Y015864D01*
X012234Y015866D02*
X012664Y015866D01*
X012664Y015869D02*
X012234Y015869D01*
X012234Y015871D02*
X012664Y015871D01*
X012664Y015874D02*
X012234Y015874D01*
X012234Y015876D02*
X012664Y015876D01*
X012664Y015879D02*
X012234Y015879D01*
X012234Y015881D02*
X012664Y015881D01*
X012664Y015884D02*
X012234Y015884D01*
X012234Y015886D02*
X012664Y015886D01*
X012664Y015888D02*
X012234Y015888D01*
X012234Y015891D02*
X012664Y015891D01*
X012664Y015893D02*
X012234Y015893D01*
X012234Y015896D02*
X012664Y015896D01*
X012664Y015898D02*
X012234Y015898D01*
X012234Y015901D02*
X012664Y015901D01*
X012664Y015903D02*
X012234Y015903D01*
X012234Y015905D02*
X012664Y015905D01*
X012664Y015908D02*
X012234Y015908D01*
X012234Y015910D02*
X012664Y015910D01*
X012664Y015913D02*
X012234Y015913D01*
X012234Y015915D02*
X012664Y015915D01*
X012664Y015918D02*
X012234Y015918D01*
X012234Y015920D02*
X012664Y015920D01*
X012664Y015923D02*
X012234Y015923D01*
X012234Y015925D02*
X012664Y015925D01*
X012664Y015927D02*
X012234Y015927D01*
X012234Y015930D02*
X012664Y015930D01*
X012664Y015932D02*
X012234Y015932D01*
X012234Y015935D02*
X012664Y015935D01*
X012664Y015937D02*
X012234Y015937D01*
X012234Y015940D02*
X012664Y015940D01*
X012664Y015942D02*
X012234Y015942D01*
X012234Y015944D02*
X012664Y015944D01*
X012664Y015947D02*
X012234Y015947D01*
X012234Y015949D02*
X012664Y015949D01*
X012664Y015952D02*
X012234Y015952D01*
X012234Y015954D02*
X012664Y015954D01*
X012664Y015957D02*
X012234Y015957D01*
X012234Y015959D02*
X012664Y015959D01*
X012664Y015962D02*
X012234Y015962D01*
X012234Y015964D02*
X012664Y015964D01*
X012664Y015966D02*
X012234Y015966D01*
X012234Y015969D02*
X012664Y015969D01*
X012664Y015971D02*
X012234Y015971D01*
X012234Y015974D02*
X012664Y015974D01*
X012664Y015976D02*
X012234Y015976D01*
X012234Y015979D02*
X012664Y015979D01*
X012664Y015981D02*
X012234Y015981D01*
X012234Y015983D02*
X012664Y015983D01*
X012664Y015986D02*
X012234Y015986D01*
X012234Y015988D02*
X012664Y015988D01*
X012664Y015991D02*
X012234Y015991D01*
X012234Y015993D02*
X012664Y015993D01*
X012664Y015996D02*
X012234Y015996D01*
X012234Y015998D02*
X012664Y015998D01*
X012664Y016001D02*
X012234Y016001D01*
X012234Y016003D02*
X012664Y016003D01*
X012664Y016005D02*
X012234Y016005D01*
X012234Y016008D02*
X012664Y016008D01*
X012664Y016010D02*
X012234Y016010D01*
X012234Y016013D02*
X012664Y016013D01*
X012664Y016015D02*
X012234Y016015D01*
X012234Y016018D02*
X012664Y016018D01*
X012664Y016020D02*
X012234Y016020D01*
X012234Y016022D02*
X012664Y016022D01*
X012664Y016025D02*
X012234Y016025D01*
X012234Y016027D02*
X012664Y016027D01*
X012664Y016030D02*
X012234Y016030D01*
X012234Y016032D02*
X012664Y016032D01*
X012664Y016035D02*
X012234Y016035D01*
X012234Y016037D02*
X012664Y016037D01*
X012664Y016040D02*
X012234Y016040D01*
X012234Y016042D02*
X012664Y016042D01*
X012664Y016044D02*
X012234Y016044D01*
X012234Y016047D02*
X012664Y016047D01*
X012664Y016049D02*
X012234Y016049D01*
X012234Y016052D02*
X012664Y016052D01*
X012664Y016054D02*
X012234Y016054D01*
X012234Y016057D02*
X012664Y016057D01*
X012664Y016059D02*
X012234Y016059D01*
X012234Y016061D02*
X012664Y016061D01*
X012664Y016064D02*
X012234Y016064D01*
X012234Y016066D02*
X012664Y016066D01*
X012664Y016069D02*
X012234Y016069D01*
X012234Y016071D02*
X012240Y016119D01*
X012256Y016165D01*
X012281Y016205D01*
X012617Y016205D01*
X012583Y016239D01*
X012315Y016239D01*
X012281Y016205D01*
X012280Y016203D02*
X012619Y016203D01*
X012620Y016200D02*
X012278Y016200D01*
X012277Y016198D02*
X012622Y016198D01*
X012623Y016195D02*
X012275Y016195D01*
X012273Y016193D02*
X012625Y016193D01*
X012627Y016191D02*
X012272Y016191D01*
X012270Y016188D02*
X012628Y016188D01*
X012630Y016186D02*
X012269Y016186D01*
X012267Y016183D02*
X012631Y016183D01*
X012633Y016181D02*
X012266Y016181D01*
X012264Y016178D02*
X012634Y016178D01*
X012636Y016176D02*
X012263Y016176D01*
X012261Y016174D02*
X012637Y016174D01*
X012639Y016171D02*
X012260Y016171D01*
X012258Y016169D02*
X012640Y016169D01*
X012642Y016166D02*
X012257Y016166D01*
X012255Y016164D02*
X012643Y016164D01*
X012643Y016165D02*
X012617Y016205D01*
X012615Y016208D02*
X012283Y016208D01*
X012286Y016210D02*
X012613Y016210D01*
X012610Y016213D02*
X012288Y016213D01*
X012291Y016215D02*
X012608Y016215D01*
X012605Y016217D02*
X012293Y016217D01*
X012296Y016220D02*
X012603Y016220D01*
X012600Y016222D02*
X012298Y016222D01*
X012301Y016225D02*
X012598Y016225D01*
X012595Y016227D02*
X012303Y016227D01*
X012305Y016230D02*
X012593Y016230D01*
X012591Y016232D02*
X012308Y016232D01*
X012310Y016234D02*
X012588Y016234D01*
X012586Y016237D02*
X012313Y016237D01*
X012315Y016239D02*
X012356Y016265D01*
X012401Y016281D01*
X012497Y016281D01*
X012449Y016286D01*
X012401Y016281D01*
X012394Y016278D02*
X012504Y016278D01*
X012497Y016281D02*
X012542Y016265D01*
X012583Y016239D01*
X012579Y016242D02*
X012319Y016242D01*
X012323Y016244D02*
X012576Y016244D01*
X012572Y016247D02*
X012327Y016247D01*
X012331Y016249D02*
X012568Y016249D01*
X012564Y016252D02*
X012334Y016252D01*
X012338Y016254D02*
X012560Y016254D01*
X012556Y016256D02*
X012342Y016256D01*
X012346Y016259D02*
X012552Y016259D01*
X012548Y016261D02*
X012350Y016261D01*
X012354Y016264D02*
X012545Y016264D01*
X012539Y016266D02*
X012359Y016266D01*
X012366Y016269D02*
X012532Y016269D01*
X012525Y016271D02*
X012373Y016271D01*
X012380Y016273D02*
X012518Y016273D01*
X012511Y016276D02*
X012387Y016276D01*
X012422Y016283D02*
X012477Y016283D01*
X012455Y016286D02*
X012443Y016286D01*
X012254Y016161D02*
X012644Y016161D01*
X012645Y016159D02*
X012254Y016159D01*
X012253Y016156D02*
X012646Y016156D01*
X012647Y016154D02*
X012252Y016154D01*
X012251Y016152D02*
X012647Y016152D01*
X012648Y016149D02*
X012250Y016149D01*
X012249Y016147D02*
X012649Y016147D01*
X012650Y016144D02*
X012248Y016144D01*
X012248Y016142D02*
X012651Y016142D01*
X012652Y016139D02*
X012247Y016139D01*
X012246Y016137D02*
X012652Y016137D01*
X012653Y016135D02*
X012245Y016135D01*
X012244Y016132D02*
X012654Y016132D01*
X012655Y016130D02*
X012243Y016130D01*
X012243Y016127D02*
X012656Y016127D01*
X012657Y016125D02*
X012242Y016125D01*
X012241Y016122D02*
X012658Y016122D01*
X012658Y016120D02*
X012240Y016120D01*
X012240Y016118D02*
X012659Y016118D01*
X012659Y016119D02*
X012643Y016165D01*
X012659Y016119D02*
X012664Y016071D01*
X012664Y016074D02*
X012235Y016074D01*
X012235Y016076D02*
X012664Y016076D01*
X012663Y016079D02*
X012235Y016079D01*
X012235Y016081D02*
X012663Y016081D01*
X012663Y016083D02*
X012236Y016083D01*
X012236Y016086D02*
X012662Y016086D01*
X012662Y016088D02*
X012236Y016088D01*
X012237Y016091D02*
X012662Y016091D01*
X012662Y016093D02*
X012237Y016093D01*
X012237Y016096D02*
X012661Y016096D01*
X012661Y016098D02*
X012237Y016098D01*
X012238Y016100D02*
X012661Y016100D01*
X012661Y016103D02*
X012238Y016103D01*
X012238Y016105D02*
X012660Y016105D01*
X012660Y016108D02*
X012238Y016108D01*
X012239Y016110D02*
X012660Y016110D01*
X012659Y016113D02*
X012239Y016113D01*
X012239Y016115D02*
X012659Y016115D01*
X009263Y016071D02*
X009263Y015835D01*
X008834Y015835D01*
X008839Y015787D01*
X008855Y015742D01*
X008880Y015701D01*
X008914Y015667D01*
X008955Y015642D01*
X009001Y015626D01*
X009048Y015620D01*
X009096Y015626D01*
X009142Y015642D01*
X009182Y015667D01*
X009216Y015701D01*
X008881Y015701D01*
X008879Y015703D02*
X009218Y015703D01*
X009216Y015701D02*
X009242Y015742D01*
X009258Y015787D01*
X009263Y015835D01*
X009263Y015837D02*
X008834Y015837D01*
X008834Y015835D02*
X008834Y016071D01*
X009263Y016071D01*
X009258Y016119D01*
X009242Y016165D01*
X009216Y016205D01*
X009217Y016205D02*
X008880Y016205D01*
X008855Y016165D01*
X008839Y016119D01*
X008834Y016071D01*
X008834Y016069D02*
X009263Y016069D01*
X009263Y016066D02*
X008834Y016066D01*
X008834Y016064D02*
X009263Y016064D01*
X009263Y016061D02*
X008834Y016061D01*
X008834Y016059D02*
X009263Y016059D01*
X009263Y016057D02*
X008834Y016057D01*
X008834Y016054D02*
X009263Y016054D01*
X009263Y016052D02*
X008834Y016052D01*
X008834Y016049D02*
X009263Y016049D01*
X009263Y016047D02*
X008834Y016047D01*
X008834Y016044D02*
X009263Y016044D01*
X009263Y016042D02*
X008834Y016042D01*
X008834Y016040D02*
X009263Y016040D01*
X009263Y016037D02*
X008834Y016037D01*
X008834Y016035D02*
X009263Y016035D01*
X009263Y016032D02*
X008834Y016032D01*
X008834Y016030D02*
X009263Y016030D01*
X009263Y016027D02*
X008834Y016027D01*
X008834Y016025D02*
X009263Y016025D01*
X009263Y016022D02*
X008834Y016022D01*
X008834Y016020D02*
X009263Y016020D01*
X009263Y016018D02*
X008834Y016018D01*
X008834Y016015D02*
X009263Y016015D01*
X009263Y016013D02*
X008834Y016013D01*
X008834Y016010D02*
X009263Y016010D01*
X009263Y016008D02*
X008834Y016008D01*
X008834Y016005D02*
X009263Y016005D01*
X009263Y016003D02*
X008834Y016003D01*
X008834Y016001D02*
X009263Y016001D01*
X009263Y015998D02*
X008834Y015998D01*
X008834Y015996D02*
X009263Y015996D01*
X009263Y015993D02*
X008834Y015993D01*
X008834Y015991D02*
X009263Y015991D01*
X009263Y015988D02*
X008834Y015988D01*
X008834Y015986D02*
X009263Y015986D01*
X009263Y015983D02*
X008834Y015983D01*
X008834Y015981D02*
X009263Y015981D01*
X009263Y015979D02*
X008834Y015979D01*
X008834Y015976D02*
X009263Y015976D01*
X009263Y015974D02*
X008834Y015974D01*
X008834Y015971D02*
X009263Y015971D01*
X009263Y015969D02*
X008834Y015969D01*
X008834Y015966D02*
X009263Y015966D01*
X009263Y015964D02*
X008834Y015964D01*
X008834Y015962D02*
X009263Y015962D01*
X009263Y015959D02*
X008834Y015959D01*
X008834Y015957D02*
X009263Y015957D01*
X009263Y015954D02*
X008834Y015954D01*
X008834Y015952D02*
X009263Y015952D01*
X009263Y015949D02*
X008834Y015949D01*
X008834Y015947D02*
X009263Y015947D01*
X009263Y015944D02*
X008834Y015944D01*
X008834Y015942D02*
X009263Y015942D01*
X009263Y015940D02*
X008834Y015940D01*
X008834Y015937D02*
X009263Y015937D01*
X009263Y015935D02*
X008834Y015935D01*
X008834Y015932D02*
X009263Y015932D01*
X009263Y015930D02*
X008834Y015930D01*
X008834Y015927D02*
X009263Y015927D01*
X009263Y015925D02*
X008834Y015925D01*
X008834Y015923D02*
X009263Y015923D01*
X009263Y015920D02*
X008834Y015920D01*
X008834Y015918D02*
X009263Y015918D01*
X009263Y015915D02*
X008834Y015915D01*
X008834Y015913D02*
X009263Y015913D01*
X009263Y015910D02*
X008834Y015910D01*
X008834Y015908D02*
X009263Y015908D01*
X009263Y015905D02*
X008834Y015905D01*
X008834Y015903D02*
X009263Y015903D01*
X009263Y015901D02*
X008834Y015901D01*
X008834Y015898D02*
X009263Y015898D01*
X009263Y015896D02*
X008834Y015896D01*
X008834Y015893D02*
X009263Y015893D01*
X009263Y015891D02*
X008834Y015891D01*
X008834Y015888D02*
X009263Y015888D01*
X009263Y015886D02*
X008834Y015886D01*
X008834Y015884D02*
X009263Y015884D01*
X009263Y015881D02*
X008834Y015881D01*
X008834Y015879D02*
X009263Y015879D01*
X009263Y015876D02*
X008834Y015876D01*
X008834Y015874D02*
X009263Y015874D01*
X009263Y015871D02*
X008834Y015871D01*
X008834Y015869D02*
X009263Y015869D01*
X009263Y015866D02*
X008834Y015866D01*
X008834Y015864D02*
X009263Y015864D01*
X009263Y015862D02*
X008834Y015862D01*
X008834Y015859D02*
X009263Y015859D01*
X009263Y015857D02*
X008834Y015857D01*
X008834Y015854D02*
X009263Y015854D01*
X009263Y015852D02*
X008834Y015852D01*
X008834Y015849D02*
X009263Y015849D01*
X009263Y015847D02*
X008834Y015847D01*
X008834Y015845D02*
X009263Y015845D01*
X009263Y015842D02*
X008834Y015842D01*
X008834Y015840D02*
X009263Y015840D01*
X009263Y015832D02*
X008834Y015832D01*
X008834Y015830D02*
X009263Y015830D01*
X009262Y015827D02*
X008834Y015827D01*
X008835Y015825D02*
X009262Y015825D01*
X009262Y015823D02*
X008835Y015823D01*
X008835Y015820D02*
X009262Y015820D01*
X009261Y015818D02*
X008836Y015818D01*
X008836Y015815D02*
X009261Y015815D01*
X009261Y015813D02*
X008836Y015813D01*
X008836Y015810D02*
X009260Y015810D01*
X009260Y015808D02*
X008837Y015808D01*
X008837Y015806D02*
X009260Y015806D01*
X009260Y015803D02*
X008837Y015803D01*
X008837Y015801D02*
X009259Y015801D01*
X009259Y015798D02*
X008838Y015798D01*
X008838Y015796D02*
X009259Y015796D01*
X009259Y015793D02*
X008838Y015793D01*
X008839Y015791D02*
X009258Y015791D01*
X009258Y015788D02*
X008839Y015788D01*
X008839Y015786D02*
X009257Y015786D01*
X009257Y015784D02*
X008840Y015784D01*
X008841Y015781D02*
X009256Y015781D01*
X009255Y015779D02*
X008842Y015779D01*
X008843Y015776D02*
X009254Y015776D01*
X009253Y015774D02*
X008844Y015774D01*
X008845Y015771D02*
X009252Y015771D01*
X009251Y015769D02*
X008845Y015769D01*
X008846Y015767D02*
X009251Y015767D01*
X009250Y015764D02*
X008847Y015764D01*
X008848Y015762D02*
X009249Y015762D01*
X009248Y015759D02*
X008849Y015759D01*
X008850Y015757D02*
X009247Y015757D01*
X009246Y015754D02*
X008851Y015754D01*
X008851Y015752D02*
X009245Y015752D01*
X009245Y015749D02*
X008852Y015749D01*
X008853Y015747D02*
X009244Y015747D01*
X009243Y015745D02*
X008854Y015745D01*
X008855Y015742D02*
X009242Y015742D01*
X009241Y015740D02*
X008856Y015740D01*
X008858Y015737D02*
X009239Y015737D01*
X009237Y015735D02*
X008859Y015735D01*
X008861Y015732D02*
X009236Y015732D01*
X009234Y015730D02*
X008862Y015730D01*
X008864Y015728D02*
X009233Y015728D01*
X009231Y015725D02*
X008866Y015725D01*
X008867Y015723D02*
X009230Y015723D01*
X009228Y015720D02*
X008869Y015720D01*
X008870Y015718D02*
X009227Y015718D01*
X009225Y015715D02*
X008872Y015715D01*
X008873Y015713D02*
X009224Y015713D01*
X009222Y015710D02*
X008875Y015710D01*
X008876Y015708D02*
X009221Y015708D01*
X009219Y015706D02*
X008878Y015706D01*
X008883Y015698D02*
X009213Y015698D01*
X009211Y015696D02*
X008886Y015696D01*
X008888Y015693D02*
X009209Y015693D01*
X009206Y015691D02*
X008891Y015691D01*
X008893Y015689D02*
X009204Y015689D01*
X009201Y015686D02*
X008896Y015686D01*
X008898Y015684D02*
X009199Y015684D01*
X009196Y015681D02*
X008901Y015681D01*
X008903Y015679D02*
X009194Y015679D01*
X009191Y015676D02*
X008905Y015676D01*
X008908Y015674D02*
X009189Y015674D01*
X009187Y015671D02*
X008910Y015671D01*
X008913Y015669D02*
X009184Y015669D01*
X009181Y015667D02*
X008916Y015667D01*
X008919Y015664D02*
X009177Y015664D01*
X009174Y015662D02*
X008923Y015662D01*
X008927Y015659D02*
X009170Y015659D01*
X009166Y015657D02*
X008931Y015657D01*
X008935Y015654D02*
X009162Y015654D01*
X009158Y015652D02*
X008939Y015652D01*
X008943Y015650D02*
X009154Y015650D01*
X009150Y015647D02*
X008947Y015647D01*
X008950Y015645D02*
X009146Y015645D01*
X009142Y015642D02*
X008954Y015642D01*
X008961Y015640D02*
X009136Y015640D01*
X009129Y015637D02*
X008968Y015637D01*
X008975Y015635D02*
X009122Y015635D01*
X009115Y015632D02*
X008982Y015632D01*
X008988Y015630D02*
X009108Y015630D01*
X009101Y015628D02*
X008995Y015628D01*
X009006Y015625D02*
X009091Y015625D01*
X009069Y015623D02*
X009028Y015623D01*
X008834Y016074D02*
X009263Y016074D01*
X009263Y016076D02*
X008834Y016076D01*
X008834Y016079D02*
X009262Y016079D01*
X009262Y016081D02*
X008835Y016081D01*
X008835Y016083D02*
X009262Y016083D01*
X009262Y016086D02*
X008835Y016086D01*
X008835Y016088D02*
X009261Y016088D01*
X009261Y016091D02*
X008836Y016091D01*
X008836Y016093D02*
X009261Y016093D01*
X009261Y016096D02*
X008836Y016096D01*
X008837Y016098D02*
X009260Y016098D01*
X009260Y016100D02*
X008837Y016100D01*
X008837Y016103D02*
X009260Y016103D01*
X009259Y016105D02*
X008837Y016105D01*
X008838Y016108D02*
X009259Y016108D01*
X009259Y016110D02*
X008838Y016110D01*
X008838Y016113D02*
X009259Y016113D01*
X009258Y016115D02*
X008838Y016115D01*
X008839Y016118D02*
X009258Y016118D01*
X009258Y016120D02*
X008839Y016120D01*
X008840Y016122D02*
X009257Y016122D01*
X009256Y016125D02*
X008841Y016125D01*
X008842Y016127D02*
X009255Y016127D01*
X009254Y016130D02*
X008843Y016130D01*
X008843Y016132D02*
X009253Y016132D01*
X009253Y016135D02*
X008844Y016135D01*
X008845Y016137D02*
X009252Y016137D01*
X009251Y016139D02*
X008846Y016139D01*
X008847Y016142D02*
X009250Y016142D01*
X009249Y016144D02*
X008848Y016144D01*
X008849Y016147D02*
X009248Y016147D01*
X009247Y016149D02*
X008849Y016149D01*
X008850Y016152D02*
X009247Y016152D01*
X009246Y016154D02*
X008851Y016154D01*
X008852Y016156D02*
X009245Y016156D01*
X009244Y016159D02*
X008853Y016159D01*
X008854Y016161D02*
X009243Y016161D01*
X009242Y016164D02*
X008855Y016164D01*
X008856Y016166D02*
X009241Y016166D01*
X009240Y016169D02*
X008857Y016169D01*
X008859Y016171D02*
X009238Y016171D01*
X009236Y016174D02*
X008860Y016174D01*
X008862Y016176D02*
X009235Y016176D01*
X009233Y016178D02*
X008863Y016178D01*
X008865Y016181D02*
X009232Y016181D01*
X009230Y016183D02*
X008867Y016183D01*
X008868Y016186D02*
X009229Y016186D01*
X009227Y016188D02*
X008870Y016188D01*
X008871Y016191D02*
X009226Y016191D01*
X009224Y016193D02*
X008873Y016193D01*
X008874Y016195D02*
X009223Y016195D01*
X009221Y016198D02*
X008876Y016198D01*
X008877Y016200D02*
X009220Y016200D01*
X009218Y016203D02*
X008879Y016203D01*
X008880Y016205D02*
X008914Y016239D01*
X009182Y016239D01*
X009142Y016265D01*
X009096Y016281D01*
X009048Y016286D01*
X009001Y016281D01*
X008955Y016265D01*
X008914Y016239D01*
X008912Y016237D02*
X009185Y016237D01*
X009187Y016234D02*
X008909Y016234D01*
X008907Y016232D02*
X009190Y016232D01*
X009192Y016230D02*
X008905Y016230D01*
X008902Y016227D02*
X009195Y016227D01*
X009197Y016225D02*
X008900Y016225D01*
X008897Y016222D02*
X009200Y016222D01*
X009202Y016220D02*
X008895Y016220D01*
X008892Y016217D02*
X009204Y016217D01*
X009207Y016215D02*
X008890Y016215D01*
X008888Y016213D02*
X009209Y016213D01*
X009212Y016210D02*
X008885Y016210D01*
X008883Y016208D02*
X009214Y016208D01*
X009216Y016205D02*
X009182Y016239D01*
X009179Y016242D02*
X008918Y016242D01*
X008922Y016244D02*
X009175Y016244D01*
X009171Y016247D02*
X008926Y016247D01*
X008930Y016249D02*
X009167Y016249D01*
X009163Y016252D02*
X008934Y016252D01*
X008938Y016254D02*
X009159Y016254D01*
X009155Y016256D02*
X008941Y016256D01*
X008945Y016259D02*
X009152Y016259D01*
X009148Y016261D02*
X008949Y016261D01*
X008953Y016264D02*
X009144Y016264D01*
X009138Y016266D02*
X008958Y016266D01*
X008965Y016269D02*
X009132Y016269D01*
X009125Y016271D02*
X008972Y016271D01*
X008979Y016273D02*
X009118Y016273D01*
X009111Y016276D02*
X008986Y016276D01*
X008993Y016278D02*
X009104Y016278D01*
X009097Y016281D02*
X009000Y016281D01*
X009021Y016283D02*
X009076Y016283D01*
X009054Y016286D02*
X009042Y016286D01*
X009048Y014790D02*
X009096Y014785D01*
X009142Y014769D01*
X009182Y014743D01*
X009216Y014709D01*
X009242Y014669D01*
X009258Y014623D01*
X009263Y014575D01*
X008834Y014575D01*
X008834Y014339D01*
X008839Y014291D01*
X008855Y014246D01*
X008880Y014205D01*
X008914Y014171D01*
X008955Y014146D01*
X009142Y014146D01*
X009182Y014171D01*
X009216Y014205D01*
X009242Y014246D01*
X009258Y014291D01*
X009263Y014339D01*
X009263Y014575D01*
X009263Y014577D02*
X008834Y014577D01*
X008834Y014575D02*
X008839Y014623D01*
X008855Y014669D01*
X008880Y014709D01*
X009217Y014709D01*
X009218Y014706D02*
X008879Y014706D01*
X008877Y014704D02*
X009220Y014704D01*
X009221Y014701D02*
X008875Y014701D01*
X008874Y014699D02*
X009223Y014699D01*
X009224Y014697D02*
X008872Y014697D01*
X008871Y014694D02*
X009226Y014694D01*
X009228Y014692D02*
X008869Y014692D01*
X008868Y014689D02*
X009229Y014689D01*
X009231Y014687D02*
X008866Y014687D01*
X008865Y014684D02*
X009232Y014684D01*
X009234Y014682D02*
X008863Y014682D01*
X008862Y014680D02*
X009235Y014680D01*
X009237Y014677D02*
X008860Y014677D01*
X008859Y014675D02*
X009238Y014675D01*
X009240Y014672D02*
X008857Y014672D01*
X008856Y014670D02*
X009241Y014670D01*
X009242Y014667D02*
X008854Y014667D01*
X008854Y014665D02*
X009243Y014665D01*
X009244Y014662D02*
X008853Y014662D01*
X008852Y014660D02*
X009245Y014660D01*
X009246Y014658D02*
X008851Y014658D01*
X008850Y014655D02*
X009247Y014655D01*
X009248Y014653D02*
X008849Y014653D01*
X008848Y014650D02*
X009248Y014650D01*
X009249Y014648D02*
X008848Y014648D01*
X008847Y014645D02*
X009250Y014645D01*
X009251Y014643D02*
X008846Y014643D01*
X008845Y014641D02*
X009252Y014641D01*
X009253Y014638D02*
X008844Y014638D01*
X008843Y014636D02*
X009254Y014636D01*
X009254Y014633D02*
X008842Y014633D01*
X008842Y014631D02*
X009255Y014631D01*
X009256Y014628D02*
X008841Y014628D01*
X008840Y014626D02*
X009257Y014626D01*
X009258Y014623D02*
X008839Y014623D01*
X008839Y014621D02*
X009258Y014621D01*
X009258Y014619D02*
X008838Y014619D01*
X008838Y014616D02*
X009259Y014616D01*
X009259Y014614D02*
X008838Y014614D01*
X008838Y014611D02*
X009259Y014611D01*
X009260Y014609D02*
X008837Y014609D01*
X008837Y014606D02*
X009260Y014606D01*
X009260Y014604D02*
X008837Y014604D01*
X008837Y014602D02*
X009260Y014602D01*
X009261Y014599D02*
X008836Y014599D01*
X008836Y014597D02*
X009261Y014597D01*
X009261Y014594D02*
X008836Y014594D01*
X008835Y014592D02*
X009261Y014592D01*
X009262Y014589D02*
X008835Y014589D01*
X008835Y014587D02*
X009262Y014587D01*
X009262Y014584D02*
X008835Y014584D01*
X008834Y014582D02*
X009263Y014582D01*
X009263Y014580D02*
X008834Y014580D01*
X008834Y014572D02*
X009263Y014572D01*
X009263Y014570D02*
X008834Y014570D01*
X008834Y014567D02*
X009263Y014567D01*
X009263Y014565D02*
X008834Y014565D01*
X008834Y014563D02*
X009263Y014563D01*
X009263Y014560D02*
X008834Y014560D01*
X008834Y014558D02*
X009263Y014558D01*
X009263Y014555D02*
X008834Y014555D01*
X008834Y014553D02*
X009263Y014553D01*
X009263Y014550D02*
X008834Y014550D01*
X008834Y014548D02*
X009263Y014548D01*
X009263Y014545D02*
X008834Y014545D01*
X008834Y014543D02*
X009263Y014543D01*
X009263Y014541D02*
X008834Y014541D01*
X008834Y014538D02*
X009263Y014538D01*
X009263Y014536D02*
X008834Y014536D01*
X008834Y014533D02*
X009263Y014533D01*
X009263Y014531D02*
X008834Y014531D01*
X008834Y014528D02*
X009263Y014528D01*
X009263Y014526D02*
X008834Y014526D01*
X008834Y014524D02*
X009263Y014524D01*
X009263Y014521D02*
X008834Y014521D01*
X008834Y014519D02*
X009263Y014519D01*
X009263Y014516D02*
X008834Y014516D01*
X008834Y014514D02*
X009263Y014514D01*
X009263Y014511D02*
X008834Y014511D01*
X008834Y014509D02*
X009263Y014509D01*
X009263Y014506D02*
X008834Y014506D01*
X008834Y014504D02*
X009263Y014504D01*
X009263Y014502D02*
X008834Y014502D01*
X008834Y014499D02*
X009263Y014499D01*
X009263Y014497D02*
X008834Y014497D01*
X008834Y014494D02*
X009263Y014494D01*
X009263Y014492D02*
X008834Y014492D01*
X008834Y014489D02*
X009263Y014489D01*
X009263Y014487D02*
X008834Y014487D01*
X008834Y014485D02*
X009263Y014485D01*
X009263Y014482D02*
X008834Y014482D01*
X008834Y014480D02*
X009263Y014480D01*
X009263Y014477D02*
X008834Y014477D01*
X008834Y014475D02*
X009263Y014475D01*
X009263Y014472D02*
X008834Y014472D01*
X008834Y014470D02*
X009263Y014470D01*
X009263Y014467D02*
X008834Y014467D01*
X008834Y014465D02*
X009263Y014465D01*
X009263Y014463D02*
X008834Y014463D01*
X008834Y014460D02*
X009263Y014460D01*
X009263Y014458D02*
X008834Y014458D01*
X008834Y014455D02*
X009263Y014455D01*
X009263Y014453D02*
X008834Y014453D01*
X008834Y014450D02*
X009263Y014450D01*
X009263Y014448D02*
X008834Y014448D01*
X008834Y014446D02*
X009263Y014446D01*
X009263Y014443D02*
X008834Y014443D01*
X008834Y014441D02*
X009263Y014441D01*
X009263Y014438D02*
X008834Y014438D01*
X008834Y014436D02*
X009263Y014436D01*
X009263Y014433D02*
X008834Y014433D01*
X008834Y014431D02*
X009263Y014431D01*
X009263Y014428D02*
X008834Y014428D01*
X008834Y014426D02*
X009263Y014426D01*
X009263Y014424D02*
X008834Y014424D01*
X008834Y014421D02*
X009263Y014421D01*
X009263Y014419D02*
X008834Y014419D01*
X008834Y014416D02*
X009263Y014416D01*
X009263Y014414D02*
X008834Y014414D01*
X008834Y014411D02*
X009263Y014411D01*
X009263Y014409D02*
X008834Y014409D01*
X008834Y014407D02*
X009263Y014407D01*
X009263Y014404D02*
X008834Y014404D01*
X008834Y014402D02*
X009263Y014402D01*
X009263Y014399D02*
X008834Y014399D01*
X008834Y014397D02*
X009263Y014397D01*
X009263Y014394D02*
X008834Y014394D01*
X008834Y014392D02*
X009263Y014392D01*
X009263Y014389D02*
X008834Y014389D01*
X008834Y014387D02*
X009263Y014387D01*
X009263Y014385D02*
X008834Y014385D01*
X008834Y014382D02*
X009263Y014382D01*
X009263Y014380D02*
X008834Y014380D01*
X008834Y014377D02*
X009263Y014377D01*
X009263Y014375D02*
X008834Y014375D01*
X008834Y014372D02*
X009263Y014372D01*
X009263Y014370D02*
X008834Y014370D01*
X008834Y014368D02*
X009263Y014368D01*
X009263Y014365D02*
X008834Y014365D01*
X008834Y014363D02*
X009263Y014363D01*
X009263Y014360D02*
X008834Y014360D01*
X008834Y014358D02*
X009263Y014358D01*
X009263Y014355D02*
X008834Y014355D01*
X008834Y014353D02*
X009263Y014353D01*
X009263Y014350D02*
X008834Y014350D01*
X008834Y014348D02*
X009263Y014348D01*
X009263Y014346D02*
X008834Y014346D01*
X008834Y014343D02*
X009263Y014343D01*
X009263Y014341D02*
X008834Y014341D01*
X008834Y014338D02*
X009263Y014338D01*
X009263Y014336D02*
X008834Y014336D01*
X008834Y014333D02*
X009263Y014333D01*
X009262Y014331D02*
X008834Y014331D01*
X008835Y014329D02*
X009262Y014329D01*
X009262Y014326D02*
X008835Y014326D01*
X008835Y014324D02*
X009262Y014324D01*
X009261Y014321D02*
X008836Y014321D01*
X008836Y014319D02*
X009261Y014319D01*
X009261Y014316D02*
X008836Y014316D01*
X008836Y014314D02*
X009260Y014314D01*
X009260Y014311D02*
X008837Y014311D01*
X008837Y014309D02*
X009260Y014309D01*
X009260Y014307D02*
X008837Y014307D01*
X008838Y014304D02*
X009259Y014304D01*
X009259Y014302D02*
X008838Y014302D01*
X008838Y014299D02*
X009259Y014299D01*
X009259Y014297D02*
X008838Y014297D01*
X008839Y014294D02*
X009258Y014294D01*
X009258Y014292D02*
X008839Y014292D01*
X008840Y014290D02*
X009257Y014290D01*
X009256Y014287D02*
X008840Y014287D01*
X008841Y014285D02*
X009256Y014285D01*
X009255Y014282D02*
X008842Y014282D01*
X008843Y014280D02*
X009254Y014280D01*
X009253Y014277D02*
X008844Y014277D01*
X008845Y014275D02*
X009252Y014275D01*
X009251Y014273D02*
X008846Y014273D01*
X008846Y014270D02*
X009250Y014270D01*
X009250Y014268D02*
X008847Y014268D01*
X008848Y014265D02*
X009249Y014265D01*
X009248Y014263D02*
X008849Y014263D01*
X008850Y014260D02*
X009247Y014260D01*
X009246Y014258D02*
X008851Y014258D01*
X008852Y014255D02*
X009245Y014255D01*
X009244Y014253D02*
X008852Y014253D01*
X008853Y014251D02*
X009244Y014251D01*
X009243Y014248D02*
X008854Y014248D01*
X008855Y014246D02*
X009242Y014246D01*
X009240Y014243D02*
X008857Y014243D01*
X008858Y014241D02*
X009239Y014241D01*
X009237Y014238D02*
X008860Y014238D01*
X008861Y014236D02*
X009236Y014236D01*
X009234Y014234D02*
X008863Y014234D01*
X008864Y014231D02*
X009233Y014231D01*
X009231Y014229D02*
X008866Y014229D01*
X008867Y014226D02*
X009230Y014226D01*
X009228Y014224D02*
X008869Y014224D01*
X008870Y014221D02*
X009226Y014221D01*
X009225Y014219D02*
X008872Y014219D01*
X008873Y014216D02*
X009223Y014216D01*
X009222Y014214D02*
X008875Y014214D01*
X008876Y014212D02*
X009220Y014212D01*
X009219Y014209D02*
X008878Y014209D01*
X008880Y014207D02*
X009217Y014207D01*
X009215Y014204D02*
X008881Y014204D01*
X008884Y014202D02*
X009213Y014202D01*
X009211Y014199D02*
X008886Y014199D01*
X008889Y014197D02*
X009208Y014197D01*
X009206Y014195D02*
X008891Y014195D01*
X008894Y014192D02*
X009203Y014192D01*
X009201Y014190D02*
X008896Y014190D01*
X008899Y014187D02*
X009198Y014187D01*
X009196Y014185D02*
X008901Y014185D01*
X008903Y014182D02*
X009193Y014182D01*
X009191Y014180D02*
X008906Y014180D01*
X008908Y014177D02*
X009189Y014177D01*
X009186Y014175D02*
X008911Y014175D01*
X008913Y014173D02*
X009184Y014173D01*
X009181Y014170D02*
X008916Y014170D01*
X008920Y014168D02*
X009177Y014168D01*
X009173Y014165D02*
X008924Y014165D01*
X008928Y014163D02*
X009169Y014163D01*
X009165Y014160D02*
X008932Y014160D01*
X008936Y014158D02*
X009161Y014158D01*
X009157Y014156D02*
X008939Y014156D01*
X008943Y014153D02*
X009153Y014153D01*
X009150Y014151D02*
X008947Y014151D01*
X008951Y014148D02*
X009146Y014148D01*
X009142Y014146D02*
X009096Y014130D01*
X009048Y014124D01*
X009001Y014130D01*
X008955Y014146D01*
X008962Y014143D02*
X009135Y014143D01*
X009128Y014141D02*
X008969Y014141D01*
X008976Y014138D02*
X009121Y014138D01*
X009114Y014136D02*
X008983Y014136D01*
X008990Y014134D02*
X009107Y014134D01*
X009100Y014131D02*
X008997Y014131D01*
X009010Y014129D02*
X009087Y014129D01*
X009065Y014126D02*
X009032Y014126D01*
X008880Y014709D02*
X008914Y014743D01*
X009183Y014743D01*
X009185Y014740D02*
X008912Y014740D01*
X008909Y014738D02*
X009188Y014738D01*
X009190Y014736D02*
X008907Y014736D01*
X008904Y014733D02*
X009193Y014733D01*
X009195Y014731D02*
X008902Y014731D01*
X008899Y014728D02*
X009198Y014728D01*
X009200Y014726D02*
X008897Y014726D01*
X008894Y014723D02*
X009202Y014723D01*
X009205Y014721D02*
X008892Y014721D01*
X008890Y014719D02*
X009207Y014719D01*
X009210Y014716D02*
X008887Y014716D01*
X008885Y014714D02*
X009212Y014714D01*
X009215Y014711D02*
X008882Y014711D01*
X008914Y014743D02*
X008955Y014769D01*
X009001Y014785D01*
X009048Y014790D01*
X009039Y014789D02*
X009058Y014789D01*
X009080Y014787D02*
X009017Y014787D01*
X008999Y014784D02*
X009098Y014784D01*
X009105Y014782D02*
X008992Y014782D01*
X008985Y014779D02*
X009112Y014779D01*
X009119Y014777D02*
X008978Y014777D01*
X008971Y014775D02*
X009126Y014775D01*
X009133Y014772D02*
X008964Y014772D01*
X008957Y014770D02*
X009140Y014770D01*
X009144Y014767D02*
X008952Y014767D01*
X008949Y014765D02*
X009148Y014765D01*
X009152Y014762D02*
X008945Y014762D01*
X008941Y014760D02*
X009156Y014760D01*
X009160Y014758D02*
X008937Y014758D01*
X008933Y014755D02*
X009164Y014755D01*
X009168Y014753D02*
X008929Y014753D01*
X008925Y014750D02*
X009172Y014750D01*
X009175Y014748D02*
X008921Y014748D01*
X008918Y014745D02*
X009179Y014745D01*
D13*
X011649Y006809D03*
D14*
X011690Y004822D03*
D15*
X017715Y009767D03*
X018588Y007366D03*
D16*
X011750Y014992D03*
X009750Y014992D03*
D17*
X010750Y012342D03*
D18*
X019567Y005568D03*
D19*
X006253Y013282D03*
D20*
X000941Y000941D02*
X001064Y000852D01*
X001208Y000805D01*
X001208Y000805D01*
X001284Y000799D01*
X024130Y000799D01*
X024131Y000799D01*
X024183Y000799D01*
X024184Y000799D01*
X024261Y000804D01*
X024407Y000851D01*
X024532Y000940D01*
X024623Y001063D01*
X024672Y001209D01*
X024678Y001286D01*
X024678Y017500D01*
X024671Y017576D01*
X024623Y017722D01*
X024532Y017845D01*
X024407Y017934D01*
X024261Y017980D01*
X024185Y017985D01*
X024183Y017985D01*
X024132Y017985D01*
X024131Y017985D01*
X014128Y017985D01*
X014117Y017972D01*
X014117Y017150D01*
X014134Y017131D01*
X014134Y017131D01*
X014142Y017106D01*
X014263Y017054D01*
X014263Y017054D01*
X014403Y016907D01*
X014403Y016907D01*
X014477Y016718D01*
X014477Y016718D01*
X014475Y016620D01*
X014475Y014927D01*
X014485Y014917D01*
X014485Y014592D01*
X014365Y014472D01*
X012975Y014472D01*
X012855Y014592D01*
X012855Y014612D01*
X012846Y014593D01*
X012846Y014586D01*
X012853Y014521D01*
X012846Y014512D01*
X012846Y014403D01*
X012853Y014394D01*
X012846Y014329D01*
X012846Y014322D01*
X012855Y014303D01*
X012855Y014322D01*
X012975Y014442D01*
X014365Y014442D01*
X014485Y014322D01*
X014485Y013987D01*
X014475Y013977D01*
X014475Y012047D01*
X021808Y012047D01*
X021997Y011969D01*
X021997Y011969D01*
X022142Y011824D01*
X022142Y011824D01*
X022220Y011634D01*
X022220Y001880D01*
X022142Y001690D01*
X022142Y001690D01*
X021997Y001545D01*
X021997Y001545D01*
X021808Y001467D01*
X008153Y001467D01*
X008050Y001467D01*
X008050Y001467D01*
X007860Y001545D01*
X007860Y001545D01*
X007714Y001690D01*
X007714Y001690D01*
X007635Y001880D01*
X007635Y001880D01*
X007635Y001931D01*
X007635Y001931D01*
X007635Y001983D01*
X007635Y002036D01*
X007635Y002036D01*
X007635Y007272D01*
X005340Y009567D01*
X003048Y009567D01*
X002858Y009645D01*
X002858Y009645D01*
X002858Y009645D01*
X002713Y009790D01*
X002713Y009790D01*
X002635Y009980D01*
X002635Y016725D01*
X002713Y016914D01*
X002713Y016914D01*
X002858Y017059D01*
X002858Y017059D01*
X003048Y017137D01*
X007367Y017137D01*
X007367Y017985D01*
X001336Y017985D01*
X001336Y017985D01*
X001283Y017985D01*
X001283Y017985D01*
X001208Y017979D01*
X001064Y017933D01*
X000941Y017844D01*
X000852Y017722D01*
X000805Y017578D01*
X000799Y017502D01*
X000799Y001284D01*
X000805Y001208D01*
X000852Y001064D01*
X000941Y000941D01*
X000961Y000926D02*
X024513Y000926D01*
X024580Y001005D02*
X000894Y001005D01*
X000845Y001083D02*
X024630Y001083D01*
X024656Y001162D02*
X000820Y001162D01*
X000802Y001240D02*
X024674Y001240D01*
X024678Y001319D02*
X000799Y001319D01*
X000799Y001397D02*
X024678Y001397D01*
X024678Y001476D02*
X021829Y001476D01*
X022006Y001554D02*
X024678Y001554D01*
X024678Y001633D02*
X022084Y001633D01*
X022151Y001711D02*
X024678Y001711D01*
X024678Y001790D02*
X022183Y001790D01*
X022216Y001868D02*
X024678Y001868D01*
X024678Y001947D02*
X022220Y001947D01*
X022220Y002025D02*
X024678Y002025D01*
X024678Y002104D02*
X022220Y002104D01*
X022220Y002182D02*
X024678Y002182D01*
X024678Y002261D02*
X022220Y002261D01*
X022220Y002339D02*
X024678Y002339D01*
X024678Y002418D02*
X022220Y002418D01*
X022220Y002496D02*
X024678Y002496D01*
X024678Y002575D02*
X022220Y002575D01*
X022220Y002653D02*
X024678Y002653D01*
X024678Y002732D02*
X022220Y002732D01*
X022220Y002810D02*
X024678Y002810D01*
X024678Y002889D02*
X022220Y002889D01*
X022220Y002967D02*
X024678Y002967D01*
X024678Y003046D02*
X022220Y003046D01*
X022220Y003124D02*
X024678Y003124D01*
X024678Y003203D02*
X022220Y003203D01*
X022220Y003281D02*
X024678Y003281D01*
X024678Y003360D02*
X022220Y003360D01*
X022220Y003438D02*
X024678Y003438D01*
X024678Y003517D02*
X022220Y003517D01*
X022220Y003595D02*
X024678Y003595D01*
X024678Y003674D02*
X022220Y003674D01*
X022220Y003752D02*
X024678Y003752D01*
X024678Y003831D02*
X022220Y003831D01*
X022220Y003909D02*
X024678Y003909D01*
X024678Y003988D02*
X022220Y003988D01*
X022220Y004066D02*
X024678Y004066D01*
X024678Y004145D02*
X022220Y004145D01*
X022220Y004223D02*
X024678Y004223D01*
X024678Y004302D02*
X022220Y004302D01*
X022220Y004380D02*
X024678Y004380D01*
X024678Y004459D02*
X022220Y004459D01*
X022220Y004537D02*
X024678Y004537D01*
X024678Y004616D02*
X022220Y004616D01*
X022220Y004694D02*
X024678Y004694D01*
X024678Y004773D02*
X022220Y004773D01*
X022220Y004851D02*
X024678Y004851D01*
X024678Y004930D02*
X022220Y004930D01*
X022220Y005008D02*
X024678Y005008D01*
X024678Y005087D02*
X022220Y005087D01*
X022220Y005165D02*
X024678Y005165D01*
X024678Y005244D02*
X022220Y005244D01*
X022220Y005322D02*
X024678Y005322D01*
X024678Y005401D02*
X022220Y005401D01*
X022220Y005479D02*
X024678Y005479D01*
X024678Y005558D02*
X022220Y005558D01*
X022220Y005636D02*
X024678Y005636D01*
X024678Y005715D02*
X022220Y005715D01*
X022220Y005793D02*
X024678Y005793D01*
X024678Y005872D02*
X022220Y005872D01*
X022220Y005950D02*
X024678Y005950D01*
X024678Y006029D02*
X022220Y006029D01*
X022220Y006107D02*
X024678Y006107D01*
X024678Y006186D02*
X022220Y006186D01*
X022220Y006264D02*
X024678Y006264D01*
X024678Y006343D02*
X022220Y006343D01*
X022220Y006421D02*
X024678Y006421D01*
X024678Y006500D02*
X022220Y006500D01*
X022220Y006578D02*
X024678Y006578D01*
X024678Y006657D02*
X022220Y006657D01*
X022220Y006735D02*
X024678Y006735D01*
X024678Y006814D02*
X022220Y006814D01*
X022220Y006892D02*
X024678Y006892D01*
X024678Y006971D02*
X022220Y006971D01*
X022220Y007049D02*
X024678Y007049D01*
X024678Y007128D02*
X022220Y007128D01*
X022220Y007206D02*
X024678Y007206D01*
X024678Y007285D02*
X022220Y007285D01*
X022220Y007363D02*
X024678Y007363D01*
X024678Y007442D02*
X022220Y007442D01*
X022220Y007520D02*
X024678Y007520D01*
X024678Y007599D02*
X022220Y007599D01*
X022220Y007677D02*
X024678Y007677D01*
X024678Y007756D02*
X022220Y007756D01*
X022220Y007834D02*
X024678Y007834D01*
X024678Y007913D02*
X022220Y007913D01*
X022220Y007991D02*
X024678Y007991D01*
X024678Y008070D02*
X022220Y008070D01*
X022220Y008148D02*
X024678Y008148D01*
X024678Y008227D02*
X022220Y008227D01*
X022220Y008305D02*
X024678Y008305D01*
X024678Y008384D02*
X022220Y008384D01*
X022220Y008462D02*
X024678Y008462D01*
X024678Y008541D02*
X022220Y008541D01*
X022220Y008619D02*
X024678Y008619D01*
X024678Y008698D02*
X022220Y008698D01*
X022220Y008776D02*
X024678Y008776D01*
X024678Y008855D02*
X022220Y008855D01*
X022220Y008933D02*
X024678Y008933D01*
X024678Y009012D02*
X022220Y009012D01*
X022220Y009090D02*
X024678Y009090D01*
X024678Y009169D02*
X022220Y009169D01*
X022220Y009247D02*
X024678Y009247D01*
X024678Y009326D02*
X022220Y009326D01*
X022220Y009404D02*
X024678Y009404D01*
X024678Y009483D02*
X022220Y009483D01*
X022220Y009561D02*
X024678Y009561D01*
X024678Y009640D02*
X022220Y009640D01*
X022220Y009718D02*
X024678Y009718D01*
X024678Y009797D02*
X022220Y009797D01*
X022220Y009875D02*
X024678Y009875D01*
X024678Y009954D02*
X022220Y009954D01*
X022220Y010032D02*
X024678Y010032D01*
X024678Y010111D02*
X022220Y010111D01*
X022220Y010189D02*
X024678Y010189D01*
X024678Y010268D02*
X022220Y010268D01*
X022220Y010346D02*
X024678Y010346D01*
X024678Y010425D02*
X022220Y010425D01*
X022220Y010503D02*
X024678Y010503D01*
X024678Y010582D02*
X022220Y010582D01*
X022220Y010660D02*
X024678Y010660D01*
X024678Y010739D02*
X022220Y010739D01*
X022220Y010817D02*
X024678Y010817D01*
X024678Y010896D02*
X022220Y010896D01*
X022220Y010974D02*
X024678Y010974D01*
X024678Y011053D02*
X022220Y011053D01*
X022220Y011131D02*
X024678Y011131D01*
X024678Y011210D02*
X022220Y011210D01*
X022220Y011288D02*
X024678Y011288D01*
X024678Y011367D02*
X022220Y011367D01*
X022220Y011445D02*
X024678Y011445D01*
X024678Y011524D02*
X022220Y011524D01*
X022220Y011602D02*
X024678Y011602D01*
X024678Y011681D02*
X022201Y011681D01*
X022169Y011759D02*
X024678Y011759D01*
X024678Y011838D02*
X022128Y011838D01*
X022049Y011916D02*
X024678Y011916D01*
X024678Y011995D02*
X021934Y011995D01*
X024678Y012073D02*
X014475Y012073D01*
X014475Y012152D02*
X024678Y012152D01*
X024678Y012230D02*
X014475Y012230D01*
X014475Y012309D02*
X024678Y012309D01*
X024678Y012387D02*
X014475Y012387D01*
X014475Y012466D02*
X024678Y012466D01*
X024678Y012544D02*
X014475Y012544D01*
X014475Y012623D02*
X024678Y012623D01*
X024678Y012701D02*
X014475Y012701D01*
X014475Y012780D02*
X024678Y012780D01*
X024678Y012858D02*
X014475Y012858D01*
X014475Y012937D02*
X024678Y012937D01*
X024678Y013015D02*
X014475Y013015D01*
X014475Y013094D02*
X024678Y013094D01*
X024678Y013172D02*
X014475Y013172D01*
X014475Y013251D02*
X024678Y013251D01*
X024678Y013329D02*
X014475Y013329D01*
X014475Y013408D02*
X024678Y013408D01*
X024678Y013486D02*
X014475Y013486D01*
X014475Y013565D02*
X024678Y013565D01*
X024678Y013643D02*
X014475Y013643D01*
X014475Y013722D02*
X024678Y013722D01*
X024678Y013800D02*
X014475Y013800D01*
X014475Y013879D02*
X024678Y013879D01*
X024678Y013957D02*
X014475Y013957D01*
X014485Y014036D02*
X024678Y014036D01*
X024678Y014114D02*
X014485Y014114D01*
X014485Y014193D02*
X024678Y014193D01*
X024678Y014271D02*
X014485Y014271D01*
X014457Y014350D02*
X024678Y014350D01*
X024678Y014428D02*
X014379Y014428D01*
X014400Y014507D02*
X024678Y014507D01*
X024678Y014585D02*
X014478Y014585D01*
X014485Y014664D02*
X024678Y014664D01*
X024678Y014742D02*
X014485Y014742D01*
X014485Y014821D02*
X024678Y014821D01*
X024678Y014899D02*
X014485Y014899D01*
X014475Y014978D02*
X024678Y014978D01*
X024678Y015056D02*
X014475Y015056D01*
X014475Y015135D02*
X024678Y015135D01*
X024678Y015213D02*
X014475Y015213D01*
X014475Y015292D02*
X024678Y015292D01*
X024678Y015370D02*
X014475Y015370D01*
X014475Y015449D02*
X024678Y015449D01*
X024678Y015527D02*
X014475Y015527D01*
X014475Y015606D02*
X024678Y015606D01*
X024678Y015684D02*
X014475Y015684D01*
X014475Y015763D02*
X024678Y015763D01*
X024678Y015841D02*
X014475Y015841D01*
X014475Y015920D02*
X024678Y015920D01*
X024678Y015998D02*
X014475Y015998D01*
X014475Y016077D02*
X024678Y016077D01*
X024678Y016155D02*
X014475Y016155D01*
X014475Y016234D02*
X024678Y016234D01*
X024678Y016312D02*
X014475Y016312D01*
X014475Y016391D02*
X024678Y016391D01*
X024678Y016469D02*
X014475Y016469D01*
X014475Y016548D02*
X024678Y016548D01*
X024678Y016626D02*
X014475Y016626D01*
X014477Y016705D02*
X024678Y016705D01*
X024678Y016783D02*
X014452Y016783D01*
X014421Y016862D02*
X024678Y016862D01*
X024678Y016940D02*
X014372Y016940D01*
X014296Y017019D02*
X024678Y017019D01*
X024678Y017097D02*
X014163Y017097D01*
X014117Y017176D02*
X024678Y017176D01*
X024678Y017254D02*
X014117Y017254D01*
X014117Y017333D02*
X024678Y017333D01*
X024678Y017411D02*
X014117Y017411D01*
X014117Y017490D02*
X024678Y017490D01*
X024672Y017568D02*
X014117Y017568D01*
X014117Y017647D02*
X024648Y017647D01*
X024620Y017725D02*
X014117Y017725D01*
X014117Y017804D02*
X024562Y017804D01*
X024479Y017882D02*
X014117Y017882D01*
X014117Y017961D02*
X024322Y017961D01*
X016281Y009654D02*
X016281Y009652D01*
X016371Y009562D01*
X016489Y009514D01*
X016679Y009514D01*
X016793Y009377D01*
X016798Y009364D01*
X016831Y009331D01*
X016860Y009296D01*
X016873Y009289D01*
X016883Y009279D01*
X016925Y009262D01*
X016966Y009240D01*
X016980Y009239D01*
X016993Y009234D01*
X017034Y009234D01*
X017034Y008564D01*
X015998Y008564D01*
X015974Y008588D01*
X015863Y008634D01*
X015744Y008634D01*
X015634Y008588D01*
X015549Y008504D01*
X015504Y008393D01*
X015504Y008274D01*
X015549Y008164D01*
X015634Y008079D01*
X015744Y008034D01*
X015863Y008034D01*
X015974Y008079D01*
X015998Y008104D01*
X017034Y008104D01*
X017034Y005308D01*
X017034Y005307D01*
X016984Y005186D01*
X016984Y005055D01*
X017034Y004933D01*
X017127Y004841D01*
X017248Y004790D01*
X017679Y004790D01*
X017801Y004841D01*
X017893Y004933D01*
X017944Y005055D01*
X017944Y005186D01*
X017893Y005307D01*
X017801Y005400D01*
X017679Y005450D01*
X017634Y005450D01*
X017634Y009095D01*
X017849Y009095D01*
X018096Y009197D01*
X018280Y009382D01*
X018280Y008364D01*
X018218Y008364D01*
X018097Y008313D01*
X018004Y008221D01*
X017954Y008099D01*
X017954Y007668D01*
X017970Y007630D01*
X017916Y007500D01*
X017916Y007232D01*
X018018Y006985D01*
X018207Y006796D01*
X018280Y006766D01*
X018280Y005683D01*
X018359Y005494D01*
X018359Y005494D01*
X018504Y005349D01*
X018693Y005270D01*
X018794Y005270D01*
X018822Y005201D01*
X018877Y005107D01*
X018943Y005021D01*
X019020Y004944D01*
X019106Y004878D01*
X019200Y004823D01*
X019300Y004782D01*
X019405Y004754D01*
X019513Y004739D01*
X019527Y004739D01*
X019527Y005270D01*
X019607Y005270D01*
X019607Y004739D01*
X019622Y004739D01*
X019730Y004754D01*
X019835Y004782D01*
X019935Y004823D01*
X020029Y004878D01*
X020115Y004944D01*
X020192Y005021D01*
X020258Y005107D01*
X020313Y005201D01*
X020341Y005270D01*
X020595Y005270D01*
X020602Y005270D01*
X020615Y005264D01*
X020624Y005255D01*
X020630Y005242D01*
X020630Y005235D01*
X020630Y003284D01*
X020627Y003274D01*
X020630Y003232D01*
X020630Y003208D01*
X020623Y003187D01*
X020608Y003169D01*
X020587Y003158D01*
X020579Y003157D01*
X020245Y003157D01*
X020251Y003164D01*
X020297Y003274D01*
X020297Y003393D01*
X020251Y003504D01*
X020172Y003583D01*
X020227Y003638D01*
X020227Y003839D01*
X020251Y003864D01*
X020297Y003974D01*
X020297Y004093D01*
X020251Y004204D01*
X020167Y004288D01*
X020057Y004334D01*
X019937Y004334D01*
X019827Y004288D01*
X019743Y004204D01*
X019697Y004093D01*
X019697Y003974D01*
X019743Y003864D01*
X019767Y003839D01*
X019767Y003829D01*
X019427Y003489D01*
X015034Y003489D01*
X015007Y003554D01*
X014923Y003638D01*
X014812Y003684D01*
X014693Y003684D01*
X014583Y003638D01*
X014523Y003578D01*
X014523Y003958D01*
X014547Y003983D01*
X014593Y004093D01*
X014593Y004212D01*
X014547Y004323D01*
X014463Y004407D01*
X014352Y004453D01*
X014233Y004453D01*
X014133Y004411D01*
X014133Y004838D01*
X014283Y004988D01*
X014283Y005213D01*
X014339Y005270D01*
X014423Y005304D01*
X014507Y005389D01*
X014553Y005499D01*
X014553Y005618D01*
X014507Y005729D01*
X014423Y005813D01*
X014312Y005859D01*
X014193Y005859D01*
X014083Y005813D01*
X013998Y005729D01*
X013955Y005624D01*
X013955Y006057D01*
X014083Y006057D01*
X014198Y006051D01*
X014415Y006162D01*
X014548Y006366D01*
X014548Y006366D01*
X014552Y006443D01*
X014555Y006449D01*
X014555Y006495D01*
X014557Y006541D01*
X014555Y006547D01*
X014555Y006838D01*
X014654Y006739D01*
X014654Y006468D01*
X014704Y006347D01*
X014797Y006254D01*
X014918Y006204D01*
X015049Y006204D01*
X015171Y006254D01*
X015263Y006347D01*
X015314Y006468D01*
X015314Y006899D01*
X015263Y007021D01*
X015171Y007113D01*
X015098Y007143D01*
X014865Y007377D01*
X014865Y008939D01*
X014869Y008937D01*
X015311Y008937D01*
X015432Y008987D01*
X015525Y009080D01*
X015575Y009201D01*
X015575Y009333D01*
X015525Y009454D01*
X015432Y009547D01*
X015311Y009597D01*
X014869Y009597D01*
X014797Y009567D01*
X008177Y009567D01*
X005353Y012407D01*
X005353Y014072D01*
X005373Y014120D01*
X005373Y014247D01*
X005353Y014296D01*
X005353Y014372D01*
X005373Y014420D01*
X005373Y014547D01*
X005324Y014665D01*
X005234Y014755D01*
X005116Y014804D01*
X004989Y014804D01*
X004871Y014755D01*
X004781Y014665D01*
X004733Y014547D01*
X004733Y014420D01*
X004753Y014372D01*
X004753Y014296D01*
X004733Y014247D01*
X004733Y014120D01*
X004753Y014072D01*
X004753Y013571D01*
X004601Y013739D01*
X004601Y013739D01*
X004601Y013739D01*
X004507Y013797D01*
X004484Y013817D01*
X004462Y013824D01*
X004443Y013836D01*
X004413Y013840D01*
X004176Y013919D01*
X004170Y013924D01*
X004165Y013926D01*
X004165Y014338D01*
X004170Y014340D01*
X004176Y014345D01*
X004387Y014415D01*
X004391Y014415D01*
X004437Y014432D01*
X004484Y014447D01*
X004487Y014450D01*
X004548Y014472D01*
X004548Y014472D01*
X004710Y014634D01*
X004747Y014736D01*
X004765Y014779D01*
X004765Y014785D01*
X004767Y014791D01*
X004765Y014838D01*
X004765Y014967D01*
X005985Y014967D01*
X005985Y013792D01*
X005928Y013768D01*
X005766Y013607D01*
X005679Y013396D01*
X005679Y013168D01*
X005766Y012957D01*
X005928Y012796D01*
X005985Y012772D01*
X005985Y012242D01*
X005985Y012190D01*
X005985Y012190D01*
X005985Y012189D01*
X006005Y012141D01*
X006025Y012092D01*
X006025Y012092D01*
X006025Y012092D01*
X006062Y012055D01*
X008165Y009942D01*
X008165Y009942D01*
X008202Y009905D01*
X008239Y009868D01*
X008240Y009868D01*
X008240Y009867D01*
X008288Y009847D01*
X008337Y009827D01*
X008337Y009827D01*
X008337Y009827D01*
X008390Y009827D01*
X008442Y009827D01*
X008442Y009827D01*
X009503Y009827D01*
X009600Y009867D01*
X009675Y009942D01*
X009715Y010039D01*
X009715Y012295D01*
X009675Y012392D01*
X009600Y012467D01*
X009503Y012507D01*
X009407Y012507D01*
X009308Y012517D01*
X009115Y012579D01*
X008947Y012692D01*
X008817Y012846D01*
X008734Y013031D01*
X008715Y013117D01*
X008715Y014111D01*
X008719Y014110D01*
X008737Y014091D01*
X008751Y014069D01*
X008754Y014057D01*
X008762Y014052D01*
X008766Y014045D01*
X008778Y014042D01*
X008800Y014028D01*
X008819Y014010D01*
X008824Y013999D01*
X008833Y013996D01*
X008839Y013989D01*
X008851Y013989D01*
X008876Y013981D01*
X008898Y013967D01*
X008905Y013957D01*
X008914Y013956D01*
X008922Y013951D01*
X008934Y013954D01*
X008960Y013951D01*
X008984Y013943D01*
X008994Y013935D01*
X009003Y013936D01*
X009012Y013933D01*
X009023Y013938D01*
X009048Y013941D01*
X009074Y013938D01*
X009085Y013933D01*
X009094Y013936D01*
X009103Y013935D01*
X009112Y013943D01*
X009137Y013951D01*
X009163Y013954D01*
X009175Y013951D01*
X009182Y013956D01*
X009192Y013957D01*
X009199Y013967D01*
X009221Y013981D01*
X009246Y013989D01*
X009258Y013989D01*
X009264Y013996D01*
X009273Y013999D01*
X009278Y014010D01*
X009297Y014028D01*
X009319Y014042D01*
X009330Y014045D01*
X009335Y014052D01*
X009343Y014057D01*
X009346Y014069D01*
X009360Y014091D01*
X009378Y014110D01*
X009389Y014115D01*
X009392Y014123D01*
X009398Y014130D01*
X009398Y014142D01*
X009407Y014167D01*
X009421Y014189D01*
X009430Y014196D01*
X009431Y014205D01*
X009436Y014213D01*
X009433Y014225D01*
X009436Y014251D01*
X009439Y014257D01*
X009445Y014264D01*
X009445Y014276D01*
X009455Y014302D01*
X009445Y014322D01*
X009445Y014329D01*
X009453Y014394D01*
X009445Y014403D01*
X009445Y014512D01*
X009453Y014521D01*
X009450Y014542D01*
X009467Y014530D01*
X009543Y014492D01*
X009624Y014465D01*
X009708Y014452D01*
X009710Y014452D01*
X009710Y014952D01*
X009210Y014952D01*
X009210Y014949D01*
X009211Y014940D01*
X009199Y014948D01*
X009192Y014957D01*
X009182Y014958D01*
X009175Y014963D01*
X009163Y014961D01*
X009137Y014963D01*
X009112Y014972D01*
X009103Y014980D01*
X009094Y014979D01*
X009085Y014982D01*
X009074Y014976D01*
X009048Y014973D01*
X009023Y014976D01*
X009012Y014982D01*
X009003Y014979D01*
X008994Y014980D01*
X008984Y014972D01*
X008960Y014963D01*
X008934Y014961D01*
X008922Y014963D01*
X008914Y014958D01*
X008905Y014957D01*
X008898Y014948D01*
X008876Y014934D01*
X008851Y014925D01*
X008839Y014925D01*
X008833Y014919D01*
X008824Y014916D01*
X008819Y014905D01*
X008800Y014887D01*
X008778Y014873D01*
X008766Y014870D01*
X008762Y014862D01*
X008754Y014857D01*
X008751Y014846D01*
X008737Y014824D01*
X008719Y014805D01*
X008715Y014803D01*
X008715Y015607D01*
X008719Y015606D01*
X008737Y015587D01*
X008751Y015565D01*
X008754Y015553D01*
X008762Y015548D01*
X008766Y015541D01*
X008778Y015538D01*
X008800Y015524D01*
X008819Y015506D01*
X008824Y015495D01*
X008833Y015492D01*
X008839Y015485D01*
X008851Y015485D01*
X008876Y015477D01*
X008898Y015463D01*
X008905Y015453D01*
X008914Y015452D01*
X008922Y015448D01*
X008934Y015450D01*
X008960Y015447D01*
X008984Y015439D01*
X008994Y015431D01*
X009003Y015432D01*
X009012Y015429D01*
X009023Y015434D01*
X009048Y015437D01*
X009074Y015434D01*
X009085Y015429D01*
X009094Y015432D01*
X009103Y015431D01*
X009112Y015439D01*
X009137Y015447D01*
X009163Y015450D01*
X009175Y015448D01*
X009182Y015452D01*
X009192Y015453D01*
X009199Y015463D01*
X009221Y015477D01*
X009246Y015485D01*
X009258Y015485D01*
X009264Y015492D01*
X009273Y015495D01*
X009278Y015506D01*
X009297Y015524D01*
X009319Y015538D01*
X009330Y015541D01*
X009335Y015548D01*
X009343Y015553D01*
X009346Y015565D01*
X009360Y015587D01*
X009378Y015606D01*
X009389Y015611D01*
X009392Y015619D01*
X009398Y015626D01*
X009398Y015638D01*
X009407Y015663D01*
X009421Y015685D01*
X009430Y015692D01*
X009431Y015701D01*
X009436Y015709D01*
X009433Y015721D01*
X009436Y015747D01*
X009439Y015753D01*
X009445Y015760D01*
X009445Y015772D01*
X009455Y015799D01*
X009445Y015818D01*
X009445Y015825D01*
X009453Y015890D01*
X009445Y015899D01*
X009445Y015977D01*
X012052Y015977D01*
X012052Y015899D01*
X012045Y015890D01*
X012052Y015825D01*
X012052Y015818D01*
X012043Y015799D01*
X012052Y015772D01*
X012052Y015760D01*
X012059Y015753D01*
X012061Y015747D01*
X012064Y015721D01*
X012061Y015709D01*
X012066Y015701D01*
X012067Y015692D01*
X012077Y015685D01*
X012091Y015663D01*
X012099Y015638D01*
X012099Y015626D01*
X012106Y015619D01*
X012109Y015611D01*
X012120Y015606D01*
X012138Y015587D01*
X012152Y015565D01*
X012155Y015553D01*
X012162Y015548D01*
X012167Y015541D01*
X012179Y015538D01*
X012201Y015524D01*
X012220Y015506D01*
X012225Y015495D01*
X012233Y015492D01*
X012240Y015485D01*
X012252Y015485D01*
X012277Y015477D01*
X012299Y015463D01*
X012306Y015453D01*
X012315Y015452D01*
X012323Y015448D01*
X012335Y015450D01*
X012361Y015447D01*
X012385Y015439D01*
X012395Y015431D01*
X012404Y015432D01*
X012412Y015429D01*
X012423Y015434D01*
X012449Y015437D01*
X012475Y015434D01*
X012486Y015429D01*
X012495Y015432D01*
X012504Y015431D01*
X012513Y015439D01*
X012538Y015447D01*
X012564Y015450D01*
X012575Y015448D01*
X012583Y015452D01*
X012592Y015453D01*
X012600Y015463D01*
X012622Y015477D01*
X012646Y015485D01*
X012659Y015485D01*
X012665Y015492D01*
X012674Y015495D01*
X012679Y015506D01*
X012697Y015524D01*
X012719Y015538D01*
X012731Y015541D01*
X012736Y015548D01*
X012744Y015553D01*
X012746Y015565D01*
X012760Y015587D01*
X012779Y015606D01*
X012785Y015606D01*
X012785Y015609D02*
X012785Y014829D01*
X012825Y014732D01*
X012855Y014702D01*
X012855Y014613D01*
X012846Y014639D01*
X012846Y014651D01*
X012840Y014657D01*
X012837Y014664D01*
X012834Y014690D01*
X012837Y014702D01*
X012832Y014709D01*
X012831Y014719D01*
X012822Y014726D01*
X012808Y014748D01*
X012799Y014773D01*
X012799Y014785D01*
X012793Y014791D01*
X012790Y014800D01*
X012779Y014805D01*
X012760Y014824D01*
X012746Y014846D01*
X012744Y014857D01*
X012736Y014862D01*
X012731Y014870D01*
X012719Y014873D01*
X012697Y014887D01*
X012679Y014905D01*
X012674Y014916D01*
X012665Y014919D01*
X012659Y014925D01*
X012646Y014925D01*
X012622Y014934D01*
X012600Y014948D01*
X012592Y014957D01*
X012583Y014958D01*
X012575Y014963D01*
X012564Y014961D01*
X012538Y014963D01*
X012513Y014972D01*
X012504Y014980D01*
X012495Y014979D01*
X012486Y014982D01*
X012475Y014976D01*
X012449Y014973D01*
X012423Y014976D01*
X012412Y014982D01*
X012404Y014979D01*
X012395Y014980D01*
X012385Y014972D01*
X012361Y014963D01*
X012335Y014961D01*
X012323Y014963D01*
X012315Y014958D01*
X012306Y014957D01*
X012299Y014948D01*
X012289Y014942D01*
X012290Y014949D01*
X012290Y014952D01*
X011790Y014952D01*
X011790Y015032D01*
X011710Y015032D01*
X011710Y015532D01*
X011708Y015532D01*
X011624Y015519D01*
X011543Y015492D01*
X011467Y015454D01*
X011398Y015404D01*
X011338Y015344D01*
X011288Y015275D01*
X011250Y015199D01*
X011223Y015118D01*
X011210Y015034D01*
X011210Y015032D01*
X011710Y015032D01*
X011710Y014952D01*
X011210Y014952D01*
X011210Y014949D01*
X011223Y014866D01*
X011250Y014785D01*
X011288Y014709D01*
X011338Y014640D01*
X011398Y014580D01*
X011467Y014530D01*
X011543Y014492D01*
X011624Y014465D01*
X011708Y014452D01*
X011710Y014452D01*
X011710Y014952D01*
X011790Y014952D01*
X011790Y014452D01*
X011792Y014452D01*
X011876Y014465D01*
X011957Y014492D01*
X012033Y014530D01*
X012047Y014540D01*
X012045Y014521D01*
X012052Y014512D01*
X012052Y014403D01*
X012045Y014394D01*
X012052Y014329D01*
X012052Y014322D01*
X012043Y014302D01*
X012052Y014276D01*
X012052Y014264D01*
X012059Y014257D01*
X012061Y014251D01*
X012064Y014225D01*
X012061Y014213D01*
X012066Y014205D01*
X012067Y014196D01*
X012077Y014189D01*
X012091Y014167D01*
X012099Y014142D01*
X012099Y014130D01*
X012106Y014123D01*
X012109Y014115D01*
X012120Y014110D01*
X012138Y014091D01*
X012152Y014069D01*
X012155Y014057D01*
X012162Y014052D01*
X012167Y014045D01*
X012179Y014042D01*
X012201Y014028D01*
X012220Y014010D01*
X012225Y013999D01*
X012233Y013996D01*
X012240Y013989D01*
X012252Y013989D01*
X012277Y013981D01*
X012299Y013967D01*
X012306Y013957D01*
X012315Y013956D01*
X012323Y013951D01*
X012335Y013954D01*
X012361Y013951D01*
X012385Y013943D01*
X012395Y013935D01*
X012404Y013936D01*
X012412Y013933D01*
X012423Y013938D01*
X012449Y013941D01*
X012475Y013938D01*
X012486Y013933D01*
X012495Y013936D01*
X012504Y013935D01*
X012513Y013943D01*
X012538Y013951D01*
X012564Y013954D01*
X012575Y013951D01*
X012583Y013956D01*
X012592Y013957D01*
X012600Y013967D01*
X012622Y013981D01*
X012646Y013989D01*
X012659Y013989D01*
X012665Y013996D01*
X012674Y013999D01*
X012679Y014010D01*
X012697Y014028D01*
X012719Y014042D01*
X012731Y014045D01*
X012736Y014052D01*
X012744Y014057D01*
X012746Y014069D01*
X012760Y014091D01*
X012779Y014110D01*
X012790Y014115D01*
X012793Y014123D01*
X012799Y014130D01*
X012799Y014142D01*
X012808Y014167D01*
X012822Y014189D01*
X012831Y014196D01*
X012832Y014205D01*
X012837Y014213D01*
X012834Y014225D01*
X012837Y014251D01*
X012840Y014257D01*
X012846Y014264D01*
X012846Y014276D01*
X012855Y014302D01*
X012855Y014212D01*
X012825Y014182D01*
X012785Y014085D01*
X012785Y013113D01*
X012769Y013027D01*
X012694Y012848D01*
X012573Y012696D01*
X012414Y012583D01*
X012231Y012519D01*
X012138Y012507D01*
X011337Y012507D01*
X011326Y012533D01*
X011363Y012622D01*
X011363Y012745D01*
X011315Y012859D01*
X011228Y012947D01*
X011114Y012994D01*
X011050Y012994D01*
X011050Y014796D01*
X011080Y014868D01*
X011080Y014999D01*
X011050Y015072D01*
X011050Y015096D01*
X011080Y015168D01*
X011080Y015299D01*
X011030Y015421D01*
X010937Y015513D01*
X010816Y015564D01*
X010684Y015564D01*
X010563Y015513D01*
X010470Y015421D01*
X010420Y015299D01*
X010420Y015168D01*
X010450Y015096D01*
X010450Y015072D01*
X010420Y014999D01*
X010420Y014868D01*
X010450Y014796D01*
X010450Y012994D01*
X010391Y012994D01*
X010277Y012947D01*
X010190Y012859D01*
X010150Y012764D01*
X010051Y012764D01*
X009874Y012662D01*
X009773Y012486D01*
X009773Y010038D01*
X009846Y009862D01*
X009846Y009862D01*
X009981Y009727D01*
X010157Y009654D01*
X016281Y009654D01*
X016294Y009640D02*
X008105Y009640D01*
X008027Y009718D02*
X010001Y009718D01*
X009981Y009727D02*
X009981Y009727D01*
X009911Y009797D02*
X007949Y009797D01*
X007871Y009875D02*
X008232Y009875D01*
X008154Y009954D02*
X007793Y009954D01*
X007715Y010032D02*
X008076Y010032D01*
X007997Y010111D02*
X007637Y010111D01*
X007559Y010189D02*
X007919Y010189D01*
X007841Y010268D02*
X007480Y010268D01*
X007402Y010346D02*
X007763Y010346D01*
X007685Y010425D02*
X007324Y010425D01*
X007246Y010503D02*
X007607Y010503D01*
X007529Y010582D02*
X007168Y010582D01*
X007090Y010660D02*
X007450Y010660D01*
X007372Y010739D02*
X007012Y010739D01*
X006934Y010817D02*
X007294Y010817D01*
X007216Y010896D02*
X006856Y010896D01*
X006778Y010974D02*
X007138Y010974D01*
X007060Y011053D02*
X006700Y011053D01*
X006622Y011131D02*
X006982Y011131D01*
X006904Y011210D02*
X006544Y011210D01*
X006466Y011288D02*
X006825Y011288D01*
X006747Y011367D02*
X006388Y011367D01*
X006310Y011445D02*
X006669Y011445D01*
X006591Y011524D02*
X006231Y011524D01*
X006153Y011602D02*
X006513Y011602D01*
X006435Y011681D02*
X006075Y011681D01*
X005997Y011759D02*
X006357Y011759D01*
X006278Y011838D02*
X005919Y011838D01*
X005841Y011916D02*
X006200Y011916D01*
X006122Y011995D02*
X005763Y011995D01*
X005685Y012073D02*
X006044Y012073D01*
X006001Y012152D02*
X005607Y012152D01*
X005529Y012230D02*
X005985Y012230D01*
X005985Y012309D02*
X005451Y012309D01*
X005373Y012387D02*
X005985Y012387D01*
X005985Y012466D02*
X005353Y012466D01*
X005353Y012544D02*
X005985Y012544D01*
X005985Y012623D02*
X005353Y012623D01*
X005353Y012701D02*
X005985Y012701D01*
X005966Y012780D02*
X005353Y012780D01*
X005353Y012858D02*
X005865Y012858D01*
X005786Y012937D02*
X005353Y012937D01*
X005353Y013015D02*
X005742Y013015D01*
X005710Y013094D02*
X005353Y013094D01*
X005353Y013172D02*
X005679Y013172D01*
X005679Y013251D02*
X005353Y013251D01*
X005353Y013329D02*
X005679Y013329D01*
X005684Y013408D02*
X005353Y013408D01*
X005353Y013486D02*
X005716Y013486D01*
X005749Y013565D02*
X005353Y013565D01*
X005353Y013643D02*
X005803Y013643D01*
X005881Y013722D02*
X005353Y013722D01*
X005353Y013800D02*
X005985Y013800D01*
X005985Y013879D02*
X005353Y013879D01*
X005353Y013957D02*
X005985Y013957D01*
X005985Y014036D02*
X005353Y014036D01*
X005370Y014114D02*
X005985Y014114D01*
X005985Y014193D02*
X005373Y014193D01*
X005363Y014271D02*
X005985Y014271D01*
X005985Y014350D02*
X005353Y014350D01*
X005373Y014428D02*
X005985Y014428D01*
X005985Y014507D02*
X005373Y014507D01*
X005357Y014585D02*
X005985Y014585D01*
X005985Y014664D02*
X005324Y014664D01*
X005247Y014742D02*
X005985Y014742D01*
X005985Y014821D02*
X004766Y014821D01*
X004765Y014899D02*
X005985Y014899D01*
X004859Y014742D02*
X004750Y014742D01*
X004721Y014664D02*
X004781Y014664D01*
X004710Y014634D02*
X004710Y014634D01*
X004748Y014585D02*
X004661Y014585D01*
X004733Y014507D02*
X004583Y014507D01*
X004733Y014428D02*
X004428Y014428D01*
X004191Y014350D02*
X004753Y014350D01*
X004742Y014271D02*
X004165Y014271D01*
X004165Y014193D02*
X004733Y014193D01*
X004735Y014114D02*
X004165Y014114D01*
X004165Y014036D02*
X004753Y014036D01*
X004753Y013957D02*
X004165Y013957D01*
X004298Y013879D02*
X004753Y013879D01*
X004753Y013800D02*
X004503Y013800D01*
X004617Y013722D02*
X004753Y013722D01*
X004753Y013643D02*
X004688Y013643D01*
X002635Y013643D02*
X000799Y013643D01*
X000799Y013565D02*
X002635Y013565D01*
X002635Y013486D02*
X000799Y013486D01*
X000799Y013408D02*
X002635Y013408D01*
X002635Y013329D02*
X000799Y013329D01*
X000799Y013251D02*
X002635Y013251D01*
X002635Y013172D02*
X000799Y013172D01*
X000799Y013094D02*
X002635Y013094D01*
X002635Y013015D02*
X000799Y013015D01*
X000799Y012937D02*
X002635Y012937D01*
X002635Y012858D02*
X000799Y012858D01*
X000799Y012780D02*
X002635Y012780D01*
X002635Y012701D02*
X000799Y012701D01*
X000799Y012623D02*
X002635Y012623D01*
X002635Y012544D02*
X000799Y012544D01*
X000799Y012466D02*
X002635Y012466D01*
X002635Y012387D02*
X000799Y012387D01*
X000799Y012309D02*
X002635Y012309D01*
X002635Y012230D02*
X000799Y012230D01*
X000799Y012152D02*
X002635Y012152D01*
X002635Y012073D02*
X000799Y012073D01*
X000799Y011995D02*
X002635Y011995D01*
X002635Y011916D02*
X000799Y011916D01*
X000799Y011838D02*
X002635Y011838D01*
X002635Y011759D02*
X000799Y011759D01*
X000799Y011681D02*
X002635Y011681D01*
X002635Y011602D02*
X000799Y011602D01*
X000799Y011524D02*
X002635Y011524D01*
X002635Y011445D02*
X000799Y011445D01*
X000799Y011367D02*
X002635Y011367D01*
X002635Y011288D02*
X000799Y011288D01*
X000799Y011210D02*
X002635Y011210D01*
X002635Y011131D02*
X000799Y011131D01*
X000799Y011053D02*
X002635Y011053D01*
X002635Y010974D02*
X000799Y010974D01*
X000799Y010896D02*
X002635Y010896D01*
X002635Y010817D02*
X000799Y010817D01*
X000799Y010739D02*
X002635Y010739D01*
X002635Y010660D02*
X000799Y010660D01*
X000799Y010582D02*
X002635Y010582D01*
X002635Y010503D02*
X000799Y010503D01*
X000799Y010425D02*
X002635Y010425D01*
X002635Y010346D02*
X000799Y010346D01*
X000799Y010268D02*
X002635Y010268D01*
X002635Y010189D02*
X000799Y010189D01*
X000799Y010111D02*
X002635Y010111D01*
X002635Y010032D02*
X000799Y010032D01*
X000799Y009954D02*
X002646Y009954D01*
X002678Y009875D02*
X000799Y009875D01*
X000799Y009797D02*
X002711Y009797D01*
X002785Y009718D02*
X000799Y009718D01*
X000799Y009640D02*
X002872Y009640D01*
X000799Y009561D02*
X005346Y009561D01*
X005424Y009483D02*
X000799Y009483D01*
X000799Y009404D02*
X005503Y009404D01*
X005581Y009326D02*
X000799Y009326D01*
X000799Y009247D02*
X005660Y009247D01*
X005738Y009169D02*
X000799Y009169D01*
X000799Y009090D02*
X005817Y009090D01*
X005895Y009012D02*
X000799Y009012D01*
X000799Y008933D02*
X005974Y008933D01*
X006052Y008855D02*
X000799Y008855D01*
X000799Y008776D02*
X006131Y008776D01*
X006209Y008698D02*
X000799Y008698D01*
X000799Y008619D02*
X006288Y008619D01*
X006366Y008541D02*
X000799Y008541D01*
X000799Y008462D02*
X006445Y008462D01*
X006523Y008384D02*
X000799Y008384D01*
X000799Y008305D02*
X006602Y008305D01*
X006680Y008227D02*
X000799Y008227D01*
X000799Y008148D02*
X006759Y008148D01*
X006837Y008070D02*
X000799Y008070D01*
X000799Y007991D02*
X006916Y007991D01*
X006994Y007913D02*
X000799Y007913D01*
X000799Y007834D02*
X007073Y007834D01*
X007151Y007756D02*
X000799Y007756D01*
X000799Y007677D02*
X007230Y007677D01*
X007308Y007599D02*
X000799Y007599D01*
X000799Y007520D02*
X007387Y007520D01*
X007465Y007442D02*
X000799Y007442D01*
X000799Y007363D02*
X007544Y007363D01*
X007622Y007285D02*
X000799Y007285D01*
X000799Y007206D02*
X007635Y007206D01*
X007635Y007128D02*
X000799Y007128D01*
X000799Y007049D02*
X007635Y007049D01*
X007635Y006971D02*
X000799Y006971D01*
X000799Y006892D02*
X007635Y006892D01*
X007635Y006814D02*
X000799Y006814D01*
X000799Y006735D02*
X007635Y006735D01*
X007635Y006657D02*
X000799Y006657D01*
X000799Y006578D02*
X007635Y006578D01*
X007635Y006500D02*
X000799Y006500D01*
X000799Y006421D02*
X007635Y006421D01*
X007635Y006343D02*
X000799Y006343D01*
X000799Y006264D02*
X007635Y006264D01*
X007635Y006186D02*
X000799Y006186D01*
X000799Y006107D02*
X007635Y006107D01*
X007635Y006029D02*
X000799Y006029D01*
X000799Y005950D02*
X007635Y005950D01*
X007635Y005872D02*
X000799Y005872D01*
X000799Y005793D02*
X007635Y005793D01*
X007635Y005715D02*
X000799Y005715D01*
X000799Y005636D02*
X007635Y005636D01*
X007635Y005558D02*
X000799Y005558D01*
X000799Y005479D02*
X007635Y005479D01*
X007635Y005401D02*
X000799Y005401D01*
X000799Y005322D02*
X007635Y005322D01*
X007635Y005244D02*
X000799Y005244D01*
X000799Y005165D02*
X007635Y005165D01*
X007635Y005087D02*
X000799Y005087D01*
X000799Y005008D02*
X007635Y005008D01*
X007635Y004930D02*
X000799Y004930D01*
X000799Y004851D02*
X007635Y004851D01*
X007635Y004773D02*
X000799Y004773D01*
X000799Y004694D02*
X007635Y004694D01*
X007635Y004616D02*
X000799Y004616D01*
X000799Y004537D02*
X007635Y004537D01*
X007635Y004459D02*
X000799Y004459D01*
X000799Y004380D02*
X007635Y004380D01*
X007635Y004302D02*
X000799Y004302D01*
X000799Y004223D02*
X007635Y004223D01*
X007635Y004145D02*
X000799Y004145D01*
X000799Y004066D02*
X007635Y004066D01*
X007635Y003988D02*
X000799Y003988D01*
X000799Y003909D02*
X007635Y003909D01*
X007635Y003831D02*
X000799Y003831D01*
X000799Y003752D02*
X007635Y003752D01*
X007635Y003674D02*
X000799Y003674D01*
X000799Y003595D02*
X007635Y003595D01*
X007635Y003517D02*
X000799Y003517D01*
X000799Y003438D02*
X007635Y003438D01*
X007635Y003360D02*
X000799Y003360D01*
X000799Y003281D02*
X007635Y003281D01*
X007635Y003203D02*
X000799Y003203D01*
X000799Y003124D02*
X007635Y003124D01*
X007635Y003046D02*
X000799Y003046D01*
X000799Y002967D02*
X007635Y002967D01*
X007635Y002889D02*
X000799Y002889D01*
X000799Y002810D02*
X007635Y002810D01*
X007635Y002732D02*
X000799Y002732D01*
X000799Y002653D02*
X007635Y002653D01*
X007635Y002575D02*
X000799Y002575D01*
X000799Y002496D02*
X007635Y002496D01*
X007635Y002418D02*
X000799Y002418D01*
X000799Y002339D02*
X007635Y002339D01*
X007635Y002261D02*
X000799Y002261D01*
X000799Y002182D02*
X007635Y002182D01*
X007635Y002104D02*
X000799Y002104D01*
X000799Y002025D02*
X007635Y002025D01*
X007635Y001947D02*
X000799Y001947D01*
X000799Y001868D02*
X007640Y001868D01*
X007673Y001790D02*
X000799Y001790D01*
X000799Y001711D02*
X007706Y001711D01*
X007772Y001633D02*
X000799Y001633D01*
X000799Y001554D02*
X007851Y001554D01*
X008029Y001476D02*
X000799Y001476D01*
X001075Y000848D02*
X024398Y000848D01*
X020629Y003203D02*
X020268Y003203D01*
X020297Y003281D02*
X020629Y003281D01*
X020630Y003360D02*
X020297Y003360D01*
X020279Y003438D02*
X020630Y003438D01*
X020630Y003517D02*
X020238Y003517D01*
X020184Y003595D02*
X020630Y003595D01*
X020630Y003674D02*
X020227Y003674D01*
X020227Y003752D02*
X020630Y003752D01*
X020630Y003831D02*
X020227Y003831D01*
X020270Y003909D02*
X020630Y003909D01*
X020630Y003988D02*
X020297Y003988D01*
X020297Y004066D02*
X020630Y004066D01*
X020630Y004145D02*
X020276Y004145D01*
X020232Y004223D02*
X020630Y004223D01*
X020630Y004302D02*
X020134Y004302D01*
X020630Y004380D02*
X014489Y004380D01*
X014556Y004302D02*
X019860Y004302D01*
X019762Y004223D02*
X014588Y004223D01*
X014593Y004145D02*
X019718Y004145D01*
X019697Y004066D02*
X014582Y004066D01*
X014549Y003988D02*
X019697Y003988D01*
X019724Y003909D02*
X014523Y003909D01*
X014523Y003831D02*
X019767Y003831D01*
X019690Y003752D02*
X014523Y003752D01*
X014523Y003674D02*
X014669Y003674D01*
X014540Y003595D02*
X014523Y003595D01*
X014836Y003674D02*
X019612Y003674D01*
X019533Y003595D02*
X014965Y003595D01*
X015022Y003517D02*
X019455Y003517D01*
X020630Y004459D02*
X014133Y004459D01*
X014133Y004537D02*
X020630Y004537D01*
X020630Y004616D02*
X014133Y004616D01*
X014133Y004694D02*
X020630Y004694D01*
X020630Y004773D02*
X019801Y004773D01*
X019607Y004773D02*
X019527Y004773D01*
X019527Y004851D02*
X019607Y004851D01*
X019607Y004930D02*
X019527Y004930D01*
X019527Y005008D02*
X019607Y005008D01*
X019607Y005087D02*
X019527Y005087D01*
X019527Y005165D02*
X019607Y005165D01*
X019607Y005244D02*
X019527Y005244D01*
X019334Y004773D02*
X014133Y004773D01*
X014145Y004851D02*
X017116Y004851D01*
X017038Y004930D02*
X014224Y004930D01*
X014283Y005008D02*
X017003Y005008D01*
X016984Y005087D02*
X014283Y005087D01*
X014283Y005165D02*
X016984Y005165D01*
X017008Y005244D02*
X014313Y005244D01*
X014440Y005322D02*
X017034Y005322D01*
X017034Y005401D02*
X014512Y005401D01*
X014544Y005479D02*
X017034Y005479D01*
X017034Y005558D02*
X014553Y005558D01*
X014545Y005636D02*
X017034Y005636D01*
X017034Y005715D02*
X014513Y005715D01*
X014442Y005793D02*
X017034Y005793D01*
X017034Y005872D02*
X013955Y005872D01*
X013955Y005950D02*
X017034Y005950D01*
X017034Y006029D02*
X013955Y006029D01*
X014198Y006051D02*
X014198Y006051D01*
X014308Y006107D02*
X017034Y006107D01*
X017034Y006186D02*
X014431Y006186D01*
X014415Y006162D02*
X014415Y006162D01*
X014415Y006162D01*
X014482Y006264D02*
X014786Y006264D01*
X014708Y006343D02*
X014533Y006343D01*
X014551Y006421D02*
X014673Y006421D01*
X014654Y006500D02*
X014555Y006500D01*
X014555Y006578D02*
X014654Y006578D01*
X014654Y006657D02*
X014555Y006657D01*
X014555Y006735D02*
X014654Y006735D01*
X014579Y006814D02*
X014555Y006814D01*
X014957Y007285D02*
X017034Y007285D01*
X017034Y007363D02*
X014878Y007363D01*
X014865Y007442D02*
X017034Y007442D01*
X017034Y007520D02*
X014865Y007520D01*
X014865Y007599D02*
X017034Y007599D01*
X017034Y007677D02*
X014865Y007677D01*
X014865Y007756D02*
X017034Y007756D01*
X017034Y007834D02*
X014865Y007834D01*
X014865Y007913D02*
X017034Y007913D01*
X017034Y007991D02*
X014865Y007991D01*
X014865Y008070D02*
X015657Y008070D01*
X015565Y008148D02*
X014865Y008148D01*
X014865Y008227D02*
X015523Y008227D01*
X015504Y008305D02*
X014865Y008305D01*
X014865Y008384D02*
X015504Y008384D01*
X015532Y008462D02*
X014865Y008462D01*
X014865Y008541D02*
X015586Y008541D01*
X015709Y008619D02*
X014865Y008619D01*
X014865Y008698D02*
X017034Y008698D01*
X017034Y008776D02*
X014865Y008776D01*
X014865Y008855D02*
X017034Y008855D01*
X017034Y008933D02*
X014865Y008933D01*
X015456Y009012D02*
X017034Y009012D01*
X017034Y009090D02*
X015529Y009090D01*
X015561Y009169D02*
X017034Y009169D01*
X016953Y009247D02*
X015575Y009247D01*
X015575Y009326D02*
X016835Y009326D01*
X016770Y009404D02*
X015545Y009404D01*
X015496Y009483D02*
X016705Y009483D01*
X016374Y009561D02*
X015397Y009561D01*
X015898Y008619D02*
X017034Y008619D01*
X017034Y008070D02*
X015950Y008070D01*
X015035Y007206D02*
X017034Y007206D01*
X017034Y007128D02*
X015136Y007128D01*
X015235Y007049D02*
X017034Y007049D01*
X017034Y006971D02*
X015284Y006971D01*
X015314Y006892D02*
X017034Y006892D01*
X017034Y006814D02*
X015314Y006814D01*
X015314Y006735D02*
X017034Y006735D01*
X017034Y006657D02*
X015314Y006657D01*
X015314Y006578D02*
X017034Y006578D01*
X017034Y006500D02*
X015314Y006500D01*
X015294Y006421D02*
X017034Y006421D01*
X017034Y006343D02*
X015259Y006343D01*
X015181Y006264D02*
X017034Y006264D01*
X017634Y006264D02*
X018280Y006264D01*
X018280Y006186D02*
X017634Y006186D01*
X017634Y006107D02*
X018280Y006107D01*
X018280Y006029D02*
X017634Y006029D01*
X017634Y005950D02*
X018280Y005950D01*
X018280Y005872D02*
X017634Y005872D01*
X017634Y005793D02*
X018280Y005793D01*
X018280Y005715D02*
X017634Y005715D01*
X017634Y005636D02*
X018300Y005636D01*
X018332Y005558D02*
X017634Y005558D01*
X017634Y005479D02*
X018373Y005479D01*
X018452Y005401D02*
X017799Y005401D01*
X017879Y005322D02*
X018568Y005322D01*
X018504Y005349D02*
X018504Y005349D01*
X018805Y005244D02*
X017920Y005244D01*
X017944Y005165D02*
X018843Y005165D01*
X018892Y005087D02*
X017944Y005087D01*
X017924Y005008D02*
X018955Y005008D01*
X019038Y004930D02*
X017890Y004930D01*
X017811Y004851D02*
X019152Y004851D01*
X019983Y004851D02*
X020630Y004851D01*
X020630Y004930D02*
X020097Y004930D01*
X020180Y005008D02*
X020630Y005008D01*
X020630Y005087D02*
X020243Y005087D01*
X020292Y005165D02*
X020630Y005165D01*
X020629Y005244D02*
X020330Y005244D01*
X020615Y005264D02*
X020615Y005264D01*
X018280Y006343D02*
X017634Y006343D01*
X017634Y006421D02*
X018280Y006421D01*
X018280Y006500D02*
X017634Y006500D01*
X017634Y006578D02*
X018280Y006578D01*
X018280Y006657D02*
X017634Y006657D01*
X017634Y006735D02*
X018280Y006735D01*
X018189Y006814D02*
X017634Y006814D01*
X017634Y006892D02*
X018111Y006892D01*
X018032Y006971D02*
X017634Y006971D01*
X017634Y007049D02*
X017991Y007049D01*
X017959Y007128D02*
X017634Y007128D01*
X017634Y007206D02*
X017926Y007206D01*
X017916Y007285D02*
X017634Y007285D01*
X017634Y007363D02*
X017916Y007363D01*
X017916Y007442D02*
X017634Y007442D01*
X017634Y007520D02*
X017924Y007520D01*
X017957Y007599D02*
X017634Y007599D01*
X017634Y007677D02*
X017954Y007677D01*
X017954Y007756D02*
X017634Y007756D01*
X017634Y007834D02*
X017954Y007834D01*
X017954Y007913D02*
X017634Y007913D01*
X017634Y007991D02*
X017954Y007991D01*
X017954Y008070D02*
X017634Y008070D01*
X017634Y008148D02*
X017974Y008148D01*
X018010Y008227D02*
X017634Y008227D01*
X017634Y008305D02*
X018089Y008305D01*
X018280Y008384D02*
X017634Y008384D01*
X017634Y008462D02*
X018280Y008462D01*
X018280Y008541D02*
X017634Y008541D01*
X017634Y008619D02*
X018280Y008619D01*
X018280Y008698D02*
X017634Y008698D01*
X017634Y008776D02*
X018280Y008776D01*
X018280Y008855D02*
X017634Y008855D01*
X017634Y008933D02*
X018280Y008933D01*
X018280Y009012D02*
X017634Y009012D01*
X017634Y009090D02*
X018280Y009090D01*
X018280Y009169D02*
X018027Y009169D01*
X018146Y009247D02*
X018280Y009247D01*
X018280Y009326D02*
X018224Y009326D01*
X014063Y005793D02*
X013955Y005793D01*
X013955Y005715D02*
X013993Y005715D01*
X013960Y005636D02*
X013955Y005636D01*
X013903Y005559D02*
X013853Y005534D01*
X013853Y005234D01*
X013851Y005211D01*
X013846Y005188D01*
X013837Y005166D01*
X013824Y005146D01*
X013809Y005128D01*
X013791Y005113D01*
X013771Y005100D01*
X013749Y005091D01*
X013726Y005086D01*
X013703Y005084D01*
X012353Y005084D01*
X011653Y005784D01*
X011653Y006806D01*
X011689Y006555D02*
X011689Y006315D01*
X011765Y006327D01*
X011839Y006351D01*
X011885Y006375D01*
X011885Y005881D01*
X011876Y005777D01*
X011974Y005569D01*
X012163Y005438D01*
X012237Y005431D01*
X012247Y005427D01*
X012289Y005427D01*
X012330Y005423D01*
X012341Y005427D01*
X012371Y005427D01*
X012365Y005370D01*
X012375Y005348D01*
X012375Y004295D01*
X012378Y004292D01*
X012375Y004284D01*
X012375Y004242D01*
X012371Y004201D01*
X012375Y004190D01*
X012375Y003510D01*
X012375Y003507D01*
X012372Y003502D01*
X012368Y003499D01*
X012362Y003497D01*
X012357Y003499D01*
X012353Y003502D01*
X012350Y003507D01*
X012350Y003510D01*
X012350Y003762D01*
X012310Y003860D01*
X012035Y004134D01*
X011938Y004175D01*
X011710Y004175D01*
X011703Y004177D01*
X011658Y004175D01*
X011612Y004175D01*
X011605Y004172D01*
X011598Y004171D01*
X011557Y004152D01*
X011538Y004144D01*
X011431Y004103D01*
X011179Y004074D01*
X010931Y004128D01*
X010713Y004259D01*
X010550Y004453D01*
X010459Y004690D01*
X010449Y004944D01*
X010522Y005187D01*
X010669Y005394D01*
X010757Y005468D01*
X010890Y005536D01*
X010890Y005536D01*
X011154Y005772D01*
X011154Y005772D01*
X011154Y005772D01*
X011347Y006069D01*
X011347Y006069D01*
X011399Y006228D01*
X011415Y006267D01*
X011415Y006278D01*
X011418Y006288D01*
X011415Y006330D01*
X011415Y006374D01*
X011459Y006351D01*
X011533Y006327D01*
X011609Y006315D01*
X011609Y006555D01*
X011689Y006555D01*
X011689Y006500D02*
X011609Y006500D01*
X011609Y006421D02*
X011689Y006421D01*
X011689Y006343D02*
X011609Y006343D01*
X011485Y006343D02*
X011415Y006343D01*
X011414Y006264D02*
X011885Y006264D01*
X011885Y006186D02*
X011385Y006186D01*
X011359Y006107D02*
X011885Y006107D01*
X011885Y006029D02*
X011321Y006029D01*
X011269Y005950D02*
X011885Y005950D01*
X011884Y005872D02*
X011218Y005872D01*
X011167Y005793D02*
X011878Y005793D01*
X011876Y005777D02*
X011876Y005777D01*
X011906Y005715D02*
X011089Y005715D01*
X011002Y005636D02*
X011943Y005636D01*
X011974Y005569D02*
X011974Y005569D01*
X011974Y005569D01*
X011990Y005558D02*
X010915Y005558D01*
X010779Y005479D02*
X012103Y005479D01*
X012163Y005438D02*
X012163Y005438D01*
X012368Y005401D02*
X010677Y005401D01*
X010618Y005322D02*
X012375Y005322D01*
X012365Y005370D02*
X012365Y005370D01*
X012375Y005244D02*
X011795Y005244D01*
X011776Y005252D02*
X011604Y005252D01*
X011446Y005186D01*
X011325Y005065D01*
X011260Y004907D01*
X011260Y004736D01*
X011325Y004578D01*
X011446Y004457D01*
X011461Y004451D01*
X011486Y004392D01*
X011570Y004308D01*
X011680Y004262D01*
X011800Y004262D01*
X011910Y004308D01*
X011994Y004392D01*
X012040Y004502D01*
X012040Y004564D01*
X012055Y004578D01*
X012120Y004736D01*
X012120Y004907D01*
X012055Y005065D01*
X011934Y005186D01*
X011776Y005252D01*
X011585Y005244D02*
X010562Y005244D01*
X010515Y005165D02*
X011425Y005165D01*
X011347Y005087D02*
X010492Y005087D01*
X010468Y005008D02*
X011302Y005008D01*
X011269Y004930D02*
X010449Y004930D01*
X010452Y004851D02*
X011260Y004851D01*
X011260Y004773D02*
X010456Y004773D01*
X010459Y004694D02*
X011277Y004694D01*
X011310Y004616D02*
X010488Y004616D01*
X010518Y004537D02*
X011367Y004537D01*
X011445Y004459D02*
X010548Y004459D01*
X010612Y004380D02*
X011497Y004380D01*
X011584Y004302D02*
X010678Y004302D01*
X010773Y004223D02*
X012373Y004223D01*
X012375Y004145D02*
X012010Y004145D01*
X012103Y004066D02*
X012375Y004066D01*
X012375Y003988D02*
X012182Y003988D01*
X012260Y003909D02*
X012375Y003909D01*
X012375Y003831D02*
X012322Y003831D01*
X012350Y003752D02*
X012375Y003752D01*
X012375Y003674D02*
X012350Y003674D01*
X012350Y003595D02*
X012375Y003595D01*
X012375Y003517D02*
X012350Y003517D01*
X012375Y004302D02*
X011896Y004302D01*
X011983Y004380D02*
X012375Y004380D01*
X012375Y004459D02*
X012022Y004459D01*
X012040Y004537D02*
X012375Y004537D01*
X012375Y004616D02*
X012070Y004616D01*
X012103Y004694D02*
X012375Y004694D01*
X012375Y004773D02*
X012120Y004773D01*
X012120Y004851D02*
X012375Y004851D01*
X012375Y004930D02*
X012111Y004930D01*
X012078Y005008D02*
X012375Y005008D01*
X012375Y005087D02*
X012033Y005087D01*
X011955Y005165D02*
X012375Y005165D01*
X011540Y004145D02*
X010903Y004145D01*
X011813Y006343D02*
X011885Y006343D01*
X009840Y009875D02*
X009608Y009875D01*
X009680Y009954D02*
X009808Y009954D01*
X009775Y010032D02*
X009712Y010032D01*
X009715Y010111D02*
X009773Y010111D01*
X009773Y010189D02*
X009715Y010189D01*
X009715Y010268D02*
X009773Y010268D01*
X009773Y010346D02*
X009715Y010346D01*
X009715Y010425D02*
X009773Y010425D01*
X009773Y010503D02*
X009715Y010503D01*
X009715Y010582D02*
X009773Y010582D01*
X009773Y010660D02*
X009715Y010660D01*
X009715Y010739D02*
X009773Y010739D01*
X009773Y010817D02*
X009715Y010817D01*
X009715Y010896D02*
X009773Y010896D01*
X009773Y010974D02*
X009715Y010974D01*
X009715Y011053D02*
X009773Y011053D01*
X009773Y011131D02*
X009715Y011131D01*
X009715Y011210D02*
X009773Y011210D01*
X009773Y011288D02*
X009715Y011288D01*
X009715Y011367D02*
X009773Y011367D01*
X009773Y011445D02*
X009715Y011445D01*
X009715Y011524D02*
X009773Y011524D01*
X009773Y011602D02*
X009715Y011602D01*
X009715Y011681D02*
X009773Y011681D01*
X009773Y011759D02*
X009715Y011759D01*
X009715Y011838D02*
X009773Y011838D01*
X009773Y011916D02*
X009715Y011916D01*
X009715Y011995D02*
X009773Y011995D01*
X009773Y012073D02*
X009715Y012073D01*
X009715Y012152D02*
X009773Y012152D01*
X009773Y012230D02*
X009715Y012230D01*
X009709Y012309D02*
X009773Y012309D01*
X009773Y012387D02*
X009677Y012387D01*
X009601Y012466D02*
X009773Y012466D01*
X009806Y012544D02*
X009223Y012544D01*
X009050Y012623D02*
X009852Y012623D01*
X009874Y012662D02*
X009874Y012662D01*
X009874Y012662D01*
X009943Y012701D02*
X008939Y012701D01*
X008873Y012780D02*
X010157Y012780D01*
X010189Y012858D02*
X008811Y012858D01*
X008776Y012937D02*
X010267Y012937D01*
X010450Y013015D02*
X008741Y013015D01*
X008720Y013094D02*
X010450Y013094D01*
X010450Y013172D02*
X008715Y013172D01*
X008715Y013251D02*
X010450Y013251D01*
X010450Y013329D02*
X008715Y013329D01*
X008715Y013408D02*
X010450Y013408D01*
X010450Y013486D02*
X008715Y013486D01*
X008715Y013565D02*
X010450Y013565D01*
X010450Y013643D02*
X008715Y013643D01*
X008715Y013722D02*
X010450Y013722D01*
X010450Y013800D02*
X008715Y013800D01*
X008715Y013879D02*
X010450Y013879D01*
X010450Y013957D02*
X009190Y013957D01*
X009309Y014036D02*
X010450Y014036D01*
X010450Y014114D02*
X009388Y014114D01*
X009426Y014193D02*
X010450Y014193D01*
X010450Y014271D02*
X009445Y014271D01*
X009448Y014350D02*
X010450Y014350D01*
X010450Y014428D02*
X009445Y014428D01*
X009445Y014507D02*
X009513Y014507D01*
X009710Y014507D02*
X009790Y014507D01*
X009790Y014452D02*
X009792Y014452D01*
X009876Y014465D01*
X009957Y014492D01*
X010033Y014530D01*
X010102Y014580D01*
X010162Y014640D01*
X010212Y014709D01*
X010250Y014785D01*
X010277Y014866D01*
X010290Y014949D01*
X010290Y014952D01*
X009790Y014952D01*
X009790Y015032D01*
X009710Y015032D01*
X009710Y015532D01*
X009708Y015532D01*
X009624Y015519D01*
X009543Y015492D01*
X009467Y015454D01*
X009398Y015404D01*
X009338Y015344D01*
X009288Y015275D01*
X009250Y015199D01*
X009223Y015118D01*
X009210Y015034D01*
X009210Y015032D01*
X009710Y015032D01*
X009710Y014952D01*
X009790Y014952D01*
X009790Y014452D01*
X009790Y014585D02*
X009710Y014585D01*
X009710Y014664D02*
X009790Y014664D01*
X009790Y014742D02*
X009710Y014742D01*
X009710Y014821D02*
X009790Y014821D01*
X009790Y014899D02*
X009710Y014899D01*
X009710Y014978D02*
X009105Y014978D01*
X009077Y014978D02*
X009020Y014978D01*
X008992Y014978D02*
X008715Y014978D01*
X008715Y015056D02*
X009213Y015056D01*
X009229Y015135D02*
X008715Y015135D01*
X008715Y015213D02*
X009257Y015213D01*
X009300Y015292D02*
X008715Y015292D01*
X008715Y015370D02*
X009365Y015370D01*
X009460Y015449D02*
X009177Y015449D01*
X009169Y015449D02*
X009150Y015449D01*
X009302Y015527D02*
X009678Y015527D01*
X009710Y015527D02*
X009790Y015527D01*
X009790Y015532D02*
X009790Y015032D01*
X010290Y015032D01*
X010290Y015034D01*
X010277Y015118D01*
X010250Y015199D01*
X010212Y015275D01*
X010162Y015344D01*
X010102Y015404D01*
X010033Y015454D01*
X009957Y015492D01*
X009876Y015519D01*
X009792Y015532D01*
X009790Y015532D01*
X009822Y015527D02*
X010596Y015527D01*
X010498Y015449D02*
X010040Y015449D01*
X010135Y015370D02*
X010449Y015370D01*
X010420Y015292D02*
X010200Y015292D01*
X010243Y015213D02*
X010420Y015213D01*
X010434Y015135D02*
X010271Y015135D01*
X010287Y015056D02*
X010444Y015056D01*
X010420Y014978D02*
X009790Y014978D01*
X009790Y015056D02*
X009710Y015056D01*
X009710Y015135D02*
X009790Y015135D01*
X009790Y015213D02*
X009710Y015213D01*
X009710Y015292D02*
X009790Y015292D01*
X009790Y015370D02*
X009710Y015370D01*
X009710Y015449D02*
X009790Y015449D01*
X009445Y015763D02*
X012052Y015763D01*
X012051Y015841D02*
X009447Y015841D01*
X009445Y015920D02*
X012052Y015920D01*
X012077Y015684D02*
X009421Y015684D01*
X009378Y015606D02*
X012119Y015606D01*
X012196Y015527D02*
X011822Y015527D01*
X011792Y015532D02*
X011790Y015532D01*
X011790Y015032D01*
X012290Y015032D01*
X012290Y015034D01*
X012277Y015118D01*
X012250Y015199D01*
X012212Y015275D01*
X012162Y015344D01*
X012102Y015404D01*
X012033Y015454D01*
X011957Y015492D01*
X011876Y015519D01*
X011792Y015532D01*
X011790Y015527D02*
X011710Y015527D01*
X011678Y015527D02*
X010904Y015527D01*
X011002Y015449D02*
X011460Y015449D01*
X011365Y015370D02*
X011051Y015370D01*
X011080Y015292D02*
X011300Y015292D01*
X011257Y015213D02*
X011080Y015213D01*
X011066Y015135D02*
X011229Y015135D01*
X011213Y015056D02*
X011056Y015056D01*
X011080Y014978D02*
X011710Y014978D01*
X011710Y015056D02*
X011790Y015056D01*
X011790Y014978D02*
X012392Y014978D01*
X012420Y014978D02*
X012478Y014978D01*
X012506Y014978D02*
X012785Y014978D01*
X012785Y015056D02*
X012287Y015056D01*
X012271Y015135D02*
X012785Y015135D01*
X012785Y015213D02*
X012243Y015213D01*
X012200Y015292D02*
X012785Y015292D01*
X012785Y015370D02*
X012135Y015370D01*
X012040Y015449D02*
X012321Y015449D01*
X012328Y015449D02*
X012348Y015449D01*
X012551Y015449D02*
X012570Y015449D01*
X012577Y015449D02*
X012785Y015449D01*
X012785Y015527D02*
X012702Y015527D01*
X012779Y015606D02*
X012785Y015609D01*
X012785Y014899D02*
X012685Y014899D01*
X012763Y014821D02*
X012789Y014821D01*
X012811Y014742D02*
X012821Y014742D01*
X012837Y014664D02*
X012855Y014664D01*
X012846Y014585D02*
X012862Y014585D01*
X012846Y014507D02*
X012940Y014507D01*
X012961Y014428D02*
X012846Y014428D01*
X012848Y014350D02*
X012883Y014350D01*
X012855Y014271D02*
X012846Y014271D01*
X012836Y014193D02*
X012827Y014193D01*
X012797Y014114D02*
X012789Y014114D01*
X012785Y014036D02*
X012710Y014036D01*
X012785Y013957D02*
X012591Y013957D01*
X012785Y013879D02*
X011050Y013879D01*
X011050Y013957D02*
X012307Y013957D01*
X012189Y014036D02*
X011050Y014036D01*
X011050Y014114D02*
X012110Y014114D01*
X012072Y014193D02*
X011050Y014193D01*
X011050Y014271D02*
X012052Y014271D01*
X012050Y014350D02*
X011050Y014350D01*
X011050Y014428D02*
X012052Y014428D01*
X012052Y014507D02*
X011987Y014507D01*
X011790Y014507D02*
X011710Y014507D01*
X011710Y014585D02*
X011790Y014585D01*
X011790Y014664D02*
X011710Y014664D01*
X011710Y014742D02*
X011790Y014742D01*
X011790Y014821D02*
X011710Y014821D01*
X011710Y014899D02*
X011790Y014899D01*
X011790Y015135D02*
X011710Y015135D01*
X011710Y015213D02*
X011790Y015213D01*
X011790Y015292D02*
X011710Y015292D01*
X011710Y015370D02*
X011790Y015370D01*
X011790Y015449D02*
X011710Y015449D01*
X011218Y014899D02*
X011080Y014899D01*
X011060Y014821D02*
X011238Y014821D01*
X011271Y014742D02*
X011050Y014742D01*
X011050Y014664D02*
X011321Y014664D01*
X011393Y014585D02*
X011050Y014585D01*
X011050Y014507D02*
X011513Y014507D01*
X011050Y013800D02*
X012785Y013800D01*
X012785Y013722D02*
X011050Y013722D01*
X011050Y013643D02*
X012785Y013643D01*
X012785Y013565D02*
X011050Y013565D01*
X011050Y013486D02*
X012785Y013486D01*
X012785Y013408D02*
X011050Y013408D01*
X011050Y013329D02*
X012785Y013329D01*
X012785Y013251D02*
X011050Y013251D01*
X011050Y013172D02*
X012785Y013172D01*
X012781Y013094D02*
X011050Y013094D01*
X011050Y013015D02*
X012764Y013015D01*
X012731Y012937D02*
X011238Y012937D01*
X011316Y012858D02*
X012698Y012858D01*
X012640Y012780D02*
X011348Y012780D01*
X011363Y012701D02*
X012577Y012701D01*
X012470Y012623D02*
X011363Y012623D01*
X011330Y012544D02*
X012303Y012544D01*
X010450Y014507D02*
X009987Y014507D01*
X010107Y014585D02*
X010450Y014585D01*
X010450Y014664D02*
X010179Y014664D01*
X010229Y014742D02*
X010450Y014742D01*
X010440Y014821D02*
X010262Y014821D01*
X010282Y014899D02*
X010420Y014899D01*
X008947Y015449D02*
X008928Y015449D01*
X008920Y015449D02*
X008715Y015449D01*
X008715Y015527D02*
X008795Y015527D01*
X008718Y015606D02*
X008715Y015606D01*
X008715Y014899D02*
X008813Y014899D01*
X008734Y014821D02*
X008715Y014821D01*
X008715Y014036D02*
X008788Y014036D01*
X008715Y013957D02*
X008906Y013957D01*
X007367Y017176D02*
X000799Y017176D01*
X000799Y017254D02*
X007367Y017254D01*
X007367Y017333D02*
X000799Y017333D01*
X000799Y017411D02*
X007367Y017411D01*
X007367Y017490D02*
X000799Y017490D01*
X000804Y017568D02*
X007367Y017568D01*
X007367Y017647D02*
X000827Y017647D01*
X000854Y017725D02*
X007367Y017725D01*
X007367Y017804D02*
X000912Y017804D01*
X000994Y017882D02*
X007367Y017882D01*
X007367Y017961D02*
X001150Y017961D01*
X000799Y017097D02*
X002951Y017097D01*
X002818Y017019D02*
X000799Y017019D01*
X000799Y016940D02*
X002740Y016940D01*
X002692Y016862D02*
X000799Y016862D01*
X000799Y016783D02*
X002659Y016783D01*
X002635Y016705D02*
X000799Y016705D01*
X000799Y016626D02*
X002635Y016626D01*
X002635Y016548D02*
X000799Y016548D01*
X000799Y016469D02*
X002635Y016469D01*
X002635Y016391D02*
X000799Y016391D01*
X000799Y016312D02*
X002635Y016312D01*
X002635Y016234D02*
X000799Y016234D01*
X000799Y016155D02*
X002635Y016155D01*
X002635Y016077D02*
X000799Y016077D01*
X000799Y015998D02*
X002635Y015998D01*
X002635Y015920D02*
X000799Y015920D01*
X000799Y015841D02*
X002635Y015841D01*
X002635Y015763D02*
X000799Y015763D01*
X000799Y015684D02*
X002635Y015684D01*
X002635Y015606D02*
X000799Y015606D01*
X000799Y015527D02*
X002635Y015527D01*
X002635Y015449D02*
X000799Y015449D01*
X000799Y015370D02*
X002635Y015370D01*
X002635Y015292D02*
X000799Y015292D01*
X000799Y015213D02*
X002635Y015213D01*
X002635Y015135D02*
X000799Y015135D01*
X000799Y015056D02*
X002635Y015056D01*
X002635Y014978D02*
X000799Y014978D01*
X000799Y014899D02*
X002635Y014899D01*
X002635Y014821D02*
X000799Y014821D01*
X000799Y014742D02*
X002635Y014742D01*
X002635Y014664D02*
X000799Y014664D01*
X000799Y014585D02*
X002635Y014585D01*
X002635Y014507D02*
X000799Y014507D01*
X000799Y014428D02*
X002635Y014428D01*
X002635Y014350D02*
X000799Y014350D01*
X000799Y014271D02*
X002635Y014271D01*
X002635Y014193D02*
X000799Y014193D01*
X000799Y014114D02*
X002635Y014114D01*
X002635Y014036D02*
X000799Y014036D01*
X000799Y013957D02*
X002635Y013957D01*
X002635Y013879D02*
X000799Y013879D01*
X000799Y013800D02*
X002635Y013800D01*
X002635Y013722D02*
X000799Y013722D01*
D21*
X005544Y013841D03*
X005844Y013841D03*
X005844Y014141D03*
X005544Y014141D03*
X005544Y014441D03*
X005844Y014441D03*
X005844Y012691D03*
X005544Y012691D03*
X005544Y012391D03*
X005844Y012391D03*
X009550Y015716D03*
X009850Y015716D03*
X010150Y015716D03*
X010450Y015716D03*
X010750Y015716D03*
X011050Y015716D03*
X011350Y015716D03*
X011650Y015716D03*
X011950Y015716D03*
X011053Y012684D03*
X010453Y012684D03*
X014644Y012241D03*
X016553Y009834D03*
X016803Y009834D03*
X017803Y008581D03*
X017803Y008281D03*
X017803Y007981D03*
X017803Y007681D03*
X018284Y007734D03*
X018284Y008034D03*
X016072Y006481D03*
X016072Y006181D03*
X016072Y005881D03*
X016253Y004531D03*
X016543Y004531D03*
X016543Y004231D03*
X016253Y004231D03*
X016253Y003931D03*
X016543Y003931D03*
X016543Y003631D03*
X016253Y003631D03*
X014753Y003384D03*
X014122Y003154D03*
X014293Y004153D03*
X014253Y005559D03*
X013903Y005559D03*
X011803Y006434D03*
X011503Y006434D03*
X010609Y005111D03*
X010609Y004811D03*
X011740Y004562D03*
X011759Y004161D03*
X015804Y008334D03*
X018853Y004781D03*
X018853Y004481D03*
X018853Y004181D03*
X018853Y003881D03*
X019997Y004034D03*
X019997Y003334D03*
X019734Y004784D03*
X019434Y004784D03*
D22*
X019997Y004034D02*
X019997Y003734D01*
X019522Y003259D01*
X014878Y003259D01*
X014753Y003384D01*
X014678Y003059D02*
X014293Y003444D01*
X014293Y004153D01*
X013903Y004934D02*
X013903Y003373D01*
X013905Y003344D01*
X013910Y003316D01*
X013920Y003289D01*
X013932Y003264D01*
X013948Y003240D01*
X013967Y003218D01*
X013989Y003199D01*
X014012Y003183D01*
X014038Y003171D01*
X014065Y003161D01*
X014093Y003156D01*
X014122Y003154D01*
X014678Y003059D02*
X019722Y003059D01*
X019997Y003334D01*
X014253Y005509D02*
X014053Y005309D01*
X014053Y005084D01*
X013903Y004934D01*
X014253Y005509D02*
X014253Y005559D01*
X011690Y004822D02*
X011740Y004562D01*
X011759Y004161D02*
X010975Y004161D01*
X010609Y004527D01*
X010609Y004811D01*
X011653Y006806D02*
X011649Y006809D01*
X010253Y009884D02*
X016503Y009884D01*
X016553Y009834D01*
X015804Y008334D02*
X017334Y008334D01*
X010750Y012334D02*
X010750Y012342D01*
X010750Y012334D02*
X010697Y012534D01*
X010153Y012534D01*
X010130Y012532D01*
X010107Y012527D01*
X010085Y012518D01*
X010065Y012505D01*
X010047Y012490D01*
X010032Y012472D01*
X010019Y012452D01*
X010010Y012430D01*
X010005Y012407D01*
X010003Y012384D01*
X010003Y010134D01*
X010005Y010104D01*
X010010Y010074D01*
X010019Y010045D01*
X010032Y010018D01*
X010047Y009992D01*
X010066Y009968D01*
X010087Y009947D01*
X010111Y009928D01*
X010137Y009913D01*
X010164Y009900D01*
X010193Y009891D01*
X010223Y009886D01*
X010253Y009884D01*
X010750Y012431D02*
X010697Y012534D01*
D23*
X014935Y009267D02*
X015245Y009267D01*
X018284Y008034D02*
X018284Y007734D01*
X014984Y006834D02*
X014984Y006534D01*
X017314Y005120D02*
X017614Y005120D01*
X019434Y004784D02*
X019734Y004784D01*
D24*
X010750Y014934D03*
X010750Y015234D03*
D25*
X005053Y014484D03*
X005053Y014184D03*
X014935Y009267D03*
X015245Y009267D03*
X014984Y006834D03*
X014984Y006534D03*
X017314Y005120D03*
X017614Y005120D03*
D26*
X016803Y009834D02*
X016553Y009834D01*
D27*
X016803Y009834D02*
X017053Y009534D01*
X017334Y009534D01*
X017334Y008334D01*
X017334Y005120D01*
X017314Y005120D01*
X014984Y006834D02*
X014565Y007252D01*
X014565Y009236D01*
X014534Y009267D01*
X014935Y009267D01*
X014534Y009267D02*
X008053Y009267D01*
X005053Y012284D01*
X005053Y014484D01*
X010750Y015234D02*
X010750Y012684D01*
X010750Y012342D01*
X017334Y009534D02*
X017334Y009534D01*
X017359Y009558D01*
X017334Y009534D02*
X017517Y009714D01*
X017665Y009714D01*
X017715Y009767D01*
D28*
X011053Y012684D02*
X010750Y012684D01*
X010453Y012684D01*
M02*
