G75*
G70*
%OFA0B0*%
%FSLAX24Y24*%
%IPPOS*%
%LPD*%
%AMOC8*
5,1,8,0,0,1.08239X$1,22.5*
%
%ADD10C,0.0050*%
%ADD11C,0.0060*%
%ADD12C,0.0080*%
%ADD13C,0.0040*%
%ADD14R,0.2750X0.1300*%
%ADD15C,0.0070*%
%ADD16C,0.0160*%
%ADD17C,0.0039*%
%ADD18C,0.0120*%
%ADD19C,0.0020*%
%ADD20C,0.0140*%
%ADD21R,0.1433X0.0012*%
%ADD22R,0.1433X0.0012*%
%ADD23R,0.1409X0.0012*%
%ADD24R,0.0070X0.0012*%
%ADD25R,0.0163X0.0012*%
%ADD26R,0.0082X0.0012*%
%ADD27R,0.0105X0.0012*%
%ADD28R,0.0198X0.0012*%
%ADD29R,0.0070X0.0012*%
%ADD30R,0.0163X0.0012*%
%ADD31R,0.0035X0.0012*%
%ADD32R,0.0082X0.0012*%
%ADD33R,0.0186X0.0012*%
%ADD34R,0.0070X0.0012*%
%ADD35R,0.0163X0.0012*%
%ADD36R,0.0186X0.0012*%
%ADD37R,0.0082X0.0012*%
%ADD38R,0.0047X0.0012*%
%ADD39R,0.0175X0.0012*%
%ADD40R,0.0082X0.0012*%
%ADD41R,0.0163X0.0012*%
%ADD42R,0.0047X0.0012*%
%ADD43R,0.0035X0.0012*%
%ADD44R,0.0151X0.0012*%
%ADD45R,0.0093X0.0012*%
%ADD46R,0.0035X0.0012*%
%ADD47R,0.0151X0.0012*%
%ADD48R,0.0140X0.0012*%
%ADD49R,0.0221X0.0012*%
%ADD50R,0.0105X0.0012*%
%ADD51R,0.0035X0.0012*%
%ADD52R,0.0140X0.0012*%
%ADD53R,0.0233X0.0012*%
%ADD54R,0.0140X0.0012*%
%ADD55R,0.0419X0.0012*%
%ADD56R,0.0128X0.0012*%
%ADD57R,0.0431X0.0012*%
%ADD58R,0.0035X0.0012*%
%ADD59R,0.0431X0.0012*%
%ADD60R,0.0431X0.0012*%
%ADD61R,0.0047X0.0012*%
%ADD62R,0.0431X0.0012*%
%ADD63R,0.0058X0.0012*%
%ADD64R,0.0419X0.0012*%
%ADD65R,0.0058X0.0012*%
%ADD66R,0.0408X0.0012*%
%ADD67R,0.0233X0.0012*%
%ADD68R,0.0058X0.0012*%
%ADD69R,0.0105X0.0012*%
%ADD70R,0.0140X0.0012*%
%ADD71R,0.0105X0.0012*%
%ADD72R,0.0070X0.0012*%
%ADD73R,0.0128X0.0012*%
%ADD74R,0.0023X0.0012*%
%ADD75R,0.0070X0.0012*%
%ADD76R,0.0116X0.0012*%
%ADD77R,0.0023X0.0012*%
%ADD78R,0.0023X0.0012*%
%ADD79R,0.0093X0.0012*%
%ADD80R,0.0186X0.0012*%
%ADD81R,0.0012X0.0012*%
%ADD82R,0.0245X0.0012*%
%ADD83R,0.0233X0.0012*%
%ADD84R,0.0012X0.0012*%
%ADD85R,0.0233X0.0012*%
%ADD86R,0.0268X0.0012*%
%ADD87R,0.0291X0.0012*%
%ADD88R,0.0233X0.0012*%
%ADD89R,0.0303X0.0012*%
%ADD90R,0.0186X0.0012*%
%ADD91R,0.0221X0.0012*%
%ADD92R,0.0303X0.0012*%
%ADD93R,0.0198X0.0012*%
%ADD94R,0.0221X0.0012*%
%ADD95R,0.0314X0.0012*%
%ADD96R,0.0186X0.0012*%
%ADD97R,0.0221X0.0012*%
%ADD98R,0.0314X0.0012*%
%ADD99R,0.0186X0.0012*%
%ADD100R,0.0303X0.0012*%
%ADD101R,0.0047X0.0012*%
%ADD102R,0.0175X0.0012*%
%ADD103R,0.0186X0.0012*%
%ADD104R,0.0070X0.0012*%
%ADD105R,0.0198X0.0012*%
%ADD106R,0.0070X0.0012*%
%ADD107R,0.0210X0.0012*%
%ADD108R,0.0233X0.0012*%
%ADD109R,0.1374X0.0012*%
%ADD110R,0.1374X0.0012*%
%ADD111R,0.1479X0.0012*%
%ADD112R,0.1479X0.0012*%
%ADD113R,0.0652X0.0012*%
%ADD114R,0.0641X0.0012*%
%ADD115R,0.0780X0.0012*%
%ADD116R,0.0093X0.0012*%
%ADD117R,0.0827X0.0012*%
%ADD118R,0.0047X0.0012*%
%ADD119R,0.0839X0.0012*%
%ADD120R,0.0047X0.0012*%
%ADD121R,0.0058X0.0012*%
%ADD122R,0.0862X0.0012*%
%ADD123R,0.0874X0.0012*%
%ADD124R,0.0058X0.0012*%
%ADD125R,0.0885X0.0012*%
%ADD126R,0.0058X0.0012*%
%ADD127R,0.0885X0.0012*%
%ADD128R,0.0058X0.0012*%
%ADD129R,0.0885X0.0012*%
%ADD130R,0.0280X0.0012*%
%ADD131R,0.0070X0.0012*%
%ADD132R,0.0280X0.0012*%
%ADD133R,0.0885X0.0012*%
%ADD134R,0.0058X0.0012*%
%ADD135R,0.0280X0.0012*%
%ADD136R,0.0897X0.0012*%
%ADD137R,0.0571X0.0012*%
%ADD138R,0.0268X0.0012*%
%ADD139R,0.0280X0.0012*%
%ADD140R,0.0047X0.0012*%
%ADD141R,0.0140X0.0012*%
%ADD142R,0.0128X0.0012*%
%ADD143R,0.0140X0.0012*%
%ADD144R,0.0128X0.0012*%
%ADD145R,0.0140X0.0012*%
%ADD146R,0.0151X0.0012*%
%ADD147R,0.0116X0.0012*%
%ADD148R,0.0140X0.0012*%
%ADD149R,0.0396X0.0012*%
%ADD150R,0.0396X0.0012*%
%ADD151R,0.0128X0.0012*%
%ADD152R,0.0408X0.0012*%
%ADD153R,0.0419X0.0012*%
%ADD154R,0.0408X0.0012*%
%ADD155R,0.0396X0.0012*%
%ADD156R,0.0035X0.0012*%
%ADD157R,0.0035X0.0012*%
%ADD158R,0.0035X0.0012*%
%ADD159R,0.0443X0.0012*%
%ADD160R,0.0431X0.0012*%
%ADD161R,0.0874X0.0012*%
%ADD162R,0.0839X0.0012*%
%ADD163R,0.0827X0.0012*%
%ADD164R,0.0792X0.0012*%
D10*
X001284Y000534D02*
X024182Y000534D01*
X024182Y000533D02*
X024236Y000535D01*
X024290Y000540D01*
X024343Y000549D01*
X024396Y000562D01*
X024447Y000579D01*
X024497Y000599D01*
X024545Y000623D01*
X024592Y000650D01*
X024637Y000681D01*
X024679Y000714D01*
X024719Y000751D01*
X024756Y000790D01*
X024790Y000832D01*
X024821Y000876D01*
X024849Y000922D01*
X024873Y000970D01*
X024894Y001020D01*
X024912Y001071D01*
X024926Y001123D01*
X024936Y001176D01*
X024942Y001230D01*
X024944Y001283D01*
X024943Y001284D02*
X024943Y017502D01*
X024944Y017502D02*
X024942Y017556D01*
X024935Y017610D01*
X024925Y017663D01*
X024912Y017715D01*
X024894Y017766D01*
X024873Y017816D01*
X024849Y017864D01*
X024821Y017910D01*
X024789Y017954D01*
X024755Y017995D01*
X024718Y018034D01*
X024678Y018071D01*
X024636Y018104D01*
X024592Y018135D01*
X024545Y018162D01*
X024497Y018185D01*
X024447Y018206D01*
X024395Y018222D01*
X024343Y018235D01*
X024290Y018244D01*
X024236Y018250D01*
X024183Y018251D01*
X024182Y018250D02*
X013925Y018250D01*
X013925Y018222D01*
X013921Y018194D01*
X013914Y018167D01*
X013903Y018141D01*
X013889Y018117D01*
X013872Y018095D01*
X013852Y018075D01*
X013830Y018058D01*
X013806Y018044D01*
X013780Y018033D01*
X013753Y018026D01*
X013725Y018022D01*
X013575Y018022D01*
X013547Y018026D01*
X013520Y018033D01*
X013494Y018044D01*
X013470Y018058D01*
X013448Y018075D01*
X013428Y018095D01*
X013411Y018117D01*
X013397Y018141D01*
X013386Y018167D01*
X013379Y018194D01*
X013375Y018222D01*
X013375Y018250D01*
X008187Y018250D01*
X008187Y018222D01*
X008183Y018194D01*
X008176Y018167D01*
X008165Y018141D01*
X008151Y018117D01*
X008134Y018095D01*
X008114Y018075D01*
X008092Y018058D01*
X008068Y018044D01*
X008042Y018033D01*
X008015Y018026D01*
X007987Y018022D01*
X007837Y018022D01*
X007838Y018022D02*
X007809Y018026D01*
X007782Y018033D01*
X007756Y018043D01*
X007731Y018057D01*
X007708Y018074D01*
X007688Y018094D01*
X007670Y018116D01*
X007656Y018141D01*
X007644Y018167D01*
X007637Y018194D01*
X007633Y018222D01*
X007632Y018250D01*
X001284Y018250D01*
X001231Y018248D01*
X001177Y018243D01*
X001125Y018233D01*
X001073Y018220D01*
X001022Y018203D01*
X000973Y018183D01*
X000925Y018159D01*
X000879Y018132D01*
X000835Y018101D01*
X000793Y018068D01*
X000754Y018031D01*
X000718Y017992D01*
X000684Y017951D01*
X000653Y017907D01*
X000626Y017861D01*
X000602Y017813D01*
X000582Y017764D01*
X000565Y017713D01*
X000551Y017661D01*
X000542Y017609D01*
X000536Y017555D01*
X000534Y017502D01*
X000534Y001284D01*
X000536Y001230D01*
X000542Y001177D01*
X000551Y001125D01*
X000564Y001073D01*
X000581Y001022D01*
X000602Y000972D01*
X000626Y000925D01*
X000653Y000879D01*
X000684Y000835D01*
X000717Y000793D01*
X000754Y000754D01*
X000793Y000717D01*
X000835Y000684D01*
X000879Y000653D01*
X000925Y000626D01*
X000972Y000602D01*
X001022Y000581D01*
X001073Y000564D01*
X001125Y000551D01*
X001177Y000542D01*
X001230Y000536D01*
X001284Y000534D01*
X002304Y001227D02*
X004578Y001225D01*
X004598Y001235D02*
X005656Y001222D01*
X005674Y001228D02*
X005615Y002002D01*
X005582Y001999D02*
X005594Y001881D01*
X004337Y001919D01*
X003689Y001889D01*
X003501Y001816D01*
X003372Y001819D01*
X003234Y001888D01*
X003090Y001912D01*
X002924Y001859D01*
X002752Y001846D01*
X002753Y001805D02*
X002660Y001862D01*
X002537Y001877D01*
X002394Y001856D01*
X002355Y001834D01*
X002310Y001823D01*
X002303Y002008D01*
X005582Y001999D01*
X005552Y001965D02*
X005558Y001920D01*
X002330Y001928D01*
X002351Y001866D01*
X002381Y001892D01*
X002397Y001895D02*
X002973Y001902D01*
X002690Y001861D01*
X002753Y001805D02*
X002960Y001822D01*
X003047Y001863D01*
X003144Y001872D01*
X003210Y001860D01*
X003296Y001836D01*
X003365Y001774D01*
X003536Y001776D01*
X003563Y001803D01*
X003616Y001842D01*
X003692Y001866D01*
X003783Y001878D01*
X003821Y001871D01*
X003863Y001860D01*
X004167Y001878D01*
X004178Y001873D02*
X004455Y001886D01*
X004275Y001733D01*
X004244Y001846D01*
X004377Y001855D01*
X004293Y001799D01*
X004283Y001817D01*
X004222Y001831D02*
X004178Y001873D01*
X004222Y001831D02*
X004249Y001739D01*
X004238Y001648D01*
X004425Y001846D01*
X004477Y001871D01*
X004738Y001876D01*
X005142Y001869D01*
X005505Y001866D01*
X005570Y001854D01*
X005623Y001821D01*
X005606Y001712D02*
X005630Y001285D01*
X005475Y001284D01*
X005481Y001650D01*
X005512Y001322D01*
X005519Y001640D01*
X005552Y001320D01*
X005560Y001641D01*
X005569Y001653D01*
X005589Y001310D01*
X005643Y001247D02*
X005025Y001243D01*
X005080Y001265D02*
X005109Y001312D01*
X005083Y001741D01*
X005120Y001693D01*
X005219Y001688D01*
X005250Y001278D01*
X005138Y001288D01*
X005132Y001665D01*
X005181Y001654D01*
X005216Y001312D01*
X005174Y001308D01*
X005159Y001612D01*
X005048Y001598D02*
X005010Y001642D01*
X005005Y001638D02*
X005009Y001656D01*
X004850Y001663D01*
X004813Y001642D02*
X005005Y001638D01*
X005039Y001672D02*
X005052Y001654D01*
X005075Y001408D01*
X005046Y001425D01*
X004977Y001411D01*
X004819Y001417D01*
X004812Y001463D01*
X004968Y001477D01*
X005033Y001510D01*
X005050Y001547D01*
X005036Y001463D01*
X004856Y001439D01*
X004813Y001642D02*
X004817Y001692D01*
X005048Y001699D01*
X005073Y001721D01*
X005091Y001816D02*
X005074Y001844D01*
X005054Y001869D01*
X005111Y001840D02*
X005144Y001859D01*
X005257Y001692D02*
X005264Y001325D01*
X005285Y001262D01*
X005080Y001265D01*
X004727Y001250D02*
X004614Y001251D01*
X004635Y001282D01*
X004614Y001341D01*
X004412Y001581D01*
X004514Y001432D01*
X004541Y001404D01*
X004598Y001404D02*
X004469Y001570D01*
X004579Y001699D01*
X004576Y001476D01*
X004517Y001564D01*
X004555Y001618D01*
X004548Y001552D01*
X004626Y001564D02*
X004630Y001432D01*
X004639Y001352D01*
X004668Y001297D01*
X004727Y001250D01*
X004598Y001404D02*
X004611Y001815D01*
X004577Y001807D01*
X004585Y001795D01*
X004561Y001732D01*
X004532Y001694D01*
X004476Y001643D01*
X004426Y001587D01*
X004275Y001468D02*
X004326Y001380D01*
X004407Y001276D01*
X004461Y001239D01*
X004261Y001259D01*
X004272Y001404D01*
X004370Y001273D01*
X004300Y001282D01*
X004290Y001328D01*
X004236Y001282D02*
X004243Y001436D01*
X004275Y001468D01*
X004236Y001282D02*
X004212Y001252D01*
X004201Y001240D02*
X002352Y001242D01*
X002343Y001257D02*
X002324Y001279D01*
X002327Y001811D01*
X002309Y001828D02*
X002311Y001235D01*
X002343Y001257D01*
X002479Y001254D02*
X002502Y001288D01*
X002509Y001434D01*
X002632Y001432D01*
X002709Y001454D01*
X002755Y001490D01*
X002803Y001560D01*
X002821Y001587D01*
X002821Y001681D01*
X002798Y001759D01*
X002777Y001769D01*
X002938Y001803D01*
X002882Y001765D01*
X002850Y001705D01*
X002838Y001650D01*
X002836Y001750D01*
X002826Y001557D02*
X002826Y001452D01*
X002850Y001383D01*
X002936Y001284D01*
X003009Y001260D01*
X002923Y001276D02*
X002518Y001274D01*
X002517Y001308D02*
X002878Y001310D01*
X002855Y001349D02*
X002528Y001346D01*
X002539Y001370D01*
X002816Y001376D01*
X002803Y001436D01*
X002743Y001396D01*
X002702Y001405D02*
X002784Y001462D01*
X002826Y001557D01*
X002998Y001510D02*
X003016Y001612D01*
X003039Y001650D01*
X003184Y001651D01*
X003208Y001603D01*
X003211Y001494D01*
X003159Y001463D01*
X003072Y001464D01*
X003040Y001497D01*
X003063Y001614D01*
X003168Y001612D01*
X003166Y001511D01*
X003083Y001505D01*
X003099Y001574D01*
X003131Y001580D01*
X003126Y001542D01*
X003083Y001420D02*
X003016Y001465D01*
X002998Y001510D01*
X003083Y001420D02*
X003183Y001424D01*
X003250Y001485D01*
X003242Y001632D01*
X003174Y001688D01*
X003082Y001685D01*
X003056Y001660D01*
X002633Y001677D02*
X002577Y001708D01*
X002544Y001707D01*
X002552Y001644D01*
X002601Y001643D01*
X002567Y001671D01*
X002514Y001706D02*
X002517Y001604D01*
X002603Y001605D01*
X002633Y001631D01*
X002633Y001677D01*
X002702Y001405D02*
X002538Y001401D01*
X002328Y001967D02*
X005552Y001965D01*
X005657Y002021D02*
X005713Y001223D01*
X005674Y001228D01*
X005750Y001218D02*
X005699Y002011D01*
X005745Y002017D02*
X005781Y001226D01*
X005816Y001219D01*
X005793Y002028D01*
X005843Y002009D01*
X005851Y001233D01*
X005895Y001220D01*
X005886Y002021D01*
X005933Y002016D01*
X005934Y001229D01*
X005974Y001224D01*
X005978Y002041D01*
X002303Y002048D01*
X003262Y001898D02*
X003633Y001900D01*
X003481Y001850D01*
X003329Y001863D01*
X003375Y001749D02*
X003423Y001689D01*
X003439Y001584D01*
X003440Y001488D01*
X003399Y001375D01*
X003321Y001297D01*
X003247Y001259D01*
X003637Y001257D01*
X003537Y001326D01*
X003473Y001438D01*
X003467Y001489D01*
X003363Y001287D01*
X003541Y001280D01*
X003454Y001406D01*
X003413Y001314D01*
X003497Y001303D01*
X003456Y001346D01*
X003471Y001505D02*
X003466Y001642D01*
X003523Y001758D01*
X003425Y001751D01*
X003456Y001674D01*
X003462Y001718D01*
X003654Y001620D02*
X003642Y001538D01*
X003656Y001471D01*
X003679Y001443D01*
X003706Y001424D01*
X003752Y001414D01*
X003807Y001413D01*
X003839Y001424D01*
X003907Y001465D01*
X003898Y001578D01*
X003692Y001583D01*
X003868Y001540D01*
X003684Y001548D01*
X003693Y001487D01*
X003716Y001509D01*
X003871Y001496D01*
X003807Y001450D01*
X003710Y001458D01*
X003726Y001480D01*
X003798Y001479D01*
X003939Y001471D02*
X003933Y001617D01*
X004036Y001576D01*
X004019Y001441D01*
X003977Y001472D01*
X003969Y001578D01*
X004006Y001556D01*
X003999Y001501D01*
X004025Y001415D02*
X004028Y001286D01*
X003995Y001298D02*
X004015Y001333D01*
X004031Y001380D01*
X004025Y001415D01*
X004049Y001346D02*
X004078Y001267D01*
X003905Y001254D01*
X003995Y001298D01*
X004049Y001346D02*
X004066Y001588D01*
X004071Y001607D02*
X004054Y001786D01*
X004080Y001849D01*
X004100Y001858D01*
X003959Y001846D01*
X004031Y001817D01*
X003991Y001809D01*
X004031Y001744D01*
X004032Y001636D01*
X004071Y001607D02*
X003967Y001628D01*
X004019Y001697D01*
X003987Y001767D01*
X003937Y001819D01*
X003904Y001851D01*
X003797Y001696D02*
X003722Y001685D01*
X003677Y001653D01*
X003666Y001637D01*
X003803Y001654D01*
X003797Y001696D02*
X003865Y001643D01*
X003913Y001624D02*
X003654Y001620D01*
X004539Y001859D02*
X004566Y001841D01*
X004717Y001859D01*
X004649Y001819D01*
X004641Y001756D01*
X004626Y001564D01*
X005443Y001684D02*
X005451Y001308D01*
X005421Y001241D01*
X005443Y001684D02*
X005543Y001678D01*
X005584Y001687D01*
X005606Y001712D01*
X007900Y001984D02*
X007900Y007382D01*
X005450Y009832D01*
X003150Y009832D01*
X003120Y009834D01*
X003090Y009839D01*
X003061Y009848D01*
X003034Y009861D01*
X003008Y009876D01*
X002984Y009895D01*
X002963Y009916D01*
X002944Y009940D01*
X002929Y009966D01*
X002916Y009993D01*
X002907Y010022D01*
X002902Y010052D01*
X002900Y010082D01*
X002900Y011082D01*
X004650Y011082D01*
X004655Y011053D01*
X004662Y011024D01*
X004673Y010996D01*
X004687Y010970D01*
X004704Y010945D01*
X004724Y010922D01*
X004745Y010902D01*
X004769Y010884D01*
X004795Y010869D01*
X004823Y010858D01*
X004851Y010849D01*
X004880Y010843D01*
X004910Y010841D01*
X004940Y010842D01*
X006040Y010842D01*
X007940Y008942D01*
X014090Y008942D01*
X014116Y008940D01*
X014142Y008935D01*
X014167Y008927D01*
X014190Y008915D01*
X014212Y008901D01*
X014231Y008883D01*
X014249Y008864D01*
X014263Y008842D01*
X014275Y008819D01*
X014283Y008794D01*
X014288Y008768D01*
X014290Y008742D01*
X014290Y006502D01*
X014286Y006475D01*
X014279Y006449D01*
X014268Y006424D01*
X014254Y006401D01*
X014237Y006380D01*
X014217Y006362D01*
X014194Y006347D01*
X014170Y006335D01*
X014144Y006327D01*
X014117Y006323D01*
X014090Y006322D01*
X013890Y006322D01*
X013864Y006320D01*
X013838Y006315D01*
X013813Y006307D01*
X013790Y006295D01*
X013768Y006281D01*
X013749Y006263D01*
X013731Y006244D01*
X013717Y006222D01*
X013705Y006199D01*
X013697Y006174D01*
X013692Y006148D01*
X013690Y006122D01*
X013690Y005436D01*
X013690Y005437D02*
X013687Y005413D01*
X013681Y005391D01*
X013672Y005369D01*
X013660Y005349D01*
X013645Y005331D01*
X013628Y005315D01*
X013608Y005302D01*
X013587Y005292D01*
X013565Y005285D01*
X013542Y005281D01*
X013519Y005280D01*
X012785Y005280D01*
X012786Y005280D02*
X012763Y005284D01*
X012741Y005291D01*
X012720Y005301D01*
X012701Y005314D01*
X012684Y005330D01*
X012670Y005348D01*
X012658Y005368D01*
X012649Y005389D01*
X012643Y005411D01*
X012640Y005434D01*
X012641Y005457D01*
X012640Y005458D02*
X012640Y005520D01*
X012640Y005543D01*
X012636Y005566D01*
X012630Y005588D01*
X012620Y005609D01*
X012608Y005628D01*
X012593Y005645D01*
X012575Y005660D01*
X012556Y005673D01*
X012535Y005682D01*
X012513Y005688D01*
X012490Y005692D01*
X012300Y005692D01*
X012300Y005693D02*
X012277Y005696D01*
X012255Y005703D01*
X012234Y005713D01*
X012214Y005726D01*
X012197Y005742D01*
X012181Y005759D01*
X012169Y005779D01*
X012160Y005801D01*
X012153Y005823D01*
X012150Y005846D01*
X012151Y005870D01*
X012150Y005870D02*
X012150Y006820D01*
X011150Y006820D01*
X011150Y006320D01*
X011129Y006263D01*
X011106Y006207D01*
X011079Y006153D01*
X011049Y006100D01*
X011017Y006049D01*
X010981Y006000D01*
X010943Y005953D01*
X010903Y005908D01*
X010860Y005865D01*
X010814Y005825D01*
X010766Y005788D01*
X010717Y005753D01*
X010665Y005721D01*
X010612Y005692D01*
X011141Y005232D02*
X011219Y005232D01*
X011219Y005311D01*
X011219Y005232D02*
X011219Y005153D01*
X011219Y004951D02*
X011219Y004872D01*
X011141Y004872D01*
X011219Y004872D02*
X011219Y004793D01*
X011665Y003910D02*
X011608Y003884D01*
X011549Y003862D01*
X011489Y003844D01*
X011427Y003830D01*
X011365Y003819D01*
X011303Y003812D01*
X011240Y003808D01*
X011177Y003809D01*
X011114Y003813D01*
X011052Y003821D01*
X010990Y003833D01*
X010929Y003849D01*
X010869Y003868D01*
X010811Y003891D01*
X010754Y003917D01*
X010698Y003947D01*
X010645Y003980D01*
X010593Y004016D01*
X010544Y004055D01*
X010498Y004097D01*
X010453Y004142D01*
X010412Y004190D01*
X010374Y004240D01*
X010339Y004292D01*
X010307Y004346D01*
X010278Y004402D01*
X010253Y004460D01*
X010231Y004519D01*
X010213Y004579D01*
X010199Y004640D01*
X010188Y004702D01*
X010181Y004765D01*
X010178Y004828D01*
X010179Y004890D01*
X010183Y004953D01*
X010192Y005016D01*
X010204Y005077D01*
X010220Y005138D01*
X010239Y005198D01*
X010262Y005257D01*
X010289Y005314D01*
X010319Y005369D01*
X010352Y005422D01*
X010388Y005474D01*
X010428Y005523D01*
X010470Y005569D01*
X010515Y005613D01*
X010563Y005654D01*
X010613Y005692D01*
X011219Y004591D02*
X011219Y004512D01*
X011141Y004512D01*
X011219Y004512D02*
X011219Y004433D01*
X011665Y003910D02*
X011885Y003910D01*
X012085Y003710D01*
X012085Y003510D01*
X012087Y003478D01*
X012092Y003446D01*
X012102Y003415D01*
X012115Y003385D01*
X012131Y003357D01*
X012150Y003331D01*
X012172Y003308D01*
X012197Y003287D01*
X012224Y003269D01*
X012253Y003255D01*
X012283Y003244D01*
X012315Y003236D01*
X012347Y003232D01*
X012379Y003232D01*
X012411Y003236D01*
X012443Y003244D01*
X012473Y003255D01*
X012502Y003269D01*
X012529Y003287D01*
X012554Y003308D01*
X012576Y003331D01*
X012595Y003357D01*
X012611Y003385D01*
X012624Y003415D01*
X012634Y003446D01*
X012639Y003478D01*
X012641Y003510D01*
X012640Y003510D02*
X012640Y004231D01*
X012641Y004231D02*
X012644Y004254D01*
X012651Y004276D01*
X012661Y004297D01*
X012674Y004317D01*
X012689Y004334D01*
X012707Y004349D01*
X012727Y004361D01*
X012748Y004371D01*
X012771Y004377D01*
X012794Y004380D01*
X012817Y004379D01*
X012817Y004380D02*
X013540Y004380D01*
X013563Y004377D01*
X013585Y004370D01*
X013605Y004361D01*
X013625Y004349D01*
X013642Y004334D01*
X013657Y004317D01*
X013670Y004298D01*
X013679Y004277D01*
X013686Y004255D01*
X013689Y004233D01*
X013690Y004210D01*
X013690Y003192D01*
X013692Y003158D01*
X013698Y003125D01*
X013707Y003093D01*
X013720Y003062D01*
X013736Y003032D01*
X013755Y003005D01*
X013778Y002980D01*
X013803Y002957D01*
X013830Y002938D01*
X013860Y002922D01*
X013891Y002909D01*
X013923Y002900D01*
X013956Y002894D01*
X013990Y002892D01*
X014269Y002892D01*
X014269Y001732D01*
X008153Y001732D01*
X008152Y001732D02*
X008122Y001734D01*
X008092Y001739D01*
X008063Y001748D01*
X008035Y001761D01*
X008009Y001776D01*
X007985Y001795D01*
X007964Y001817D01*
X007945Y001840D01*
X007929Y001867D01*
X007917Y001894D01*
X007907Y001923D01*
X007902Y001953D01*
X007900Y001984D01*
X013863Y003635D02*
X013942Y003635D01*
X013942Y003557D01*
X013942Y003635D02*
X014020Y003635D01*
X014223Y003635D02*
X014302Y003635D01*
X014302Y003557D01*
X014302Y003635D02*
X014380Y003635D01*
X015119Y002892D02*
X015119Y001732D01*
X021705Y001732D01*
X021735Y001734D01*
X021765Y001739D01*
X021794Y001748D01*
X021821Y001761D01*
X021847Y001776D01*
X021871Y001795D01*
X021892Y001816D01*
X021911Y001840D01*
X021926Y001866D01*
X021939Y001893D01*
X021948Y001922D01*
X021953Y001952D01*
X021955Y001982D01*
X021955Y004126D01*
X020895Y004126D01*
X020895Y003242D01*
X020896Y003208D01*
X020893Y003174D01*
X020887Y003140D01*
X020877Y003108D01*
X020864Y003076D01*
X020848Y003046D01*
X020828Y003018D01*
X020806Y002992D01*
X020781Y002969D01*
X020754Y002948D01*
X020725Y002930D01*
X020694Y002916D01*
X020662Y002904D01*
X020629Y002896D01*
X020595Y002892D01*
X015119Y002892D01*
X018795Y005535D02*
X020595Y005535D01*
X020629Y005533D01*
X020662Y005527D01*
X020694Y005518D01*
X020725Y005505D01*
X020755Y005489D01*
X020782Y005470D01*
X020807Y005447D01*
X020830Y005422D01*
X020849Y005395D01*
X020865Y005365D01*
X020878Y005334D01*
X020887Y005302D01*
X020893Y005269D01*
X020895Y005235D01*
X020895Y004976D01*
X021955Y004976D01*
X021955Y011532D01*
X021953Y011562D01*
X021948Y011592D01*
X021939Y011621D01*
X021926Y011648D01*
X021911Y011674D01*
X021892Y011698D01*
X021871Y011719D01*
X021847Y011738D01*
X021821Y011753D01*
X021794Y011766D01*
X021765Y011775D01*
X021735Y011780D01*
X021705Y011782D01*
X014460Y011782D01*
X014430Y011784D01*
X014400Y011789D01*
X014371Y011798D01*
X014344Y011811D01*
X014318Y011826D01*
X014294Y011845D01*
X014273Y011866D01*
X014254Y011890D01*
X014239Y011916D01*
X014226Y011943D01*
X014217Y011972D01*
X014212Y012002D01*
X014210Y012032D01*
X014210Y014032D01*
X013050Y014032D01*
X013050Y013092D01*
X013051Y013092D02*
X013042Y013031D01*
X013029Y012972D01*
X013012Y012913D01*
X012992Y012855D01*
X012968Y012799D01*
X012941Y012744D01*
X012910Y012691D01*
X012876Y012641D01*
X012839Y012592D01*
X012798Y012546D01*
X012755Y012503D01*
X012709Y012462D01*
X012661Y012425D01*
X012611Y012390D01*
X012558Y012359D01*
X012504Y012332D01*
X012448Y012307D01*
X012390Y012287D01*
X012331Y012270D01*
X012272Y012257D01*
X012211Y012247D01*
X012150Y012242D01*
X010250Y012242D01*
X010250Y010092D01*
X016934Y010092D01*
X017284Y009740D01*
X018284Y009740D01*
X018315Y009739D01*
X018346Y009734D01*
X018375Y009725D01*
X018404Y009713D01*
X018431Y009698D01*
X018455Y009679D01*
X018478Y009658D01*
X018497Y009634D01*
X018514Y009608D01*
X018527Y009580D01*
X018537Y009551D01*
X018543Y009521D01*
X018546Y009490D01*
X018545Y009490D02*
X018545Y005785D01*
X018547Y005755D01*
X018552Y005725D01*
X018561Y005696D01*
X018574Y005669D01*
X018589Y005643D01*
X018608Y005619D01*
X018629Y005598D01*
X018653Y005579D01*
X018679Y005564D01*
X018706Y005551D01*
X018735Y005542D01*
X018765Y005537D01*
X018795Y005535D01*
X016948Y005687D02*
X016948Y005934D01*
X016948Y005687D02*
X015196Y005687D01*
X015196Y005934D01*
X015196Y007034D02*
X015196Y007281D01*
X016948Y007281D01*
X016948Y007034D01*
X017949Y008942D02*
X017897Y008993D01*
X017949Y008942D02*
X018052Y008942D01*
X018104Y008993D01*
X018104Y009097D01*
X018052Y009148D01*
X018000Y009148D01*
X017897Y009097D01*
X017897Y009252D01*
X018104Y009252D01*
X018228Y009252D02*
X018228Y009045D01*
X018332Y008942D01*
X018435Y009045D01*
X018435Y009252D01*
X016983Y012316D02*
X016748Y012326D01*
X016758Y012361D02*
X016838Y012346D01*
X016968Y012351D01*
X017068Y012361D01*
X016983Y012316D01*
X017023Y012371D02*
X017083Y012411D01*
X017118Y012481D01*
X017153Y012471D01*
X017083Y012366D01*
X017118Y012491D02*
X017128Y012526D01*
X017133Y013001D01*
X017168Y012926D01*
X017163Y012501D01*
X017023Y012601D02*
X016928Y012576D01*
X016803Y012601D01*
X016733Y012646D01*
X016688Y012706D01*
X016653Y012816D01*
X016673Y012951D01*
X016743Y013041D01*
X016828Y013091D01*
X016908Y013111D01*
X017003Y013096D01*
X017063Y013061D01*
X017108Y013016D01*
X017098Y012976D02*
X017033Y013041D01*
X016953Y013076D01*
X016848Y013066D01*
X016788Y013041D01*
X016728Y012971D01*
X016693Y012896D01*
X016693Y012826D01*
X016708Y012726D01*
X016758Y012666D01*
X016838Y012621D01*
X016908Y012611D01*
X016978Y012616D01*
X017028Y012641D01*
X017023Y012601D01*
X017118Y012911D02*
X017098Y012976D01*
X017398Y013101D02*
X017408Y012581D01*
X017443Y012581D01*
X017443Y013106D01*
X017423Y013106D01*
X017413Y013231D02*
X017453Y013251D01*
X017438Y013286D01*
X017398Y013281D01*
X017398Y013256D01*
X017703Y013366D02*
X017738Y013371D01*
X017738Y012581D01*
X017698Y012581D02*
X017703Y013366D01*
X017963Y013246D02*
X017998Y013246D01*
X018003Y012711D01*
X018028Y012651D01*
X018058Y012626D01*
X018213Y012616D01*
X018208Y012581D02*
X018048Y012596D01*
X017993Y012631D01*
X017968Y012711D01*
X017963Y013246D01*
X018023Y013091D02*
X018213Y013096D01*
X018208Y013061D01*
X018008Y013066D01*
X018348Y012946D02*
X018328Y012831D01*
X018353Y012731D01*
X018433Y012626D01*
X018533Y012586D01*
X018653Y012581D01*
X018738Y012611D01*
X018828Y012691D01*
X018858Y012786D01*
X018818Y012791D02*
X018803Y012731D01*
X018748Y012661D01*
X018673Y012616D01*
X018543Y012611D01*
X018443Y012661D01*
X018378Y012766D01*
X018373Y012871D01*
X018393Y012951D01*
X018443Y013021D01*
X018513Y013061D01*
X018578Y013071D01*
X018693Y013066D01*
X018778Y012981D01*
X018483Y012816D01*
X018498Y012791D01*
X018833Y012976D01*
X018813Y013006D01*
X018743Y013066D01*
X018678Y013101D01*
X018528Y013101D01*
X018413Y013046D01*
X018348Y012946D01*
X019003Y013021D02*
X019008Y012936D01*
X019053Y012886D01*
X019228Y012816D01*
X019238Y012806D02*
X019323Y012786D01*
X019363Y012736D01*
X019358Y012656D01*
X019303Y012626D01*
X018998Y012621D01*
X018993Y012581D02*
X019303Y012591D01*
X019378Y012626D01*
X019403Y012691D01*
X019403Y012746D01*
X019363Y012801D01*
X019083Y012906D01*
X019048Y012946D01*
X019048Y013016D01*
X019078Y013051D01*
X019108Y013061D01*
X019378Y013061D01*
X019378Y013096D01*
X019098Y013091D01*
X019033Y013061D01*
X019003Y013021D01*
X019263Y012861D02*
X019308Y012831D01*
X019528Y012866D02*
X019548Y012736D01*
X019618Y012636D01*
X019693Y012586D01*
X019838Y012576D01*
X019908Y012611D01*
X019913Y012651D01*
X019833Y012611D01*
X019753Y012616D01*
X019683Y012631D01*
X019613Y012696D01*
X019568Y012781D01*
X019578Y012896D01*
X019608Y012981D01*
X019658Y013036D01*
X019728Y013071D01*
X019818Y013076D01*
X019908Y013056D01*
X019978Y013001D01*
X020023Y012906D01*
X020018Y012581D01*
X020058Y012581D02*
X020053Y012931D01*
X020028Y012981D01*
X019978Y013051D01*
X019878Y013101D01*
X019738Y013106D01*
X019633Y013061D01*
X019563Y012981D01*
X019528Y012866D01*
X020278Y012641D02*
X020273Y012611D01*
X020283Y012591D01*
X020298Y012621D01*
X020278Y012641D02*
X020318Y012651D01*
X020343Y012611D01*
X020308Y012576D01*
X020603Y012701D02*
X020563Y012786D01*
X020568Y012906D01*
X020628Y013026D01*
X020748Y013086D01*
X020883Y013101D01*
X020883Y013066D01*
X020778Y013061D01*
X020668Y013011D01*
X020618Y012921D01*
X020603Y012816D01*
X020633Y012716D01*
X020723Y012641D01*
X020813Y012621D01*
X020893Y012621D01*
X020888Y012586D02*
X020753Y012596D01*
X020663Y012641D01*
X020603Y012701D01*
X021018Y012766D02*
X021083Y012651D01*
X021158Y012601D01*
X021258Y012576D01*
X021298Y012606D01*
X021203Y012621D01*
X021118Y012671D01*
X021068Y012751D01*
X021053Y012836D01*
X021073Y012941D01*
X021123Y013021D01*
X021228Y013076D01*
X021318Y013071D01*
X021418Y013036D01*
X021468Y012986D01*
X021508Y012891D01*
X021498Y012786D01*
X021473Y012721D01*
X021423Y012661D01*
X021323Y012601D01*
X021318Y012621D01*
X021368Y012591D02*
X021448Y012631D01*
X021513Y012706D01*
X021548Y012811D01*
X021533Y012936D01*
X021468Y013036D01*
X021358Y013096D01*
X021223Y013106D01*
X021323Y013111D01*
X021178Y013096D01*
X021088Y013036D01*
X021033Y012941D01*
X021013Y012876D01*
X021018Y012766D01*
X021283Y012571D02*
X021368Y012591D01*
X021708Y012581D02*
X021713Y012981D01*
X021753Y013061D01*
X021748Y012581D01*
X022033Y012586D02*
X022028Y013036D01*
X022013Y013051D02*
X021948Y013101D01*
X021888Y013111D01*
X021828Y013101D01*
X021763Y013071D01*
X021803Y013051D02*
X021848Y013071D01*
X021918Y013076D01*
X021958Y013061D01*
X022008Y013011D01*
X022073Y013036D02*
X022073Y012576D01*
X022358Y012576D02*
X022358Y013046D01*
X022338Y013061D02*
X022253Y013106D01*
X022188Y013106D01*
X022138Y013086D01*
X022098Y013061D01*
X022143Y013056D02*
X022193Y013081D01*
X022263Y013071D01*
X022313Y013041D01*
X022338Y012996D01*
X022338Y013061D01*
X022383Y013016D02*
X022398Y012586D01*
X022088Y013011D02*
X022143Y013056D01*
X021803Y013051D02*
X021773Y013011D01*
X014210Y014882D02*
X013050Y014882D01*
X013050Y016006D01*
X013030Y016050D01*
X013006Y016092D01*
X012979Y016132D01*
X012949Y016170D01*
X012916Y016205D01*
X012880Y016238D01*
X012842Y016268D01*
X012802Y016295D01*
X012759Y016318D01*
X012715Y016338D01*
X012670Y016355D01*
X012623Y016368D01*
X012576Y016377D01*
X012528Y016382D01*
X012479Y016384D01*
X012431Y016382D01*
X012383Y016376D01*
X012336Y016366D01*
X012289Y016353D01*
X012244Y016336D01*
X012144Y016242D02*
X009354Y016242D01*
X009353Y016241D02*
X009342Y016261D01*
X009328Y016280D01*
X009313Y016297D01*
X009295Y016312D01*
X009276Y016325D01*
X009256Y016335D01*
X009256Y016336D02*
X009211Y016353D01*
X009164Y016366D01*
X009117Y016376D01*
X009069Y016382D01*
X009021Y016384D01*
X008972Y016382D01*
X008924Y016377D01*
X008877Y016368D01*
X008830Y016355D01*
X008785Y016338D01*
X008741Y016318D01*
X008698Y016295D01*
X008658Y016268D01*
X008620Y016238D01*
X008584Y016205D01*
X008551Y016170D01*
X008521Y016132D01*
X008494Y016092D01*
X008470Y016050D01*
X008450Y016006D01*
X008450Y013092D01*
X008449Y013092D02*
X008459Y013033D01*
X008473Y012974D01*
X008491Y012916D01*
X008512Y012860D01*
X008536Y012805D01*
X008564Y012751D01*
X008595Y012700D01*
X008629Y012650D01*
X008665Y012602D01*
X008705Y012557D01*
X008747Y012514D01*
X008792Y012474D01*
X008840Y012437D01*
X008889Y012402D01*
X008940Y012371D01*
X008994Y012343D01*
X009048Y012318D01*
X009105Y012296D01*
X009162Y012278D01*
X009220Y012264D01*
X009280Y012253D01*
X009339Y012245D01*
X009399Y012242D01*
X009400Y012242D02*
X009450Y012242D01*
X009450Y010092D01*
X008390Y010092D01*
X006250Y012242D01*
X006250Y012782D01*
X006294Y012784D01*
X006337Y012790D01*
X006379Y012799D01*
X006421Y012812D01*
X006461Y012829D01*
X006500Y012849D01*
X006537Y012872D01*
X006571Y012899D01*
X006604Y012928D01*
X006633Y012961D01*
X006660Y012995D01*
X006683Y013032D01*
X006703Y013071D01*
X006720Y013111D01*
X006733Y013153D01*
X006742Y013195D01*
X006748Y013238D01*
X006750Y013282D01*
X006748Y013326D01*
X006742Y013369D01*
X006733Y013411D01*
X006720Y013453D01*
X006703Y013493D01*
X006683Y013532D01*
X006660Y013569D01*
X006633Y013603D01*
X006604Y013636D01*
X006571Y013665D01*
X006537Y013692D01*
X006500Y013715D01*
X006461Y013735D01*
X006421Y013752D01*
X006379Y013765D01*
X006337Y013774D01*
X006294Y013780D01*
X006250Y013782D01*
X006250Y015082D01*
X006248Y015105D01*
X006243Y015128D01*
X006234Y015150D01*
X006221Y015170D01*
X006206Y015188D01*
X006188Y015203D01*
X006168Y015216D01*
X006146Y015225D01*
X006123Y015230D01*
X006100Y015232D01*
X004650Y015232D01*
X004627Y015230D01*
X004604Y015225D01*
X004582Y015216D01*
X004562Y015203D01*
X004544Y015188D01*
X004529Y015170D01*
X004516Y015150D01*
X004507Y015128D01*
X004502Y015105D01*
X004500Y015082D01*
X004500Y014832D01*
X004350Y014682D02*
X004050Y014582D01*
X003900Y014432D02*
X003900Y013832D01*
X003909Y013806D01*
X003921Y013781D01*
X003937Y013758D01*
X003955Y013737D01*
X003976Y013719D01*
X003999Y013703D01*
X004024Y013691D01*
X004050Y013682D01*
X004350Y013582D01*
X004650Y013132D02*
X004650Y011932D01*
X002900Y011932D01*
X002900Y016622D01*
X002902Y016652D01*
X002907Y016682D01*
X002916Y016711D01*
X002929Y016738D01*
X002944Y016764D01*
X002963Y016788D01*
X002984Y016809D01*
X003008Y016828D01*
X003034Y016843D01*
X003061Y016856D01*
X003090Y016865D01*
X003120Y016870D01*
X003150Y016872D01*
X007632Y016872D01*
X007632Y016873D02*
X007633Y016901D01*
X007637Y016929D01*
X007644Y016956D01*
X007656Y016982D01*
X007670Y017007D01*
X007688Y017029D01*
X007708Y017049D01*
X007731Y017066D01*
X007756Y017080D01*
X007782Y017090D01*
X007809Y017097D01*
X007838Y017101D01*
X007837Y017100D02*
X007987Y017100D01*
X008015Y017096D01*
X008042Y017089D01*
X008068Y017078D01*
X008092Y017064D01*
X008114Y017047D01*
X008134Y017027D01*
X008151Y017005D01*
X008165Y016981D01*
X008176Y016955D01*
X008183Y016928D01*
X008187Y016900D01*
X008187Y016872D01*
X013375Y016872D01*
X013375Y016900D01*
X013379Y016928D01*
X013386Y016955D01*
X013397Y016981D01*
X013411Y017005D01*
X013428Y017027D01*
X013448Y017047D01*
X013470Y017064D01*
X013494Y017078D01*
X013520Y017089D01*
X013547Y017096D01*
X013575Y017100D01*
X013725Y017100D01*
X013753Y017096D01*
X013780Y017089D01*
X013806Y017078D01*
X013830Y017064D01*
X013852Y017047D01*
X013872Y017027D01*
X013889Y017005D01*
X013903Y016981D01*
X013914Y016955D01*
X013921Y016928D01*
X013925Y016900D01*
X013925Y016872D01*
X013970Y016872D01*
X013999Y016870D01*
X014028Y016864D01*
X014057Y016854D01*
X014083Y016842D01*
X014108Y016826D01*
X014131Y016807D01*
X014152Y016786D01*
X014169Y016762D01*
X014184Y016736D01*
X014196Y016709D01*
X014204Y016681D01*
X014209Y016652D01*
X014210Y016622D01*
X014210Y014882D01*
X012243Y016335D02*
X012223Y016325D01*
X012203Y016312D01*
X012185Y016297D01*
X012169Y016280D01*
X012155Y016261D01*
X012144Y016241D01*
X010169Y012648D02*
X010221Y012596D01*
X010169Y012648D02*
X010066Y012648D01*
X010014Y012596D01*
X010014Y012493D01*
X010066Y012441D01*
X010117Y012441D01*
X010221Y012493D01*
X010221Y012338D01*
X010014Y012338D01*
X009889Y012338D02*
X009889Y012545D01*
X009786Y012648D01*
X009683Y012545D01*
X009683Y012338D01*
X009602Y009718D02*
X009608Y009712D01*
X009572Y009456D01*
X009580Y009406D01*
X009626Y009374D01*
X009672Y009364D01*
X009716Y009372D01*
X009748Y009396D01*
X009770Y009424D01*
X009816Y009712D01*
X009930Y009668D02*
X009970Y009704D01*
X010006Y009708D01*
X010062Y009708D01*
X009930Y009668D02*
X009924Y009606D01*
X009966Y009564D01*
X010030Y009536D01*
X010062Y009494D01*
X010068Y009438D01*
X010024Y009384D01*
X009956Y009366D01*
X009880Y009384D01*
X010158Y009362D02*
X010188Y009552D01*
X010250Y009552D01*
X010286Y009562D01*
X010338Y009512D01*
X010352Y009450D01*
X010340Y009410D01*
X010304Y009382D01*
X010240Y009368D01*
X010164Y009364D01*
X010186Y009572D02*
X010198Y009588D01*
X010192Y009606D01*
X010208Y009712D01*
X010246Y009712D01*
X010292Y009702D01*
X010320Y009680D01*
X010332Y009640D01*
X010332Y009608D01*
X010310Y009578D01*
X010620Y009574D02*
X010640Y009612D01*
X010676Y009662D01*
X010718Y009692D01*
X010762Y009706D01*
X010822Y009714D01*
X010882Y009714D01*
X010996Y009724D02*
X010946Y009362D01*
X010846Y009398D02*
X010842Y009392D01*
X010788Y009374D01*
X010732Y009372D01*
X010688Y009378D01*
X010648Y009414D01*
X010626Y009448D01*
X010614Y009496D01*
X010620Y009574D01*
X010994Y009550D02*
X011188Y009548D01*
X011236Y009716D02*
X011182Y009368D01*
X011294Y009364D02*
X011438Y009680D01*
X011464Y009716D02*
X011524Y009368D01*
X011632Y009368D02*
X011640Y009376D01*
X011686Y009710D01*
X011750Y009712D01*
X011786Y009708D01*
X011816Y009692D01*
X011830Y009664D01*
X011840Y009640D01*
X011844Y009618D01*
X011822Y009586D01*
X011804Y009560D01*
X011776Y009548D01*
X011752Y009544D01*
X011724Y009554D01*
X011694Y009558D01*
X011730Y009532D01*
X011750Y009490D01*
X011818Y009364D01*
X011830Y009362D01*
X011940Y009434D02*
X011980Y009396D01*
X012022Y009376D01*
X012074Y009370D01*
X012128Y009382D01*
X012148Y009404D01*
X012156Y009398D01*
X012172Y009498D01*
X012104Y009504D01*
X012098Y009494D01*
X012148Y009484D01*
X012148Y009402D01*
X012256Y009366D02*
X012308Y009716D01*
X012204Y009712D02*
X012110Y009712D01*
X012036Y009688D01*
X011968Y009642D01*
X011938Y009580D01*
X011922Y009510D01*
X011940Y009434D01*
X012256Y009366D02*
X012262Y009366D01*
X012374Y009360D02*
X012426Y009714D01*
X012448Y009706D01*
X012458Y009646D01*
X012476Y009654D01*
X012474Y009618D01*
X012492Y009600D01*
X012600Y009372D01*
X012612Y009372D01*
X012660Y009716D01*
X012782Y009644D02*
X012752Y009582D01*
X012736Y009512D01*
X012754Y009436D01*
X012794Y009398D01*
X012836Y009378D01*
X012888Y009372D01*
X012942Y009384D01*
X012962Y009406D01*
X012970Y009400D01*
X012986Y009500D01*
X012918Y009506D01*
X012912Y009496D01*
X012962Y009486D01*
X012962Y009404D01*
X013228Y009364D02*
X013278Y009716D01*
X013292Y009586D02*
X013348Y009460D01*
X013410Y009364D01*
X013524Y009366D02*
X013576Y009716D01*
X013672Y009710D02*
X013880Y009712D01*
X013780Y009704D02*
X013734Y009366D01*
X013530Y009366D02*
X013524Y009366D01*
X013298Y009538D02*
X013426Y009712D01*
X013438Y009718D01*
X013018Y009714D02*
X012924Y009714D01*
X012850Y009690D01*
X012782Y009644D01*
X012602Y009434D02*
X012582Y009448D01*
X011458Y009480D02*
X011368Y009482D01*
X011422Y009616D02*
X011456Y009616D01*
X009286Y009658D02*
X009283Y009616D01*
X009269Y009579D01*
X009233Y009551D01*
X009183Y009550D01*
X009137Y009550D01*
X009132Y009674D02*
X009084Y009362D01*
X008974Y009412D02*
X008938Y009384D01*
X008874Y009370D01*
X008798Y009366D01*
X008792Y009364D02*
X008822Y009554D01*
X008884Y009554D01*
X008920Y009564D01*
X008972Y009514D01*
X008986Y009452D01*
X008974Y009412D01*
X008944Y009580D02*
X008966Y009610D01*
X008966Y009642D01*
X008954Y009682D01*
X008926Y009704D01*
X008880Y009714D01*
X008842Y009714D01*
X008826Y009608D01*
X008832Y009590D01*
X008820Y009574D01*
X008706Y009496D02*
X008638Y009502D01*
X008632Y009492D01*
X008682Y009482D01*
X008682Y009400D01*
X008682Y009402D02*
X008690Y009396D01*
X008706Y009496D01*
X008682Y009402D02*
X008662Y009380D01*
X008608Y009368D01*
X008556Y009374D01*
X008514Y009394D01*
X008474Y009432D01*
X008456Y009508D01*
X008472Y009578D01*
X008502Y009640D01*
X008570Y009686D01*
X008644Y009710D01*
X008738Y009710D01*
X009121Y009711D02*
X009193Y009712D01*
X009236Y009708D01*
X009270Y009689D01*
X009286Y009658D01*
X009132Y009674D02*
X009127Y009710D01*
X004650Y013132D02*
X004641Y013177D01*
X004629Y013222D01*
X004614Y013266D01*
X004595Y013309D01*
X004574Y013350D01*
X004550Y013390D01*
X004522Y013428D01*
X004492Y013463D01*
X004460Y013497D01*
X004425Y013528D01*
X004388Y013556D01*
X004350Y013582D01*
X003900Y014432D02*
X003909Y014458D01*
X003921Y014483D01*
X003937Y014506D01*
X003955Y014527D01*
X003976Y014545D01*
X003999Y014561D01*
X004024Y014573D01*
X004050Y014582D01*
X004350Y014682D02*
X004379Y014695D01*
X004405Y014711D01*
X004430Y014730D01*
X004452Y014752D01*
X004471Y014777D01*
X004487Y014803D01*
X004500Y014832D01*
D11*
X014861Y008831D02*
X014861Y008340D01*
X015806Y008340D01*
X015806Y008831D01*
X014861Y008831D01*
X016068Y008833D02*
X016560Y008833D01*
X016560Y007888D01*
X016068Y007888D01*
X016068Y008833D01*
X016687Y008833D02*
X017179Y008833D01*
X017179Y007888D01*
X016687Y007888D01*
X016687Y008833D01*
X017278Y007619D02*
X017479Y007419D01*
X017529Y007469D01*
X017529Y007569D01*
X017479Y007619D01*
X017278Y007619D01*
X017228Y007569D01*
X017228Y007469D01*
X017278Y007419D01*
X017479Y007419D01*
X017529Y007288D02*
X017529Y007087D01*
X017529Y007187D02*
X017228Y007187D01*
X017328Y007087D01*
X017228Y006956D02*
X017529Y006756D01*
X017479Y006625D02*
X017529Y006575D01*
X017529Y006474D01*
X017479Y006424D01*
X017529Y006293D02*
X017529Y006093D01*
X017328Y006293D01*
X017278Y006293D01*
X017228Y006243D01*
X017228Y006143D01*
X017278Y006093D01*
X017278Y005962D02*
X017479Y005761D01*
X017529Y005811D01*
X017529Y005912D01*
X017479Y005962D01*
X017278Y005962D01*
X017228Y005912D01*
X017228Y005811D01*
X017278Y005761D01*
X017479Y005761D01*
X017529Y005630D02*
X017529Y005430D01*
X017328Y005630D01*
X017278Y005630D01*
X017228Y005580D01*
X017228Y005480D01*
X017278Y005430D01*
X017107Y005004D02*
X015687Y005004D01*
X014560Y006157D02*
X014560Y006322D01*
X017228Y006474D02*
X017228Y006575D01*
X017278Y006625D01*
X017328Y006625D01*
X017378Y006575D01*
X017428Y006625D01*
X017479Y006625D01*
X017378Y006575D02*
X017378Y006524D01*
X017278Y006424D02*
X017228Y006474D01*
X017678Y006492D02*
X017678Y006392D01*
X017728Y006342D01*
X017678Y006210D02*
X017878Y006210D01*
X017979Y006110D01*
X017878Y006010D01*
X017678Y006010D01*
X017979Y006342D02*
X017778Y006542D01*
X017728Y006542D01*
X017678Y006492D01*
X017979Y006542D02*
X017979Y006342D01*
X017979Y006673D02*
X017979Y006723D01*
X017929Y006723D01*
X017929Y006673D01*
X017979Y006673D01*
X017929Y006839D02*
X017728Y006839D01*
X017678Y006889D01*
X017678Y006989D01*
X017728Y007039D01*
X017929Y006839D01*
X017979Y006889D01*
X017979Y006989D01*
X017929Y007039D01*
X017728Y007039D01*
X019659Y004504D02*
X019829Y004504D01*
X019886Y004447D01*
X019886Y004220D01*
X019829Y004164D01*
X019659Y004164D01*
X019659Y004504D01*
X019715Y003504D02*
X019659Y003447D01*
X019659Y003220D01*
X019715Y003164D01*
X019829Y003164D01*
X019886Y003220D01*
X019886Y003447D02*
X019829Y003504D01*
X019715Y003504D01*
X017107Y003144D02*
X015687Y003144D01*
X022352Y013868D02*
X022212Y014008D01*
X022332Y014188D01*
X022360Y014223D02*
X022705Y014223D01*
X022732Y014268D02*
X022582Y014018D01*
X022532Y014018D01*
X022382Y013918D01*
X022282Y014018D01*
X022382Y014168D01*
X022282Y014418D01*
X022082Y014468D01*
X022082Y014618D01*
X022282Y014618D01*
X022382Y014868D01*
X022232Y015068D01*
X022382Y015168D01*
X022532Y015018D01*
X022732Y015118D01*
X022782Y015318D01*
X022932Y015318D01*
X022982Y015118D01*
X023182Y015018D01*
X023382Y015168D01*
X023482Y015068D01*
X023382Y014868D01*
X023482Y014618D01*
X023682Y014618D01*
X023682Y014468D01*
X023432Y014418D01*
X023382Y014168D01*
X023482Y014018D01*
X023382Y013918D01*
X023232Y014018D01*
X023132Y013968D01*
X023032Y014268D01*
X023182Y014468D01*
X023132Y014718D01*
X022932Y014818D01*
X022732Y014818D01*
X022582Y014668D01*
X022582Y014368D01*
X022732Y014268D01*
X022712Y014281D02*
X022337Y014281D01*
X022313Y014340D02*
X022625Y014340D01*
X022582Y014398D02*
X022290Y014398D01*
X022252Y014388D02*
X022032Y014428D01*
X022032Y014628D01*
X022262Y014668D01*
X022288Y014632D02*
X022582Y014632D01*
X022582Y014574D02*
X022082Y014574D01*
X022082Y014515D02*
X022582Y014515D01*
X022582Y014457D02*
X022128Y014457D01*
X022379Y014164D02*
X022670Y014164D01*
X022635Y014106D02*
X022340Y014106D01*
X022301Y014047D02*
X022599Y014047D01*
X022532Y013988D02*
X022352Y013868D01*
X022370Y013930D02*
X022400Y013930D01*
X022488Y013989D02*
X022311Y013989D01*
X022532Y013988D02*
X022602Y013948D01*
X022752Y014288D01*
X022992Y014288D02*
X023132Y013948D01*
X023212Y013988D01*
X023392Y013868D01*
X023532Y014008D01*
X023402Y014188D01*
X023385Y014164D02*
X023067Y014164D01*
X023086Y014106D02*
X023424Y014106D01*
X023463Y014047D02*
X023106Y014047D01*
X023125Y013989D02*
X023173Y013989D01*
X023276Y013989D02*
X023453Y013989D01*
X023394Y013930D02*
X023364Y013930D01*
X023393Y014223D02*
X023047Y014223D01*
X023042Y014281D02*
X023405Y014281D01*
X023416Y014340D02*
X023086Y014340D01*
X023130Y014398D02*
X023428Y014398D01*
X023482Y014388D02*
X023702Y014428D01*
X023702Y014628D01*
X023482Y014668D01*
X023476Y014632D02*
X023149Y014632D01*
X023161Y014574D02*
X023682Y014574D01*
X023682Y014515D02*
X023173Y014515D01*
X023173Y014457D02*
X023625Y014457D01*
X023453Y014691D02*
X023138Y014691D01*
X023070Y014749D02*
X023430Y014749D01*
X023406Y014808D02*
X022953Y014808D01*
X022722Y014808D02*
X022358Y014808D01*
X022342Y014858D02*
X022212Y015048D01*
X022352Y015188D01*
X022542Y015058D01*
X022508Y015042D02*
X022252Y015042D01*
X022280Y015100D02*
X022450Y015100D01*
X022391Y015159D02*
X022368Y015159D01*
X022296Y014983D02*
X023440Y014983D01*
X023410Y014925D02*
X022340Y014925D01*
X022381Y014866D02*
X023383Y014866D01*
X023392Y014858D02*
X023532Y015048D01*
X023392Y015188D01*
X023192Y015058D01*
X023213Y015042D02*
X023469Y015042D01*
X023450Y015100D02*
X023291Y015100D01*
X023369Y015159D02*
X023391Y015159D01*
X023135Y015042D02*
X022579Y015042D01*
X022696Y015100D02*
X023018Y015100D01*
X023012Y015128D02*
X022962Y015368D01*
X022772Y015368D01*
X022722Y015128D01*
X022742Y015159D02*
X022972Y015159D01*
X022957Y015217D02*
X022757Y015217D01*
X022771Y015276D02*
X022943Y015276D01*
X022663Y014749D02*
X022334Y014749D01*
X022311Y014691D02*
X022605Y014691D01*
X022254Y014372D02*
X022269Y014325D01*
X022287Y014279D01*
X022309Y014235D01*
X022334Y014193D01*
X022544Y015054D02*
X022586Y015077D01*
X022629Y015096D01*
X022674Y015113D01*
X022720Y015125D01*
X022752Y014288D02*
X022724Y014304D01*
X022697Y014323D01*
X022674Y014345D01*
X022653Y014370D01*
X022635Y014398D01*
X022620Y014427D01*
X022610Y014458D01*
X022602Y014489D01*
X022599Y014522D01*
X022600Y014554D01*
X022604Y014587D01*
X022613Y014618D01*
X022625Y014648D01*
X022640Y014677D01*
X022659Y014704D01*
X022681Y014728D01*
X022705Y014749D01*
X022732Y014768D01*
X022761Y014783D01*
X022792Y014794D01*
X022823Y014802D01*
X022856Y014806D01*
X022888Y014806D01*
X022921Y014802D01*
X022952Y014794D01*
X022983Y014783D01*
X023012Y014768D01*
X023039Y014749D01*
X023063Y014728D01*
X023085Y014704D01*
X023104Y014677D01*
X023119Y014648D01*
X023131Y014618D01*
X023140Y014587D01*
X023144Y014554D01*
X023145Y014522D01*
X023142Y014489D01*
X023134Y014458D01*
X023124Y014427D01*
X023109Y014398D01*
X023091Y014370D01*
X023070Y014345D01*
X023047Y014323D01*
X023020Y014304D01*
X022992Y014288D01*
X023484Y014669D02*
X023472Y014709D01*
X023457Y014748D01*
X023439Y014786D01*
X023419Y014822D01*
X023397Y014857D01*
X023191Y015058D02*
X023148Y015081D01*
X023104Y015101D01*
X023058Y015117D01*
X023012Y015129D01*
X023481Y014389D02*
X023471Y014347D01*
X023458Y014306D01*
X023442Y014266D01*
X023423Y014227D01*
X023401Y014190D01*
X022260Y014670D02*
X022271Y014710D01*
X022285Y014749D01*
X022301Y014786D01*
X022320Y014823D01*
X022341Y014858D01*
X020495Y014404D02*
X020495Y014191D01*
X020442Y014138D01*
X020335Y014138D01*
X020282Y014191D01*
X020495Y014404D01*
X020442Y014458D01*
X020335Y014458D01*
X020282Y014404D01*
X020282Y014191D01*
X020145Y014138D02*
X019932Y014138D01*
X020039Y014138D02*
X020039Y014458D01*
X019932Y014351D01*
X019795Y014458D02*
X019582Y014138D01*
X019445Y014191D02*
X019392Y014138D01*
X019285Y014138D01*
X019232Y014191D01*
X019096Y014138D02*
X018882Y014138D01*
X019096Y014351D01*
X019096Y014404D01*
X019042Y014458D01*
X018935Y014458D01*
X018882Y014404D01*
X018746Y014404D02*
X018746Y014191D01*
X018692Y014138D01*
X018586Y014138D01*
X018532Y014191D01*
X018746Y014404D01*
X018692Y014458D01*
X018586Y014458D01*
X018532Y014404D01*
X018532Y014191D01*
X018396Y014138D02*
X018182Y014138D01*
X018396Y014351D01*
X018396Y014404D01*
X018342Y014458D01*
X018236Y014458D01*
X018182Y014404D01*
X018795Y014743D02*
X018901Y014636D01*
X019008Y014743D01*
X019008Y014957D01*
X019145Y014903D02*
X019198Y014957D01*
X019305Y014957D01*
X019358Y014903D01*
X019358Y014850D01*
X019145Y014636D01*
X019358Y014636D01*
X019494Y014636D02*
X019494Y014690D01*
X019548Y014690D01*
X019548Y014636D01*
X019494Y014636D01*
X019669Y014690D02*
X019883Y014903D01*
X019883Y014690D01*
X019829Y014636D01*
X019723Y014636D01*
X019669Y014690D01*
X019669Y014903D01*
X019723Y014957D01*
X019829Y014957D01*
X019883Y014903D01*
X019392Y014458D02*
X019285Y014458D01*
X019232Y014404D01*
X019339Y014298D02*
X019392Y014298D01*
X019445Y014244D01*
X019445Y014191D01*
X019392Y014298D02*
X019445Y014351D01*
X019445Y014404D01*
X019392Y014458D01*
X018795Y014743D02*
X018795Y014957D01*
D12*
X018841Y016251D02*
X018841Y016671D01*
X018981Y016671D02*
X018700Y016671D01*
X018520Y016531D02*
X018520Y016251D01*
X018520Y016461D02*
X018240Y016461D01*
X018240Y016531D02*
X018240Y016251D01*
X018060Y016321D02*
X018060Y016391D01*
X017990Y016461D01*
X017780Y016461D01*
X017990Y016461D02*
X018060Y016531D01*
X018060Y016601D01*
X017990Y016671D01*
X017780Y016671D01*
X017780Y016251D01*
X017990Y016251D01*
X018060Y016321D01*
X018240Y016531D02*
X018380Y016671D01*
X018520Y016531D01*
X018592Y017143D02*
X018709Y017906D01*
X018717Y017932D02*
X018712Y017939D01*
X018787Y017937D01*
X018673Y017144D01*
X018592Y017143D01*
X018837Y017144D02*
X019202Y017935D01*
X019271Y017943D01*
X019410Y017138D01*
X019341Y017140D01*
X019227Y017871D01*
X019191Y017723D01*
X019165Y017692D01*
X018914Y017150D01*
X018907Y017147D01*
X018850Y017147D02*
X018837Y017144D01*
X019027Y017381D02*
X019249Y017378D01*
X019241Y017437D01*
X019103Y017437D01*
X018603Y017523D02*
X018278Y017526D01*
X018269Y017584D02*
X018615Y017580D01*
X018603Y017523D01*
X018285Y017937D02*
X018167Y017154D01*
X018092Y017149D01*
X018205Y017877D01*
X018210Y017925D02*
X018204Y017937D01*
X018285Y017937D01*
X018032Y017946D02*
X018027Y017887D01*
X017889Y017887D01*
X017750Y017879D01*
X017666Y017839D01*
X017570Y017789D01*
X017522Y017735D01*
X017486Y017665D01*
X017462Y017599D01*
X017449Y017514D01*
X017445Y017414D01*
X017479Y017340D01*
X017523Y017262D01*
X017583Y017226D01*
X017650Y017215D01*
X017733Y017209D01*
X017815Y017220D01*
X017871Y017232D01*
X017926Y017254D01*
X017945Y017278D01*
X017916Y017186D01*
X017846Y017165D01*
X017756Y017154D01*
X017669Y017151D01*
X017600Y017163D01*
X017536Y017195D01*
X017446Y017272D01*
X017384Y017405D01*
X017387Y017542D01*
X017412Y017671D01*
X017487Y017780D01*
X017578Y017859D01*
X017672Y017909D01*
X017741Y017938D01*
X017998Y017945D01*
X018032Y017947D02*
X018032Y017946D01*
X016987Y017943D02*
X016987Y017942D01*
X016982Y017883D01*
X016844Y017883D01*
X016705Y017875D01*
X016621Y017835D01*
X016525Y017785D01*
X016477Y017731D01*
X016441Y017661D01*
X016417Y017595D01*
X016404Y017510D01*
X016400Y017410D01*
X016434Y017336D01*
X016478Y017258D01*
X016538Y017222D01*
X016605Y017211D01*
X016688Y017205D01*
X016770Y017216D01*
X016826Y017228D01*
X016881Y017250D01*
X016900Y017274D01*
X016871Y017182D01*
X016801Y017161D01*
X016711Y017150D01*
X016624Y017147D01*
X016555Y017159D01*
X016491Y017191D01*
X016401Y017268D01*
X016339Y017401D01*
X016342Y017538D01*
X016367Y017667D01*
X016442Y017776D01*
X016533Y017855D01*
X016627Y017905D01*
X016696Y017934D01*
X016953Y017941D01*
X016186Y017593D02*
X016175Y017525D01*
X015872Y017518D01*
X015881Y017553D01*
X015891Y017593D02*
X016186Y017593D01*
X015682Y017479D02*
X015654Y017493D01*
X015651Y017503D02*
X015692Y017406D01*
X015688Y017309D01*
X015634Y017217D01*
X015572Y017168D01*
X015505Y017152D01*
X015255Y017153D01*
X015294Y017224D01*
X015378Y017875D01*
X015464Y017879D01*
X015544Y017874D01*
X015562Y017840D01*
X015599Y017772D01*
X015594Y017705D01*
X015552Y017647D01*
X015493Y017606D01*
X015430Y017603D01*
X015391Y017603D01*
X015381Y017545D01*
X015448Y017541D01*
X015495Y017537D01*
X015549Y017587D01*
X015534Y017525D01*
X015587Y017488D01*
X015626Y017424D01*
X015630Y017327D01*
X015594Y017256D01*
X015507Y017198D01*
X015348Y017199D01*
X015207Y017148D02*
X015327Y017933D01*
X015544Y017937D01*
X015617Y017883D01*
X015654Y017816D01*
X015656Y017736D01*
X015645Y017683D01*
X015589Y017602D01*
X015600Y017563D01*
X015651Y017503D01*
X015082Y017428D02*
X015032Y017526D01*
X014951Y017581D01*
X014806Y017631D01*
X014803Y017653D01*
X014762Y017744D01*
X014800Y017829D01*
X014858Y017870D01*
X014930Y017887D01*
X015057Y017875D01*
X015063Y017934D02*
X014884Y017937D01*
X014806Y017902D01*
X014738Y017834D01*
X014702Y017734D01*
X014744Y017628D01*
X014815Y017575D01*
X014912Y017528D01*
X014970Y017496D01*
X015013Y017426D01*
X015023Y017342D01*
X014965Y017248D01*
X014911Y017212D01*
X014835Y017205D01*
X014716Y017212D01*
X014624Y017246D01*
X014628Y017187D01*
X014624Y017181D01*
X014766Y017145D01*
X014862Y017145D01*
X014951Y017176D01*
X015026Y017236D01*
X015070Y017311D01*
X015082Y017428D01*
X015051Y017934D02*
X015063Y017934D01*
X014544Y017941D02*
X014478Y017944D01*
X014372Y017280D01*
X014338Y017267D01*
X014295Y017207D01*
X014141Y017194D01*
X014043Y017237D01*
X014018Y017345D01*
X014084Y017929D01*
X014095Y017939D01*
X014069Y017941D01*
X014020Y017936D02*
X013952Y017332D01*
X013962Y017266D01*
X014006Y017205D01*
X014067Y017158D01*
X014141Y017142D01*
X014263Y017139D01*
X014330Y017162D01*
X014408Y017228D01*
X014451Y017309D01*
X014544Y017941D01*
X013501Y017777D02*
X013496Y017719D01*
X013467Y017637D01*
X013434Y017584D01*
X013373Y017551D01*
X013317Y017523D01*
X013209Y017525D01*
X013167Y017528D01*
X013170Y017590D01*
X013290Y017583D01*
X013343Y017599D01*
X013393Y017645D01*
X013421Y017718D01*
X013436Y017786D01*
X013390Y017834D01*
X013364Y017877D01*
X013316Y017880D01*
X013212Y017888D01*
X013146Y017933D01*
X013092Y017936D01*
X012997Y017204D01*
X013158Y017916D01*
X013177Y017936D02*
X013287Y017938D01*
X013361Y017922D01*
X013425Y017895D01*
X013470Y017834D01*
X013501Y017777D01*
X013177Y017936D02*
X013059Y017153D01*
X012988Y017151D01*
X012795Y017219D02*
X012733Y017170D01*
X012666Y017154D01*
X012416Y017155D01*
X012455Y017226D01*
X012539Y017877D01*
X012625Y017881D01*
X012705Y017876D01*
X012723Y017842D01*
X012760Y017774D01*
X012755Y017707D01*
X012713Y017649D01*
X012654Y017608D01*
X012591Y017605D01*
X012552Y017605D01*
X012542Y017547D01*
X012609Y017543D01*
X012656Y017539D01*
X012710Y017589D01*
X012695Y017527D01*
X012748Y017490D01*
X012787Y017426D01*
X012791Y017329D01*
X012755Y017258D01*
X012668Y017200D01*
X012509Y017201D01*
X012368Y017150D02*
X012488Y017935D01*
X012705Y017939D01*
X012778Y017885D01*
X012815Y017818D01*
X012817Y017738D01*
X012806Y017685D01*
X012750Y017604D01*
X012761Y017565D01*
X012812Y017505D01*
X012853Y017408D01*
X012849Y017311D01*
X012795Y017219D01*
X012838Y017478D02*
X012812Y017496D01*
X012247Y017480D02*
X012217Y017436D01*
X012235Y017423D01*
X012213Y017228D01*
X012126Y017172D01*
X012018Y017146D01*
X011904Y017153D01*
X011803Y017197D01*
X011713Y017282D01*
X011688Y017358D01*
X011684Y017623D01*
X011742Y017748D01*
X011820Y017834D01*
X011932Y017900D01*
X012038Y017933D01*
X012251Y017940D01*
X012295Y017935D02*
X012308Y017938D01*
X012308Y017879D01*
X012220Y017889D01*
X012102Y017884D01*
X011987Y017855D01*
X011907Y017815D01*
X011846Y017781D01*
X011777Y017691D01*
X011742Y017611D01*
X011726Y017519D01*
X011730Y017412D01*
X011754Y017324D01*
X011798Y017271D01*
X011864Y017221D01*
X011923Y017202D01*
X012023Y017211D01*
X012089Y017214D01*
X012146Y017243D01*
X012160Y017282D01*
X012172Y017399D01*
X012125Y017435D01*
X012089Y017424D01*
X012052Y017421D01*
X012055Y017479D01*
X012247Y017480D01*
X011656Y016975D02*
X024497Y016975D01*
X024435Y016671D02*
X024505Y016601D01*
X024505Y016461D01*
X024435Y016391D01*
X024225Y016391D01*
X024225Y016251D02*
X024225Y016671D01*
X024435Y016671D01*
X024365Y016391D02*
X024505Y016251D01*
X024045Y016251D02*
X023765Y016251D01*
X023765Y016671D01*
X024045Y016671D01*
X023905Y016461D02*
X023765Y016461D01*
X023585Y016461D02*
X023585Y016321D01*
X023514Y016251D01*
X023374Y016251D01*
X023304Y016321D01*
X023304Y016601D01*
X023374Y016671D01*
X023514Y016671D01*
X023585Y016601D01*
X023585Y016461D02*
X023444Y016461D01*
X023124Y016461D02*
X023054Y016391D01*
X022844Y016391D01*
X022984Y016391D02*
X023124Y016251D01*
X023124Y016461D02*
X023124Y016601D01*
X023054Y016671D01*
X022844Y016671D01*
X022844Y016251D01*
X022664Y016251D02*
X022664Y016531D01*
X022524Y016671D01*
X022384Y016531D01*
X022384Y016251D01*
X022203Y016251D02*
X022203Y016671D01*
X022203Y016461D02*
X021923Y016461D01*
X021923Y016251D02*
X021923Y016671D01*
X021743Y016601D02*
X021673Y016671D01*
X021533Y016671D01*
X021463Y016601D01*
X021463Y016321D01*
X021533Y016251D01*
X021673Y016251D01*
X021743Y016321D01*
X022384Y016461D02*
X022664Y016461D01*
X022419Y017181D02*
X022311Y017155D01*
X022197Y017162D01*
X022096Y017206D01*
X022006Y017291D01*
X021981Y017367D01*
X021977Y017632D01*
X022035Y017757D01*
X022113Y017843D01*
X022225Y017909D01*
X022331Y017942D01*
X022544Y017949D01*
X022588Y017944D02*
X022601Y017947D01*
X022601Y017888D01*
X022513Y017898D01*
X022395Y017893D01*
X022280Y017864D01*
X022200Y017824D01*
X022139Y017790D01*
X022070Y017700D01*
X022035Y017620D01*
X022019Y017528D01*
X022023Y017421D01*
X022047Y017333D01*
X022091Y017280D01*
X022157Y017230D01*
X022216Y017211D01*
X022316Y017220D01*
X022382Y017223D01*
X022439Y017252D01*
X022453Y017291D01*
X022465Y017408D01*
X022418Y017444D01*
X022382Y017433D01*
X022345Y017430D01*
X022348Y017488D01*
X022540Y017489D01*
X022510Y017445D01*
X022528Y017432D01*
X022506Y017237D01*
X022419Y017181D01*
X021735Y017144D02*
X021848Y017939D01*
X021781Y017943D01*
X021668Y017146D01*
X021325Y017868D01*
X021233Y017148D01*
X021220Y017148D01*
X021169Y017153D02*
X021283Y017942D01*
X021373Y017935D01*
X021735Y017144D01*
X021349Y017700D02*
X021316Y017681D01*
X021349Y017700D02*
X021324Y017748D01*
X021097Y017944D02*
X021060Y017942D01*
X021090Y017938D02*
X021097Y017944D01*
X021090Y017938D02*
X020978Y017147D01*
X020912Y017151D01*
X021022Y017943D01*
X020848Y017933D02*
X020848Y017874D01*
X020760Y017884D01*
X020642Y017879D01*
X020527Y017850D01*
X020447Y017810D01*
X020386Y017776D01*
X020317Y017686D01*
X020282Y017606D01*
X020266Y017514D01*
X020270Y017407D01*
X020294Y017319D01*
X020338Y017266D01*
X020404Y017216D01*
X020463Y017197D01*
X020563Y017206D01*
X020629Y017209D01*
X020686Y017238D01*
X020700Y017277D01*
X020712Y017394D01*
X020665Y017430D01*
X020629Y017419D01*
X020592Y017416D01*
X020595Y017474D01*
X020787Y017475D01*
X020757Y017431D01*
X020775Y017418D01*
X020753Y017223D01*
X020666Y017167D01*
X020558Y017141D01*
X020444Y017148D01*
X020343Y017192D01*
X020253Y017277D01*
X020228Y017353D01*
X020224Y017618D01*
X020282Y017743D01*
X020360Y017829D01*
X020472Y017895D01*
X020578Y017928D01*
X020791Y017935D01*
X020835Y017930D02*
X020848Y017933D01*
X020071Y017814D02*
X020080Y017743D01*
X020080Y017690D01*
X020050Y017623D01*
X019994Y017577D01*
X019931Y017534D01*
X019889Y017523D01*
X019883Y017483D01*
X020051Y017147D01*
X020063Y017143D01*
X019971Y017153D01*
X019808Y017469D01*
X019786Y017511D01*
X019742Y017521D01*
X019707Y017499D01*
X019691Y017462D01*
X019640Y017151D01*
X019630Y017182D01*
X019614Y017145D01*
X019744Y017879D01*
X019789Y017885D01*
X019898Y017876D01*
X019969Y017860D01*
X020004Y017811D01*
X020024Y017720D01*
X019990Y017664D01*
X019944Y017603D01*
X019895Y017584D01*
X019856Y017537D01*
X019844Y017504D01*
X019859Y017587D01*
X019746Y017596D01*
X019741Y017577D01*
X019815Y017543D01*
X019728Y017607D01*
X019724Y017642D01*
X019754Y017824D01*
X019688Y017941D02*
X019912Y017941D01*
X019980Y017915D01*
X020042Y017865D01*
X020071Y017814D01*
X019688Y017941D02*
X019571Y017150D01*
X019592Y017185D01*
X019573Y017159D01*
X019621Y016671D02*
X019621Y016251D01*
X019901Y016251D01*
X020082Y016251D02*
X020082Y016671D01*
X020292Y016671D01*
X020362Y016601D01*
X020362Y016461D01*
X020292Y016391D01*
X020082Y016391D01*
X020222Y016391D02*
X020362Y016251D01*
X020682Y016251D02*
X020682Y016461D01*
X020822Y016601D01*
X020822Y016671D01*
X020682Y016461D02*
X020542Y016601D01*
X020542Y016671D01*
X019901Y016671D02*
X019621Y016671D01*
X019441Y016671D02*
X019161Y016671D01*
X019301Y016671D02*
X019301Y016251D01*
X019621Y016461D02*
X019761Y016461D01*
X023000Y017149D02*
X023107Y017883D01*
X023123Y017927D02*
X023113Y017937D01*
X023185Y017940D01*
X023071Y017152D01*
X023000Y017149D01*
X023395Y017150D02*
X023467Y017148D01*
X023204Y017633D01*
X023183Y017582D01*
X023205Y017606D02*
X023442Y017932D01*
X023537Y017941D01*
X023268Y017592D01*
X023177Y017529D02*
X023395Y017150D01*
X023638Y017153D02*
X023704Y017149D01*
X023816Y017940D01*
X023823Y017946D01*
X023786Y017944D01*
X023748Y017945D02*
X023638Y017153D01*
X024076Y017145D02*
X024085Y017164D01*
X024187Y017858D01*
X024162Y017884D01*
X024203Y017882D02*
X023972Y017890D01*
X023976Y017938D01*
X023998Y017943D02*
X024476Y017941D01*
X024464Y017888D01*
X024243Y017890D01*
X024248Y017829D01*
X024149Y017149D01*
X024116Y017153D01*
X012451Y015522D02*
X012451Y014926D01*
X009049Y014926D02*
X009049Y015522D01*
X006194Y014886D02*
X006194Y013378D01*
X004494Y013325D02*
X004494Y013679D01*
X004494Y014565D02*
X004494Y014939D01*
X014222Y006110D02*
X014222Y005850D01*
D13*
X013867Y005820D02*
X013854Y005822D01*
X013842Y005827D01*
X013832Y005835D01*
X013824Y005845D01*
X013819Y005857D01*
X013817Y005870D01*
X013817Y006090D01*
X013819Y006103D01*
X013824Y006115D01*
X013832Y006125D01*
X013842Y006133D01*
X013854Y006138D01*
X013867Y006140D01*
X014577Y006140D01*
X014590Y006138D01*
X014602Y006133D01*
X014612Y006125D01*
X014620Y006115D01*
X014625Y006103D01*
X014627Y006090D01*
X014627Y005870D01*
X014625Y005857D01*
X014620Y005845D01*
X014612Y005835D01*
X014602Y005827D01*
X014590Y005822D01*
X014577Y005820D01*
X013867Y005820D01*
X013783Y005094D02*
X014100Y005094D01*
X014100Y004305D01*
X013783Y004305D01*
X013783Y005094D01*
X014143Y005094D02*
X014460Y005094D01*
X014460Y004305D01*
X014143Y004305D01*
X014143Y005094D01*
X014903Y005156D02*
X014903Y005474D01*
X015692Y005474D01*
X015692Y005156D01*
X014903Y005156D01*
X015803Y005156D02*
X015803Y005473D01*
X016592Y005473D01*
X016592Y005156D01*
X015803Y005156D01*
X014651Y006403D02*
X014698Y006449D01*
X014698Y006543D01*
X014651Y006590D01*
X014605Y006590D01*
X014558Y006543D01*
X014558Y006449D01*
X014511Y006403D01*
X014464Y006403D01*
X014418Y006449D01*
X014418Y006543D01*
X014464Y006590D01*
X014418Y006791D02*
X014418Y006884D01*
X014418Y006837D02*
X014651Y006837D01*
X014698Y006791D01*
X014698Y006744D01*
X014651Y006697D01*
X014698Y006992D02*
X014698Y007179D01*
X014698Y007085D02*
X014418Y007085D01*
X014511Y006992D01*
X014755Y007439D02*
X014755Y008228D01*
X015073Y008228D01*
X015073Y007439D01*
X014755Y007439D01*
X015175Y007439D02*
X015492Y007439D01*
X015492Y008228D01*
X015175Y008228D01*
X015175Y007439D01*
X015595Y007439D02*
X015912Y007439D01*
X015912Y008228D01*
X015595Y008228D01*
X015595Y007439D01*
X016229Y007445D02*
X016229Y007762D01*
X017018Y007762D01*
X017018Y007445D01*
X016229Y007445D01*
X018306Y003965D02*
X018624Y003965D01*
X018624Y003176D01*
X018306Y003176D01*
X018306Y003965D01*
X011584Y003993D02*
X011584Y004310D01*
X010796Y004310D01*
X010796Y003993D01*
X011584Y003993D01*
X005635Y003494D02*
X005615Y003494D01*
X005535Y003494D02*
X005515Y003494D01*
X005425Y003494D02*
X005405Y003494D01*
X005325Y003494D02*
X005305Y003494D01*
X005225Y003494D02*
X005205Y003494D01*
X005205Y003384D02*
X005225Y003384D01*
X005305Y003384D02*
X005325Y003384D01*
X005405Y003384D02*
X005425Y003384D01*
X005505Y003384D02*
X005525Y003384D01*
X005605Y003384D02*
X005625Y003384D01*
X005625Y003284D02*
X005605Y003284D01*
X005525Y003284D02*
X005505Y003284D01*
X005425Y003284D02*
X005405Y003284D01*
X005325Y003284D02*
X005305Y003284D01*
X005225Y003284D02*
X005205Y003284D01*
X005115Y003284D02*
X005095Y003284D01*
X005015Y003284D02*
X004995Y003284D01*
X004995Y003174D02*
X005015Y003174D01*
X005095Y003174D02*
X005115Y003174D01*
X005205Y003174D02*
X005225Y003174D01*
X005305Y003174D02*
X005325Y003174D01*
X005405Y003174D02*
X005425Y003174D01*
X005505Y003174D02*
X005525Y003174D01*
X005605Y003174D02*
X005625Y003174D01*
X005625Y003064D02*
X005605Y003064D01*
X005525Y003064D02*
X005505Y003064D01*
X005425Y003064D02*
X005405Y003064D01*
X005325Y003064D02*
X005305Y003064D01*
X005225Y003064D02*
X005205Y003064D01*
X005115Y003064D02*
X005095Y003064D01*
X005015Y003064D02*
X004995Y003064D01*
X004995Y002964D02*
X005015Y002964D01*
X005095Y002964D02*
X005115Y002964D01*
X005205Y002964D02*
X005225Y002964D01*
X005305Y002964D02*
X005325Y002964D01*
X005405Y002964D02*
X005425Y002964D01*
X005505Y002964D02*
X005525Y002964D01*
X005425Y002854D02*
X005405Y002854D01*
X005325Y002854D02*
X005305Y002854D01*
X005225Y002854D02*
X005205Y002854D01*
X005115Y002854D02*
X005095Y002854D01*
X005015Y002854D02*
X004995Y002854D01*
X005095Y003384D02*
X005115Y003384D01*
X005091Y001854D02*
X005089Y001755D01*
X009756Y013262D02*
X009756Y013579D01*
X010544Y013579D01*
X010544Y013262D01*
X009756Y013262D01*
X010956Y013262D02*
X010956Y013579D01*
X011744Y013579D01*
X011744Y013262D01*
X010956Y013262D01*
X023428Y017133D02*
X023503Y017127D01*
X023447Y017925D02*
X023571Y017963D01*
D14*
X010735Y015382D03*
D15*
X011856Y005387D02*
X011801Y005332D01*
X011801Y005112D01*
X011856Y005057D01*
X012021Y005057D01*
X012021Y005387D01*
X011856Y005387D01*
X011856Y004587D02*
X011801Y004532D01*
X011856Y004587D02*
X011966Y004587D01*
X012021Y004532D01*
X012021Y004312D01*
X011966Y004257D01*
X011856Y004257D01*
X011801Y004312D01*
D16*
X005885Y003264D02*
X005885Y008034D01*
X005883Y008063D01*
X005878Y008091D01*
X005869Y008119D01*
X005858Y008146D01*
X005843Y008170D01*
X005825Y008193D01*
X005804Y008214D01*
X005781Y008232D01*
X005757Y008247D01*
X005730Y008258D01*
X005702Y008267D01*
X005674Y008272D01*
X005645Y008274D01*
X002605Y008274D01*
X002576Y008272D01*
X002548Y008267D01*
X002521Y008257D01*
X002495Y008245D01*
X002471Y008229D01*
X002449Y008210D01*
X002430Y008188D01*
X002414Y008164D01*
X002402Y008138D01*
X002392Y008111D01*
X002387Y008083D01*
X002385Y008054D01*
X002385Y002754D01*
X002387Y002726D01*
X002392Y002699D01*
X002400Y002672D01*
X002411Y002647D01*
X002426Y002623D01*
X002443Y002601D01*
X002462Y002582D01*
X002484Y002565D01*
X002508Y002550D01*
X002533Y002539D01*
X002560Y002531D01*
X002587Y002526D01*
X002615Y002524D01*
X005145Y002524D01*
X005198Y002526D01*
X005250Y002532D01*
X005302Y002541D01*
X005353Y002554D01*
X005404Y002571D01*
X005452Y002591D01*
X005500Y002615D01*
X005545Y002641D01*
X005588Y002672D01*
X005630Y002705D01*
X005668Y002741D01*
X005704Y002779D01*
X005737Y002821D01*
X005768Y002864D01*
X005794Y002909D01*
X005818Y002957D01*
X005838Y003005D01*
X005855Y003056D01*
X005868Y003107D01*
X005877Y003159D01*
X005883Y003211D01*
X005885Y003264D01*
X004633Y004294D02*
X004635Y004316D01*
X004641Y004337D01*
X004650Y004357D01*
X004663Y004374D01*
X004679Y004389D01*
X004697Y004401D01*
X004717Y004410D01*
X004739Y004415D01*
X004760Y004416D01*
X004782Y004413D01*
X004803Y004406D01*
X004822Y004396D01*
X004839Y004382D01*
X004854Y004366D01*
X004865Y004347D01*
X004873Y004326D01*
X004877Y004305D01*
X004877Y004283D01*
X004873Y004262D01*
X004865Y004241D01*
X004854Y004222D01*
X004839Y004206D01*
X004822Y004192D01*
X004803Y004182D01*
X004782Y004175D01*
X004760Y004172D01*
X004739Y004173D01*
X004717Y004178D01*
X004697Y004187D01*
X004679Y004199D01*
X004663Y004214D01*
X004650Y004231D01*
X004641Y004251D01*
X004635Y004272D01*
X004633Y004294D01*
X004705Y004314D02*
X004745Y004314D01*
X004753Y004312D01*
X004759Y004308D01*
X004763Y004302D01*
X004765Y004294D01*
X005295Y004504D02*
X005415Y004504D01*
X005420Y004503D01*
X005424Y004499D01*
X005425Y004494D01*
X005251Y004504D02*
X005253Y004526D01*
X005258Y004546D01*
X005268Y004566D01*
X005280Y004584D01*
X005295Y004599D01*
X005313Y004611D01*
X005333Y004621D01*
X005353Y004626D01*
X005375Y004628D01*
X005397Y004626D01*
X005417Y004621D01*
X005437Y004611D01*
X005455Y004599D01*
X005470Y004584D01*
X005482Y004566D01*
X005492Y004546D01*
X005497Y004526D01*
X005499Y004504D01*
X005497Y004482D01*
X005492Y004462D01*
X005482Y004442D01*
X005470Y004424D01*
X005455Y004409D01*
X005437Y004397D01*
X005417Y004387D01*
X005397Y004382D01*
X005375Y004380D01*
X005353Y004382D01*
X005333Y004387D01*
X005313Y004397D01*
X005295Y004409D01*
X005280Y004424D01*
X005268Y004442D01*
X005258Y004462D01*
X005253Y004482D01*
X005251Y004504D01*
X005245Y005424D02*
X003265Y005424D01*
X003255Y005424D02*
X003255Y005484D01*
X003255Y005424D02*
X002795Y005424D01*
X002785Y005425D01*
X002775Y005429D01*
X002767Y005436D01*
X002760Y005444D01*
X002756Y005454D01*
X002755Y005464D01*
X002755Y007724D01*
X002756Y007734D01*
X002760Y007744D01*
X002767Y007752D01*
X002775Y007759D01*
X002785Y007763D01*
X002795Y007764D01*
X005485Y007764D01*
X005493Y007762D01*
X005499Y007758D01*
X005503Y007752D01*
X005505Y007744D01*
X005505Y005684D01*
X005405Y005644D02*
X005405Y007634D01*
X005403Y007650D01*
X005399Y007665D01*
X005392Y007678D01*
X005382Y007691D01*
X005369Y007701D01*
X005356Y007708D01*
X005341Y007712D01*
X005325Y007714D01*
X005235Y007714D01*
X005175Y007664D02*
X003095Y007664D01*
X003075Y007662D01*
X003055Y007658D01*
X003036Y007650D01*
X003019Y007639D01*
X003003Y007626D01*
X002990Y007610D01*
X002979Y007593D01*
X002971Y007574D01*
X002967Y007554D01*
X002965Y007534D01*
X002965Y005694D01*
X002865Y005574D02*
X002867Y005556D01*
X002872Y005540D01*
X002880Y005524D01*
X002891Y005510D01*
X002905Y005499D01*
X002921Y005491D01*
X002937Y005486D01*
X002955Y005484D01*
X003035Y005484D01*
X003115Y005544D02*
X003435Y005544D01*
X003443Y005542D01*
X003449Y005538D01*
X003453Y005532D01*
X003455Y005524D01*
X003315Y005544D02*
X005165Y005544D01*
X005245Y005544D01*
X005265Y005546D01*
X005285Y005550D01*
X005304Y005558D01*
X005321Y005569D01*
X005337Y005582D01*
X005350Y005598D01*
X005361Y005615D01*
X005369Y005634D01*
X005373Y005654D01*
X005375Y005674D01*
X005405Y005644D02*
X005403Y005631D01*
X005398Y005619D01*
X005390Y005609D01*
X005380Y005601D01*
X005368Y005596D01*
X005355Y005594D01*
X005315Y005694D02*
X005315Y007524D01*
X005313Y007546D01*
X005308Y007567D01*
X005300Y007588D01*
X005288Y007606D01*
X005274Y007623D01*
X005257Y007637D01*
X005239Y007649D01*
X005218Y007657D01*
X005197Y007662D01*
X005175Y007664D01*
X002905Y007674D02*
X002895Y007673D01*
X002885Y007669D01*
X002877Y007662D01*
X002870Y007654D01*
X002866Y007644D01*
X002865Y007634D01*
X002865Y005574D01*
X002965Y005694D02*
X002967Y005671D01*
X002972Y005648D01*
X002981Y005626D01*
X002994Y005606D01*
X003009Y005588D01*
X003027Y005573D01*
X003047Y005560D01*
X003069Y005551D01*
X003092Y005546D01*
X003115Y005544D01*
X003255Y005484D02*
X003257Y005497D01*
X003261Y005510D01*
X003268Y005521D01*
X003278Y005531D01*
X003289Y005538D01*
X003302Y005542D01*
X003315Y005544D01*
X003195Y004734D02*
X003085Y004734D01*
X003085Y004434D01*
X003085Y004334D02*
X003085Y004064D01*
X003195Y004064D01*
X003195Y004734D01*
X003465Y004454D02*
X002815Y004454D01*
X002815Y004334D01*
X003085Y004334D01*
X002925Y004334D02*
X003465Y004334D01*
X003465Y004454D01*
X005165Y005544D02*
X005188Y005546D01*
X005211Y005551D01*
X005233Y005560D01*
X005253Y005573D01*
X005271Y005588D01*
X005286Y005606D01*
X005299Y005626D01*
X005308Y005648D01*
X005313Y005671D01*
X005315Y005694D01*
X005505Y005684D02*
X005503Y005653D01*
X005497Y005622D01*
X005488Y005592D01*
X005475Y005563D01*
X005459Y005536D01*
X005440Y005512D01*
X005417Y005489D01*
X005393Y005470D01*
X005366Y005454D01*
X005337Y005441D01*
X005307Y005432D01*
X005276Y005426D01*
X005245Y005424D01*
X004224Y013533D02*
X004226Y013546D01*
X004232Y013558D01*
X004241Y013567D01*
X004252Y013574D01*
X004265Y013577D01*
X004278Y013576D01*
X004290Y013571D01*
X004300Y013563D01*
X004308Y013552D01*
X004312Y013540D01*
X004312Y013526D01*
X004308Y013514D01*
X004300Y013503D01*
X004290Y013495D01*
X004278Y013490D01*
X004265Y013489D01*
X004252Y013492D01*
X004241Y013499D01*
X004232Y013508D01*
X004226Y013520D01*
X004224Y013533D01*
D17*
X010796Y005439D02*
X010796Y005024D01*
X010796Y005029D02*
X010796Y004714D01*
X011584Y004714D01*
X011584Y005029D01*
X010796Y005029D01*
X010796Y005074D02*
X010796Y005389D01*
X011584Y005389D01*
X011584Y005074D01*
X010796Y005074D01*
X010796Y005079D02*
X010796Y004664D01*
X010796Y004669D02*
X010796Y004354D01*
X011584Y004354D01*
X011584Y004669D01*
X010796Y004669D01*
X010796Y004719D02*
X010796Y004304D01*
X013734Y003212D02*
X014149Y003212D01*
X014144Y003212D02*
X014459Y003212D01*
X014459Y004000D01*
X014144Y004000D01*
X014144Y003212D01*
X014099Y003212D02*
X013784Y003212D01*
X013784Y004000D01*
X014099Y004000D01*
X014099Y003212D01*
X014094Y003212D02*
X014509Y003212D01*
D18*
X014817Y004834D02*
X014819Y004846D01*
X014825Y004858D01*
X014833Y004866D01*
X014845Y004872D01*
X014857Y004874D01*
X014869Y004872D01*
X014881Y004866D01*
X014889Y004858D01*
X014895Y004846D01*
X014897Y004834D01*
X014895Y004822D01*
X014889Y004810D01*
X014881Y004802D01*
X014869Y004796D01*
X014857Y004794D01*
X014845Y004796D01*
X014833Y004802D01*
X014825Y004810D01*
X014819Y004822D01*
X014817Y004834D01*
D19*
X013756Y009346D02*
X013806Y009692D01*
X013750Y009690D02*
X013700Y009346D01*
X013756Y009346D01*
X013552Y009346D02*
X013608Y009740D01*
X013548Y009740D01*
X013494Y009346D01*
X013552Y009346D01*
X013448Y009344D02*
X013334Y009560D01*
X013318Y009524D02*
X013482Y009738D01*
X013410Y009738D01*
X013302Y009594D01*
X013284Y009518D02*
X013296Y009506D01*
X013384Y009344D01*
X013448Y009344D01*
X013252Y009344D02*
X013310Y009738D01*
X013252Y009738D01*
X013196Y009346D01*
X013252Y009344D01*
X012994Y009388D02*
X013014Y009528D01*
X012894Y009528D01*
X012892Y009474D01*
X012900Y009472D01*
X012940Y009472D01*
X012948Y009468D01*
X012946Y009452D01*
X012940Y009420D01*
X012932Y009412D01*
X012916Y009402D01*
X012900Y009398D01*
X012872Y009398D01*
X012844Y009402D01*
X012818Y009412D01*
X012804Y009422D01*
X012788Y009440D01*
X012776Y009464D01*
X012768Y009492D01*
X012768Y009520D01*
X012772Y009554D01*
X012782Y009586D01*
X012800Y009616D01*
X012818Y009640D01*
X012858Y009664D01*
X012900Y009682D01*
X012958Y009692D01*
X013004Y009688D01*
X013034Y009684D01*
X013042Y009738D01*
X013019Y009743D01*
X012919Y009743D01*
X012904Y009738D01*
X012864Y009728D01*
X012824Y009708D01*
X012794Y009688D01*
X012744Y009638D01*
X012724Y009598D01*
X012714Y009528D01*
X012714Y009468D01*
X012734Y009418D01*
X012774Y009378D01*
X012804Y009358D01*
X012834Y009348D01*
X012924Y009348D01*
X012964Y009368D01*
X012994Y009388D01*
X012636Y009346D02*
X012694Y009738D01*
X012692Y009738D02*
X012634Y009738D01*
X012594Y009464D01*
X012582Y009474D01*
X012458Y009738D01*
X012402Y009738D01*
X012400Y009738D02*
X012344Y009348D01*
X012346Y009344D01*
X012400Y009344D01*
X012442Y009620D01*
X012454Y009604D01*
X012460Y009598D01*
X012578Y009346D01*
X012636Y009346D01*
X012284Y009346D02*
X012340Y009740D01*
X012280Y009740D01*
X012226Y009346D01*
X012284Y009346D01*
X012180Y009386D02*
X012200Y009526D01*
X012080Y009526D01*
X012078Y009472D01*
X012086Y009470D01*
X012126Y009470D01*
X012134Y009466D01*
X012132Y009450D01*
X012126Y009418D01*
X012118Y009410D01*
X012102Y009400D01*
X012086Y009396D01*
X012058Y009396D01*
X012030Y009400D01*
X012004Y009410D01*
X011990Y009420D01*
X011974Y009438D01*
X011962Y009462D01*
X011954Y009490D01*
X011954Y009518D01*
X011958Y009552D01*
X011968Y009584D01*
X011986Y009614D01*
X012004Y009638D01*
X012044Y009662D01*
X012086Y009680D01*
X012144Y009690D01*
X012190Y009686D01*
X012220Y009682D01*
X012228Y009736D01*
X012205Y009741D01*
X012105Y009741D01*
X012090Y009736D01*
X012050Y009726D01*
X012010Y009706D01*
X011980Y009686D01*
X011930Y009636D01*
X011910Y009596D01*
X011900Y009526D01*
X011900Y009466D01*
X011920Y009416D01*
X011960Y009376D01*
X011990Y009356D01*
X012020Y009346D01*
X012110Y009346D01*
X012150Y009366D01*
X012180Y009386D01*
X011860Y009348D02*
X011768Y009516D01*
X011808Y009534D01*
X011832Y009550D01*
X011852Y009574D01*
X011868Y009610D01*
X011870Y009648D01*
X011864Y009672D01*
X011850Y009696D01*
X011832Y009716D01*
X011808Y009732D01*
X011788Y009738D01*
X011660Y009738D01*
X011604Y009350D01*
X011612Y009346D01*
X011614Y009346D02*
X011660Y009346D01*
X011664Y009348D01*
X011686Y009512D01*
X011696Y009516D01*
X011696Y009530D01*
X011796Y009344D01*
X011860Y009344D01*
X011860Y009348D01*
X011766Y009578D02*
X011708Y009578D01*
X011704Y009576D01*
X011698Y009586D01*
X011712Y009682D01*
X011718Y009686D02*
X011776Y009686D01*
X011790Y009678D01*
X011804Y009664D01*
X011810Y009654D01*
X011812Y009622D01*
X011804Y009608D01*
X011794Y009592D01*
X011780Y009584D01*
X011766Y009578D01*
X011494Y009718D02*
X011490Y009738D01*
X011440Y009738D01*
X011438Y009736D02*
X011436Y009726D01*
X011436Y009728D02*
X011260Y009348D01*
X011260Y009344D02*
X011318Y009344D01*
X011492Y009726D01*
X011558Y009346D01*
X011498Y009346D01*
X011436Y009728D01*
X011264Y009740D02*
X011208Y009740D01*
X011152Y009346D01*
X011208Y009346D01*
X011264Y009740D01*
X011176Y009576D02*
X011010Y009576D01*
X011004Y009518D02*
X011170Y009518D01*
X011374Y009452D02*
X011476Y009452D01*
X011464Y009508D02*
X011398Y009508D01*
X011030Y009740D02*
X010974Y009346D01*
X010916Y009346D01*
X010970Y009740D01*
X011030Y009740D01*
X010914Y009738D02*
X010908Y009686D01*
X010886Y009686D01*
X010880Y009688D01*
X010808Y009688D01*
X010800Y009686D01*
X010788Y009684D01*
X010764Y009678D01*
X010740Y009670D01*
X010716Y009658D01*
X010696Y009640D01*
X010674Y009618D01*
X010658Y009588D01*
X010640Y009552D01*
X010642Y009486D01*
X010646Y009476D01*
X010652Y009456D01*
X010664Y009438D01*
X010680Y009416D01*
X010700Y009408D01*
X010714Y009404D01*
X010718Y009398D01*
X010776Y009398D01*
X010792Y009404D01*
X010814Y009408D01*
X010840Y009420D01*
X010866Y009428D01*
X010874Y009430D01*
X010864Y009370D01*
X010838Y009360D01*
X010786Y009346D01*
X010714Y009346D01*
X010700Y009348D01*
X010670Y009362D01*
X010644Y009378D01*
X010616Y009406D01*
X010600Y009436D01*
X010586Y009470D01*
X010586Y009556D01*
X010600Y009604D01*
X010616Y009636D01*
X010642Y009670D01*
X010672Y009694D01*
X010718Y009722D01*
X010768Y009738D01*
X010820Y009746D01*
X010864Y009744D01*
X010914Y009738D01*
X010362Y009656D02*
X010352Y009686D01*
X010336Y009708D01*
X010320Y009722D01*
X010294Y009734D01*
X010278Y009738D01*
X010186Y009738D01*
X010186Y009736D02*
X010126Y009342D01*
X010268Y009342D01*
X010296Y009346D01*
X010324Y009358D01*
X010348Y009380D01*
X010364Y009400D01*
X010378Y009430D01*
X010380Y009456D01*
X010378Y009488D01*
X010370Y009510D01*
X010354Y009536D01*
X010332Y009556D01*
X010348Y009584D01*
X010358Y009606D01*
X010362Y009626D01*
X010362Y009656D01*
X010304Y009658D02*
X010304Y009618D01*
X010294Y009602D01*
X010284Y009592D01*
X010270Y009584D01*
X010262Y009580D01*
X010224Y009580D01*
X010220Y009590D02*
X010230Y009682D01*
X010238Y009684D01*
X010266Y009684D01*
X010278Y009680D01*
X010294Y009672D01*
X010302Y009662D01*
X010304Y009658D01*
X010272Y009526D02*
X010294Y009514D01*
X010312Y009496D01*
X010322Y009472D01*
X010324Y009444D01*
X010312Y009420D01*
X010296Y009406D01*
X010274Y009396D01*
X010260Y009392D01*
X010196Y009392D01*
X010194Y009400D01*
X010208Y009522D01*
X010220Y009528D01*
X010224Y009528D02*
X010272Y009526D01*
X010096Y009494D02*
X010072Y009540D01*
X010044Y009564D01*
X010008Y009578D01*
X009970Y009594D01*
X009958Y009610D01*
X009952Y009630D01*
X009958Y009656D01*
X009968Y009668D01*
X009980Y009678D01*
X009988Y009680D01*
X010048Y009680D01*
X010064Y009678D01*
X010078Y009674D01*
X010082Y009674D01*
X010090Y009730D01*
X010074Y009736D01*
X010042Y009740D01*
X009998Y009740D01*
X009962Y009728D01*
X009938Y009712D01*
X009918Y009694D01*
X009906Y009674D01*
X009896Y009650D01*
X009896Y009606D01*
X009906Y009582D01*
X009916Y009564D01*
X009934Y009548D01*
X009956Y009534D01*
X009980Y009528D01*
X010004Y009518D01*
X010018Y009510D01*
X010030Y009498D01*
X010036Y009486D01*
X010038Y009444D01*
X010030Y009424D01*
X010014Y009410D01*
X010000Y009402D01*
X009990Y009398D01*
X009986Y009396D01*
X009936Y009394D01*
X009922Y009398D01*
X009896Y009406D01*
X009862Y009420D01*
X009856Y009362D01*
X009858Y009362D02*
X009908Y009346D01*
X009940Y009340D01*
X009974Y009338D01*
X010000Y009344D01*
X010028Y009354D01*
X010054Y009374D01*
X010074Y009398D01*
X010086Y009414D01*
X010096Y009442D01*
X010096Y009494D01*
X009802Y009420D02*
X009848Y009736D01*
X009790Y009736D01*
X009746Y009442D01*
X009726Y009416D01*
X009704Y009398D01*
X009682Y009392D01*
X009654Y009390D01*
X009630Y009398D01*
X009616Y009408D01*
X009608Y009422D01*
X009602Y009438D01*
X009638Y009736D01*
X009584Y009736D01*
X009584Y009734D02*
X009540Y009450D01*
X009546Y009420D01*
X009556Y009390D01*
X009578Y009366D01*
X009604Y009348D01*
X009630Y009340D01*
X009708Y009338D01*
X009738Y009348D01*
X009766Y009370D01*
X009788Y009394D01*
X009802Y009420D01*
X009304Y009578D02*
X009291Y009561D01*
X009277Y009547D01*
X009257Y009532D01*
X009238Y009525D01*
X009222Y009520D01*
X009141Y009519D01*
X009136Y009514D01*
X009112Y009345D01*
X009052Y009345D01*
X009109Y009738D01*
X009230Y009738D01*
X009256Y009730D01*
X009278Y009714D01*
X009298Y009696D01*
X009313Y009670D01*
X009317Y009654D01*
X009315Y009610D01*
X009304Y009578D01*
X009251Y009599D02*
X009232Y009583D01*
X009224Y009578D01*
X009148Y009577D01*
X009160Y009680D01*
X009162Y009685D02*
X009233Y009685D01*
X009246Y009675D01*
X009256Y009659D01*
X009261Y009640D01*
X009260Y009622D01*
X009251Y009599D01*
X008996Y009628D02*
X008996Y009658D01*
X008986Y009688D01*
X008970Y009710D01*
X008954Y009724D01*
X008928Y009736D01*
X008912Y009740D01*
X008820Y009740D01*
X008820Y009738D02*
X008760Y009344D01*
X008902Y009344D01*
X008930Y009348D01*
X008958Y009360D01*
X008982Y009382D01*
X008998Y009402D01*
X009012Y009432D01*
X009014Y009458D01*
X009012Y009490D01*
X009004Y009512D01*
X008988Y009538D01*
X008966Y009558D01*
X008982Y009586D01*
X008992Y009608D01*
X008996Y009628D01*
X008938Y009620D02*
X008928Y009604D01*
X008918Y009594D01*
X008904Y009586D01*
X008896Y009582D01*
X008858Y009582D01*
X008854Y009592D02*
X008864Y009684D01*
X008872Y009686D01*
X008900Y009686D01*
X008912Y009682D01*
X008928Y009674D01*
X008936Y009664D01*
X008938Y009660D01*
X008938Y009620D01*
X008906Y009528D02*
X008928Y009516D01*
X008946Y009498D01*
X008956Y009474D01*
X008958Y009446D01*
X008946Y009422D01*
X008930Y009408D01*
X008908Y009398D01*
X008894Y009394D01*
X008830Y009394D01*
X008828Y009402D01*
X008842Y009524D01*
X008854Y009530D01*
X008858Y009530D02*
X008906Y009528D01*
X008734Y009524D02*
X008714Y009384D01*
X008684Y009364D01*
X008644Y009344D01*
X008554Y009344D01*
X008524Y009354D01*
X008494Y009374D01*
X008454Y009414D01*
X008434Y009464D01*
X008434Y009524D01*
X008444Y009594D01*
X008464Y009634D01*
X008514Y009684D01*
X008544Y009704D01*
X008584Y009724D01*
X008624Y009734D01*
X008639Y009739D01*
X008739Y009739D01*
X008762Y009734D01*
X008754Y009680D01*
X008724Y009684D01*
X008678Y009688D01*
X008620Y009678D01*
X008578Y009660D01*
X008538Y009636D01*
X008520Y009612D01*
X008502Y009582D01*
X008492Y009550D01*
X008488Y009516D01*
X008488Y009488D01*
X008496Y009460D01*
X008508Y009436D01*
X008524Y009418D01*
X008538Y009408D01*
X008564Y009398D01*
X008592Y009394D01*
X008620Y009394D01*
X008636Y009398D01*
X008652Y009408D01*
X008660Y009416D01*
X008666Y009448D01*
X008668Y009464D01*
X008660Y009468D01*
X008620Y009468D01*
X008612Y009470D01*
X008614Y009524D01*
X008734Y009524D01*
X013650Y009688D02*
X013900Y009686D01*
X013910Y009738D01*
X013656Y009738D01*
X013650Y009688D01*
X016723Y012316D02*
X016743Y012396D01*
X016818Y012376D01*
X016863Y012371D01*
X016943Y012371D01*
X016983Y012381D01*
X017008Y012391D01*
X017043Y012411D01*
X017073Y012441D01*
X017093Y012476D01*
X017103Y012506D01*
X017108Y012551D01*
X017108Y012876D01*
X017088Y012946D01*
X017068Y012971D01*
X017043Y013001D01*
X017013Y013026D01*
X016983Y013041D01*
X016948Y013051D01*
X016883Y013051D01*
X016858Y013046D01*
X016818Y013031D01*
X016788Y013006D01*
X016768Y012986D01*
X016748Y012961D01*
X016733Y012921D01*
X016723Y012891D01*
X016718Y012851D01*
X016718Y012816D01*
X016723Y012781D01*
X016733Y012751D01*
X016748Y012716D01*
X016773Y012691D01*
X016803Y012666D01*
X016838Y012646D01*
X016873Y012636D01*
X016948Y012636D01*
X016983Y012646D01*
X017028Y012666D01*
X017048Y012676D01*
X017048Y012586D01*
X017018Y012571D01*
X016973Y012556D01*
X016938Y012551D01*
X016893Y012551D01*
X016838Y012561D01*
X016788Y012581D01*
X016748Y012601D01*
X016718Y012626D01*
X016693Y012656D01*
X016668Y012691D01*
X016653Y012721D01*
X016638Y012766D01*
X016633Y012811D01*
X016633Y012856D01*
X016638Y012906D01*
X016648Y012946D01*
X016663Y012981D01*
X016683Y013016D01*
X016703Y013041D01*
X016738Y013076D01*
X016778Y013101D01*
X016823Y013121D01*
X016863Y013131D01*
X016898Y013136D01*
X016933Y013136D01*
X016968Y013131D01*
X016998Y013126D01*
X017028Y013116D01*
X017073Y013091D01*
X017098Y013071D01*
X017133Y013036D01*
X017158Y013001D01*
X017173Y012971D01*
X017188Y012926D01*
X017198Y012871D01*
X017198Y012571D01*
X017198Y012576D02*
X017188Y012516D01*
X017178Y012471D01*
X017163Y012431D01*
X017133Y012386D01*
X017103Y012356D01*
X017073Y012331D01*
X017038Y012311D01*
X016993Y012296D01*
X016933Y012286D01*
X016873Y012286D01*
X016793Y012296D01*
X016723Y012316D01*
X017378Y012561D02*
X017378Y013126D01*
X017468Y013126D01*
X017468Y012561D01*
X017378Y012561D01*
X017678Y012561D02*
X017678Y013391D01*
X017768Y013391D01*
X017768Y012561D01*
X017678Y012561D01*
X017958Y012646D02*
X017968Y012626D01*
X017993Y012596D01*
X018028Y012576D01*
X018058Y012566D01*
X018078Y012561D01*
X018233Y012561D01*
X018218Y012571D01*
X018233Y012566D02*
X018233Y012646D01*
X018088Y012646D01*
X018068Y012651D01*
X018053Y012661D01*
X018038Y012676D01*
X018028Y012701D01*
X018028Y013041D01*
X018233Y013041D01*
X018233Y013121D01*
X018028Y013121D01*
X018028Y013266D01*
X017938Y013266D01*
X017938Y012721D01*
X017943Y012686D01*
X017958Y012646D01*
X018318Y012746D02*
X018308Y012786D01*
X018303Y012816D01*
X018303Y012866D01*
X018313Y012916D01*
X018328Y012961D01*
X018353Y013011D01*
X018393Y013056D01*
X018438Y013091D01*
X018488Y013116D01*
X018538Y013131D01*
X018573Y013136D01*
X018628Y013136D01*
X018673Y013126D01*
X018723Y013111D01*
X018783Y013071D01*
X018823Y013031D01*
X018863Y012966D01*
X018488Y012756D01*
X018453Y012826D01*
X018738Y012986D01*
X018728Y013001D01*
X018703Y013021D01*
X018673Y013041D01*
X018633Y013051D01*
X018573Y013051D01*
X018543Y013046D01*
X018513Y013036D01*
X018483Y013021D01*
X018453Y012991D01*
X018433Y012966D01*
X018413Y012931D01*
X018403Y012901D01*
X018398Y012871D01*
X018398Y012801D01*
X018408Y012766D01*
X018423Y012731D01*
X018448Y012696D01*
X018473Y012671D01*
X018493Y012661D01*
X018528Y012641D01*
X018563Y012636D01*
X018638Y012636D01*
X018668Y012641D01*
X018698Y012656D01*
X018723Y012671D01*
X018748Y012696D01*
X018768Y012731D01*
X018783Y012761D01*
X018793Y012791D01*
X018798Y012816D01*
X018888Y012806D01*
X018878Y012746D01*
X018858Y012701D01*
X018833Y012661D01*
X018788Y012616D01*
X018758Y012596D01*
X018733Y012581D01*
X018698Y012566D01*
X018663Y012556D01*
X018628Y012551D01*
X018568Y012551D01*
X018533Y012556D01*
X018473Y012576D01*
X018443Y012591D01*
X018413Y012611D01*
X018383Y012641D01*
X018358Y012671D01*
X018333Y012711D01*
X018318Y012746D01*
X018973Y012646D02*
X018973Y012561D01*
X019283Y012561D01*
X019318Y012566D01*
X019358Y012581D01*
X019383Y012596D01*
X019408Y012621D01*
X019423Y012651D01*
X019433Y012681D01*
X019433Y012736D01*
X019423Y012766D01*
X019408Y012796D01*
X019383Y012821D01*
X019353Y012841D01*
X019293Y012866D01*
X019133Y012916D01*
X019098Y012931D01*
X019078Y012946D01*
X019068Y012966D01*
X019068Y012996D01*
X019083Y013026D01*
X019103Y013036D01*
X019403Y013036D01*
X019403Y013121D01*
X019133Y013121D01*
X019088Y013116D01*
X019048Y013101D01*
X019023Y013086D01*
X018998Y013061D01*
X018983Y013036D01*
X018973Y012996D01*
X018973Y012956D01*
X018983Y012921D01*
X019008Y012891D01*
X019033Y012866D01*
X019068Y012846D01*
X019108Y012831D01*
X019163Y012811D01*
X019248Y012786D01*
X019288Y012771D01*
X019323Y012751D01*
X019338Y012731D01*
X019338Y012691D01*
X019328Y012671D01*
X019313Y012656D01*
X019283Y012646D01*
X018973Y012646D01*
X019518Y012756D02*
X019508Y012811D01*
X019508Y012886D01*
X019513Y012926D01*
X019533Y012976D01*
X019553Y013016D01*
X019588Y013056D01*
X019618Y013081D01*
X019648Y013101D01*
X019683Y013116D01*
X019713Y013126D01*
X019773Y013136D01*
X019828Y013136D01*
X019883Y013126D01*
X019918Y013116D01*
X019958Y013096D01*
X019988Y013076D01*
X020023Y013046D01*
X020043Y013016D01*
X020058Y012986D01*
X020068Y012956D01*
X020078Y012921D01*
X020083Y012886D01*
X020083Y012561D01*
X019993Y012561D01*
X019993Y012886D01*
X019988Y012921D01*
X019973Y012966D01*
X019938Y013006D01*
X019898Y013031D01*
X019858Y013046D01*
X019823Y013051D01*
X019773Y013051D01*
X019743Y013046D01*
X019708Y013036D01*
X019678Y013016D01*
X019648Y012991D01*
X019628Y012961D01*
X019613Y012931D01*
X019603Y012906D01*
X019598Y012881D01*
X019598Y012806D01*
X019608Y012761D01*
X019628Y012721D01*
X019648Y012696D01*
X019688Y012661D01*
X019728Y012641D01*
X019763Y012636D01*
X019833Y012636D01*
X019863Y012646D01*
X019888Y012661D01*
X019913Y012681D01*
X019928Y012696D01*
X019928Y012601D01*
X019893Y012576D01*
X019858Y012561D01*
X019823Y012551D01*
X019753Y012551D01*
X019718Y012556D01*
X019673Y012571D01*
X019628Y012596D01*
X019593Y012626D01*
X019558Y012671D01*
X019533Y012716D01*
X019518Y012756D01*
X020243Y012626D02*
X020243Y012606D01*
X020253Y012586D01*
X020263Y012571D01*
X020278Y012561D01*
X020298Y012556D01*
X020303Y012556D02*
X020318Y012556D01*
X020333Y012561D01*
X020348Y012571D01*
X020363Y012591D01*
X020368Y012606D01*
X020368Y012626D01*
X020363Y012641D01*
X020353Y012656D01*
X020338Y012671D01*
X020323Y012676D01*
X020293Y012676D01*
X020278Y012671D01*
X020263Y012661D01*
X020248Y012641D01*
X020243Y012626D01*
X020543Y012771D02*
X020538Y012811D01*
X020538Y012866D01*
X020543Y012911D01*
X020558Y012951D01*
X020573Y012981D01*
X020598Y013021D01*
X020618Y013041D01*
X020653Y013071D01*
X020688Y013091D01*
X020723Y013106D01*
X020758Y013116D01*
X020793Y013121D01*
X020908Y013121D01*
X020908Y013041D01*
X020808Y013041D01*
X020768Y013031D01*
X020743Y013021D01*
X020723Y013011D01*
X020693Y012991D01*
X020668Y012966D01*
X020653Y012941D01*
X020638Y012906D01*
X020628Y012866D01*
X020628Y012826D01*
X020633Y012796D01*
X020643Y012761D01*
X020658Y012731D01*
X020683Y012701D01*
X020713Y012681D01*
X020748Y012661D01*
X020783Y012651D01*
X020808Y012646D01*
X020913Y012646D01*
X020913Y012561D01*
X020793Y012561D01*
X020748Y012571D01*
X020703Y012586D01*
X020658Y012611D01*
X020608Y012651D01*
X020578Y012691D01*
X020563Y012721D01*
X020543Y012771D01*
X020988Y012826D02*
X020998Y012761D01*
X021013Y012721D01*
X021033Y012681D01*
X021073Y012631D01*
X021118Y012596D01*
X021158Y012576D01*
X021198Y012561D01*
X021243Y012551D01*
X021313Y012551D01*
X021363Y012561D01*
X021403Y012576D01*
X021448Y012601D01*
X021498Y012641D01*
X021528Y012686D01*
X021548Y012726D01*
X021563Y012771D01*
X021573Y012816D01*
X021573Y012871D01*
X021563Y012911D01*
X021548Y012961D01*
X021528Y013001D01*
X021498Y013041D01*
X021458Y013076D01*
X021418Y013101D01*
X021373Y013121D01*
X021333Y013131D01*
X021308Y013136D01*
X021253Y013136D01*
X021198Y013126D01*
X021148Y013106D01*
X021123Y013091D01*
X021093Y013071D01*
X021063Y013041D01*
X021043Y013016D01*
X021023Y012986D01*
X021008Y012951D01*
X020993Y012901D01*
X020988Y012861D01*
X020988Y012826D01*
X021083Y012806D02*
X021093Y012761D01*
X021108Y012726D01*
X021133Y012696D01*
X021153Y012676D01*
X021178Y012656D01*
X021213Y012641D01*
X021273Y012631D01*
X021258Y012636D02*
X021308Y012636D01*
X021343Y012641D01*
X021368Y012651D01*
X021393Y012666D01*
X021418Y012686D01*
X021443Y012716D01*
X021463Y012756D01*
X021473Y012781D01*
X021478Y012811D01*
X021478Y012871D01*
X021468Y012916D01*
X021453Y012951D01*
X021433Y012986D01*
X021438Y012976D02*
X021418Y013001D01*
X021398Y013016D01*
X021373Y013031D01*
X021348Y013041D01*
X021308Y013051D01*
X021253Y013051D01*
X021213Y013041D01*
X021183Y013031D01*
X021188Y013031D02*
X021168Y013021D01*
X021143Y013001D01*
X021123Y012976D01*
X021108Y012956D01*
X021093Y012926D01*
X021083Y012886D01*
X021083Y012806D01*
X021683Y012956D02*
X021683Y012561D01*
X021773Y012561D01*
X021773Y012936D01*
X021778Y012976D01*
X021778Y012971D02*
X021788Y012996D01*
X021808Y013021D01*
X021823Y013036D01*
X021858Y013051D01*
X021918Y013051D01*
X021953Y013036D01*
X021983Y013011D01*
X021998Y012981D01*
X022008Y012951D01*
X022008Y012561D01*
X022098Y012561D01*
X022098Y012951D01*
X022108Y012986D01*
X022128Y013016D01*
X022153Y013036D01*
X022183Y013051D01*
X022243Y013051D01*
X022268Y013041D01*
X022293Y013026D01*
X022313Y013001D01*
X022328Y012971D01*
X022333Y012936D01*
X022333Y012561D01*
X022418Y012561D01*
X022418Y012966D01*
X022413Y012996D01*
X022403Y013026D01*
X022393Y013041D01*
X022378Y013061D01*
X022358Y013086D01*
X022338Y013101D01*
X022308Y013116D01*
X022278Y013126D01*
X022258Y013131D01*
X022243Y013136D01*
X022198Y013136D01*
X022168Y013131D01*
X022133Y013116D01*
X022113Y013106D01*
X022088Y013091D01*
X022048Y013046D01*
X022053Y013051D02*
X022018Y013086D01*
X021993Y013106D01*
X021963Y013121D01*
X021933Y013131D01*
X021903Y013136D01*
X021863Y013136D01*
X021823Y013126D01*
X021783Y013111D01*
X021753Y013091D01*
X021728Y013066D01*
X021708Y013036D01*
X021693Y013001D01*
X021683Y012956D01*
X017478Y013246D02*
X017478Y013271D01*
X017473Y013286D01*
X017463Y013301D01*
X017448Y013311D01*
X017433Y013316D01*
X017413Y013316D01*
X017398Y013311D01*
X017383Y013301D01*
X017373Y013286D01*
X017368Y013266D01*
X017368Y013246D01*
X017383Y013221D01*
X017398Y013211D01*
X017418Y013206D01*
X017423Y013206D02*
X017433Y013206D01*
X017448Y013211D01*
X017468Y013231D01*
X017473Y013241D01*
X017478Y013246D01*
X017651Y017113D02*
X017590Y017124D01*
X017521Y017156D01*
X017465Y017194D01*
X017410Y017250D01*
X017378Y017305D01*
X017351Y017377D01*
X017345Y017405D01*
X017346Y017561D01*
X017368Y017658D01*
X017393Y017721D01*
X017462Y017816D01*
X017499Y017855D01*
X017572Y017911D01*
X017643Y017946D01*
X017687Y017964D01*
X017754Y017981D01*
X018052Y017982D01*
X018070Y017972D01*
X018056Y017846D01*
X018006Y017848D01*
X017976Y017853D01*
X017839Y017853D01*
X017777Y017844D01*
X017728Y017827D01*
X017671Y017802D01*
X017626Y017777D01*
X017590Y017745D01*
X017544Y017697D01*
X017521Y017654D01*
X017502Y017608D01*
X017491Y017574D01*
X017483Y017538D01*
X017482Y017449D01*
X017494Y017393D01*
X017511Y017352D01*
X017529Y017321D01*
X017559Y017292D01*
X017591Y017272D01*
X017634Y017256D01*
X017670Y017248D01*
X017726Y017248D01*
X017776Y017249D01*
X017809Y017257D01*
X017847Y017268D01*
X017890Y017284D01*
X017928Y017302D01*
X017956Y017316D01*
X017980Y017318D01*
X017980Y017313D02*
X017961Y017170D01*
X017905Y017146D01*
X017836Y017128D01*
X017786Y017115D01*
X017756Y017113D01*
X017651Y017113D01*
X018052Y017125D02*
X018178Y017975D01*
X018313Y017977D01*
X018321Y017967D01*
X018270Y017633D01*
X018281Y017626D01*
X018619Y017621D01*
X018683Y017980D01*
X018812Y017978D01*
X018826Y017967D01*
X018703Y017115D01*
X018566Y017114D01*
X018558Y017124D01*
X018601Y017479D01*
X018589Y017486D01*
X018260Y017487D01*
X018251Y017481D01*
X018196Y017115D01*
X018070Y017114D01*
X018064Y017114D02*
X018052Y017125D01*
X018793Y017127D02*
X019183Y017976D01*
X019303Y017980D01*
X019451Y017126D01*
X019444Y017110D01*
X019324Y017108D01*
X019307Y017110D01*
X019268Y017336D01*
X019209Y017683D01*
X019185Y017665D01*
X019189Y017664D01*
X019110Y017483D01*
X019135Y017473D01*
X019236Y017477D01*
X019260Y017343D02*
X019046Y017343D01*
X018937Y017113D01*
X018809Y017114D01*
X018808Y017114D02*
X018793Y017127D01*
X019534Y017124D02*
X019651Y017977D01*
X019931Y017978D01*
X019988Y017958D01*
X020035Y017927D01*
X020088Y017871D01*
X020117Y017817D01*
X020125Y017717D01*
X020096Y017627D01*
X020067Y017581D01*
X020017Y017538D01*
X019948Y017499D01*
X019918Y017489D01*
X020103Y017135D01*
X020103Y017113D01*
X019946Y017113D01*
X019743Y017494D01*
X019734Y017479D01*
X019734Y017471D01*
X019676Y017116D01*
X019547Y017113D01*
X019548Y017113D02*
X019534Y017124D01*
X019757Y017635D02*
X019899Y017628D01*
X019936Y017651D01*
X019959Y017677D01*
X019975Y017710D01*
X019982Y017745D01*
X019979Y017778D01*
X019962Y017803D01*
X019936Y017830D01*
X019918Y017839D01*
X019796Y017847D01*
X019789Y017845D02*
X019757Y017635D01*
X020166Y017570D02*
X020181Y017619D01*
X020160Y017478D01*
X020172Y017412D01*
X020178Y017480D01*
X020178Y017495D01*
X020158Y017472D02*
X020166Y017570D01*
X020185Y017626D02*
X020183Y017338D01*
X020203Y017290D01*
X020232Y017241D01*
X020261Y017206D01*
X020290Y017180D01*
X020330Y017150D01*
X020380Y017125D01*
X020421Y017111D01*
X020458Y017104D01*
X020508Y017103D01*
X020511Y017102D02*
X020585Y017102D01*
X020644Y017114D01*
X020701Y017134D01*
X020752Y017167D01*
X020794Y017205D01*
X020828Y017515D01*
X020573Y017518D01*
X020563Y017503D01*
X020548Y017395D01*
X020561Y017383D01*
X020668Y017381D01*
X020667Y017359D01*
X020662Y017274D01*
X020633Y017256D01*
X020603Y017245D01*
X020569Y017239D01*
X020531Y017238D01*
X020472Y017240D01*
X020432Y017251D01*
X020398Y017271D01*
X020363Y017297D01*
X020336Y017335D01*
X020316Y017374D01*
X020304Y017436D01*
X020300Y017497D01*
X020306Y017541D01*
X020323Y017608D01*
X020357Y017670D01*
X020395Y017722D01*
X020443Y017761D01*
X020493Y017794D01*
X020541Y017811D01*
X020609Y017835D01*
X020643Y017843D01*
X020690Y017846D01*
X020793Y017846D01*
X020837Y017837D01*
X020867Y017831D01*
X020878Y017832D01*
X020884Y017849D01*
X020892Y017961D01*
X020867Y017973D01*
X020582Y017972D01*
X020535Y017961D01*
X020483Y017942D01*
X020421Y017913D01*
X020378Y017888D01*
X020338Y017855D01*
X020289Y017813D01*
X020241Y017753D01*
X020212Y017699D01*
X020189Y017639D01*
X020185Y017626D01*
X020158Y017472D02*
X020163Y017404D01*
X020182Y017343D01*
X020178Y017356D02*
X020187Y017328D01*
X020871Y017119D02*
X020994Y017978D01*
X021135Y017977D01*
X021013Y017114D01*
X020878Y017112D01*
X020871Y017119D01*
X021128Y017123D02*
X021249Y017977D01*
X021388Y017980D01*
X021652Y017409D01*
X021664Y017406D01*
X021754Y017976D01*
X021880Y017978D01*
X021890Y017969D01*
X021773Y017112D01*
X021635Y017112D01*
X021367Y017676D01*
X021359Y017674D01*
X021351Y017669D01*
X021266Y017114D01*
X021139Y017115D01*
X021139Y017115D01*
X021128Y017123D01*
X021936Y017352D02*
X021956Y017304D01*
X021985Y017255D01*
X022014Y017220D01*
X022043Y017194D01*
X022083Y017164D01*
X022133Y017139D01*
X022174Y017125D01*
X022211Y017118D01*
X022261Y017117D01*
X022264Y017116D02*
X022338Y017116D01*
X022397Y017128D01*
X022454Y017148D01*
X022505Y017181D01*
X022547Y017219D01*
X022581Y017529D01*
X022326Y017532D01*
X022316Y017517D01*
X022301Y017409D01*
X022314Y017397D01*
X022421Y017395D01*
X022420Y017373D01*
X022415Y017288D01*
X022386Y017270D01*
X022356Y017259D01*
X022322Y017253D01*
X022284Y017252D01*
X022225Y017254D01*
X022185Y017265D01*
X022151Y017285D01*
X022116Y017311D01*
X022089Y017349D01*
X022069Y017388D01*
X022057Y017450D01*
X022053Y017511D01*
X022059Y017555D01*
X022076Y017622D01*
X022110Y017684D01*
X022148Y017736D01*
X022196Y017775D01*
X022246Y017808D01*
X022294Y017825D01*
X022362Y017849D01*
X022396Y017857D01*
X022443Y017860D01*
X022546Y017860D01*
X022590Y017851D01*
X022620Y017845D01*
X022631Y017846D01*
X022637Y017863D01*
X022645Y017975D01*
X022620Y017987D01*
X022335Y017986D01*
X022288Y017975D01*
X022236Y017956D01*
X022174Y017927D01*
X022131Y017902D01*
X022091Y017869D01*
X022042Y017827D01*
X021994Y017767D01*
X021965Y017713D01*
X021942Y017653D01*
X021938Y017640D01*
X021936Y017352D01*
X021935Y017357D02*
X021916Y017418D01*
X021911Y017486D01*
X021919Y017584D01*
X021934Y017633D01*
X021913Y017492D01*
X021925Y017426D01*
X021931Y017494D01*
X021931Y017509D01*
X021931Y017370D02*
X021940Y017342D01*
X022960Y017127D02*
X022968Y017115D01*
X023099Y017115D01*
X023104Y017118D01*
X023222Y017969D01*
X023212Y017978D01*
X023083Y017978D01*
X023083Y017975D02*
X022960Y017127D01*
X023365Y017115D02*
X023164Y017494D01*
X023287Y017552D02*
X023299Y017547D01*
X023527Y017121D01*
X023524Y017114D01*
X023365Y017115D01*
X023597Y017121D02*
X023720Y017980D01*
X023861Y017979D01*
X023739Y017116D01*
X023604Y017114D01*
X023597Y017121D01*
X024043Y017120D02*
X024049Y017114D01*
X024182Y017113D01*
X024188Y017118D01*
X024291Y017849D01*
X024146Y017843D02*
X024043Y017120D01*
X023287Y017552D02*
X023592Y017957D01*
X023590Y017973D01*
X023583Y017978D01*
X023429Y017977D01*
X023425Y017974D02*
X023207Y017679D01*
X023193Y017670D01*
X023933Y017858D02*
X023948Y017977D01*
X023947Y017976D02*
X024517Y017979D01*
X024496Y017850D01*
X024495Y017847D01*
X023945Y017848D01*
X023933Y017858D01*
X017025Y017968D02*
X017011Y017842D01*
X016961Y017844D01*
X016931Y017849D01*
X016794Y017849D01*
X016732Y017840D01*
X016683Y017823D01*
X016626Y017798D01*
X016581Y017773D01*
X016545Y017741D01*
X016499Y017693D01*
X016476Y017650D01*
X016457Y017604D01*
X016446Y017570D01*
X016438Y017534D01*
X016437Y017445D01*
X016449Y017389D01*
X016466Y017348D01*
X016484Y017317D01*
X016514Y017288D01*
X016546Y017268D01*
X016589Y017252D01*
X016625Y017244D01*
X016681Y017244D01*
X016731Y017245D01*
X016764Y017253D01*
X016802Y017264D01*
X016845Y017280D01*
X016883Y017298D01*
X016911Y017312D01*
X016935Y017314D01*
X016935Y017309D02*
X016916Y017166D01*
X016860Y017142D01*
X016791Y017124D01*
X016741Y017111D01*
X016711Y017109D01*
X016606Y017109D01*
X016545Y017120D01*
X016476Y017152D01*
X016420Y017190D01*
X016365Y017246D01*
X016333Y017301D01*
X016306Y017373D01*
X016300Y017401D01*
X016301Y017557D01*
X016323Y017654D01*
X016348Y017717D01*
X016417Y017812D01*
X016454Y017851D01*
X016527Y017907D01*
X016598Y017942D01*
X016642Y017960D01*
X016709Y017977D01*
X017007Y017978D01*
X017025Y017968D01*
X016224Y017617D02*
X016202Y017485D01*
X015842Y017485D01*
X015838Y017499D01*
X015859Y017626D01*
X015858Y017626D02*
X016215Y017627D01*
X016224Y017617D01*
X015735Y017425D02*
X015709Y017498D01*
X015679Y017540D01*
X015632Y017583D01*
X015638Y017599D01*
X015676Y017653D01*
X015691Y017695D01*
X015697Y017784D01*
X015685Y017845D01*
X015647Y017910D01*
X015611Y017943D01*
X015583Y017961D01*
X015542Y017976D01*
X015294Y017976D01*
X015168Y017112D01*
X015169Y017112D02*
X015515Y017111D01*
X015586Y017134D01*
X015635Y017165D01*
X015666Y017199D01*
X015694Y017232D01*
X015722Y017286D01*
X015733Y017325D01*
X015735Y017425D01*
X015593Y017394D02*
X015587Y017420D01*
X015570Y017448D01*
X015540Y017480D01*
X015509Y017495D01*
X015490Y017501D01*
X015449Y017506D01*
X015380Y017509D01*
X015366Y017505D01*
X015329Y017244D01*
X015339Y017244D02*
X015344Y017242D01*
X015472Y017242D01*
X015502Y017250D01*
X015522Y017260D01*
X015552Y017278D01*
X015574Y017303D01*
X015588Y017331D01*
X015595Y017354D01*
X015593Y017394D01*
X015488Y017655D02*
X015463Y017648D01*
X015440Y017644D01*
X015392Y017642D01*
X015412Y017846D01*
X015423Y017845D02*
X015498Y017845D01*
X015512Y017839D01*
X015531Y017826D01*
X015546Y017807D01*
X015557Y017780D01*
X015559Y017753D01*
X015552Y017722D01*
X015532Y017690D01*
X015511Y017670D01*
X015488Y017655D01*
X015111Y017473D02*
X015124Y017417D01*
X015123Y017354D01*
X015101Y017278D01*
X015072Y017230D01*
X015038Y017192D01*
X014980Y017145D01*
X014928Y017122D01*
X014888Y017109D01*
X014858Y017104D01*
X014767Y017104D01*
X014714Y017113D01*
X014584Y017156D01*
X014596Y017293D01*
X014632Y017286D01*
X014675Y017268D01*
X014741Y017250D01*
X014778Y017246D01*
X014877Y017246D01*
X014906Y017253D01*
X014932Y017277D01*
X014961Y017312D01*
X014979Y017351D01*
X014978Y017406D01*
X014964Y017445D01*
X014931Y017480D01*
X014902Y017495D01*
X014843Y017516D01*
X014780Y017545D01*
X014750Y017563D01*
X014714Y017595D01*
X014679Y017658D01*
X014670Y017702D01*
X014665Y017747D01*
X014677Y017798D01*
X014711Y017869D01*
X014767Y017929D01*
X014824Y017966D01*
X014865Y017978D01*
X015030Y017977D01*
X015109Y017962D01*
X015109Y017963D02*
X015084Y017829D01*
X015025Y017838D01*
X014955Y017847D01*
X014897Y017845D01*
X014859Y017828D01*
X014830Y017802D01*
X014811Y017765D01*
X014811Y017730D01*
X014821Y017693D01*
X014864Y017653D01*
X014913Y017640D01*
X014977Y017617D01*
X015039Y017580D01*
X015084Y017527D01*
X015111Y017473D01*
X014488Y017301D02*
X014587Y017977D01*
X014445Y017980D01*
X014344Y017341D01*
X014320Y017299D01*
X014290Y017260D01*
X014252Y017241D01*
X014218Y017234D01*
X014150Y017236D01*
X014111Y017252D01*
X014077Y017273D01*
X014058Y017322D01*
X014052Y017358D01*
X014136Y017972D01*
X013996Y017971D01*
X013993Y017971D02*
X013906Y017338D01*
X013912Y017303D01*
X013921Y017272D01*
X013949Y017209D01*
X013994Y017157D01*
X014056Y017117D01*
X014148Y017099D01*
X014263Y017099D01*
X014299Y017107D01*
X014335Y017119D01*
X014381Y017144D01*
X014428Y017189D01*
X014466Y017248D01*
X014488Y017301D01*
X013513Y017631D02*
X013533Y017693D01*
X013541Y017782D01*
X013516Y017848D01*
X013476Y017902D01*
X013416Y017950D01*
X013359Y017973D01*
X013305Y017978D01*
X013068Y017979D01*
X013067Y017980D02*
X012951Y017120D01*
X012957Y017114D01*
X013091Y017113D01*
X013145Y017484D01*
X013157Y017486D01*
X013310Y017486D01*
X013360Y017498D01*
X013413Y017523D01*
X013469Y017567D01*
X013513Y017631D01*
X013379Y017685D02*
X013390Y017719D01*
X013391Y017755D01*
X013387Y017790D01*
X013370Y017814D01*
X013343Y017836D01*
X013323Y017842D01*
X013210Y017846D01*
X013202Y017838D02*
X013170Y017641D01*
X013180Y017627D01*
X013316Y017628D01*
X013348Y017650D01*
X013379Y017685D01*
X012852Y017697D02*
X012837Y017655D01*
X012799Y017601D01*
X012793Y017585D01*
X012840Y017542D01*
X012870Y017500D01*
X012896Y017427D01*
X012894Y017327D01*
X012883Y017288D01*
X012855Y017234D01*
X012827Y017201D01*
X012796Y017167D01*
X012747Y017136D01*
X012676Y017113D01*
X012330Y017114D01*
X012329Y017114D02*
X012455Y017978D01*
X012703Y017978D01*
X012744Y017963D01*
X012772Y017945D01*
X012808Y017912D01*
X012846Y017847D01*
X012858Y017786D01*
X012852Y017697D01*
X012713Y017724D02*
X012693Y017692D01*
X012672Y017672D01*
X012649Y017657D01*
X012624Y017650D01*
X012601Y017646D01*
X012553Y017644D01*
X012573Y017848D01*
X012584Y017847D02*
X012659Y017847D01*
X012673Y017841D01*
X012692Y017828D01*
X012707Y017809D01*
X012718Y017782D01*
X012720Y017755D01*
X012713Y017724D01*
X012651Y017503D02*
X012610Y017508D01*
X012541Y017511D01*
X012527Y017507D01*
X012490Y017246D01*
X012500Y017246D02*
X012505Y017244D01*
X012633Y017244D01*
X012663Y017252D01*
X012683Y017262D01*
X012713Y017280D01*
X012735Y017305D01*
X012749Y017333D01*
X012756Y017356D01*
X012754Y017396D01*
X012748Y017422D01*
X012731Y017450D01*
X012701Y017482D01*
X012670Y017497D01*
X012651Y017503D01*
X012288Y017520D02*
X012033Y017523D01*
X012023Y017508D01*
X012008Y017400D01*
X012021Y017388D01*
X012128Y017386D01*
X012127Y017364D01*
X012122Y017279D01*
X012093Y017261D01*
X012063Y017250D01*
X012029Y017244D01*
X011991Y017243D01*
X011932Y017245D01*
X011892Y017256D01*
X011858Y017276D01*
X011823Y017302D01*
X011796Y017340D01*
X011776Y017379D01*
X011764Y017441D01*
X011760Y017502D01*
X011766Y017546D01*
X011783Y017613D01*
X011817Y017675D01*
X011855Y017727D01*
X011903Y017766D01*
X011953Y017799D01*
X012001Y017816D01*
X012069Y017840D01*
X012103Y017848D01*
X012150Y017851D01*
X012253Y017851D01*
X012297Y017842D01*
X012327Y017836D01*
X012338Y017837D01*
X012344Y017854D01*
X012352Y017966D01*
X012327Y017978D01*
X012042Y017977D01*
X011995Y017966D01*
X011943Y017947D01*
X011881Y017918D01*
X011838Y017893D01*
X011798Y017860D01*
X011749Y017818D01*
X011701Y017758D01*
X011672Y017704D01*
X011649Y017644D01*
X011645Y017631D01*
X011643Y017343D01*
X011663Y017295D01*
X011692Y017246D01*
X011721Y017211D01*
X011750Y017185D01*
X011790Y017155D01*
X011840Y017130D01*
X011881Y017116D01*
X011918Y017109D01*
X011968Y017108D01*
X011971Y017107D02*
X012045Y017107D01*
X012104Y017119D01*
X012161Y017139D01*
X012212Y017172D01*
X012254Y017210D01*
X012288Y017520D01*
X011638Y017485D02*
X011638Y017500D01*
X011638Y017485D02*
X011632Y017417D01*
X011620Y017483D01*
X011641Y017624D01*
X011626Y017575D01*
X011618Y017477D01*
X011623Y017409D01*
X011642Y017348D01*
X011638Y017361D02*
X011647Y017333D01*
X005601Y003494D02*
X005603Y003503D01*
X005608Y003511D01*
X005616Y003516D01*
X005625Y003518D01*
X005634Y003516D01*
X005642Y003511D01*
X005647Y003503D01*
X005649Y003494D01*
X005647Y003485D01*
X005642Y003477D01*
X005634Y003472D01*
X005625Y003470D01*
X005616Y003472D01*
X005608Y003477D01*
X005603Y003485D01*
X005601Y003494D01*
X005501Y003494D02*
X005503Y003503D01*
X005508Y003511D01*
X005516Y003516D01*
X005525Y003518D01*
X005534Y003516D01*
X005542Y003511D01*
X005547Y003503D01*
X005549Y003494D01*
X005547Y003485D01*
X005542Y003477D01*
X005534Y003472D01*
X005525Y003470D01*
X005516Y003472D01*
X005508Y003477D01*
X005503Y003485D01*
X005501Y003494D01*
X005391Y003494D02*
X005393Y003503D01*
X005398Y003511D01*
X005406Y003516D01*
X005415Y003518D01*
X005424Y003516D01*
X005432Y003511D01*
X005437Y003503D01*
X005439Y003494D01*
X005437Y003485D01*
X005432Y003477D01*
X005424Y003472D01*
X005415Y003470D01*
X005406Y003472D01*
X005398Y003477D01*
X005393Y003485D01*
X005391Y003494D01*
X005291Y003494D02*
X005293Y003503D01*
X005298Y003511D01*
X005306Y003516D01*
X005315Y003518D01*
X005324Y003516D01*
X005332Y003511D01*
X005337Y003503D01*
X005339Y003494D01*
X005337Y003485D01*
X005332Y003477D01*
X005324Y003472D01*
X005315Y003470D01*
X005306Y003472D01*
X005298Y003477D01*
X005293Y003485D01*
X005291Y003494D01*
X005191Y003494D02*
X005193Y003503D01*
X005198Y003511D01*
X005206Y003516D01*
X005215Y003518D01*
X005224Y003516D01*
X005232Y003511D01*
X005237Y003503D01*
X005239Y003494D01*
X005237Y003485D01*
X005232Y003477D01*
X005224Y003472D01*
X005215Y003470D01*
X005206Y003472D01*
X005198Y003477D01*
X005193Y003485D01*
X005191Y003494D01*
X005191Y003384D02*
X005193Y003393D01*
X005198Y003401D01*
X005206Y003406D01*
X005215Y003408D01*
X005224Y003406D01*
X005232Y003401D01*
X005237Y003393D01*
X005239Y003384D01*
X005237Y003375D01*
X005232Y003367D01*
X005224Y003362D01*
X005215Y003360D01*
X005206Y003362D01*
X005198Y003367D01*
X005193Y003375D01*
X005191Y003384D01*
X005081Y003384D02*
X005083Y003393D01*
X005088Y003401D01*
X005096Y003406D01*
X005105Y003408D01*
X005114Y003406D01*
X005122Y003401D01*
X005127Y003393D01*
X005129Y003384D01*
X005127Y003375D01*
X005122Y003367D01*
X005114Y003362D01*
X005105Y003360D01*
X005096Y003362D01*
X005088Y003367D01*
X005083Y003375D01*
X005081Y003384D01*
X005081Y003284D02*
X005083Y003293D01*
X005088Y003301D01*
X005096Y003306D01*
X005105Y003308D01*
X005114Y003306D01*
X005122Y003301D01*
X005127Y003293D01*
X005129Y003284D01*
X005127Y003275D01*
X005122Y003267D01*
X005114Y003262D01*
X005105Y003260D01*
X005096Y003262D01*
X005088Y003267D01*
X005083Y003275D01*
X005081Y003284D01*
X004981Y003284D02*
X004983Y003293D01*
X004988Y003301D01*
X004996Y003306D01*
X005005Y003308D01*
X005014Y003306D01*
X005022Y003301D01*
X005027Y003293D01*
X005029Y003284D01*
X005027Y003275D01*
X005022Y003267D01*
X005014Y003262D01*
X005005Y003260D01*
X004996Y003262D01*
X004988Y003267D01*
X004983Y003275D01*
X004981Y003284D01*
X004981Y003174D02*
X004983Y003183D01*
X004988Y003191D01*
X004996Y003196D01*
X005005Y003198D01*
X005014Y003196D01*
X005022Y003191D01*
X005027Y003183D01*
X005029Y003174D01*
X005027Y003165D01*
X005022Y003157D01*
X005014Y003152D01*
X005005Y003150D01*
X004996Y003152D01*
X004988Y003157D01*
X004983Y003165D01*
X004981Y003174D01*
X004981Y003064D02*
X004983Y003073D01*
X004988Y003081D01*
X004996Y003086D01*
X005005Y003088D01*
X005014Y003086D01*
X005022Y003081D01*
X005027Y003073D01*
X005029Y003064D01*
X005027Y003055D01*
X005022Y003047D01*
X005014Y003042D01*
X005005Y003040D01*
X004996Y003042D01*
X004988Y003047D01*
X004983Y003055D01*
X004981Y003064D01*
X004981Y002964D02*
X004983Y002973D01*
X004988Y002981D01*
X004996Y002986D01*
X005005Y002988D01*
X005014Y002986D01*
X005022Y002981D01*
X005027Y002973D01*
X005029Y002964D01*
X005027Y002955D01*
X005022Y002947D01*
X005014Y002942D01*
X005005Y002940D01*
X004996Y002942D01*
X004988Y002947D01*
X004983Y002955D01*
X004981Y002964D01*
X004981Y002854D02*
X004983Y002863D01*
X004988Y002871D01*
X004996Y002876D01*
X005005Y002878D01*
X005014Y002876D01*
X005022Y002871D01*
X005027Y002863D01*
X005029Y002854D01*
X005027Y002845D01*
X005022Y002837D01*
X005014Y002832D01*
X005005Y002830D01*
X004996Y002832D01*
X004988Y002837D01*
X004983Y002845D01*
X004981Y002854D01*
X005081Y002854D02*
X005083Y002863D01*
X005088Y002871D01*
X005096Y002876D01*
X005105Y002878D01*
X005114Y002876D01*
X005122Y002871D01*
X005127Y002863D01*
X005129Y002854D01*
X005127Y002845D01*
X005122Y002837D01*
X005114Y002832D01*
X005105Y002830D01*
X005096Y002832D01*
X005088Y002837D01*
X005083Y002845D01*
X005081Y002854D01*
X005081Y002964D02*
X005083Y002973D01*
X005088Y002981D01*
X005096Y002986D01*
X005105Y002988D01*
X005114Y002986D01*
X005122Y002981D01*
X005127Y002973D01*
X005129Y002964D01*
X005127Y002955D01*
X005122Y002947D01*
X005114Y002942D01*
X005105Y002940D01*
X005096Y002942D01*
X005088Y002947D01*
X005083Y002955D01*
X005081Y002964D01*
X005081Y003064D02*
X005083Y003073D01*
X005088Y003081D01*
X005096Y003086D01*
X005105Y003088D01*
X005114Y003086D01*
X005122Y003081D01*
X005127Y003073D01*
X005129Y003064D01*
X005127Y003055D01*
X005122Y003047D01*
X005114Y003042D01*
X005105Y003040D01*
X005096Y003042D01*
X005088Y003047D01*
X005083Y003055D01*
X005081Y003064D01*
X005081Y003174D02*
X005083Y003183D01*
X005088Y003191D01*
X005096Y003196D01*
X005105Y003198D01*
X005114Y003196D01*
X005122Y003191D01*
X005127Y003183D01*
X005129Y003174D01*
X005127Y003165D01*
X005122Y003157D01*
X005114Y003152D01*
X005105Y003150D01*
X005096Y003152D01*
X005088Y003157D01*
X005083Y003165D01*
X005081Y003174D01*
X005191Y003174D02*
X005193Y003183D01*
X005198Y003191D01*
X005206Y003196D01*
X005215Y003198D01*
X005224Y003196D01*
X005232Y003191D01*
X005237Y003183D01*
X005239Y003174D01*
X005237Y003165D01*
X005232Y003157D01*
X005224Y003152D01*
X005215Y003150D01*
X005206Y003152D01*
X005198Y003157D01*
X005193Y003165D01*
X005191Y003174D01*
X005191Y003064D02*
X005193Y003073D01*
X005198Y003081D01*
X005206Y003086D01*
X005215Y003088D01*
X005224Y003086D01*
X005232Y003081D01*
X005237Y003073D01*
X005239Y003064D01*
X005237Y003055D01*
X005232Y003047D01*
X005224Y003042D01*
X005215Y003040D01*
X005206Y003042D01*
X005198Y003047D01*
X005193Y003055D01*
X005191Y003064D01*
X005191Y002964D02*
X005193Y002973D01*
X005198Y002981D01*
X005206Y002986D01*
X005215Y002988D01*
X005224Y002986D01*
X005232Y002981D01*
X005237Y002973D01*
X005239Y002964D01*
X005237Y002955D01*
X005232Y002947D01*
X005224Y002942D01*
X005215Y002940D01*
X005206Y002942D01*
X005198Y002947D01*
X005193Y002955D01*
X005191Y002964D01*
X005191Y002854D02*
X005193Y002863D01*
X005198Y002871D01*
X005206Y002876D01*
X005215Y002878D01*
X005224Y002876D01*
X005232Y002871D01*
X005237Y002863D01*
X005239Y002854D01*
X005237Y002845D01*
X005232Y002837D01*
X005224Y002832D01*
X005215Y002830D01*
X005206Y002832D01*
X005198Y002837D01*
X005193Y002845D01*
X005191Y002854D01*
X005291Y002854D02*
X005293Y002863D01*
X005298Y002871D01*
X005306Y002876D01*
X005315Y002878D01*
X005324Y002876D01*
X005332Y002871D01*
X005337Y002863D01*
X005339Y002854D01*
X005337Y002845D01*
X005332Y002837D01*
X005324Y002832D01*
X005315Y002830D01*
X005306Y002832D01*
X005298Y002837D01*
X005293Y002845D01*
X005291Y002854D01*
X005291Y002964D02*
X005293Y002973D01*
X005298Y002981D01*
X005306Y002986D01*
X005315Y002988D01*
X005324Y002986D01*
X005332Y002981D01*
X005337Y002973D01*
X005339Y002964D01*
X005337Y002955D01*
X005332Y002947D01*
X005324Y002942D01*
X005315Y002940D01*
X005306Y002942D01*
X005298Y002947D01*
X005293Y002955D01*
X005291Y002964D01*
X005291Y003064D02*
X005293Y003073D01*
X005298Y003081D01*
X005306Y003086D01*
X005315Y003088D01*
X005324Y003086D01*
X005332Y003081D01*
X005337Y003073D01*
X005339Y003064D01*
X005337Y003055D01*
X005332Y003047D01*
X005324Y003042D01*
X005315Y003040D01*
X005306Y003042D01*
X005298Y003047D01*
X005293Y003055D01*
X005291Y003064D01*
X005291Y003174D02*
X005293Y003183D01*
X005298Y003191D01*
X005306Y003196D01*
X005315Y003198D01*
X005324Y003196D01*
X005332Y003191D01*
X005337Y003183D01*
X005339Y003174D01*
X005337Y003165D01*
X005332Y003157D01*
X005324Y003152D01*
X005315Y003150D01*
X005306Y003152D01*
X005298Y003157D01*
X005293Y003165D01*
X005291Y003174D01*
X005291Y003284D02*
X005293Y003293D01*
X005298Y003301D01*
X005306Y003306D01*
X005315Y003308D01*
X005324Y003306D01*
X005332Y003301D01*
X005337Y003293D01*
X005339Y003284D01*
X005337Y003275D01*
X005332Y003267D01*
X005324Y003262D01*
X005315Y003260D01*
X005306Y003262D01*
X005298Y003267D01*
X005293Y003275D01*
X005291Y003284D01*
X005191Y003284D02*
X005193Y003293D01*
X005198Y003301D01*
X005206Y003306D01*
X005215Y003308D01*
X005224Y003306D01*
X005232Y003301D01*
X005237Y003293D01*
X005239Y003284D01*
X005237Y003275D01*
X005232Y003267D01*
X005224Y003262D01*
X005215Y003260D01*
X005206Y003262D01*
X005198Y003267D01*
X005193Y003275D01*
X005191Y003284D01*
X005291Y003384D02*
X005293Y003393D01*
X005298Y003401D01*
X005306Y003406D01*
X005315Y003408D01*
X005324Y003406D01*
X005332Y003401D01*
X005337Y003393D01*
X005339Y003384D01*
X005337Y003375D01*
X005332Y003367D01*
X005324Y003362D01*
X005315Y003360D01*
X005306Y003362D01*
X005298Y003367D01*
X005293Y003375D01*
X005291Y003384D01*
X005391Y003384D02*
X005393Y003393D01*
X005398Y003401D01*
X005406Y003406D01*
X005415Y003408D01*
X005424Y003406D01*
X005432Y003401D01*
X005437Y003393D01*
X005439Y003384D01*
X005437Y003375D01*
X005432Y003367D01*
X005424Y003362D01*
X005415Y003360D01*
X005406Y003362D01*
X005398Y003367D01*
X005393Y003375D01*
X005391Y003384D01*
X005391Y003284D02*
X005393Y003293D01*
X005398Y003301D01*
X005406Y003306D01*
X005415Y003308D01*
X005424Y003306D01*
X005432Y003301D01*
X005437Y003293D01*
X005439Y003284D01*
X005437Y003275D01*
X005432Y003267D01*
X005424Y003262D01*
X005415Y003260D01*
X005406Y003262D01*
X005398Y003267D01*
X005393Y003275D01*
X005391Y003284D01*
X005391Y003174D02*
X005393Y003183D01*
X005398Y003191D01*
X005406Y003196D01*
X005415Y003198D01*
X005424Y003196D01*
X005432Y003191D01*
X005437Y003183D01*
X005439Y003174D01*
X005437Y003165D01*
X005432Y003157D01*
X005424Y003152D01*
X005415Y003150D01*
X005406Y003152D01*
X005398Y003157D01*
X005393Y003165D01*
X005391Y003174D01*
X005391Y003064D02*
X005393Y003073D01*
X005398Y003081D01*
X005406Y003086D01*
X005415Y003088D01*
X005424Y003086D01*
X005432Y003081D01*
X005437Y003073D01*
X005439Y003064D01*
X005437Y003055D01*
X005432Y003047D01*
X005424Y003042D01*
X005415Y003040D01*
X005406Y003042D01*
X005398Y003047D01*
X005393Y003055D01*
X005391Y003064D01*
X005391Y002964D02*
X005393Y002973D01*
X005398Y002981D01*
X005406Y002986D01*
X005415Y002988D01*
X005424Y002986D01*
X005432Y002981D01*
X005437Y002973D01*
X005439Y002964D01*
X005437Y002955D01*
X005432Y002947D01*
X005424Y002942D01*
X005415Y002940D01*
X005406Y002942D01*
X005398Y002947D01*
X005393Y002955D01*
X005391Y002964D01*
X005391Y002854D02*
X005393Y002863D01*
X005398Y002871D01*
X005406Y002876D01*
X005415Y002878D01*
X005424Y002876D01*
X005432Y002871D01*
X005437Y002863D01*
X005439Y002854D01*
X005437Y002845D01*
X005432Y002837D01*
X005424Y002832D01*
X005415Y002830D01*
X005406Y002832D01*
X005398Y002837D01*
X005393Y002845D01*
X005391Y002854D01*
X005491Y002964D02*
X005493Y002973D01*
X005498Y002981D01*
X005506Y002986D01*
X005515Y002988D01*
X005524Y002986D01*
X005532Y002981D01*
X005537Y002973D01*
X005539Y002964D01*
X005537Y002955D01*
X005532Y002947D01*
X005524Y002942D01*
X005515Y002940D01*
X005506Y002942D01*
X005498Y002947D01*
X005493Y002955D01*
X005491Y002964D01*
X005491Y003064D02*
X005493Y003073D01*
X005498Y003081D01*
X005506Y003086D01*
X005515Y003088D01*
X005524Y003086D01*
X005532Y003081D01*
X005537Y003073D01*
X005539Y003064D01*
X005537Y003055D01*
X005532Y003047D01*
X005524Y003042D01*
X005515Y003040D01*
X005506Y003042D01*
X005498Y003047D01*
X005493Y003055D01*
X005491Y003064D01*
X005491Y003174D02*
X005493Y003183D01*
X005498Y003191D01*
X005506Y003196D01*
X005515Y003198D01*
X005524Y003196D01*
X005532Y003191D01*
X005537Y003183D01*
X005539Y003174D01*
X005537Y003165D01*
X005532Y003157D01*
X005524Y003152D01*
X005515Y003150D01*
X005506Y003152D01*
X005498Y003157D01*
X005493Y003165D01*
X005491Y003174D01*
X005491Y003284D02*
X005493Y003293D01*
X005498Y003301D01*
X005506Y003306D01*
X005515Y003308D01*
X005524Y003306D01*
X005532Y003301D01*
X005537Y003293D01*
X005539Y003284D01*
X005537Y003275D01*
X005532Y003267D01*
X005524Y003262D01*
X005515Y003260D01*
X005506Y003262D01*
X005498Y003267D01*
X005493Y003275D01*
X005491Y003284D01*
X005491Y003384D02*
X005493Y003393D01*
X005498Y003401D01*
X005506Y003406D01*
X005515Y003408D01*
X005524Y003406D01*
X005532Y003401D01*
X005537Y003393D01*
X005539Y003384D01*
X005537Y003375D01*
X005532Y003367D01*
X005524Y003362D01*
X005515Y003360D01*
X005506Y003362D01*
X005498Y003367D01*
X005493Y003375D01*
X005491Y003384D01*
X005591Y003384D02*
X005593Y003393D01*
X005598Y003401D01*
X005606Y003406D01*
X005615Y003408D01*
X005624Y003406D01*
X005632Y003401D01*
X005637Y003393D01*
X005639Y003384D01*
X005637Y003375D01*
X005632Y003367D01*
X005624Y003362D01*
X005615Y003360D01*
X005606Y003362D01*
X005598Y003367D01*
X005593Y003375D01*
X005591Y003384D01*
X005591Y003284D02*
X005593Y003293D01*
X005598Y003301D01*
X005606Y003306D01*
X005615Y003308D01*
X005624Y003306D01*
X005632Y003301D01*
X005637Y003293D01*
X005639Y003284D01*
X005637Y003275D01*
X005632Y003267D01*
X005624Y003262D01*
X005615Y003260D01*
X005606Y003262D01*
X005598Y003267D01*
X005593Y003275D01*
X005591Y003284D01*
X005591Y003174D02*
X005593Y003183D01*
X005598Y003191D01*
X005606Y003196D01*
X005615Y003198D01*
X005624Y003196D01*
X005632Y003191D01*
X005637Y003183D01*
X005639Y003174D01*
X005637Y003165D01*
X005632Y003157D01*
X005624Y003152D01*
X005615Y003150D01*
X005606Y003152D01*
X005598Y003157D01*
X005593Y003165D01*
X005591Y003174D01*
X005591Y003064D02*
X005593Y003073D01*
X005598Y003081D01*
X005606Y003086D01*
X005615Y003088D01*
X005624Y003086D01*
X005632Y003081D01*
X005637Y003073D01*
X005639Y003064D01*
X005637Y003055D01*
X005632Y003047D01*
X005624Y003042D01*
X005615Y003040D01*
X005606Y003042D01*
X005598Y003047D01*
X005593Y003055D01*
X005591Y003064D01*
X006002Y002070D02*
X006002Y001201D01*
X002282Y001200D01*
X002282Y002070D01*
X002283Y002070D02*
X006002Y002070D01*
X005605Y001799D02*
X005580Y001819D01*
X005570Y001824D01*
X005545Y001829D01*
X005515Y001839D01*
X005160Y001839D01*
X005135Y001829D01*
X005115Y001814D01*
X005100Y001794D01*
X005100Y001764D01*
X005110Y001744D01*
X005130Y001724D01*
X005145Y001714D01*
X005290Y001714D01*
X005285Y001639D01*
X005285Y001539D01*
X005290Y001529D01*
X005290Y001314D01*
X005295Y001299D01*
X005310Y001279D01*
X005325Y001264D01*
X005400Y001264D01*
X005410Y001269D01*
X005415Y001279D01*
X005420Y001294D01*
X005425Y001304D01*
X005425Y001359D01*
X005420Y001464D01*
X005420Y001714D01*
X005490Y001709D01*
X005555Y001704D01*
X005575Y001714D01*
X005590Y001724D01*
X005610Y001754D01*
X005610Y001779D01*
X005605Y001799D01*
X005075Y001804D02*
X005065Y001824D01*
X005045Y001834D01*
X005020Y001844D01*
X004755Y001844D01*
X004735Y001839D01*
X004710Y001829D01*
X004690Y001814D01*
X004670Y001784D01*
X004665Y001774D01*
X004660Y001699D01*
X004655Y001569D01*
X004655Y001404D01*
X004665Y001354D01*
X004685Y001319D01*
X004710Y001294D01*
X004735Y001274D01*
X004760Y001264D01*
X004810Y001259D01*
X004980Y001259D01*
X005010Y001264D01*
X005045Y001274D01*
X005065Y001289D01*
X005080Y001299D01*
X005085Y001309D01*
X005085Y001359D01*
X005075Y001379D01*
X005055Y001394D01*
X005040Y001399D01*
X005015Y001399D01*
X004990Y001389D01*
X004810Y001389D01*
X004790Y001404D01*
X004790Y001494D01*
X004900Y001494D01*
X004910Y001499D01*
X004955Y001499D01*
X004975Y001504D01*
X005000Y001514D01*
X005015Y001529D01*
X005025Y001544D01*
X005025Y001579D01*
X005015Y001599D01*
X005000Y001609D01*
X004990Y001614D01*
X004955Y001614D01*
X004945Y001619D01*
X004865Y001619D01*
X004855Y001614D01*
X004790Y001614D01*
X004790Y001699D01*
X004795Y001714D01*
X004800Y001719D01*
X004820Y001724D01*
X004920Y001724D01*
X004930Y001719D01*
X005025Y001719D01*
X005040Y001724D01*
X005060Y001744D01*
X005070Y001759D01*
X005075Y001774D01*
X005075Y001804D01*
X004555Y001804D02*
X004545Y001824D01*
X004525Y001839D01*
X004510Y001844D01*
X004485Y001849D01*
X004470Y001844D01*
X004445Y001829D01*
X004215Y001604D01*
X004220Y001654D01*
X004225Y001694D01*
X004220Y001749D01*
X004210Y001804D01*
X004205Y001824D01*
X004180Y001844D01*
X004170Y001849D01*
X004130Y001849D01*
X004100Y001829D01*
X004085Y001809D01*
X004085Y001739D01*
X004095Y001674D01*
X004085Y001479D01*
X004075Y001354D01*
X004085Y001309D01*
X004095Y001279D01*
X004120Y001264D01*
X004185Y001264D01*
X004200Y001274D01*
X004210Y001289D01*
X004215Y001299D01*
X004215Y001449D01*
X004285Y001504D01*
X004320Y001439D01*
X004365Y001374D01*
X004405Y001319D01*
X004445Y001279D01*
X004495Y001249D01*
X004505Y001244D01*
X004570Y001244D01*
X004580Y001254D01*
X004600Y001284D01*
X004605Y001299D01*
X004605Y001314D01*
X004595Y001329D01*
X004580Y001349D01*
X004545Y001369D01*
X004495Y001419D01*
X004460Y001464D01*
X004435Y001509D01*
X004380Y001589D01*
X004515Y001714D01*
X004540Y001744D01*
X004550Y001764D01*
X004555Y001784D01*
X004555Y001804D01*
X003990Y001709D02*
X003985Y001679D01*
X003950Y001644D01*
X003890Y001644D01*
X003880Y001654D01*
X003850Y001694D01*
X003815Y001724D01*
X003765Y001724D01*
X003735Y001719D01*
X003695Y001709D01*
X003650Y001669D01*
X003630Y001624D01*
X003620Y001584D01*
X003620Y001499D01*
X003635Y001454D01*
X003655Y001429D01*
X003690Y001404D01*
X003720Y001389D01*
X003830Y001389D01*
X003860Y001404D01*
X003875Y001414D01*
X003905Y001439D01*
X003930Y001449D01*
X003940Y001454D01*
X003955Y001454D01*
X003965Y001449D01*
X003980Y001439D01*
X004005Y001414D01*
X004010Y001389D01*
X004005Y001369D01*
X003995Y001354D01*
X003985Y001334D01*
X003960Y001314D01*
X003920Y001289D01*
X003865Y001269D01*
X003795Y001259D01*
X003725Y001259D01*
X003675Y001269D01*
X003625Y001289D01*
X003585Y001324D01*
X003545Y001364D01*
X003510Y001419D01*
X003490Y001499D01*
X003490Y001574D01*
X003495Y001614D01*
X003510Y001669D01*
X003525Y001709D01*
X003550Y001754D01*
X003580Y001789D01*
X003640Y001824D01*
X003690Y001839D01*
X003750Y001849D01*
X003825Y001849D01*
X003865Y001834D01*
X003905Y001814D01*
X003980Y001739D01*
X003990Y001709D01*
X003415Y001594D02*
X003415Y001479D01*
X003410Y001469D01*
X003375Y001384D01*
X003340Y001344D01*
X003305Y001319D01*
X003265Y001294D01*
X003220Y001274D01*
X003195Y001264D01*
X003060Y001264D01*
X003035Y001274D01*
X002995Y001289D01*
X002955Y001309D01*
X002915Y001339D01*
X002885Y001384D01*
X002860Y001434D01*
X002850Y001504D01*
X002850Y001574D01*
X002855Y001634D01*
X002865Y001664D01*
X002880Y001704D01*
X002910Y001744D01*
X002945Y001779D01*
X002980Y001804D01*
X003025Y001829D01*
X003075Y001844D01*
X003135Y001849D01*
X003180Y001844D01*
X003220Y001834D01*
X003270Y001819D01*
X003305Y001799D01*
X003345Y001759D01*
X003380Y001709D01*
X003400Y001659D01*
X003415Y001594D01*
X003280Y001589D02*
X003265Y001649D01*
X003235Y001684D01*
X003200Y001709D01*
X003155Y001719D01*
X003105Y001719D01*
X003065Y001709D01*
X003030Y001684D01*
X002995Y001639D01*
X002985Y001594D01*
X002975Y001544D01*
X002975Y001509D01*
X002980Y001479D01*
X003010Y001434D01*
X003045Y001409D01*
X003075Y001394D01*
X003120Y001389D01*
X003165Y001389D01*
X003195Y001399D01*
X003230Y001419D01*
X003255Y001444D01*
X003275Y001484D01*
X003280Y001509D01*
X003280Y001589D01*
X002795Y001604D02*
X002775Y001564D01*
X002745Y001524D01*
X002705Y001489D01*
X002670Y001469D01*
X002615Y001459D01*
X002485Y001464D01*
X002485Y001309D01*
X002470Y001294D01*
X002460Y001264D01*
X002365Y001264D01*
X002350Y001284D01*
X002345Y001304D01*
X002345Y001354D01*
X002350Y001484D01*
X002350Y001784D01*
X002365Y001809D01*
X002390Y001829D01*
X002420Y001839D01*
X002490Y001844D01*
X002510Y001849D01*
X002605Y001849D01*
X002640Y001839D01*
X002675Y001824D01*
X002715Y001804D01*
X002750Y001774D01*
X002780Y001734D01*
X002790Y001714D01*
X002795Y001699D01*
X002795Y001604D01*
X002665Y001654D02*
X002655Y001624D01*
X002640Y001594D01*
X002605Y001579D01*
X002520Y001579D01*
X002490Y001584D01*
X002490Y001724D01*
X002525Y001734D01*
X002590Y001734D01*
X002625Y001719D01*
X002645Y001704D01*
X002660Y001679D01*
X002665Y001654D01*
X004805Y001259D02*
X004810Y001259D01*
D20*
X004515Y003454D02*
X004285Y003454D01*
X004025Y003454D02*
X003785Y003454D01*
D21*
X016100Y013669D03*
X016100Y013680D03*
X016100Y013704D03*
D22*
X016100Y013692D03*
D23*
X016100Y013715D03*
D24*
X016095Y014170D03*
X016269Y014368D03*
X016269Y014402D03*
X016293Y014507D03*
X016293Y014531D03*
X016293Y014542D03*
X016304Y014589D03*
X016304Y014612D03*
X016304Y014624D03*
X016304Y014647D03*
X016316Y014670D03*
X016316Y014694D03*
X016316Y014705D03*
X016316Y014729D03*
X016328Y014752D03*
X016328Y014787D03*
X016328Y014810D03*
X016339Y014833D03*
X016665Y014787D03*
X016654Y014694D03*
X016642Y014612D03*
X016630Y014542D03*
X016817Y014402D03*
X016805Y014321D03*
X016700Y014123D03*
X015605Y014647D03*
X015373Y014181D03*
X015373Y014170D03*
X015454Y013925D03*
X015442Y013808D03*
X015431Y013727D03*
D25*
X015640Y013727D03*
X015652Y013762D03*
X015652Y013785D03*
X015652Y013808D03*
X015664Y013843D03*
X015664Y013867D03*
X015664Y013890D03*
X015675Y013925D03*
X015675Y013948D03*
X015675Y013960D03*
X015687Y014030D03*
X015687Y014041D03*
X015699Y014088D03*
X015699Y014111D03*
X015699Y014123D03*
X016386Y014006D03*
D26*
X016392Y013925D03*
X016718Y014006D03*
X016718Y014030D03*
X016718Y014041D03*
X016706Y014088D03*
X016706Y014111D03*
X016695Y014170D03*
X016695Y014181D03*
X016683Y014204D03*
X016729Y013960D03*
X016729Y013948D03*
X016741Y013925D03*
X016741Y013890D03*
X016741Y013867D03*
X016753Y013843D03*
X016753Y013808D03*
X016764Y013762D03*
X016764Y013727D03*
X016089Y013727D03*
X016100Y014181D03*
X016264Y014344D03*
X016298Y014566D03*
X016625Y014531D03*
X016625Y014507D03*
X016625Y014484D03*
X016636Y014566D03*
X016636Y014589D03*
X016648Y014624D03*
X016648Y014647D03*
X016648Y014670D03*
X016660Y014705D03*
X016660Y014729D03*
X016660Y014752D03*
X016671Y014810D03*
X016671Y014833D03*
X015471Y014041D03*
X015471Y014030D03*
X015471Y014006D03*
X015460Y013960D03*
X015460Y013948D03*
X015448Y013890D03*
X015448Y013867D03*
X015448Y013843D03*
X015437Y013785D03*
X015437Y013762D03*
X015378Y014204D03*
D27*
X016112Y014204D03*
X016287Y013727D03*
D28*
X016531Y013727D03*
X016100Y013948D03*
X016450Y014181D03*
D29*
X016269Y014391D03*
X016328Y014764D03*
X016339Y014845D03*
X015373Y014146D03*
X015454Y013902D03*
X015442Y013820D03*
X015431Y013739D03*
X016724Y013983D03*
D30*
X016130Y014472D03*
X015687Y014065D03*
X015675Y013983D03*
X015664Y013902D03*
X015652Y013820D03*
X015640Y013739D03*
X015407Y014472D03*
D31*
X015658Y015171D03*
X015670Y015253D03*
X016066Y015171D03*
X016077Y015253D03*
X016066Y013739D03*
D32*
X016298Y013739D03*
X016753Y013820D03*
X016764Y013739D03*
X016741Y013902D03*
X016706Y014065D03*
X016695Y014146D03*
X016660Y014764D03*
X016671Y014845D03*
X015471Y014065D03*
D33*
X016537Y013739D03*
D34*
X016316Y013750D03*
X016724Y013995D03*
X016712Y014053D03*
X016269Y014379D03*
X016304Y014577D03*
X016328Y014775D03*
X016339Y014822D03*
X016339Y014857D03*
X016665Y014775D03*
X015605Y014659D03*
X015373Y014158D03*
X015454Y013913D03*
X015442Y013832D03*
X015431Y013750D03*
D35*
X015640Y013750D03*
X015652Y013797D03*
X015652Y013832D03*
X015664Y013878D03*
X015664Y013913D03*
X015675Y013971D03*
X015687Y014053D03*
X015699Y014135D03*
X016258Y015404D03*
D36*
X016118Y014461D03*
X016444Y014158D03*
X016432Y014135D03*
X016537Y013750D03*
D37*
X016753Y013797D03*
X016753Y013832D03*
X016741Y013878D03*
X016741Y013913D03*
X016729Y013971D03*
X016706Y014076D03*
X016695Y014135D03*
X016695Y014158D03*
X016683Y014216D03*
X016625Y014496D03*
X016636Y014577D03*
X016648Y014659D03*
X016660Y014740D03*
X016671Y014822D03*
X016671Y014857D03*
X016322Y014740D03*
X016310Y014659D03*
X016275Y014414D03*
X016764Y013750D03*
X015448Y013878D03*
X015437Y013797D03*
X015460Y013971D03*
X015471Y014053D03*
D38*
X015769Y014170D03*
X015769Y014181D03*
X015769Y014204D03*
X016386Y013890D03*
X016328Y013762D03*
X016467Y014589D03*
X016479Y014670D03*
X016491Y014752D03*
X016502Y014810D03*
X016502Y014833D03*
X016071Y015195D03*
X016083Y015276D03*
X015675Y015276D03*
X015664Y015195D03*
D39*
X016089Y013960D03*
X016543Y013762D03*
D40*
X016741Y013855D03*
X016729Y013937D03*
X016718Y014018D03*
X016706Y014100D03*
X016392Y013937D03*
X016764Y013773D03*
X016625Y014519D03*
X016636Y014554D03*
X016648Y014635D03*
X016660Y014717D03*
X016671Y014798D03*
X015471Y014018D03*
X015460Y013937D03*
X015448Y013855D03*
X015437Y013773D03*
D41*
X015652Y013773D03*
X015664Y013855D03*
X015675Y013937D03*
X015687Y014018D03*
X015699Y014100D03*
X016537Y013773D03*
D42*
X016339Y013773D03*
X015769Y014193D03*
X016467Y014600D03*
D43*
X016380Y013867D03*
X016368Y013843D03*
X016357Y013808D03*
X016345Y013785D03*
D44*
X016543Y013785D03*
X015681Y014006D03*
X015402Y014484D03*
X015611Y014694D03*
X015611Y014705D03*
X015611Y014729D03*
X016135Y014484D03*
X016264Y015393D03*
D45*
X016398Y013948D03*
X016759Y013785D03*
D46*
X016368Y013832D03*
X016345Y013797D03*
X015646Y015101D03*
D47*
X015530Y015404D03*
X015693Y014076D03*
X015681Y013995D03*
X016170Y013832D03*
X016543Y013797D03*
D48*
X016549Y013808D03*
X016141Y014507D03*
X016176Y014705D03*
X016176Y014729D03*
X016176Y014752D03*
X016188Y014787D03*
X016188Y014810D03*
X016258Y015311D03*
X016258Y015346D03*
X016269Y015369D03*
X015524Y015393D03*
X015489Y015206D03*
X015489Y015195D03*
X015489Y015148D03*
X015477Y015125D03*
X015477Y015113D03*
X015466Y015031D03*
X015466Y014985D03*
X015454Y014950D03*
X015454Y014915D03*
X015442Y014868D03*
X015442Y014833D03*
X015442Y014810D03*
X015407Y014624D03*
X015407Y014612D03*
X015407Y014589D03*
X015407Y014566D03*
X015396Y014531D03*
X015396Y014507D03*
D49*
X015937Y013820D03*
D50*
X016182Y013820D03*
D51*
X016368Y013820D03*
X016054Y015090D03*
X015646Y015090D03*
D52*
X015477Y015090D03*
X015489Y015171D03*
X015466Y015008D03*
X015454Y014927D03*
X015442Y014845D03*
X016176Y014764D03*
X016258Y015334D03*
X016549Y013820D03*
D53*
X015943Y013832D03*
X015978Y014053D03*
X015990Y014135D03*
D54*
X016130Y014216D03*
X016386Y013995D03*
X016549Y013832D03*
X016141Y014496D03*
X016176Y014740D03*
X016176Y014775D03*
X016188Y014822D03*
X015617Y014740D03*
X015442Y014822D03*
X015442Y014857D03*
X015454Y014903D03*
X015454Y014938D03*
X015466Y014997D03*
X015466Y015020D03*
X015477Y015078D03*
X015477Y015101D03*
X015489Y015160D03*
X015489Y015183D03*
X015407Y014577D03*
X015396Y014496D03*
X016258Y015323D03*
X016258Y015358D03*
D55*
X016514Y014892D03*
X016048Y013843D03*
D56*
X016555Y013843D03*
X016159Y014612D03*
X016170Y014694D03*
X016240Y015195D03*
X016252Y015276D03*
X016252Y015288D03*
X015506Y015311D03*
X015495Y015229D03*
X015425Y014729D03*
D57*
X016054Y013855D03*
D58*
X016380Y013855D03*
D59*
X016054Y013867D03*
X016054Y013890D03*
D60*
X016054Y013878D03*
D61*
X016386Y013878D03*
X016572Y013971D03*
X016246Y014135D03*
X015769Y014216D03*
X015757Y014158D03*
X016467Y014577D03*
X016502Y014822D03*
X016060Y015101D03*
X016071Y015183D03*
X015675Y015264D03*
X015664Y015183D03*
D62*
X016054Y013902D03*
D63*
X016077Y014146D03*
X016392Y013902D03*
X016811Y014391D03*
D64*
X016048Y013913D03*
D65*
X016089Y014158D03*
X016427Y014333D03*
X016811Y014333D03*
X016811Y014379D03*
X016473Y014659D03*
X016485Y014740D03*
X016497Y014775D03*
X016508Y014857D03*
X016392Y013913D03*
D66*
X016054Y013925D03*
X016054Y014833D03*
X016066Y014868D03*
X016066Y014892D03*
X016508Y014868D03*
X016520Y014915D03*
X015879Y015311D03*
D67*
X016118Y013937D03*
D68*
X016566Y013948D03*
X016566Y013960D03*
X016427Y014321D03*
X016462Y014531D03*
X016462Y014542D03*
X016462Y014566D03*
X016473Y014612D03*
X016473Y014624D03*
X016473Y014647D03*
X016485Y014694D03*
X016485Y014705D03*
X016485Y014729D03*
X016497Y014787D03*
X016811Y014368D03*
X016811Y014344D03*
X015611Y014670D03*
D69*
X016252Y014321D03*
X016066Y014006D03*
X016392Y013960D03*
D70*
X016083Y013971D03*
X016153Y014577D03*
X016165Y014659D03*
X016234Y015160D03*
X016234Y015183D03*
X016246Y015241D03*
X016246Y015264D03*
X015512Y015323D03*
X015512Y015358D03*
X015501Y015264D03*
X015501Y015241D03*
X015431Y014775D03*
X015431Y014740D03*
X015419Y014659D03*
D71*
X016392Y013971D03*
D72*
X016281Y014472D03*
X015466Y013983D03*
D73*
X016077Y013983D03*
X016392Y013983D03*
D74*
X016572Y013983D03*
D75*
X016281Y014461D03*
X015384Y014216D03*
X015466Y013995D03*
D76*
X016071Y013995D03*
D77*
X016572Y013995D03*
D78*
X016572Y014006D03*
D79*
X016106Y014193D03*
X016060Y014018D03*
D80*
X016374Y014018D03*
D81*
X016578Y014018D03*
D82*
X015984Y014030D03*
D83*
X016363Y014030D03*
D84*
X016578Y014030D03*
D85*
X015990Y014123D03*
X015978Y014041D03*
D86*
X016345Y014041D03*
D87*
X016345Y014053D03*
D88*
X015978Y014065D03*
D89*
X016339Y014065D03*
D90*
X015431Y014135D03*
X015419Y014076D03*
D91*
X015984Y014076D03*
D92*
X016339Y014076D03*
D93*
X015425Y014088D03*
D94*
X015984Y014088D03*
X015984Y014111D03*
D95*
X016345Y014088D03*
X016357Y014111D03*
D96*
X015431Y014100D03*
D97*
X015984Y014100D03*
D98*
X016345Y014100D03*
D99*
X015431Y014111D03*
X015431Y014123D03*
D100*
X016363Y014123D03*
D101*
X015757Y014146D03*
X016491Y014764D03*
X016502Y014845D03*
D102*
X016252Y015416D03*
X015541Y015416D03*
X016438Y014146D03*
D103*
X016444Y014170D03*
D104*
X016269Y014356D03*
X016293Y014519D03*
X016293Y014554D03*
X016304Y014600D03*
X016304Y014635D03*
X016316Y014682D03*
X016316Y014717D03*
X016328Y014798D03*
X016654Y014682D03*
X016642Y014600D03*
X015373Y014193D03*
D105*
X016450Y014193D03*
D106*
X016689Y014193D03*
X016281Y014437D03*
D107*
X016456Y014204D03*
D108*
X016444Y014216D03*
D109*
X016036Y014228D03*
D110*
X016036Y014239D03*
D111*
X016089Y014251D03*
X016089Y014263D03*
X016089Y014286D03*
D112*
X016089Y014274D03*
D113*
X016502Y014298D03*
D114*
X016508Y014309D03*
D115*
X015751Y014333D03*
D116*
X016258Y014333D03*
D117*
X015751Y014344D03*
D118*
X016432Y014344D03*
X016432Y014368D03*
X016444Y014426D03*
X016456Y014507D03*
D119*
X015757Y014356D03*
D120*
X016432Y014356D03*
X016456Y014519D03*
D121*
X016462Y014554D03*
X016473Y014635D03*
X016485Y014682D03*
X016485Y014717D03*
X016497Y014798D03*
X016811Y014356D03*
X015611Y014682D03*
D122*
X015757Y014368D03*
X015908Y015509D03*
D123*
X015902Y015486D03*
X015751Y014379D03*
D124*
X015623Y014775D03*
X016287Y014496D03*
X016450Y014461D03*
X016438Y014414D03*
X016438Y014379D03*
D125*
X015757Y014391D03*
D126*
X015623Y014764D03*
X016450Y014472D03*
X016438Y014391D03*
D127*
X015757Y014402D03*
X015757Y014426D03*
X015897Y015427D03*
X015897Y015451D03*
X015908Y015474D03*
D128*
X015623Y014787D03*
X016450Y014484D03*
X016450Y014449D03*
X016438Y014402D03*
D129*
X015757Y014414D03*
X015897Y015439D03*
D130*
X016712Y014414D03*
D131*
X016281Y014426D03*
X016281Y014449D03*
X016281Y014484D03*
D132*
X016712Y014449D03*
X016712Y014426D03*
D133*
X015757Y014437D03*
X015908Y015462D03*
D134*
X015623Y014798D03*
X016450Y014437D03*
D135*
X016712Y014437D03*
D136*
X015763Y014449D03*
D137*
X015600Y014461D03*
D138*
X016718Y014461D03*
D139*
X016724Y014472D03*
D140*
X016456Y014496D03*
D141*
X016176Y014717D03*
X016188Y014798D03*
X016258Y015299D03*
X016269Y015381D03*
X015477Y015136D03*
X015466Y015043D03*
X015454Y014962D03*
X015407Y014600D03*
X015407Y014554D03*
X015396Y014519D03*
D142*
X015413Y014635D03*
X015425Y014717D03*
X015495Y015218D03*
X016159Y014600D03*
X016147Y014519D03*
D143*
X016153Y014531D03*
X016153Y014542D03*
X016153Y014566D03*
X016153Y014589D03*
X016165Y014624D03*
X016165Y014647D03*
X016165Y014670D03*
X016234Y015148D03*
X016246Y015206D03*
X016246Y015229D03*
X015512Y015346D03*
X015512Y015369D03*
X015501Y015288D03*
X015501Y015276D03*
X015431Y014787D03*
X015431Y014752D03*
X015419Y014705D03*
X015419Y014694D03*
X015419Y014670D03*
X015419Y014647D03*
D144*
X015402Y014542D03*
X015448Y014892D03*
X015460Y014973D03*
X015471Y015055D03*
X015471Y015066D03*
D145*
X015501Y015299D03*
X015512Y015381D03*
X015431Y014798D03*
X015419Y014682D03*
X016153Y014554D03*
X016165Y014635D03*
X016165Y014682D03*
X016246Y015218D03*
D146*
X015611Y014717D03*
D147*
X015617Y014752D03*
D148*
X015431Y014764D03*
X015501Y015253D03*
X015512Y015334D03*
X016246Y015253D03*
X016234Y015171D03*
D149*
X016060Y014845D03*
D150*
X016060Y014857D03*
D151*
X015448Y014880D03*
D152*
X016066Y014880D03*
D153*
X016514Y014880D03*
D154*
X016520Y014903D03*
X016066Y014903D03*
D155*
X016071Y014915D03*
D156*
X016066Y015113D03*
X016066Y015125D03*
X016066Y015148D03*
X016077Y015206D03*
X016077Y015229D03*
X015670Y015229D03*
X015670Y015206D03*
X015658Y015148D03*
X015658Y015125D03*
X015658Y015113D03*
D157*
X015658Y015136D03*
X015670Y015218D03*
X016066Y015136D03*
X016077Y015218D03*
D158*
X016077Y015241D03*
X016077Y015264D03*
X016066Y015160D03*
X015670Y015241D03*
X015658Y015160D03*
D159*
X015885Y015288D03*
D160*
X015879Y015299D03*
D161*
X015902Y015497D03*
D162*
X015908Y015521D03*
D163*
X015902Y015532D03*
D164*
X015908Y015544D03*
M02*
