%
M48
M72
T01C0.0120
T02C0.0157
T03C0.0160
T04C0.0180
T05C0.0394
T06C0.0492
T07C0.0550
T08C0.0787
%
T01
X10609Y4811
X10609Y5111
X11740Y4562
X11759Y4161
X13903Y5559
X14253Y5559
X14293Y4153
X14753Y3384
X14122Y3154
X16253Y3631
X16543Y3631
X16543Y3931
X16253Y3931
X16253Y4231
X16543Y4231
X16543Y4531
X16253Y4531
X16072Y5881
X16072Y6181
X16072Y6481
X17803Y7681
X17803Y7981
X17803Y8281
X17803Y8581
X18284Y8034
X18284Y7734
X15804Y8334
X16553Y9834
X16803Y9834
X14644Y12241
X11053Y12684
X10453Y12684
X10450Y15716
X10750Y15716
X11050Y15716
X11350Y15716
X11650Y15716
X11950Y15716
X10150Y15716
X9850Y15716
X9550Y15716
X5844Y14441
X5844Y14141
X5544Y14141
X5544Y14441
X5544Y13841
X5844Y13841
X5844Y12691
X5544Y12691
X5544Y12391
X5844Y12391
X11503Y6434
X11803Y6434
X18853Y4781
X18853Y4481
X18853Y4181
X18853Y3881
X19997Y4034
X19997Y3334
X19734Y4784
X19434Y4784
T02
X12450Y14457
X12450Y15953
X9049Y15953
X9049Y14457
T03
X5053Y14484
X5053Y14184
X14935Y9267
X15245Y9267
X14984Y6834
X14984Y6534
X17314Y5120
X17614Y5120
T04
X10750Y14934
X10750Y15234
T05
X11649Y6809
T06
X17715Y9767
X18588Y7366
T07
X10750Y12342
T08
X19567Y5568
M30
