G75*
G70*
%OFA0B0*%
%FSLAX24Y24*%
%IPPOS*%
%LPD*%
%AMOC8*
5,1,8,0,0,1.08239X$1,22.5*
%
%ADD10C,0.0050*%
%ADD11C,0.0000*%
%ADD12R,0.0433X0.0630*%
%ADD13R,0.0433X0.0394*%
%ADD14R,0.0394X0.0433*%
%ADD15R,0.0250X0.0354*%
%ADD16R,0.0354X0.0250*%
%ADD17R,0.0810X0.0240*%
%ADD18R,0.0900X0.0900*%
%ADD19R,0.0472X0.0217*%
%ADD20R,0.0472X0.0138*%
%ADD21R,0.0315X0.0472*%
%ADD22R,0.0250X0.0472*%
%ADD23C,0.0004*%
%ADD24C,0.0433*%
%ADD25C,0.0400*%
%ADD26C,0.0300*%
%ADD27R,0.0300X0.0300*%
%ADD28R,0.0236X0.0600*%
%ADD29R,0.0400X0.1450*%
%ADD30R,0.0197X0.0276*%
%ADD31C,0.1000*%
%ADD32C,0.0250*%
%ADD33C,0.1400*%
%ADD34C,0.0320*%
%ADD35C,0.0390*%
%ADD36C,0.0300*%
%ADD37C,0.0100*%
%ADD38C,0.0240*%
%ADD39C,0.0240*%
%ADD40C,0.0070*%
%ADD41C,0.0140*%
%ADD42C,0.0360*%
%ADD43C,0.0220*%
%ADD44C,0.0280*%
%ADD45C,0.0200*%
D10*
X003005Y000806D02*
X003005Y016706D01*
X003255Y016706D02*
X003259Y016755D01*
X003297Y016845D01*
X003366Y016914D01*
X003456Y016951D01*
X003505Y016956D01*
X014305Y016956D01*
X014353Y016951D01*
X014443Y016914D01*
X014512Y016845D01*
X014550Y016755D01*
X014555Y016706D01*
X014555Y000806D01*
X014550Y000757D01*
X014512Y000667D01*
X014443Y000598D01*
X014353Y000561D01*
X014305Y000556D01*
X003505Y000556D01*
X003456Y000561D01*
X003366Y000598D01*
X003297Y000667D01*
X003259Y000757D01*
X003255Y000806D01*
X003255Y016706D01*
X003256Y016720D02*
X003692Y016720D01*
X003722Y016732D02*
X003616Y016688D01*
X003534Y016607D01*
X003490Y016500D01*
X003490Y016385D01*
X003534Y016278D01*
X003616Y016197D01*
X003722Y016152D01*
X003838Y016152D01*
X003944Y016197D01*
X004026Y016278D01*
X004070Y016385D01*
X004070Y016500D01*
X004026Y016607D01*
X003944Y016688D01*
X003838Y016732D01*
X003722Y016732D01*
X003599Y016671D02*
X003255Y016671D01*
X003255Y016623D02*
X003550Y016623D01*
X003521Y016574D02*
X003255Y016574D01*
X003255Y016526D02*
X003501Y016526D01*
X003490Y016477D02*
X003255Y016477D01*
X003255Y016429D02*
X003490Y016429D01*
X003492Y016380D02*
X003255Y016380D01*
X003255Y016332D02*
X003512Y016332D01*
X003532Y016283D02*
X003255Y016283D01*
X003255Y016235D02*
X003578Y016235D01*
X003641Y016186D02*
X003255Y016186D01*
X003255Y016138D02*
X014555Y016138D01*
X014555Y016186D02*
X003919Y016186D01*
X003982Y016235D02*
X014555Y016235D01*
X014555Y016283D02*
X004028Y016283D01*
X004048Y016332D02*
X014555Y016332D01*
X014555Y016380D02*
X004068Y016380D01*
X004070Y016429D02*
X014555Y016429D01*
X014555Y016477D02*
X004070Y016477D01*
X004060Y016526D02*
X014555Y016526D01*
X014555Y016574D02*
X004039Y016574D01*
X004010Y016623D02*
X014555Y016623D01*
X014555Y016671D02*
X003962Y016671D01*
X003869Y016720D02*
X014553Y016720D01*
X014544Y016768D02*
X003265Y016768D01*
X003285Y016817D02*
X014524Y016817D01*
X014492Y016865D02*
X003317Y016865D01*
X003365Y016914D02*
X014444Y016914D01*
X014305Y017206D02*
X014349Y017204D01*
X014392Y017198D01*
X014434Y017189D01*
X014476Y017176D01*
X014516Y017159D01*
X014555Y017139D01*
X014592Y017116D01*
X014626Y017089D01*
X014659Y017060D01*
X014688Y017027D01*
X014715Y016993D01*
X014738Y016956D01*
X014758Y016917D01*
X014775Y016877D01*
X014788Y016835D01*
X014797Y016793D01*
X014803Y016750D01*
X014805Y016706D01*
X014805Y000806D01*
X014555Y000812D02*
X014106Y000812D01*
X014074Y000798D02*
X014181Y000842D01*
X014262Y000924D01*
X014306Y001030D01*
X014306Y001146D01*
X014262Y001252D01*
X014181Y001334D01*
X014074Y001378D01*
X013959Y001378D01*
X013852Y001334D01*
X013770Y001252D01*
X013726Y001146D01*
X013726Y001030D01*
X013770Y000924D01*
X013852Y000842D01*
X013959Y000798D01*
X014074Y000798D01*
X014198Y000860D02*
X014555Y000860D01*
X014555Y000909D02*
X014247Y000909D01*
X014276Y000957D02*
X014555Y000957D01*
X014555Y001006D02*
X014296Y001006D01*
X014306Y001054D02*
X014555Y001054D01*
X014555Y001103D02*
X014306Y001103D01*
X014304Y001151D02*
X014555Y001151D01*
X014555Y001200D02*
X014284Y001200D01*
X014264Y001248D02*
X014555Y001248D01*
X014555Y001297D02*
X014218Y001297D01*
X014154Y001345D02*
X014555Y001345D01*
X014555Y001394D02*
X003255Y001394D01*
X003255Y001442D02*
X014555Y001442D01*
X014555Y001491D02*
X003255Y001491D01*
X003255Y001539D02*
X006062Y001539D01*
X006111Y001519D02*
X010540Y001519D01*
X010849Y001647D01*
X010849Y001647D01*
X011086Y001883D01*
X011214Y002192D01*
X011214Y003537D01*
X012900Y003537D01*
X013212Y003639D01*
X013478Y003832D01*
X013671Y004098D01*
X013773Y004410D01*
X013773Y005663D01*
X014011Y005863D01*
X014174Y006145D01*
X014231Y006466D01*
X014174Y006787D01*
X014174Y006787D01*
X014011Y007069D01*
X014011Y007069D01*
X013772Y007270D01*
X013771Y007852D01*
X013771Y007901D01*
X013771Y007902D01*
X013752Y007947D01*
X013733Y007993D01*
X013733Y007993D01*
X013733Y007994D01*
X013698Y008028D01*
X013663Y008064D01*
X013663Y008064D01*
X013663Y008064D01*
X013617Y008083D01*
X013571Y008102D01*
X013571Y008102D01*
X013571Y008102D01*
X013521Y008102D01*
X013316Y008102D01*
X013314Y008106D01*
X013336Y008158D01*
X013336Y008279D01*
X013314Y008331D01*
X013336Y008383D01*
X013336Y008504D01*
X013314Y008556D01*
X013336Y008608D01*
X013336Y008729D01*
X013314Y008781D01*
X013317Y008788D01*
X013571Y008788D01*
X013663Y008826D01*
X013733Y008896D01*
X013771Y008988D01*
X013771Y009849D01*
X013688Y010051D01*
X013688Y010051D01*
X013533Y010206D01*
X013331Y010290D01*
X012205Y010290D01*
X012147Y010348D01*
X012061Y010414D01*
X011967Y010468D01*
X011867Y010510D01*
X011763Y010538D01*
X011655Y010552D01*
X011626Y010552D01*
X011626Y010290D01*
X011576Y010290D01*
X011576Y010552D01*
X011547Y010552D01*
X011440Y010538D01*
X011421Y010533D01*
X011421Y014694D01*
X011345Y014878D01*
X011205Y015018D01*
X011205Y015018D01*
X011021Y015094D01*
X008848Y015094D01*
X008848Y015306D01*
X008850Y015311D01*
X008848Y015355D01*
X008848Y015400D01*
X008846Y015405D01*
X008843Y015479D01*
X008716Y015679D01*
X008506Y015788D01*
X008506Y015788D01*
X008393Y015783D01*
X006208Y015783D01*
X005879Y015677D01*
X005600Y015474D01*
X005600Y015474D01*
X005600Y015474D01*
X005397Y015194D01*
X005290Y014866D01*
X005290Y012892D01*
X005397Y012706D01*
X005583Y012599D01*
X005590Y012599D01*
X005590Y008988D01*
X005628Y008896D01*
X005699Y008826D01*
X005791Y008788D01*
X006045Y008788D01*
X006047Y008781D01*
X006026Y008729D01*
X006026Y008608D01*
X006047Y008556D01*
X006026Y008504D01*
X006026Y008383D01*
X006047Y008331D01*
X006026Y008279D01*
X006026Y008158D01*
X006047Y008106D01*
X006046Y008102D01*
X005796Y008102D01*
X005704Y008064D01*
X005634Y007993D01*
X005595Y007901D01*
X005595Y002034D01*
X005693Y001798D01*
X005875Y001617D01*
X006111Y001519D01*
X005945Y001588D02*
X003255Y001588D01*
X003255Y001636D02*
X005855Y001636D01*
X005875Y001617D02*
X005875Y001617D01*
X005875Y001617D01*
X005807Y001685D02*
X003255Y001685D01*
X003255Y001733D02*
X005758Y001733D01*
X005710Y001782D02*
X003255Y001782D01*
X003255Y001830D02*
X005680Y001830D01*
X005693Y001798D02*
X005693Y001798D01*
X005660Y001879D02*
X003255Y001879D01*
X003255Y001927D02*
X005640Y001927D01*
X005620Y001976D02*
X003255Y001976D01*
X003255Y002024D02*
X005600Y002024D01*
X005595Y002073D02*
X003255Y002073D01*
X003255Y002121D02*
X005595Y002121D01*
X005595Y002170D02*
X003255Y002170D01*
X003255Y002218D02*
X005595Y002218D01*
X005595Y002267D02*
X003255Y002267D01*
X003255Y002315D02*
X005595Y002315D01*
X005595Y002364D02*
X003255Y002364D01*
X003255Y002412D02*
X005595Y002412D01*
X005595Y002461D02*
X003255Y002461D01*
X003255Y002509D02*
X005595Y002509D01*
X005595Y002558D02*
X003255Y002558D01*
X003255Y002606D02*
X005595Y002606D01*
X005595Y002655D02*
X003255Y002655D01*
X003255Y002703D02*
X005595Y002703D01*
X005595Y002752D02*
X003255Y002752D01*
X003255Y002800D02*
X005595Y002800D01*
X005595Y002849D02*
X003255Y002849D01*
X003255Y002897D02*
X005595Y002897D01*
X005595Y002946D02*
X003255Y002946D01*
X003255Y002994D02*
X005595Y002994D01*
X005595Y003043D02*
X003255Y003043D01*
X003255Y003091D02*
X005595Y003091D01*
X005595Y003140D02*
X003255Y003140D01*
X003255Y003188D02*
X005595Y003188D01*
X005595Y003237D02*
X003255Y003237D01*
X003255Y003285D02*
X005595Y003285D01*
X005595Y003334D02*
X003255Y003334D01*
X003255Y003382D02*
X005595Y003382D01*
X005595Y003431D02*
X003255Y003431D01*
X003255Y003479D02*
X005595Y003479D01*
X005595Y003528D02*
X003255Y003528D01*
X003255Y003576D02*
X005595Y003576D01*
X005595Y003625D02*
X003255Y003625D01*
X003255Y003673D02*
X005595Y003673D01*
X005595Y003722D02*
X003255Y003722D01*
X003255Y003770D02*
X005595Y003770D01*
X005595Y003819D02*
X003255Y003819D01*
X003255Y003867D02*
X005595Y003867D01*
X005595Y003916D02*
X003255Y003916D01*
X003255Y003964D02*
X005595Y003964D01*
X005595Y004013D02*
X003255Y004013D01*
X003255Y004061D02*
X005595Y004061D01*
X005595Y004110D02*
X003255Y004110D01*
X003255Y004158D02*
X005595Y004158D01*
X005595Y004207D02*
X003255Y004207D01*
X003255Y004255D02*
X005595Y004255D01*
X005595Y004304D02*
X003255Y004304D01*
X003255Y004352D02*
X005595Y004352D01*
X005595Y004401D02*
X003255Y004401D01*
X003255Y004449D02*
X005595Y004449D01*
X005595Y004498D02*
X003255Y004498D01*
X003255Y004546D02*
X005595Y004546D01*
X005595Y004595D02*
X003255Y004595D01*
X003255Y004643D02*
X005595Y004643D01*
X005595Y004692D02*
X003255Y004692D01*
X003255Y004740D02*
X005595Y004740D01*
X005595Y004789D02*
X003255Y004789D01*
X003255Y004837D02*
X005595Y004837D01*
X005595Y004886D02*
X003255Y004886D01*
X003255Y004934D02*
X005595Y004934D01*
X005595Y004983D02*
X003255Y004983D01*
X003255Y005031D02*
X005595Y005031D01*
X005595Y005080D02*
X003255Y005080D01*
X003255Y005128D02*
X005595Y005128D01*
X005595Y005177D02*
X003255Y005177D01*
X003255Y005225D02*
X005595Y005225D01*
X005595Y005274D02*
X003255Y005274D01*
X003255Y005322D02*
X005595Y005322D01*
X005595Y005371D02*
X003255Y005371D01*
X003255Y005419D02*
X005595Y005419D01*
X005595Y005468D02*
X003255Y005468D01*
X003255Y005516D02*
X005595Y005516D01*
X005595Y005565D02*
X003255Y005565D01*
X003255Y005613D02*
X005595Y005613D01*
X005595Y005662D02*
X003255Y005662D01*
X003255Y005710D02*
X005595Y005710D01*
X005595Y005759D02*
X003255Y005759D01*
X003255Y005807D02*
X005595Y005807D01*
X005595Y005856D02*
X003255Y005856D01*
X003255Y005904D02*
X005595Y005904D01*
X005595Y005953D02*
X003255Y005953D01*
X003255Y006001D02*
X005595Y006001D01*
X005595Y006050D02*
X003255Y006050D01*
X003255Y006098D02*
X005595Y006098D01*
X005595Y006147D02*
X003255Y006147D01*
X003255Y006195D02*
X005595Y006195D01*
X005595Y006244D02*
X003255Y006244D01*
X003255Y006292D02*
X005595Y006292D01*
X005595Y006341D02*
X003255Y006341D01*
X003255Y006389D02*
X005595Y006389D01*
X005595Y006438D02*
X003255Y006438D01*
X003255Y006486D02*
X005595Y006486D01*
X005595Y006535D02*
X003255Y006535D01*
X003255Y006583D02*
X005595Y006583D01*
X005595Y006632D02*
X003255Y006632D01*
X003255Y006680D02*
X005595Y006680D01*
X005595Y006729D02*
X003255Y006729D01*
X003255Y006777D02*
X005595Y006777D01*
X005595Y006826D02*
X003255Y006826D01*
X003255Y006874D02*
X005595Y006874D01*
X005595Y006923D02*
X003255Y006923D01*
X003255Y006971D02*
X005595Y006971D01*
X005595Y007020D02*
X003255Y007020D01*
X003255Y007068D02*
X005595Y007068D01*
X005595Y007117D02*
X003255Y007117D01*
X003255Y007165D02*
X005595Y007165D01*
X005595Y007214D02*
X003255Y007214D01*
X003255Y007262D02*
X005595Y007262D01*
X005595Y007311D02*
X003255Y007311D01*
X003255Y007359D02*
X005595Y007359D01*
X005595Y007408D02*
X003255Y007408D01*
X003255Y007456D02*
X005595Y007456D01*
X005595Y007505D02*
X003255Y007505D01*
X003255Y007553D02*
X005595Y007553D01*
X005595Y007602D02*
X003255Y007602D01*
X003255Y007650D02*
X005595Y007650D01*
X005595Y007699D02*
X003255Y007699D01*
X003255Y007747D02*
X005595Y007747D01*
X005595Y007796D02*
X003255Y007796D01*
X003255Y007844D02*
X005595Y007844D01*
X005595Y007893D02*
X003255Y007893D01*
X003255Y007941D02*
X005612Y007941D01*
X005632Y007990D02*
X003255Y007990D01*
X003255Y008038D02*
X005678Y008038D01*
X005759Y008087D02*
X003255Y008087D01*
X003255Y008135D02*
X006035Y008135D01*
X006026Y008184D02*
X003255Y008184D01*
X003255Y008232D02*
X006026Y008232D01*
X006026Y008281D02*
X003255Y008281D01*
X003255Y008329D02*
X006047Y008329D01*
X006028Y008378D02*
X003255Y008378D01*
X003255Y008426D02*
X006026Y008426D01*
X006026Y008475D02*
X003255Y008475D01*
X003255Y008523D02*
X006034Y008523D01*
X006041Y008572D02*
X003255Y008572D01*
X003255Y008620D02*
X006026Y008620D01*
X006026Y008669D02*
X003255Y008669D01*
X003255Y008717D02*
X006026Y008717D01*
X006041Y008766D02*
X003255Y008766D01*
X003255Y008814D02*
X005727Y008814D01*
X005662Y008863D02*
X003255Y008863D01*
X003255Y008911D02*
X005622Y008911D01*
X005602Y008960D02*
X003255Y008960D01*
X003255Y009008D02*
X005590Y009008D01*
X005590Y009057D02*
X003255Y009057D01*
X003255Y009105D02*
X005590Y009105D01*
X005590Y009154D02*
X003255Y009154D01*
X003255Y009202D02*
X005590Y009202D01*
X005590Y009251D02*
X003255Y009251D01*
X003255Y009299D02*
X005590Y009299D01*
X005590Y009348D02*
X003255Y009348D01*
X003255Y009396D02*
X005590Y009396D01*
X005590Y009445D02*
X003255Y009445D01*
X003255Y009493D02*
X005590Y009493D01*
X005590Y009542D02*
X003255Y009542D01*
X003255Y009590D02*
X005590Y009590D01*
X005590Y009639D02*
X003255Y009639D01*
X003255Y009687D02*
X005590Y009687D01*
X005590Y009736D02*
X003255Y009736D01*
X003255Y009784D02*
X005590Y009784D01*
X005590Y009833D02*
X003255Y009833D01*
X003255Y009881D02*
X005590Y009881D01*
X005590Y009930D02*
X003255Y009930D01*
X003255Y009978D02*
X005590Y009978D01*
X005590Y010027D02*
X003255Y010027D01*
X003255Y010075D02*
X005590Y010075D01*
X005590Y010124D02*
X003255Y010124D01*
X003255Y010172D02*
X005590Y010172D01*
X005590Y010221D02*
X003255Y010221D01*
X003255Y010269D02*
X005590Y010269D01*
X005590Y010318D02*
X003255Y010318D01*
X003255Y010366D02*
X005590Y010366D01*
X005590Y010415D02*
X003255Y010415D01*
X003255Y010463D02*
X005590Y010463D01*
X005590Y010512D02*
X003255Y010512D01*
X003255Y010560D02*
X005590Y010560D01*
X005590Y010609D02*
X003255Y010609D01*
X003255Y010657D02*
X005590Y010657D01*
X005590Y010706D02*
X003255Y010706D01*
X003255Y010754D02*
X005590Y010754D01*
X005590Y010803D02*
X003255Y010803D01*
X003255Y010851D02*
X005590Y010851D01*
X005590Y010900D02*
X003255Y010900D01*
X003255Y010948D02*
X005590Y010948D01*
X005590Y010997D02*
X003255Y010997D01*
X003255Y011045D02*
X005590Y011045D01*
X005590Y011094D02*
X003255Y011094D01*
X003255Y011142D02*
X005590Y011142D01*
X005590Y011191D02*
X003255Y011191D01*
X003255Y011239D02*
X005590Y011239D01*
X005590Y011288D02*
X003255Y011288D01*
X003255Y011336D02*
X005590Y011336D01*
X005590Y011385D02*
X003255Y011385D01*
X003255Y011433D02*
X005590Y011433D01*
X005590Y011482D02*
X003255Y011482D01*
X003255Y011530D02*
X005590Y011530D01*
X005590Y011579D02*
X003255Y011579D01*
X003255Y011627D02*
X005590Y011627D01*
X005590Y011676D02*
X003255Y011676D01*
X003255Y011724D02*
X005590Y011724D01*
X005590Y011773D02*
X003255Y011773D01*
X003255Y011821D02*
X005590Y011821D01*
X005590Y011870D02*
X003255Y011870D01*
X003255Y011918D02*
X005590Y011918D01*
X005590Y011967D02*
X003255Y011967D01*
X003255Y012015D02*
X005590Y012015D01*
X005590Y012064D02*
X003255Y012064D01*
X003255Y012112D02*
X005590Y012112D01*
X005590Y012161D02*
X003255Y012161D01*
X003255Y012209D02*
X005590Y012209D01*
X005590Y012258D02*
X003255Y012258D01*
X003255Y012306D02*
X005590Y012306D01*
X005590Y012355D02*
X003255Y012355D01*
X003255Y012403D02*
X005590Y012403D01*
X005590Y012452D02*
X003255Y012452D01*
X003255Y012500D02*
X005590Y012500D01*
X005590Y012549D02*
X003255Y012549D01*
X003255Y012597D02*
X005590Y012597D01*
X005502Y012646D02*
X003255Y012646D01*
X003255Y012694D02*
X005418Y012694D01*
X005397Y012706D02*
X005397Y012706D01*
X005397Y012706D01*
X005376Y012743D02*
X003255Y012743D01*
X003255Y012791D02*
X005348Y012791D01*
X005320Y012840D02*
X003255Y012840D01*
X003255Y012888D02*
X005292Y012888D01*
X005290Y012937D02*
X003255Y012937D01*
X003255Y012985D02*
X005290Y012985D01*
X005290Y013034D02*
X003255Y013034D01*
X003255Y013082D02*
X005290Y013082D01*
X005290Y013131D02*
X003255Y013131D01*
X003255Y013179D02*
X005290Y013179D01*
X005290Y013228D02*
X003255Y013228D01*
X003255Y013276D02*
X005290Y013276D01*
X005290Y013325D02*
X003255Y013325D01*
X003255Y013373D02*
X005290Y013373D01*
X005290Y013422D02*
X003255Y013422D01*
X003255Y013470D02*
X005290Y013470D01*
X005290Y013519D02*
X003255Y013519D01*
X003255Y013567D02*
X005290Y013567D01*
X005290Y013616D02*
X003255Y013616D01*
X003255Y013664D02*
X005290Y013664D01*
X005290Y013713D02*
X003255Y013713D01*
X003255Y013761D02*
X005290Y013761D01*
X005290Y013810D02*
X003255Y013810D01*
X003255Y013858D02*
X005290Y013858D01*
X005290Y013907D02*
X003255Y013907D01*
X003255Y013955D02*
X005290Y013955D01*
X005290Y014004D02*
X003255Y014004D01*
X003255Y014052D02*
X005290Y014052D01*
X005290Y014101D02*
X003255Y014101D01*
X003255Y014149D02*
X005290Y014149D01*
X005290Y014198D02*
X003255Y014198D01*
X003255Y014246D02*
X005290Y014246D01*
X005290Y014295D02*
X003255Y014295D01*
X003255Y014343D02*
X005290Y014343D01*
X005290Y014392D02*
X003255Y014392D01*
X003255Y014440D02*
X005290Y014440D01*
X005290Y014489D02*
X003255Y014489D01*
X003255Y014537D02*
X005290Y014537D01*
X005290Y014586D02*
X003255Y014586D01*
X003255Y014634D02*
X005290Y014634D01*
X005290Y014683D02*
X003255Y014683D01*
X003255Y014731D02*
X005290Y014731D01*
X005290Y014780D02*
X003255Y014780D01*
X003255Y014828D02*
X005290Y014828D01*
X005294Y014877D02*
X003255Y014877D01*
X003255Y014925D02*
X005309Y014925D01*
X005325Y014974D02*
X003255Y014974D01*
X003255Y015022D02*
X005341Y015022D01*
X005357Y015071D02*
X003255Y015071D01*
X003255Y015119D02*
X005372Y015119D01*
X005388Y015168D02*
X003255Y015168D01*
X003255Y015216D02*
X005413Y015216D01*
X005397Y015194D02*
X005397Y015194D01*
X005448Y015265D02*
X003255Y015265D01*
X003255Y015313D02*
X005483Y015313D01*
X005518Y015362D02*
X003255Y015362D01*
X003255Y015410D02*
X005554Y015410D01*
X005589Y015459D02*
X003255Y015459D01*
X003255Y015507D02*
X005646Y015507D01*
X005713Y015556D02*
X003255Y015556D01*
X003255Y015604D02*
X005779Y015604D01*
X005846Y015653D02*
X003255Y015653D01*
X003255Y015701D02*
X005955Y015701D01*
X005879Y015677D02*
X005879Y015677D01*
X006104Y015750D02*
X003255Y015750D01*
X003255Y015798D02*
X014555Y015798D01*
X014555Y015750D02*
X008580Y015750D01*
X008673Y015701D02*
X014555Y015701D01*
X014555Y015653D02*
X008732Y015653D01*
X008716Y015679D02*
X008716Y015679D01*
X008716Y015679D01*
X008763Y015604D02*
X014555Y015604D01*
X014555Y015556D02*
X008794Y015556D01*
X008825Y015507D02*
X014555Y015507D01*
X014555Y015459D02*
X008844Y015459D01*
X008843Y015479D02*
X008843Y015479D01*
X008846Y015410D02*
X014555Y015410D01*
X014555Y015362D02*
X008848Y015362D01*
X008850Y015313D02*
X014555Y015313D01*
X014555Y015265D02*
X008848Y015265D01*
X008848Y015216D02*
X014555Y015216D01*
X014555Y015168D02*
X008848Y015168D01*
X008848Y015119D02*
X014555Y015119D01*
X014555Y015071D02*
X011078Y015071D01*
X011195Y015022D02*
X014555Y015022D01*
X014555Y014974D02*
X011249Y014974D01*
X011298Y014925D02*
X014555Y014925D01*
X014555Y014877D02*
X011346Y014877D01*
X011345Y014878D02*
X011345Y014878D01*
X011366Y014828D02*
X014555Y014828D01*
X014555Y014780D02*
X011386Y014780D01*
X011406Y014731D02*
X014555Y014731D01*
X014555Y014683D02*
X011421Y014683D01*
X011421Y014634D02*
X014555Y014634D01*
X014555Y014586D02*
X011421Y014586D01*
X011421Y014537D02*
X014555Y014537D01*
X014555Y014489D02*
X011421Y014489D01*
X011421Y014440D02*
X014555Y014440D01*
X014555Y014392D02*
X011421Y014392D01*
X011421Y014343D02*
X014555Y014343D01*
X014555Y014295D02*
X011421Y014295D01*
X011421Y014246D02*
X014555Y014246D01*
X014555Y014198D02*
X011421Y014198D01*
X011421Y014149D02*
X014555Y014149D01*
X014555Y014101D02*
X011421Y014101D01*
X011421Y014052D02*
X014555Y014052D01*
X014555Y014004D02*
X011421Y014004D01*
X011421Y013955D02*
X014555Y013955D01*
X014555Y013907D02*
X011421Y013907D01*
X011421Y013858D02*
X014555Y013858D01*
X014555Y013810D02*
X011421Y013810D01*
X011421Y013761D02*
X014555Y013761D01*
X014555Y013713D02*
X011421Y013713D01*
X011421Y013664D02*
X014555Y013664D01*
X014555Y013616D02*
X011421Y013616D01*
X011421Y013567D02*
X014555Y013567D01*
X014555Y013519D02*
X011421Y013519D01*
X011421Y013470D02*
X014555Y013470D01*
X014555Y013422D02*
X011421Y013422D01*
X011421Y013373D02*
X014555Y013373D01*
X014555Y013325D02*
X011421Y013325D01*
X011421Y013276D02*
X014555Y013276D01*
X014555Y013228D02*
X011421Y013228D01*
X011421Y013179D02*
X014555Y013179D01*
X014555Y013131D02*
X011421Y013131D01*
X011421Y013082D02*
X014555Y013082D01*
X014555Y013034D02*
X011421Y013034D01*
X011421Y012985D02*
X014555Y012985D01*
X014555Y012937D02*
X011421Y012937D01*
X011421Y012888D02*
X014555Y012888D01*
X014555Y012840D02*
X011421Y012840D01*
X011421Y012791D02*
X014555Y012791D01*
X014555Y012743D02*
X011421Y012743D01*
X011421Y012694D02*
X014555Y012694D01*
X014555Y012646D02*
X011421Y012646D01*
X011421Y012597D02*
X014555Y012597D01*
X014555Y012549D02*
X011421Y012549D01*
X011421Y012500D02*
X014555Y012500D01*
X014555Y012452D02*
X011421Y012452D01*
X011421Y012403D02*
X014555Y012403D01*
X014555Y012355D02*
X011421Y012355D01*
X011421Y012306D02*
X014555Y012306D01*
X014555Y012258D02*
X011421Y012258D01*
X011421Y012209D02*
X014555Y012209D01*
X014555Y012161D02*
X011421Y012161D01*
X011421Y012112D02*
X014555Y012112D01*
X014555Y012064D02*
X011421Y012064D01*
X011421Y012015D02*
X014555Y012015D01*
X014555Y011967D02*
X011421Y011967D01*
X011421Y011918D02*
X014555Y011918D01*
X014555Y011870D02*
X011421Y011870D01*
X011421Y011821D02*
X014555Y011821D01*
X014555Y011773D02*
X011421Y011773D01*
X011421Y011724D02*
X014555Y011724D01*
X014555Y011676D02*
X011421Y011676D01*
X011421Y011627D02*
X014555Y011627D01*
X014555Y011579D02*
X011421Y011579D01*
X011421Y011530D02*
X014555Y011530D01*
X014555Y011482D02*
X011421Y011482D01*
X011421Y011433D02*
X014555Y011433D01*
X014555Y011385D02*
X011421Y011385D01*
X011421Y011336D02*
X014555Y011336D01*
X014555Y011288D02*
X011421Y011288D01*
X011421Y011239D02*
X014555Y011239D01*
X014555Y011191D02*
X011421Y011191D01*
X011421Y011142D02*
X014555Y011142D01*
X014555Y011094D02*
X011421Y011094D01*
X011421Y011045D02*
X014555Y011045D01*
X014555Y010997D02*
X011421Y010997D01*
X011421Y010948D02*
X014555Y010948D01*
X014555Y010900D02*
X011421Y010900D01*
X011421Y010851D02*
X014555Y010851D01*
X014555Y010803D02*
X011421Y010803D01*
X011421Y010754D02*
X014555Y010754D01*
X014555Y010706D02*
X011421Y010706D01*
X011421Y010657D02*
X014555Y010657D01*
X014555Y010609D02*
X011421Y010609D01*
X011421Y010560D02*
X014555Y010560D01*
X014555Y010512D02*
X011860Y010512D01*
X011976Y010463D02*
X014555Y010463D01*
X014555Y010415D02*
X012060Y010415D01*
X012123Y010366D02*
X014555Y010366D01*
X014555Y010318D02*
X012177Y010318D01*
X011626Y010318D02*
X011576Y010318D01*
X011576Y010366D02*
X011626Y010366D01*
X011626Y010415D02*
X011576Y010415D01*
X011576Y010463D02*
X011626Y010463D01*
X011626Y010512D02*
X011576Y010512D01*
X011171Y010290D02*
X011173Y010260D01*
X011178Y010230D01*
X011187Y010201D01*
X011200Y010174D01*
X011215Y010148D01*
X011234Y010124D01*
X011255Y010103D01*
X011279Y010084D01*
X011305Y010069D01*
X011332Y010056D01*
X011361Y010047D01*
X011391Y010042D01*
X011421Y010040D01*
X013221Y010040D01*
X013255Y010038D01*
X013288Y010032D01*
X013320Y010023D01*
X013351Y010010D01*
X013381Y009994D01*
X013408Y009975D01*
X013433Y009952D01*
X013456Y009927D01*
X013475Y009900D01*
X013491Y009870D01*
X013504Y009839D01*
X013513Y009807D01*
X013519Y009774D01*
X013521Y009740D01*
X013521Y009038D01*
X012931Y009038D01*
X012931Y009346D01*
X012929Y009380D01*
X012923Y009413D01*
X012914Y009445D01*
X012901Y009476D01*
X012885Y009506D01*
X012866Y009533D01*
X012843Y009558D01*
X012818Y009581D01*
X012791Y009600D01*
X012761Y009616D01*
X012730Y009629D01*
X012698Y009638D01*
X012665Y009644D01*
X012631Y009646D01*
X010831Y009646D01*
X010801Y009648D01*
X010771Y009653D01*
X010742Y009662D01*
X010715Y009675D01*
X010689Y009690D01*
X010665Y009709D01*
X010644Y009730D01*
X010625Y009754D01*
X010610Y009780D01*
X010597Y009807D01*
X010588Y009836D01*
X010583Y009866D01*
X010581Y009896D01*
X010581Y014201D01*
X010579Y014231D01*
X010574Y014261D01*
X010565Y014290D01*
X010552Y014317D01*
X010537Y014343D01*
X010518Y014367D01*
X010497Y014388D01*
X010473Y014407D01*
X010447Y014422D01*
X010420Y014435D01*
X010391Y014444D01*
X010361Y014449D01*
X010331Y014451D01*
X008355Y014451D01*
X008334Y014449D01*
X008314Y014451D01*
X008294Y014456D01*
X008275Y014464D01*
X008257Y014475D01*
X008241Y014488D01*
X008228Y014504D01*
X008217Y014522D01*
X008209Y014541D01*
X008205Y014561D01*
X008205Y014956D01*
X008202Y014983D01*
X008195Y015010D01*
X008184Y015035D01*
X008170Y015059D01*
X008153Y015080D01*
X008132Y015098D01*
X008110Y015114D01*
X008085Y015126D01*
X008059Y015134D01*
X008032Y015139D01*
X008005Y015140D01*
X006381Y015140D01*
X006381Y015533D02*
X008398Y015533D01*
X008398Y015534D02*
X008425Y015533D01*
X008452Y015528D01*
X008478Y015520D01*
X008503Y015508D01*
X008525Y015492D01*
X008546Y015474D01*
X008563Y015453D01*
X008577Y015429D01*
X008588Y015404D01*
X008595Y015377D01*
X008598Y015350D01*
X008598Y014955D01*
X008598Y014954D02*
X008602Y014934D01*
X008610Y014915D01*
X008621Y014897D01*
X008634Y014881D01*
X008650Y014868D01*
X008668Y014857D01*
X008687Y014849D01*
X008707Y014844D01*
X008727Y014842D01*
X008748Y014844D01*
X010921Y014844D01*
X010951Y014842D01*
X010981Y014837D01*
X011010Y014828D01*
X011037Y014815D01*
X011063Y014800D01*
X011087Y014781D01*
X011108Y014760D01*
X011127Y014736D01*
X011142Y014710D01*
X011155Y014683D01*
X011164Y014654D01*
X011169Y014624D01*
X011171Y014594D01*
X011171Y010290D01*
X010331Y009999D02*
X010331Y009974D01*
X009859Y009974D01*
X009762Y009877D01*
X009762Y009347D01*
X009838Y009271D01*
X009751Y009185D01*
X008420Y009185D01*
X008410Y009210D01*
X008353Y009267D01*
X008427Y009298D01*
X008455Y009325D01*
X008482Y009298D01*
X008594Y009251D01*
X008715Y009251D01*
X008827Y009298D01*
X008848Y009318D01*
X009393Y009318D01*
X009394Y009319D01*
X009600Y009319D01*
X009697Y009416D01*
X009697Y009690D01*
X009657Y009730D01*
X009657Y009800D01*
X009305Y009800D01*
X009305Y009819D01*
X009286Y009819D01*
X009286Y010056D01*
X008934Y010056D01*
X008934Y009980D01*
X008943Y009948D01*
X008949Y009937D01*
X008943Y009926D01*
X008934Y009894D01*
X008934Y009819D01*
X009286Y009819D01*
X009286Y009800D01*
X008934Y009800D01*
X008934Y009788D01*
X008854Y009788D01*
X008827Y009815D01*
X008715Y009861D01*
X008594Y009861D01*
X008482Y009815D01*
X008455Y009787D01*
X008427Y009815D01*
X008315Y009861D01*
X008194Y009861D01*
X008082Y009815D01*
X008055Y009788D01*
X007708Y009788D01*
X007750Y009887D01*
X007750Y010025D01*
X007697Y010152D01*
X007600Y010249D01*
X007473Y010301D01*
X007394Y010301D01*
X007394Y010371D01*
X008894Y010371D01*
X008894Y010184D01*
X008934Y010144D01*
X008934Y010074D01*
X009286Y010074D01*
X009286Y010056D01*
X009305Y010056D01*
X009305Y010074D01*
X009657Y010074D01*
X009657Y010144D01*
X009697Y010184D01*
X009697Y010371D01*
X009752Y010371D01*
X009802Y010422D01*
X009802Y010346D01*
X010119Y010346D01*
X010119Y010296D01*
X010169Y010296D01*
X010169Y009999D01*
X010331Y009999D01*
X010331Y009978D02*
X009656Y009978D01*
X009657Y009980D02*
X009657Y010056D01*
X009305Y010056D01*
X009305Y009871D01*
X009305Y009819D01*
X009657Y009819D01*
X009657Y009894D01*
X009648Y009926D01*
X009642Y009937D01*
X009648Y009948D01*
X009657Y009980D01*
X009657Y010027D02*
X009848Y010027D01*
X009851Y010024D02*
X009879Y010008D01*
X009911Y009999D01*
X010119Y009999D01*
X010119Y010296D01*
X009802Y010296D01*
X009802Y010108D01*
X009811Y010076D01*
X009827Y010048D01*
X009851Y010024D01*
X009811Y010075D02*
X009657Y010075D01*
X009657Y010124D02*
X009802Y010124D01*
X009802Y010172D02*
X009685Y010172D01*
X009697Y010221D02*
X009802Y010221D01*
X009802Y010269D02*
X009697Y010269D01*
X009697Y010318D02*
X010119Y010318D01*
X010119Y010346D02*
X010119Y010643D01*
X009990Y010643D01*
X009990Y011252D01*
X010009Y011272D01*
X010061Y011147D01*
X010248Y010960D01*
X010331Y010926D01*
X010331Y010643D01*
X010169Y010643D01*
X010169Y010346D01*
X010119Y010346D01*
X010119Y010366D02*
X010169Y010366D01*
X010169Y010415D02*
X010119Y010415D01*
X010119Y010463D02*
X010169Y010463D01*
X010169Y010512D02*
X010119Y010512D01*
X010119Y010560D02*
X010169Y010560D01*
X010169Y010609D02*
X010119Y010609D01*
X009990Y010657D02*
X010331Y010657D01*
X010331Y010706D02*
X009990Y010706D01*
X009990Y010754D02*
X010331Y010754D01*
X010331Y010803D02*
X009990Y010803D01*
X009990Y010851D02*
X010331Y010851D01*
X010331Y010900D02*
X009990Y010900D01*
X009990Y010948D02*
X010278Y010948D01*
X010212Y010997D02*
X009990Y010997D01*
X009990Y011045D02*
X010163Y011045D01*
X010115Y011094D02*
X009990Y011094D01*
X009990Y011142D02*
X010066Y011142D01*
X010043Y011191D02*
X009990Y011191D01*
X009990Y011239D02*
X010023Y011239D01*
X009802Y010415D02*
X009795Y010415D01*
X009802Y010366D02*
X009697Y010366D01*
X009646Y009930D02*
X009815Y009930D01*
X009766Y009881D02*
X009657Y009881D01*
X009657Y009833D02*
X009762Y009833D01*
X009762Y009784D02*
X009657Y009784D01*
X009657Y009736D02*
X009762Y009736D01*
X009762Y009687D02*
X009697Y009687D01*
X009697Y009639D02*
X009762Y009639D01*
X009762Y009590D02*
X009697Y009590D01*
X009697Y009542D02*
X009762Y009542D01*
X009762Y009493D02*
X009697Y009493D01*
X009697Y009445D02*
X009762Y009445D01*
X009762Y009396D02*
X009677Y009396D01*
X009628Y009348D02*
X009762Y009348D01*
X009810Y009299D02*
X008829Y009299D01*
X008480Y009299D02*
X008429Y009299D01*
X008369Y009251D02*
X009817Y009251D01*
X009768Y009202D02*
X008413Y009202D01*
X007917Y009318D02*
X007901Y009311D01*
X007799Y009210D01*
X007767Y009131D01*
X007757Y009137D01*
X007725Y009145D01*
X007329Y009145D01*
X007329Y008925D01*
X007279Y008925D01*
X007279Y008875D01*
X006774Y008875D01*
X006774Y008764D01*
X006782Y008732D01*
X006799Y008704D01*
X006822Y008680D01*
X006824Y008679D01*
X006734Y008589D01*
X006734Y008212D01*
X006824Y008122D01*
X006822Y008120D01*
X006799Y008097D01*
X006782Y008069D01*
X006774Y008037D01*
X006774Y007925D01*
X007279Y007925D01*
X007279Y007875D01*
X006774Y007875D01*
X006774Y007766D01*
X006683Y007766D01*
X006681Y007765D01*
X006681Y007901D01*
X006643Y007993D01*
X006640Y007997D01*
X006640Y008893D01*
X006643Y008896D01*
X006681Y008988D01*
X006681Y009326D01*
X006688Y009319D01*
X006894Y009319D01*
X006895Y009318D01*
X007917Y009318D01*
X007888Y009299D02*
X006681Y009299D01*
X006681Y009251D02*
X007840Y009251D01*
X007796Y009202D02*
X006681Y009202D01*
X006681Y009154D02*
X007776Y009154D01*
X007329Y009105D02*
X007279Y009105D01*
X007279Y009145D02*
X006882Y009145D01*
X006850Y009137D01*
X006822Y009120D01*
X006799Y009097D01*
X006782Y009069D01*
X006774Y009037D01*
X006774Y008925D01*
X007279Y008925D01*
X007279Y009145D01*
X007279Y009057D02*
X007329Y009057D01*
X007329Y009008D02*
X007279Y009008D01*
X007279Y008960D02*
X007329Y008960D01*
X007279Y008911D02*
X006649Y008911D01*
X006640Y008863D02*
X006774Y008863D01*
X006774Y008814D02*
X006640Y008814D01*
X006640Y008766D02*
X006774Y008766D01*
X006791Y008717D02*
X006640Y008717D01*
X006640Y008669D02*
X006813Y008669D01*
X006765Y008620D02*
X006640Y008620D01*
X006640Y008572D02*
X006734Y008572D01*
X006734Y008523D02*
X006640Y008523D01*
X006640Y008475D02*
X006734Y008475D01*
X006734Y008426D02*
X006640Y008426D01*
X006640Y008378D02*
X006734Y008378D01*
X006734Y008329D02*
X006640Y008329D01*
X006640Y008281D02*
X006734Y008281D01*
X006734Y008232D02*
X006640Y008232D01*
X006640Y008184D02*
X006762Y008184D01*
X006810Y008135D02*
X006640Y008135D01*
X006640Y008087D02*
X006792Y008087D01*
X006774Y008038D02*
X006640Y008038D01*
X006644Y007990D02*
X006774Y007990D01*
X006774Y007941D02*
X006664Y007941D01*
X006681Y007893D02*
X007279Y007893D01*
X007329Y007893D02*
X007749Y007893D01*
X007749Y007875D02*
X007329Y007875D01*
X007329Y007925D01*
X007749Y007925D01*
X007749Y007875D01*
X007874Y007535D02*
X008854Y007535D01*
X008854Y007212D01*
X008950Y007115D01*
X008981Y007115D01*
X008981Y006696D01*
X009019Y006604D01*
X009089Y006534D01*
X009181Y006496D01*
X009231Y006496D01*
X009355Y006488D01*
X009594Y006424D01*
X009809Y006300D01*
X009985Y006124D01*
X010109Y005910D01*
X010173Y005670D01*
X010181Y005546D01*
X010181Y004390D01*
X010029Y004390D01*
X009889Y004332D01*
X009782Y004225D01*
X009770Y004196D01*
X009761Y004228D01*
X009745Y004256D01*
X009721Y004280D01*
X009693Y004296D01*
X009661Y004305D01*
X009512Y004305D01*
X009512Y003968D01*
X009462Y003968D01*
X009462Y004305D01*
X009313Y004305D01*
X009281Y004296D01*
X009279Y004294D01*
X009229Y004345D01*
X009049Y004345D01*
X009121Y004417D01*
X009121Y004908D01*
X009025Y005005D01*
X008638Y005005D01*
X008541Y004908D01*
X008541Y004747D01*
X008405Y004611D01*
X008268Y004747D01*
X008268Y004908D01*
X008171Y005005D01*
X007785Y005005D01*
X007688Y004908D01*
X007688Y004417D01*
X007760Y004345D01*
X007580Y004345D01*
X007530Y004294D01*
X007528Y004296D01*
X007496Y004305D01*
X007347Y004305D01*
X007347Y003968D01*
X007297Y003968D01*
X007297Y004305D01*
X007148Y004305D01*
X007116Y004296D01*
X007088Y004280D01*
X007064Y004256D01*
X007048Y004228D01*
X007039Y004196D01*
X007039Y004196D01*
X007027Y004225D01*
X006920Y004332D01*
X006780Y004390D01*
X006631Y004390D01*
X006631Y005546D01*
X006639Y005670D01*
X006703Y005910D01*
X006827Y006124D01*
X007003Y006300D01*
X007217Y006424D01*
X007457Y006488D01*
X007581Y006496D01*
X007631Y006496D01*
X007723Y006534D01*
X007787Y006599D01*
X007795Y006596D01*
X007924Y006596D01*
X008020Y006636D01*
X008031Y006624D01*
X008160Y006571D01*
X008299Y006571D01*
X008407Y006616D01*
X008515Y006571D01*
X008654Y006571D01*
X008782Y006624D01*
X008881Y006723D01*
X008934Y006851D01*
X008934Y006991D01*
X008881Y007119D01*
X008782Y007218D01*
X008654Y007271D01*
X008515Y007271D01*
X008407Y007226D01*
X008299Y007271D01*
X008160Y007271D01*
X008042Y007222D01*
X007944Y007321D01*
X007874Y007391D01*
X007874Y007535D01*
X007874Y007505D02*
X008854Y007505D01*
X008854Y007456D02*
X007874Y007456D01*
X007874Y007408D02*
X008854Y007408D01*
X008854Y007359D02*
X007906Y007359D01*
X007954Y007311D02*
X008854Y007311D01*
X008854Y007262D02*
X008675Y007262D01*
X008787Y007214D02*
X008854Y007214D01*
X008835Y007165D02*
X008901Y007165D01*
X008882Y007117D02*
X008949Y007117D01*
X008981Y007068D02*
X008902Y007068D01*
X008922Y007020D02*
X008981Y007020D01*
X008981Y006971D02*
X008934Y006971D01*
X008934Y006923D02*
X008981Y006923D01*
X008981Y006874D02*
X008934Y006874D01*
X008924Y006826D02*
X008981Y006826D01*
X008981Y006777D02*
X008903Y006777D01*
X008883Y006729D02*
X008981Y006729D01*
X008988Y006680D02*
X008838Y006680D01*
X008790Y006632D02*
X009008Y006632D01*
X009040Y006583D02*
X008683Y006583D01*
X008485Y006583D02*
X008328Y006583D01*
X008130Y006583D02*
X007772Y006583D01*
X007723Y006535D02*
X009089Y006535D01*
X009231Y006746D02*
X009231Y007096D01*
X011409Y007096D01*
X011409Y006706D01*
X010835Y006706D01*
X010805Y006704D01*
X010775Y006698D01*
X010747Y006689D01*
X010719Y006676D01*
X010694Y006660D01*
X010671Y006641D01*
X010650Y006619D01*
X010632Y006595D01*
X010618Y006568D01*
X010607Y006540D01*
X010599Y006511D01*
X010595Y006481D01*
X010595Y006451D01*
X010599Y006421D01*
X010607Y006392D01*
X010618Y006364D01*
X010632Y006337D01*
X010650Y006313D01*
X010671Y006291D01*
X010694Y006272D01*
X010719Y006256D01*
X010747Y006243D01*
X010775Y006234D01*
X010805Y006228D01*
X010835Y006226D01*
X011242Y006226D01*
X011242Y004604D01*
X011160Y003787D02*
X012735Y003787D01*
X013019Y003576D02*
X014555Y003576D01*
X014555Y003528D02*
X011214Y003528D01*
X011214Y003479D02*
X014555Y003479D01*
X014555Y003431D02*
X011214Y003431D01*
X011214Y003382D02*
X014555Y003382D01*
X014555Y003334D02*
X011214Y003334D01*
X011214Y003285D02*
X014555Y003285D01*
X014555Y003237D02*
X011214Y003237D01*
X011214Y003188D02*
X014555Y003188D01*
X014555Y003140D02*
X011214Y003140D01*
X011214Y003091D02*
X014555Y003091D01*
X014555Y003043D02*
X011214Y003043D01*
X011214Y002994D02*
X014555Y002994D01*
X014555Y002946D02*
X011214Y002946D01*
X011214Y002897D02*
X014555Y002897D01*
X014555Y002849D02*
X011214Y002849D01*
X011214Y002800D02*
X014555Y002800D01*
X014555Y002752D02*
X011214Y002752D01*
X011214Y002703D02*
X014555Y002703D01*
X014555Y002655D02*
X011214Y002655D01*
X011214Y002606D02*
X014555Y002606D01*
X014555Y002558D02*
X011214Y002558D01*
X011214Y002509D02*
X014555Y002509D01*
X014555Y002461D02*
X011214Y002461D01*
X011214Y002412D02*
X014555Y002412D01*
X014555Y002364D02*
X011214Y002364D01*
X011214Y002315D02*
X014555Y002315D01*
X014555Y002267D02*
X011214Y002267D01*
X011214Y002218D02*
X014555Y002218D01*
X014555Y002170D02*
X011204Y002170D01*
X011184Y002121D02*
X014555Y002121D01*
X014555Y002073D02*
X011164Y002073D01*
X011144Y002024D02*
X014555Y002024D01*
X014555Y001976D02*
X011124Y001976D01*
X011104Y001927D02*
X014555Y001927D01*
X014555Y001879D02*
X011081Y001879D01*
X011086Y001883D02*
X011086Y001883D01*
X011033Y001830D02*
X014555Y001830D01*
X014555Y001782D02*
X010984Y001782D01*
X010936Y001733D02*
X014555Y001733D01*
X014555Y001685D02*
X010887Y001685D01*
X010824Y001636D02*
X014555Y001636D01*
X014555Y001588D02*
X010707Y001588D01*
X010589Y001539D02*
X014555Y001539D01*
X013879Y001345D02*
X003918Y001345D01*
X003944Y001334D02*
X003838Y001378D01*
X003722Y001378D01*
X003616Y001334D01*
X003534Y001252D01*
X003490Y001146D01*
X003490Y001030D01*
X003534Y000924D01*
X003616Y000842D01*
X003722Y000798D01*
X003838Y000798D01*
X003944Y000842D01*
X004026Y000924D01*
X004070Y001030D01*
X004070Y001146D01*
X004026Y001252D01*
X003944Y001334D01*
X003982Y001297D02*
X013815Y001297D01*
X013769Y001248D02*
X004028Y001248D01*
X004048Y001200D02*
X013749Y001200D01*
X013729Y001151D02*
X004068Y001151D01*
X004070Y001103D02*
X013726Y001103D01*
X013726Y001054D02*
X004070Y001054D01*
X004060Y001006D02*
X013737Y001006D01*
X013757Y000957D02*
X004040Y000957D01*
X004011Y000909D02*
X013786Y000909D01*
X013834Y000860D02*
X003962Y000860D01*
X003870Y000812D02*
X013926Y000812D01*
X014305Y000306D02*
X014349Y000308D01*
X014392Y000314D01*
X014434Y000323D01*
X014476Y000336D01*
X014516Y000353D01*
X014555Y000373D01*
X014592Y000396D01*
X014626Y000423D01*
X014659Y000452D01*
X014688Y000485D01*
X014715Y000519D01*
X014738Y000556D01*
X014758Y000595D01*
X014775Y000635D01*
X014788Y000677D01*
X014797Y000719D01*
X014803Y000762D01*
X014805Y000806D01*
X014550Y000763D02*
X003259Y000763D01*
X003255Y000812D02*
X003690Y000812D01*
X003598Y000860D02*
X003255Y000860D01*
X003255Y000909D02*
X003550Y000909D01*
X003521Y000957D02*
X003255Y000957D01*
X003255Y001006D02*
X003500Y001006D01*
X003490Y001054D02*
X003255Y001054D01*
X003255Y001103D02*
X003490Y001103D01*
X003492Y001151D02*
X003255Y001151D01*
X003255Y001200D02*
X003512Y001200D01*
X003532Y001248D02*
X003255Y001248D01*
X003255Y001297D02*
X003578Y001297D01*
X003643Y001345D02*
X003255Y001345D01*
X003005Y000806D02*
X003007Y000762D01*
X003013Y000719D01*
X003022Y000677D01*
X003035Y000635D01*
X003052Y000595D01*
X003072Y000556D01*
X003095Y000519D01*
X003122Y000485D01*
X003151Y000452D01*
X003184Y000423D01*
X003218Y000396D01*
X003255Y000373D01*
X003294Y000353D01*
X003334Y000336D01*
X003376Y000323D01*
X003418Y000314D01*
X003461Y000308D01*
X003505Y000306D01*
X014305Y000306D01*
X014373Y000569D02*
X003436Y000569D01*
X003346Y000618D02*
X014463Y000618D01*
X014511Y000666D02*
X003298Y000666D01*
X003277Y000715D02*
X014532Y000715D01*
X014555Y003625D02*
X013169Y003625D01*
X013212Y003639D02*
X013212Y003639D01*
X013259Y003673D02*
X014555Y003673D01*
X014555Y003722D02*
X013326Y003722D01*
X013393Y003770D02*
X014555Y003770D01*
X014555Y003819D02*
X013460Y003819D01*
X013478Y003832D02*
X013478Y003832D01*
X013478Y003832D01*
X013504Y003867D02*
X014555Y003867D01*
X014555Y003916D02*
X013539Y003916D01*
X013574Y003964D02*
X014555Y003964D01*
X014555Y004013D02*
X013609Y004013D01*
X013644Y004061D02*
X014555Y004061D01*
X014555Y004110D02*
X013675Y004110D01*
X013671Y004098D02*
X013671Y004098D01*
X013691Y004158D02*
X014555Y004158D01*
X014555Y004207D02*
X013706Y004207D01*
X013722Y004255D02*
X014555Y004255D01*
X014555Y004304D02*
X013738Y004304D01*
X013754Y004352D02*
X014555Y004352D01*
X014555Y004401D02*
X013769Y004401D01*
X013773Y004449D02*
X014555Y004449D01*
X014555Y004498D02*
X013773Y004498D01*
X013773Y004546D02*
X014555Y004546D01*
X014555Y004595D02*
X013773Y004595D01*
X013773Y004643D02*
X014555Y004643D01*
X014555Y004692D02*
X013773Y004692D01*
X013773Y004740D02*
X014555Y004740D01*
X014555Y004789D02*
X013773Y004789D01*
X013773Y004837D02*
X014555Y004837D01*
X014555Y004886D02*
X013773Y004886D01*
X013773Y004934D02*
X014555Y004934D01*
X014555Y004983D02*
X013773Y004983D01*
X013773Y005031D02*
X014555Y005031D01*
X014555Y005080D02*
X013773Y005080D01*
X013773Y005128D02*
X014555Y005128D01*
X014555Y005177D02*
X013773Y005177D01*
X013773Y005225D02*
X014555Y005225D01*
X014555Y005274D02*
X013773Y005274D01*
X013773Y005322D02*
X014555Y005322D01*
X014555Y005371D02*
X013773Y005371D01*
X013773Y005419D02*
X014555Y005419D01*
X014555Y005468D02*
X013773Y005468D01*
X013773Y005516D02*
X014555Y005516D01*
X014555Y005565D02*
X013773Y005565D01*
X013773Y005613D02*
X014555Y005613D01*
X014555Y005662D02*
X013773Y005662D01*
X013829Y005710D02*
X014555Y005710D01*
X014555Y005759D02*
X013887Y005759D01*
X013945Y005807D02*
X014555Y005807D01*
X014555Y005856D02*
X014003Y005856D01*
X014011Y005863D02*
X014011Y005863D01*
X014035Y005904D02*
X014555Y005904D01*
X014555Y005953D02*
X014063Y005953D01*
X014091Y006001D02*
X014555Y006001D01*
X014555Y006050D02*
X014119Y006050D01*
X014147Y006098D02*
X014555Y006098D01*
X014555Y006147D02*
X014174Y006147D01*
X014183Y006195D02*
X014555Y006195D01*
X014555Y006244D02*
X014191Y006244D01*
X014200Y006292D02*
X014555Y006292D01*
X014555Y006341D02*
X014208Y006341D01*
X014217Y006389D02*
X014555Y006389D01*
X014555Y006438D02*
X014226Y006438D01*
X014231Y006466D02*
X014231Y006466D01*
X014227Y006486D02*
X014555Y006486D01*
X014555Y006535D02*
X014219Y006535D01*
X014210Y006583D02*
X014555Y006583D01*
X014555Y006632D02*
X014201Y006632D01*
X014193Y006680D02*
X014555Y006680D01*
X014555Y006729D02*
X014184Y006729D01*
X014176Y006777D02*
X014555Y006777D01*
X014555Y006826D02*
X014152Y006826D01*
X014124Y006874D02*
X014555Y006874D01*
X014555Y006923D02*
X014096Y006923D01*
X014068Y006971D02*
X014555Y006971D01*
X014555Y007020D02*
X014040Y007020D01*
X014012Y007068D02*
X014555Y007068D01*
X014555Y007117D02*
X013955Y007117D01*
X013897Y007165D02*
X014555Y007165D01*
X014555Y007214D02*
X013839Y007214D01*
X013781Y007262D02*
X014555Y007262D01*
X014555Y007311D02*
X013772Y007311D01*
X013772Y007359D02*
X014555Y007359D01*
X014555Y007408D02*
X013772Y007408D01*
X013772Y007456D02*
X014555Y007456D01*
X014555Y007505D02*
X013772Y007505D01*
X013772Y007553D02*
X014555Y007553D01*
X014555Y007602D02*
X013772Y007602D01*
X013772Y007650D02*
X014555Y007650D01*
X014555Y007699D02*
X013772Y007699D01*
X013772Y007747D02*
X014555Y007747D01*
X014555Y007796D02*
X013772Y007796D01*
X013771Y007844D02*
X014555Y007844D01*
X014555Y007893D02*
X013771Y007893D01*
X013771Y007902D02*
X013771Y007902D01*
X013755Y007941D02*
X014555Y007941D01*
X014555Y007990D02*
X013735Y007990D01*
X013689Y008038D02*
X014555Y008038D01*
X014555Y008087D02*
X013608Y008087D01*
X013521Y007852D02*
X013523Y007100D01*
X013325Y006706D02*
X012690Y006706D01*
X012690Y007096D01*
X012689Y007096D02*
X012719Y007098D01*
X012748Y007104D01*
X012776Y007114D01*
X012803Y007126D01*
X012828Y007142D01*
X012851Y007161D01*
X012872Y007182D01*
X012890Y007206D01*
X012905Y007232D01*
X012917Y007259D01*
X012925Y007287D01*
X012930Y007317D01*
X012931Y007346D01*
X012931Y007852D01*
X013521Y007852D01*
X013326Y008135D02*
X014555Y008135D01*
X014555Y008184D02*
X013336Y008184D01*
X013336Y008232D02*
X014555Y008232D01*
X014555Y008281D02*
X013335Y008281D01*
X013315Y008329D02*
X014555Y008329D01*
X014555Y008378D02*
X013334Y008378D01*
X013336Y008426D02*
X014555Y008426D01*
X014555Y008475D02*
X013336Y008475D01*
X013328Y008523D02*
X014555Y008523D01*
X014555Y008572D02*
X013321Y008572D01*
X013336Y008620D02*
X014555Y008620D01*
X014555Y008669D02*
X013336Y008669D01*
X013336Y008717D02*
X014555Y008717D01*
X014555Y008766D02*
X013321Y008766D01*
X013635Y008814D02*
X014555Y008814D01*
X014555Y008863D02*
X013700Y008863D01*
X013740Y008911D02*
X014555Y008911D01*
X014555Y008960D02*
X013760Y008960D01*
X013771Y009008D02*
X014555Y009008D01*
X014555Y009057D02*
X013771Y009057D01*
X013771Y009105D02*
X014555Y009105D01*
X014555Y009154D02*
X013771Y009154D01*
X013771Y009202D02*
X014555Y009202D01*
X014555Y009251D02*
X013771Y009251D01*
X013771Y009299D02*
X014555Y009299D01*
X014555Y009348D02*
X013771Y009348D01*
X013771Y009396D02*
X014555Y009396D01*
X014555Y009445D02*
X013771Y009445D01*
X013771Y009493D02*
X014555Y009493D01*
X014555Y009542D02*
X013771Y009542D01*
X013771Y009590D02*
X014555Y009590D01*
X014555Y009639D02*
X013771Y009639D01*
X013771Y009687D02*
X014555Y009687D01*
X014555Y009736D02*
X013771Y009736D01*
X013771Y009784D02*
X014555Y009784D01*
X014555Y009833D02*
X013771Y009833D01*
X013758Y009881D02*
X014555Y009881D01*
X014555Y009930D02*
X013738Y009930D01*
X013718Y009978D02*
X014555Y009978D01*
X014555Y010027D02*
X013698Y010027D01*
X013664Y010075D02*
X014555Y010075D01*
X014555Y010124D02*
X013615Y010124D01*
X013567Y010172D02*
X014555Y010172D01*
X014555Y010221D02*
X013498Y010221D01*
X013533Y010206D02*
X013533Y010206D01*
X013381Y010269D02*
X014555Y010269D01*
X011482Y007494D02*
X011482Y007444D01*
X011257Y007444D01*
X011257Y007346D01*
X011251Y007346D01*
X011251Y007715D01*
X011206Y007760D01*
X011235Y007788D01*
X011291Y007732D01*
X011282Y007723D01*
X011266Y007695D01*
X011257Y007663D01*
X011257Y007494D01*
X011482Y007494D01*
X011482Y007456D02*
X011251Y007456D01*
X011251Y007408D02*
X011257Y007408D01*
X011251Y007359D02*
X011257Y007359D01*
X011251Y007505D02*
X011257Y007505D01*
X011251Y007553D02*
X011257Y007553D01*
X011251Y007602D02*
X011257Y007602D01*
X011251Y007650D02*
X011257Y007650D01*
X011251Y007699D02*
X011268Y007699D01*
X011276Y007747D02*
X011219Y007747D01*
X009865Y006244D02*
X006946Y006244D01*
X006898Y006195D02*
X009914Y006195D01*
X009962Y006147D02*
X006849Y006147D01*
X006812Y006098D02*
X010000Y006098D01*
X010028Y006050D02*
X006784Y006050D01*
X006756Y006001D02*
X010056Y006001D01*
X010084Y005953D02*
X006728Y005953D01*
X006702Y005904D02*
X010110Y005904D01*
X010123Y005856D02*
X006689Y005856D01*
X006676Y005807D02*
X010136Y005807D01*
X010149Y005759D02*
X006663Y005759D01*
X006650Y005710D02*
X010162Y005710D01*
X010173Y005662D02*
X006638Y005662D01*
X006635Y005613D02*
X010177Y005613D01*
X010180Y005565D02*
X006632Y005565D01*
X006631Y005516D02*
X010181Y005516D01*
X010181Y005468D02*
X006631Y005468D01*
X006631Y005419D02*
X010181Y005419D01*
X010181Y005371D02*
X006631Y005371D01*
X006631Y005322D02*
X010181Y005322D01*
X010181Y005274D02*
X006631Y005274D01*
X006631Y005225D02*
X010181Y005225D01*
X010181Y005177D02*
X006631Y005177D01*
X006631Y005128D02*
X010181Y005128D01*
X010181Y005080D02*
X006631Y005080D01*
X006631Y005031D02*
X010181Y005031D01*
X010181Y004983D02*
X009046Y004983D01*
X009095Y004934D02*
X009171Y004934D01*
X009176Y004940D02*
X009153Y004916D01*
X009136Y004888D01*
X009128Y004856D01*
X009128Y004687D01*
X009353Y004687D01*
X009353Y004637D01*
X009403Y004637D01*
X009403Y004360D01*
X009519Y004360D01*
X009551Y004369D01*
X009580Y004385D01*
X009603Y004408D01*
X009619Y004437D01*
X009628Y004469D01*
X009628Y004637D01*
X009403Y004637D01*
X009403Y004687D01*
X009628Y004687D01*
X009628Y004856D01*
X009619Y004888D01*
X009603Y004916D01*
X009580Y004940D01*
X009551Y004956D01*
X009519Y004965D01*
X009403Y004965D01*
X009403Y004687D01*
X009353Y004687D01*
X009353Y004965D01*
X009236Y004965D01*
X009205Y004956D01*
X009176Y004940D01*
X009136Y004886D02*
X009121Y004886D01*
X009121Y004837D02*
X009128Y004837D01*
X009121Y004789D02*
X009128Y004789D01*
X009121Y004740D02*
X009128Y004740D01*
X009121Y004692D02*
X009128Y004692D01*
X009121Y004643D02*
X009353Y004643D01*
X009353Y004637D02*
X009128Y004637D01*
X009128Y004469D01*
X009136Y004437D01*
X009153Y004408D01*
X009176Y004385D01*
X009205Y004369D01*
X009236Y004360D01*
X009353Y004360D01*
X009353Y004637D01*
X009353Y004595D02*
X009403Y004595D01*
X009403Y004643D02*
X010181Y004643D01*
X010181Y004595D02*
X009628Y004595D01*
X009628Y004546D02*
X010181Y004546D01*
X010181Y004498D02*
X009628Y004498D01*
X009623Y004449D02*
X010181Y004449D01*
X010181Y004401D02*
X009595Y004401D01*
X009665Y004304D02*
X009860Y004304D01*
X009812Y004255D02*
X009745Y004255D01*
X009767Y004207D02*
X009774Y004207D01*
X009770Y004196D02*
X009770Y004196D01*
X009937Y004352D02*
X009056Y004352D01*
X009105Y004401D02*
X009161Y004401D01*
X009133Y004449D02*
X009121Y004449D01*
X009121Y004498D02*
X009128Y004498D01*
X009121Y004546D02*
X009128Y004546D01*
X009121Y004595D02*
X009128Y004595D01*
X009353Y004546D02*
X009403Y004546D01*
X009403Y004498D02*
X009353Y004498D01*
X009353Y004449D02*
X009403Y004449D01*
X009403Y004401D02*
X009353Y004401D01*
X009310Y004304D02*
X009270Y004304D01*
X009462Y004304D02*
X009512Y004304D01*
X009512Y004255D02*
X009462Y004255D01*
X009462Y004207D02*
X009512Y004207D01*
X009512Y004158D02*
X009462Y004158D01*
X009462Y004110D02*
X009512Y004110D01*
X009512Y004061D02*
X009462Y004061D01*
X009462Y004013D02*
X009512Y004013D01*
X009512Y003918D02*
X009512Y003582D01*
X009661Y003582D01*
X009693Y003591D01*
X009721Y003607D01*
X009745Y003630D01*
X009749Y003637D01*
X009782Y003557D01*
X009889Y003449D01*
X010029Y003391D01*
X010181Y003391D01*
X010181Y002894D01*
X010029Y002894D01*
X009889Y002836D01*
X009782Y002729D01*
X009724Y002589D01*
X009724Y002352D01*
X007085Y002352D01*
X007085Y002589D01*
X007027Y002729D01*
X006920Y002836D01*
X006780Y002894D01*
X006631Y002894D01*
X006631Y003391D01*
X006780Y003391D01*
X006920Y003449D01*
X007027Y003557D01*
X007061Y003637D01*
X007064Y003630D01*
X007088Y003607D01*
X007116Y003591D01*
X007148Y003582D01*
X007297Y003582D01*
X007297Y003918D01*
X007347Y003918D01*
X007347Y003582D01*
X007491Y003582D01*
X007491Y003398D01*
X007539Y003282D01*
X007776Y003045D01*
X007892Y002997D01*
X008224Y002997D01*
X008333Y002952D01*
X008476Y002952D01*
X008585Y002997D01*
X008917Y002997D01*
X009033Y003045D01*
X009122Y003134D01*
X009270Y003282D01*
X009318Y003398D01*
X009318Y003582D01*
X009462Y003582D01*
X009462Y003918D01*
X009512Y003918D01*
X009512Y003916D02*
X009462Y003916D01*
X009462Y003867D02*
X009512Y003867D01*
X009512Y003819D02*
X009462Y003819D01*
X009462Y003770D02*
X009512Y003770D01*
X009512Y003722D02*
X009462Y003722D01*
X009462Y003673D02*
X009512Y003673D01*
X009512Y003625D02*
X009462Y003625D01*
X009318Y003576D02*
X009774Y003576D01*
X009754Y003625D02*
X009739Y003625D01*
X009811Y003528D02*
X009318Y003528D01*
X009318Y003479D02*
X009859Y003479D01*
X009934Y003431D02*
X009318Y003431D01*
X009311Y003382D02*
X010181Y003382D01*
X010181Y003334D02*
X009291Y003334D01*
X009271Y003285D02*
X010181Y003285D01*
X010181Y003237D02*
X009224Y003237D01*
X009176Y003188D02*
X010181Y003188D01*
X010181Y003140D02*
X009127Y003140D01*
X009079Y003091D02*
X010181Y003091D01*
X010181Y003043D02*
X009026Y003043D01*
X008577Y002994D02*
X010181Y002994D01*
X010181Y002946D02*
X006631Y002946D01*
X006631Y002994D02*
X008232Y002994D01*
X007783Y003043D02*
X006631Y003043D01*
X006631Y003091D02*
X007730Y003091D01*
X007682Y003140D02*
X006631Y003140D01*
X006631Y003188D02*
X007633Y003188D01*
X007585Y003237D02*
X006631Y003237D01*
X006631Y003285D02*
X007538Y003285D01*
X007518Y003334D02*
X006631Y003334D01*
X006631Y003382D02*
X007498Y003382D01*
X007491Y003431D02*
X006875Y003431D01*
X006950Y003479D02*
X007491Y003479D01*
X007491Y003528D02*
X006998Y003528D01*
X007035Y003576D02*
X007491Y003576D01*
X007347Y003625D02*
X007297Y003625D01*
X007297Y003673D02*
X007347Y003673D01*
X007347Y003722D02*
X007297Y003722D01*
X007297Y003770D02*
X007347Y003770D01*
X007347Y003819D02*
X007297Y003819D01*
X007297Y003867D02*
X007347Y003867D01*
X007347Y003916D02*
X007297Y003916D01*
X007297Y004013D02*
X007347Y004013D01*
X007347Y004061D02*
X007297Y004061D01*
X007297Y004110D02*
X007347Y004110D01*
X007347Y004158D02*
X007297Y004158D01*
X007297Y004207D02*
X007347Y004207D01*
X007347Y004255D02*
X007297Y004255D01*
X007297Y004304D02*
X007347Y004304D01*
X007290Y004360D02*
X007406Y004360D01*
X007406Y004637D01*
X007456Y004637D01*
X007456Y004360D01*
X007573Y004360D01*
X007604Y004369D01*
X007633Y004385D01*
X007656Y004408D01*
X007673Y004437D01*
X007681Y004469D01*
X007681Y004637D01*
X007456Y004637D01*
X007456Y004687D01*
X007681Y004687D01*
X007681Y004856D01*
X007673Y004888D01*
X007656Y004916D01*
X007633Y004940D01*
X007604Y004956D01*
X007573Y004965D01*
X007456Y004965D01*
X007456Y004687D01*
X007406Y004687D01*
X007406Y004637D01*
X007181Y004637D01*
X007181Y004469D01*
X007190Y004437D01*
X007206Y004408D01*
X007229Y004385D01*
X007258Y004369D01*
X007290Y004360D01*
X007214Y004401D02*
X006631Y004401D01*
X006631Y004449D02*
X007186Y004449D01*
X007181Y004498D02*
X006631Y004498D01*
X006631Y004546D02*
X007181Y004546D01*
X007181Y004595D02*
X006631Y004595D01*
X006631Y004643D02*
X007406Y004643D01*
X007406Y004687D02*
X007181Y004687D01*
X007181Y004856D01*
X007190Y004888D01*
X007206Y004916D01*
X007229Y004940D01*
X007258Y004956D01*
X007290Y004965D01*
X007406Y004965D01*
X007406Y004687D01*
X007406Y004692D02*
X007456Y004692D01*
X007456Y004740D02*
X007406Y004740D01*
X007406Y004789D02*
X007456Y004789D01*
X007456Y004837D02*
X007406Y004837D01*
X007406Y004886D02*
X007456Y004886D01*
X007456Y004934D02*
X007406Y004934D01*
X007638Y004934D02*
X007714Y004934D01*
X007688Y004886D02*
X007673Y004886D01*
X007681Y004837D02*
X007688Y004837D01*
X007681Y004789D02*
X007688Y004789D01*
X007681Y004740D02*
X007688Y004740D01*
X007681Y004692D02*
X007688Y004692D01*
X007688Y004643D02*
X007456Y004643D01*
X007456Y004595D02*
X007406Y004595D01*
X007406Y004546D02*
X007456Y004546D01*
X007456Y004498D02*
X007406Y004498D01*
X007406Y004449D02*
X007456Y004449D01*
X007456Y004401D02*
X007406Y004401D01*
X007499Y004304D02*
X007539Y004304D01*
X007648Y004401D02*
X007704Y004401D01*
X007688Y004449D02*
X007676Y004449D01*
X007681Y004498D02*
X007688Y004498D01*
X007681Y004546D02*
X007688Y004546D01*
X007681Y004595D02*
X007688Y004595D01*
X007753Y004352D02*
X006872Y004352D01*
X006949Y004304D02*
X007144Y004304D01*
X007064Y004255D02*
X006997Y004255D01*
X007035Y004207D02*
X007042Y004207D01*
X007181Y004692D02*
X006631Y004692D01*
X006631Y004740D02*
X007181Y004740D01*
X007181Y004789D02*
X006631Y004789D01*
X006631Y004837D02*
X007181Y004837D01*
X007189Y004886D02*
X006631Y004886D01*
X006631Y004934D02*
X007224Y004934D01*
X007763Y004983D02*
X006631Y004983D01*
X006381Y005546D02*
X006381Y002342D01*
X005845Y002162D02*
X005847Y002123D01*
X005853Y002085D01*
X005862Y002048D01*
X005875Y002011D01*
X005892Y001976D01*
X005911Y001943D01*
X005934Y001912D01*
X005960Y001883D01*
X005989Y001857D01*
X006020Y001834D01*
X006053Y001815D01*
X006088Y001798D01*
X006125Y001785D01*
X006162Y001776D01*
X006200Y001770D01*
X006239Y001768D01*
X006239Y001769D02*
X010373Y001769D01*
X010431Y002342D02*
X010431Y005546D01*
X010181Y004934D02*
X009585Y004934D01*
X009620Y004886D02*
X010181Y004886D01*
X010181Y004837D02*
X009628Y004837D01*
X009628Y004789D02*
X010181Y004789D01*
X010181Y004740D02*
X009628Y004740D01*
X009628Y004692D02*
X010181Y004692D01*
X009403Y004692D02*
X009353Y004692D01*
X009353Y004740D02*
X009403Y004740D01*
X009403Y004789D02*
X009353Y004789D01*
X009353Y004837D02*
X009403Y004837D01*
X009403Y004886D02*
X009353Y004886D01*
X009353Y004934D02*
X009403Y004934D01*
X010431Y005546D02*
X010429Y005613D01*
X010423Y005680D01*
X010414Y005747D01*
X010401Y005813D01*
X010384Y005878D01*
X010364Y005942D01*
X010340Y006005D01*
X010312Y006067D01*
X010281Y006126D01*
X010247Y006184D01*
X010210Y006240D01*
X010169Y006294D01*
X010126Y006346D01*
X010080Y006395D01*
X010031Y006441D01*
X009979Y006484D01*
X009925Y006525D01*
X009869Y006562D01*
X009811Y006596D01*
X009752Y006627D01*
X009690Y006655D01*
X009627Y006679D01*
X009563Y006699D01*
X009498Y006716D01*
X009432Y006729D01*
X009365Y006738D01*
X009298Y006744D01*
X009231Y006746D01*
X009362Y006486D02*
X007450Y006486D01*
X007269Y006438D02*
X009543Y006438D01*
X009654Y006389D02*
X007157Y006389D01*
X007073Y006341D02*
X009738Y006341D01*
X009817Y006292D02*
X006995Y006292D01*
X007581Y006746D02*
X007581Y007096D01*
X006681Y007096D01*
X006651Y007098D01*
X006621Y007103D01*
X006592Y007112D01*
X006565Y007125D01*
X006539Y007140D01*
X006515Y007159D01*
X006494Y007180D01*
X006475Y007204D01*
X006460Y007230D01*
X006447Y007257D01*
X006438Y007286D01*
X006433Y007316D01*
X006431Y007346D01*
X006431Y007852D01*
X005845Y007852D01*
X005845Y002162D01*
X006381Y002342D02*
X006383Y002308D01*
X006388Y002273D01*
X006397Y002240D01*
X006410Y002208D01*
X006425Y002177D01*
X006444Y002148D01*
X006466Y002121D01*
X006490Y002097D01*
X006517Y002075D01*
X006546Y002056D01*
X006577Y002041D01*
X006609Y002028D01*
X006642Y002019D01*
X006677Y002014D01*
X006711Y002012D01*
X006961Y002102D02*
X009851Y002102D01*
X009724Y002364D02*
X007085Y002364D01*
X007085Y002412D02*
X009724Y002412D01*
X009724Y002461D02*
X007085Y002461D01*
X007085Y002509D02*
X009724Y002509D01*
X009724Y002558D02*
X007085Y002558D01*
X007078Y002606D02*
X009731Y002606D01*
X009751Y002655D02*
X007058Y002655D01*
X007038Y002703D02*
X009771Y002703D01*
X009805Y002752D02*
X007005Y002752D01*
X006956Y002800D02*
X009853Y002800D01*
X009919Y002849D02*
X006890Y002849D01*
X006631Y002897D02*
X010181Y002897D01*
X009851Y002102D02*
X009881Y002079D01*
X009914Y002059D01*
X009948Y002042D01*
X009985Y002029D01*
X010022Y002020D01*
X010060Y002014D01*
X010098Y002012D01*
X010099Y002013D02*
X010133Y002015D01*
X010167Y002020D01*
X010201Y002029D01*
X010233Y002041D01*
X010264Y002057D01*
X010293Y002075D01*
X010320Y002097D01*
X010345Y002121D01*
X010367Y002148D01*
X010386Y002177D01*
X010402Y002208D01*
X010414Y002240D01*
X010423Y002274D01*
X010429Y002308D01*
X010431Y002343D01*
X010964Y002359D02*
X010962Y002313D01*
X010957Y002267D01*
X010948Y002221D01*
X010935Y002176D01*
X010919Y002133D01*
X010900Y002091D01*
X010877Y002050D01*
X010851Y002012D01*
X010822Y001975D01*
X010791Y001941D01*
X010757Y001910D01*
X010720Y001881D01*
X010682Y001855D01*
X010641Y001832D01*
X010599Y001813D01*
X010556Y001797D01*
X010511Y001784D01*
X010465Y001775D01*
X010419Y001770D01*
X010373Y001768D01*
X010964Y002359D02*
X010964Y003590D01*
X010963Y003590D02*
X010965Y003616D01*
X010970Y003641D01*
X010978Y003665D01*
X010989Y003689D01*
X011004Y003710D01*
X011021Y003729D01*
X011040Y003746D01*
X011061Y003761D01*
X011085Y003772D01*
X011109Y003780D01*
X011134Y003785D01*
X011160Y003787D01*
X011242Y004603D02*
X011284Y004556D01*
X011329Y004511D01*
X011377Y004470D01*
X011427Y004431D01*
X011480Y004395D01*
X011534Y004363D01*
X011591Y004334D01*
X011649Y004308D01*
X011708Y004286D01*
X011769Y004268D01*
X011831Y004253D01*
X011894Y004243D01*
X011957Y004236D01*
X012020Y004233D01*
X012084Y004234D01*
X012147Y004239D01*
X012210Y004248D01*
X012272Y004260D01*
X012333Y004277D01*
X012393Y004297D01*
X012452Y004320D01*
X012510Y004348D01*
X012565Y004378D01*
X012619Y004412D01*
X012670Y004450D01*
X012719Y004490D01*
X012765Y004533D01*
X012809Y004579D01*
X012850Y004628D01*
X012888Y004679D01*
X012922Y004732D01*
X012953Y004788D01*
X012981Y004845D01*
X013005Y004903D01*
X013026Y004963D01*
X013043Y005025D01*
X013056Y005087D01*
X013065Y005149D01*
X013070Y005213D01*
X013072Y005276D01*
X013070Y005340D01*
X013063Y005403D01*
X013053Y005465D01*
X013039Y005527D01*
X013022Y005588D01*
X013000Y005648D01*
X012975Y005706D01*
X012975Y006226D01*
X013325Y006226D01*
X013355Y006228D01*
X013385Y006234D01*
X013413Y006243D01*
X013441Y006256D01*
X013466Y006272D01*
X013489Y006291D01*
X013510Y006313D01*
X013528Y006337D01*
X013542Y006364D01*
X013553Y006392D01*
X013561Y006421D01*
X013565Y006451D01*
X013565Y006481D01*
X013561Y006511D01*
X013553Y006540D01*
X013542Y006568D01*
X013528Y006595D01*
X013510Y006619D01*
X013489Y006641D01*
X013466Y006660D01*
X013441Y006676D01*
X013413Y006689D01*
X013385Y006698D01*
X013355Y006704D01*
X013325Y006706D01*
X013523Y007099D02*
X013570Y007080D01*
X013616Y007057D01*
X013660Y007030D01*
X013702Y007001D01*
X013742Y006968D01*
X013779Y006932D01*
X013813Y006894D01*
X013844Y006853D01*
X013872Y006809D01*
X013896Y006764D01*
X013917Y006717D01*
X013935Y006669D01*
X013948Y006619D01*
X013958Y006569D01*
X013964Y006517D01*
X013966Y006466D01*
X013964Y006415D01*
X013958Y006363D01*
X013948Y006313D01*
X013935Y006263D01*
X013917Y006215D01*
X013896Y006168D01*
X013872Y006123D01*
X013844Y006079D01*
X013813Y006038D01*
X013779Y006000D01*
X013742Y005964D01*
X013702Y005931D01*
X013660Y005902D01*
X013616Y005875D01*
X013570Y005852D01*
X013523Y005833D01*
X013523Y005832D02*
X013523Y004575D01*
X013522Y004575D02*
X013520Y004521D01*
X013515Y004468D01*
X013506Y004415D01*
X013493Y004363D01*
X013477Y004311D01*
X013457Y004261D01*
X013434Y004213D01*
X013407Y004166D01*
X013378Y004121D01*
X013345Y004078D01*
X013310Y004038D01*
X013272Y004000D01*
X013232Y003965D01*
X013189Y003932D01*
X013144Y003903D01*
X013097Y003876D01*
X013049Y003853D01*
X012999Y003833D01*
X012947Y003817D01*
X012895Y003804D01*
X012842Y003795D01*
X012789Y003790D01*
X012735Y003788D01*
X008616Y004983D02*
X008193Y004983D01*
X008242Y004934D02*
X008567Y004934D01*
X008541Y004886D02*
X008268Y004886D01*
X008268Y004837D02*
X008541Y004837D01*
X008541Y004789D02*
X008268Y004789D01*
X008275Y004740D02*
X008534Y004740D01*
X008486Y004692D02*
X008323Y004692D01*
X008372Y004643D02*
X008437Y004643D01*
X006381Y005546D02*
X006383Y005613D01*
X006389Y005680D01*
X006398Y005747D01*
X006411Y005813D01*
X006428Y005878D01*
X006448Y005942D01*
X006472Y006005D01*
X006500Y006067D01*
X006531Y006126D01*
X006565Y006184D01*
X006602Y006240D01*
X006643Y006294D01*
X006686Y006346D01*
X006732Y006395D01*
X006781Y006441D01*
X006833Y006484D01*
X006887Y006525D01*
X006943Y006562D01*
X007001Y006596D01*
X007060Y006627D01*
X007122Y006655D01*
X007185Y006679D01*
X007249Y006699D01*
X007314Y006716D01*
X007380Y006729D01*
X007447Y006738D01*
X007514Y006744D01*
X007581Y006746D01*
X008010Y006632D02*
X008024Y006632D01*
X008003Y007262D02*
X008138Y007262D01*
X008320Y007262D02*
X008493Y007262D01*
X006807Y009105D02*
X006681Y009105D01*
X006681Y009057D02*
X006779Y009057D01*
X006774Y009008D02*
X006681Y009008D01*
X006669Y008960D02*
X006774Y008960D01*
X006431Y009038D02*
X005840Y009038D01*
X005840Y012749D01*
X005838Y012766D01*
X005834Y012783D01*
X005827Y012799D01*
X005817Y012813D01*
X005804Y012826D01*
X005790Y012836D01*
X005774Y012843D01*
X005757Y012847D01*
X005740Y012849D01*
X005690Y012849D01*
X005667Y012851D01*
X005644Y012856D01*
X005622Y012865D01*
X005602Y012878D01*
X005584Y012893D01*
X005569Y012911D01*
X005556Y012931D01*
X005547Y012953D01*
X005542Y012976D01*
X005540Y012999D01*
X005540Y014693D01*
X005934Y014693D02*
X005934Y013393D01*
X005936Y013370D01*
X005941Y013347D01*
X005950Y013325D01*
X005963Y013305D01*
X005978Y013287D01*
X005996Y013272D01*
X006016Y013259D01*
X006038Y013250D01*
X006061Y013245D01*
X006084Y013243D01*
X006331Y013243D01*
X006348Y013241D01*
X006365Y013237D01*
X006381Y013230D01*
X006395Y013220D01*
X006408Y013207D01*
X006418Y013193D01*
X006425Y013177D01*
X006429Y013160D01*
X006431Y013143D01*
X006431Y009038D01*
X006681Y007844D02*
X006774Y007844D01*
X006774Y007796D02*
X006681Y007796D01*
X007727Y009833D02*
X008125Y009833D01*
X008384Y009833D02*
X008525Y009833D01*
X008784Y009833D02*
X008934Y009833D01*
X008934Y009881D02*
X007747Y009881D01*
X007750Y009930D02*
X008945Y009930D01*
X008935Y009978D02*
X007750Y009978D01*
X007749Y010027D02*
X008934Y010027D01*
X008934Y010075D02*
X007729Y010075D01*
X007709Y010124D02*
X008934Y010124D01*
X008906Y010172D02*
X007676Y010172D01*
X007628Y010221D02*
X008894Y010221D01*
X008894Y010269D02*
X007550Y010269D01*
X007394Y010318D02*
X008894Y010318D01*
X008894Y010366D02*
X007394Y010366D01*
X007182Y011141D02*
X007117Y011206D01*
X007197Y011286D01*
X007197Y011673D01*
X007100Y011769D01*
X007090Y011769D01*
X007090Y011841D01*
X007162Y011913D01*
X007162Y012327D01*
X007169Y012343D01*
X007169Y012758D01*
X007258Y012721D01*
X007331Y012721D01*
X007314Y012711D01*
X007291Y012688D01*
X007274Y012659D01*
X007266Y012627D01*
X007266Y012321D01*
X007582Y012321D01*
X007582Y012271D01*
X007266Y012271D01*
X007266Y011965D01*
X007274Y011933D01*
X007291Y011904D01*
X007314Y011881D01*
X007342Y011865D01*
X007374Y011856D01*
X007582Y011856D01*
X007582Y012271D01*
X007632Y012271D01*
X007632Y011856D01*
X007840Y011856D01*
X007872Y011865D01*
X007888Y011874D01*
X007888Y011530D01*
X007892Y011526D01*
X007820Y011453D01*
X007811Y011445D01*
X007811Y011454D01*
X007534Y011454D01*
X007534Y011229D01*
X007596Y011229D01*
X007589Y011223D01*
X007263Y011223D01*
X007182Y011141D01*
X007181Y011142D02*
X007183Y011142D01*
X007231Y011191D02*
X007133Y011191D01*
X007150Y011239D02*
X007281Y011239D01*
X007284Y011238D02*
X007315Y011229D01*
X007484Y011229D01*
X007484Y011454D01*
X007534Y011454D01*
X007534Y011504D01*
X007811Y011504D01*
X007811Y011621D01*
X007803Y011653D01*
X007786Y011681D01*
X007763Y011704D01*
X007734Y011721D01*
X007703Y011729D01*
X007534Y011729D01*
X007534Y011504D01*
X007484Y011504D01*
X007484Y011454D01*
X007207Y011454D01*
X007207Y011338D01*
X007215Y011306D01*
X007232Y011278D01*
X007255Y011254D01*
X007284Y011238D01*
X007226Y011288D02*
X007197Y011288D01*
X007197Y011336D02*
X007207Y011336D01*
X007207Y011385D02*
X007197Y011385D01*
X007197Y011433D02*
X007207Y011433D01*
X007197Y011482D02*
X007484Y011482D01*
X007484Y011504D02*
X007207Y011504D01*
X007207Y011621D01*
X007215Y011653D01*
X007232Y011681D01*
X007255Y011704D01*
X007284Y011721D01*
X007315Y011729D01*
X007484Y011729D01*
X007484Y011504D01*
X007484Y011530D02*
X007534Y011530D01*
X007534Y011482D02*
X007848Y011482D01*
X007811Y011530D02*
X007889Y011530D01*
X007888Y011579D02*
X007811Y011579D01*
X007809Y011627D02*
X007888Y011627D01*
X007888Y011676D02*
X007789Y011676D01*
X007722Y011724D02*
X007888Y011724D01*
X007888Y011773D02*
X007090Y011773D01*
X007090Y011821D02*
X007888Y011821D01*
X007881Y011870D02*
X007888Y011870D01*
X007941Y011937D02*
X007949Y011965D01*
X007949Y012271D01*
X007632Y012271D01*
X007632Y012321D01*
X007582Y012321D01*
X007582Y012736D01*
X007437Y012736D01*
X007522Y012771D01*
X008161Y012771D01*
X008222Y012710D01*
X008222Y012211D01*
X008194Y012211D01*
X008082Y012165D01*
X007996Y012079D01*
X007950Y011967D01*
X007950Y011945D01*
X007941Y011937D01*
X007949Y011967D02*
X007950Y011967D01*
X007949Y012015D02*
X007970Y012015D01*
X007990Y012064D02*
X007949Y012064D01*
X007949Y012112D02*
X008029Y012112D01*
X008078Y012161D02*
X007949Y012161D01*
X007949Y012209D02*
X008189Y012209D01*
X008222Y012258D02*
X007949Y012258D01*
X007949Y012321D02*
X007949Y012627D01*
X007940Y012659D01*
X007924Y012688D01*
X007901Y012711D01*
X007872Y012728D01*
X007840Y012736D01*
X007632Y012736D01*
X007632Y012321D01*
X007949Y012321D01*
X007949Y012355D02*
X008222Y012355D01*
X008222Y012403D02*
X007949Y012403D01*
X007949Y012452D02*
X008222Y012452D01*
X008222Y012500D02*
X007949Y012500D01*
X007949Y012549D02*
X008222Y012549D01*
X008222Y012597D02*
X007949Y012597D01*
X007944Y012646D02*
X008222Y012646D01*
X008222Y012694D02*
X007917Y012694D01*
X008190Y012743D02*
X007453Y012743D01*
X007582Y012694D02*
X007632Y012694D01*
X007632Y012646D02*
X007582Y012646D01*
X007582Y012597D02*
X007632Y012597D01*
X007632Y012549D02*
X007582Y012549D01*
X007582Y012500D02*
X007632Y012500D01*
X007632Y012452D02*
X007582Y012452D01*
X007582Y012403D02*
X007632Y012403D01*
X007632Y012355D02*
X007582Y012355D01*
X007582Y012306D02*
X007162Y012306D01*
X007162Y012258D02*
X007266Y012258D01*
X007266Y012209D02*
X007162Y012209D01*
X007162Y012161D02*
X007266Y012161D01*
X007266Y012112D02*
X007162Y012112D01*
X007162Y012064D02*
X007266Y012064D01*
X007266Y012015D02*
X007162Y012015D01*
X007162Y011967D02*
X007266Y011967D01*
X007283Y011918D02*
X007162Y011918D01*
X007119Y011870D02*
X007334Y011870D01*
X007296Y011724D02*
X007146Y011724D01*
X007194Y011676D02*
X007229Y011676D01*
X007208Y011627D02*
X007197Y011627D01*
X007197Y011579D02*
X007207Y011579D01*
X007207Y011530D02*
X007197Y011530D01*
X007484Y011579D02*
X007534Y011579D01*
X007534Y011627D02*
X007484Y011627D01*
X007484Y011676D02*
X007534Y011676D01*
X007534Y011724D02*
X007484Y011724D01*
X007582Y011870D02*
X007632Y011870D01*
X007632Y011918D02*
X007582Y011918D01*
X007582Y011967D02*
X007632Y011967D01*
X007632Y012015D02*
X007582Y012015D01*
X007582Y012064D02*
X007632Y012064D01*
X007632Y012112D02*
X007582Y012112D01*
X007582Y012161D02*
X007632Y012161D01*
X007632Y012209D02*
X007582Y012209D01*
X007582Y012258D02*
X007632Y012258D01*
X007632Y012306D02*
X008222Y012306D01*
X007534Y011433D02*
X007484Y011433D01*
X007484Y011385D02*
X007534Y011385D01*
X007534Y011336D02*
X007484Y011336D01*
X007484Y011288D02*
X007534Y011288D01*
X007534Y011239D02*
X007484Y011239D01*
X007266Y012355D02*
X007169Y012355D01*
X007169Y012403D02*
X007266Y012403D01*
X007266Y012452D02*
X007169Y012452D01*
X007169Y012500D02*
X007266Y012500D01*
X007266Y012549D02*
X007169Y012549D01*
X007169Y012597D02*
X007266Y012597D01*
X007271Y012646D02*
X007169Y012646D01*
X007169Y012694D02*
X007297Y012694D01*
X007206Y012743D02*
X007169Y012743D01*
X005540Y014693D02*
X005542Y014748D01*
X005547Y014803D01*
X005556Y014857D01*
X005569Y014911D01*
X005585Y014963D01*
X005604Y015015D01*
X005627Y015065D01*
X005653Y015114D01*
X005682Y015160D01*
X005714Y015205D01*
X005749Y015248D01*
X005786Y015288D01*
X005826Y015325D01*
X005869Y015360D01*
X005914Y015392D01*
X005961Y015421D01*
X006009Y015447D01*
X006059Y015470D01*
X006111Y015489D01*
X006163Y015505D01*
X006217Y015518D01*
X006271Y015527D01*
X006326Y015532D01*
X006381Y015534D01*
X006381Y015140D02*
X006340Y015138D01*
X006299Y015132D01*
X006259Y015123D01*
X006220Y015110D01*
X006182Y015093D01*
X006146Y015073D01*
X006112Y015050D01*
X006080Y015023D01*
X006051Y014994D01*
X006024Y014962D01*
X006001Y014928D01*
X005981Y014892D01*
X005964Y014854D01*
X005951Y014815D01*
X005942Y014775D01*
X005936Y014734D01*
X005934Y014693D01*
X003505Y017206D02*
X003461Y017204D01*
X003418Y017198D01*
X003376Y017189D01*
X003334Y017176D01*
X003294Y017159D01*
X003255Y017139D01*
X003218Y017116D01*
X003184Y017089D01*
X003151Y017060D01*
X003122Y017027D01*
X003095Y016993D01*
X003072Y016956D01*
X003052Y016917D01*
X003035Y016877D01*
X003022Y016835D01*
X003013Y016793D01*
X003007Y016750D01*
X003005Y016706D01*
X003255Y016089D02*
X014555Y016089D01*
X014555Y016041D02*
X003255Y016041D01*
X003255Y015992D02*
X014555Y015992D01*
X014555Y015944D02*
X003255Y015944D01*
X003255Y015895D02*
X014555Y015895D01*
X014555Y015847D02*
X003255Y015847D01*
X003505Y017206D02*
X014305Y017206D01*
X010169Y010269D02*
X010119Y010269D01*
X010119Y010221D02*
X010169Y010221D01*
X010169Y010172D02*
X010119Y010172D01*
X010119Y010124D02*
X010169Y010124D01*
X010169Y010075D02*
X010119Y010075D01*
X010119Y010027D02*
X010169Y010027D01*
X009305Y010027D02*
X009286Y010027D01*
X009286Y009978D02*
X009305Y009978D01*
X009305Y009930D02*
X009286Y009930D01*
X009286Y009881D02*
X009305Y009881D01*
X009305Y009833D02*
X009286Y009833D01*
X007070Y003625D02*
X007055Y003625D01*
X006960Y002103D02*
X006929Y002080D01*
X006896Y002060D01*
X006861Y002043D01*
X006825Y002030D01*
X006788Y002020D01*
X006749Y002015D01*
X006711Y002013D01*
D11*
X008104Y006921D02*
X008106Y006943D01*
X008112Y006964D01*
X008121Y006983D01*
X008133Y007001D01*
X008149Y007017D01*
X008166Y007029D01*
X008186Y007038D01*
X008207Y007044D01*
X008229Y007046D01*
X008251Y007044D01*
X008272Y007038D01*
X008291Y007029D01*
X008309Y007017D01*
X008325Y007001D01*
X008337Y006983D01*
X008346Y006964D01*
X008352Y006943D01*
X008354Y006921D01*
X008352Y006899D01*
X008346Y006878D01*
X008337Y006859D01*
X008325Y006841D01*
X008309Y006825D01*
X008292Y006813D01*
X008272Y006804D01*
X008251Y006798D01*
X008229Y006796D01*
X008207Y006798D01*
X008186Y006804D01*
X008166Y006813D01*
X008149Y006825D01*
X008133Y006841D01*
X008121Y006858D01*
X008112Y006878D01*
X008106Y006899D01*
X008104Y006921D01*
X008459Y006921D02*
X008461Y006943D01*
X008467Y006964D01*
X008476Y006983D01*
X008488Y007001D01*
X008504Y007017D01*
X008521Y007029D01*
X008541Y007038D01*
X008562Y007044D01*
X008584Y007046D01*
X008606Y007044D01*
X008627Y007038D01*
X008646Y007029D01*
X008664Y007017D01*
X008680Y007001D01*
X008692Y006983D01*
X008701Y006964D01*
X008707Y006943D01*
X008709Y006921D01*
X008707Y006899D01*
X008701Y006878D01*
X008692Y006859D01*
X008680Y006841D01*
X008664Y006825D01*
X008647Y006813D01*
X008627Y006804D01*
X008606Y006798D01*
X008584Y006796D01*
X008562Y006798D01*
X008541Y006804D01*
X008521Y006813D01*
X008504Y006825D01*
X008488Y006841D01*
X008476Y006858D01*
X008467Y006878D01*
X008461Y006899D01*
X008459Y006921D01*
X006251Y007994D02*
X006253Y008011D01*
X006258Y008028D01*
X006267Y008042D01*
X006279Y008055D01*
X006294Y008065D01*
X006310Y008071D01*
X006327Y008074D01*
X006344Y008073D01*
X006361Y008068D01*
X006376Y008060D01*
X006389Y008049D01*
X006400Y008035D01*
X006407Y008020D01*
X006411Y008003D01*
X006411Y007985D01*
X006407Y007968D01*
X006400Y007953D01*
X006389Y007939D01*
X006376Y007928D01*
X006361Y007920D01*
X006344Y007915D01*
X006327Y007914D01*
X006310Y007917D01*
X006294Y007923D01*
X006279Y007933D01*
X006267Y007946D01*
X006258Y007960D01*
X006253Y007977D01*
X006251Y007994D01*
X006251Y008219D02*
X006253Y008236D01*
X006258Y008253D01*
X006267Y008267D01*
X006279Y008280D01*
X006294Y008290D01*
X006310Y008296D01*
X006327Y008299D01*
X006344Y008298D01*
X006361Y008293D01*
X006376Y008285D01*
X006389Y008274D01*
X006400Y008260D01*
X006407Y008245D01*
X006411Y008228D01*
X006411Y008210D01*
X006407Y008193D01*
X006400Y008178D01*
X006389Y008164D01*
X006376Y008153D01*
X006361Y008145D01*
X006344Y008140D01*
X006327Y008139D01*
X006310Y008142D01*
X006294Y008148D01*
X006279Y008158D01*
X006267Y008171D01*
X006258Y008185D01*
X006253Y008202D01*
X006251Y008219D01*
X006251Y008444D02*
X006253Y008461D01*
X006258Y008478D01*
X006267Y008492D01*
X006279Y008505D01*
X006294Y008515D01*
X006310Y008521D01*
X006327Y008524D01*
X006344Y008523D01*
X006361Y008518D01*
X006376Y008510D01*
X006389Y008499D01*
X006400Y008485D01*
X006407Y008470D01*
X006411Y008453D01*
X006411Y008435D01*
X006407Y008418D01*
X006400Y008403D01*
X006389Y008389D01*
X006376Y008378D01*
X006361Y008370D01*
X006344Y008365D01*
X006327Y008364D01*
X006310Y008367D01*
X006294Y008373D01*
X006279Y008383D01*
X006267Y008396D01*
X006258Y008410D01*
X006253Y008427D01*
X006251Y008444D01*
X006251Y008669D02*
X006253Y008686D01*
X006258Y008703D01*
X006267Y008717D01*
X006279Y008730D01*
X006294Y008740D01*
X006310Y008746D01*
X006327Y008749D01*
X006344Y008748D01*
X006361Y008743D01*
X006376Y008735D01*
X006389Y008724D01*
X006400Y008710D01*
X006407Y008695D01*
X006411Y008678D01*
X006411Y008660D01*
X006407Y008643D01*
X006400Y008628D01*
X006389Y008614D01*
X006376Y008603D01*
X006361Y008595D01*
X006344Y008590D01*
X006327Y008589D01*
X006310Y008592D01*
X006294Y008598D01*
X006279Y008608D01*
X006267Y008621D01*
X006258Y008635D01*
X006253Y008652D01*
X006251Y008669D01*
X006251Y008894D02*
X006253Y008911D01*
X006258Y008928D01*
X006267Y008942D01*
X006279Y008955D01*
X006294Y008965D01*
X006310Y008971D01*
X006327Y008974D01*
X006344Y008973D01*
X006361Y008968D01*
X006376Y008960D01*
X006389Y008949D01*
X006400Y008935D01*
X006407Y008920D01*
X006411Y008903D01*
X006411Y008885D01*
X006407Y008868D01*
X006400Y008853D01*
X006389Y008839D01*
X006376Y008828D01*
X006361Y008820D01*
X006344Y008815D01*
X006327Y008814D01*
X006310Y008817D01*
X006294Y008823D01*
X006279Y008833D01*
X006267Y008846D01*
X006258Y008860D01*
X006253Y008877D01*
X006251Y008894D01*
X011663Y006921D02*
X011665Y006944D01*
X011671Y006966D01*
X011680Y006988D01*
X011693Y007007D01*
X011708Y007024D01*
X011726Y007038D01*
X011747Y007049D01*
X011769Y007057D01*
X011791Y007061D01*
X011815Y007061D01*
X011837Y007057D01*
X011859Y007049D01*
X011880Y007038D01*
X011898Y007024D01*
X011913Y007007D01*
X011926Y006988D01*
X011935Y006966D01*
X011941Y006944D01*
X011943Y006921D01*
X011941Y006898D01*
X011935Y006876D01*
X011926Y006854D01*
X011913Y006835D01*
X011898Y006818D01*
X011880Y006804D01*
X011859Y006793D01*
X011837Y006785D01*
X011815Y006781D01*
X011791Y006781D01*
X011769Y006785D01*
X011747Y006793D01*
X011726Y006804D01*
X011708Y006818D01*
X011693Y006835D01*
X011680Y006854D01*
X011671Y006876D01*
X011665Y006898D01*
X011663Y006921D01*
X012158Y006921D02*
X012160Y006944D01*
X012166Y006966D01*
X012175Y006988D01*
X012188Y007007D01*
X012203Y007024D01*
X012221Y007038D01*
X012242Y007049D01*
X012264Y007057D01*
X012286Y007061D01*
X012310Y007061D01*
X012332Y007057D01*
X012354Y007049D01*
X012375Y007038D01*
X012393Y007024D01*
X012408Y007007D01*
X012421Y006988D01*
X012430Y006966D01*
X012436Y006944D01*
X012438Y006921D01*
X012436Y006898D01*
X012430Y006876D01*
X012421Y006854D01*
X012408Y006835D01*
X012393Y006818D01*
X012375Y006804D01*
X012354Y006793D01*
X012332Y006785D01*
X012310Y006781D01*
X012286Y006781D01*
X012264Y006785D01*
X012242Y006793D01*
X012221Y006804D01*
X012203Y006818D01*
X012188Y006835D01*
X012175Y006854D01*
X012166Y006876D01*
X012160Y006898D01*
X012158Y006921D01*
X012951Y007994D02*
X012953Y008011D01*
X012958Y008028D01*
X012967Y008042D01*
X012979Y008055D01*
X012994Y008065D01*
X013010Y008071D01*
X013027Y008074D01*
X013044Y008073D01*
X013061Y008068D01*
X013076Y008060D01*
X013089Y008049D01*
X013100Y008035D01*
X013107Y008020D01*
X013111Y008003D01*
X013111Y007985D01*
X013107Y007968D01*
X013100Y007953D01*
X013089Y007939D01*
X013076Y007928D01*
X013061Y007920D01*
X013044Y007915D01*
X013027Y007914D01*
X013010Y007917D01*
X012994Y007923D01*
X012979Y007933D01*
X012967Y007946D01*
X012958Y007960D01*
X012953Y007977D01*
X012951Y007994D01*
X012951Y008219D02*
X012953Y008236D01*
X012958Y008253D01*
X012967Y008267D01*
X012979Y008280D01*
X012994Y008290D01*
X013010Y008296D01*
X013027Y008299D01*
X013044Y008298D01*
X013061Y008293D01*
X013076Y008285D01*
X013089Y008274D01*
X013100Y008260D01*
X013107Y008245D01*
X013111Y008228D01*
X013111Y008210D01*
X013107Y008193D01*
X013100Y008178D01*
X013089Y008164D01*
X013076Y008153D01*
X013061Y008145D01*
X013044Y008140D01*
X013027Y008139D01*
X013010Y008142D01*
X012994Y008148D01*
X012979Y008158D01*
X012967Y008171D01*
X012958Y008185D01*
X012953Y008202D01*
X012951Y008219D01*
X012951Y008444D02*
X012953Y008461D01*
X012958Y008478D01*
X012967Y008492D01*
X012979Y008505D01*
X012994Y008515D01*
X013010Y008521D01*
X013027Y008524D01*
X013044Y008523D01*
X013061Y008518D01*
X013076Y008510D01*
X013089Y008499D01*
X013100Y008485D01*
X013107Y008470D01*
X013111Y008453D01*
X013111Y008435D01*
X013107Y008418D01*
X013100Y008403D01*
X013089Y008389D01*
X013076Y008378D01*
X013061Y008370D01*
X013044Y008365D01*
X013027Y008364D01*
X013010Y008367D01*
X012994Y008373D01*
X012979Y008383D01*
X012967Y008396D01*
X012958Y008410D01*
X012953Y008427D01*
X012951Y008444D01*
X012951Y008669D02*
X012953Y008686D01*
X012958Y008703D01*
X012967Y008717D01*
X012979Y008730D01*
X012994Y008740D01*
X013010Y008746D01*
X013027Y008749D01*
X013044Y008748D01*
X013061Y008743D01*
X013076Y008735D01*
X013089Y008724D01*
X013100Y008710D01*
X013107Y008695D01*
X013111Y008678D01*
X013111Y008660D01*
X013107Y008643D01*
X013100Y008628D01*
X013089Y008614D01*
X013076Y008603D01*
X013061Y008595D01*
X013044Y008590D01*
X013027Y008589D01*
X013010Y008592D01*
X012994Y008598D01*
X012979Y008608D01*
X012967Y008621D01*
X012958Y008635D01*
X012953Y008652D01*
X012951Y008669D01*
X012951Y008894D02*
X012953Y008911D01*
X012958Y008928D01*
X012967Y008942D01*
X012979Y008955D01*
X012994Y008965D01*
X013010Y008971D01*
X013027Y008974D01*
X013044Y008973D01*
X013061Y008968D01*
X013076Y008960D01*
X013089Y008949D01*
X013100Y008935D01*
X013107Y008920D01*
X013111Y008903D01*
X013111Y008885D01*
X013107Y008868D01*
X013100Y008853D01*
X013089Y008839D01*
X013076Y008828D01*
X013061Y008820D01*
X013044Y008815D01*
X013027Y008814D01*
X013010Y008817D01*
X012994Y008823D01*
X012979Y008833D01*
X012967Y008846D01*
X012958Y008860D01*
X012953Y008877D01*
X012951Y008894D01*
D12*
X007607Y012296D03*
X006781Y012296D03*
D13*
X010144Y010321D03*
X010144Y009612D03*
D14*
X009293Y012441D03*
X008584Y012441D03*
D15*
X010961Y008636D03*
X011508Y008636D03*
X011508Y008051D03*
X010961Y008051D03*
X010961Y007469D03*
X011507Y007469D03*
X011808Y005967D03*
X012355Y005967D03*
X009378Y004662D03*
X008831Y004662D03*
X007978Y004662D03*
X007431Y004662D03*
D16*
X007509Y010933D03*
X007509Y011479D03*
X006855Y011479D03*
X006855Y010933D03*
D17*
X007304Y008900D03*
X007304Y008400D03*
X007304Y007900D03*
X007304Y007400D03*
X009424Y007400D03*
X009424Y007900D03*
X009424Y008400D03*
X009424Y008900D03*
D18*
X008364Y008150D03*
D19*
X008290Y010959D03*
X008290Y011333D03*
X008290Y011707D03*
X009313Y011707D03*
X009313Y011333D03*
X009313Y010959D03*
D20*
X009295Y010321D03*
X009295Y010065D03*
X009295Y009809D03*
X009295Y009553D03*
X006992Y009553D03*
X006992Y009809D03*
X006992Y010065D03*
X006992Y010321D03*
D21*
X007322Y003943D03*
X007806Y003943D03*
X009003Y003943D03*
X009487Y003943D03*
D22*
X008601Y003943D03*
X008208Y003943D03*
D23*
X006812Y004015D02*
X006812Y003771D01*
X006810Y003751D01*
X006805Y003732D01*
X006796Y003714D01*
X006784Y003698D01*
X006769Y003685D01*
X006752Y003674D01*
X006734Y003667D01*
X006714Y003663D01*
X006694Y003663D01*
X006674Y003667D01*
X006656Y003674D01*
X006639Y003685D01*
X006624Y003698D01*
X006612Y003714D01*
X006603Y003732D01*
X006598Y003751D01*
X006596Y003771D01*
X006596Y004015D01*
X006598Y004035D01*
X006603Y004054D01*
X006612Y004072D01*
X006624Y004088D01*
X006639Y004101D01*
X006656Y004112D01*
X006674Y004119D01*
X006694Y004123D01*
X006714Y004123D01*
X006734Y004119D01*
X006752Y004112D01*
X006769Y004101D01*
X006784Y004088D01*
X006796Y004072D01*
X006805Y004054D01*
X006810Y004035D01*
X006812Y004015D01*
X006812Y002519D02*
X006812Y002275D01*
X006810Y002255D01*
X006805Y002236D01*
X006796Y002218D01*
X006784Y002202D01*
X006769Y002189D01*
X006752Y002178D01*
X006734Y002171D01*
X006714Y002167D01*
X006694Y002167D01*
X006674Y002171D01*
X006656Y002178D01*
X006639Y002189D01*
X006624Y002202D01*
X006612Y002218D01*
X006603Y002236D01*
X006598Y002255D01*
X006596Y002275D01*
X006596Y002519D01*
X006598Y002539D01*
X006603Y002558D01*
X006612Y002576D01*
X006624Y002592D01*
X006639Y002605D01*
X006656Y002616D01*
X006674Y002623D01*
X006694Y002627D01*
X006714Y002627D01*
X006734Y002623D01*
X006752Y002616D01*
X006769Y002605D01*
X006784Y002592D01*
X006796Y002576D01*
X006805Y002558D01*
X006810Y002539D01*
X006812Y002519D01*
X009997Y002519D02*
X009997Y002275D01*
X009999Y002255D01*
X010004Y002236D01*
X010013Y002218D01*
X010025Y002202D01*
X010040Y002189D01*
X010057Y002178D01*
X010075Y002171D01*
X010095Y002167D01*
X010115Y002167D01*
X010135Y002171D01*
X010153Y002178D01*
X010170Y002189D01*
X010185Y002202D01*
X010197Y002218D01*
X010206Y002236D01*
X010211Y002255D01*
X010213Y002275D01*
X010213Y002519D01*
X010211Y002539D01*
X010206Y002558D01*
X010197Y002576D01*
X010185Y002592D01*
X010170Y002605D01*
X010153Y002616D01*
X010135Y002623D01*
X010115Y002627D01*
X010095Y002627D01*
X010075Y002623D01*
X010057Y002616D01*
X010040Y002605D01*
X010025Y002592D01*
X010013Y002576D01*
X010004Y002558D01*
X009999Y002539D01*
X009997Y002519D01*
X009997Y003771D02*
X009997Y004015D01*
X009999Y004035D01*
X010004Y004054D01*
X010013Y004072D01*
X010025Y004088D01*
X010040Y004101D01*
X010057Y004112D01*
X010075Y004119D01*
X010095Y004123D01*
X010115Y004123D01*
X010135Y004119D01*
X010153Y004112D01*
X010170Y004101D01*
X010185Y004088D01*
X010197Y004072D01*
X010206Y004054D01*
X010211Y004035D01*
X010213Y004015D01*
X010213Y003771D01*
X010211Y003751D01*
X010206Y003732D01*
X010197Y003714D01*
X010185Y003698D01*
X010170Y003685D01*
X010153Y003674D01*
X010135Y003667D01*
X010115Y003663D01*
X010095Y003663D01*
X010075Y003667D01*
X010057Y003674D01*
X010040Y003685D01*
X010025Y003698D01*
X010013Y003714D01*
X010004Y003732D01*
X009999Y003751D01*
X009997Y003771D01*
D24*
X010105Y004009D02*
X010105Y004009D01*
X010105Y003773D01*
X010105Y003773D01*
X010105Y004009D01*
X010105Y002513D02*
X010105Y002513D01*
X010105Y002277D01*
X010105Y002277D01*
X010105Y002513D01*
X006704Y002513D02*
X006704Y002513D01*
X006704Y002277D01*
X006704Y002277D01*
X006704Y002513D01*
X006704Y004009D02*
X006704Y004009D01*
X006704Y003773D01*
X006704Y003773D01*
X006704Y004009D01*
D25*
X012578Y007663D03*
X012578Y008363D03*
X012578Y009063D03*
D26*
X012681Y006467D03*
X012081Y006467D03*
X011481Y006467D03*
D27*
X010881Y006467D03*
X013281Y006467D03*
D28*
X007277Y013248D03*
X006884Y013248D03*
D29*
X006272Y014292D03*
X007889Y014292D03*
D30*
X011731Y005483D03*
X012081Y005483D03*
X012431Y005483D03*
X012431Y005050D03*
X012081Y005050D03*
X011731Y005050D03*
D31*
X010625Y011524D03*
X009751Y013877D03*
D32*
X003780Y016442D03*
X003780Y001088D03*
X014016Y001088D03*
D33*
X011601Y009727D03*
D34*
X008954Y006921D03*
X007859Y006921D03*
D35*
X006755Y007406D03*
X008105Y009006D03*
X010405Y008206D03*
X009537Y003312D03*
X008405Y003312D03*
X007272Y003312D03*
X007330Y013081D03*
X007255Y013950D03*
D36*
X007322Y003943D02*
X007322Y003462D01*
X007272Y003312D01*
X007806Y003461D02*
X007955Y003312D01*
X008405Y003312D01*
X008855Y003312D01*
X009003Y003461D01*
X009003Y003943D01*
X009487Y003943D02*
X009487Y003462D01*
X009537Y003312D01*
X007806Y003461D02*
X007806Y003943D01*
D37*
X008855Y006556D02*
X008954Y006656D01*
X008954Y006921D01*
X008954Y007006D01*
X008755Y007256D01*
X008155Y007256D01*
X007511Y007900D01*
X007535Y008301D02*
X007434Y008400D01*
X007304Y008400D01*
X007304Y007400D02*
X007610Y007400D01*
X007610Y007350D01*
X007855Y007106D01*
X007855Y006926D01*
X007859Y006921D01*
X009424Y007900D02*
X009799Y007900D01*
X010005Y008106D01*
X010005Y008356D01*
X010205Y008556D01*
X010555Y008556D01*
X010961Y008099D01*
X010961Y008051D01*
X010910Y007541D02*
X010881Y007469D01*
X010961Y007469D01*
X011507Y007469D02*
X011507Y007490D01*
X011559Y007541D01*
X011508Y008051D02*
X011649Y008051D01*
X011755Y008156D01*
X012105Y008256D02*
X011724Y008636D01*
X011508Y008636D01*
X010961Y008636D02*
X010841Y008756D01*
X010105Y008756D01*
X009749Y008400D01*
X009424Y008400D01*
X010905Y008606D02*
X010935Y008636D01*
X010961Y008636D01*
X010891Y008706D01*
X012105Y008256D02*
X012505Y008256D01*
X012578Y008330D01*
X012578Y008363D01*
X012205Y008656D02*
X012505Y009056D01*
X012578Y009063D01*
X012578Y007663D02*
X012578Y007662D01*
X012577Y007660D01*
X012575Y007660D01*
X012395Y007660D01*
X012575Y007660D02*
X012577Y007660D01*
X012578Y007662D01*
X012578Y007663D01*
X012684Y006470D02*
X012681Y006467D01*
X012684Y006470D02*
X012787Y006470D01*
X012787Y005720D01*
X012424Y005893D02*
X012424Y005486D01*
X012427Y005483D01*
X012431Y005483D01*
X012787Y005719D02*
X012817Y005677D01*
X012843Y005633D01*
X012867Y005587D01*
X012887Y005539D01*
X012904Y005490D01*
X012917Y005440D01*
X012927Y005390D01*
X012933Y005338D01*
X012936Y005287D01*
X012935Y005235D01*
X012930Y005184D01*
X012922Y005133D01*
X012911Y005082D01*
X012896Y005033D01*
X012877Y004985D01*
X012855Y004938D01*
X012830Y004893D01*
X012802Y004849D01*
X012771Y004808D01*
X012737Y004769D01*
X012737Y004770D02*
X012237Y004770D01*
X012074Y004932D01*
X012074Y005053D01*
X012077Y005050D01*
X012081Y005050D01*
X012074Y005053D02*
X011755Y005053D01*
X011752Y005050D01*
X011731Y005050D01*
X011724Y005053D02*
X011755Y005053D01*
X011731Y005483D02*
X011727Y005483D01*
X011474Y005736D01*
X011474Y006470D01*
X011477Y006467D01*
X011481Y006467D01*
X011787Y006220D02*
X011787Y005984D01*
X011804Y005967D01*
X011808Y005967D01*
X012074Y005486D02*
X012077Y005483D01*
X012081Y005483D01*
X012074Y005486D02*
X012074Y006470D01*
X012078Y006470D01*
X012081Y006467D01*
X012348Y005970D02*
X012355Y005962D01*
X012355Y005967D01*
X012355Y005962D02*
X012424Y005893D01*
X012474Y005103D02*
X012620Y005103D01*
X012474Y005103D02*
X012461Y005101D01*
X012449Y005096D01*
X012439Y005088D01*
X012431Y005078D01*
X012426Y005066D01*
X012424Y005053D01*
X012427Y005050D01*
X012431Y005050D01*
X013281Y006467D02*
X013315Y006467D01*
X013285Y006466D01*
X010894Y006467D02*
X010885Y006466D01*
X010881Y006467D02*
X010894Y006467D01*
D38*
X010885Y006466D03*
X011787Y006220D03*
X011559Y007541D03*
X011755Y008156D03*
X012205Y008656D03*
X012395Y007660D03*
X013285Y006466D03*
X012620Y005103D03*
X010910Y007541D03*
X009705Y009256D03*
X009355Y009256D03*
X009005Y009256D03*
X007855Y009906D03*
X007855Y010256D03*
X007805Y011806D03*
X007505Y011806D03*
X008105Y012356D03*
X008105Y012656D03*
X007535Y008301D03*
X007437Y007900D03*
X007087Y007900D03*
X003405Y008106D03*
X003405Y008606D03*
X014405Y008606D03*
X014405Y008106D03*
D39*
X010405Y008206D02*
X010405Y007956D01*
X010403Y007910D01*
X010397Y007864D01*
X010388Y007820D01*
X010375Y007775D01*
X010358Y007733D01*
X010338Y007691D01*
X010314Y007652D01*
X010288Y007614D01*
X010258Y007579D01*
X010226Y007547D01*
X010191Y007517D01*
X010153Y007491D01*
X010114Y007467D01*
X010072Y007447D01*
X010030Y007430D01*
X009985Y007417D01*
X009941Y007408D01*
X009895Y007402D01*
X009849Y007400D01*
X009424Y007400D01*
X009424Y008900D02*
X008210Y008900D01*
X008105Y009006D01*
X007405Y009956D02*
X007155Y009956D01*
X006781Y012296D02*
X006884Y012399D01*
X006884Y013248D01*
X006884Y013579D01*
X006886Y013615D01*
X006891Y013651D01*
X006900Y013687D01*
X006912Y013721D01*
X006928Y013754D01*
X006947Y013785D01*
X006968Y013814D01*
X006993Y013841D01*
X007020Y013866D01*
X007049Y013887D01*
X007080Y013906D01*
X007113Y013922D01*
X007147Y013934D01*
X007183Y013943D01*
X007219Y013948D01*
X007255Y013950D01*
X007277Y013248D02*
X007277Y013083D01*
X007330Y013081D01*
X007355Y013056D01*
X008280Y013056D01*
X008584Y012751D01*
X008584Y012441D01*
X007298Y007406D02*
X006755Y007406D01*
X007298Y007406D02*
X007304Y007400D01*
D40*
X011462Y006558D02*
X011474Y006547D01*
X011474Y006470D01*
X011462Y006558D02*
X011555Y006551D01*
X011555Y007007D01*
X011905Y007356D01*
X011905Y008006D01*
X011755Y008156D01*
X012105Y008256D02*
X012105Y007256D01*
X012050Y007202D01*
X012050Y006533D01*
X012081Y006502D01*
X012081Y006467D01*
X012545Y006601D02*
X012545Y007630D01*
X012547Y007640D01*
X012551Y007649D01*
X012559Y007657D01*
X012568Y007661D01*
X012578Y007663D01*
X012545Y006601D02*
X012547Y006580D01*
X012552Y006559D01*
X012560Y006540D01*
X012571Y006522D01*
X012585Y006506D01*
X012601Y006492D01*
X012619Y006481D01*
X012639Y006473D01*
X012660Y006468D01*
X012681Y006467D01*
D41*
X010155Y009256D02*
X010155Y009601D01*
X010144Y009612D01*
X010155Y009256D02*
X009799Y008900D01*
X009424Y008900D01*
X009295Y009553D02*
X008657Y009553D01*
X008655Y009556D01*
X008255Y009556D02*
X008252Y009553D01*
X006992Y009553D01*
X006992Y009809D02*
X006992Y010065D01*
X007101Y009956D01*
X007155Y009956D01*
X007155Y010606D02*
X009655Y010606D01*
X009755Y010706D01*
X009755Y011260D01*
X009681Y011333D01*
X008655Y010956D02*
X008293Y010956D01*
X008290Y010959D01*
X008290Y011333D02*
X008228Y011333D01*
X008205Y011356D01*
X008055Y011356D01*
X007631Y010933D01*
X007509Y010933D01*
X007155Y010606D02*
X006855Y010906D01*
X006855Y010933D01*
X006855Y011479D02*
X006855Y012222D01*
X006781Y012296D01*
X008255Y011906D02*
X008255Y011742D01*
X008290Y011707D01*
D42*
X007405Y009956D03*
D43*
X009154Y011707D02*
X008605Y012256D01*
X008605Y012421D01*
X008584Y012441D01*
X009154Y011707D02*
X009313Y011707D01*
X009313Y011333D02*
X009681Y011333D01*
X009805Y011456D01*
X009805Y011956D01*
X009319Y012441D01*
X009293Y012441D01*
D44*
X008255Y011906D03*
X008655Y010956D03*
X008655Y009556D03*
X008255Y009556D03*
D45*
X007978Y004662D02*
X008208Y004433D01*
X008208Y003943D01*
X008601Y003943D02*
X008601Y004433D01*
X008831Y004662D01*
M02*
